<svg width="60" height="64" viewBox="0 0 60 64" fill="none" xmlns="http://www.w3.org/2000/svg">
    <g filter="url(#filter0_d_267_11646)">
        <path d="M46.9185 4.39941H21.449C18.2388 4.39941 15.6123 7.13207 15.6123 10.4749V21.8831H10.8368C7.62654 21.8831 5 24.6157 5 27.9586V45.0443C5 48.3872 7.62654 51.1198 10.8368 51.1198H11.0755V52.7913C11.0755 54.781 12.6674 56.3994 14.6307 56.3994C15.6123 56.3994 16.5143 56.0015 17.2041 55.2851L20.9715 51.1198H36.3328C39.543 51.1198 42.1695 48.3872 42.1695 45.0443V38.7566C42.4879 38.8627 42.8328 38.8892 43.1512 38.8892C45.1145 38.8892 46.7063 37.2708 46.7063 35.281V33.6096H46.9451C50.1553 33.6096 52.7818 30.877 52.7818 27.5341V10.4749C52.7818 7.13207 50.1553 4.39941 46.9451 4.39941H46.9185Z" fill="white" />
    </g>
    <path d="M50.1025 10.4752V27.5609C50.1025 29.4446 48.6698 30.9833 46.9188 30.9833H44.027V35.3078C44.027 36.1568 43.0719 36.5813 42.5147 35.9711L37.978 30.9833H21.4493C19.6983 30.9833 18.2656 29.4446 18.2656 27.5609V10.4752C18.2656 8.59151 19.6983 7.05273 21.4493 7.05273H46.9188C48.6698 7.05273 50.1025 8.59151 50.1025 10.4752Z" fill="#FFE39E" />
    <path d="M38.957 17.7186V20.2921C38.957 20.7696 39.3019 21.1411 39.753 21.1411H42.1407C42.5917 21.1411 42.9366 20.7696 42.9366 20.2921V17.7186C42.9366 17.2411 42.5917 16.8696 42.1407 16.8696H39.753C39.3019 16.8696 38.957 17.2411 38.957 17.7186Z" fill="#F3B527" />
    <path d="M32.1953 17.7176V20.2911C32.1953 20.7687 32.5402 21.1401 32.9912 21.1401H35.379C35.83 21.1401 36.1749 20.7687 36.1749 20.2911V17.7176C36.1749 17.2401 35.83 16.8687 35.379 16.8687H32.9912C32.5402 16.8687 32.1953 17.2401 32.1953 17.7176Z" fill="#F3B527" />
    <path d="M25.4297 17.7186V20.2921C25.4297 20.7696 25.7746 21.1411 26.2256 21.1411H28.6134C29.0644 21.1411 29.4093 20.7696 29.4093 20.2921V17.7186C29.4093 17.2411 29.0644 16.8696 28.6134 16.8696H26.2256C25.7746 16.8696 25.4297 17.2411 25.4297 17.7186Z" fill="#F3B527" />
    <path d="M10.836 24.5366H36.3055C38.0566 24.5366 39.4892 26.0754 39.4892 27.9591V45.0448C39.4892 46.9285 38.0566 48.4672 36.3055 48.4672H19.7769L15.2401 53.455C14.683 54.0652 13.7279 53.6407 13.7279 52.7917V48.4672H10.836C9.085 48.4672 7.65234 46.9285 7.65234 45.0448V27.9591C7.65234 26.0754 9.085 24.5366 10.836 24.5366Z" fill="#FFB3BC" />
    <path d="M18.0001 34.353H15.6123C15.1613 34.353 14.8164 34.751 14.8164 35.202V37.7755C14.8164 38.253 15.1878 38.6245 15.6123 38.6245H18.0001C18.4511 38.6245 18.796 38.2265 18.796 37.7755V35.202C18.796 34.7245 18.4246 34.353 18.0001 34.353Z" fill="#FF5065" />
    <path d="M24.7657 34.353H22.378C21.9269 34.353 21.582 34.751 21.582 35.202V37.7755C21.582 38.253 21.9535 38.6245 22.378 38.6245H24.7657C25.2167 38.6245 25.5616 38.2265 25.5616 37.7755V35.202C25.5616 34.7245 25.1902 34.353 24.7657 34.353Z" fill="#FF5065" />
    <path d="M31.5294 34.353H29.1416C28.6906 34.353 28.3457 34.751 28.3457 35.202V37.7755C28.3457 38.253 28.7171 38.6245 29.1416 38.6245H31.5294C31.9804 38.6245 32.3253 38.2265 32.3253 37.7755V35.202C32.3253 34.7245 31.9539 34.353 31.5294 34.353Z" fill="#FF5065" />
    <defs>
        <filter id="filter0_d_267_11646" x="0.10203" y="-0.00875854" width="59.5364" height="63.7551" filterUnits="userSpaceOnUse" color-interpolation-filters="sRGB">
            <feFlood flood-opacity="0" result="BackgroundImageFix" />
            <feColorMatrix in="SourceAlpha" type="matrix" values="0 0 0 0 0 0 0 0 0 0 0 0 0 0 0 0 0 0 127 0" result="hardAlpha" />
            <feOffset dx="0.979594" dy="1.46939" />
            <feGaussianBlur stdDeviation="2.93878" />
            <feComposite in2="hardAlpha" operator="out" />
            <feColorMatrix type="matrix" values="0 0 0 0 0 0 0 0 0 0 0 0 0 0 0 0 0 0 0.08 0" />
            <feBlend mode="normal" in2="BackgroundImageFix" result="effect1_dropShadow_267_11646" />
            <feBlend mode="normal" in="SourceGraphic" in2="effect1_dropShadow_267_11646" result="shape" />
        </filter>
    </defs>
</svg>
