<svg width="32" height="32" viewBox="0 0 32 32" fill="none" xmlns="http://www.w3.org/2000/svg">
<path d="M15.029 8.72206V6.78267C15.029 5.97782 14.3793 5.32812 13.5745 5.32812H6.78658C5.98173 5.32812 5.33203 5.97782 5.33203 6.78267V13.5705C5.33203 14.3754 5.98173 15.0251 6.78658 15.0251H8.72597C8.72597 14.2202 9.37567 13.5705 10.1805 13.5705C10.9854 13.5705 11.6351 14.2202 11.6351 15.0251H13.5745C14.3793 15.0251 15.029 14.3754 15.029 13.5705V11.6312C15.8338 11.6312 16.4835 10.9815 16.4835 10.1766C16.4835 9.37176 15.8338 8.72206 15.029 8.72206Z" fill="#FFC747"/>
<path d="M15.029 20.3563V18.4169C15.029 17.6121 14.3793 16.9624 13.5745 16.9624H11.6351C11.6351 16.1575 10.9854 15.5078 10.1805 15.5078C9.37567 15.5078 8.72597 16.1575 8.72597 16.9624H6.78658C5.98173 16.9624 5.33203 17.6121 5.33203 18.4169V25.2048C5.33203 26.0096 5.98173 26.6593 6.78658 26.6593H13.5745C14.3793 26.6593 15.029 26.0096 15.029 25.2048V23.2654C14.2242 23.2654 13.5745 22.6157 13.5745 21.8108C13.5745 21.006 14.2242 20.3563 15.029 20.3563Z" fill="#9EEAFF"/>
<path d="M25.2092 5.32812H18.4213C17.6165 5.32812 16.9668 5.97782 16.9668 6.78267V8.72206C17.7716 8.72206 18.4213 9.37176 18.4213 10.1766C18.4213 10.9815 17.7716 11.6312 16.9668 11.6312V13.5705C16.9668 14.3754 17.6165 15.0251 18.4213 15.0251H20.3607C20.3607 15.8299 21.0104 16.4796 21.8153 16.4796C22.6201 16.4796 23.2698 15.8299 23.2698 15.0251H25.2092C26.0141 15.0251 26.6638 14.3754 26.6638 13.5705V6.78267C26.6638 5.97782 26.0141 5.32812 25.2092 5.32812Z" fill="#FF5065"/>
<path d="M25.2106 16.9609H23.2712C23.2712 17.7658 22.6216 18.4155 21.8167 18.4155C21.0119 18.4155 20.3622 17.7658 20.3622 16.9609H18.4228C17.6179 16.9609 16.9682 17.6106 16.9682 18.4155V20.3549C16.1634 20.3549 15.5137 21.0046 15.5137 21.8094C15.5137 22.6143 16.1634 23.264 16.9682 23.264V25.2034C16.9682 26.0082 17.6179 26.6579 18.4228 26.6579H25.2106C26.0155 26.6579 26.6652 26.0082 26.6652 25.2034V18.4155C26.6652 17.6106 26.0155 16.9609 25.2106 16.9609Z" fill="#1ACEFF"/>
</svg>
