<svg width="32" height="32" viewBox="0 0 32 32" fill="none" xmlns="http://www.w3.org/2000/svg">
<g clip-path="url(#clip0_1473_32058)">
<path d="M20.8492 10.5938H11.1522C9.0092 10.5938 7.27344 12.3523 7.27344 14.5236V21.4008C7.27344 23.572 9.0092 25.3306 11.1522 25.3306H20.8492C22.9922 25.3306 24.728 23.572 24.728 21.4008V14.5236C24.728 12.3523 22.9922 10.5938 20.8492 10.5938Z" fill="#FFC747"/>
<path d="M16.0012 6.66406C16.3212 6.66406 16.6315 6.79178 16.8545 7.02757C17.0775 7.25354 17.2133 7.56792 17.2133 7.89213V10.5939H14.7891V7.89213C14.7891 7.56792 14.9151 7.25354 15.1479 7.02757C15.3709 6.80161 15.6812 6.66406 16.0012 6.66406Z" fill="#FF5065"/>
<path d="M14.0595 16.4971C14.0595 15.6817 13.4098 15.0234 12.6049 15.0234C11.8001 15.0234 11.1504 15.6817 11.1504 16.4971V18.462C11.1504 19.2775 11.8001 19.9357 12.6049 19.9357C13.4098 19.9357 14.0595 19.2775 14.0595 18.462V16.4971Z" fill="#FFF6E0"/>
<path d="M20.8485 16.4971C20.8485 15.6817 20.1988 15.0234 19.394 15.0234C18.5892 15.0234 17.9395 15.6817 17.9395 16.4971V18.462C17.9395 19.2775 18.5892 19.9357 19.394 19.9357C20.1988 19.9357 20.8485 19.2775 20.8485 18.462V16.4971Z" fill="#FFF6E0"/>
<path d="M7.27338 14.5312V20.426C6.75944 20.426 6.26489 20.2197 5.90611 19.8463C5.54732 19.473 5.33398 18.9818 5.33398 18.4611V16.4962C5.33398 15.9755 5.53762 15.4744 5.90611 15.1109C6.27459 14.7474 6.75944 14.5312 7.27338 14.5312Z" fill="#FFE39E"/>
<path d="M24.7266 14.5312C25.2405 14.5312 25.735 14.7376 26.0938 15.1109C26.4623 15.4842 26.666 15.9755 26.666 16.4962V18.4611C26.666 18.9818 26.4623 19.4828 26.0938 19.8463C25.7254 20.2197 25.2405 20.426 24.7266 20.426V14.5312Z" fill="#FFE39E"/>
</g>
<defs>
<clipPath id="clip0_1473_32058">
<rect width="21.3333" height="18.6667" fill="white" transform="translate(5.33398 6.66406)"/>
</clipPath>
</defs>
</svg>
