<svg width="380" height="360" viewBox="0 0 380 360" fill="none" xmlns="http://www.w3.org/2000/svg">
<g clip-path="url(#clip0_376_47888)">
<g style="mix-blend-mode:multiply" opacity="0.15">
<path d="M194.164 359.99C251.87 359.99 298.65 352.812 298.65 343.958C298.65 335.104 251.87 327.926 194.164 327.926C136.458 327.926 89.6777 335.104 89.6777 343.958C89.6777 352.812 136.458 359.99 194.164 359.99Z" fill="black"/>
</g>
<path d="M95.3504 220.525C95.3504 220.525 72.0931 198.425 61.3528 187.552C61.3528 187.552 59.4853 184.533 51.1475 178.95C42.8197 173.367 48.1898 170.086 54.5997 174.72C54.5997 174.72 47.6044 167.118 50.8547 164.816C53.8325 162.696 62.0796 172.731 62.0796 172.731C62.0796 172.731 56.2047 163.564 59.2229 160.485C62.2411 157.406 69.9027 170.914 69.9027 170.914C69.9027 170.914 71.8408 164.271 75.2526 165.714C78.6645 167.158 78.9774 174.69 78.8866 177.456L104.98 194.932" fill="#FF9680"/>
<path d="M95.3504 220.525C95.3504 220.525 72.0931 198.425 61.3528 187.552C61.3528 187.552 59.4853 184.533 51.1475 178.95C42.8197 173.367 48.1898 170.086 54.5997 174.72C54.5997 174.72 47.6044 167.118 50.8547 164.816C53.8325 162.696 62.0796 172.731 62.0796 172.731C62.0796 172.731 56.2047 163.564 59.2229 160.485C62.2411 157.406 69.9027 170.914 69.9027 170.914C69.9027 170.914 71.8408 164.271 75.2526 165.714C78.6645 167.158 78.9774 174.69 78.8866 177.456L104.98 194.932" stroke="#4C2318" stroke-width="3" stroke-linecap="round" stroke-linejoin="round"/>
<path d="M229.201 85.7147C229.201 85.7147 164.295 59.9701 143.51 126.997C143.51 126.997 133.84 124.15 149.042 102.454C149.042 102.454 89.6472 149.612 87.3053 220.535C84.9634 291.459 149.799 320.394 201.643 317.305C252.7 314.256 294.491 283.383 300.255 237.678C306.008 192.055 280.843 127.532 239.537 99.4754C239.537 99.4754 257.152 124.604 243.131 137.466C243.131 137.466 251.54 120.515 228.545 103.372C228.545 103.372 211.788 92.4587 192.306 99.4754C192.306 99.4754 201.815 89.9751 229.191 85.7147H229.201Z" fill="#FF9680" stroke="#4C2318" stroke-width="3" stroke-linecap="round" stroke-linejoin="round"/>
<path d="M246.725 135.032C246.725 135.032 248.491 131.145 248.522 123.372C248.067 111.64 239.548 99.4746 239.548 99.4746C242.203 101.272 244.787 103.23 247.3 105.32C251.58 112.892 257.344 125.3 246.725 135.032Z" fill="white"/>
<path d="M229.05 85.7141C228.888 85.7444 228.716 85.7646 228.555 85.7949C212.434 81.4132 167.424 74.437 149.698 125.926C148.901 128.238 145.913 129.126 144.177 127.41C143.884 127.117 143.652 126.774 143.51 126.36C142.905 124.462 145.449 120.969 147.437 116.214C147.447 116.194 147.457 116.173 147.457 116.153C148.144 114.619 148.86 113.155 149.607 111.751C149.628 111.711 149.658 111.661 149.688 111.61C150.869 109.48 152.363 107.087 154.241 104.402C154.21 104.432 154.099 104.513 153.908 104.674C180.456 66.441 229.05 85.7141 229.05 85.7141Z" fill="white"/>
<path d="M149.032 102.463C144.318 109.197 141.996 114.124 141.047 117.698C126.603 131.438 94.3714 166.945 87.5679 215.527C92.3929 147.945 148.144 103.17 149.032 102.463Z" fill="white"/>
<path d="M229.201 85.7147C229.201 85.7147 164.295 59.9701 143.51 126.997C143.51 126.997 133.84 124.15 149.042 102.454C149.042 102.454 89.6472 149.612 87.3053 220.535C84.9634 291.459 149.799 320.394 201.643 317.305C252.7 314.256 294.491 283.383 300.255 237.678C306.008 192.055 280.843 127.532 239.537 99.4754C239.537 99.4754 257.152 124.604 243.131 137.466C243.131 137.466 251.54 120.515 228.545 103.372C228.545 103.372 211.788 92.4587 192.306 99.4754C192.306 99.4754 201.815 89.9751 229.191 85.7147H229.201Z" stroke="#4C2318" stroke-width="3" stroke-linecap="round" stroke-linejoin="round"/>
<path d="M121.666 265.654C108.463 253.943 91.6964 231.772 96.3903 196.951C97.3997 189.45 99.6508 182.171 103.123 175.437C112.814 156.628 138.867 121.878 196.172 131.792C268.851 144.372 263.3 212.317 260.736 226.209C260.483 227.582 260.281 228.955 260.079 230.338C256.728 253.428 215.917 299.718 146.882 279.516C137.565 276.79 128.924 272.095 121.656 265.654H121.666Z" fill="#FFEAA9"/>
<path d="M254.992 174.296C246.341 156.769 229.524 140.676 197.737 135.174C120.203 121.757 99.8728 190.106 99.8728 190.106C95.4212 208.602 97.541 223.735 102.77 235.881C96.4407 223.19 93.4326 206.976 98.3082 186.734C98.3082 186.734 118.638 118.384 196.172 131.802C229.988 137.658 246.866 155.497 254.992 174.296Z" fill="white"/>
<path d="M192.317 99.4648C192.317 99.4648 176.226 109.308 186.795 119.132C193.185 125.078 204.834 119.091 202.996 112.812C202.996 112.812 201.371 107.138 195.769 110.52" fill="#FF9680"/>
<path d="M192.317 99.4648C192.317 99.4648 176.226 109.308 186.795 119.132C193.185 125.078 204.834 119.091 202.996 112.812C202.996 112.812 201.371 107.138 195.769 110.52" stroke="#4C2318" stroke-width="3" stroke-linecap="round" stroke-linejoin="round"/>
<path d="M295.016 215.659C295.016 215.659 320.241 198.425 334.757 185.099C334.757 185.099 354.713 179.92 357.691 173.408C360.134 168.067 345.538 173.216 345.538 173.216C345.538 173.216 356.611 167.168 355.42 162.433C354.229 157.698 340.541 166.028 340.541 166.028C340.541 166.028 351.12 159.546 347.95 154.225C344.791 148.905 332.577 160.01 332.577 160.01C332.577 160.01 334.182 149.904 329.023 151.661C323.229 153.64 324.41 164.917 324.41 164.917C324.41 164.917 307.603 180.546 284.952 194.054" fill="#FF9680"/>
<path d="M295.016 215.659C295.016 215.659 320.241 198.425 334.757 185.099C334.757 185.099 354.713 179.92 357.691 173.408C360.134 168.067 345.538 173.216 345.538 173.216C345.538 173.216 356.611 167.168 355.42 162.433C354.229 157.698 340.541 166.028 340.541 166.028C340.541 166.028 351.12 159.546 347.95 154.225C344.791 148.905 332.577 160.01 332.577 160.01C332.577 160.01 334.182 149.904 329.023 151.661C323.229 153.64 324.41 164.917 324.41 164.917C324.41 164.917 307.603 180.546 284.952 194.054" stroke="#4C2318" stroke-width="3" stroke-linecap="round" stroke-linejoin="round"/>
<path d="M129.153 188.751C129.253 185.82 123.228 183.235 115.695 182.977C108.162 182.719 101.974 184.886 101.874 187.818C101.774 190.749 107.799 193.334 115.332 193.592C122.865 193.85 129.053 191.682 129.153 188.751Z" fill="#FF7471" stroke="#4C2318" stroke-width="3" stroke-linecap="round" stroke-linejoin="round"/>
<path d="M149.79 168.584C149.931 164.483 146.723 161.045 142.625 160.904C138.527 160.764 135.091 163.975 134.95 168.077L134.622 177.682C134.481 181.784 137.69 185.222 141.788 185.362C145.886 185.503 149.321 182.292 149.462 178.19L149.79 168.584Z" fill="#4C2318"/>
<path d="M138.948 169.985C139.935 169.985 140.735 169.185 140.735 168.198C140.735 167.211 139.935 166.411 138.948 166.411C137.961 166.411 137.161 167.211 137.161 168.198C137.161 169.185 137.961 169.985 138.948 169.985Z" fill="white"/>
<path d="M229.061 188.749C229.161 185.818 223.136 183.233 215.603 182.975C208.07 182.717 201.882 184.885 201.782 187.816C201.682 190.747 207.707 193.332 215.24 193.59C222.773 193.848 228.961 191.681 229.061 188.749Z" fill="#FF7471" stroke="#4C2318" stroke-width="3" stroke-linecap="round" stroke-linejoin="round"/>
<path d="M197.72 168.588C197.861 164.487 194.652 161.048 190.554 160.908C186.456 160.768 183.02 163.979 182.88 168.081L182.551 177.686C182.411 181.788 185.619 185.226 189.717 185.366C193.815 185.507 197.251 182.295 197.391 178.194L197.72 168.588Z" fill="#4C2318"/>
<path d="M186.876 169.985C187.863 169.985 188.663 169.185 188.663 168.198C188.663 167.211 187.863 166.411 186.876 166.411C185.889 166.411 185.089 167.211 185.089 168.198C185.089 169.185 185.889 169.985 186.876 169.985Z" fill="white"/>
<path d="M243.132 137.456C243.132 137.456 240.962 140.152 237.448 141.797L243.132 137.456Z" fill="#FF9680"/>
<path d="M243.132 137.456C243.132 137.456 240.962 140.152 237.448 141.797" stroke="#4C2318" stroke-width="3" stroke-linecap="round" stroke-linejoin="round"/>
<path d="M231.735 296.8C231.735 296.8 209.457 296.8 209.457 329.016C209.457 349.511 219.642 350.308 235.207 350.409C257.192 350.541 262.25 344.604 261.987 332.509C261.715 320.414 259.474 293.832 231.735 296.81V296.8Z" fill="#FF7761" stroke="#4C2318" stroke-width="3" stroke-linecap="round" stroke-linejoin="round"/>
<g style="mix-blend-mode:color-burn" opacity="0.15">
<path d="M235.217 350.409C227.637 350.359 221.317 350.147 216.846 347.552C220.187 348.077 224.043 348.158 228.283 348.178C250.268 348.309 255.335 342.373 255.063 330.268C254.861 321.08 253.518 303.564 240.749 296.951C259.999 300.061 261.755 321.868 261.987 332.499C262.26 344.594 257.203 350.54 235.217 350.409Z" fill="black"/>
</g>
<path d="M223.245 306.593C223.245 306.593 228.464 303.797 228.06 307.532C227.656 311.268 223.841 313.721 222.034 310.823C220.227 307.926 223.235 306.593 223.235 306.593H223.245Z" fill="white"/>
<path d="M163.023 313.811C162.215 326.199 162.811 340.363 151.333 342.251C136.788 346.885 115.135 348.844 107.746 346.249C101.155 344.775 95.946 340.757 93.6849 333.044C89.3444 318.223 95.2798 303.019 106.283 296.345C111.703 293.952 116.902 293.71 121.626 294.831C127.834 296.295 133.255 300.101 137.373 304.523C140.099 307.441 142.249 310.621 143.682 313.569C144.621 313.841 145.852 310.964 147.013 308.804C152.222 310.833 157.592 312.509 163.023 313.811Z" fill="#FF7761" stroke="#4C2318" stroke-width="3" stroke-linecap="round" stroke-linejoin="round"/>
<g style="mix-blend-mode:color-burn" opacity="0.15">
<path d="M163.629 314.507C162.135 327.672 164.184 340.131 151.344 342.251C136.788 346.885 115.136 348.844 107.757 346.249C106.515 345.966 99.7417 341.968 98.6011 341.504C98.6011 341.504 111.663 346.037 125.472 333.922C140.18 321.019 132.77 300.312 132.77 300.312C137.706 304.119 141.522 309.116 143.692 313.568L147.023 308.803L163.639 314.517L163.629 314.507Z" fill="black"/>
</g>
<path d="M107.413 306.946C107.413 306.946 102.578 310.803 102.204 307.199C101.831 303.604 105.273 300.404 107.766 302.696C110.26 304.988 107.413 306.946 107.413 306.946Z" fill="white"/>
<path d="M164.204 214.548C162.882 214.528 161.559 214.478 160.247 214.397C152.757 213.953 148.962 208.067 148.719 204.493C148.457 200.515 152.575 198.849 160.933 199.031C162.165 199.061 163.396 199.102 164.638 199.162C172.3 199.526 176.206 200.788 176.438 204.412C176.691 208.37 172.572 214.69 164.214 214.548H164.204Z" fill="#FF7471" stroke="#4C2318" stroke-width="3" stroke-linecap="round" stroke-linejoin="round"/>
<path d="M26.911 98.1123C26.911 98.1123 54.4785 113.832 80.4209 112.499L67.5203 180.757C67.5203 180.757 26.275 182.857 7.66113 162.726L26.911 98.1123Z" fill="white" stroke="#4C2318" stroke-width="3" stroke-linecap="round" stroke-linejoin="round"/>
<path d="M31.7048 118.35C31.9516 118.449 32.0528 118.612 32.0084 118.841C31.9001 119.308 31.7672 119.853 31.6099 120.473C31.4546 121.086 31.2882 121.724 31.1107 122.389C30.9431 123.048 30.7697 123.697 30.5907 124.337C30.4138 124.969 30.2534 125.539 30.1094 126.047C30.0109 126.385 29.8645 126.623 29.6702 126.762C29.4759 126.9 29.1989 126.93 28.8392 126.85C28.6517 126.808 28.51 126.75 28.4141 126.674C28.3162 126.607 28.2488 126.519 28.2117 126.409C28.1824 126.302 28.1747 126.176 28.1886 126.03C28.2026 125.885 28.2294 125.723 28.2691 125.543C28.4554 124.69 28.6528 123.811 28.8612 122.906C29.0795 121.996 29.2915 121.108 29.4974 120.244C29.3943 120.258 29.2601 120.28 29.0947 120.311C28.9313 120.333 28.7543 120.36 28.5636 120.392C28.3806 120.426 28.1949 120.455 28.0063 120.479C27.8274 120.498 27.6731 120.502 27.5432 120.492C27.3881 120.484 27.2686 120.436 27.1846 120.347C27.1027 120.251 27.0402 120.097 26.9969 119.887C26.9537 119.677 26.9525 119.511 26.9932 119.389C27.0437 119.262 27.1208 119.175 27.2244 119.128C27.3924 119.057 27.5916 118.978 27.822 118.89C28.0523 118.803 28.2904 118.717 28.5363 118.634C28.7842 118.543 29.0233 118.453 29.2537 118.366C29.4918 118.28 29.6977 118.207 29.8713 118.146C30.0275 118.088 30.1648 118.054 30.2834 118.045C30.4019 118.035 30.5251 118.039 30.6528 118.056C30.8116 118.082 30.9904 118.126 31.1892 118.187C31.3902 118.241 31.562 118.295 31.7048 118.35ZM37.0515 127.801C36.6221 128.076 36.1575 128.25 35.6577 128.323C35.1557 128.404 34.6399 128.383 34.1102 128.258C33.5882 128.135 33.1278 127.921 32.7291 127.616C32.3303 127.31 32.0132 126.932 31.7779 126.48C31.5502 126.03 31.41 125.516 31.357 124.939C31.3139 124.356 31.3842 123.721 31.5678 123.033C31.7329 122.415 31.9657 121.868 32.2663 121.394C32.5689 120.911 32.9264 120.518 33.3388 120.214C33.7511 119.91 34.2162 119.703 34.7342 119.593C35.2521 119.483 35.8138 119.488 36.4192 119.609C37.0092 119.725 37.5065 119.94 37.9109 120.255C38.3153 120.57 38.6234 120.967 38.835 121.446C39.0487 121.917 39.1625 122.453 39.1762 123.053C39.1977 123.655 39.1156 124.303 38.9298 124.999C38.7565 125.648 38.508 126.207 38.1842 126.675C37.8605 127.144 37.4829 127.519 37.0515 127.801ZM35.2261 126.544C35.4812 126.488 35.7226 126.374 35.9505 126.203C36.1881 126.026 36.4043 125.79 36.5992 125.494C36.7941 125.199 36.9493 124.834 37.0648 124.402C37.1866 123.945 37.2338 123.536 37.2066 123.173C37.1892 122.804 37.1205 122.487 37.0005 122.223C36.8826 121.952 36.7278 121.74 36.5362 121.59C36.3543 121.434 36.1647 121.338 35.9673 121.301C35.7313 121.255 35.4886 121.265 35.2392 121.331C34.9975 121.398 34.7617 121.522 34.5318 121.701C34.3097 121.881 34.104 122.124 33.9148 122.43C33.7276 122.728 33.5773 123.089 33.4638 123.514C33.3441 123.963 33.294 124.367 33.3135 124.729C33.335 125.082 33.3981 125.389 33.5026 125.649C33.6169 125.903 33.7612 126.107 33.9353 126.261C34.1192 126.41 34.3127 126.507 34.5157 126.553C34.7419 126.605 34.9787 126.602 35.2261 126.544ZM44.875 129.891C44.4456 130.165 43.981 130.339 43.4811 130.413C42.9792 130.494 42.4634 130.472 41.9337 130.347C41.4117 130.224 40.9513 130.01 40.5525 129.705C40.1538 129.4 39.8367 129.021 39.6013 128.569C39.3737 128.119 39.2334 127.606 39.1805 127.028C39.1374 126.445 39.2077 125.81 39.3913 125.122C39.5564 124.504 39.7892 123.957 40.0898 123.483C40.3924 123.001 40.7499 122.608 41.1622 122.304C41.5746 122 42.0397 121.793 42.5576 121.683C43.0756 121.573 43.6373 121.578 44.2427 121.698C44.8327 121.814 45.3299 122.03 45.7344 122.345C46.1388 122.66 46.4468 123.057 46.6585 123.536C46.8722 124.007 46.9859 124.542 46.9997 125.142C47.0212 125.744 46.939 126.393 46.7533 127.088C46.58 127.738 46.3314 128.296 46.0077 128.765C45.6839 129.233 45.3064 129.608 44.875 129.891ZM43.0496 128.633C43.3047 128.577 43.5461 128.463 43.7739 128.292C44.0115 128.116 44.2278 127.879 44.4227 127.584C44.6175 127.288 44.7728 126.924 44.8883 126.491C45.0101 126.035 45.0573 125.625 45.0301 125.262C45.0127 124.893 44.944 124.576 44.824 124.312C44.7061 124.041 44.5513 123.83 44.3596 123.679C44.1778 123.523 43.9882 123.427 43.7908 123.391C43.5548 123.344 43.3121 123.354 43.0627 123.42C42.821 123.488 42.5852 123.611 42.3553 123.79C42.1331 123.971 41.9275 124.214 41.7382 124.519C41.5511 124.817 41.4008 125.179 41.2873 125.604C41.1676 126.052 41.1175 126.457 41.137 126.818C41.1585 127.172 41.2216 127.478 41.3261 127.738C41.4404 127.992 41.5846 128.196 41.7588 128.35C41.9427 128.499 42.1362 128.596 42.3392 128.642C42.5654 128.694 42.8022 128.691 43.0496 128.633Z" fill="#FF7761"/>
<path d="M28.9902 134.791C28.9902 134.791 47.9675 142.827 66.218 141.606" stroke="#FF7761" stroke-width="3" stroke-linecap="round" stroke-linejoin="round"/>
<path d="M23.0347 138.829C23.0347 138.829 37.944 146.936 60.0101 146.916" stroke="#FF7761" stroke-width="3" stroke-linecap="round" stroke-linejoin="round"/>
<path d="M321.806 74.4378C321.806 74.4378 326.308 83.8472 335.312 83.7766L326.308 95.5282C326.308 95.5282 314.872 90.8437 312.429 83.3323L321.806 74.4277V74.4378Z" fill="#FFC248" stroke="#513925" stroke-width="3" stroke-linecap="round" stroke-linejoin="round"/>
<path d="M71.8409 45.4014C71.8409 45.4014 71.0636 54.3161 63.8159 56.9814L74.5865 63.6952C74.5865 63.6952 82.3591 56.4766 82.0462 49.7123L71.8308 45.4014H71.8409Z" fill="#FFC248" stroke="#513925" stroke-width="3" stroke-linecap="round" stroke-linejoin="round"/>
<path d="M100.014 16.9613C100.014 16.9613 106.939 13.0542 110.179 7.21875L118.507 16.7998C118.507 16.7998 112.602 25.6135 105.879 26.3707L100.014 16.9613Z" fill="#FF9680" stroke="#4C2318" stroke-width="3" stroke-linecap="round" stroke-linejoin="round"/>
<path d="M4.49198 44.8965C4.49198 44.8965 8.84262 47.2286 12.9813 46.9863L10.7303 54.5482C10.7303 54.5482 4.14877 54.3866 1.51416 51.1055L4.49198 44.8965Z" fill="#E680FF" stroke="#513925" stroke-width="3" stroke-linecap="round" stroke-linejoin="round"/>
<path d="M369.996 39.1729C369.996 39.1729 374.347 41.505 378.486 41.2627L376.235 48.8245C376.235 48.8245 369.653 48.663 367.019 45.3818L369.996 39.1729Z" fill="#BDFF97" stroke="#513925" stroke-width="3" stroke-linecap="round" stroke-linejoin="round"/>
<path d="M244.726 1.51465C244.726 1.51465 240.719 6.3304 235.732 8.00632L241.97 15.8206C241.97 15.8206 249.632 12.499 251.176 7.40056L244.726 1.51465Z" fill="#83FFDC" stroke="#513925" stroke-width="3" stroke-linecap="round" stroke-linejoin="round"/>
</g>
<defs>
<clipPath id="clip0_376_47888">
<rect width="380" height="360" fill="white"/>
</clipPath>
</defs>
</svg>
