<svg width="24" height="24" viewBox="0 0 24 24" fill="none" xmlns="http://www.w3.org/2000/svg">
<path d="M17.942 15.4431V10.96C17.942 8.58769 16.3598 6.47692 14.04 5.68C13.8976 4.73231 13.037 4 12.0016 4C10.9663 4 10.1056 4.73231 9.96325 5.68C7.64017 6.47692 6.05801 8.58769 6.05801 10.96V15.4431C5.45297 15.5723 5 16.0862 5 16.6985C5 17.4092 5.60827 17.9846 6.35244 17.9846H9.31292C9.60411 19.1385 10.7009 20 12.0016 20C13.3023 20 14.3991 19.1385 14.6903 17.9846H17.6508C18.3982 17.9846 19.0032 17.4062 19.0032 16.6985C19.0032 16.0862 18.5503 15.5692 17.9452 15.4431H17.942Z" fill="#FFC747"/>
</svg>
