<svg width="52" height="52" viewBox="0 0 52 52" fill="none" xmlns="http://www.w3.org/2000/svg">
<g clip-path="url(#clip0_1871_33658)">
<path fill-rule="evenodd" clip-rule="evenodd" d="M10.7411 26.2312C10.739 26.2692 10.7379 26.3075 10.7379 26.346C10.7379 26.9607 11.0152 27.5106 11.4516 27.8775L24.2276 40.6535C25.0086 41.4345 26.2749 41.4345 27.056 40.6535C27.837 39.8724 27.837 38.6061 27.056 37.8251L17.5768 28.3459L38.5925 28.3457C39.6971 28.3456 40.5925 27.4502 40.5925 26.3456C40.5925 25.2411 39.6971 24.3456 38.5925 24.3457L17.5568 24.3459L27.7443 14.1585C28.5253 13.3775 28.5253 12.1111 27.7443 11.3301C26.9632 10.5491 25.6969 10.5491 24.9158 11.3301L11.3242 24.9217C10.9603 25.2856 10.766 25.7548 10.7411 26.2312Z" fill="#222222"/>
</g>
<defs>
<clipPath id="clip0_1871_33658">
<rect y="52" width="52" height="52" rx="26" transform="rotate(-90 0 52)" fill="white"/>
</clipPath>
</defs>
</svg>
