<svg width="24" height="24" viewBox="0 0 24 24" fill="none" xmlns="http://www.w3.org/2000/svg">
<g clip-path="url(#clip0_1946_16424)">
<path fill-rule="evenodd" clip-rule="evenodd" d="M11.6703 19.2762C11.8187 19.3383 11.9817 19.3726 12.1526 19.3726C12.5112 19.3726 12.8346 19.2216 13.0625 18.9796L18.9913 13.0509C19.4795 12.5627 19.4795 11.7713 18.9913 11.2831C18.5032 10.795 17.7117 10.795 17.2235 11.2831L13.4025 15.1041L13.4024 6.1897C13.4024 5.49935 12.8428 4.93971 12.1524 4.93972C11.4621 4.93973 10.9024 5.49938 10.9024 6.18974L10.9025 15.1051L6.76286 10.9654C6.2747 10.4773 5.48325 10.4773 4.99509 10.9654C4.50693 11.4536 4.50693 12.2451 4.99509 12.7332L11.2681 19.0063C11.3871 19.1252 11.5241 19.2152 11.6703 19.2762Z" fill="#06B4E3"/>
</g>
<defs>
<clipPath id="clip0_1946_16424">
<rect x="24" y="24" width="24" height="24" rx="12" transform="rotate(-180 24 24)" fill="white"/>
</clipPath>
</defs>
</svg>
