<svg width="32" height="32" viewBox="0 0 32 32" fill="none" xmlns="http://www.w3.org/2000/svg">
<rect x="6.93262" y="4.31689" width="17.7558" height="20.1086" rx="2.05942" fill="#FFD368"/>
<rect x="11.2031" y="12" width="9.25958" height="1.50056" rx="0.750278" fill="white"/>
<rect x="11.2031" y="15.686" width="9.25958" height="1.50056" rx="0.750278" fill="white"/>
<path d="M24.3857 27.0366C24.3857 27.3411 24.1389 27.5879 23.8344 27.5879L11.2443 27.5879C10.9398 27.5879 10.6929 27.3411 10.6929 27.0366V27.0366C10.6929 26.7321 10.9398 26.4852 11.2443 26.4852L23.8344 26.4852C24.1389 26.4852 24.3857 26.7321 24.3857 27.0366V27.0366Z" fill="#FFD368"/>
<path d="M6.93262 21.4868H19.2579C19.6928 21.4868 20.0453 21.8394 20.0453 22.2742V26.8003C20.0453 27.2352 19.6928 27.5878 19.2579 27.5878H8.50747C7.6377 27.5878 6.93262 26.8827 6.93262 26.0129V21.4868Z" fill="#FFD368"/>
<path d="M8.78254 26.4863C8.34766 26.4863 7.99512 26.1338 7.99512 25.6989L7.99512 25.2134C7.99512 24.7786 8.34766 24.426 8.78254 24.426L23.2832 24.426L23.2832 26.4863L8.78254 26.4863Z" fill="white"/>
</svg>
