<svg width="71" height="76" viewBox="0 0 71 76" fill="none" xmlns="http://www.w3.org/2000/svg">
<g filter="url(#filter0_d_1833_11996)">
<path d="M50.22 9H20.89C14.88 9 10 13.88 10 19.89V28V46.67V50.11C10 56.12 14.88 61 20.89 61H50.67C53.98 61 56.67 58.31 56.67 55V38.89V20.22V15.44C56.67 11.89 53.78 9 50.22 9Z" fill="white"/>
</g>
<path d="M20.8903 11H50.2202C52.6702 11 54.6603 12.9899 54.6603 15.4399V55C54.6603 57.21 52.8703 59 50.6603 59H20.8802C15.9702 59 11.9902 55.0201 11.9902 50.1101V19.8899C12.0002 14.9799 15.9803 11 20.8903 11Z" fill="#FFE39E"/>
<path d="M19.78 38.3887C16.6349 38.3887 13.9018 40.1383 12.5 42.7181V27.9988C12.5 23.9749 15.7562 20.7188 19.78 20.7188H54.17V38.3887H19.78Z" fill="#FFC747" stroke="#FFC747"/>
<path d="M19.8906 47.7188H52.0006V53.2488C52.0006 54.1188 51.2006 54.8289 50.2206 54.8289H19.8906C17.6806 54.8289 15.8906 53.2388 15.8906 51.2688C15.8906 49.3088 17.6806 47.7188 19.8906 47.7188Z" fill="white"/>
<path d="M24.5202 24.5391C24.7702 24.5391 24.9902 24.5991 25.1702 24.7091C25.3502 24.8291 25.5102 25.0491 25.6502 25.3891L28.8902 33.7391C29.0002 34.0191 29.0002 34.2591 28.8902 34.4591C28.7802 34.6591 28.6102 34.7991 28.3702 34.8791C28.1302 34.9591 27.8902 34.9691 27.6602 34.9091C27.4202 34.8491 27.2502 34.6691 27.1502 34.3591L26.3102 32.0591H22.6802L21.8302 34.4191C21.7202 34.6991 21.5602 34.8591 21.3502 34.9191C21.1302 34.9691 20.9102 34.9591 20.6802 34.8791C20.4502 34.7991 20.2802 34.6691 20.1802 34.4891C20.0702 34.3091 20.0702 34.0791 20.1802 33.8091L23.4202 25.3791C23.5402 25.0391 23.7002 24.8191 23.8902 24.6991C24.0702 24.5891 24.2802 24.5391 24.5202 24.5391ZM24.5002 26.8391C24.4202 27.1291 24.3502 27.3891 24.2802 27.6091C24.2102 27.8391 24.1102 28.1091 24.0002 28.4391L23.2402 30.5291H25.7702L25.0202 28.4391C24.9002 28.0991 24.8002 27.8191 24.7202 27.5791C24.6502 27.3291 24.5702 27.0891 24.5002 26.8391Z" fill="#FFF6E0"/>
<path d="M34.7099 24.6194C35.8099 24.6194 36.6299 24.8294 37.1699 25.2494C37.7099 25.6694 37.9799 26.3094 37.9799 27.1894V27.3594C37.9799 27.5994 37.9499 27.8294 37.8899 28.0494C37.8299 28.2694 37.7399 28.4694 37.6099 28.6594C37.4799 28.8494 37.3099 29.0094 37.1099 29.1494C36.8999 29.2894 36.6499 29.3994 36.3399 29.4694C36.6599 29.5194 36.9399 29.5994 37.1999 29.7094C37.4599 29.8294 37.6799 29.9794 37.8699 30.1794C38.0599 30.3794 38.1999 30.6094 38.2999 30.8894C38.3999 31.1694 38.4499 31.4894 38.4499 31.8594V32.0894C38.4499 32.9594 38.1799 33.6394 37.6399 34.1294C37.0999 34.6194 36.2699 34.8594 35.1499 34.8594H31.8999C31.4399 34.8594 31.1199 34.7694 30.9399 34.5994C30.7599 34.4294 30.6699 34.1194 30.6699 33.6594V25.8094C30.6699 25.3594 30.7599 25.0494 30.9399 24.8694C31.1199 24.6994 31.4399 24.6094 31.8999 24.6094H34.7099V24.6194ZM32.4999 28.7794H33.9999C34.4199 28.7794 34.7699 28.7594 35.0399 28.7094C35.3099 28.6694 35.5299 28.5894 35.6899 28.4894C35.8499 28.3794 35.9599 28.2494 36.0099 28.0694C36.0699 27.8994 36.0999 27.6794 36.0999 27.4094V27.2794C36.0999 26.8194 35.9299 26.5094 35.5899 26.3694C35.2499 26.2194 34.6899 26.1494 33.9099 26.1494H32.4999V28.7794ZM32.4999 33.3394H34.1699C34.5699 33.3394 34.9299 33.3294 35.2299 33.2994C35.5299 33.2694 35.7799 33.2094 35.9799 33.1094C36.1799 33.0094 36.3199 32.8594 36.4199 32.6694C36.5199 32.4794 36.5599 32.2194 36.5599 31.9094V31.7194C36.5599 31.4794 36.5199 31.2694 36.4499 31.0894C36.3699 30.9094 36.2399 30.7594 36.0499 30.6394C35.8599 30.5194 35.5999 30.4394 35.2699 30.3794C34.9399 30.3194 34.5399 30.2894 34.0499 30.2894H32.4999V33.3394Z" fill="#FFF6E0"/>
<path d="M44.2005 24.4609C44.8605 24.4609 45.4405 24.5309 45.9305 24.6809C46.4205 24.8209 46.8305 25.0109 47.1705 25.2409C47.3905 25.3909 47.5105 25.5809 47.5305 25.8009C47.5505 26.0209 47.4905 26.2309 47.3605 26.4209C47.2405 26.6009 47.0705 26.7209 46.8705 26.7809C46.6705 26.8409 46.4705 26.8009 46.2705 26.6809C45.9605 26.5009 45.6505 26.3709 45.3305 26.2809C45.0105 26.2009 44.6205 26.1609 44.1605 26.1609C43.3605 26.1609 42.7505 26.4209 42.3205 26.9409C41.8905 27.4609 41.6705 28.3409 41.6705 29.5809V29.8809C41.6705 31.0909 41.8805 31.9609 42.2905 32.4909C42.7005 33.0209 43.3305 33.2909 44.1805 33.2909C44.6605 33.2909 45.0805 33.2409 45.4405 33.1209C45.8005 33.0109 46.1505 32.8409 46.4805 32.6209C46.6705 32.4909 46.8705 32.4409 47.0905 32.4709C47.3005 32.5009 47.4805 32.6209 47.6205 32.8209C47.7605 33.0209 47.8205 33.2409 47.7905 33.4809C47.7605 33.7209 47.6305 33.9209 47.4005 34.0809C46.9905 34.3809 46.5005 34.6009 45.9505 34.7609C45.4005 34.9109 44.7905 34.9909 44.1305 34.9909C43.4505 34.9909 42.8405 34.8909 42.3105 34.7009C41.7805 34.5109 41.3305 34.2109 40.9605 33.8109C40.5905 33.4109 40.3105 32.8909 40.1105 32.2609C39.9105 31.6309 39.8105 30.8809 39.8105 30.0109V29.4209C39.8105 28.5509 39.9105 27.7909 40.1105 27.1709C40.3105 26.5409 40.5905 26.0309 40.9705 25.6209C41.3405 25.2209 41.8105 24.9209 42.3505 24.7309C42.8905 24.5609 43.5105 24.4609 44.2005 24.4609Z" fill="#FFF6E0"/>
<defs>
<filter id="filter0_d_1833_11996" x="0" y="0" width="70.6699" height="76" filterUnits="userSpaceOnUse" color-interpolation-filters="sRGB">
<feFlood flood-opacity="0" result="BackgroundImageFix"/>
<feColorMatrix in="SourceAlpha" type="matrix" values="0 0 0 0 0 0 0 0 0 0 0 0 0 0 0 0 0 0 127 0" result="hardAlpha"/>
<feOffset dx="2" dy="3"/>
<feGaussianBlur stdDeviation="6"/>
<feComposite in2="hardAlpha" operator="out"/>
<feColorMatrix type="matrix" values="0 0 0 0 0 0 0 0 0 0 0 0 0 0 0 0 0 0 0.08 0"/>
<feBlend mode="normal" in2="BackgroundImageFix" result="effect1_dropShadow_1833_11996"/>
<feBlend mode="normal" in="SourceGraphic" in2="effect1_dropShadow_1833_11996" result="shape"/>
</filter>
</defs>
</svg>
