<svg width="24" height="24" viewBox="0 0 24 24" fill="none" xmlns="http://www.w3.org/2000/svg">
<path d="M18.3158 6H5.68421C4.75405 6 4 6.73741 4 7.64706V18.3529C4 19.2626 4.75405 20 5.68421 20H18.3158C19.246 20 20 19.2626 20 18.3529V7.64706C20 6.73741 19.246 6 18.3158 6Z" fill="white" stroke="#999999" stroke-width="2.5"/>
<path d="M8.74748 4H8.25252C8.11306 4 8 4.29848 8 4.66667V7.33333C8 7.70152 8.11306 8 8.25252 8H8.74748C8.88694 8 9 7.70152 9 7.33333V4.66667C9 4.29848 8.88694 4 8.74748 4Z" fill="#999999" stroke="#999999"/>
<path d="M15.75 4H15.25C15.1119 4 15 4.29848 15 4.66667V7.33333C15 7.70152 15.1119 8 15.25 8H15.75C15.8881 8 16 7.70152 16 7.33333V4.66667C16 4.29848 15.8881 4 15.75 4Z" fill="#999999" stroke="#999999"/>
<path d="M9.17031 11H7.97031C7.7494 11 7.57031 11.1791 7.57031 11.4V12.6C7.57031 12.8209 7.7494 13 7.97031 13H9.17031C9.39123 13 9.57031 12.8209 9.57031 12.6V11.4C9.57031 11.1791 9.39123 11 9.17031 11Z" fill="#999999"/>
<path d="M12.5473 11H11.3473C11.1264 11 10.9473 11.1791 10.9473 11.4V12.6C10.9473 12.8209 11.1264 13 11.3473 13H12.5473C12.7681 13 12.9473 12.8209 12.9473 12.6V11.4C12.9473 11.1791 12.7681 11 12.5473 11Z" fill="#999999"/>
<path d="M15.9242 11H14.7242C14.5033 11 14.3242 11.1791 14.3242 11.4V12.6C14.3242 12.8209 14.5033 13 14.7242 13H15.9242C16.1451 13 16.3242 12.8209 16.3242 12.6V11.4C16.3242 11.1791 16.1451 11 15.9242 11Z" fill="#999999"/>
<path d="M9.17031 14H7.97031C7.7494 14 7.57031 14.1791 7.57031 14.4V15.6C7.57031 15.8209 7.7494 16 7.97031 16H9.17031C9.39123 16 9.57031 15.8209 9.57031 15.6V14.4C9.57031 14.1791 9.39123 14 9.17031 14Z" fill="#999999"/>
<path d="M12.5473 14H11.3473C11.1264 14 10.9473 14.1791 10.9473 14.4V15.6C10.9473 15.8209 11.1264 16 11.3473 16H12.5473C12.7681 16 12.9473 15.8209 12.9473 15.6V14.4C12.9473 14.1791 12.7681 14 12.5473 14Z" fill="#999999"/>
<path d="M15.9242 14H14.7242C14.5033 14 14.3242 14.1791 14.3242 14.4V15.6C14.3242 15.8209 14.5033 16 14.7242 16H15.9242C16.1451 16 16.3242 15.8209 16.3242 15.6V14.4C16.3242 14.1791 16.1451 14 15.9242 14Z" fill="#999999"/>
</svg>
