<svg width="42" height="42" viewBox="0 0 42 42" fill="none" xmlns="http://www.w3.org/2000/svg">
<path d="M32.0526 8.75H9.94737C8.31958 8.75 7 10.0405 7 11.6324V30.3676C7 31.9596 8.31958 33.25 9.94737 33.25H32.0526C33.6805 33.25 35 31.9596 35 30.3676V11.6324C35 10.0405 33.6805 8.75 32.0526 8.75Z" fill="white"/>
<path d="M15.8119 7H14.3677C13.9608 7 13.6309 7.34823 13.6309 7.77778V10.8889C13.6309 11.3184 13.9608 11.6667 14.3677 11.6667H15.8119C16.2189 11.6667 16.5488 11.3184 16.5488 10.8889V7.77778C16.5488 7.34823 16.2189 7 15.8119 7Z" fill="#D19500"/>
<path d="M27.6324 7H26.1587C25.7518 7 25.4219 7.34823 25.4219 7.77778V10.8889C25.4219 11.3184 25.7518 11.6667 26.1587 11.6667H27.6324C28.0393 11.6667 28.3692 11.3184 28.3692 10.8889V7.77778C28.3692 7.34823 28.0393 7 27.6324 7Z" fill="#D19500"/>
<path d="M16.048 17.5H13.948C13.5615 17.5 13.248 17.8134 13.248 18.2V20.3C13.248 20.6865 13.5615 21 13.948 21H16.048C16.4347 21 16.748 20.6865 16.748 20.3V18.2C16.748 17.8134 16.4347 17.5 16.048 17.5Z" fill="#D19500"/>
<path d="M21.9582 17.5H19.8582C19.4717 17.5 19.1582 17.8134 19.1582 18.2V20.3C19.1582 20.6865 19.4717 21 19.8582 21H21.9582C22.3447 21 22.6582 20.6865 22.6582 20.3V18.2C22.6582 17.8134 22.3447 17.5 21.9582 17.5Z" fill="#D19500"/>
<path d="M27.8664 17.5H25.7664C25.3797 17.5 25.0664 17.8134 25.0664 18.2V20.3C25.0664 20.6865 25.3797 21 25.7664 21H27.8664C28.2529 21 28.5664 20.6865 28.5664 20.3V18.2C28.5664 17.8134 28.2529 17.5 27.8664 17.5Z" fill="#D19500"/>
<path d="M16.048 22.75H13.948C13.5615 22.75 13.248 23.0635 13.248 23.45V25.55C13.248 25.9365 13.5615 26.25 13.948 26.25H16.048C16.4347 26.25 16.748 25.9365 16.748 25.55V23.45C16.748 23.0635 16.4347 22.75 16.048 22.75Z" fill="#D19500"/>
<path d="M21.9582 22.75H19.8582C19.4717 22.75 19.1582 23.0635 19.1582 23.45V25.55C19.1582 25.9365 19.4717 26.25 19.8582 26.25H21.9582C22.3447 26.25 22.6582 25.9365 22.6582 25.55V23.45C22.6582 23.0635 22.3447 22.75 21.9582 22.75Z" fill="#D19500"/>
<path d="M27.8664 22.75H25.7664C25.3797 22.75 25.0664 23.0635 25.0664 23.45V25.55C25.0664 25.9365 25.3797 26.25 25.7664 26.25H27.8664C28.2529 26.25 28.5664 25.9365 28.5664 25.55V23.45C28.5664 23.0635 28.2529 22.75 27.8664 22.75Z" fill="#D19500"/>
</svg>
