<svg width="32" height="32" viewBox="0 0 32 32" fill="none" xmlns="http://www.w3.org/2000/svg">
<path d="M24.4209 6.44531H7.57648C6.33648 6.44531 5.33203 7.43937 5.33203 8.66656V23.1112C5.33203 24.3384 6.33648 25.3325 7.57648 25.3325H24.4209C25.6609 25.3325 26.6654 24.3384 26.6654 23.1112V8.66656C26.6654 7.43937 25.6609 6.44531 24.4209 6.44531Z" fill="#FCFCFC"/>
<path d="M12.4023 15.5488C12.5223 15.3755 12.6868 15.2377 12.8957 15.1399C13.1046 15.0422 13.3401 14.9933 13.5935 14.9933C13.7801 14.9933 13.9535 15.011 14.1046 15.0466C14.2557 15.0822 14.389 15.1355 14.4957 15.211C14.6023 15.2866 14.6868 15.371 14.749 15.4777C14.8112 15.5844 14.8379 15.7044 14.8379 15.8466C14.8246 16.0066 14.8157 16.1755 14.8068 16.3533C14.7979 16.531 14.7935 16.7133 14.7846 16.891C14.7757 17.0688 14.7712 17.2377 14.7712 17.3977C14.7712 17.5577 14.7712 17.6955 14.7712 17.811C14.7712 17.8822 14.7801 17.9488 14.7935 18.0066C14.8068 18.0644 14.8468 18.091 14.909 18.091C14.9312 18.091 14.9579 18.091 14.989 18.0777C14.989 18.0422 14.989 18.0022 14.989 17.9577V17.8155C14.989 17.6422 14.989 17.4466 14.9979 17.2199C15.0068 16.9933 15.0112 16.7666 15.0246 16.5355C15.0379 16.3044 15.0512 16.0822 15.069 15.8688C15.0868 15.6555 15.1046 15.4777 15.1268 15.331C15.2423 15.2599 15.3801 15.2066 15.5401 15.1666C15.7001 15.1266 15.8646 15.1044 16.0335 15.1044C16.1668 15.1044 16.2957 15.1133 16.429 15.1355C16.5623 15.1577 16.6779 15.1933 16.789 15.2422C16.9001 15.291 16.9846 15.3577 17.0557 15.4377C17.1268 15.5177 17.1623 15.6155 17.1712 15.7355C17.1623 15.8822 17.149 16.0466 17.1268 16.2288C17.1046 16.411 17.0823 16.6066 17.0512 16.8066C17.0201 17.0066 16.9935 17.2155 16.9623 17.4288C16.9312 17.6422 16.9001 17.851 16.869 18.0555C16.8912 18.0644 16.9179 18.0733 16.9446 18.0733C16.9801 18.0733 17.0157 18.0599 17.0468 18.0333C17.0779 18.0066 17.1001 17.9444 17.1223 17.8377C17.1668 17.5977 17.2068 17.3577 17.2423 17.1177C17.2779 16.8777 17.309 16.6466 17.3312 16.4244C17.3535 16.2022 17.3757 15.9888 17.3935 15.7888C17.4112 15.5888 17.4201 15.4022 17.429 15.2333C17.5268 15.1666 17.6557 15.1088 17.8157 15.0599C17.9757 15.011 18.1846 14.9844 18.4512 14.9844C18.6246 14.9844 18.7846 15.0066 18.9268 15.0555C19.069 15.1044 19.189 15.171 19.2912 15.2644C19.3935 15.3577 19.469 15.4644 19.5223 15.5888C19.5757 15.7133 19.6068 15.8555 19.6068 16.011C19.6068 16.0599 19.5979 16.1444 19.5846 16.2555C19.5712 16.3666 19.549 16.4999 19.5223 16.651C19.4957 16.8022 19.4646 16.9666 19.4246 17.1488C19.3846 17.331 19.349 17.5133 19.3046 17.7044C19.2601 17.8955 19.2157 18.0822 19.1712 18.2733C19.1268 18.4644 19.0779 18.6377 19.0335 18.8022C18.989 18.9666 18.9446 19.1133 18.9046 19.2466C18.8646 19.3799 18.8246 19.4822 18.789 19.5622C18.7268 19.7044 18.6468 19.8244 18.5535 19.9222C18.4601 20.0199 18.349 20.0955 18.2246 20.1577C18.1001 20.2199 17.9623 20.2599 17.8068 20.2866C17.6512 20.3133 17.4823 20.3266 17.3001 20.3266C17.2201 20.3266 17.1312 20.3222 17.0423 20.3088C16.9535 20.2955 16.8601 20.2822 16.7668 20.2599C16.6735 20.2377 16.5935 20.2155 16.5135 20.1888C16.4335 20.1622 16.3668 20.1355 16.3135 20.1044C16.2823 20.0599 16.2557 20.0022 16.2246 19.9399C16.1935 19.8777 16.1623 19.8066 16.1357 19.7355C16.109 19.6644 16.0823 19.5933 16.0601 19.5266C16.0379 19.4599 16.0201 19.3977 16.0112 19.3444C15.949 19.3444 15.909 19.3622 15.8868 19.3933C15.8646 19.4244 15.8557 19.4644 15.8557 19.5133C15.8557 19.571 15.869 19.6377 15.8912 19.7222C15.9135 19.8066 15.9446 19.8955 15.9801 19.9888C15.829 20.1133 15.6512 20.1977 15.4557 20.251C15.2601 20.3044 15.0335 20.3266 14.7801 20.3266C14.6735 20.3266 14.5668 20.3266 14.4557 20.3133C14.3446 20.2999 14.2335 20.291 14.1268 20.2688C14.0201 20.2466 13.9223 20.2155 13.829 20.1799C13.7357 20.1444 13.6601 20.091 13.5979 20.0333C13.5001 19.8244 13.3935 19.5755 13.2823 19.2822C13.1712 18.9888 13.0601 18.6555 12.9535 18.2822C12.8468 17.9088 12.7446 17.491 12.6557 17.0377C12.5668 16.5844 12.4868 16.091 12.4335 15.5577L12.4023 15.5488Z" fill="#FFC747"/>
<path d="M5.33203 8.42464C5.33203 7.32941 6.22536 6.44531 7.33203 6.44531H24.6654C25.772 6.44531 26.6654 7.32941 26.6654 8.42464V11.0637H5.33203V8.42464Z" fill="#FFE39E"/>
<path d="M12.047 5.32812H10.9448C10.6337 5.32812 10.3848 5.57884 10.3848 5.88234V8.10358C10.3848 8.41148 10.6381 8.65779 10.9448 8.65779H12.047C12.3581 8.65779 12.607 8.40708 12.607 8.10358V5.88234C12.607 5.57444 12.3537 5.32812 12.047 5.32812Z" fill="#D19500"/>
<path d="M21.0536 5.32812H19.9291C19.618 5.32812 19.3691 5.57884 19.3691 5.88234V8.10358C19.3691 8.41148 19.6225 8.65779 19.9291 8.65779H21.0536C21.3647 8.65779 21.6136 8.40708 21.6136 8.10358V5.88234C21.6136 5.57444 21.3603 5.32812 21.0536 5.32812Z" fill="#D19500"/>
</svg>
