<svg width="32" height="32" viewBox="0 0 32 32" fill="none" xmlns="http://www.w3.org/2000/svg">
<path d="M24.4209 6.66406H7.57648C6.33648 6.66406 5.33203 7.65812 5.33203 8.88531V23.33C5.33203 24.5572 6.33648 25.5512 7.57648 25.5512H24.4209C25.6609 25.5512 26.6654 24.5572 26.6654 23.33V8.88531C26.6654 7.65812 25.6609 6.66406 24.4209 6.66406Z" fill="#FFF6E0"/>
<path d="M16.589 18.9191C16.6826 18.8968 16.7851 18.8523 16.8965 18.7855C17.0079 18.7186 17.1148 18.6117 17.2128 18.4602C17.2574 18.3889 17.2797 18.331 17.2797 18.2775C17.2797 18.2062 17.244 18.1706 17.1727 18.1706C17.1683 18.1706 17.1638 18.1706 17.1594 18.1706C17.1549 18.1706 17.1504 18.1706 17.146 18.1706C16.9544 18.5671 16.6514 18.7632 16.2326 18.7632C16.1257 18.7632 16.0321 18.7543 15.9385 18.732C15.845 18.7097 15.7648 18.6741 15.6846 18.6251C15.6044 18.576 15.5331 18.5137 15.4618 18.4335C15.3905 18.3533 15.3237 18.2552 15.2613 18.1349H15.239C15.2078 18.1349 15.1855 18.1439 15.1633 18.1572C15.141 18.1706 15.1321 18.1929 15.1321 18.2285C15.1321 18.2731 15.1499 18.3221 15.1811 18.3755C15.239 18.4736 15.3058 18.5538 15.3727 18.6251C15.4395 18.6963 15.5108 18.7543 15.5821 18.7988C15.6534 18.8434 15.7247 18.8835 15.7915 18.9058C15.8583 18.928 15.9252 18.9459 15.9831 18.9503L15.9519 19.7122C15.8806 19.7568 15.8093 19.8013 15.7336 19.837C15.6578 19.8726 15.5687 19.9083 15.4752 19.9305C15.3816 19.9528 15.2702 19.9751 15.1454 19.9885C15.0207 20.0018 14.8826 20.0107 14.7266 20.0107C14.5707 20.0107 14.4192 19.9974 14.2543 19.9662C14.0895 19.935 13.938 19.886 13.8043 19.8191C13.6707 19.7523 13.5548 19.6632 13.4657 19.5563C13.3766 19.4493 13.332 19.3157 13.332 19.1553C13.332 19.0706 13.332 18.9592 13.3454 18.8166C13.3588 18.6741 13.3632 18.5092 13.381 18.3265C13.3989 18.1439 13.4122 17.9478 13.4301 17.7339C13.4479 17.5201 13.4702 17.3062 13.4924 17.0923C13.5147 16.8785 13.537 16.6602 13.5548 16.4507C13.5726 16.2413 13.5994 16.0408 13.6172 15.8582C13.635 15.6755 13.6573 15.5151 13.6751 15.3725C13.6929 15.2299 13.7063 15.1185 13.7197 15.0383C13.7954 14.967 13.8845 14.9091 13.987 14.8601C14.0895 14.8111 14.192 14.7755 14.2989 14.7443C14.4058 14.7131 14.5172 14.6953 14.6286 14.6819C14.74 14.6685 14.8469 14.6641 14.9449 14.6641C15.1276 14.6641 15.3058 14.6863 15.4841 14.7264C15.6623 14.7665 15.8049 14.82 15.9207 14.8824L16.1435 15.622L16.0009 16.2146C16.0009 16.2146 15.992 16.2547 15.9875 16.277C15.9831 16.2993 15.9875 16.3126 15.9875 16.3349C15.9875 16.424 16.041 16.473 16.1479 16.4819L16.5311 14.8913C16.5757 14.869 16.6336 14.8423 16.7049 14.8156C16.7762 14.7888 16.8564 14.7665 16.941 14.7443C17.0257 14.722 17.1237 14.7042 17.2262 14.6908C17.3287 14.6774 17.4311 14.6685 17.5425 14.6685C17.7341 14.6685 17.899 14.6819 18.046 14.7131C18.193 14.7443 18.3089 14.7933 18.4069 14.8601C18.5049 14.9269 18.5807 15.0161 18.6386 15.1274C18.6965 15.2388 18.7322 15.3725 18.75 15.5329C18.7678 15.7022 18.7901 15.9072 18.8213 16.1433C18.8525 16.3795 18.8792 16.6334 18.9059 16.9008C18.9327 17.1681 18.9639 17.4399 18.995 17.7117C19.0262 17.9835 19.053 18.2419 19.0752 18.4825C19.0975 18.7231 19.1153 18.9369 19.1332 19.1196C19.151 19.3023 19.1554 19.4404 19.1554 19.5295C18.8569 19.8459 18.4292 20.0018 17.8678 20.0018C17.6896 20.0018 17.5292 19.9885 17.3821 19.9573C17.2351 19.9261 17.1059 19.8815 17.0034 19.8236C16.9009 19.7657 16.8118 19.6899 16.7494 19.6008C16.6871 19.5117 16.6514 19.4092 16.6381 19.2845L16.6024 18.9058L16.589 18.9191Z" fill="#FFC747"/>
<path d="M5.33203 8.42464C5.33203 7.32941 6.22536 6.44531 7.33203 6.44531H24.6654C25.772 6.44531 26.6654 7.32941 26.6654 8.42464V11.0637H5.33203V8.42464Z" fill="#D19500"/>
<path d="M12.047 5.32812H10.9448C10.6337 5.32812 10.3848 5.57884 10.3848 5.88234V8.10358C10.3848 8.41148 10.6381 8.65779 10.9448 8.65779H12.047C12.3581 8.65779 12.607 8.40708 12.607 8.10358V5.88234C12.607 5.57444 12.3537 5.32812 12.047 5.32812Z" fill="#FFF6E0"/>
<path d="M21.0536 5.32812H19.9291C19.618 5.32812 19.3691 5.57884 19.3691 5.88234V8.10358C19.3691 8.41148 19.6225 8.65779 19.9291 8.65779H21.0536C21.3647 8.65779 21.6136 8.40708 21.6136 8.10358V5.88234C21.6136 5.57444 21.3603 5.32812 21.0536 5.32812Z" fill="#FFF6E0"/>
</svg>
