<svg width="24" height="24" viewBox="0 0 24 24" fill="none" xmlns="http://www.w3.org/2000/svg">
<path d="M12 16.2778C13 16.2778 13.8501 15.9376 14.5504 15.2573C15.2501 14.5765 15.6 13.75 15.6 12.7778C15.6 11.8056 15.2501 10.979 14.5504 10.2982C13.8501 9.61793 13 9.27778 12 9.27778C11 9.27778 10.1499 9.61793 9.4496 10.2982C8.74987 10.979 8.4 11.8056 8.4 12.7778C8.4 13.75 8.74987 14.5765 9.4496 15.2573C10.1499 15.9376 11 16.2778 12 16.2778ZM5.6 19C5.16 19 4.78347 18.8478 4.4704 18.5434C4.1568 18.2386 4 17.8722 4 17.4444V8.11111C4 7.68333 4.1568 7.31726 4.4704 7.01289C4.78347 6.708 5.16 6.55556 5.6 6.55556H8.12L9.12 5.50556C9.26667 5.33704 9.4432 5.21052 9.6496 5.126C9.85653 5.042 10.0733 5 10.3 5H13.7C13.9267 5 14.1435 5.042 14.3504 5.126C14.5568 5.21052 14.7333 5.33704 14.88 5.50556L15.88 6.55556H18.4C18.84 6.55556 19.2168 6.708 19.5304 7.01289C19.8435 7.31726 20 7.68333 20 8.11111V17.4444C20 17.8722 19.8435 18.2386 19.5304 18.5434C19.2168 18.8478 18.84 19 18.4 19H5.6Z" fill="#222222"/>
</svg>
