<svg width="271" height="222" viewBox="0 0 271 222" fill="none" xmlns="http://www.w3.org/2000/svg">
<path d="M103.942 139.932C101.333 141.848 98.1198 142.765 94.8994 142.482C91.5447 142.183 87.8845 141.087 84.336 139.171C80.7875 137.255 77.8653 134.787 75.778 132.148C73.7726 129.613 72.7812 126.415 72.9526 123.186C73.0793 120.719 73.8919 118.34 75.2934 116.305L100.244 79.1459C102.637 74.7172 110.301 74.2177 117.361 78.035C124.42 81.8523 128.207 88.5325 125.814 92.9612L108.407 134.198C107.476 136.487 105.925 138.463 103.935 139.924L103.942 139.932Z" fill="#94D8ED"/>
<mask id="mask0_1620_13962" style="mask-type:luminance" maskUnits="userSpaceOnUse" x="72" y="75" width="55" height="68">
<path d="M103.941 139.924C101.332 141.84 98.1188 142.757 94.8984 142.474C91.5438 142.175 87.8835 141.079 84.335 139.163C80.7866 137.247 77.8643 134.779 75.777 132.14C73.7717 129.605 72.7802 126.407 72.9516 123.179C73.0784 120.711 73.8909 118.332 75.2924 116.297L100.243 79.138C102.636 74.7094 110.3 74.2099 117.36 78.0272C124.419 81.8444 128.206 88.5247 125.813 92.9533L108.406 134.19C107.475 136.479 105.924 138.455 103.934 139.916L103.941 139.924Z" fill="white"/>
</mask>
<g mask="url(#mask0_1620_13962)">
<path d="M113.917 130.826C106.238 111.874 93.0284 105.067 74.6748 109.622L80.7355 98.409C101.169 93.8387 114.498 100.653 119.977 119.613L113.917 130.826Z" fill="white"/>
</g>
<path d="M103.942 139.932C101.333 141.848 98.1198 142.765 94.8994 142.482C91.5447 142.183 87.8845 141.087 84.336 139.171C80.7875 137.255 77.8653 134.787 75.778 132.148C73.7726 129.613 72.7812 126.415 72.9526 123.186C73.0793 120.719 73.8919 118.34 75.2934 116.305L100.244 79.1459C102.637 74.7172 110.301 74.2177 117.361 78.035C124.42 81.8523 128.207 88.5325 125.814 92.9612L108.407 134.198C107.476 136.487 105.925 138.463 103.935 139.924L103.942 139.932Z" stroke="#303030" stroke-width="2.23729" stroke-linecap="round" stroke-linejoin="round"/>
<path d="M94.7363 119.938C100.737 123.181 104.942 127.982 106.351 132.56" stroke="#303030" stroke-width="2.23729" stroke-linecap="round" stroke-linejoin="round"/>
<path d="M78.4922 116.957C80.7584 116.427 83.39 116.397 86.1706 116.889" stroke="#303030" stroke-width="2.23729" stroke-linecap="round" stroke-linejoin="round"/>
<g style="mix-blend-mode:multiply" opacity="0.15">
<path d="M125.823 92.9729L108.416 134.203C107.484 136.491 105.933 138.475 103.943 139.936C103.764 140.063 103.585 140.189 103.406 140.309C100.901 141.971 97.9045 142.754 94.9003 142.486C91.5456 142.188 87.8853 141.099 84.3369 139.176C80.7884 137.259 77.8662 134.792 75.7788 132.152C74.7203 130.81 73.9375 129.282 73.4679 127.664C73.0429 126.225 72.8715 124.712 72.9535 123.191C72.9535 123.191 83.7927 116.22 96.4956 126.732C97.5467 127.604 98.4636 128.439 99.2538 129.245C100.924 130.944 103.824 130.415 104.733 128.216L104.755 128.171L122.162 86.9339C122.952 85.4651 123.072 83.7428 122.602 81.9609C126.098 85.5471 127.515 89.8266 125.815 92.9804L125.823 92.9729Z" fill="black"/>
</g>
<path d="M79.8651 125.871C78.2847 127.124 75.765 128.749 74.6319 130.419L71.0387 135.228C70.0472 136.354 69.3688 138.248 70.2485 139.537C72.7384 143.459 72.6713 143.802 77.4572 143.37C79.8875 142.803 82.4594 133.893 83.667 132.015C84.3305 130.852 84.3454 129.189 83.6819 128.19C82.847 126.967 81.6244 124.276 79.8651 125.879V125.871Z" fill="white" stroke="#303030" stroke-width="2.23729" stroke-linecap="round" stroke-linejoin="round"/>
<path d="M74.2591 135.008C73.4984 136.909 73.7072 139.094 74.8706 140.846L75.1689 141.293" stroke="#303030" stroke-width="2.23729" stroke-linecap="round" stroke-linejoin="round"/>
<g style="mix-blend-mode:multiply" opacity="0.15">
<path d="M74.0348 138.997C74.0348 138.997 73.4906 133.979 77.3746 130.781C81.2585 127.59 81.9592 125.711 81.9592 125.711C82.071 125.8 82.168 125.912 82.2649 126.046L83.6887 128.186C84.3522 129.185 84.3373 130.848 83.6738 132.011L79.693 140.973C79.6184 141.152 79.5215 141.316 79.4246 141.472L78.7686 142.449C78.545 142.784 78.284 143.03 78.0082 143.18C77.8293 143.276 77.6504 143.344 77.464 143.366C77.382 143.381 77.3 143.381 77.218 143.373L74.3554 143.5C73.5354 143.515 72.6855 143.097 72.1935 142.441L69.8975 138.579C70.6578 139.854 72.3948 139.355 74.0423 138.997H74.0348Z" fill="black"/>
</g>
<path d="M97.0637 135.469C97.0041 137.482 97.2128 140.479 96.5494 142.387L94.8422 148.143C94.5366 149.612 93.4184 151.289 91.8603 151.349C87.2309 151.7 86.9998 151.953 84.4801 147.86C83.4812 145.571 89.0872 138.19 89.8699 136.095C90.4067 134.865 91.7262 133.858 92.9264 133.799C94.4099 133.739 97.2948 133.113 97.0637 135.476V135.469Z" fill="white" stroke="#303030" stroke-width="2.23729" stroke-linecap="round" stroke-linejoin="round"/>
<path d="M94.0207 142.914C93.3796 145.412 92.403 147.917 90.8375 148.267L87.0654 147.962" stroke="#303030" stroke-width="2.23729" stroke-linecap="round" stroke-linejoin="round"/>
<g style="mix-blend-mode:multiply" opacity="0.15">
<path d="M97.0631 135.47L97.0333 139.138C97.0184 140.242 96.8618 141.33 96.5487 142.389L94.8416 148.145C94.8267 148.219 94.8043 148.287 94.7745 148.369L94.4539 149.278C94.0663 150.367 92.9108 151.299 91.8597 151.351L88.3709 151.537C87.5508 151.537 86.7159 151.097 86.2314 150.434L84.6211 148.07C84.569 148.003 84.5242 147.936 84.4795 147.862C84.6211 147.101 89.586 149.204 91.0248 148.234C92.4635 147.258 90.6297 145.595 90.6297 145.595C88.2814 146.661 85.3964 144.059 85.3964 144.059L88.4454 138.632C89.5934 137.036 90.9055 135.388 92.0833 133.987C92.3666 133.875 92.6499 133.808 92.9257 133.793L95.4901 133.659C96.6084 133.599 97.1451 134.687 97.0631 135.47Z" fill="black"/>
</g>
<path d="M91.4875 139.677L94.2979 129.545C94.8794 128.173 94.3277 126.562 92.9933 125.847L90.1307 124.318C88.8858 123.655 87.3725 123.99 86.5077 125.041L86.4555 125.019L80.7676 134.286C80.7079 134.376 80.6483 134.465 80.5961 134.57L79.9625 135.755C79.2095 137.172 79.7388 138.931 81.1552 139.692L86.6792 142.637C88.0956 143.39 89.8549 142.86 90.6153 141.444L91.2489 140.258C91.3533 140.072 91.4278 139.871 91.48 139.677H91.4875Z" fill="white" stroke="#303030" stroke-width="2.23729" stroke-linecap="round" stroke-linejoin="round"/>
<path d="M82.5938 134.164C83.0485 134.164 83.5032 134.276 83.9356 134.507L89.4596 137.452C89.8099 137.638 90.1156 137.892 90.3467 138.183" fill="white"/>
<path d="M82.5938 134.164C83.0485 134.164 83.5032 134.276 83.9356 134.507L89.4596 137.452C89.8099 137.638 90.1156 137.892 90.3467 138.183" stroke="#303030" stroke-width="2.23729" stroke-linecap="round" stroke-linejoin="round"/>
<g style="mix-blend-mode:multiply" opacity="0.15">
<path d="M90.1758 137.326L83.9288 134.515C81.1556 134.299 80.1045 138.72 80.1045 138.72C80.358 139.115 80.7232 139.45 81.1631 139.689L86.687 142.634C88.1034 143.394 89.8627 142.858 90.6231 141.441L91.2568 140.256C91.3537 140.069 91.4357 139.868 91.4879 139.674L94.2983 129.549C94.8798 128.177 95.0289 126.888 93.687 126.172L90.1758 137.333V137.326Z" fill="black"/>
</g>
<path d="M109.229 52.9297C109.229 52.9297 101.424 56.4711 99.4556 73.6862C97.7038 88.9926 98.9636 96.0307 101.424 96.3066C103.884 96.5824 109.229 52.9297 109.229 52.9297Z" fill="white" stroke="#303030" stroke-width="2.23729" stroke-linecap="round" stroke-linejoin="round"/>
<path d="M128.499 139.089C161.434 150.153 210.069 146.82 234.96 120.748C239.388 117.915 237.793 80.0698 237.793 80.0698C237.592 20.5217 146.413 -20.2756 106.694 57.6209C99.0526 74.0159 101.803 98.1199 101.997 115.715C103.265 126.645 112.971 132.453 128.499 139.089Z" fill="#94D8ED" stroke="#303030" stroke-width="2.23729" stroke-linecap="round" stroke-linejoin="round"/>
<path d="M216.354 94.0601C216.354 98.5558 215.959 102.94 215.198 107.175C185.67 123.786 141.165 123.756 111.704 107.011C103.586 73.1545 123.192 30.6573 161.144 29.2109C195.831 29.9043 217.248 61.2105 216.354 94.0601Z" fill="white" stroke="#303030" stroke-width="2.23729" stroke-linecap="round" stroke-linejoin="round"/>
<path d="M128.306 43.8125C112.8 60.3118 106.776 84.9229 111.697 107.006L108.178 107.7C103.705 84.319 110.787 59.7303 128.298 43.8125H128.306Z" fill="#94D8ED" stroke="#303030" stroke-width="2.23729" stroke-linecap="round" stroke-linejoin="round"/>
<g style="mix-blend-mode:multiply" opacity="0.15">
<path d="M128.306 43.8125C112.8 60.3118 106.776 84.9229 111.697 107.006L108.178 107.7C103.705 84.319 110.787 59.7303 128.298 43.8125H128.306Z" fill="black"/>
</g>
<path d="M196.771 43.5231C214.684 59.1948 221.811 84.0818 219.083 107.999L215.199 107.164C218.978 84.4247 213.544 59.2545 196.771 43.5156V43.5231Z" fill="#94D8ED" stroke="#303030" stroke-width="2.23729" stroke-linecap="round" stroke-linejoin="round"/>
<g style="mix-blend-mode:multiply" opacity="0.15">
<path d="M196.771 43.5231C214.684 59.1948 221.811 84.0818 219.083 107.999L215.199 107.164C218.978 84.4247 213.544 59.2545 196.771 43.5156V43.5231Z" fill="black"/>
</g>
<path d="M219.082 108.007C190.843 129.248 134.612 128.092 108.192 107.701L111.704 107.008C141.165 123.753 185.67 123.783 215.198 107.172L219.082 108.007Z" fill="#94D8ED" stroke="#303030" stroke-width="2.23729" stroke-linecap="round" stroke-linejoin="round"/>
<path d="M101.482 98.5859C104.345 105.467 108.192 107.704 108.192 107.704" stroke="#303030" stroke-width="2.23729" stroke-linecap="round" stroke-linejoin="round"/>
<path d="M219.082 107.999C219.082 107.999 230.779 100.476 237.98 86.2734" stroke="#303030" stroke-width="2.23729" stroke-linecap="round" stroke-linejoin="round"/>
<path d="M175.599 2.49854C171.432 2.28978 167.607 7.40435 165.833 14.7929C165.311 16.9476 164.976 19.2961 164.849 21.7639C164.819 22.3604 164.805 22.9494 164.797 23.5309C164.797 24.2839 164.141 24.8804 163.388 24.8207C160.033 24.5523 157.797 24.6418 156.478 24.7611C155.717 24.8356 155.054 24.2317 155.054 23.4638C155.054 22.7406 155.069 22.0099 155.106 21.2718C155.195 19.475 155.404 17.7379 155.71 16.0976C157.268 7.76222 161.36 1.77534 165.856 2.00647L175.599 2.506V2.49854Z" fill="white" stroke="#303030" stroke-width="2.23729" stroke-linecap="round" stroke-linejoin="round"/>
<path d="M184.149 16.5522C182.151 16.0751 180.124 15.6874 178.088 15.3966C171.178 16.1347 167.055 21.3537 165.505 23.7469C165.296 24.075 164.782 23.9184 164.789 23.5307C164.789 22.9492 164.812 22.3602 164.841 21.7637C164.968 19.2959 165.311 16.9474 165.825 14.7927C167.6 7.41161 171.424 2.28958 175.591 2.49834C179.907 2.72201 183.277 8.60451 184.142 16.5522H184.149Z" fill="white" stroke="#303030" stroke-width="2.23729" stroke-linecap="round" stroke-linejoin="round"/>
<path d="M181.964 16.0714C180.675 15.803 179.385 15.5793 178.088 15.3929C173.921 15.8328 170.767 17.9129 168.583 20.0154C168.583 19.7247 168.583 19.4339 168.598 19.1431C168.866 12.5822 172.109 7.37812 175.851 7.53469C178.878 7.65398 181.293 11.2327 181.972 16.0714H181.964Z" fill="#ADADAD" stroke="#303030" stroke-width="2.23729" stroke-linecap="round" stroke-linejoin="round"/>
<path d="M159.22 24.6328C159.22 24.6328 158.258 27.4734 158.288 29.3895L159.22 24.6328Z" fill="white"/>
<path d="M159.22 24.6328C159.22 24.6328 158.258 27.4734 158.288 29.3895" stroke="#303030" stroke-width="2.23729" stroke-linecap="round" stroke-linejoin="round"/>
<g style="mix-blend-mode:multiply" opacity="0.15">
<path d="M238.001 87.3808C237.912 83.0416 237.793 80.0743 237.793 80.0743C237.755 69.7631 234.99 60.0112 230.241 51.3477C230.092 51.0793 229.943 50.8109 229.794 50.5425C229.652 50.289 229.511 50.043 229.361 49.7895C228.631 48.5295 227.848 47.2993 227.028 46.084C226.894 45.8902 226.76 45.6963 226.626 45.5025C226.529 45.3534 226.417 45.2043 226.312 45.0551C226.178 44.8613 226.044 44.6674 225.902 44.4811C224.784 42.9154 223.591 41.4019 222.332 39.9406C222.153 39.7244 221.959 39.5081 221.773 39.2919C220.826 38.2034 219.834 37.1447 218.813 36.1158C218.642 35.9369 218.463 35.758 218.284 35.5865C216.823 34.1401 215.294 32.7533 213.706 31.4411C213.505 31.2697 213.304 31.1056 213.103 30.9416C212.939 30.8074 212.782 30.6732 212.618 30.5465C212.447 30.4123 212.275 30.2706 212.096 30.1364C211.448 29.6294 210.799 29.1299 210.136 28.6453C209.696 28.3247 209.249 28.0041 208.801 27.691C208.235 27.3033 207.668 26.9156 207.094 26.5353C206.833 26.3638 206.572 26.1924 206.311 26.0283C206.05 25.8569 205.79 25.6928 205.521 25.5288C205.283 25.3797 205.037 25.2306 204.798 25.0815C204.194 24.7087 203.576 24.3508 202.957 24.0004C202.741 23.8737 202.524 23.7544 202.308 23.6351C202.04 23.486 201.764 23.3369 201.488 23.1877C201.212 23.0461 200.944 22.897 200.668 22.7553C199.565 22.1812 198.447 21.6295 197.321 21.1151C196.754 20.8616 196.188 20.6081 195.614 20.3621C195.331 20.2428 195.04 20.1235 194.757 20.0042C194.466 19.8849 194.175 19.7656 193.877 19.6463C193.594 19.5419 193.31 19.4301 193.027 19.3183C192.46 19.1021 191.894 18.8933 191.327 18.6845C191.312 18.6845 191.298 18.6771 191.275 18.6696C190.977 18.5653 190.694 18.4683 190.396 18.3639C190.097 18.2596 189.807 18.1626 189.508 18.0657C188.323 17.678 187.13 17.3276 185.93 17.007C185.893 16.9996 185.863 16.9921 185.826 16.9772C185.259 16.8281 184.693 16.6864 184.119 16.5522C183.246 8.60452 179.877 2.72202 175.568 2.49835C171.401 2.28959 167.577 7.40416 165.802 14.7927C165.28 16.9474 164.945 19.2959 164.818 21.7637C164.766 22.8448 164.513 23.5978 164.542 24.6341L164.654 25.1411L164.908 25.4915C175.247 26.1178 186.571 23.4636 186.571 23.4636C204.433 31.0385 212.491 54.0839 216.122 74.1992C219.417 84.9503 220.356 96.5885 219.059 107.996L222.525 106.072L221.698 131.324C227.632 128.021 230.368 125.539 234.938 120.745C238.121 118.709 238.188 98.527 237.979 87.3733L238.001 87.3808Z" fill="black"/>
</g>
<path d="M233.216 51.3047H230.286L226.618 54.2869C224.799 55.7706 223.845 58.0595 224.091 60.4006L227.147 89.6639C227.378 91.8783 228.825 93.772 230.89 94.5921C231.419 94.8009 231.971 94.9276 232.522 94.9798C232.701 94.9947 232.895 95.0022 233.074 95.0022C233.216 95.0022 233.365 95.0022 233.506 94.9873L235.884 95.0022C235.922 95.0022 235.966 95.0022 236.004 95.0022C236.026 95.0022 236.056 95.0022 236.086 95.0022H236.443V94.9873C237.845 94.8903 239.187 94.2939 240.223 93.265C241.431 92.0572 242.4 90.6406 243.071 89.1048C243.749 87.5689 244.137 85.8988 244.204 84.1915C244.673 71.8301 241.036 60.8628 233.216 51.3196V51.3047Z" fill="white" stroke="#303030" stroke-width="2.23729" stroke-linecap="round" stroke-linejoin="round"/>
<path d="M233.215 51.3047L229.54 54.2869C227.721 55.7632 226.767 58.0595 227.013 60.3931L230.069 89.6565C230.3 91.8708 231.747 93.7645 233.812 94.5847C236.018 95.457 238.538 94.9351 240.215 93.2576C242.63 90.8419 244.062 87.5987 244.196 84.1841C244.666 71.8226 241.028 60.8554 233.208 51.3121L233.215 51.3047Z" fill="white" stroke="#303030" stroke-width="2.23729" stroke-linecap="round" stroke-linejoin="round"/>
<g style="mix-blend-mode:multiply" opacity="0.15">
<path d="M244.233 83.1328C244.226 83.4832 244.211 83.8336 244.203 84.1841C244.188 84.609 244.151 85.034 244.099 85.4515V85.4664C244.069 85.6752 244.039 85.8765 244.002 86.0852C243.957 86.294 243.92 86.5028 243.875 86.7041C243.83 86.8979 243.786 87.0843 243.734 87.2707C243.734 87.2931 243.719 87.3154 243.711 87.3378C243.659 87.5316 243.599 87.7255 243.54 87.9119C243.406 88.3145 243.256 88.7022 243.085 89.0899C242.407 90.6257 241.445 92.0423 240.237 93.2501C240.058 93.429 239.872 93.5931 239.678 93.7422C239.611 93.8018 239.537 93.854 239.462 93.9062C239.373 93.9733 239.283 94.033 239.186 94.0926C239.127 94.1299 239.067 94.1672 239.007 94.2044C238.836 94.3014 238.664 94.3908 238.485 94.4654C238.359 94.525 238.224 94.5772 238.09 94.6294C237.978 94.6741 237.859 94.7114 237.747 94.7487C237.665 94.7785 237.576 94.8009 237.494 94.8158C237.412 94.8382 237.322 94.8605 237.24 94.8754C236.987 94.9276 236.719 94.9649 236.458 94.9798C236.361 94.9947 236.256 94.9947 236.152 94.9947C236.107 94.9947 236.063 94.9947 236.018 94.9947C235.973 94.9947 235.921 94.9947 235.876 94.9947C235.19 94.9798 234.497 94.8456 233.834 94.5847C233.573 94.4877 233.327 94.3685 233.088 94.2268C232.641 93.9808 232.231 93.6676 231.866 93.3172C230.882 92.3629 230.233 91.0731 230.084 89.6565L227.027 60.3931C226.781 58.0595 227.736 55.7632 229.555 54.2795L231.128 53.0046L233.222 51.3047C233.521 51.67 233.819 52.0353 234.102 52.4081C234.273 52.6243 234.437 52.8405 234.601 53.0568C235.019 53.6159 235.422 54.1751 235.809 54.7343C236.01 55.025 236.212 55.3158 236.406 55.6066C236.599 55.9048 236.793 56.1956 236.98 56.4938C237.084 56.6653 237.188 56.8293 237.293 57.0008C237.412 57.1872 237.524 57.381 237.636 57.5674C237.844 57.9178 238.053 58.2757 238.254 58.641C238.411 58.9094 238.552 59.1778 238.702 59.4537C238.873 59.7668 239.037 60.08 239.194 60.3931C239.358 60.7062 239.514 61.0268 239.663 61.34C239.805 61.6382 239.947 61.9364 240.081 62.2272C240.111 62.2943 240.14 62.3614 240.17 62.4285C240.297 62.7044 240.416 62.9877 240.535 63.2635C240.662 63.5468 240.781 63.8376 240.893 64.1284C240.931 64.2104 240.96 64.2924 240.99 64.3744C241.087 64.6205 241.184 64.8739 241.273 65.12C241.437 65.5524 241.594 65.9848 241.743 66.4247C241.773 66.5216 241.81 66.6186 241.84 66.708C242.034 67.3045 242.22 67.8935 242.392 68.4899C242.481 68.7882 242.563 69.0864 242.638 69.3921C242.712 69.6754 242.787 69.9587 242.854 70.242C242.869 70.2718 242.876 70.3091 242.884 70.3464C242.951 70.6222 243.01 70.8981 243.078 71.174C243.085 71.1963 243.092 71.2262 243.092 71.256C243.145 71.4796 243.189 71.7108 243.234 71.9344C243.256 72.0388 243.286 72.1507 243.301 72.2625C243.413 72.8366 243.517 73.4107 243.614 73.9922C243.659 74.2531 243.696 74.5215 243.734 74.7825C243.763 74.9763 243.793 75.1627 243.816 75.3566C243.838 75.5281 243.86 75.6995 243.883 75.871C243.883 75.9008 243.89 75.9307 243.898 75.9679C243.965 76.5271 244.024 77.0937 244.069 77.6678C244.099 78.063 244.129 78.4581 244.158 78.8607C244.181 79.2111 244.196 79.569 244.211 79.9194C244.211 79.9418 244.211 79.9716 244.211 79.994C244.248 81.0229 244.255 82.0667 244.24 83.1104L244.233 83.1328Z" fill="black"/>
</g>
<path d="M170.813 123.314L170.5 126.378C170.254 128.779 168.353 130.68 165.952 130.889C161.427 131.277 156.44 131.247 151.222 130.71C146.011 130.181 141.106 129.212 136.76 127.929C134.449 127.243 132.965 124.999 133.204 122.598L133.509 119.594C145.348 122.68 158.311 123.993 170.813 123.314Z" fill="white" stroke="#303030" stroke-width="2.23729" stroke-linecap="round" stroke-linejoin="round"/>
<g style="mix-blend-mode:color-burn" opacity="0.15">
<path d="M224.121 58.6709H226.976C227.438 55.8526 229.831 53.4668 233.216 51.3047H230.286C230.286 51.3047 224.583 54.697 224.121 58.6709Z" fill="black"/>
</g>
<g style="mix-blend-mode:multiply" opacity="0.15">
<path d="M215.198 107.176C212.946 108.444 210.613 109.607 208.205 110.68C215.063 62.9047 181.688 33.6562 181.688 33.6562C196.285 40.0905 206.893 52.8918 212.298 68.1684C216.51 80.5 217.345 94.2333 215.19 107.176H215.198Z" fill="black"/>
</g>
<g style="mix-blend-mode:multiply" opacity="0.15">
<path d="M182.949 222.001C209.883 222.001 231.718 217.295 231.718 211.489C231.718 205.683 209.883 200.977 182.949 200.977C156.014 200.977 134.18 205.683 134.18 211.489C134.18 217.295 156.014 222.001 182.949 222.001Z" fill="black"/>
</g>
<path d="M160.315 66.8957C163.208 64.1215 165.892 64.3079 168.381 67.4476" stroke="#303030" stroke-width="2.23729" stroke-linecap="round" stroke-linejoin="round"/>
<path d="M130.042 66.8957C132.934 64.1215 135.618 64.3079 138.108 67.4476" stroke="#303030" stroke-width="2.23729" stroke-linecap="round" stroke-linejoin="round"/>
<path d="M129.772 91.7831C129.888 90.0865 126.449 88.469 122.091 88.1703C117.733 87.8716 114.106 89.0049 113.99 90.7015C113.874 92.3981 117.312 94.0156 121.67 94.3143C126.028 94.6129 129.655 93.4797 129.772 91.7831Z" fill="#FF7471" stroke="#303030" stroke-width="2.23729" stroke-linecap="round" stroke-linejoin="round"/>
<path d="M181.703 94.5799C181.82 92.8833 178.381 91.2658 174.023 90.9672C169.665 90.6685 166.038 91.8017 165.921 93.4983C165.805 95.195 169.244 96.8124 173.602 97.1111C177.96 97.4098 181.587 96.2765 181.703 94.5799Z" fill="#FF7471" stroke="#303030" stroke-width="2.23729" stroke-linecap="round" stroke-linejoin="round"/>
<path d="M138.559 80.5132C138.722 78.1387 136.931 76.0821 134.559 75.9194C132.187 75.7568 130.132 77.5499 129.969 79.9243L129.589 85.4732C129.427 87.8476 131.218 89.9043 133.59 90.0669C135.962 90.2295 138.017 88.4365 138.179 86.0621L138.559 80.5132Z" fill="#303030"/>
<path d="M132.279 81.1045C132.852 81.1045 133.315 80.6404 133.315 80.0679C133.315 79.4954 132.852 79.0312 132.279 79.0312C131.707 79.0312 131.243 79.4954 131.243 80.0679C131.243 80.6404 131.707 81.1045 132.279 81.1045Z" fill="white"/>
<path d="M167.653 81.8333C167.816 79.4589 166.025 77.4023 163.652 77.2397C161.28 77.0771 159.226 78.8702 159.063 81.2446L158.683 86.7935C158.52 89.1679 160.311 91.2246 162.683 91.3871C165.055 91.5497 167.11 89.7567 167.273 87.3822L167.653 81.8333Z" fill="#303030"/>
<path d="M161.382 82.4248C161.954 82.4248 162.418 81.9607 162.418 81.3882C162.418 80.8157 161.954 80.3516 161.382 80.3516C160.81 80.3516 160.346 80.8157 160.346 81.3882C160.346 81.9607 160.81 82.4248 161.382 82.4248Z" fill="white"/>
<path d="M215.526 143.723C211.873 143.164 207.296 139.794 203.762 134.672C200.236 129.55 198.715 124.07 199.498 120.454C199.498 120.394 199.513 120.334 199.52 120.282C200.005 116.316 202.353 112.819 205.819 110.821L247.812 86.6423C252.046 83.7272 262.028 84.6442 266.59 91.2723C271.153 97.9004 268.573 107.719 264.339 110.635L226.216 141.3C224.151 142.955 221.646 144.013 218.999 144.155C217.844 144.215 216.636 144.125 215.533 143.723H215.526Z" fill="#94D8ED"/>
<mask id="mask1_1620_13962" style="mask-type:luminance" maskUnits="userSpaceOnUse" x="199" y="85" width="70" height="60">
<path d="M215.526 143.723C211.873 143.164 207.296 139.794 203.762 134.672C200.236 129.55 198.715 124.07 199.498 120.454C199.498 120.394 199.513 120.334 199.52 120.282C200.005 116.316 202.353 112.819 205.819 110.821L247.812 86.6423C252.046 83.7272 262.028 84.6442 266.59 91.2723C271.153 97.9004 268.573 107.719 264.339 110.635L226.216 141.3C224.151 142.955 221.646 144.013 218.999 144.155C217.844 144.215 216.636 144.125 215.533 143.723H215.526Z" fill="white"/>
</mask>
<g mask="url(#mask1_1620_13962)">
<path d="M232.329 147.788C235.228 123.661 224.576 108.683 201.041 102.39L214.549 93.0781C237.219 98.9979 247.79 113.961 245.837 138.476L232.329 147.788Z" fill="white"/>
</g>
<path d="M215.526 143.723C211.873 143.164 207.296 139.794 203.762 134.672C200.236 129.55 198.715 124.07 199.498 120.454C199.498 120.394 199.513 120.334 199.52 120.282C200.005 116.316 202.353 112.819 205.819 110.821L247.812 86.6423C252.046 83.7272 262.028 84.6442 266.591 91.2723C271.153 97.9004 268.573 107.719 264.339 110.635L226.216 141.3C224.151 142.955 221.646 144.013 218.999 144.155C217.844 144.215 216.636 144.125 215.533 143.723H215.526Z" stroke="#303030" stroke-width="2.23729" stroke-linecap="round" stroke-linejoin="round"/>
<path d="M220.298 131.867C221.461 135.066 221.767 138.04 221.148 140.225" stroke="#303030" stroke-width="2.23729" stroke-linecap="round" stroke-linejoin="round"/>
<path d="M204.903 116.453C208.608 116.848 213.357 120.27 216.995 125.549C217.703 126.578 218.329 127.622 218.874 128.665" stroke="#303030" stroke-width="2.23729" stroke-linecap="round" stroke-linejoin="round"/>
<g style="mix-blend-mode:multiply" opacity="0.15">
<path d="M222.019 143.729C220.864 143.796 216.622 144.117 215.519 143.721C211.866 143.162 207.289 139.792 203.755 134.67C200.229 129.548 198.708 124.068 199.491 120.452C199.491 120.4 199.506 120.34 199.506 120.281C199.99 116.307 202.339 112.818 205.805 110.82L247.798 86.641C248.894 85.888 250.377 85.3884 252.054 85.1797L209.525 111.811C208.265 112.602 208.496 114.51 209.905 114.958C210.643 115.189 211.419 115.502 212.201 115.904C215.489 117.604 221.482 124.106 223.726 132.963C225.97 141.813 222.004 143.729 222.004 143.729H222.019Z" fill="black"/>
</g>
<g style="mix-blend-mode:multiply" opacity="0.1">
<path d="M212.358 135.223L208.713 120.245C208.407 119.007 207.177 118.239 205.932 118.508L203.785 109.695L199.081 110.843L201.228 119.656C200.005 119.984 199.253 121.237 199.558 122.474L203.204 137.453C203.822 139.98 206.364 141.531 208.892 140.912C211.419 140.293 212.969 137.751 212.351 135.223H212.358Z" fill="black"/>
</g>
<path d="M188.659 71.434L182.77 72.9773C176.113 74.5952 172.982 85.2567 175.792 96.7906C178.603 108.317 186.281 116.347 192.938 114.721L198.827 113.178C205.492 111.553 208.616 100.899 205.805 89.3722C202.995 77.8384 195.324 69.8161 188.659 71.434ZM191.857 112.097C188.219 112.984 181.204 107.199 178.506 96.1271C175.807 85.048 179.378 76.6902 183.016 75.803C186.654 74.9158 193.669 80.7013 196.367 91.7804C199.066 102.852 195.495 111.217 191.85 112.104L191.857 112.097Z" fill="white" stroke="#303030" stroke-width="2.23729" stroke-linecap="round" stroke-linejoin="round"/>
<path d="M182.77 72.973C176.113 74.5909 172.982 85.2525 175.792 96.7864C178.603 108.313 186.281 116.342 192.938 114.717C199.603 113.092 202.734 102.438 199.923 90.9113C197.113 79.3774 189.434 71.3552 182.77 72.973ZM191.403 110.229C187.765 111.116 180.921 106.061 178.506 96.1228C176.083 86.1844 179.833 78.5499 183.471 77.6626C187.109 76.7754 193.952 81.8303 196.367 91.7687C198.79 101.707 195.04 109.334 191.395 110.221L191.403 110.229Z" fill="white" stroke="#303030" stroke-width="2.23729" stroke-linecap="round" stroke-linejoin="round"/>
<g style="mix-blend-mode:multiply" opacity="0.7">
<path d="M196.367 91.7737C198.789 101.742 195.054 109.391 191.409 110.279C187.771 111.166 180.928 106.088 178.505 96.1278C176.075 86.1596 179.817 78.5101 183.462 77.6229C187.1 76.7356 193.944 81.8129 196.367 91.7811V91.7737Z" fill="#94D8ED"/>
</g>
<path d="M198.694 113.308L193.993 114.453L200.122 139.618L204.823 138.473L198.694 113.308Z" fill="#ADADAD" stroke="#303030" stroke-width="2.23729" stroke-linecap="round" stroke-linejoin="round"/>
<path d="M196.203 123.255L200.788 122.138C202.048 121.831 203.318 122.603 203.625 123.864L207.273 138.844C207.889 141.372 206.338 143.922 203.811 144.537C201.283 145.153 198.734 143.603 198.118 141.075L194.47 126.094C194.163 124.834 194.935 123.564 196.196 123.257L196.203 123.255Z" fill="white"/>
<mask id="mask2_1620_13962" style="mask-type:luminance" maskUnits="userSpaceOnUse" x="194" y="122" width="14" height="23">
<path d="M196.204 123.263L200.789 122.146C202.049 121.839 203.319 122.611 203.626 123.872L207.274 138.852C207.89 141.38 206.339 143.929 203.812 144.545C201.284 145.161 198.735 143.611 198.119 141.082L194.471 126.102C194.164 124.842 194.936 123.572 196.197 123.264L196.204 123.263Z" fill="white"/>
</mask>
<g mask="url(#mask2_1620_13962)">
<path d="M210.324 133.668C205.307 138.254 199.589 139.678 193.171 137.844L191.762 132.058C198.195 133.743 203.905 132.326 208.915 127.883L210.324 133.668Z" fill="#94D8ED"/>
</g>
<path d="M196.203 123.255L200.788 122.138C202.048 121.831 203.318 122.603 203.625 123.864L207.273 138.844C207.889 141.372 206.338 143.922 203.811 144.537C201.283 145.153 198.734 143.603 198.118 141.075L194.47 126.094C194.163 124.834 194.935 123.564 196.196 123.257L196.203 123.255Z" stroke="#303030" stroke-width="2.23729" stroke-linecap="round" stroke-linejoin="round"/>
<g style="mix-blend-mode:multiply" opacity="0.15">
<path d="M198.703 113.309L196.35 113.883L198.495 122.691L200.849 122.118L198.703 113.309Z" fill="black"/>
<path d="M198.703 113.309L196.35 113.883L198.495 122.691L200.849 122.118L198.703 113.309Z" stroke="#303030" stroke-width="0.745763" stroke-miterlimit="10"/>
</g>
<g style="mix-blend-mode:multiply" opacity="0.15">
<path d="M203.464 123.214L207.587 140.139C208.027 141.95 206.916 143.777 205.104 144.217L202.756 144.791C204.568 144.351 205.686 142.524 205.239 140.713L201.116 123.788C200.9 122.886 199.983 122.334 199.081 122.551L201.429 121.977C202.331 121.76 203.248 122.312 203.464 123.214Z" fill="black"/>
<path d="M203.464 123.214L207.587 140.139C208.027 141.95 206.916 143.777 205.104 144.217L202.756 144.791C204.568 144.351 205.686 142.524 205.239 140.713L201.116 123.788C200.9 122.886 199.983 122.334 199.081 122.551L201.429 121.977C202.331 121.76 203.248 122.312 203.464 123.214Z" stroke="#303030" stroke-width="0.745763" stroke-miterlimit="10"/>
</g>
<path d="M183.545 83.3001C184.432 82.6291 185.722 82.4502 186.766 82.726C188.57 83.2032 191.417 84.4781 190.09 87.7139C188.212 92.3065 182.472 88.8098 182.375 86.7223C182.308 85.261 182.487 84.1053 183.545 83.3076V83.3001Z" fill="white"/>
<path d="M189.703 90.3166C190.001 90.0854 190.448 90.0258 190.798 90.1227C191.41 90.2868 192.386 90.7193 191.931 91.823C191.29 93.3891 189.337 92.1959 189.3 91.4875C189.278 90.9878 189.337 90.6 189.695 90.3241L189.703 90.3166Z" fill="white"/>
<path opacity="0.9" d="M137.675 161.273L131.174 110.589C130.653 106.496 126.754 102.313 122.467 101.255L8.86444 73.214C4.57796 72.1553 1.53643 74.6231 2.05826 78.7162L9.93792 140.158C10.4598 144.251 14.3586 148.434 18.6451 149.493L132.248 177.541C136.534 178.599 139.576 176.132 139.054 172.038L137.675 161.28" fill="#DCF8FF"/>
<path d="M18.6744 98.3433L75.6733 150.182C79.684 153.836 76.1057 160.419 70.865 159.032L26.3155 147.29C20.0758 145.642 15.4315 140.43 14.5146 134.041L10.0567 102.914C9.36339 98.1047 15.0812 95.0703 18.6818 98.3433H18.6744Z" fill="white"/>
<path d="M96.7045 111.999L115.468 126.537C117.242 127.909 119.777 126.418 119.434 124.203L118.331 117.068C117.95 114.586 116.154 112.558 113.739 111.872L98.8962 107.659C96.2721 106.914 94.5501 110.336 96.7045 112.006V111.999Z" fill="white"/>
<path d="M8.50684 129.008L9.93815 140.154C10.46 144.247 14.3588 148.43 18.6453 149.488L132.248 177.537C136.535 178.595 139.576 176.127 139.054 172.034L137.675 161.276" stroke="#303030" stroke-width="2.23729" stroke-linecap="round" stroke-linejoin="round"/>
<path d="M53.8612 84.3229L8.86444 73.214C4.57796 72.1553 1.53643 74.6231 2.05826 78.7162L6.79202 115.651" stroke="#303030" stroke-width="2.23729" stroke-linecap="round" stroke-linejoin="round"/>
<path d="M135.595 145.024L131.182 110.594C130.66 106.501 126.761 102.318 122.475 101.26L61.793 86.2812" stroke="#303030" stroke-width="2.23729" stroke-linecap="round" stroke-linejoin="round"/>
<path d="M51.1924 150.971L123.995 168.947C128.282 170.006 131.323 167.538 130.802 163.445L129.176 150.785C128.655 146.692 124.756 142.509 120.469 141.45L105.038 137.641" stroke="#303030" stroke-width="2.23729" stroke-linecap="round" stroke-linejoin="round"/>
<path d="M60.0035 126.519L21.634 117.05C17.3475 115.991 14.306 118.459 14.8278 122.552L16.4529 135.212C16.9748 139.305 20.8736 143.488 25.1601 144.546L42.7234 148.885" stroke="#303030" stroke-width="2.23729" stroke-linecap="round" stroke-linejoin="round"/>
<path d="M78.3424 131.041L65.9229 127.977" stroke="#303030" stroke-width="2.23729" stroke-linecap="round" stroke-linejoin="round"/>
<path d="M103.092 103.042L80.5568 97.4796C76.2703 96.4209 73.2288 98.8887 73.7506 102.982L75.3758 115.642C75.8976 119.735 79.7964 123.917 84.0829 124.976L119.478 133.714C123.764 134.773 126.806 132.305 126.284 128.212L124.659 115.552C124.137 111.459 120.238 107.276 115.952 106.218L110.249 104.808" stroke="#303030" stroke-width="2.23729" stroke-linecap="round" stroke-linejoin="round"/>
<path d="M18.7717 109.296L38.4075 113.717C40.7856 114.254 42.3138 111.578 41.8218 107.738L40.301 95.8685C39.809 92.0289 37.4831 88.48 35.1051 87.9506L15.4693 83.5294C13.0912 82.9926 11.563 85.6692 12.055 89.5089L13.5758 101.378C14.0678 105.218 16.3937 108.767 18.7717 109.296Z" stroke="#303030" stroke-width="2.23729" stroke-linecap="round" stroke-linejoin="round"/>
<path d="M27.9441 96.2502C29.0856 95.0233 28.7767 92.8809 27.2541 91.4649C25.7315 90.0489 23.5718 89.8955 22.4302 91.1224C21.2887 92.3492 21.5976 94.4916 23.1202 95.9076C24.6428 97.3236 26.8025 97.477 27.9441 96.2502Z" stroke="#303030" stroke-width="2.23729" stroke-linecap="round" stroke-linejoin="round"/>
<path d="M20.0916 109.431L34.7252 112.734L34.3152 109.401C33.8083 105.42 30.1257 101.506 26.0852 100.649C22.0447 99.7986 19.1821 102.333 19.689 106.307L20.099 109.431H20.0916Z" stroke="#303030" stroke-width="2.23729" stroke-linecap="round" stroke-linejoin="round"/>
<path d="M64.4777 98.6242L51.1934 95.3438" stroke="#303030" stroke-width="2.23729" stroke-linecap="round" stroke-linejoin="round"/>
<path d="M65.2004 104.273L51.916 100.992" stroke="#303030" stroke-width="2.23729" stroke-linecap="round" stroke-linejoin="round"/>
<path d="M55.0101 107.214L52.6396 106.625" stroke="#303030" stroke-width="2.23729" stroke-linecap="round" stroke-linejoin="round"/>
<path d="M65.9239 109.906L58.5586 108.086" stroke="#303030" stroke-width="2.23729" stroke-linecap="round" stroke-linejoin="round"/>
<path d="M66.6476 115.546L53.3633 112.266" stroke="#303030" stroke-width="2.23729" stroke-linecap="round" stroke-linejoin="round"/>
<path d="M145.383 165.352L139.113 174.88" stroke="#303030" stroke-width="2.23729" stroke-linecap="round" stroke-linejoin="round"/>
<path d="M168.948 129.516L151.25 156.423" stroke="#303030" stroke-width="2.23729" stroke-linecap="round" stroke-linejoin="round"/>
<path d="M137.405 108.763L127.215 103.82" stroke="#303030" stroke-width="2.23729" stroke-linecap="round" stroke-linejoin="round"/>
<path d="M166.898 123.075L145.6 112.734" stroke="#303030" stroke-width="2.23729" stroke-linecap="round" stroke-linejoin="round"/>
<path d="M112.172 159.961L123.995 162.876" stroke="#303030" stroke-width="2.23729" stroke-linecap="round" stroke-linejoin="round"/>
<path d="M60.0332 147.086L105.455 158.299" stroke="#303030" stroke-width="2.23729" stroke-linecap="round" stroke-linejoin="round"/>
<path d="M105.456 153.297L123.996 157.875" stroke="#303030" stroke-width="2.23729" stroke-linecap="round" stroke-linejoin="round"/>
<path d="M30.9678 134.898L94.5045 150.585" stroke="#303030" stroke-width="2.23729" stroke-linecap="round" stroke-linejoin="round"/>
<path d="M20.8672 127.031L43.6414 132.653" stroke="#303030" stroke-width="2.23729" stroke-linecap="round" stroke-linejoin="round"/>
</svg>
