<svg width="232" height="220" viewBox="0 0 232 220" fill="none" xmlns="http://www.w3.org/2000/svg">
<g clip-path="url(#clip0_1473_34775)">
<g style="mix-blend-mode:multiply" opacity="0.15">
<path d="M118.545 219.986C153.777 219.986 182.337 215.599 182.337 210.188C182.337 204.777 153.777 200.391 118.545 200.391C83.3143 200.391 54.7539 204.777 54.7539 210.188C54.7539 215.599 83.3143 219.986 118.545 219.986Z" fill="black"/>
</g>
<path d="M58.2167 134.759C58.2167 134.759 44.0175 121.254 37.4602 114.609C37.4602 114.609 36.3201 112.764 31.2296 109.352C26.1453 105.941 29.4239 103.935 33.3373 106.767C33.3373 106.767 29.0664 102.122 31.0509 100.715C32.8689 99.4192 37.904 105.552 37.904 105.552C37.904 105.552 34.3172 99.9498 36.1599 98.068C38.0026 96.1862 42.6802 104.441 42.6802 104.441C42.6802 104.441 43.8634 100.382 45.9465 101.264C48.0295 102.146 48.2205 106.749 48.1651 108.439L64.096 119.119" fill="#FF9680"/>
<path d="M58.2167 134.759C58.2167 134.759 44.0175 121.254 37.4602 114.609C37.4602 114.609 36.3201 112.764 31.2296 109.352C26.1453 105.941 29.4239 103.935 33.3373 106.767C33.3373 106.767 29.0664 102.122 31.0509 100.715C32.8689 99.4192 37.904 105.552 37.904 105.552C37.904 105.552 34.3172 99.9498 36.1599 98.068C38.0026 96.1862 42.6802 104.441 42.6802 104.441C42.6802 104.441 43.8634 100.382 45.9465 101.264C48.0295 102.146 48.2205 106.749 48.1651 108.439L64.096 119.119" stroke="#4C2318" stroke-width="1.83333" stroke-linecap="round" stroke-linejoin="round"/>
<path d="M139.938 52.3758C139.938 52.3758 100.311 36.643 87.6218 77.6038C87.6218 77.6038 81.7178 75.8639 90.9991 62.6052C90.9991 62.6052 54.737 91.4239 53.3072 134.766C51.8774 178.109 91.4613 195.791 123.114 193.903C154.285 192.04 179.799 173.173 183.318 145.242C186.831 117.361 171.467 77.9307 146.249 60.7851C146.249 60.7851 157.003 76.1415 148.443 84.0018C148.443 84.0018 153.577 73.6428 139.538 63.1666C139.538 63.1666 129.307 56.4971 117.413 60.7851C117.413 60.7851 123.218 54.9794 139.932 52.3758H139.938Z" fill="#FF9680" stroke="#4C2318" stroke-width="1.83333" stroke-linecap="round" stroke-linejoin="round"/>
<path d="M150.64 82.511C150.64 82.511 151.718 80.1357 151.737 75.385C151.459 68.2158 146.258 60.7812 146.258 60.7812C147.879 61.8795 149.456 63.0764 150.991 64.3535C153.604 68.9808 157.123 76.5634 150.64 82.511Z" fill="white"/>
<path d="M139.846 52.3748C139.747 52.3933 139.642 52.4057 139.544 52.4242C129.702 49.7465 102.222 45.4832 91.3998 76.9488C90.9129 78.3617 89.0887 78.9046 88.0287 77.8558C87.85 77.6768 87.7082 77.4671 87.6219 77.2141C87.2522 76.0542 88.8052 73.9195 90.0193 71.0135C90.0254 71.0012 90.0316 70.9889 90.0316 70.9765C90.4507 70.0387 90.8883 69.1441 91.3443 68.2865C91.3566 68.2618 91.3751 68.231 91.3936 68.2001C92.1146 66.8983 93.0268 65.4361 94.173 63.795C94.1546 63.8135 94.0868 63.8628 93.9697 63.9615C110.178 40.5968 139.846 52.3748 139.846 52.3748Z" fill="white"/>
<path d="M90.9943 62.6094C88.1162 66.7246 86.6988 69.7354 86.1195 71.9195C77.3004 80.3165 57.6225 102.015 53.4688 131.704C56.4146 90.404 90.4519 63.0413 90.9943 62.6094Z" fill="white"/>
<path d="M139.938 52.3758C139.938 52.3758 100.311 36.643 87.6218 77.6038C87.6218 77.6038 81.7178 75.8639 90.9991 62.6052C90.9991 62.6052 54.737 91.4239 53.3072 134.766C51.8774 178.109 91.4613 195.791 123.114 193.903C154.285 192.04 179.799 173.173 183.318 145.242C186.831 117.361 171.467 77.9307 146.249 60.7851C146.249 60.7851 157.003 76.1415 148.443 84.0018C148.443 84.0018 153.577 73.6428 139.538 63.1666C139.538 63.1666 129.307 56.4971 117.413 60.7851C117.413 60.7851 123.218 54.9794 139.932 52.3758H139.938Z" stroke="#4C2318" stroke-width="1.83333" stroke-linecap="round" stroke-linejoin="round"/>
<path d="M74.2834 162.331C66.2224 155.174 55.9859 141.626 58.8516 120.346C59.4679 115.762 60.8422 111.314 62.9623 107.199C68.8786 95.7045 84.7849 74.4683 119.771 80.527C164.144 88.2145 160.754 129.737 159.189 138.226C159.035 139.065 158.911 139.904 158.788 140.75C156.742 154.86 131.826 183.148 89.6782 170.802C83.9899 169.137 78.7145 166.268 74.2772 162.331H74.2834Z" fill="#FFEAA9"/>
<path d="M155.683 106.504C150.401 95.793 140.134 85.9585 120.727 82.596C73.3907 74.3964 60.9787 116.165 60.9787 116.165C58.2609 127.468 59.5551 136.717 62.7474 144.139C58.8833 136.384 57.0468 126.475 60.0235 114.105C60.0235 114.105 72.4354 72.3358 119.772 80.5353C140.418 84.1138 150.722 95.0157 155.683 106.504Z" fill="white"/>
<path d="M117.418 60.7812C117.418 60.7812 107.595 66.7967 114.047 72.7999C117.948 76.4338 125.06 72.7752 123.939 68.9376C123.939 68.9376 122.946 65.4702 119.526 67.5371" fill="#FF9680"/>
<path d="M117.418 60.7812C117.418 60.7812 107.595 66.7967 114.047 72.7999C117.948 76.4338 125.06 72.7752 123.939 68.9376C123.939 68.9376 122.946 65.4702 119.526 67.5371" stroke="#4C2318" stroke-width="1.83333" stroke-linecap="round" stroke-linejoin="round"/>
<path d="M180.121 131.782C180.121 131.782 195.522 121.25 204.384 113.106C204.384 113.106 216.568 109.941 218.386 105.962C219.877 102.698 210.966 105.845 210.966 105.845C210.966 105.845 217.727 102.149 216.999 99.2553C216.272 96.3617 207.915 101.452 207.915 101.452C207.915 101.452 214.374 97.4908 212.439 94.2393C210.51 90.9879 203.053 97.7746 203.053 97.7746C203.053 97.7746 204.033 91.5987 200.884 92.6722C197.346 93.8815 198.067 100.773 198.067 100.773C198.067 100.773 187.806 110.324 173.977 118.579" fill="#FF9680"/>
<path d="M180.121 131.782C180.121 131.782 195.522 121.25 204.384 113.106C204.384 113.106 216.568 109.941 218.386 105.962C219.877 102.698 210.966 105.845 210.966 105.845C210.966 105.845 217.727 102.149 216.999 99.2553C216.272 96.3617 207.915 101.452 207.915 101.452C207.915 101.452 214.374 97.4908 212.439 94.2393C210.51 90.9879 203.053 97.7746 203.053 97.7746C203.053 97.7746 204.033 91.5987 200.884 92.6722C197.346 93.8815 198.067 100.773 198.067 100.773C198.067 100.773 187.806 110.324 173.977 118.579" stroke="#4C2318" stroke-width="1.83333" stroke-linecap="round" stroke-linejoin="round"/>
<path d="M78.8554 115.342C78.9167 113.551 75.2382 111.971 70.6391 111.814C66.0401 111.656 62.2621 112.981 62.2008 114.772C62.1395 116.564 65.8181 118.143 70.4171 118.301C75.0162 118.458 78.7941 117.133 78.8554 115.342Z" fill="#FF7471" stroke="#4C2318" stroke-width="1.83333" stroke-linecap="round" stroke-linejoin="round"/>
<path d="M91.4559 103.02C91.5415 100.514 89.5828 98.4128 87.0809 98.3271C84.579 98.2414 82.4813 100.204 82.3956 102.71L82.1949 108.58C82.1092 111.087 84.068 113.188 86.5699 113.274C89.0718 113.359 91.1695 111.397 91.2552 108.891L91.4559 103.02Z" fill="#4C2318"/>
<path d="M84.8332 103.872C85.4357 103.872 85.9242 103.383 85.9242 102.78C85.9242 102.176 85.4357 101.688 84.8332 101.688C84.2306 101.688 83.7422 102.176 83.7422 102.78C83.7422 103.383 84.2306 103.872 84.8332 103.872Z" fill="white"/>
<path d="M139.851 115.343C139.913 113.552 136.234 111.972 131.635 111.814C127.036 111.657 123.258 112.981 123.197 114.772C123.136 116.564 126.814 118.143 131.413 118.301C136.012 118.458 139.79 117.134 139.851 115.343Z" fill="#FF7471" stroke="#4C2318" stroke-width="1.83333" stroke-linecap="round" stroke-linejoin="round"/>
<path d="M120.718 103.02C120.803 100.514 118.845 98.4128 116.343 98.3271C113.841 98.2414 111.743 100.204 111.657 102.71L111.457 108.58C111.371 111.087 113.33 113.188 115.832 113.274C118.334 113.359 120.431 111.397 120.517 108.891L120.718 103.02Z" fill="#4C2318"/>
<path d="M114.095 103.872C114.697 103.872 115.186 103.383 115.186 102.78C115.186 102.176 114.697 101.688 114.095 101.688C113.492 101.688 113.004 102.176 113.004 102.78C113.004 103.383 113.492 103.872 114.095 103.872Z" fill="white"/>
<path d="M148.443 83.9922C148.443 83.9922 147.118 85.6395 144.973 86.6452L148.443 83.9922Z" fill="#FF9680"/>
<path d="M148.443 83.9922C148.443 83.9922 147.118 85.6395 144.973 86.6452" stroke="#4C2318" stroke-width="1.83333" stroke-linecap="round" stroke-linejoin="round"/>
<path d="M141.48 181.369C141.48 181.369 127.879 181.369 127.879 201.057C127.879 213.582 134.097 214.069 143.6 214.131C157.023 214.211 160.111 210.583 159.95 203.192C159.784 195.8 158.416 179.555 141.48 181.376V181.369Z" fill="#FF7761" stroke="#4C2318" stroke-width="1.83333" stroke-linecap="round" stroke-linejoin="round"/>
<g style="mix-blend-mode:color-burn" opacity="0.15">
<path d="M143.607 214.13C138.979 214.099 135.121 213.969 132.391 212.384C134.431 212.704 136.785 212.754 139.373 212.766C152.796 212.846 155.89 209.219 155.723 201.821C155.6 196.207 154.78 185.502 146.984 181.461C158.737 183.361 159.809 196.688 159.951 203.185C160.117 210.576 157.03 214.21 143.607 214.13Z" fill="black"/>
</g>
<path d="M136.295 187.357C136.295 187.357 139.482 185.648 139.235 187.93C138.989 190.213 136.659 191.712 135.556 189.942C134.453 188.171 136.289 187.357 136.289 187.357H136.295Z" fill="white"/>
<path d="M99.5328 191.766C99.0398 199.336 99.4034 207.993 92.3963 209.146C83.5156 211.978 70.2963 213.175 65.7851 211.59C61.7608 210.689 58.5808 208.233 57.2003 203.52C54.5503 194.462 58.174 185.171 64.8915 181.093C68.201 179.63 71.3748 179.482 74.259 180.167C78.0492 181.062 81.3586 183.388 83.8731 186.09C85.537 187.873 86.8497 189.817 87.7248 191.618C88.298 191.785 89.0498 190.026 89.7586 188.706C92.9386 189.946 96.2172 190.97 99.5328 191.766Z" fill="#FF7761" stroke="#4C2318" stroke-width="1.83333" stroke-linecap="round" stroke-linejoin="round"/>
<g style="mix-blend-mode:color-burn" opacity="0.15">
<path d="M99.9041 192.19C98.992 200.236 100.243 207.849 92.4039 209.145C83.5171 211.977 70.2979 213.173 65.7928 211.588C65.0348 211.415 60.8995 208.972 60.2031 208.688C60.2031 208.688 68.1778 211.458 76.6086 204.055C85.5879 196.17 81.0643 183.516 81.0643 183.516C84.078 185.842 86.4075 188.896 87.7325 191.616L89.7662 188.704L99.9103 192.196L99.9041 192.19Z" fill="black"/>
</g>
<path d="M65.5799 187.569C65.5799 187.569 62.6279 189.926 62.3999 187.723C62.1719 185.527 64.2734 183.571 65.7956 184.972C67.3179 186.372 65.5799 187.569 65.5799 187.569Z" fill="white"/>
<path d="M100.254 131.1C99.4466 131.088 98.6393 131.057 97.8381 131.008C93.2653 130.736 90.9481 127.139 90.8002 124.955C90.6399 122.524 93.1544 121.506 98.2572 121.618C99.0091 121.636 99.7609 121.661 100.519 121.698C105.197 121.92 107.582 122.691 107.723 124.906C107.877 127.325 105.363 131.187 100.26 131.1H100.254Z" fill="#FF7471" stroke="#4C2318" stroke-width="1.83333" stroke-linecap="round" stroke-linejoin="round"/>
<path d="M16.4322 59.9531C16.4322 59.9531 33.2629 69.5594 49.1014 68.745L41.2253 110.458C41.2253 110.458 16.044 111.742 4.67969 99.4394L16.4322 59.9531Z" fill="white" stroke="#4C2318" stroke-width="1.83333" stroke-linecap="round" stroke-linejoin="round"/>
<path d="M19.3904 72.2146C19.5412 72.2752 19.6031 72.3752 19.576 72.5147C19.5099 72.8007 19.4288 73.1332 19.3327 73.5124C19.2379 73.8868 19.1363 74.2772 19.0279 74.6834C18.9256 75.0862 18.8197 75.483 18.7105 75.8738C18.6024 76.2599 18.5045 76.6082 18.4166 76.9187C18.3564 77.1253 18.267 77.2709 18.1483 77.3556C18.0296 77.4402 17.8603 77.4582 17.6405 77.4096C17.5259 77.384 17.4393 77.3482 17.3808 77.3022C17.3209 77.2609 17.2797 77.2069 17.257 77.1401C17.2391 77.0746 17.2344 76.9974 17.2429 76.9086C17.2514 76.8198 17.2678 76.7204 17.292 76.6105C17.4057 76.0893 17.5262 75.5522 17.6535 74.9992C17.7867 74.4427 17.9162 73.9004 18.0419 73.3723C17.9789 73.3808 17.8969 73.3943 17.7958 73.4128C17.696 73.4266 17.5878 73.4432 17.4713 73.4627C17.3595 73.4834 17.246 73.5011 17.1307 73.5159C17.0215 73.5272 16.9272 73.5298 16.8478 73.5238C16.7531 73.5187 16.68 73.489 16.6287 73.4348C16.5786 73.3759 16.5404 73.2822 16.5139 73.1536C16.4875 73.0251 16.4867 72.9237 16.5116 72.8494C16.5425 72.7716 16.5895 72.7184 16.6528 72.6898C16.7555 72.6464 16.8772 72.5979 17.0179 72.5445C17.1587 72.491 17.3042 72.4388 17.4544 72.3879C17.6058 72.3322 17.7519 72.2776 17.8927 72.2242C18.0382 72.172 18.164 72.1272 18.2701 72.0897C18.3655 72.0545 18.4494 72.0339 18.5218 72.028C18.5943 72.022 18.6695 72.0245 18.7476 72.0352C18.8446 72.051 18.9539 72.0777 19.0754 72.1152C19.1982 72.1481 19.3032 72.1812 19.3904 72.2146ZM22.6587 77.9919C22.3963 78.1597 22.1125 78.266 21.807 78.3108C21.5003 78.3604 21.1852 78.347 20.8615 78.2706C20.5425 78.1955 20.2612 78.0646 20.0175 77.878C19.7738 77.6914 19.58 77.4599 19.4361 77.1836C19.297 76.9086 19.2112 76.5947 19.1788 76.2419C19.1524 75.8857 19.1952 75.4973 19.3073 75.0769C19.4081 74.699 19.5503 74.3651 19.7339 74.0751C19.9188 73.7804 20.1372 73.5402 20.3891 73.3545C20.641 73.1688 20.9252 73.0424 21.2416 72.9752C21.5581 72.9079 21.9013 72.9111 22.2713 72.9847C22.6318 73.0558 22.9357 73.1876 23.1828 73.3802C23.43 73.5728 23.6183 73.8154 23.7477 74.1081C23.8783 74.396 23.9479 74.7233 23.9563 75.09C23.9695 75.4578 23.9194 75.8544 23.806 76.2795C23.7002 76.6763 23.5484 77.0178 23.3507 77.304C23.1529 77.5902 22.9222 77.8195 22.6587 77.9919ZM21.5431 77.2231C21.699 77.1889 21.8465 77.1195 21.9857 77.015C22.1308 76.9071 22.263 76.7627 22.382 76.582C22.501 76.4013 22.5958 76.1786 22.6664 75.9141C22.7407 75.6354 22.7695 75.385 22.7529 75.163C22.7422 74.9375 22.7002 74.744 22.6268 74.5827C22.5547 74.4167 22.4601 74.2877 22.343 74.1956C22.2318 74.1001 22.116 74.0413 21.9954 74.0192C21.8512 73.9908 21.7029 73.9967 21.5505 74.0369C21.4028 74.0784 21.2587 74.1538 21.1183 74.263C20.9825 74.3735 20.8569 74.5221 20.7413 74.7088C20.627 74.8907 20.5352 75.1116 20.4659 75.3714C20.3928 75.6454 20.3623 75.8928 20.3742 76.1136C20.3874 76.3297 20.426 76.5171 20.4899 76.6759C20.5598 76.8312 20.6479 76.956 20.7544 77.0502C20.8668 77.141 20.985 77.2004 21.109 77.2285C21.2473 77.2604 21.392 77.2586 21.5431 77.2231ZM27.4394 79.2699C27.1771 79.4376 26.8932 79.5439 26.5877 79.5888C26.2811 79.6384 25.9659 79.625 25.6422 79.5485C25.3232 79.4734 25.0419 79.3425 24.7982 79.1559C24.5545 78.9693 24.3607 78.7379 24.2168 78.4616C24.0777 78.1865 23.9919 77.8726 23.9595 77.5199C23.9331 77.1636 23.9759 76.7753 24.088 76.3549C24.1888 75.977 24.331 75.643 24.5146 75.3531C24.6995 75.0584 24.9179 74.8182 25.1698 74.6325C25.4217 74.4468 25.7059 74.3203 26.0224 74.2531C26.3388 74.1859 26.682 74.1891 27.052 74.2627C27.4125 74.3337 27.7164 74.4656 27.9635 74.6581C28.2107 74.8507 28.399 75.0934 28.5284 75.386C28.659 75.674 28.7286 76.0013 28.7371 76.3679C28.7502 76.7358 28.7001 77.1323 28.5868 77.5574C28.4809 77.9542 28.3291 78.2957 28.1314 78.5819C27.9336 78.8681 27.7029 79.0974 27.4394 79.2699ZM26.3238 78.501C26.4797 78.4668 26.6272 78.3974 26.7664 78.2929C26.9116 78.185 27.0437 78.0407 27.1627 77.8599C27.2817 77.6792 27.3765 77.4566 27.4471 77.1921C27.5214 76.9134 27.5503 76.663 27.5336 76.4409C27.5229 76.2154 27.4809 76.022 27.4075 75.8607C27.3354 75.6947 27.2408 75.5656 27.1237 75.4736C27.0126 75.3781 26.8967 75.3193 26.7761 75.2972C26.6319 75.2687 26.4836 75.2746 26.3312 75.3149C26.1835 75.3564 26.0394 75.4317 25.899 75.5409C25.7633 75.6514 25.6376 75.8 25.522 75.9867C25.4077 76.1687 25.3159 76.3896 25.2466 76.6494C25.1735 76.9234 25.143 77.1708 25.1549 77.3916C25.1681 77.6076 25.2067 77.7951 25.2706 77.9538C25.3405 78.1091 25.4286 78.2339 25.5351 78.3282C25.6475 78.4189 25.7657 78.4784 25.8898 78.5065C26.028 78.5384 26.1727 78.5366 26.3238 78.501Z" fill="#FF7761"/>
<path d="M17.7031 82.3672C17.7031 82.3672 29.2893 87.2783 40.4317 86.5318" stroke="#FF7761" stroke-width="1.83333" stroke-linecap="round" stroke-linejoin="round"/>
<path d="M14.0664 84.8359C14.0664 84.8359 23.1689 89.7902 36.6409 89.7779" stroke="#FF7761" stroke-width="1.83333" stroke-linecap="round" stroke-linejoin="round"/>
<path d="M196.475 45.4749C196.475 45.4749 199.224 51.2251 204.721 51.1819L199.224 58.3635C199.224 58.3635 192.241 55.5007 190.75 50.9104L196.475 45.4688V45.4749Z" fill="#FFC248" stroke="#513925" stroke-width="1.83333" stroke-linecap="round" stroke-linejoin="round"/>
<path d="M43.8643 27.7344C43.8643 27.7344 43.3898 33.1822 38.9648 34.811L45.5406 38.9139C45.5406 38.9139 50.286 34.5026 50.0949 30.3688L43.8581 27.7344H43.8643Z" fill="#FFC248" stroke="#513925" stroke-width="1.83333" stroke-linecap="round" stroke-linejoin="round"/>
<path d="M61.0664 10.3522C61.0664 10.3522 65.2941 7.96454 67.2724 4.39844L72.3567 10.2535C72.3567 10.2535 68.7515 15.6397 64.647 16.1024L61.0664 10.3522Z" fill="#FF9680" stroke="#4C2318" stroke-width="1.83333" stroke-linecap="round" stroke-linejoin="round"/>
<path d="M2.74772 27.4219C2.74772 27.4219 5.40391 28.8471 7.93067 28.699L6.55636 33.3201C6.55636 33.3201 2.53819 33.2214 0.929688 31.2163L2.74772 27.4219Z" fill="#E680FF" stroke="#513925" stroke-width="1.83333" stroke-linecap="round" stroke-linejoin="round"/>
<path d="M225.9 23.9297C225.9 23.9297 228.556 25.3549 231.083 25.2068L229.709 29.8279C229.709 29.8279 225.691 29.7292 224.082 27.7241L225.9 23.9297Z" fill="#BDFF97" stroke="#513925" stroke-width="1.83333" stroke-linecap="round" stroke-linejoin="round"/>
<path d="M149.417 0.914062C149.417 0.914062 146.97 3.85702 143.926 4.88119L147.734 9.65656C147.734 9.65656 152.412 7.62672 153.355 4.51101L149.417 0.914062Z" fill="#83FFDC" stroke="#513925" stroke-width="1.83333" stroke-linecap="round" stroke-linejoin="round"/>
</g>
<defs>
<clipPath id="clip0_1473_34775">
<rect width="232" height="220" fill="white"/>
</clipPath>
</defs>
</svg>
