<svg width="209" height="222" viewBox="0 0 209 222" fill="none" xmlns="http://www.w3.org/2000/svg">
<g style="mix-blend-mode:color-burn" opacity="0.15">
<path d="M111.152 197.59C149.433 197.59 180.465 188.353 180.465 176.959C180.465 165.565 149.433 156.328 111.152 156.328C72.8721 156.328 41.8398 165.565 41.8398 176.959C41.8398 188.353 72.8721 197.59 111.152 197.59Z" fill="black"/>
</g>
<g style="mix-blend-mode:color-burn" opacity="0.15">
<path d="M35.0703 164.274C52.7823 164.274 67.1406 159.826 67.1406 154.34C67.1406 148.854 52.7823 144.406 35.0703 144.406C17.3584 144.406 3 148.854 3 154.34C3 159.826 17.3584 164.274 35.0703 164.274Z" fill="black"/>
<path d="M35.0703 164.274C52.7823 164.274 67.1406 159.826 67.1406 154.34C67.1406 148.854 52.7823 144.406 35.0703 144.406C17.3584 144.406 3 148.854 3 154.34C3 159.826 17.3584 164.274 35.0703 164.274Z" stroke="#44323A" stroke-width="0.431343" stroke-miterlimit="10"/>
</g>
<path d="M35.7858 132.766C52.3623 132.766 65.7944 137.208 65.7944 142.699V150.848C65.7944 156.339 52.358 160.781 35.7858 160.781C19.2137 160.781 5.77734 156.339 5.77734 150.848V142.699C5.77734 137.208 19.2137 132.766 35.7858 132.766Z" fill="#FFC747"/>
<mask id="mask0_2180_13299" style="mask-type:luminance" maskUnits="userSpaceOnUse" x="5" y="132" width="61" height="29">
<path d="M35.7898 132.766C52.3662 132.766 65.7983 137.208 65.7983 142.699V150.848C65.7983 156.339 52.3619 160.781 35.7898 160.781C19.2176 160.781 5.78125 156.339 5.78125 150.848V142.699C5.78125 137.208 19.2176 132.766 35.7898 132.766Z" fill="white"/>
</mask>
<g mask="url(#mask0_2180_13299)">
<g style="mix-blend-mode:overlay" opacity="0.3">
<path d="M27.3477 142.125H11.8711V164.719H27.3477V142.125Z" fill="white"/>
<path d="M27.3477 142.125H11.8711V164.719H27.3477V142.125Z" stroke="#44323A" stroke-width="0.431343" stroke-miterlimit="10"/>
</g>
<g style="mix-blend-mode:overlay" opacity="0.2">
<path d="M60.1763 142.695H45.2734V165.289H60.1763V142.695Z" fill="black"/>
<path d="M60.1763 142.695H45.2734V165.289H60.1763V142.695Z" stroke="#44323A" stroke-width="0.431343" stroke-miterlimit="10"/>
</g>
<path opacity="0.3" d="M18.6641 148.508H15.1875V160.21H18.6641V148.508Z" fill="white" stroke="#44323A" stroke-width="0.431343" stroke-miterlimit="10"/>
</g>
<path d="M35.7858 132.766C52.3623 132.766 65.7944 137.208 65.7944 142.699V150.848C65.7944 156.339 52.358 160.781 35.7858 160.781C19.2137 160.781 5.77734 156.339 5.77734 150.848V142.699C5.77734 137.208 19.2137 132.766 35.7858 132.766Z" stroke="#44323A" stroke-width="1.29403" stroke-linecap="round" stroke-linejoin="round"/>
<path d="M35.7898 152.633C52.363 152.633 65.7983 148.186 65.7983 142.699C65.7983 137.213 52.363 132.766 35.7898 132.766C19.2165 132.766 5.78125 137.213 5.78125 142.699C5.78125 148.186 19.2165 152.633 35.7898 152.633Z" fill="#FEE996" stroke="#44323A" stroke-width="1.29403" stroke-linecap="round" stroke-linejoin="round"/>
<path d="M35.79 148.357C49.2568 148.357 60.1738 145.603 60.1738 142.206C60.1738 138.809 49.2568 136.055 35.79 136.055C22.3232 136.055 11.4062 138.809 11.4062 142.206C11.4062 145.603 22.3232 148.357 35.79 148.357Z" fill="#FFB839" stroke="#44323A" stroke-width="1.29403" stroke-linecap="round" stroke-linejoin="round"/>
<path d="M36.0865 138.695C37.1821 138.808 38.1008 138.967 38.8514 139.183C39.6062 139.399 40.1885 139.662 40.594 139.972C41.0081 140.287 41.2583 140.636 41.3445 141.025C41.4179 141.283 41.4438 141.551 41.4265 141.823C41.4092 142.094 41.3791 142.375 41.3359 142.651C42.4013 142.659 43.333 142.668 44.1267 142.677C44.9204 142.685 45.6191 142.703 46.2144 142.724C47.2194 142.759 48.0088 142.832 48.5954 142.944C49.182 143.056 49.5142 143.255 49.5875 143.544C49.6522 143.794 49.4883 143.984 49.0958 144.113C48.6989 144.242 47.9527 144.316 46.8571 144.333C45.1015 144.346 43.2726 144.359 41.3791 144.368C39.4855 144.376 37.5703 144.381 35.6379 144.381C33.7055 144.381 31.7989 144.381 29.914 144.368C28.0333 144.359 26.213 144.35 24.4532 144.333C23.9399 144.324 23.5819 144.299 23.3748 144.247C23.1678 144.195 23.0556 144.109 23.0384 143.984C22.9909 143.79 22.9737 143.565 22.9909 143.311C23.0082 143.061 23.0384 142.797 23.0815 142.53C23.1246 142.267 23.1807 142.004 23.2454 141.754L23.4223 141.068C23.5258 140.667 23.7932 140.309 24.2202 139.994C24.643 139.683 25.221 139.424 25.9542 139.209C26.6789 138.997 27.5588 138.833 28.5854 138.717C29.6077 138.601 30.781 138.54 32.1095 138.531C33.658 138.527 34.9822 138.579 36.0951 138.7L36.0865 138.695ZM32.3856 142.612C33.7313 142.621 35.0469 142.621 36.3237 142.621C36.3712 142.513 36.4057 142.383 36.4272 142.241C36.4488 142.099 36.4617 141.956 36.4617 141.814C36.4617 141.672 36.4488 141.538 36.4229 141.409C36.4014 141.283 36.3668 141.171 36.3194 141.072C36.1814 140.731 35.8234 140.473 35.2497 140.287C34.6803 140.102 33.7917 140.007 32.5797 139.994C31.2554 139.981 30.2677 140.071 29.612 140.27C28.9521 140.468 28.5682 140.74 28.469 141.085C28.387 141.305 28.3439 141.551 28.3396 141.818C28.3309 142.09 28.3698 142.34 28.4517 142.573C29.7242 142.586 31.0355 142.599 32.3856 142.616V142.612Z" fill="#513925" stroke="#44323A" stroke-width="0.431343" stroke-miterlimit="10"/>
<path d="M33.0788 126.031C49.6553 126.031 63.0873 130.474 63.0873 135.965V144.113C63.0873 149.604 49.651 154.047 33.0788 154.047C16.5066 154.047 3.07031 149.604 3.07031 144.113V135.965C3.07031 130.474 16.5066 126.031 33.0788 126.031Z" fill="#FFC747"/>
<mask id="mask1_2180_13299" style="mask-type:luminance" maskUnits="userSpaceOnUse" x="3" y="126" width="61" height="29">
<path d="M33.0788 126.031C49.6553 126.031 63.0873 130.474 63.0873 135.965V144.113C63.0873 149.604 49.651 154.047 33.0788 154.047C16.5066 154.047 3.07031 149.604 3.07031 144.113V135.965C3.07031 130.474 16.5066 126.031 33.0788 126.031Z" fill="white"/>
</mask>
<g mask="url(#mask1_2180_13299)">
<g style="mix-blend-mode:overlay" opacity="0.3">
<path d="M24.6328 135.391H9.15625V157.984H24.6328V135.391Z" fill="white"/>
<path d="M24.6328 135.391H9.15625V157.984H24.6328V135.391Z" stroke="#44323A" stroke-width="0.431343" stroke-miterlimit="10"/>
</g>
<g style="mix-blend-mode:overlay" opacity="0.2">
<path d="M57.4654 135.961H42.5625V158.555H57.4654V135.961Z" fill="black"/>
<path d="M57.4654 135.961H42.5625V158.555H57.4654V135.961Z" stroke="#44323A" stroke-width="0.431343" stroke-miterlimit="10"/>
</g>
<path opacity="0.3" d="M15.9493 141.773H12.4727V153.476H15.9493V141.773Z" fill="white" stroke="#44323A" stroke-width="0.431343" stroke-miterlimit="10"/>
</g>
<path d="M33.0788 126.031C49.6553 126.031 63.0873 130.474 63.0873 135.965V144.113C63.0873 149.604 49.651 154.047 33.0788 154.047C16.5066 154.047 3.07031 149.604 3.07031 144.113V135.965C3.07031 130.474 16.5066 126.031 33.0788 126.031Z" stroke="#44323A" stroke-width="1.29403" stroke-linecap="round" stroke-linejoin="round"/>
<path d="M33.0788 145.899C49.6521 145.899 63.0873 141.451 63.0873 135.965C63.0873 130.479 49.6521 126.031 33.0788 126.031C16.5056 126.031 3.07031 130.479 3.07031 135.965C3.07031 141.451 16.5056 145.899 33.0788 145.899Z" fill="#FEE996" stroke="#44323A" stroke-width="1.29403" stroke-linecap="round" stroke-linejoin="round"/>
<path d="M33.0791 141.622C46.5459 141.622 57.4629 138.868 57.4629 135.471C57.4629 132.074 46.5459 129.32 33.0791 129.32C19.6123 129.32 8.69531 132.074 8.69531 135.471C8.69531 138.868 19.6123 141.622 33.0791 141.622Z" fill="#FFB839" stroke="#44323A" stroke-width="1.29403" stroke-linecap="round" stroke-linejoin="round"/>
<path d="M33.3755 131.961C34.4711 132.073 35.3899 132.233 36.1404 132.448C36.8953 132.664 37.4776 132.927 37.8831 133.238C38.2972 133.553 38.5473 133.902 38.6336 134.29C38.7069 134.549 38.7328 134.817 38.7156 135.088C38.6983 135.36 38.6681 135.64 38.625 135.916C39.6904 135.925 40.6221 135.934 41.4158 135.942C42.2094 135.951 42.9082 135.968 43.5035 135.99C44.5085 136.024 45.2978 136.098 45.8845 136.21C46.4711 136.322 46.8032 136.52 46.8766 136.809C46.9413 137.06 46.7774 137.249 46.3848 137.379C45.988 137.508 45.2418 137.581 44.1462 137.599C42.3906 137.612 40.5617 137.625 38.6681 137.633C36.7745 137.642 34.8594 137.646 32.9269 137.646C30.9945 137.646 29.088 137.646 27.203 137.633C25.3224 137.625 23.5021 137.616 21.7422 137.599C21.2289 137.59 20.8709 137.564 20.6639 137.512C20.4568 137.461 20.3447 137.374 20.3274 137.249C20.28 137.055 20.2627 136.831 20.28 136.576C20.2972 136.326 20.3274 136.063 20.3706 135.796C20.4137 135.533 20.4698 135.269 20.5345 135.019L20.7113 134.333C20.8148 133.932 21.0823 133.574 21.5093 133.259C21.932 132.949 22.51 132.69 23.2433 132.474C23.968 132.263 24.8479 132.099 25.8745 131.983C26.8968 131.866 28.07 131.806 29.3986 131.797C30.9471 131.793 32.2713 131.845 33.3842 131.965L33.3755 131.961ZM29.6789 135.878C31.0247 135.886 32.3403 135.886 33.6171 135.886C33.6645 135.778 33.699 135.649 33.7206 135.507C33.7422 135.364 33.7551 135.222 33.7551 135.08C33.7551 134.937 33.7422 134.804 33.7163 134.674C33.6947 134.549 33.6602 134.437 33.6128 134.338C33.4747 133.997 33.1167 133.738 32.543 133.553C31.9737 133.367 31.0851 133.272 29.873 133.259C28.5488 133.246 27.561 133.337 26.9054 133.535C26.2454 133.734 25.8615 134.006 25.7623 134.351C25.6804 134.571 25.6373 134.817 25.6329 135.084C25.6243 135.356 25.6631 135.606 25.7451 135.839C27.0175 135.852 28.3288 135.865 29.6789 135.882V135.878Z" fill="#513925" stroke="#44323A" stroke-width="0.431343" stroke-miterlimit="10"/>
<path d="M31.0085 115.477C47.585 115.477 61.017 119.919 61.017 125.41V133.558C61.017 139.049 47.5807 143.492 31.0085 143.492C14.4363 143.492 1 139.049 1 133.558V125.41C1 119.919 14.4363 115.477 31.0085 115.477Z" fill="#FFC747"/>
<mask id="mask2_2180_13299" style="mask-type:luminance" maskUnits="userSpaceOnUse" x="1" y="115" width="61" height="29">
<path d="M31.0085 115.484C47.585 115.484 61.017 119.927 61.017 125.418V133.566C61.017 139.057 47.5807 143.5 31.0085 143.5C14.4363 143.5 1 139.057 1 133.566V125.418C1 119.927 14.4363 115.484 31.0085 115.484Z" fill="white"/>
</mask>
<g mask="url(#mask2_2180_13299)">
<g style="mix-blend-mode:overlay" opacity="0.3">
<path d="M22.5664 124.852H7.08984V147.445H22.5664V124.852Z" fill="white"/>
<path d="M22.5664 124.852H7.08984V147.445H22.5664V124.852Z" stroke="#44323A" stroke-width="0.431343" stroke-miterlimit="10"/>
</g>
<g style="mix-blend-mode:overlay" opacity="0.2">
<path d="M55.3951 125.414H40.4922V148.008H55.3951V125.414Z" fill="black"/>
<path d="M55.3951 125.414H40.4922V148.008H55.3951V125.414Z" stroke="#44323A" stroke-width="0.431343" stroke-miterlimit="10"/>
</g>
<path opacity="0.3" d="M13.8829 131.234H10.4062V142.937H13.8829V131.234Z" fill="white" stroke="#44323A" stroke-width="0.431343" stroke-miterlimit="10"/>
</g>
<path d="M31.0085 115.477C47.585 115.477 61.017 119.919 61.017 125.41V133.558C61.017 139.049 47.5807 143.492 31.0085 143.492C14.4363 143.492 1 139.049 1 133.558V125.41C1 119.919 14.4363 115.477 31.0085 115.477Z" stroke="#44323A" stroke-width="1.29403" stroke-linecap="round" stroke-linejoin="round"/>
<path d="M31.0124 135.344C47.5857 135.344 61.0209 130.897 61.0209 125.41C61.0209 119.924 47.5857 115.477 31.0124 115.477C14.4392 115.477 1.00391 119.924 1.00391 125.41C1.00391 130.897 14.4392 135.344 31.0124 135.344Z" fill="#FEE996" stroke="#44323A" stroke-width="1.29403" stroke-linecap="round" stroke-linejoin="round"/>
<path d="M31.0127 131.068C44.4795 131.068 55.3965 128.314 55.3965 124.917C55.3965 121.52 44.4795 118.766 31.0127 118.766C17.5459 118.766 6.62891 121.52 6.62891 124.917C6.62891 128.314 17.5459 131.068 31.0127 131.068Z" fill="#FFB839" stroke="#44323A" stroke-width="1.29403" stroke-linecap="round" stroke-linejoin="round"/>
<path d="M30.3663 128.169C29.2707 128.057 28.352 127.898 27.6014 127.682C26.8466 127.466 26.2643 127.203 25.8588 126.893C25.4447 126.578 25.1945 126.228 25.1083 125.84C25.0349 125.581 25.009 125.314 25.0263 125.042C25.0436 124.77 25.0737 124.49 25.1169 124.214C24.0515 124.205 23.1198 124.197 22.3261 124.188C21.5324 124.18 20.8336 124.162 20.2384 124.141C19.2334 124.106 18.444 124.033 17.8574 123.921C17.2708 123.809 16.9386 123.61 16.8653 123.321C16.8006 123.071 16.9645 122.881 17.357 122.752C17.7539 122.622 18.5001 122.549 19.5957 122.532C21.3513 122.519 23.1802 122.506 25.0737 122.497C26.9673 122.489 28.8825 122.484 30.8149 122.484C32.7473 122.484 34.6539 122.484 36.5388 122.497C38.4195 122.506 40.2398 122.515 41.9996 122.532C42.5129 122.54 42.8709 122.566 43.078 122.618C43.285 122.67 43.3972 122.756 43.4144 122.881C43.4619 123.075 43.4791 123.3 43.4619 123.554C43.4446 123.804 43.4144 124.067 43.3713 124.335C43.3282 124.598 43.2721 124.861 43.2074 125.111L43.0305 125.797C42.927 126.198 42.6596 126.556 42.2326 126.871C41.8098 127.182 41.2318 127.44 40.4986 127.656C39.7739 127.868 38.894 128.031 37.8674 128.148C36.8451 128.264 35.6718 128.325 34.3433 128.333C32.7948 128.338 31.4706 128.286 30.3577 128.165L30.3663 128.169ZM34.0672 124.257C32.7215 124.249 31.4059 124.249 30.1291 124.249C30.0816 124.356 30.0471 124.486 30.0256 124.628C30.004 124.77 29.9911 124.913 29.9911 125.055C29.9911 125.198 30.004 125.331 30.0299 125.461C30.0514 125.586 30.0859 125.698 30.1334 125.797C30.2714 126.138 30.6294 126.397 31.2031 126.582C31.7725 126.768 32.6611 126.862 33.8731 126.875C35.1974 126.888 36.1851 126.798 36.8408 126.599C37.5007 126.401 37.8846 126.129 37.9838 125.784C38.0658 125.564 38.1089 125.318 38.1132 125.051C38.1219 124.779 38.083 124.529 38.0011 124.296C36.7286 124.283 35.4173 124.27 34.0672 124.253V124.257Z" fill="#CC7A02"/>
<path d="M118.724 82.155C118.724 82.155 77.7033 73.3987 54.1477 101.276C32.9774 126.337 33.3182 145.985 33.6028 149.703C33.6244 150.005 33.9522 150.182 34.2197 150.035L38.6841 147.594L39.4389 152.089C39.495 152.429 39.9134 152.559 40.1549 152.309L47.5956 144.549C47.5956 144.549 62.5675 138.148 73.2044 128.162C83.8413 118.176 118.72 82.155 118.72 82.155H118.724Z" fill="#FFDCDC" stroke="#44323A" stroke-width="1.29403" stroke-linecap="round" stroke-linejoin="round"/>
<path d="M42.048 139.742C42.048 139.742 40.5383 144.53 41.4053 146.066C42.2723 147.597 44.3945 145.798 44.3945 145.798" fill="#FFDCDC"/>
<path d="M42.048 139.742C42.048 139.742 40.5383 144.53 41.4053 146.066C42.2723 147.597 44.3945 145.798 44.3945 145.798" stroke="#331E25" stroke-width="1.29403" stroke-linecap="round" stroke-linejoin="round"/>
<g style="mix-blend-mode:color-burn" opacity="0.15">
<path d="M33.6067 149.707C33.6326 150.013 33.9605 150.186 34.2279 150.039L35.6297 149.271C35.6211 149.237 35.6125 149.207 35.6082 149.168C35.3235 145.45 34.9827 125.806 56.153 100.745C64.1415 91.2945 74.1357 86.0494 83.8625 83.25C73.5189 85.8898 62.6879 91.1781 54.1516 101.289C32.9813 126.35 33.3221 145.993 33.6067 149.711V149.707Z" fill="black"/>
</g>
<g style="mix-blend-mode:color-burn" opacity="0.15">
<path d="M38.7738 148.103L39.4424 152.092C39.4985 152.429 39.9212 152.558 40.1541 152.312L41.3619 151.053L40.9004 148.327C40.7968 147.706 40.111 147.374 39.5546 147.676L38.7695 148.107L38.7738 148.103Z" fill="black"/>
</g>
<g style="mix-blend-mode:color-burn" opacity="0.15">
<path d="M167.688 168.774C185.399 168.774 199.758 164.326 199.758 158.84C199.758 153.354 185.399 148.906 167.688 148.906C149.976 148.906 135.617 153.354 135.617 158.84C135.617 164.326 149.976 168.774 167.688 168.774Z" fill="black"/>
<path d="M167.688 168.774C185.399 168.774 199.758 164.326 199.758 158.84C199.758 153.354 185.399 148.906 167.688 148.906C149.976 148.906 135.617 153.354 135.617 158.84C135.617 164.326 149.976 168.774 167.688 168.774Z" stroke="#44323A" stroke-width="0.431343" stroke-miterlimit="10"/>
</g>
<path d="M166.571 137.602C149.995 137.602 136.562 142.044 136.562 147.535V155.683C136.562 161.174 149.999 165.617 166.571 165.617C183.148 165.617 196.58 161.174 196.58 155.683V147.535C196.58 142.044 183.143 137.602 166.571 137.602Z" fill="#FFC747"/>
<mask id="mask3_2180_13299" style="mask-type:luminance" maskUnits="userSpaceOnUse" x="136" y="137" width="61" height="29">
<path d="M166.571 137.602C149.995 137.602 136.562 142.044 136.562 147.535V155.683C136.562 161.174 149.999 165.617 166.571 165.617C183.148 165.617 196.58 161.174 196.58 155.683V147.535C196.58 142.044 183.143 137.602 166.571 137.602Z" fill="white"/>
</mask>
<g mask="url(#mask3_2180_13299)">
<g style="mix-blend-mode:overlay" opacity="0.3">
<path d="M175.016 169.57H190.492V146.977H175.016V169.57Z" fill="white"/>
<path d="M175.016 169.57H190.492V146.977H175.016V169.57Z" stroke="#44323A" stroke-width="0.431343" stroke-miterlimit="10"/>
</g>
<g style="mix-blend-mode:overlay" opacity="0.2">
<path d="M142.187 170.141H157.09V147.547H142.187V170.141Z" fill="black"/>
<path d="M142.187 170.141H157.09V147.547H142.187V170.141Z" stroke="#44323A" stroke-width="0.431343" stroke-miterlimit="10"/>
</g>
<path opacity="0.3" d="M183.699 165.055H187.176V153.352H183.699V165.055Z" fill="white" stroke="#44323A" stroke-width="0.431343" stroke-miterlimit="10"/>
</g>
<path d="M166.571 137.602C149.995 137.602 136.562 142.044 136.562 147.535V155.683C136.562 161.174 149.999 165.617 166.571 165.617C183.148 165.617 196.58 161.174 196.58 155.683V147.535C196.58 142.044 183.143 137.602 166.571 137.602Z" stroke="#44323A" stroke-width="1.29403" stroke-linecap="round" stroke-linejoin="round"/>
<path d="M166.571 157.477C183.144 157.477 196.58 153.029 196.58 147.543C196.58 142.057 183.144 137.609 166.571 137.609C149.998 137.609 136.562 142.057 136.562 147.543C136.562 153.029 149.998 157.477 166.571 157.477Z" fill="#FEE996" stroke="#44323A" stroke-width="1.29403" stroke-linecap="round" stroke-linejoin="round"/>
<path d="M166.571 153.193C180.038 153.193 190.955 150.439 190.955 147.042C190.955 143.644 180.038 140.891 166.571 140.891C153.104 140.891 142.188 143.644 142.188 147.042C142.188 150.439 153.104 153.193 166.571 153.193Z" fill="#FFB839" stroke="#44323A" stroke-width="1.29403" stroke-linecap="round" stroke-linejoin="round"/>
<path d="M170.257 143.372C171.586 143.376 172.759 143.441 173.781 143.557C174.808 143.674 175.684 143.838 176.413 144.049C177.146 144.26 177.724 144.523 178.147 144.834C178.574 145.149 178.841 145.507 178.945 145.908C178.996 146.115 179.057 146.344 179.121 146.594C179.186 146.844 179.242 147.107 179.285 147.37C179.328 147.638 179.359 147.897 179.376 148.151C179.393 148.405 179.376 148.63 179.328 148.824C179.311 148.949 179.199 149.035 178.992 149.087C178.785 149.139 178.423 149.169 177.914 149.173C176.158 149.186 174.338 149.199 172.453 149.208C170.568 149.216 168.661 149.221 166.729 149.221C164.797 149.221 162.881 149.221 160.988 149.208C159.094 149.199 157.265 149.191 155.51 149.173C154.414 149.16 153.668 149.087 153.271 148.953C152.879 148.824 152.715 148.634 152.779 148.384C152.853 148.095 153.185 147.897 153.771 147.784C154.358 147.672 155.152 147.599 156.152 147.564C156.748 147.543 157.442 147.53 158.24 147.517C159.034 147.508 159.966 147.5 161.031 147.491C160.988 147.219 160.958 146.943 160.94 146.663C160.923 146.383 160.949 146.124 161.022 145.865C161.109 145.477 161.359 145.123 161.773 144.812C162.178 144.502 162.761 144.239 163.515 144.023C164.262 143.807 165.185 143.648 166.28 143.536C167.393 143.419 168.717 143.363 170.266 143.367L170.257 143.372ZM173.902 147.413C173.984 147.18 174.023 146.93 174.014 146.659C174.006 146.391 173.963 146.145 173.885 145.925C173.786 145.58 173.406 145.308 172.742 145.11C172.086 144.916 171.098 144.821 169.774 144.834C168.562 144.847 167.674 144.946 167.104 145.127C166.531 145.313 166.173 145.572 166.035 145.912C165.987 146.007 165.953 146.119 165.931 146.249C165.905 146.378 165.896 146.512 165.892 146.654C165.888 146.797 165.901 146.939 165.927 147.081C165.948 147.224 165.983 147.349 166.03 147.461C167.307 147.461 168.623 147.461 169.968 147.452C171.314 147.439 172.625 147.426 173.902 147.409V147.413Z" fill="#513925" stroke="#44323A" stroke-width="0.431343" stroke-miterlimit="10"/>
<path d="M171.02 126.312C154.444 126.312 141.012 130.755 141.012 136.246V144.394C141.012 149.885 154.448 154.328 171.02 154.328C187.597 154.328 201.029 149.885 201.029 144.394V136.246C201.029 130.755 187.592 126.312 171.02 126.312Z" fill="#FFC747"/>
<mask id="mask4_2180_13299" style="mask-type:luminance" maskUnits="userSpaceOnUse" x="141" y="126" width="61" height="29">
<path d="M171.02 126.312C154.444 126.312 141.012 130.755 141.012 136.246V144.394C141.012 149.885 154.448 154.328 171.02 154.328C187.597 154.328 201.029 149.885 201.029 144.394V136.246C201.029 130.755 187.592 126.312 171.02 126.312Z" fill="white"/>
</mask>
<g mask="url(#mask4_2180_13299)">
<g style="mix-blend-mode:overlay" opacity="0.3">
<path d="M179.461 158.273H194.938V135.68H179.461V158.273Z" fill="white"/>
<path d="M179.461 158.273H194.938V135.68H179.461V158.273Z" stroke="#44323A" stroke-width="0.431343" stroke-miterlimit="10"/>
</g>
<g style="mix-blend-mode:overlay" opacity="0.2">
<path d="M146.632 158.836H161.535V136.242H146.632V158.836Z" fill="black"/>
<path d="M146.632 158.836H161.535V136.242H146.632V158.836Z" stroke="#44323A" stroke-width="0.431343" stroke-miterlimit="10"/>
</g>
<path opacity="0.3" d="M188.148 153.758H191.625V142.055H188.148V153.758Z" fill="white" stroke="#44323A" stroke-width="0.431343" stroke-miterlimit="10"/>
</g>
<path d="M171.02 126.312C154.444 126.312 141.012 130.755 141.012 136.246V144.394C141.012 149.885 154.448 154.328 171.02 154.328C187.597 154.328 201.029 149.885 201.029 144.394V136.246C201.029 130.755 187.592 126.312 171.02 126.312Z" stroke="#44323A" stroke-width="1.29403" stroke-linecap="round" stroke-linejoin="round"/>
<path d="M171.016 146.18C187.59 146.18 201.025 141.733 201.025 136.246C201.025 130.76 187.59 126.312 171.016 126.312C154.443 126.312 141.008 130.76 141.008 136.246C141.008 141.733 154.443 146.18 171.016 146.18Z" fill="#FEE996" stroke="#44323A" stroke-width="1.29403" stroke-linecap="round" stroke-linejoin="round"/>
<path d="M171.017 141.903C184.483 141.903 195.4 139.15 195.4 135.752C195.4 132.355 184.483 129.602 171.017 129.602C157.55 129.602 146.633 132.355 146.633 135.752C146.633 139.15 157.55 141.903 171.017 141.903Z" fill="#FFB839" stroke="#44323A" stroke-width="1.29403" stroke-linecap="round" stroke-linejoin="round"/>
<path d="M174.703 132.075C176.031 132.079 177.204 132.144 178.227 132.26C179.253 132.377 180.129 132.541 180.858 132.752C181.591 132.963 182.169 133.227 182.592 133.537C183.019 133.852 183.286 134.21 183.39 134.611L183.567 135.297C183.631 135.551 183.688 135.81 183.731 136.073C183.774 136.341 183.804 136.6 183.821 136.854C183.839 137.109 183.821 137.333 183.774 137.527C183.757 137.652 183.644 137.738 183.437 137.79C183.23 137.842 182.868 137.872 182.359 137.876C180.603 137.889 178.783 137.902 176.898 137.911C175.013 137.92 173.107 137.924 171.174 137.924C169.242 137.924 167.327 137.924 165.433 137.911C163.54 137.902 161.711 137.894 159.955 137.876C158.859 137.863 158.113 137.79 157.716 137.656C157.324 137.527 157.16 137.337 157.225 137.087C157.298 136.798 157.63 136.6 158.217 136.487C158.803 136.375 159.597 136.302 160.598 136.267C161.193 136.246 161.887 136.233 162.685 136.22C163.479 136.211 164.411 136.203 165.476 136.194C165.433 135.922 165.403 135.646 165.386 135.366C165.368 135.086 165.394 134.827 165.468 134.568C165.554 134.18 165.804 133.826 166.218 133.516C166.624 133.205 167.206 132.942 167.961 132.726C168.707 132.511 169.63 132.351 170.726 132.239C171.839 132.122 173.163 132.066 174.711 132.071L174.703 132.075ZM178.348 136.112C178.429 135.879 178.468 135.629 178.46 135.357C178.451 135.09 178.408 134.844 178.33 134.624C178.231 134.279 177.851 134.007 177.187 133.809C176.532 133.615 175.544 133.52 174.22 133.533C173.007 133.546 172.119 133.645 171.55 133.826C170.976 134.012 170.618 134.27 170.48 134.611C170.432 134.706 170.398 134.818 170.376 134.948C170.35 135.077 170.342 135.211 170.337 135.353C170.333 135.495 170.346 135.638 170.372 135.78C170.394 135.922 170.428 136.048 170.476 136.16C171.752 136.16 173.068 136.16 174.414 136.151C175.759 136.138 177.071 136.125 178.348 136.108V136.112Z" fill="#513925" stroke="#44323A" stroke-width="0.431343" stroke-miterlimit="10"/>
<path d="M168.184 118.078C151.608 118.078 138.176 122.521 138.176 128.012V136.16C138.176 141.651 151.612 146.094 168.184 146.094C184.761 146.094 198.193 141.651 198.193 136.16V128.012C198.193 122.521 184.756 118.078 168.184 118.078Z" fill="#FFC747"/>
<mask id="mask5_2180_13299" style="mask-type:luminance" maskUnits="userSpaceOnUse" x="138" y="118" width="61" height="29">
<path d="M168.184 118.086C151.608 118.086 138.176 122.529 138.176 128.02V136.168C138.176 141.659 151.612 146.102 168.184 146.102C184.761 146.102 198.193 141.659 198.193 136.168V128.02C198.193 122.529 184.756 118.086 168.184 118.086Z" fill="white"/>
</mask>
<g mask="url(#mask5_2180_13299)">
<g style="mix-blend-mode:overlay" opacity="0.3">
<path d="M176.629 150.047H192.105V127.453H176.629V150.047Z" fill="white"/>
<path d="M176.629 150.047H192.105V127.453H176.629V150.047Z" stroke="#44323A" stroke-width="0.431343" stroke-miterlimit="10"/>
</g>
<g style="mix-blend-mode:overlay" opacity="0.2">
<path d="M143.796 150.617H158.699V128.023H143.796V150.617Z" fill="black"/>
<path d="M143.796 150.617H158.699V128.023H143.796V150.617Z" stroke="#44323A" stroke-width="0.431343" stroke-miterlimit="10"/>
</g>
<path opacity="0.3" d="M185.312 145.531H188.789V133.829H185.312V145.531Z" fill="white" stroke="#44323A" stroke-width="0.431343" stroke-miterlimit="10"/>
</g>
<path d="M168.184 118.078C151.608 118.078 138.176 122.521 138.176 128.012V136.16C138.176 141.651 151.612 146.094 168.184 146.094C184.761 146.094 198.193 141.651 198.193 136.16V128.012C198.193 122.521 184.756 118.078 168.184 118.078Z" stroke="#44323A" stroke-width="1.29403" stroke-linecap="round" stroke-linejoin="round"/>
<path d="M168.184 137.946C184.758 137.946 198.193 133.498 198.193 128.012C198.193 122.526 184.758 118.078 168.184 118.078C151.611 118.078 138.176 122.526 138.176 128.012C138.176 133.498 151.611 137.946 168.184 137.946Z" fill="#FEE996" stroke="#44323A" stroke-width="1.29403" stroke-linecap="round" stroke-linejoin="round"/>
<path d="M168.185 133.669C181.651 133.669 192.568 130.915 192.568 127.518C192.568 124.121 181.651 121.367 168.185 121.367C154.718 121.367 143.801 124.121 143.801 127.518C143.801 130.915 154.718 133.669 168.185 133.669Z" fill="#FFB839" stroke="#44323A" stroke-width="1.29403" stroke-linecap="round" stroke-linejoin="round"/>
<path d="M171.871 123.84C173.199 123.845 174.372 123.909 175.395 124.026C176.421 124.142 177.297 124.306 178.026 124.518C178.759 124.729 179.337 124.992 179.76 125.303C180.187 125.618 180.454 125.976 180.558 126.377L180.735 127.063C180.799 127.317 180.856 127.576 180.899 127.839C180.942 128.106 180.972 128.365 180.989 128.62C181.006 128.874 180.989 129.099 180.942 129.293C180.925 129.418 180.812 129.504 180.605 129.556C180.398 129.608 180.036 129.638 179.527 129.642C177.771 129.655 175.951 129.668 174.066 129.677C172.181 129.685 170.275 129.689 168.342 129.689C166.41 129.689 164.495 129.689 162.601 129.677C160.707 129.668 158.879 129.659 157.123 129.642C156.027 129.629 155.281 129.556 154.884 129.422C154.492 129.293 154.328 129.103 154.393 128.853C154.466 128.564 154.798 128.365 155.385 128.253C155.971 128.141 156.765 128.068 157.766 128.033C158.361 128.012 159.055 127.999 159.853 127.986C160.647 127.977 161.579 127.968 162.644 127.96C162.601 127.688 162.571 127.412 162.554 127.132C162.536 126.851 162.562 126.592 162.636 126.334C162.722 125.945 162.972 125.592 163.386 125.281C163.792 124.971 164.374 124.707 165.129 124.492C165.875 124.276 166.798 124.117 167.894 124.004C169.007 123.888 170.331 123.832 171.879 123.836L171.871 123.84ZM175.515 127.882C175.597 127.649 175.636 127.399 175.628 127.127C175.619 126.86 175.576 126.614 175.498 126.394C175.399 126.049 175.019 125.777 174.355 125.579C173.7 125.385 172.712 125.29 171.388 125.303C170.175 125.316 169.287 125.415 168.718 125.596C168.144 125.782 167.786 126.04 167.648 126.381C167.6 126.476 167.566 126.588 167.544 126.718C167.518 126.847 167.51 126.981 167.505 127.123C167.501 127.265 167.514 127.408 167.54 127.55C167.562 127.692 167.596 127.817 167.643 127.93C168.92 127.93 170.236 127.93 171.582 127.921C172.927 127.908 174.239 127.895 175.515 127.878V127.882Z" fill="#513925" stroke="#44323A" stroke-width="0.431343" stroke-miterlimit="10"/>
<path d="M174.403 109.828C157.827 109.828 144.395 114.271 144.395 119.762V127.91C144.395 133.401 157.831 137.844 174.403 137.844C190.975 137.844 204.412 133.401 204.412 127.91V119.762C204.412 114.271 190.975 109.828 174.403 109.828Z" fill="#FFC747"/>
<mask id="mask6_2180_13299" style="mask-type:luminance" maskUnits="userSpaceOnUse" x="144" y="109" width="61" height="29">
<path d="M174.403 109.82C157.827 109.82 144.395 114.263 144.395 119.754V127.902C144.395 133.393 157.831 137.836 174.403 137.836C190.975 137.836 204.412 133.393 204.412 127.902V119.754C204.412 114.263 190.975 109.82 174.403 109.82Z" fill="white"/>
</mask>
<g mask="url(#mask6_2180_13299)">
<g style="mix-blend-mode:overlay" opacity="0.3">
<path d="M182.848 141.789H198.324V119.195H182.848V141.789Z" fill="white"/>
<path d="M182.848 141.789H198.324V119.195H182.848V141.789Z" stroke="#44323A" stroke-width="0.431343" stroke-miterlimit="10"/>
</g>
<g style="mix-blend-mode:overlay" opacity="0.2">
<path d="M150.015 142.352H164.918V119.758H150.015V142.352Z" fill="black"/>
<path d="M150.015 142.352H164.918V119.758H150.015V142.352Z" stroke="#44323A" stroke-width="0.431343" stroke-miterlimit="10"/>
</g>
<path opacity="0.3" d="M191.531 137.273H195.008V125.571H191.531V137.273Z" fill="white" stroke="#44323A" stroke-width="0.431343" stroke-miterlimit="10"/>
</g>
<path d="M174.403 109.828C157.827 109.828 144.395 114.271 144.395 119.762V127.91C144.395 133.401 157.831 137.844 174.403 137.844C190.975 137.844 204.412 133.401 204.412 127.91V119.762C204.412 114.271 190.975 109.828 174.403 109.828Z" stroke="#44323A" stroke-width="1.29403" stroke-linecap="round" stroke-linejoin="round"/>
<path d="M174.403 129.696C190.976 129.696 204.412 125.248 204.412 119.762C204.412 114.276 190.976 109.828 174.403 109.828C157.83 109.828 144.395 114.276 144.395 119.762C144.395 125.248 157.83 129.696 174.403 129.696Z" fill="#FEE996" stroke="#44323A" stroke-width="1.29403" stroke-linecap="round" stroke-linejoin="round"/>
<path d="M174.403 125.419C187.87 125.419 198.787 122.665 198.787 119.268C198.787 115.871 187.87 113.117 174.403 113.117C160.937 113.117 150.02 115.871 150.02 119.268C150.02 122.665 160.937 125.419 174.403 125.419Z" fill="#FFB839" stroke="#44323A" stroke-width="1.29403" stroke-linecap="round" stroke-linejoin="round"/>
<path d="M178.089 115.59C179.418 115.595 180.591 115.659 181.613 115.776C182.64 115.892 183.516 116.056 184.245 116.268C184.978 116.479 185.556 116.742 185.979 117.053C186.406 117.368 186.673 117.726 186.777 118.127C186.828 118.334 186.889 118.562 186.953 118.813C187.018 119.063 187.074 119.326 187.117 119.589C187.161 119.856 187.191 120.115 187.208 120.37C187.225 120.624 187.208 120.849 187.161 121.043C187.143 121.168 187.031 121.254 186.824 121.306C186.617 121.358 186.255 121.388 185.746 121.392C183.99 121.405 182.17 121.418 180.285 121.427C178.4 121.435 176.493 121.439 174.561 121.439C172.629 121.439 170.713 121.439 168.82 121.427C166.926 121.418 165.097 121.409 163.342 121.392C162.246 121.379 161.5 121.306 161.103 121.172C160.711 121.043 160.547 120.853 160.611 120.603C160.685 120.314 161.017 120.115 161.603 120.003C162.19 119.891 162.984 119.818 163.984 119.783C164.58 119.762 165.274 119.749 166.072 119.736C166.866 119.727 167.798 119.718 168.863 119.71C168.82 119.438 168.79 119.162 168.772 118.882C168.755 118.601 168.781 118.342 168.854 118.084C168.941 117.695 169.191 117.342 169.605 117.031C170.01 116.721 170.593 116.457 171.348 116.242C172.094 116.026 173.017 115.867 174.112 115.754C175.225 115.638 176.549 115.582 178.098 115.586L178.089 115.59ZM181.734 119.628C181.816 119.395 181.855 119.145 181.846 118.873C181.838 118.606 181.795 118.36 181.717 118.14C181.618 117.795 181.238 117.523 180.574 117.324C179.918 117.13 178.931 117.035 177.606 117.048C176.394 117.061 175.506 117.161 174.936 117.342C174.363 117.527 174.005 117.786 173.867 118.127C173.819 118.222 173.785 118.334 173.763 118.463C173.737 118.593 173.729 118.726 173.724 118.869C173.72 119.011 173.733 119.153 173.759 119.296C173.78 119.438 173.815 119.563 173.862 119.675C175.139 119.675 176.455 119.675 177.8 119.667C179.146 119.654 180.457 119.641 181.734 119.624V119.628Z" fill="#513925" stroke="#44323A" stroke-width="0.431343" stroke-miterlimit="10"/>
<path d="M170.52 99.1094C153.944 99.1094 140.512 103.552 140.512 109.043V117.191C140.512 122.682 153.948 127.125 170.52 127.125C187.097 127.125 200.529 122.682 200.529 117.191V109.043C200.529 103.552 187.092 99.1094 170.52 99.1094Z" fill="#FFC747"/>
<mask id="mask7_2180_13299" style="mask-type:luminance" maskUnits="userSpaceOnUse" x="140" y="99" width="61" height="29">
<path d="M170.524 99.1016C153.948 99.1016 140.516 103.544 140.516 109.035V117.183C140.516 122.674 153.952 127.117 170.524 127.117C187.101 127.117 200.533 122.674 200.533 117.183V109.035C200.533 103.544 187.096 99.1016 170.524 99.1016Z" fill="white"/>
</mask>
<g mask="url(#mask7_2180_13299)">
<g style="mix-blend-mode:overlay" opacity="0.3">
<path d="M178.969 131.062H194.445V108.469H178.969V131.062Z" fill="white"/>
<path d="M178.969 131.062H194.445V108.469H178.969V131.062Z" stroke="#44323A" stroke-width="0.431343" stroke-miterlimit="10"/>
</g>
<g style="mix-blend-mode:overlay" opacity="0.2">
<path d="M146.14 131.625H161.043V109.031H146.14V131.625Z" fill="black"/>
<path d="M146.14 131.625H161.043V109.031H146.14V131.625Z" stroke="#44323A" stroke-width="0.431343" stroke-miterlimit="10"/>
</g>
<path opacity="0.3" d="M187.652 126.547H191.129V114.845H187.652V126.547Z" fill="white" stroke="#44323A" stroke-width="0.431343" stroke-miterlimit="10"/>
</g>
<path d="M170.52 99.1094C153.944 99.1094 140.512 103.552 140.512 109.043V117.191C140.512 122.682 153.948 127.125 170.52 127.125C187.097 127.125 200.529 122.682 200.529 117.191V109.043C200.529 103.552 187.092 99.1094 170.52 99.1094Z" stroke="#44323A" stroke-width="1.29403" stroke-linecap="round" stroke-linejoin="round"/>
<path d="M170.52 118.977C187.093 118.977 200.529 114.529 200.529 109.043C200.529 103.557 187.093 99.1094 170.52 99.1094C153.947 99.1094 140.512 103.557 140.512 109.043C140.512 114.529 153.947 118.977 170.52 118.977Z" fill="#FEE996" stroke="#44323A" stroke-width="1.29403" stroke-linecap="round" stroke-linejoin="round"/>
<path d="M170.521 114.7C183.987 114.7 194.904 111.946 194.904 108.549C194.904 105.152 183.987 102.398 170.521 102.398C157.054 102.398 146.137 105.152 146.137 108.549C146.137 111.946 157.054 114.7 170.521 114.7Z" fill="#FFB839" stroke="#44323A" stroke-width="1.29403" stroke-linecap="round" stroke-linejoin="round"/>
<path d="M174.203 104.88C175.531 104.884 176.704 104.949 177.727 105.065C178.753 105.181 179.629 105.345 180.358 105.557C181.091 105.768 181.669 106.031 182.092 106.342C182.519 106.657 182.786 107.015 182.89 107.416C182.942 107.623 183.002 107.851 183.067 108.102C183.131 108.352 183.188 108.615 183.231 108.878C183.274 109.146 183.304 109.404 183.321 109.659C183.339 109.913 183.321 110.138 183.274 110.332C183.257 110.457 183.144 110.543 182.937 110.595C182.73 110.647 182.368 110.677 181.859 110.681C180.103 110.694 178.283 110.707 176.398 110.716C174.513 110.724 172.607 110.729 170.674 110.729C168.742 110.729 166.827 110.729 164.933 110.716C163.04 110.707 161.211 110.698 159.455 110.681C158.359 110.668 157.613 110.595 157.216 110.461C156.824 110.332 156.66 110.142 156.725 109.892C156.798 109.603 157.13 109.404 157.717 109.292C158.303 109.18 159.097 109.107 160.098 109.072C160.693 109.051 161.387 109.038 162.185 109.025C162.979 109.016 163.911 109.007 164.976 108.999C164.933 108.727 164.903 108.451 164.886 108.171C164.868 107.89 164.894 107.632 164.968 107.373C165.054 106.984 165.304 106.631 165.718 106.32C166.124 106.01 166.706 105.747 167.461 105.531C168.207 105.315 169.13 105.156 170.226 105.043C171.339 104.927 172.663 104.871 174.211 104.875L174.203 104.88ZM177.852 108.917C177.934 108.684 177.973 108.434 177.964 108.162C177.955 107.895 177.912 107.649 177.835 107.429C177.735 107.084 177.356 106.812 176.692 106.614C176.036 106.419 175.048 106.325 173.724 106.337C172.512 106.35 171.623 106.45 171.054 106.631C170.48 106.816 170.122 107.075 169.984 107.416C169.937 107.511 169.902 107.623 169.881 107.752C169.855 107.882 169.846 108.015 169.842 108.158C169.837 108.3 169.85 108.442 169.876 108.585C169.898 108.727 169.932 108.852 169.98 108.964C171.257 108.964 172.572 108.964 173.918 108.956C175.264 108.943 176.575 108.93 177.852 108.913V108.917Z" fill="#CC7A02"/>
<path d="M62.6425 27.2629C62.6425 27.2629 61.4994 20.3312 56.7762 15.9876C55.3269 14.6547 56.3017 12.2478 58.273 12.3384C62.1033 12.5066 67.4217 14.1112 73.1198 19.9775" fill="#FFDCDC"/>
<path d="M62.6425 27.2629C62.6425 27.2629 61.4994 20.3312 56.7762 15.9876C55.3269 14.6547 56.3017 12.2478 58.273 12.3384C62.1033 12.5066 67.4217 14.1112 73.1198 19.9775" stroke="#44323A" stroke-width="1.29403" stroke-linecap="round" stroke-linejoin="round"/>
<g style="mix-blend-mode:color-burn" opacity="0.15">
<path d="M73.112 19.9809L68.0825 23.4791C68.0221 23.2893 67.966 23.0823 67.9143 22.8536C66.465 16.1808 56.6562 12.9802 56.6562 12.9802C57.0401 12.5747 57.5966 12.3159 58.2652 12.3461C62.0955 12.5144 67.4139 14.119 73.1077 19.9852L73.112 19.9809Z" fill="black"/>
</g>
<path d="M60.5852 16.1898C63.3242 16.8368 67.5126 18.5536 70.0489 23.1258C67.9957 23.1905 66.7275 24.8641 64.9892 25.7958C64.6786 25.8692 62.4357 19.5025 60.0719 17.0007C59.7139 16.6212 60.0633 16.0647 60.5852 16.1898Z" fill="#FFB6B6" stroke="#44323A" stroke-width="1.29403" stroke-linecap="round" stroke-linejoin="round"/>
<path d="M173.061 147.452C188.188 82.1333 162.014 63.9565 162.014 63.9565C151.015 16.5132 105.979 9.63756 77.7903 18.2342C49.602 26.8266 52.3497 57.7668 52.3497 57.7668L50.1585 92.7357L47.2383 153.335" fill="#FFDCDC"/>
<path d="M173.061 147.452C188.188 82.1333 162.014 63.9565 162.014 63.9565C151.015 16.5132 105.979 9.63756 77.7903 18.2342C49.602 26.8266 52.3497 57.7668 52.3497 57.7668L50.1585 92.7357L47.2383 153.335" stroke="#44323A" stroke-width="1.29403" stroke-linecap="round" stroke-linejoin="round"/>
<path d="M178.657 131.453C177.45 139.506 174.931 147.322 171.027 154.465C162.564 169.959 150.702 177.495 133.966 179.927C108.538 183.624 81.5794 177.05 64.2481 173.789C59.4818 172.892 56.3933 169.131 54.077 166.163C39.8082 149.626 39.2734 119.63 47.3869 92.6064C49.7852 95.1125 52.3172 94.7674 55.5824 96.0916C55.2546 96.0356 53.939 96.0873 53.939 103.649C54.077 106.664 79.0647 101.958 106.653 105.711C106.653 105.711 115.599 66.9372 162.012 63.9609C163.388 64.8107 164.703 65.8675 165.885 67.0062H165.89C181.974 84.1176 182.039 108.838 178.653 131.453H178.657Z" fill="#CBC6EE" stroke="#44323A" stroke-width="1.29403" stroke-linecap="round" stroke-linejoin="round"/>
<path d="M100.48 19.3042C100.48 19.3042 99.673 10.7032 96.7528 4.25896C95.9591 2.50771 97.5421 0.60549 99.4055 1.07134C105.267 2.54653 114.899 7.07994 120.244 20.9821" fill="#FFDCDC"/>
<path d="M100.48 19.3042C100.48 19.3042 99.673 10.7032 96.7528 4.25896C95.9591 2.50771 97.5421 0.60549 99.4055 1.07134C105.267 2.54653 114.899 7.07994 120.244 20.9821" stroke="#44323A" stroke-width="1.29403" stroke-linecap="round" stroke-linejoin="round"/>
<g style="mix-blend-mode:color-burn" opacity="0.15">
<path d="M118.768 17.5387C112.622 4.62865 105.341 2.66604 99.1552 1.03125C102.132 2.09667 114.791 10.6372 116.573 22.0031C116.65 22.4992 116.819 22.9736 117.047 23.4179L117.367 24.0391C130.855 43.4581 126.684 61.5486 118.803 72.7635C113.571 77.1503 108.278 81.3688 102.295 85.0007C101.786 85.3113 101.144 84.8541 101.29 84.2717C104.193 72.591 98.8964 66.7981 96.1919 64.6974C98.9611 68.2301 101.523 74.7391 97.611 85.4968C97.2401 86.519 96.7484 87.4809 96.1531 88.3738C86.0726 93.3343 73.857 96.5434 57.1942 96.4184C52.8118 95.6376 49.581 94.2962 47.2345 92.4931C47.2345 92.9115 47.1914 94.3091 47.1914 94.3091C48.878 95.5514 53.8039 97.4579 56.4566 98.2084L56.0727 99.1703C56.0555 99.2825 62.5903 100.296 72.4508 99.675C78.3559 99.4895 83.1524 98.7002 86.9224 97.7296C100.285 94.9518 115.991 88.8569 129.768 76.059L146.702 66.88C151.645 65.2366 156.808 64.3049 162.01 63.9685C155.665 36.6041 137.993 22.7321 118.764 17.5474L118.768 17.5387Z" fill="black"/>
</g>
<path d="M78.6462 19.7976C78.6462 19.7976 74.5786 9.87242 75.0358 6.43462C75.4931 2.99682 78.9309 15.0658 78.9309 15.0658C78.9309 15.0658 77.5549 2.53528 78.9309 2.99682C80.3069 3.45404 81.6828 15.0658 81.6828 15.0658C81.6828 15.0658 81.9115 4.13988 83.7447 4.60141C85.5779 5.05864 83.0588 18.2362 83.0588 18.2362" fill="#FFB6B6"/>
<path d="M78.6462 19.7976C78.6462 19.7976 74.5786 9.87242 75.0358 6.43462C75.4931 2.99682 78.9309 15.0658 78.9309 15.0658C78.9309 15.0658 77.5549 2.53528 78.9309 2.99682C80.3069 3.45404 81.6828 15.0658 81.6828 15.0658C81.6828 15.0658 81.9115 4.13988 83.7447 4.60141C85.5779 5.05864 83.0588 18.2362 83.0588 18.2362" stroke="#44323A" stroke-width="1.29403" stroke-linecap="round" stroke-linejoin="round"/>
<path d="M42.0236 67.8395C42.9467 64.337 45.4786 61.4901 48.8129 60.0667C55.2572 57.3191 73.5936 51.2414 92.2276 61.2011C92.2276 61.2011 104.253 67.2141 97.615 85.4857C96.3124 89.0745 93.5561 91.9516 90.0148 93.3707C85.5072 95.178 78.0709 97.1837 67.2485 97.1837C47.5405 97.1837 42.2651 90.3081 41.5793 80.452C41.2083 75.1163 41.1782 71.053 42.0279 67.8352L42.0236 67.8395Z" fill="#FFB6B6" stroke="#44323A" stroke-width="1.29403" stroke-linecap="round" stroke-linejoin="round"/>
<g style="mix-blend-mode:color-burn" opacity="0.15">
<path d="M97.6114 85.4918C96.3088 89.0805 93.5525 91.9576 90.0112 93.3767C85.5037 95.1883 78.0673 97.1898 67.2449 97.1898C57.4879 97.1898 51.268 95.5075 47.3945 92.6046C50.9574 93.7132 55.5297 94.317 61.37 94.317C72.1924 94.317 79.6288 92.3156 84.1363 90.504C87.6819 89.0849 90.4382 86.2078 91.7409 82.619C97.2103 67.5695 90.0155 60.8362 87.3067 58.9297C88.9371 59.5724 90.5806 60.3272 92.2283 61.2072C92.2283 61.2072 104.254 67.2201 97.6114 85.4918Z" fill="black"/>
</g>
<path d="M75.5829 82.0483C78.5822 82.0483 81.0136 78.8213 81.0136 74.8405C81.0136 70.8598 78.5822 67.6328 75.5829 67.6328C72.5837 67.6328 70.1523 70.8598 70.1523 74.8405C70.1523 78.8213 72.5837 82.0483 75.5829 82.0483Z" fill="#7C4E4E" stroke="#44323A" stroke-width="1.29403" stroke-linecap="round" stroke-linejoin="round"/>
<path d="M71.9342 75.5393C71.9342 78.3646 73.1592 80.8146 74.945 81.9922C72.2448 81.5781 70.1484 78.5328 70.1484 74.8406C70.1484 70.8593 72.5812 67.6328 75.5834 67.6328C76.4503 67.6328 77.2742 67.9046 77.9989 68.3834C77.7918 68.3488 77.5762 68.3316 77.3605 68.3316C74.3627 68.3316 71.9299 71.558 71.9299 75.535L71.9342 75.5393Z" fill="#B77676" stroke="#44323A" stroke-width="1.29403" stroke-linecap="round" stroke-linejoin="round"/>
<path d="M55.5829 82.0483C58.5822 82.0483 61.0136 78.8213 61.0136 74.8405C61.0136 70.8598 58.5822 67.6328 55.5829 67.6328C52.5837 67.6328 50.1523 70.8598 50.1523 74.8405C50.1523 78.8213 52.5837 82.0483 55.5829 82.0483Z" fill="#7C4E4E" stroke="#44323A" stroke-width="1.29403" stroke-linecap="round" stroke-linejoin="round"/>
<path d="M51.9381 75.5393C51.9381 78.3646 53.1631 80.8146 54.9489 81.9922C52.2487 81.5781 50.1523 78.5328 50.1523 74.8406C50.1523 70.8593 52.5851 67.6328 55.5873 67.6328C56.4543 67.6328 57.2781 67.9046 58.0028 68.3834C57.7957 68.3488 57.5801 68.3316 57.3644 68.3316C54.3666 68.3316 51.9338 71.558 51.9338 75.535L51.9381 75.5393Z" fill="#B77676" stroke="#44323A" stroke-width="1.29403" stroke-linecap="round" stroke-linejoin="round"/>
<path d="M84.418 95.1945C84.418 95.1945 107.128 90.5446 122.022 74.8438" stroke="#44323A" stroke-width="1.29403" stroke-linecap="round" stroke-linejoin="round"/>
<path d="M93.6485 70.5C93.6485 70.5 94.0971 79.4374 90.5859 85.019" stroke="#44323A" stroke-width="1.29403" stroke-linecap="round" stroke-linejoin="round"/>
<path d="M101.406 5.68313C105.275 7.80533 110.857 12.0584 112.582 19.4732C109.424 18.6363 106.302 18.4552 103.217 18.9469C102.708 18.9038 102.67 11.0663 100.241 6.56738C99.8745 5.88586 100.664 5.27767 101.401 5.68744L101.406 5.68313Z" fill="#FFB6B6" stroke="#44323A" stroke-width="1.29403" stroke-linecap="round" stroke-linejoin="round"/>
<path d="M60.1875 34.1211C61.9819 31.9429 63.772 31.9385 65.5318 34.3023" stroke="#44323A" stroke-width="1.29403" stroke-linecap="round" stroke-linejoin="round"/>
<path d="M81.4414 34.1211C83.2358 31.9429 85.0259 31.9385 86.7857 34.3023" stroke="#44323A" stroke-width="1.29403" stroke-linecap="round" stroke-linejoin="round"/>
<path d="M56.7239 53.3831C56.7239 54.6642 54.0539 55.7037 50.7584 55.7037C47.463 55.7037 44.793 54.6642 44.793 53.3831C44.793 52.102 47.463 51.0625 50.7584 51.0625C54.0539 51.0625 56.7239 52.102 56.7239 53.3831Z" fill="#FF7471" stroke="#44323A" stroke-width="1.29403" stroke-linecap="round" stroke-linejoin="round"/>
<path d="M101.122 53.3831C101.122 54.6642 98.4523 55.7037 95.1569 55.7037C91.8614 55.7037 89.1914 54.6642 89.1914 53.3831C89.1914 52.102 91.8614 51.0625 95.1569 51.0625C98.4523 51.0625 101.122 52.102 101.122 53.3831Z" fill="#FF7471" stroke="#44323A" stroke-width="1.29403" stroke-linecap="round" stroke-linejoin="round"/>
<path d="M63.1776 41.4271L62.0525 41.3886C60.5716 41.338 59.33 42.4974 59.2793 43.9783L59.0971 49.3022C59.0465 50.7831 60.2059 52.0247 61.6868 52.0754L62.8119 52.1139C64.2928 52.1645 65.5344 51.0051 65.585 49.5242L65.7672 44.2003C65.8179 42.7194 64.6585 41.4778 63.1776 41.4271Z" fill="#3A242D"/>
<path d="M61.0073 45.374C61.4385 45.374 61.788 45.0244 61.788 44.5932C61.788 44.162 61.4385 43.8125 61.0073 43.8125C60.5761 43.8125 60.2266 44.162 60.2266 44.5932C60.2266 45.0244 60.5761 45.374 61.0073 45.374Z" fill="white"/>
<path d="M84.8573 41.4271L83.7322 41.3886C82.2513 41.338 81.0097 42.4974 80.959 43.9783L80.7768 49.3022C80.7261 50.7831 81.8856 52.0247 83.3664 52.0754L84.4916 52.1139C85.9725 52.1645 87.2141 51.0051 87.2647 49.5242L87.4469 44.2003C87.4976 42.7194 86.3382 41.4778 84.8573 41.4271Z" fill="#3A242D"/>
<path d="M82.687 45.374C83.1182 45.374 83.4677 45.0244 83.4677 44.5932C83.4677 44.162 83.1182 43.8125 82.687 43.8125C82.2558 43.8125 81.9062 44.162 81.9062 44.5932C81.9062 45.0244 82.2558 45.374 82.687 45.374Z" fill="white"/>
<path d="M47.3855 155.581C47.3855 155.581 43.4258 160.52 36.5977 167.024L41.9636 168.849L40.5013 174.814C40.5013 174.814 48.369 178.123 68.4135 175.582C68.4135 175.582 83.7693 180.875 101.756 181.72V194.203L111.151 191.99L113.812 199.043C113.812 199.043 143.014 190.006 165.082 163.392C117.177 171.666 76.1 168.478 44.7932 148.891C44.7932 148.891 45.4833 152.518 47.3899 155.581H47.3855Z" fill="#8F8BD1" stroke="#44323A" stroke-width="1.29403" stroke-linecap="round" stroke-linejoin="round"/>
<path d="M52.5401 176.508H52.5358C44.0728 176.305 40.5013 174.804 40.5013 174.804L41.9636 168.843L36.5977 167.019C39.1641 164.577 41.3252 162.356 43.0203 160.531C43.0203 160.531 52.195 167.2 52.5401 176.508Z" fill="#FFDCDC" stroke="#44323A" stroke-width="1.29403" stroke-linecap="round" stroke-linejoin="round"/>
<path d="M126.776 193.521C119.055 197.416 113.814 199.037 113.814 199.037L111.152 191.985L101.758 194.198V183.854C101.758 183.854 117.48 182.452 126.776 193.521Z" fill="#FFDCDC" stroke="#44323A" stroke-width="1.29403" stroke-linecap="round" stroke-linejoin="round"/>
<path d="M101.758 181.719V176.961" stroke="#44323A" stroke-width="1.29403" stroke-linecap="round" stroke-linejoin="round"/>
<g style="mix-blend-mode:color-burn" opacity="0.15">
<path d="M86.3759 171.004C102.243 168.482 114.5 162.628 113.752 157.927C113.005 153.226 99.5373 151.46 83.6706 153.981C67.8039 156.503 55.547 162.358 56.2941 167.058C57.0411 171.759 70.5092 173.526 86.3759 171.004Z" fill="black"/>
</g>
<path d="M108.343 134.689C110.538 112.926 97.3002 93.7686 78.7746 91.8999C60.249 90.0312 43.4514 106.159 41.2562 127.922C39.0609 149.685 52.2992 168.843 70.8248 170.712C89.3503 172.58 106.148 156.453 108.343 134.689Z" fill="#FFC747"/>
<mask id="mask8_2180_13299" style="mask-type:luminance" maskUnits="userSpaceOnUse" x="41" y="91" width="68" height="80">
<path d="M108.347 134.689C110.542 112.926 97.3041 93.7686 78.7785 91.8999C60.2529 90.0312 43.4554 106.159 41.2601 127.922C39.0648 149.685 52.3031 168.843 70.8287 170.712C89.3542 172.58 106.152 156.453 108.347 134.689Z" fill="white"/>
</mask>
<g mask="url(#mask8_2180_13299)">
<path d="M47.332 167.227L108.238 173.326" stroke="#44323A" stroke-width="1.29403" stroke-linecap="round" stroke-linejoin="round"/>
<path d="M47.9219 158.875L108.827 164.974" stroke="#44323A" stroke-width="1.29403" stroke-linecap="round" stroke-linejoin="round"/>
<path d="M48.5156 150.531L109.421 156.63" stroke="#44323A" stroke-width="1.29403" stroke-linecap="round" stroke-linejoin="round"/>
<path d="M49.1016 142.188L110.011 148.282" stroke="#44323A" stroke-width="1.29403" stroke-linecap="round" stroke-linejoin="round"/>
<path d="M49.6914 133.844L110.597 139.939" stroke="#44323A" stroke-width="1.29403" stroke-linecap="round" stroke-linejoin="round"/>
<path d="M50.2812 125.5L111.187 131.595" stroke="#44323A" stroke-width="1.29403" stroke-linecap="round" stroke-linejoin="round"/>
<path d="M50.875 117.156L111.781 123.251" stroke="#44323A" stroke-width="1.29403" stroke-linecap="round" stroke-linejoin="round"/>
<path d="M51.4648 108.805L112.37 114.9" stroke="#44323A" stroke-width="1.29403" stroke-linecap="round" stroke-linejoin="round"/>
<path d="M52.2578 101.781L113.163 107.876" stroke="#44323A" stroke-width="1.29403" stroke-linecap="round" stroke-linejoin="round"/>
<path d="M55.125 95.4062L116.031 101.501" stroke="#44323A" stroke-width="1.29403" stroke-linecap="round" stroke-linejoin="round"/>
<path d="M52.9375 87.9375L113.843 94.0367" stroke="#44323A" stroke-width="1.29403" stroke-linecap="round" stroke-linejoin="round"/>
<path d="M49.7227 90.9062L110.628 97.0011" stroke="#44323A" stroke-width="1.29403" stroke-linecap="round" stroke-linejoin="round"/>
</g>
<path d="M108.343 134.689C110.538 112.926 97.3002 93.7686 78.7746 91.8999C60.249 90.0312 43.4514 106.159 41.2562 127.922C39.0609 149.685 52.2992 168.843 70.8248 170.712C89.3503 172.58 106.148 156.453 108.343 134.689Z" stroke="#44323A" stroke-width="1.29403" stroke-linecap="round" stroke-linejoin="round"/>
<path d="M101.796 134.525C103.992 112.762 90.7533 93.6045 72.2277 91.7358C53.7021 89.8671 36.9046 105.995 34.7093 127.758C32.514 149.521 45.7523 168.679 64.2779 170.548C82.8035 172.416 99.601 156.289 101.796 134.525Z" fill="#FFDE73" stroke="#44323A" stroke-width="1.29403" stroke-linecap="round" stroke-linejoin="round"/>
<g style="mix-blend-mode:overlay" opacity="0.4">
<path d="M95.3743 106.551C90.0386 99.2867 82.352 94.391 73.4405 93.4895C54.9187 91.6218 38.1222 107.75 35.9266 129.515C34.8698 139.993 37.3932 149.87 42.3623 157.501C36.5952 149.663 33.5672 139.057 34.7059 127.751C36.9015 105.985 53.6936 89.8576 72.2198 91.7253C81.8344 92.6958 90.0213 98.3205 95.37 106.551H95.3743Z" fill="white"/>
<path d="M95.3743 106.551C90.0386 99.2867 82.352 94.391 73.4405 93.4895C54.9187 91.6218 38.1222 107.75 35.9266 129.515C34.8698 139.993 37.3932 149.87 42.3623 157.501C36.5952 149.663 33.5672 139.057 34.7059 127.751C36.9015 105.985 53.6936 89.8576 72.2198 91.7253C81.8344 92.6958 90.0213 98.3205 95.37 106.551H95.3743Z" stroke="#44323A" stroke-width="0.431343" stroke-miterlimit="10"/>
</g>
<mask id="mask9_2180_13299" style="mask-type:luminance" maskUnits="userSpaceOnUse" x="34" y="91" width="68" height="80">
<path d="M101.535 134.502C103.73 112.739 90.4916 93.5811 71.966 91.7124C53.4404 89.8437 36.6429 105.971 34.4476 127.735C32.2523 149.498 45.4906 168.656 64.0162 170.524C82.5417 172.393 99.3393 156.265 101.535 134.502Z" fill="white"/>
</mask>
<g mask="url(#mask9_2180_13299)">
<g style="mix-blend-mode:overlay" opacity="0.4">
<path d="M102.754 103.975L14.708 146.299L10.8906 134.644L98.9406 92.3203L102.754 103.975Z" fill="white"/>
<path d="M102.754 103.975L14.708 146.299L10.8906 134.644L98.9406 92.3203L102.754 103.975Z" stroke="#44323A" stroke-width="0.431343" stroke-miterlimit="10"/>
</g>
<g style="mix-blend-mode:overlay" opacity="0.4">
<path d="M105.899 113.58L17.849 155.903L16.1797 150.796L104.225 108.469L105.899 113.58Z" fill="white"/>
<path d="M105.899 113.58L17.849 155.903L16.1797 150.796L104.225 108.469L105.899 113.58Z" stroke="#44323A" stroke-width="0.431343" stroke-miterlimit="10"/>
</g>
</g>
<path d="M101.531 134.502C103.726 112.739 90.4877 93.5811 71.9621 91.7124C53.4365 89.8437 36.6389 105.971 34.4437 127.735C32.2484 149.498 45.4867 168.656 64.0123 170.524C82.5378 172.393 99.3354 156.265 101.531 134.502Z" stroke="#44323A" stroke-width="0.431343" stroke-miterlimit="10"/>
<path d="M101.796 134.525C103.992 112.762 90.7533 93.6045 72.2277 91.7358C53.7021 89.8671 36.9046 105.995 34.7093 127.758C32.514 149.521 45.7523 168.679 64.2779 170.548C82.8035 172.416 99.601 156.289 101.796 134.525Z" stroke="#44323A" stroke-width="1.29403" stroke-linecap="round" stroke-linejoin="round"/>
<path d="M96.0485 133.948C97.868 115.911 86.8978 100.034 71.5459 98.485C56.1941 96.9365 42.274 110.303 40.4545 128.341C38.6351 146.378 49.6053 162.255 64.9572 163.804C80.309 165.352 94.2291 151.986 96.0485 133.948Z" fill="#FFC248" stroke="#44323A" stroke-width="1.29403" stroke-linecap="round" stroke-linejoin="round"/>
<path d="M54 118.672C54 118.672 56.4932 107.129 59.0338 107.008C59.0338 107.008 61.2293 106.219 62.6096 113.703" fill="#CC7A02"/>
<path d="M73.6099 154.958C73.308 154.958 73.0017 154.932 72.6998 154.884L55.3771 152.072C54.0356 151.856 52.8192 151.123 51.853 149.954C49.9551 148.897 48.3634 147.116 47.367 144.916C47.3325 144.86 47.147 144.545 47.147 144.545C47.1039 144.467 46.9659 144.217 46.9659 144.217L46.8969 144.088C46.8624 144.019 46.7502 143.79 46.7502 143.79L46.6683 143.618C46.6337 143.54 46.5432 143.333 46.5432 143.333C46.513 143.268 46.4871 143.204 46.4612 143.139L46.2714 142.651L46.1895 142.419C46.155 142.319 46.1248 142.237 46.0989 142.151C46.0989 142.151 45.9652 141.711 45.9479 141.642C45.9479 141.642 45.8358 141.198 45.8185 141.125C45.8056 141.064 45.7236 140.672 45.7064 140.598C45.7064 140.598 45.6244 140.132 45.6158 140.063C45.6071 139.994 45.5468 139.524 45.5468 139.524C45.5381 139.442 45.4993 138.972 45.4993 138.972C45.4907 138.838 45.4864 138.7 45.4821 138.567V138.42C45.4648 138.04 45.4734 137.657 45.4907 137.281C45.8875 130.233 48.3677 123.733 52.8753 117.953C52.9055 117.841 52.9443 117.711 52.9874 117.569C53.4274 116.076 54.5963 112.311 55.9292 109.632C56.9428 107.601 57.8487 106.57 58.7847 106.389C58.8321 106.38 58.8752 106.371 58.9141 106.363C58.9874 106.345 59.0909 106.328 59.2203 106.328C60.3116 106.328 61.8213 107.337 62.9212 112.022C63.7322 111.875 64.8235 111.711 65.9018 111.634C65.3281 109.447 65.4964 108.77 65.5567 108.532C65.7207 107.885 66.1563 107.812 66.3332 107.812C66.4065 107.812 66.4755 107.821 66.5445 107.842C66.592 107.834 66.6351 107.834 66.661 107.834C66.8163 107.834 66.95 107.868 67.0751 107.954C67.226 107.092 67.5064 106.798 67.9981 106.798H68.106L68.1966 106.824C68.2483 106.816 68.2915 106.811 68.3217 106.811H68.4295L68.5675 106.854C68.8436 106.949 69.0938 107.122 69.3008 107.907C69.5165 107.644 69.7666 107.523 70.0556 107.523C70.1247 107.523 70.198 107.532 70.267 107.549C70.3101 107.54 70.3533 107.54 70.3878 107.54C70.4654 107.54 70.5431 107.549 70.6164 107.57C71.3842 107.782 71.6387 108.597 70.7544 112.16C71.6344 112.388 72.4323 112.639 72.9758 112.82C74.8134 108.377 77.1599 107.363 77.2634 107.32L77.3324 107.29L77.4057 107.277C77.5093 107.26 77.6128 107.251 77.7163 107.251C80.093 107.251 81.8141 111.612 82.8363 120.209C86.947 127.145 88.474 135.388 87.2576 144.049C86.4208 149.997 81.9435 154.315 76.6034 154.315C76.4783 154.315 76.3489 154.315 76.2195 154.306C75.3827 154.729 74.5028 154.945 73.5927 154.945L73.6099 154.958Z" fill="#FFC248"/>
<path d="M59.2184 106.982C59.7446 106.982 61.2931 107.465 62.4276 112.78C63.3895 112.59 65.1838 112.279 66.7453 112.245C66.383 111.015 66.0034 109.437 66.1889 108.69C66.2277 108.531 66.2795 108.462 66.3398 108.462C66.4002 108.462 66.4649 108.531 66.5339 108.647C66.5728 108.531 66.6159 108.479 66.6677 108.479C66.9135 108.479 67.3017 109.717 67.5778 110.752C67.5778 109.376 67.6468 107.448 68.0048 107.448C68.0178 107.448 68.0307 107.448 68.0393 107.453C68.0911 107.47 68.1385 107.522 68.1817 107.599C68.2248 107.513 68.2723 107.461 68.3283 107.461C68.3413 107.461 68.3499 107.461 68.3628 107.465C68.7295 107.595 68.9408 109.346 69.0487 110.683C69.2643 109.545 69.6137 108.173 70.0666 108.173C70.0882 108.173 70.1055 108.173 70.127 108.181C70.1659 108.194 70.2004 108.22 70.2262 108.259C70.2823 108.216 70.3384 108.194 70.3988 108.194C70.4203 108.194 70.4376 108.194 70.4592 108.203C71.0027 108.35 70.4203 110.955 69.9804 112.642C71.5332 113.004 72.9782 113.504 73.3621 113.638C75.1522 108.906 77.5246 107.923 77.5246 107.923C77.5936 107.91 77.6626 107.905 77.7316 107.905C80.4361 107.905 81.7517 116.411 82.2219 120.432C86.6173 127.782 87.7517 135.969 86.6302 143.97C85.8279 149.685 81.4972 153.679 76.6187 153.679C76.4419 153.679 76.2694 153.675 76.0925 153.662C75.3247 154.081 74.4836 154.309 73.6123 154.309C73.3449 154.309 73.0774 154.288 72.8057 154.245L55.483 151.432C54.2234 151.229 53.1192 150.5 52.2781 149.448C50.4104 148.443 48.892 146.722 47.9431 144.613C47.9 144.539 47.8568 144.466 47.8094 144.393C47.7749 144.337 47.7404 144.281 47.7102 144.224C47.667 144.147 47.6196 144.065 47.5764 143.983C47.5419 143.918 47.5074 143.858 47.4729 143.793C47.4341 143.715 47.3953 143.638 47.3565 143.56C47.322 143.491 47.2874 143.422 47.2573 143.353C47.2227 143.28 47.1882 143.202 47.158 143.125C47.1235 143.051 47.0933 142.974 47.0588 142.9C47.0286 142.827 46.9984 142.749 46.9683 142.676C46.9381 142.598 46.9079 142.516 46.8777 142.439C46.8518 142.365 46.8259 142.292 46.8 142.214C46.7698 142.132 46.744 142.046 46.7138 141.964C46.6922 141.891 46.6706 141.818 46.6447 141.74C46.6189 141.654 46.593 141.567 46.5671 141.481C46.5455 141.408 46.5283 141.33 46.5067 141.253C46.4851 141.166 46.4593 141.076 46.442 140.985C46.4248 140.907 46.4075 140.83 46.3903 140.752C46.373 140.662 46.3514 140.575 46.3342 140.485C46.3169 140.403 46.304 140.321 46.291 140.239C46.2781 140.153 46.2609 140.062 46.2479 139.976C46.235 139.885 46.2263 139.799 46.2134 139.708C46.2048 139.626 46.1918 139.544 46.1832 139.462C46.1703 139.359 46.166 139.255 46.1573 139.156C46.153 139.083 46.1444 139.014 46.1401 138.941C46.1314 138.811 46.1271 138.682 46.1228 138.552C46.1228 138.505 46.1185 138.457 46.1185 138.414C46.1099 138.056 46.1185 137.694 46.1358 137.332C46.5283 130.348 48.9438 124.025 53.4643 118.266C53.5031 118.133 53.5505 117.964 53.6109 117.766C54.0897 116.135 55.2198 112.525 56.5096 109.937C57.286 108.376 58.1228 107.194 58.9078 107.043C58.9509 107.034 58.9941 107.021 59.0372 107.021C59.0372 107.021 59.1019 107 59.2184 107M59.2184 105.688C59.0545 105.688 58.9121 105.71 58.8 105.731C58.7396 105.74 58.6878 105.753 58.6576 105.762C57.4973 105.986 56.475 107.09 55.3492 109.35C54.0423 111.973 52.9165 115.514 52.3643 117.391C52.3342 117.486 52.3083 117.576 52.2867 117.658C47.7447 123.52 45.2429 130.107 44.8417 137.25C44.8202 137.642 44.8159 138.043 44.8245 138.44C44.8245 138.479 44.8245 138.513 44.8288 138.552V138.591C44.8374 138.733 44.8417 138.876 44.8504 139.018C44.8504 139.074 44.859 139.13 44.8633 139.186V139.255L44.8762 139.32C44.8849 139.411 44.8892 139.506 44.9021 139.596C44.9107 139.661 44.9194 139.73 44.928 139.795L44.9366 139.868L44.9453 139.937C44.9539 140.015 44.9625 140.088 44.9754 140.161C44.9884 140.235 44.997 140.308 45.01 140.377L45.0229 140.45L45.0358 140.519C45.0488 140.588 45.0574 140.653 45.0703 140.722C45.0833 140.8 45.1005 140.877 45.1178 140.951L45.1307 141.015L45.1437 141.08C45.1566 141.145 45.1696 141.209 45.1868 141.274C45.2041 141.356 45.2256 141.434 45.2472 141.511L45.2601 141.567L45.2774 141.632C45.2946 141.692 45.3076 141.757 45.3248 141.818C45.3464 141.895 45.368 141.973 45.3939 142.046L45.4111 142.102L45.4284 142.163C45.4456 142.227 45.4672 142.288 45.4844 142.352C45.5103 142.43 45.5362 142.503 45.5621 142.581L45.5793 142.628L45.5966 142.685C45.6181 142.749 45.6397 142.81 45.6613 142.874C45.6872 142.952 45.7174 143.025 45.7476 143.099L45.7648 143.142L45.7777 143.181C45.8036 143.25 45.8338 143.323 45.8597 143.392C45.8899 143.465 45.9244 143.539 45.9546 143.616L45.9675 143.646L45.9805 143.677C46.0107 143.75 46.0452 143.823 46.0797 143.897C46.1099 143.961 46.1401 144.026 46.1746 144.091L46.1918 144.13L46.2091 144.164C46.2479 144.242 46.2824 144.315 46.3212 144.393C46.3514 144.453 46.3816 144.509 46.4118 144.565L46.4334 144.604C46.4808 144.695 46.5283 144.785 46.58 144.871C46.6102 144.923 46.6404 144.975 46.6706 145.027L46.6922 145.061L46.7138 145.096C46.7396 145.139 46.7655 145.182 46.7914 145.225C47.8309 147.494 49.4657 149.34 51.4326 150.466C52.4894 151.704 53.8093 152.476 55.2716 152.713L72.5943 155.526C72.9308 155.582 73.2715 155.608 73.608 155.608C74.5612 155.608 75.4929 155.396 76.3729 154.974C76.4548 154.974 76.5368 154.974 76.6144 154.974C82.278 154.974 87.027 150.423 87.907 144.151C89.1363 135.391 87.605 127.048 83.4728 120.009C83.214 117.865 82.7654 114.876 82.058 112.318C81.3808 109.868 80.1946 106.611 77.7273 106.611C77.5893 106.611 77.4512 106.624 77.3175 106.646L77.1665 106.672L77.0242 106.732C76.7525 106.844 74.4879 107.888 72.6245 112.033C72.301 111.934 71.9344 111.822 71.5418 111.71C71.6885 111.076 71.7963 110.519 71.8697 110.041C71.9904 109.238 72.2751 107.358 70.7999 106.956C70.6705 106.922 70.5368 106.905 70.4031 106.905C70.3729 106.905 70.3427 106.905 70.3125 106.905C70.2306 106.892 70.1486 106.883 70.0666 106.883C69.907 106.883 69.7604 106.905 69.6224 106.944C69.411 106.581 69.1436 106.374 68.7899 106.249C68.6389 106.197 68.4836 106.171 68.3283 106.171C68.2981 106.171 68.2636 106.171 68.2334 106.171C68.1558 106.158 68.0782 106.15 68.0005 106.15C67.2802 106.15 66.8618 106.547 66.6202 107.181C66.6073 107.181 66.5943 107.181 66.5814 107.181C66.4908 107.164 66.4046 107.159 66.3355 107.159C65.8007 107.159 65.1537 107.478 64.9294 108.367C64.8258 108.781 64.7482 109.493 65.0933 111.05C64.498 111.115 63.9157 111.197 63.4024 111.279C62.4362 107.56 61.03 105.68 59.2141 105.68L59.2184 105.688Z" fill="#44323A"/>
<path d="M64.748 151.908L54.8142 150.32C50.022 149.557 46.5411 144.445 46.8646 138.687C47.2916 131.082 50.1212 124.259 55.4612 118.108C57.6826 115.545 59.2182 115.243 62.518 114.299C62.518 114.299 66.0679 113.501 68.4231 113.652C70.8041 113.807 74.298 115.093 74.298 115.093C77.6107 116.537 79.789 116.589 81.7214 119.626C86.5308 127.179 87.7947 135.676 86.6301 143.98C85.7501 150.251 80.6258 154.444 75.1952 153.577L64.7524 151.908H64.748Z" fill="#CC7A02"/>
<path d="M82.428 122.481C82.428 122.481 81.2246 107.336 77.5194 107.923C77.5194 107.923 75.6128 109.044 73.7969 114.436" fill="#CC7A02"/>
<path d="M67.6162 113.944C67.6162 113.944 65.9253 109.829 66.2531 108.522C66.2962 108.358 66.6025 108.479 66.6629 108.483C67.0899 108.509 67.9138 112.132 67.9138 112.132C67.9138 112.132 67.5601 108.69 67.8448 107.599C67.9095 107.349 68.2502 107.439 68.3624 107.478C68.9576 107.685 69.1431 112.205 69.1431 112.205C69.1431 112.205 69.3803 109.363 69.9066 108.362C70.0489 108.095 70.2862 108.159 70.4587 108.207C71.2696 108.427 69.5831 114.073 69.5831 114.073" fill="#CC7A02"/>
<path d="M67.2897 113.921C67.2897 113.921 65.8577 110 66.1855 108.693C66.5133 107.382 67.5917 112.109 67.5917 112.109C67.5917 112.109 67.445 107.253 68.036 107.46C68.6312 107.667 68.8124 112.183 68.8124 112.183C68.8124 112.183 69.3214 107.969 70.1237 108.189C70.9259 108.409 69.248 114.05 69.248 114.05" fill="#FFB839"/>
<path d="M53.3633 118.62C53.3633 118.62 56.4991 107.129 59.0398 107.008C59.0398 107.008 61.2439 108.293 61.947 113.659" fill="#FFB839"/>
<g style="mix-blend-mode:overlay" opacity="0.2">
<path d="M60.2691 108.388C59.717 107.62 59.2727 107.362 59.2727 107.362C57.0728 107.461 54.4287 116.075 53.7558 118.395L53.3633 118.62C53.3633 118.62 56.4991 107.124 59.0398 107.008C59.0398 107.008 59.6134 107.34 60.2691 108.388Z" fill="white"/>
</g>
<path d="M60.4025 113.45C58.8238 113.756 57.3141 114.429 55.9727 115.417C56.8267 112.397 57.9439 109.223 58.8497 109.141C58.8497 109.141 59.8763 110.021 60.3982 113.445L60.4025 113.45Z" fill="#A86000"/>
<path d="M60.653 113.829C59.0742 114.131 57.5602 114.804 56.2188 115.792C57.0771 112.772 58.19 109.593 59.1001 109.516C59.1001 109.516 60.131 110.4 60.653 113.825V113.829Z" fill="#CC7A02"/>
<path d="M81.3932 120.861C81.3932 120.861 80.2846 108.327 77.5197 107.93C77.5197 107.93 74.8972 109.012 73.0898 114.396" fill="#FFB839"/>
<g style="mix-blend-mode:overlay" opacity="0.2">
<path d="M81.3932 120.861L73.0898 114.396C74.8972 109.012 77.5197 107.93 77.5197 107.93C77.6103 107.943 77.6966 107.969 77.7828 108.007C77.2523 108.292 75.0481 109.711 73.4651 114.421L81.3673 120.568C81.3846 120.758 81.3932 120.861 81.3932 120.861Z" fill="white"/>
</g>
<path d="M74.1445 114.352C75.7621 114.883 77.2588 115.797 78.5227 117.026C78.2035 113.761 77.6384 110.315 76.6679 110.125C76.6679 110.125 75.3868 110.91 74.1445 114.352Z" fill="#A86000"/>
<path d="M74.4102 114.743C76.032 115.278 77.5288 116.192 78.7926 117.421C78.4734 114.152 77.9083 110.705 76.9378 110.516C76.9378 110.516 75.6524 111.301 74.4102 114.743Z" fill="#CC7A02"/>
<path d="M63.9486 150.451L54.0536 148.902C49.283 148.156 45.8107 143.071 46.1342 137.321C46.5612 129.729 49.3779 122.91 54.7006 116.75C56.9134 114.188 58.4447 113.882 61.7272 112.924C61.7272 112.924 65.2642 112.113 67.6064 112.26C69.9788 112.407 73.4554 113.679 73.4554 113.679C76.7552 115.111 78.3554 115.65 80.2749 118.67C85.0499 126.188 86.896 134.172 85.7357 142.463C84.8601 148.726 79.7573 152.927 74.3483 152.081L63.9443 150.455L63.9486 150.451Z" fill="#FEE996"/>
<path d="M63.9486 150.451L54.0536 148.902C49.283 148.156 45.8107 143.071 46.1342 137.321C46.5612 129.729 49.3779 122.91 54.7006 116.75C56.9134 114.188 58.4447 113.882 61.7272 112.924C61.7272 112.924 65.2642 112.113 67.6064 112.26C69.9788 112.407 73.4554 113.679 73.4554 113.679C76.7552 115.111 78.3554 115.65 80.2749 118.67C85.0499 126.188 86.896 134.172 85.7357 142.463C84.8601 148.726 79.7573 152.927 74.3483 152.081L63.9443 150.455L63.9486 150.451Z" fill="#FFB839"/>
<g style="mix-blend-mode:overlay" opacity="0.2">
<path d="M80.3522 118.785C78.726 116.685 77.1344 116.107 74.2702 114.86C74.2702 114.86 70.7764 113.575 68.3997 113.424C66.0488 113.273 62.4989 114.075 62.4989 114.075C59.2034 115.024 57.6635 115.326 55.4464 117.888C50.1064 124.043 47.2725 130.867 46.8498 138.472C46.7161 140.896 47.2466 143.195 48.2646 145.102C46.798 143.014 45.9785 140.262 46.1467 137.329C46.5694 129.737 49.3904 122.918 54.7132 116.758C56.926 114.196 58.4572 113.885 61.7397 112.932C61.7397 112.932 65.2767 112.121 67.6189 112.268C69.9913 112.414 73.4723 113.687 73.4723 113.687C76.772 115.119 78.3723 115.658 80.2918 118.677C80.3177 118.716 80.3392 118.755 80.3651 118.79L80.3522 118.785Z" fill="white"/>
</g>
<path d="M72.8066 154.258L55.4839 151.446C52.3049 150.928 50.105 147.085 50.6873 143.034C50.9289 141.348 51.5198 139.67 52.3696 137.914C53.2625 136.077 54.4788 134.929 55.9929 134.062C57.4249 133.243 58.9734 132.794 60.5478 132.682C64.046 132.428 67.7513 132.842 71.2494 133.899C72.8627 134.386 74.4112 135.21 75.7785 136.405C77.2451 137.686 78.3493 139.195 78.9532 141.352C79.5355 143.431 79.8418 145.355 79.7598 147.193C79.5614 151.61 76.322 154.836 72.8023 154.262L72.8066 154.258Z" fill="#CC7A02"/>
<path d="M72.5356 152.637L54.8635 149.837C51.6242 149.324 49.3769 145.489 49.9592 141.443C50.205 139.757 50.8003 138.083 51.663 136.327C52.5688 134.49 53.8067 133.343 55.3466 132.476C56.8046 131.652 58.3833 131.207 59.9879 131.091C63.5551 130.832 67.3337 131.242 70.9052 132.29C72.5529 132.773 74.1359 133.597 75.5335 134.788C77.0345 136.069 78.1647 137.574 78.7858 139.731C79.3854 141.806 79.7046 143.734 79.6226 145.571C79.4285 149.988 76.1287 153.215 72.5313 152.645L72.5356 152.637Z" fill="#FFD56C"/>
<g style="mix-blend-mode:overlay" opacity="0.2">
<path d="M77.761 137.35C77.2607 136.681 76.687 136.09 76.04 135.538C74.6381 134.339 73.0551 133.515 71.403 133.028C67.8229 131.971 64.0314 131.557 60.4556 131.807C58.8466 131.919 57.2636 132.363 55.8057 133.187C54.2615 134.054 53.0192 135.202 52.1134 137.039C51.2464 138.795 50.6511 140.473 50.4053 142.159C50.1249 144.092 50.4915 145.968 51.2938 147.465C50.1853 145.882 49.6332 143.699 49.961 141.443C50.2069 139.757 50.8021 138.083 51.6648 136.327C52.5706 134.49 53.8086 133.347 55.3485 132.476C56.8064 131.656 58.3851 131.207 59.9897 131.091C63.5569 130.832 67.3398 131.242 70.9113 132.29C72.559 132.773 74.1421 133.597 75.5396 134.788C76.4152 135.538 77.1658 136.362 77.761 137.354V137.35Z" fill="white"/>
</g>
<path d="M59.0027 133.262C59.0415 133.007 59.227 132.822 59.4341 132.791C60.0552 132.705 61.6037 132.567 61.1637 133.421C60.685 134.344 58.8733 134.167 59.007 133.262H59.0027Z" fill="white"/>
<path d="M62.041 140.471C61.8599 142.351 60.6737 143.732 59.3926 143.55C58.1115 143.369 57.2359 141.717 57.4084 139.858C57.5852 137.995 58.7542 136.614 60.031 136.77C61.3164 136.929 62.2179 138.586 62.041 140.471Z" fill="#CC7A02"/>
<path d="M71.8577 141.77C71.6679 143.698 70.4213 145.105 69.0755 144.915C67.7297 144.725 66.811 143.03 66.9964 141.128C67.1819 139.221 68.4069 137.806 69.7484 137.975C71.0899 138.143 72.0431 139.842 71.8577 141.77Z" fill="#CC7A02"/>
<path d="M62.0448 140.471C62.0319 140.626 62.0103 140.781 61.9801 140.928C61.9801 139.241 61.126 137.835 59.9485 137.688C58.7709 137.542 57.6969 138.689 57.3906 140.315C57.3906 140.164 57.3993 140.013 57.4122 139.858C57.589 137.995 58.758 136.614 60.0348 136.77C61.3115 136.925 62.226 138.586 62.0448 140.471Z" fill="#A86000"/>
<path d="M71.8555 141.77C71.8382 141.929 71.8166 142.085 71.7864 142.24C71.7864 140.514 70.8936 139.069 69.6556 138.914C68.4177 138.759 67.2918 139.932 66.9727 141.597C66.9727 141.442 66.9813 141.287 66.9942 141.127C67.1797 139.22 68.409 137.81 69.7462 137.974C71.0833 138.138 72.0409 139.842 71.8555 141.77Z" fill="#A86000"/>
<path d="M57.9234 127.784C57.8458 128.595 56.5863 129.125 55.1111 128.97C53.6488 128.815 52.5316 128.043 52.6093 127.245C52.6869 126.447 53.9206 125.912 55.3828 126.054C56.858 126.201 57.9968 126.973 57.9234 127.784Z" fill="#CC7A02"/>
<path d="M80.6774 130.105C80.5911 130.959 79.1807 131.511 77.5372 131.338C75.8938 131.166 74.6602 130.342 74.7421 129.501C74.8241 128.66 76.2044 128.099 77.8392 128.263C79.4869 128.427 80.7594 129.251 80.6774 130.109V130.105Z" fill="#CC7A02"/>
<path d="M59.9907 127.198L59.1453 127.077C58.4767 126.982 58.0238 126.223 58.123 125.386L58.5759 121.668C58.6794 120.827 59.3006 120.214 59.9692 120.296L60.8189 120.404C61.4918 120.491 61.9576 121.245 61.8541 122.095L61.3969 125.843C61.2934 126.689 60.6636 127.297 59.9907 127.198Z" fill="#A86000"/>
<path d="M72.7965 128.482L71.895 128.352C71.1833 128.253 70.7002 127.468 70.808 126.605L71.2868 122.771C71.3946 121.904 72.0589 121.27 72.7706 121.36L73.6764 121.472C74.3968 121.563 74.8885 122.344 74.7807 123.219L74.2933 127.084C74.1811 127.955 73.5125 128.581 72.7965 128.477V128.482Z" fill="#A86000"/>
<path d="M60.2769 127.632L59.4314 127.511C58.7629 127.416 58.3056 126.657 58.4092 125.816L58.8621 122.098C58.9656 121.257 59.5867 120.644 60.2596 120.726L61.1094 120.834C61.7866 120.92 62.2481 121.679 62.1446 122.525L61.6874 126.273C61.5838 127.119 60.9541 127.727 60.2812 127.628L60.2769 127.632Z" fill="#CC7A02"/>
<path d="M60.066 122.779C60.0401 123.055 59.8417 123.262 59.6217 123.24C59.4017 123.219 59.2465 122.981 59.2723 122.705C59.2982 122.429 59.4966 122.222 59.7166 122.244C59.9366 122.265 60.0919 122.503 60.066 122.779Z" fill="white"/>
<path d="M73.0983 128.936L72.1968 128.806C71.4851 128.703 70.9977 127.922 71.1098 127.055L71.5886 123.216C71.6964 122.349 72.3607 121.715 73.0767 121.805L73.9825 121.918C74.7029 122.008 75.1989 122.793 75.0868 123.669L74.5994 127.538C74.4872 128.409 73.8186 129.035 73.1026 128.931L73.0983 128.936Z" fill="#CC7A02"/>
<path d="M72.8751 123.921C72.8492 124.206 72.6378 124.417 72.4049 124.395C72.172 124.374 72.0081 124.128 72.0339 123.843C72.0598 123.558 72.2712 123.347 72.5041 123.369C72.737 123.39 72.9053 123.636 72.8751 123.921Z" fill="white"/>
<mask id="mask10_2180_13299" style="mask-type:luminance" maskUnits="userSpaceOnUse" x="40" y="98" width="57" height="66">
<path d="M96.0564 133.948C97.8758 115.911 86.9056 100.034 71.5538 98.485C56.2019 96.9365 42.2818 110.303 40.4624 128.341C38.6429 146.378 49.6131 162.255 64.965 163.804C80.3168 165.352 94.2369 151.986 96.0564 133.948Z" fill="white"/>
</mask>
<g mask="url(#mask10_2180_13299)">
<g style="mix-blend-mode:overlay" opacity="0.1">
<path d="M104.605 104.936L16.5596 147.259L12.7422 135.605L100.792 93.2812L104.605 104.936Z" fill="white"/>
<path d="M104.605 104.936L16.5596 147.259L12.7422 135.605L100.792 93.2812L104.605 104.936Z" stroke="#44323A" stroke-width="0.431343" stroke-miterlimit="10"/>
</g>
<g style="mix-blend-mode:overlay" opacity="0.1">
<path d="M107.751 114.537L19.701 156.864L18.0273 151.753L106.077 109.43L107.751 114.537Z" fill="white"/>
<path d="M107.751 114.537L19.701 156.864L18.0273 151.753L106.077 109.43L107.751 114.537Z" stroke="#44323A" stroke-width="0.431343" stroke-miterlimit="10"/>
</g>
</g>
<path d="M96.0525 133.948C97.8719 115.911 86.9017 100.034 71.5498 98.485C56.198 96.9365 42.2779 110.303 40.4585 128.341C38.639 146.378 49.6092 162.255 64.9611 163.804C80.3129 165.352 94.233 151.986 96.0525 133.948Z" stroke="#44323A" stroke-width="0.431343" stroke-miterlimit="10"/>
<g style="mix-blend-mode:color-burn" opacity="0.15">
<path d="M90.9222 111.06C86.5096 105.198 80.2249 101.256 72.9568 100.522C57.601 98.974 43.6859 112.341 41.8656 130.38C41.0072 138.916 43.013 146.969 46.9899 153.25C42.0856 146.728 39.4932 137.829 40.4508 128.331C42.271 110.292 56.1862 96.9251 71.542 98.4736C79.6253 99.2888 86.4966 104.077 90.9222 111.06Z" fill="black"/>
<path d="M90.9222 111.06C86.5096 105.198 80.2249 101.256 72.9568 100.522C57.601 98.974 43.6859 112.341 41.8656 130.38C41.0072 138.916 43.013 146.969 46.9899 153.25C42.0856 146.728 39.4932 137.829 40.4508 128.331C42.271 110.292 56.1862 96.9251 71.542 98.4736C79.6253 99.2888 86.4966 104.077 90.9222 111.06Z" stroke="#44323A" stroke-width="0.431343" stroke-miterlimit="10"/>
</g>
<path d="M96.0485 133.948C97.868 115.911 86.8978 100.034 71.5459 98.485C56.1941 96.9365 42.274 110.303 40.4545 128.341C38.6351 146.378 49.6053 162.255 64.9572 163.804C80.309 165.352 94.2291 151.986 96.0485 133.948Z" stroke="#44323A" stroke-width="1.29403" stroke-linecap="round" stroke-linejoin="round"/>
<g style="mix-blend-mode:color-burn" opacity="0.15">
<path d="M174.074 199.219C191.786 199.219 206.145 194.772 206.145 189.285C206.145 183.799 191.786 179.352 174.074 179.352C156.362 179.352 142.004 183.799 142.004 189.285C142.004 194.772 156.362 199.219 174.074 199.219Z" fill="black"/>
<path d="M174.074 199.219C191.786 199.219 206.145 194.772 206.145 189.285C206.145 183.799 191.786 179.352 174.074 179.352C156.362 179.352 142.004 183.799 142.004 189.285C142.004 194.772 156.362 199.219 174.074 199.219Z" stroke="#44323A" stroke-width="0.431343" stroke-miterlimit="10"/>
</g>
<path d="M174.786 167.719C191.362 167.719 204.794 172.162 204.794 177.653V185.801C204.794 191.292 191.358 195.734 174.786 195.734C158.214 195.734 144.777 191.292 144.777 185.801V177.653C144.777 172.162 158.214 167.719 174.786 167.719Z" fill="#FFC747"/>
<mask id="mask11_2180_13299" style="mask-type:luminance" maskUnits="userSpaceOnUse" x="144" y="167" width="61" height="29">
<path d="M174.782 167.719C191.358 167.719 204.79 172.162 204.79 177.653V185.801C204.79 191.292 191.354 195.734 174.782 195.734C158.21 195.734 144.773 191.292 144.773 185.801V177.653C144.773 172.162 158.21 167.719 174.782 167.719Z" fill="white"/>
</mask>
<g mask="url(#mask11_2180_13299)">
<g style="mix-blend-mode:overlay" opacity="0.3">
<path d="M166.336 177.078H150.859V199.672H166.336V177.078Z" fill="white"/>
<path d="M166.336 177.078H150.859V199.672H166.336V177.078Z" stroke="#44323A" stroke-width="0.431343" stroke-miterlimit="10"/>
</g>
<g style="mix-blend-mode:overlay" opacity="0.2">
<path d="M199.165 177.648H184.262V200.242H199.165V177.648Z" fill="black"/>
<path d="M199.165 177.648H184.262V200.242H199.165V177.648Z" stroke="#44323A" stroke-width="0.431343" stroke-miterlimit="10"/>
</g>
<path opacity="0.3" d="M157.652 183.461H154.176V195.163H157.652V183.461Z" fill="white" stroke="#44323A" stroke-width="0.431343" stroke-miterlimit="10"/>
</g>
<path d="M174.786 167.719C191.362 167.719 204.794 172.162 204.794 177.653V185.801C204.794 191.292 191.358 195.734 174.786 195.734C158.214 195.734 144.777 191.292 144.777 185.801V177.653C144.777 172.162 158.214 167.719 174.786 167.719Z" stroke="#44323A" stroke-width="1.29403" stroke-linecap="round" stroke-linejoin="round"/>
<path d="M174.786 187.586C191.359 187.586 204.794 183.139 204.794 177.653C204.794 172.166 191.359 167.719 174.786 167.719C158.213 167.719 144.777 172.166 144.777 177.653C144.777 183.139 158.213 187.586 174.786 187.586Z" fill="#FEE996" stroke="#44323A" stroke-width="1.29403" stroke-linecap="round" stroke-linejoin="round"/>
<path d="M174.786 183.31C188.253 183.31 199.17 180.556 199.17 177.159C199.17 173.762 188.253 171.008 174.786 171.008C161.319 171.008 150.402 173.762 150.402 177.159C150.402 180.556 161.319 183.31 174.786 183.31Z" fill="#FFB839" stroke="#44323A" stroke-width="1.29403" stroke-linecap="round" stroke-linejoin="round"/>
<path d="M175.086 173.649C176.182 173.761 177.101 173.92 177.851 174.136C178.606 174.352 179.189 174.615 179.594 174.925C180.008 175.24 180.258 175.59 180.345 175.978C180.418 176.237 180.444 176.504 180.427 176.776C180.409 177.048 180.379 177.328 180.336 177.604C181.401 177.613 182.333 177.621 183.127 177.63C183.92 177.638 184.619 177.656 185.214 177.677C186.219 177.712 187.009 177.785 187.595 177.897C188.182 178.009 188.514 178.208 188.588 178.497C188.652 178.747 188.488 178.937 188.096 179.066C187.699 179.196 186.953 179.269 185.857 179.286C184.102 179.299 182.273 179.312 180.379 179.321C178.485 179.329 176.57 179.334 174.638 179.334C172.705 179.334 170.799 179.334 168.914 179.321C167.033 179.312 165.213 179.303 163.453 179.286C162.94 179.278 162.582 179.252 162.375 179.2C162.168 179.148 162.056 179.062 162.038 178.937C161.991 178.743 161.974 178.518 161.991 178.264C162.008 178.014 162.038 177.751 162.082 177.483C162.125 177.22 162.181 176.957 162.245 176.707L162.422 176.021C162.526 175.62 162.793 175.262 163.22 174.947C163.643 174.636 164.221 174.378 164.954 174.162C165.679 173.95 166.559 173.787 167.585 173.67C168.608 173.554 169.781 173.493 171.11 173.485C172.658 173.48 173.982 173.532 175.095 173.653L175.086 173.649ZM171.39 177.565C172.736 177.574 174.051 177.574 175.328 177.574C175.375 177.466 175.41 177.337 175.432 177.194C175.453 177.052 175.466 176.909 175.466 176.767C175.466 176.625 175.453 176.491 175.427 176.362C175.406 176.237 175.371 176.124 175.324 176.025C175.186 175.684 174.828 175.426 174.254 175.24C173.685 175.055 172.796 174.96 171.584 174.947C170.26 174.934 169.272 175.025 168.616 175.223C167.956 175.421 167.572 175.693 167.473 176.038C167.391 176.258 167.348 176.504 167.344 176.771C167.335 177.043 167.374 177.293 167.456 177.526C168.728 177.539 170.04 177.552 171.39 177.569V177.565Z" fill="#513925" stroke="#44323A" stroke-width="0.431343" stroke-miterlimit="10"/>
<path d="M171.403 159.484C187.98 159.484 201.412 163.927 201.412 169.418V177.566C201.412 183.057 187.975 187.5 171.403 187.5C154.831 187.5 141.395 183.057 141.395 177.566V169.418C141.395 163.927 154.831 159.484 171.403 159.484Z" fill="#FFC747"/>
<mask id="mask12_2180_13299" style="mask-type:luminance" maskUnits="userSpaceOnUse" x="141" y="159" width="61" height="29">
<path d="M171.399 159.477C187.976 159.477 201.408 163.919 201.408 169.41V177.558C201.408 183.049 187.971 187.492 171.399 187.492C154.827 187.492 141.391 183.049 141.391 177.558V169.41C141.391 163.919 154.827 159.477 171.399 159.477Z" fill="white"/>
</mask>
<g mask="url(#mask12_2180_13299)">
<g style="mix-blend-mode:overlay" opacity="0.3">
<path d="M162.953 168.844H147.477V191.437H162.953V168.844Z" fill="white"/>
<path d="M162.953 168.844H147.477V191.437H162.953V168.844Z" stroke="#44323A" stroke-width="0.431343" stroke-miterlimit="10"/>
</g>
<g style="mix-blend-mode:overlay" opacity="0.2">
<path d="M195.786 169.406H180.883V192H195.786V169.406Z" fill="black"/>
<path d="M195.786 169.406H180.883V192H195.786V169.406Z" stroke="#44323A" stroke-width="0.431343" stroke-miterlimit="10"/>
</g>
<path opacity="0.3" d="M154.27 175.227H150.793V186.929H154.27V175.227Z" fill="white" stroke="#44323A" stroke-width="0.431343" stroke-miterlimit="10"/>
</g>
<path d="M171.403 159.484C187.98 159.484 201.412 163.927 201.412 169.418V177.566C201.412 183.057 187.975 187.5 171.403 187.5C154.831 187.5 141.395 183.057 141.395 177.566V169.418C141.395 163.927 154.831 159.484 171.403 159.484Z" stroke="#44323A" stroke-width="1.29403" stroke-linecap="round" stroke-linejoin="round"/>
<path d="M171.403 179.352C187.976 179.352 201.412 174.904 201.412 169.418C201.412 163.932 187.976 159.484 171.403 159.484C154.83 159.484 141.395 163.932 141.395 169.418C141.395 174.904 154.83 179.352 171.403 179.352Z" fill="#FEE996" stroke="#44323A" stroke-width="1.29403" stroke-linecap="round" stroke-linejoin="round"/>
<path d="M171.403 175.075C184.87 175.075 195.787 172.321 195.787 168.924C195.787 165.527 184.87 162.773 171.403 162.773C157.937 162.773 147.02 165.527 147.02 168.924C147.02 172.321 157.937 175.075 171.403 175.075Z" fill="#FFB839" stroke="#44323A" stroke-width="1.29403" stroke-linecap="round" stroke-linejoin="round"/>
<path d="M171.7 165.422C172.795 165.534 173.714 165.694 174.465 165.909C175.22 166.125 175.802 166.388 176.207 166.699C176.621 167.014 176.872 167.363 176.958 167.751C177.031 168.01 177.057 168.277 177.04 168.549C177.023 168.821 176.992 169.101 176.949 169.377C178.015 169.386 178.946 169.395 179.74 169.403C180.534 169.412 181.232 169.429 181.828 169.451C182.833 169.485 183.622 169.559 184.209 169.671C184.795 169.783 185.127 169.981 185.201 170.27C185.265 170.52 185.102 170.71 184.709 170.84C184.312 170.969 183.566 171.042 182.47 171.06C180.715 171.073 178.886 171.085 176.992 171.094C175.099 171.103 173.184 171.107 171.251 171.107C169.319 171.107 167.412 171.107 165.527 171.094C163.647 171.085 161.826 171.077 160.066 171.06C159.553 171.051 159.195 171.025 158.988 170.973C158.781 170.922 158.669 170.835 158.652 170.71C158.604 170.516 158.587 170.292 158.604 170.037C158.621 169.787 158.652 169.524 158.695 169.257C158.738 168.993 158.794 168.73 158.859 168.48L159.036 167.794C159.139 167.393 159.406 167.035 159.834 166.72C160.256 166.41 160.834 166.151 161.568 165.935C162.292 165.724 163.172 165.56 164.199 165.444C165.221 165.327 166.394 165.267 167.723 165.258C169.271 165.254 170.596 165.306 171.708 165.426L171.7 165.422ZM168.003 169.334C169.349 169.343 170.665 169.343 171.941 169.343C171.989 169.235 172.023 169.106 172.045 168.963C172.066 168.821 172.079 168.679 172.079 168.536C172.079 168.394 172.066 168.26 172.041 168.131C172.019 168.006 171.984 167.894 171.937 167.794C171.799 167.454 171.441 167.195 170.867 167.009C170.298 166.824 169.409 166.729 168.197 166.716C166.873 166.703 165.885 166.794 165.23 166.992C164.57 167.19 164.186 167.462 164.087 167.807C164.005 168.027 163.961 168.273 163.957 168.541C163.949 168.812 163.987 169.063 164.069 169.295C165.342 169.308 166.653 169.321 168.003 169.339V169.334Z" fill="#513925" stroke="#44323A" stroke-width="0.431343" stroke-miterlimit="10"/>
<path d="M177.458 151.258C194.034 151.258 207.466 155.701 207.466 161.192V169.34C207.466 174.831 194.03 179.274 177.458 179.274C160.886 179.274 147.449 174.831 147.449 169.34V161.192C147.449 155.701 160.886 151.258 177.458 151.258Z" fill="#FFC747"/>
<mask id="mask13_2180_13299" style="mask-type:luminance" maskUnits="userSpaceOnUse" x="147" y="151" width="61" height="29">
<path d="M177.458 151.25C194.034 151.25 207.466 155.693 207.466 161.184V169.332C207.466 174.823 194.03 179.266 177.458 179.266C160.886 179.266 147.449 174.823 147.449 169.332V161.184C147.449 155.693 160.886 151.25 177.458 151.25Z" fill="white"/>
</mask>
<g mask="url(#mask13_2180_13299)">
<g style="mix-blend-mode:overlay" opacity="0.3">
<path d="M169.012 160.617H153.535V183.211H169.012V160.617Z" fill="white"/>
<path d="M169.012 160.617H153.535V183.211H169.012V160.617Z" stroke="#44323A" stroke-width="0.431343" stroke-miterlimit="10"/>
</g>
<g style="mix-blend-mode:overlay" opacity="0.2">
<path d="M201.848 161.18H186.945V183.773H201.848V161.18Z" fill="black"/>
<path d="M201.848 161.18H186.945V183.773H201.848V161.18Z" stroke="#44323A" stroke-width="0.431343" stroke-miterlimit="10"/>
</g>
<path opacity="0.3" d="M160.328 167H156.852V178.702H160.328V167Z" fill="white" stroke="#44323A" stroke-width="0.431343" stroke-miterlimit="10"/>
</g>
<path d="M177.458 151.258C194.034 151.258 207.466 155.701 207.466 161.192V169.34C207.466 174.831 194.03 179.274 177.458 179.274C160.886 179.274 147.449 174.831 147.449 169.34V161.192C147.449 155.701 160.886 151.258 177.458 151.258Z" stroke="#44323A" stroke-width="1.29403" stroke-linecap="round" stroke-linejoin="round"/>
<path d="M177.462 171.125C194.035 171.125 207.47 166.678 207.47 161.192C207.47 155.705 194.035 151.258 177.462 151.258C160.888 151.258 147.453 155.705 147.453 161.192C147.453 166.678 160.888 171.125 177.462 171.125Z" fill="#FEE996" stroke="#44323A" stroke-width="1.29403" stroke-linecap="round" stroke-linejoin="round"/>
<path d="M177.458 166.849C190.925 166.849 201.842 164.095 201.842 160.698C201.842 157.301 190.925 154.547 177.458 154.547C163.991 154.547 153.074 157.301 153.074 160.698C153.074 164.095 163.991 166.849 177.458 166.849Z" fill="#FFB839" stroke="#44323A" stroke-width="1.29403" stroke-linecap="round" stroke-linejoin="round"/>
<path d="M177.758 157.195C178.854 157.308 179.773 157.467 180.523 157.683C181.278 157.899 181.86 158.162 182.266 158.472C182.68 158.787 182.93 159.136 183.016 159.525C183.09 159.783 183.116 160.051 183.098 160.323C183.081 160.594 183.051 160.875 183.008 161.151C184.073 161.159 185.005 161.168 185.799 161.177C186.592 161.185 187.291 161.203 187.886 161.224C188.891 161.259 189.681 161.332 190.267 161.444C190.854 161.556 191.186 161.755 191.259 162.044C191.324 162.294 191.16 162.484 190.768 162.613C190.371 162.742 189.625 162.816 188.529 162.833C186.773 162.846 184.945 162.859 183.051 162.868C181.157 162.876 179.242 162.881 177.31 162.881C175.377 162.881 173.471 162.881 171.586 162.868C169.705 162.859 167.885 162.85 166.125 162.833C165.612 162.824 165.254 162.799 165.047 162.747C164.84 162.695 164.727 162.609 164.71 162.484C164.663 162.29 164.646 162.065 164.663 161.811C164.68 161.561 164.71 161.297 164.753 161.03C164.797 160.767 164.853 160.504 164.917 160.254C164.982 160.003 165.038 159.775 165.094 159.568C165.198 159.167 165.465 158.809 165.892 158.494C166.315 158.183 166.893 157.924 167.626 157.709C168.351 157.497 169.231 157.333 170.257 157.217C171.28 157.101 172.453 157.04 173.781 157.031C175.33 157.027 176.654 157.079 177.767 157.2L177.758 157.195ZM174.062 161.112C175.408 161.121 176.723 161.121 178 161.121C178.047 161.013 178.082 160.883 178.103 160.741C178.125 160.599 178.138 160.456 178.138 160.314C178.138 160.172 178.125 160.038 178.099 159.909C178.078 159.783 178.043 159.671 177.996 159.572C177.858 159.231 177.5 158.973 176.926 158.787C176.356 158.602 175.468 158.507 174.256 158.494C172.932 158.481 171.944 158.571 171.288 158.77C170.628 158.968 170.244 159.24 170.145 159.585C170.063 159.805 170.02 160.051 170.016 160.318C170.007 160.59 170.046 160.84 170.128 161.073C171.4 161.086 172.712 161.099 174.062 161.116V161.112Z" fill="#513925" stroke="#44323A" stroke-width="0.431343" stroke-miterlimit="10"/>
<path d="M174.786 143.031C191.362 143.031 204.794 147.474 204.794 152.965V161.113C204.794 166.604 191.358 171.047 174.786 171.047C158.214 171.047 144.777 166.604 144.777 161.113V152.965C144.777 147.474 158.214 143.031 174.786 143.031Z" fill="#FFC747"/>
<mask id="mask14_2180_13299" style="mask-type:luminance" maskUnits="userSpaceOnUse" x="144" y="143" width="61" height="29">
<path d="M174.782 143.031C191.358 143.031 204.79 147.474 204.79 152.965V161.113C204.79 166.604 191.354 171.047 174.782 171.047C158.21 171.047 144.773 166.604 144.773 161.113V152.965C144.773 147.474 158.21 143.031 174.782 143.031Z" fill="white"/>
</mask>
<g mask="url(#mask14_2180_13299)">
<g style="mix-blend-mode:overlay" opacity="0.3">
<path d="M166.336 152.391H150.859V174.984H166.336V152.391Z" fill="white"/>
<path d="M166.336 152.391H150.859V174.984H166.336V152.391Z" stroke="#44323A" stroke-width="0.431343" stroke-miterlimit="10"/>
</g>
<g style="mix-blend-mode:overlay" opacity="0.2">
<path d="M199.165 152.961H184.262V175.555H199.165V152.961Z" fill="black"/>
<path d="M199.165 152.961H184.262V175.555H199.165V152.961Z" stroke="#44323A" stroke-width="0.431343" stroke-miterlimit="10"/>
</g>
<path opacity="0.3" d="M157.652 158.773H154.176V170.476H157.652V158.773Z" fill="white" stroke="#44323A" stroke-width="0.431343" stroke-miterlimit="10"/>
</g>
<path d="M174.786 143.031C191.362 143.031 204.794 147.474 204.794 152.965V161.113C204.794 166.604 191.358 171.047 174.786 171.047C158.214 171.047 144.777 166.604 144.777 161.113V152.965C144.777 147.474 158.214 143.031 174.786 143.031Z" stroke="#44323A" stroke-width="1.29403" stroke-linecap="round" stroke-linejoin="round"/>
<path d="M174.786 162.899C191.359 162.899 204.794 158.451 204.794 152.965C204.794 147.479 191.359 143.031 174.786 143.031C158.213 143.031 144.777 147.479 144.777 152.965C144.777 158.451 158.213 162.899 174.786 162.899Z" fill="#FEE996" stroke="#44323A" stroke-width="1.29403" stroke-linecap="round" stroke-linejoin="round"/>
<path d="M174.786 158.622C188.253 158.622 199.17 155.868 199.17 152.471C199.17 149.074 188.253 146.32 174.786 146.32C161.319 146.32 150.402 149.074 150.402 152.471C150.402 155.868 161.319 158.622 174.786 158.622Z" fill="#FFB839" stroke="#44323A" stroke-width="1.29403" stroke-linecap="round" stroke-linejoin="round"/>
<path d="M175.086 148.961C176.182 149.073 177.101 149.233 177.851 149.448C178.606 149.664 179.189 149.927 179.594 150.238C180.008 150.553 180.258 150.902 180.345 151.29C180.418 151.549 180.444 151.817 180.427 152.088C180.409 152.36 180.379 152.64 180.336 152.916C181.401 152.925 182.333 152.934 183.127 152.942C183.92 152.951 184.619 152.968 185.214 152.99C186.219 153.024 187.009 153.098 187.595 153.21C188.182 153.322 188.514 153.52 188.588 153.809C188.652 154.06 188.488 154.249 188.096 154.379C187.699 154.508 186.953 154.581 185.857 154.599C184.102 154.612 182.273 154.625 180.379 154.633C178.485 154.642 176.57 154.646 174.638 154.646C172.705 154.646 170.799 154.646 168.914 154.633C167.033 154.625 165.213 154.616 163.453 154.599C162.94 154.59 162.582 154.564 162.375 154.512C162.168 154.461 162.056 154.374 162.038 154.249C161.991 154.055 161.974 153.831 161.991 153.576C162.008 153.326 162.038 153.063 162.082 152.796C162.125 152.533 162.181 152.269 162.245 152.019L162.422 151.333C162.526 150.932 162.793 150.574 163.22 150.259C163.643 149.949 164.221 149.69 164.954 149.474C165.679 149.263 166.559 149.099 167.585 148.983C168.608 148.866 169.781 148.806 171.11 148.797C172.658 148.793 173.982 148.845 175.095 148.965L175.086 148.961ZM171.39 152.878C172.736 152.886 174.051 152.886 175.328 152.886C175.375 152.778 175.41 152.649 175.432 152.507C175.453 152.364 175.466 152.222 175.466 152.08C175.466 151.937 175.453 151.804 175.427 151.674C175.406 151.549 175.371 151.437 175.324 151.338C175.186 150.997 174.828 150.738 174.254 150.553C173.685 150.367 172.796 150.272 171.584 150.259C170.26 150.246 169.272 150.337 168.616 150.535C167.956 150.734 167.572 151.006 167.473 151.351C167.391 151.571 167.348 151.817 167.344 152.084C167.335 152.356 167.374 152.606 167.456 152.839C168.728 152.852 170.04 152.865 171.39 152.882V152.878Z" fill="#CC7A02"/>
<g style="mix-blend-mode:color-burn" opacity="0.15">
<path d="M138.18 221C155.892 221 170.25 216.553 170.25 211.067C170.25 205.58 155.892 201.133 138.18 201.133C120.468 201.133 106.109 205.58 106.109 211.067C106.109 216.553 120.468 221 138.18 221Z" fill="black"/>
<path d="M138.18 221C155.892 221 170.25 216.553 170.25 211.067C170.25 205.58 155.892 201.133 138.18 201.133C120.468 201.133 106.109 205.58 106.109 211.067C106.109 216.553 120.468 221 138.18 221Z" stroke="#44323A" stroke-width="0.431343" stroke-miterlimit="10"/>
</g>
<path d="M138.173 189.742C154.749 189.742 168.181 194.185 168.181 199.676V207.824C168.181 213.315 154.745 217.758 138.173 217.758C121.6 217.758 108.164 213.315 108.164 207.824V199.676C108.164 194.185 121.6 189.742 138.173 189.742Z" fill="#FFC747"/>
<mask id="mask15_2180_13299" style="mask-type:luminance" maskUnits="userSpaceOnUse" x="108" y="189" width="61" height="29">
<path d="M138.173 189.742C154.749 189.742 168.181 194.185 168.181 199.676V207.824C168.181 213.315 154.745 217.758 138.173 217.758C121.6 217.758 108.164 213.315 108.164 207.824V199.676C108.164 194.185 121.6 189.742 138.173 189.742Z" fill="white"/>
</mask>
<g mask="url(#mask15_2180_13299)">
<g style="mix-blend-mode:overlay" opacity="0.3">
<path d="M129.73 199.117H114.254V221.711H129.73V199.117Z" fill="white"/>
<path d="M129.73 199.117H114.254V221.711H129.73V199.117Z" stroke="#44323A" stroke-width="0.431343" stroke-miterlimit="10"/>
</g>
<g style="mix-blend-mode:overlay" opacity="0.2">
<path d="M162.559 199.68H147.656V222.273H162.559V199.68Z" fill="black"/>
<path d="M162.559 199.68H147.656V222.273H162.559V199.68Z" stroke="#44323A" stroke-width="0.431343" stroke-miterlimit="10"/>
</g>
<path opacity="0.3" d="M121.047 205.5H117.57V217.202H121.047V205.5Z" fill="white" stroke="#44323A" stroke-width="0.431343" stroke-miterlimit="10"/>
</g>
<path d="M138.173 189.742C154.749 189.742 168.181 194.185 168.181 199.676V207.824C168.181 213.315 154.745 217.758 138.173 217.758C121.6 217.758 108.164 213.315 108.164 207.824V199.676C108.164 194.185 121.6 189.742 138.173 189.742Z" stroke="#44323A" stroke-width="1.29403" stroke-linecap="round" stroke-linejoin="round"/>
<path d="M138.18 209.61C154.754 209.61 168.189 205.162 168.189 199.676C168.189 194.19 154.754 189.742 138.18 189.742C121.607 189.742 108.172 194.19 108.172 199.676C108.172 205.162 121.607 209.61 138.18 209.61Z" fill="#FEE996" stroke="#44323A" stroke-width="1.29403" stroke-linecap="round" stroke-linejoin="round"/>
<path d="M138.181 205.333C151.647 205.333 162.564 202.579 162.564 199.182C162.564 195.785 151.647 193.031 138.181 193.031C124.714 193.031 113.797 195.785 113.797 199.182C113.797 202.579 124.714 205.333 138.181 205.333Z" fill="#FFB839" stroke="#44323A" stroke-width="1.29403" stroke-linecap="round" stroke-linejoin="round"/>
<path d="M136.48 202.435C135.384 202.323 134.465 202.163 133.715 201.948C132.96 201.732 132.378 201.469 131.972 201.158C131.558 200.843 131.308 200.494 131.222 200.106C131.148 199.847 131.122 199.58 131.14 199.308C131.157 199.036 131.187 198.756 131.23 198.48C130.165 198.471 129.233 198.462 128.439 198.454C127.646 198.445 126.947 198.428 126.352 198.406C125.347 198.372 124.557 198.299 123.971 198.186C123.384 198.074 123.052 197.876 122.979 197.587C122.914 197.337 123.078 197.147 123.47 197.017C123.867 196.888 124.613 196.815 125.709 196.797C127.465 196.785 129.293 196.772 131.187 196.763C133.081 196.754 134.996 196.75 136.928 196.75C138.861 196.75 140.767 196.75 142.652 196.763C144.533 196.772 146.353 196.78 148.113 196.797C148.626 196.806 148.984 196.832 149.191 196.884C149.398 196.935 149.51 197.022 149.528 197.147C149.575 197.341 149.592 197.565 149.575 197.82C149.558 198.07 149.528 198.333 149.485 198.6C149.441 198.864 149.385 199.127 149.321 199.377L149.144 200.063C149.04 200.464 148.773 200.822 148.346 201.137C147.923 201.447 147.345 201.706 146.612 201.922C145.887 202.133 145.007 202.297 143.981 202.414C142.958 202.53 141.785 202.59 140.457 202.599C138.908 202.603 137.584 202.552 136.471 202.431L136.48 202.435ZM140.176 198.519C138.83 198.51 137.515 198.51 136.238 198.51C136.191 198.618 136.156 198.747 136.135 198.889C136.113 199.032 136.1 199.174 136.1 199.316C136.1 199.459 136.113 199.593 136.139 199.722C136.16 199.847 136.195 199.959 136.242 200.058C136.38 200.399 136.738 200.658 137.312 200.843C137.881 201.029 138.77 201.124 139.982 201.137C141.306 201.15 142.294 201.059 142.95 200.861C143.61 200.662 143.994 200.391 144.093 200.045C144.175 199.825 144.218 199.58 144.222 199.312C144.231 199.04 144.192 198.79 144.11 198.557C142.838 198.544 141.526 198.531 140.176 198.514V198.519Z" fill="#CC7A02"/>
<g style="mix-blend-mode:color-burn" opacity="0.15">
<path d="M175.62 91.8189C172.924 131.886 144.011 142.148 119.304 158.125C119.304 158.125 112.501 166.523 106.868 167.929C106.868 167.929 105.298 168.546 103.59 165.553C104.021 165.725 106.023 166.89 106.023 166.89C109.685 164.824 116.53 155.347 116.53 155.347C141.237 139.37 170.15 129.104 172.846 89.0411C173.109 85.0857 172.708 80.8801 172.143 77.5199C171.833 75.6738 171.164 74.0131 170.232 72.6328C172.613 74.19 174.352 76.9333 174.921 80.3021C175.486 83.6622 175.891 87.8678 175.624 91.8189H175.62Z" fill="black"/>
</g>
<path d="M156.708 72.6336C162.967 69.8989 171.809 71.3439 172.944 78.0771C173.509 81.4373 173.914 85.6429 173.647 89.5983C170.951 129.661 142.038 139.927 117.331 155.904C117.331 155.904 111.477 165.256 105.313 166.727C105.313 166.727 102.971 166.131 102.777 163.405C102.777 163.405 99.1236 166.606 95.0949 167.05C93.5636 167.218 92.3774 165.73 92.8907 164.277C93.542 162.422 94.2322 159.791 93.982 157.414C93.982 157.414 91.5018 158.682 88.4004 157.237C85.2991 155.792 93.253 146.829 96.2811 145.543C96.2811 145.543 110.709 92.7342 156.708 72.6336Z" fill="#FFDCDC" stroke="#44323A" stroke-width="1.29403" stroke-linecap="round" stroke-linejoin="round"/>
<path d="M93.1133 153.508L93.9803 157.416" stroke="#44323A" stroke-width="1.29403" stroke-linecap="round" stroke-linejoin="round"/>
<g style="mix-blend-mode:color-burn" opacity="0.15">
<path d="M103.108 163.682C104.372 166.714 105.312 166.727 105.312 166.727C112.011 164.95 117.821 155.585 117.821 155.585C169.064 127.587 169.776 110.389 173.318 92.1262C174.072 88.2355 173.261 83.7453 173.145 81.1184C173.067 79.4275 172.64 77.8402 171.937 76.4297C172.041 76.9732 172.101 77.5296 172.127 78.099C172.244 80.7259 172.019 83.9264 171.264 87.8171C167.723 106.084 159.135 128.186 114.331 152.066C114.331 152.066 110.393 161.249 106.895 164.178C106.438 164.562 105.756 164.475 105.385 164.009C105.014 163.544 104.527 162.797 103.906 161.568C103.591 160.947 102.784 160.779 102.245 161.223C100.434 162.72 96.5989 165.554 93.1094 165.886C93.1094 165.886 93.7262 167.249 95.4559 167.076C95.4559 167.076 98.6478 166.917 103.108 163.695V163.682Z" fill="black"/>
</g>
<path d="M134.357 109.609L141.659 115.338L127.848 115.532L135.344 121.411" stroke="#44323A" stroke-width="1.29403" stroke-linecap="round" stroke-linejoin="round"/>
</svg>