<svg width="380" height="360" viewBox="0 0 380 360" fill="none" xmlns="http://www.w3.org/2000/svg">
<g clip-path="url(#clip0_2315_56388)">
<g style="mix-blend-mode:multiply" opacity="0.15">
<path d="M194.164 359.989C251.87 359.989 298.65 352.812 298.65 343.957C298.65 335.103 251.87 327.925 194.164 327.925C136.458 327.925 89.6777 335.103 89.6777 343.957C89.6777 352.812 136.458 359.989 194.164 359.989Z" fill="black"/>
</g>
<path d="M95.3504 220.525C95.3504 220.525 72.0931 198.425 61.3528 187.552C61.3528 187.552 59.4853 184.533 51.1475 178.95C42.8197 173.367 48.1898 170.086 54.5997 174.72C54.5997 174.72 47.6044 167.118 50.8547 164.816C53.8325 162.696 62.0796 172.731 62.0796 172.731C62.0796 172.731 56.2047 163.564 59.2229 160.485C62.2411 157.406 69.9027 170.914 69.9027 170.914C69.9027 170.914 71.8408 164.271 75.2526 165.714C78.6645 167.158 78.9774 174.69 78.8866 177.456L104.98 194.932" fill="#FF9680"/>
<path d="M95.3504 220.525C95.3504 220.525 72.0931 198.425 61.3528 187.552C61.3528 187.552 59.4853 184.533 51.1475 178.95C42.8197 173.367 48.1898 170.086 54.5997 174.72C54.5997 174.72 47.6044 167.118 50.8547 164.816C53.8325 162.696 62.0796 172.731 62.0796 172.731C62.0796 172.731 56.2047 163.564 59.2229 160.485C62.2411 157.406 69.9027 170.914 69.9027 170.914C69.9027 170.914 71.8408 164.271 75.2526 165.714C78.6645 167.158 78.9774 174.69 78.8866 177.456L104.98 194.932" stroke="#4C2318" stroke-width="3" stroke-linecap="round" stroke-linejoin="round"/>
<path d="M229.201 85.7137C229.201 85.7137 164.295 59.9691 143.511 126.996C143.511 126.996 133.841 124.149 149.043 102.453C149.043 102.453 89.6477 149.611 87.3058 220.535C84.9639 291.458 149.8 320.393 201.644 317.304C252.701 314.255 294.491 283.382 300.255 237.677C306.009 192.054 280.844 127.531 239.538 99.4744C239.538 99.4744 257.153 124.603 243.132 137.465C243.132 137.465 251.54 120.514 228.545 103.371C228.545 103.371 211.789 92.4577 192.307 99.4744C192.307 99.4744 201.816 89.9742 229.191 85.7137H229.201Z" fill="#FF9680" stroke="#4C2318" stroke-width="3" stroke-linecap="round" stroke-linejoin="round"/>
<path d="M246.724 135.032C246.724 135.032 248.49 131.145 248.521 123.372C248.066 111.64 239.547 99.4746 239.547 99.4746C242.202 101.272 244.786 103.23 247.299 105.32C251.579 112.892 257.343 125.3 246.724 135.032Z" fill="white"/>
<path d="M229.049 85.7141C228.888 85.7444 228.716 85.7646 228.554 85.7949C212.434 81.4132 167.423 74.437 149.698 125.926C148.9 128.238 145.912 129.126 144.176 127.41C143.883 127.117 143.651 126.774 143.51 126.36C142.904 124.462 145.448 120.969 147.437 116.214C147.447 116.194 147.457 116.173 147.457 116.153C148.143 114.619 148.86 113.155 149.607 111.751C149.627 111.711 149.657 111.661 149.688 111.61C150.869 109.48 152.363 107.087 154.24 104.402C154.21 104.432 154.099 104.513 153.907 104.674C180.455 66.441 229.049 85.7141 229.049 85.7141Z" fill="white"/>
<path d="M149.032 102.463C144.318 109.197 141.996 114.124 141.047 117.698C126.602 131.438 94.3709 166.945 87.5674 215.527C92.3925 147.945 148.143 103.17 149.032 102.463Z" fill="white"/>
<path d="M229.201 85.7137C229.201 85.7137 164.295 59.9691 143.511 126.996C143.511 126.996 133.841 124.149 149.043 102.453C149.043 102.453 89.6477 149.611 87.3058 220.534C84.9639 291.458 149.8 320.393 201.644 317.304C252.701 314.255 294.491 283.382 300.255 237.677C306.009 192.054 280.844 127.531 239.538 99.4744C239.538 99.4744 257.153 124.603 243.132 137.465C243.132 137.465 251.54 120.514 228.545 103.371C228.545 103.371 211.789 92.4577 192.307 99.4744C192.307 99.4744 201.816 89.9742 229.191 85.7137H229.201Z" stroke="#4C2318" stroke-width="3" stroke-linecap="round" stroke-linejoin="round"/>
<path d="M121.666 265.653C108.463 253.942 91.6964 231.771 96.3903 196.95C97.3997 189.449 99.6508 182.17 103.123 175.436C112.814 156.627 138.867 121.877 196.172 131.791C268.851 144.371 263.3 212.316 260.736 226.208C260.483 227.581 260.281 228.954 260.079 230.338C256.728 253.427 215.917 299.717 146.882 279.515C137.565 276.789 128.924 272.094 121.656 265.653H121.666Z" fill="#FFEAA9"/>
<path d="M254.992 174.296C246.341 156.769 229.524 140.676 197.737 135.174C120.203 121.757 99.8728 190.106 99.8728 190.106C95.4212 208.602 97.541 223.735 102.77 235.881C96.4407 223.19 93.4326 206.976 98.3082 186.734C98.3082 186.734 118.638 118.384 196.172 131.802C229.988 137.658 246.866 155.497 254.992 174.296Z" fill="white"/>
<path d="M192.316 99.4648C192.316 99.4648 176.226 109.308 186.795 119.132C193.184 125.078 204.833 119.091 202.996 112.812C202.996 112.812 201.371 107.138 195.768 110.52" fill="#FF9680"/>
<path d="M192.316 99.4648C192.316 99.4648 176.226 109.308 186.795 119.132C193.184 125.078 204.833 119.091 202.996 112.812C202.996 112.812 201.371 107.138 195.768 110.52" stroke="#4C2318" stroke-width="3" stroke-linecap="round" stroke-linejoin="round"/>
<path d="M295.016 215.658C295.016 215.658 320.242 198.424 334.757 185.098C334.757 185.098 354.714 179.919 357.692 173.407C360.135 168.066 345.538 173.215 345.538 173.215C345.538 173.215 356.612 167.167 355.42 162.433C354.229 157.698 340.541 166.027 340.541 166.027C340.541 166.027 351.12 159.545 347.951 154.225C344.791 148.904 332.577 160.009 332.577 160.009C332.577 160.009 334.182 149.903 329.024 151.66C323.23 153.639 324.411 164.916 324.411 164.916C324.411 164.916 307.604 180.545 284.952 194.053" fill="#FF9680"/>
<path d="M295.016 215.658C295.016 215.658 320.242 198.424 334.757 185.098C334.757 185.098 354.714 179.919 357.692 173.407C360.135 168.066 345.538 173.215 345.538 173.215C345.538 173.215 356.612 167.167 355.42 162.433C354.229 157.698 340.541 166.027 340.541 166.027C340.541 166.027 351.12 159.545 347.951 154.225C344.791 148.904 332.577 160.009 332.577 160.009C332.577 160.009 334.182 149.903 329.024 151.66C323.23 153.639 324.411 164.916 324.411 164.916C324.411 164.916 307.604 180.545 284.952 194.053" stroke="#4C2318" stroke-width="3" stroke-linecap="round" stroke-linejoin="round"/>
<path d="M129.153 188.75C129.253 185.819 123.228 183.234 115.695 182.976C108.162 182.718 101.974 184.886 101.874 187.817C101.774 190.748 107.799 193.333 115.332 193.591C122.865 193.849 129.053 191.681 129.153 188.75Z" fill="#FF7471" stroke="#4C2318" stroke-width="3" stroke-linecap="round" stroke-linejoin="round"/>
<path d="M149.79 168.584C149.93 164.482 146.722 161.044 142.624 160.903C138.526 160.763 135.09 163.974 134.95 168.076L134.621 177.681C134.481 181.783 137.689 185.221 141.787 185.362C145.885 185.502 149.321 182.291 149.461 178.189L149.79 168.584Z" fill="#4C2318"/>
<path d="M138.948 169.984C139.935 169.984 140.735 169.184 140.735 168.197C140.735 167.21 139.935 166.41 138.948 166.41C137.961 166.41 137.161 167.21 137.161 168.197C137.161 169.184 137.961 169.984 138.948 169.984Z" fill="white"/>
<path d="M229.062 188.748C229.162 185.817 223.137 183.232 215.604 182.974C208.071 182.716 201.883 184.884 201.783 187.815C201.683 190.746 207.708 193.331 215.241 193.589C222.774 193.847 228.962 191.68 229.062 188.748Z" fill="#FF7471" stroke="#4C2318" stroke-width="3" stroke-linecap="round" stroke-linejoin="round"/>
<path d="M197.721 168.587C197.861 164.486 194.653 161.047 190.555 160.907C186.457 160.767 183.021 163.978 182.881 168.08L182.552 177.685C182.412 181.787 185.62 185.225 189.718 185.365C193.816 185.506 197.252 182.295 197.392 178.193L197.721 168.587Z" fill="#4C2318"/>
<path d="M186.876 169.984C187.863 169.984 188.663 169.184 188.663 168.197C188.663 167.21 187.863 166.41 186.876 166.41C185.889 166.41 185.089 167.21 185.089 168.197C185.089 169.184 185.889 169.984 186.876 169.984Z" fill="white"/>
<path d="M243.132 137.456C243.132 137.456 240.962 140.152 237.448 141.797L243.132 137.456Z" fill="#FF9680"/>
<path d="M243.132 137.456C243.132 137.456 240.962 140.152 237.448 141.797" stroke="#4C2318" stroke-width="3" stroke-linecap="round" stroke-linejoin="round"/>
<path d="M231.735 296.799C231.735 296.799 209.457 296.799 209.457 329.015C209.457 349.51 219.642 350.307 235.208 350.408C257.193 350.54 262.25 344.603 261.988 332.508C261.715 320.413 259.474 293.831 231.735 296.809V296.799Z" fill="#FF7761" stroke="#4C2318" stroke-width="3" stroke-linecap="round" stroke-linejoin="round"/>
<g style="mix-blend-mode:color-burn" opacity="0.15">
<path d="M235.217 350.408C227.637 350.358 221.317 350.146 216.846 347.551C220.187 348.076 224.043 348.157 228.283 348.177C250.268 348.308 255.335 342.372 255.063 330.267C254.861 321.079 253.518 303.563 240.749 296.95C259.999 300.06 261.755 321.867 261.987 332.498C262.26 344.593 257.203 350.539 235.217 350.408Z" fill="black"/>
</g>
<path d="M223.246 306.592C223.246 306.592 228.465 303.796 228.061 307.531C227.657 311.267 223.842 313.72 222.035 310.822C220.228 307.925 223.236 306.592 223.236 306.592H223.246Z" fill="white"/>
<path d="M163.023 313.811C162.216 326.199 162.811 340.363 151.334 342.251C136.788 346.885 115.136 348.844 107.747 346.249C101.155 344.775 95.9465 340.757 93.6854 333.044C89.3449 318.223 95.2803 303.019 106.283 296.345C111.704 293.952 116.902 293.71 121.626 294.831C127.834 296.295 133.255 300.101 137.374 304.523C140.099 307.441 142.249 310.621 143.682 313.569C144.621 313.841 145.853 310.964 147.014 308.804C152.222 310.833 157.592 312.509 163.023 313.811Z" fill="#FF7761" stroke="#4C2318" stroke-width="3" stroke-linecap="round" stroke-linejoin="round"/>
<g style="mix-blend-mode:color-burn" opacity="0.15">
<path d="M163.629 314.507C162.135 327.672 164.184 340.131 151.344 342.251C136.788 346.885 115.136 348.844 107.757 346.249C106.515 345.966 99.7422 341.968 98.6016 341.504C98.6016 341.504 111.664 346.037 125.473 333.922C140.18 321.019 132.771 300.312 132.771 300.312C137.707 304.119 141.523 309.116 143.693 313.568L147.024 308.803L163.639 314.517L163.629 314.507Z" fill="black"/>
</g>
<path d="M107.413 306.946C107.413 306.946 102.578 310.803 102.205 307.199C101.831 303.604 105.273 300.404 107.767 302.696C110.26 304.988 107.413 306.946 107.413 306.946Z" fill="white"/>
<path d="M164.203 214.548C162.881 214.528 161.559 214.478 160.247 214.397C152.757 213.953 148.961 208.067 148.719 204.493C148.456 200.515 152.575 198.849 160.933 199.031C162.164 199.061 163.396 199.102 164.638 199.162C172.299 199.526 176.206 200.788 176.438 204.412C176.69 208.37 172.572 214.69 164.214 214.548H164.203Z" fill="#FF7471" stroke="#4C2318" stroke-width="3" stroke-linecap="round" stroke-linejoin="round"/>
<path d="M26.911 98.1123C26.911 98.1123 54.4785 113.832 80.4209 112.499L67.5203 180.757C67.5203 180.757 26.275 182.857 7.66113 162.726L26.911 98.1123Z" fill="white" stroke="#4C2318" stroke-width="3" stroke-linecap="round" stroke-linejoin="round"/>
<path d="M31.7053 118.35C31.9521 118.449 32.0533 118.612 32.0089 118.841C31.9005 119.308 31.7677 119.853 31.6103 120.473C31.4551 121.086 31.2887 121.724 31.1112 122.389C30.9436 123.048 30.7702 123.697 30.5912 124.337C30.4143 124.969 30.2539 125.539 30.1099 126.047C30.0114 126.385 29.865 126.623 29.6707 126.762C29.4764 126.9 29.1994 126.93 28.8397 126.85C28.6521 126.808 28.5105 126.75 28.4146 126.674C28.3167 126.607 28.2493 126.519 28.2122 126.409C28.1828 126.302 28.1751 126.176 28.1891 126.03C28.2031 125.885 28.2299 125.723 28.2696 125.543C28.4559 124.69 28.6533 123.811 28.8617 122.906C29.08 121.996 29.292 121.108 29.4979 120.244C29.3948 120.258 29.2606 120.28 29.0951 120.311C28.9318 120.333 28.7548 120.36 28.5641 120.392C28.3811 120.426 28.1954 120.455 28.0067 120.479C27.8279 120.498 27.6736 120.502 27.5437 120.492C27.3886 120.484 27.2691 120.436 27.1851 120.347C27.1032 120.251 27.0406 120.097 26.9974 119.887C26.9542 119.677 26.9529 119.511 26.9937 119.389C27.0442 119.262 27.1213 119.175 27.2249 119.128C27.3929 119.057 27.5921 118.978 27.8225 118.89C28.0528 118.803 28.2909 118.717 28.5368 118.634C28.7847 118.543 29.0238 118.453 29.2542 118.366C29.4923 118.28 29.6982 118.207 29.8718 118.146C30.028 118.088 30.1653 118.054 30.2839 118.045C30.4024 118.035 30.5255 118.039 30.6533 118.056C30.812 118.082 30.9908 118.126 31.1897 118.187C31.3907 118.241 31.5625 118.295 31.7053 118.35ZM37.052 127.801C36.6226 128.076 36.158 128.25 35.6581 128.323C35.1562 128.404 34.6404 128.383 34.1107 128.258C33.5887 128.135 33.1283 127.921 32.7296 127.616C32.3308 127.31 32.0137 126.932 31.7784 126.48C31.5507 126.03 31.4104 125.516 31.3575 124.939C31.3144 124.356 31.3847 123.721 31.5683 123.033C31.7334 122.415 31.9662 121.868 32.2668 121.394C32.5694 120.911 32.9269 120.518 33.3393 120.214C33.7516 119.91 34.2167 119.703 34.7347 119.593C35.2526 119.483 35.8143 119.488 36.4197 119.609C37.0097 119.725 37.5069 119.94 37.9114 120.255C38.3158 120.57 38.6239 120.967 38.8355 121.446C39.0492 121.917 39.163 122.453 39.1767 123.053C39.1982 123.655 39.116 124.303 38.9303 124.999C38.757 125.648 38.5085 126.207 38.1847 126.675C37.8609 127.144 37.4834 127.519 37.052 127.801ZM35.2266 126.544C35.4817 126.488 35.7231 126.374 35.9509 126.203C36.1886 126.026 36.4048 125.79 36.5997 125.494C36.7945 125.199 36.9498 124.834 37.0653 124.402C37.1871 123.945 37.2343 123.536 37.2071 123.173C37.1897 122.804 37.121 122.487 37.001 122.223C36.8831 121.952 36.7283 121.74 36.5366 121.59C36.3548 121.434 36.1652 121.338 35.9678 121.301C35.7318 121.255 35.4891 121.265 35.2397 121.331C34.998 121.398 34.7622 121.522 34.5323 121.701C34.3101 121.881 34.1045 122.124 33.9153 122.43C33.7281 122.728 33.5778 123.089 33.4643 123.514C33.3446 123.963 33.2945 124.367 33.314 124.729C33.3355 125.082 33.3986 125.389 33.5031 125.649C33.6174 125.903 33.7617 126.107 33.9358 126.261C34.1197 126.41 34.3132 126.507 34.5162 126.553C34.7424 126.605 34.9792 126.602 35.2266 126.544ZM44.8754 129.891C44.4461 130.165 43.9815 130.339 43.4816 130.413C42.9797 130.494 42.4639 130.472 41.9342 130.347C41.4122 130.224 40.9518 130.01 40.553 129.705C40.1543 129.4 39.8372 129.021 39.6018 128.569C39.3742 128.119 39.2339 127.606 39.181 127.028C39.1379 126.445 39.2082 125.81 39.3918 125.122C39.5569 124.504 39.7897 123.957 40.0903 123.483C40.3929 123.001 40.7504 122.608 41.1627 122.304C41.5751 122 42.0402 121.793 42.5581 121.683C43.0761 121.573 43.6377 121.578 44.2432 121.698C44.8332 121.814 45.3304 122.03 45.7349 122.345C46.1393 122.66 46.4473 123.057 46.659 123.536C46.8727 124.007 46.9864 124.542 47.0002 125.142C47.0216 125.744 46.9395 126.393 46.7538 127.088C46.5805 127.738 46.3319 128.296 46.0082 128.765C45.6844 129.233 45.3068 129.608 44.8754 129.891ZM43.05 128.633C43.3051 128.577 43.5466 128.463 43.7744 128.292C44.012 128.116 44.2283 127.879 44.4232 127.584C44.618 127.288 44.7732 126.924 44.8888 126.491C45.0105 126.035 45.0578 125.625 45.0306 125.262C45.0132 124.893 44.9445 124.576 44.8245 124.312C44.7066 124.041 44.5518 123.83 44.3601 123.679C44.1783 123.523 43.9887 123.427 43.7913 123.391C43.5553 123.344 43.3126 123.354 43.0632 123.42C42.8215 123.488 42.5857 123.611 42.3558 123.79C42.1336 123.971 41.9279 124.214 41.7387 124.519C41.5516 124.817 41.4013 125.179 41.2878 125.604C41.1681 126.052 41.118 126.457 41.1375 126.818C41.159 127.172 41.222 127.478 41.3266 127.738C41.4409 127.992 41.5851 128.196 41.7593 128.35C41.9432 128.499 42.1367 128.596 42.3397 128.642C42.5659 128.694 42.8027 128.691 43.05 128.633Z" fill="#FF7761"/>
<path d="M28.9902 134.791C28.9902 134.791 47.9675 142.827 66.218 141.606" stroke="#FF7761" stroke-width="3" stroke-linecap="round" stroke-linejoin="round"/>
<path d="M23.0352 138.829C23.0352 138.829 37.9444 146.936 60.0106 146.916" stroke="#FF7761" stroke-width="3" stroke-linecap="round" stroke-linejoin="round"/>
<path d="M321.806 74.4369C321.806 74.4369 326.308 83.8462 335.312 83.7756L326.308 95.5272C326.308 95.5272 314.872 90.8427 312.429 83.3314L321.806 74.4268V74.4369Z" fill="#FFC248" stroke="#513925" stroke-width="3" stroke-linecap="round" stroke-linejoin="round"/>
<path d="M71.8414 45.4009C71.8414 45.4009 71.0641 54.3156 63.8164 56.9809L74.587 63.6947C74.587 63.6947 82.3596 56.4761 82.0467 49.7118L71.8313 45.4009H71.8414Z" fill="#FFC248" stroke="#513925" stroke-width="3" stroke-linecap="round" stroke-linejoin="round"/>
<path d="M100.014 16.9608C100.014 16.9608 106.938 13.0537 110.179 7.21826L118.506 16.7993C118.506 16.7993 112.601 25.613 105.878 26.3702L100.014 16.9608Z" fill="#FF9680" stroke="#4C2318" stroke-width="3" stroke-linecap="round" stroke-linejoin="round"/>
<path d="M4.49198 44.8965C4.49198 44.8965 8.84262 47.2286 12.9813 46.9863L10.7303 54.5482C10.7303 54.5482 4.14877 54.3866 1.51416 51.1055L4.49198 44.8965Z" fill="#E680FF" stroke="#513925" stroke-width="3" stroke-linecap="round" stroke-linejoin="round"/>
<path d="M369.996 39.1719C369.996 39.1719 374.347 41.504 378.486 41.2617L376.235 48.8236C376.235 48.8236 369.653 48.662 367.019 45.3809L369.996 39.1719Z" fill="#BDFF97" stroke="#513925" stroke-width="3" stroke-linecap="round" stroke-linejoin="round"/>
<path d="M244.726 1.51416C244.726 1.51416 240.719 6.32991 235.732 8.00583L241.971 15.8201C241.971 15.8201 249.632 12.4985 251.177 7.40008L244.726 1.51416Z" fill="#83FFDC" stroke="#513925" stroke-width="3" stroke-linecap="round" stroke-linejoin="round"/>
</g>
<defs>
<clipPath id="clip0_2315_56388">
<rect width="380" height="360" fill="white"/>
</clipPath>
</defs>
</svg>
