
<svg width="24" height="24" viewBox="0 0 24 24" fill="none" xmlns="http://www.w3.org/2000/svg">
<rect width="5.65682" height="28.2841" rx="2.66667" transform="matrix(0.70711 -0.707103 0.70711 0.707103 0 4.00032)" fill="#EA4256"/>
<path d="M14 18L18 14L22.1144 18.1144C23.1558 19.1558 23.1558 20.8442 22.1144 21.8856L21.8856 22.1143C20.8442 23.1557 19.1558 23.1557 18.1144 22.1143L14 18Z" fill="#FFC747"/>
<rect width="5.65682" height="28.2841" rx="2.66667" transform="matrix(0.70711 0.707103 -0.70711 0.707103 20 0)" fill="#FF5065"/>
<path d="M6 13.9997L10 17.9996L5.88563 22.114C4.84423 23.1554 3.15578 23.1554 2.11437 22.114L1.88563 21.8852C0.844231 20.8438 0.84423 19.1554 1.88563 18.114L6 13.9997Z" fill="#FFC747"/>
<rect opacity="0.5" width="1.41421" height="8.48523" rx="0.707103" transform="matrix(0.70711 0.707103 -0.70711 0.707103 18 4)" fill="white"/>
</svg>
