                <svg width="104" height="76" viewBox="0 0 104 76" fill="none" xmlns="http://www.w3.org/2000/svg">
                    <style>
                        .cls-1 {

                            stroke: #FF5065;
                            stroke-width: 12px;
                            stroke-dasharray: 270;
                            stroke-dashoffset: 270;
                            transition: all 0.3s ease;
                            animation: animate 0.5s linear forwards;
                        }
                        @keyframes animate {
                            0% {
                                stroke-dashoffset: 270;
                            }
                            100% {
                                stroke-dashoffset: 0;
                            }
                        }
                    </style>

                    <defs>
                        <clipPath id="myClipPath">
                            <path  xmlns="http://www.w3.org/2000/svg" class="cls-3" d="M42.55,75.62l-1.66-1-1.57.83-.12-1.2-.32-.09a2.84,2.84,0,0,1-1,.08l-.17,0a3.55,3.55,0,0,1-2.66.14,3,3,0,0,1-1.3-.2,4.25,4.25,0,0,1-1.84.08h-.09a6.24,6.24,0,0,1-2.27,0,2.54,2.54,0,0,1-.86-.1,4.11,4.11,0,0,1-.84-.13,2.91,2.91,0,0,1-1.22-.16,5.45,5.45,0,0,1-2.15-.16,3.55,3.55,0,0,1-.68-.07,3.12,3.12,0,0,1-1.68.08,5.3,5.3,0,0,1-1.9-.32,2.75,2.75,0,0,1-1.73-4.9l-.05-1.38,1.7.6a3.12,3.12,0,0,1,1.87.29l.31,0a3.27,3.27,0,0,1,1.53-.21,3.71,3.71,0,0,1,1.74.1A4.15,4.15,0,0,1,27,68h.06A5.15,5.15,0,0,1,29,68a4.55,4.55,0,0,1,3,.23A18.5,18.5,0,0,1,36.11,68a3,3,0,0,1,2-.17,7,7,0,0,1,2.05,0,2.63,2.63,0,0,1,1.36.22,3.89,3.89,0,0,1,2.2-.34h.4l.22,0a7.89,7.89,0,0,0,.85,0,11.16,11.16,0,0,1,1.62,0l.33,0A3.4,3.4,0,0,1,49,67.37a6.19,6.19,0,0,1,3.18-.32,16.51,16.51,0,0,0,1.67-.34,15.38,15.38,0,0,1,3.25-.51l1.95-.49c1.88-.49,3.82-1,5.65-1.3l.65-.1c.65-.25,1.32-.53,2-.82,1.11-.47,2.25-1,3.38-1.35a3.57,3.57,0,0,1,1.66-.46l.82-.37a3.55,3.55,0,0,1,1.33-.7,2.72,2.72,0,0,1,1-.36l.22-.17a4.18,4.18,0,0,1,2-1,7.11,7.11,0,0,1,.94-.68,8.08,8.08,0,0,1,1.93-1.31,4.41,4.41,0,0,1,2.16-1.62,3.75,3.75,0,0,1,.82-.34,8.33,8.33,0,0,0,.76-.79,9,9,0,0,1,1.88-1.72l0-.09a3.53,3.53,0,0,1,1-1.17,4.75,4.75,0,0,1,.8-.95,2.84,2.84,0,0,1,1-.83,5.16,5.16,0,0,1,1.09-1.55l.18-.17a11.8,11.8,0,0,0,1.18-1.6,11.76,11.76,0,0,1,1.89-2.37,6.29,6.29,0,0,0,.46-1.1,6.87,6.87,0,0,1,1.38-2.58l.07-.21a34.92,34.92,0,0,0,1.5-5.16A11.75,11.75,0,0,1,97,32a6.3,6.3,0,0,1,0-1.09,3.83,3.83,0,0,1-.42-1.95v-.19l0-.07-.06-.24a5.67,5.67,0,0,0-.45-1A9.11,9.11,0,0,1,95.39,26a4.69,4.69,0,0,1-.7-1.33,7.74,7.74,0,0,1-1.25-1.94,18.92,18.92,0,0,0-3-2.89c-.76-.64-1.54-1.3-2.26-2A40,40,0,0,1,83.31,15a24.3,24.3,0,0,0-5-2.62,2.93,2.93,0,0,1-1.8-.46A109.52,109.52,0,0,0,65.67,8.73a20.87,20.87,0,0,1-4.51-.64,17.79,17.79,0,0,0-3.47-.53l-.22,0a11.63,11.63,0,0,0-1.95,0,9.32,9.32,0,0,1-2.9-.2,9.32,9.32,0,0,1-2.84,0,5.41,5.41,0,0,0-1.7,0A34,34,0,0,1,40.66,8l-.42.05c-.61.11-1.23.24-1.84.38a26.91,26.91,0,0,1-3.95.66l-1.24.27a3.56,3.56,0,0,1-1.74.52,2.58,2.58,0,0,1-.57.13A6.74,6.74,0,0,1,29,10.5a4.19,4.19,0,0,1-1.77.69,3,3,0,0,1-1.2.55,7.91,7.91,0,0,1-2.67,1l-.47.12c-.85.57-1.68,1.08-2.48,1.57a31.68,31.68,0,0,0-4.89,3.43l0,.09a4.31,4.31,0,0,1-1.73,1.91,11.27,11.27,0,0,0-1.41,2.08,16.14,16.14,0,0,1-1.15,1.8l-.37.68c-.83,1.47-2,3.49-2.83,5.39a7.57,7.57,0,0,0-.29,1.61,10.73,10.73,0,0,1-.41,2.11,4.19,4.19,0,0,1-.11,1.15,4.13,4.13,0,0,1,0,1.37,4.08,4.08,0,0,1,0,2.42,4.85,4.85,0,0,1,.54,1.69s0,.09,0,.13l0,.05.06.25.07.16a5.59,5.59,0,0,1,.44,1.89,4.1,4.1,0,0,1,.34,1.23c.13.25.29.53.46.79a11.4,11.4,0,0,1,.6,1.08l.05,0a4.79,4.79,0,0,1,1.07,1.32A3.41,3.41,0,0,1,12,48.89a2.63,2.63,0,0,1,.82,1,2.78,2.78,0,0,1,1.18.92,2.82,2.82,0,0,1,.26.44,6.6,6.6,0,0,1,1.26,1.16A3.13,3.13,0,0,0,16,53l.27.11.23.19a1,1,0,0,0,.21.15,2.6,2.6,0,0,1,1.75,1.2,6.59,6.59,0,0,1,.74.53,2.93,2.93,0,0,1,1.72,1.09,5.81,5.81,0,0,0,.55.2,7.67,7.67,0,0,1,1.42.62,3,3,0,0,1,1.34.53,3.17,3.17,0,0,1,1.11.45,5.29,5.29,0,0,1,3.69,2.66A3.42,3.42,0,0,1,28.68,64l-.15.2a4,4,0,0,1-3.74,1.1,5.52,5.52,0,0,1-3.08-1.52A5.38,5.38,0,0,1,20,63.14a5.62,5.62,0,0,1-.71-.4l-.23-.13a7.36,7.36,0,0,1-3.61-1.89A3.6,3.6,0,0,0,14,59.79l-.28-.08a2.72,2.72,0,0,1-1.24-1C5.89,53.8,1.49,47.06.68,40.61v0a8.93,8.93,0,0,1-.47-3.34,11,11,0,0,1,.36-5.7,6.57,6.57,0,0,1,.92-4.27c.11-.21.21-.42.29-.61l.08-.18c0-.13.07-.37.1-.54.11-.72.39-2.58,1.78-3.31a2.11,2.11,0,0,1,.18-.27A3.6,3.6,0,0,1,5,20.74l.11-.1A4.49,4.49,0,0,1,6.32,18.5a4.34,4.34,0,0,1,.83-1.11h0a3.35,3.35,0,0,1,1.24-1.91A19.31,19.31,0,0,1,16.7,8.6a4,4,0,0,1,2.52-1.85l.57-.3a8.73,8.73,0,0,1,2.78-1.1,35.8,35.8,0,0,1,4.05-1.53l1.57-.54A4.75,4.75,0,0,1,30,2.61,6.9,6.9,0,0,1,33.4,2c1.93-1,5-1.14,7.68-1.21h.21c.53-.08,1.05-.18,1.59-.28,2.29-.43,4.88-.92,7.57-.09l.93-.12a9.52,9.52,0,0,1,3.82,0A3.53,3.53,0,0,1,56.61.4a3.25,3.25,0,0,1,1.53.26c.5,0,1.08.06,1.68.08a15.47,15.47,0,0,1,3.85.4,14.84,14.84,0,0,1,4.75.78,3,3,0,0,1,.77.09,3.29,3.29,0,0,1,2.42.73,4.08,4.08,0,0,1,.42.19,3.16,3.16,0,0,1,1.62.52A27,27,0,0,1,84.08,7.76l.41.16a7.07,7.07,0,0,1,3.73,1.61l.09.06A4.35,4.35,0,0,1,90.42,11l.34.14a5.3,5.3,0,0,1,2.1,1.32,4.65,4.65,0,0,1,1.54,1.41,3,3,0,0,1,1,1.14c2.24,1.76,4.9,3.92,5.66,7a12.77,12.77,0,0,1,2,4.4,3.08,3.08,0,0,1,.67,1.41,2.78,2.78,0,0,1,0,.86l.22.64-.39.14a10.19,10.19,0,0,1,.11,2.28,3,3,0,0,1,.13.71,2.87,2.87,0,0,1,.14.66l0,.27,0,.26a6.4,6.4,0,0,0,0,.8,5.45,5.45,0,0,1-.45,2.74,5.56,5.56,0,0,1-.6,2.45,3,3,0,0,1-.1.54,3.11,3.11,0,0,1-1.06,2.31A14.12,14.12,0,0,1,99.63,47a5,5,0,0,1-1.28,2.2l-.15.15-.09.14a3.83,3.83,0,0,1-1.3,1.33,7.65,7.65,0,0,1-.71.7l-.07.07A5.17,5.17,0,0,1,95.17,53h0a3.06,3.06,0,0,1-1.31,1.84,4.64,4.64,0,0,1-1.69,1.87l-.31.26a4.47,4.47,0,0,1-2.25,2l-.13.12a3.79,3.79,0,0,1-2,1.19,3,3,0,0,1-.4.38A15.63,15.63,0,0,1,82,64a5.32,5.32,0,0,0-.59.46A5.77,5.77,0,0,1,79,65.85a2.7,2.7,0,0,1-.66.38,3.85,3.85,0,0,1-2.11,1,14.33,14.33,0,0,1-4.58,1.67,7.54,7.54,0,0,1-1.69.56,3,3,0,0,1-1.49.6,3.17,3.17,0,0,1-1-.06,28.19,28.19,0,0,1-5.27,1.36,3.21,3.21,0,0,1-1.49.48,8.16,8.16,0,0,1-2.49.64,4.35,4.35,0,0,1-1.51.33,3.5,3.5,0,0,1-2,.14l-.19,0a19.5,19.5,0,0,1-3.84.71,2.87,2.87,0,0,1-1.58.18,3,3,0,0,1-.74-.08,13.46,13.46,0,0,1-3.18.21c-.53,0-1,0-1.52,0a2.88,2.88,0,0,1-1,.39ZM89.9,53.27l.06,0Zm8.27-3.85-.14.12Zm-28.68-44s0,.06,0,.08Z"/>
                        </clipPath>
                    </defs>
                        <path clip-path="url(#myClipPath)" class="cls-1" d="M19.32,72.63c14.92.58,33.49.42,48.44-2.63a47.2,47.2,0,0,0,6.44-1.76c2.72-1,16.07-5.94,24.15-19.32,3.69-6.11,4.26-10.63,4.39-11.85a23.56,23.56,0,0,0-.44-7.9c-1.93-7.49-8.79-11.69-13.76-14.64C75.62,6.88,62.79,6.29,55.47,6.05A75.38,75.38,0,0,0,33.81,8.39c-5.37,1.4-9.75,2.59-14.49,6.14a34.59,34.59,0,0,0-9.8,12C8,29.65,5.89,33.8,6,39.27c.17,7.83,4.74,13.32,7.18,16.24,7.3,8.76,15.54,9.7,19.64,10.61"/>

                </svg>
