<svg width="24" height="24" viewBox="0 0 24 24" fill="none" xmlns="http://www.w3.org/2000/svg">
<path d="M5 7.19922V18.4872C5.02464 18.8961 5.21983 19.2808 5.54538 19.5621C5.87094 19.8434 6.30208 19.9998 6.75 19.9992H17.25C17.6979 19.9998 18.129 19.8434 18.4546 19.5621C18.7802 19.2808 18.9753 18.8961 19 18.4872V7.19922H5Z" fill="#F9F9F9"/>
<path d="M15.6666 10H8.33334C8.14924 10 8 10.1119 8 10.25V10.75C8 10.8881 8.14924 11 8.33334 11H15.6666C15.8508 11 16 10.8881 16 10.75V10.25C16 10.1119 15.8508 10 15.6666 10Z" fill="#FFD368"/>
<path d="M19 5.6C19 5.17565 18.8156 4.76868 18.4874 4.46862C18.1592 4.16857 17.7141 4 17.25 4H6.75C6.28587 4 5.84075 4.16857 5.51257 4.46862C5.18437 4.76868 5 5.17565 5 5.6V7.2H19V5.6Z" fill="#FFD368"/>
<path d="M15.6666 12.8008H8.33334C8.14924 12.8008 8 12.9127 8 13.0508V13.5508C8 13.6888 8.14924 13.8008 8.33334 13.8008H15.6666C15.8508 13.8008 16 13.6888 16 13.5508V13.0508C16 12.9127 15.8508 12.8008 15.6666 12.8008Z" fill="#FFD368"/>
<path d="M15.6666 15.5996H8.33334C8.14924 15.5996 8 15.7116 8 15.8496V16.3496C8 16.4877 8.14924 16.5996 8.33334 16.5996H15.6666C15.8508 16.5996 16 16.4877 16 16.3496V15.8496C16 15.7116 15.8508 15.5996 15.6666 15.5996Z" fill="#FFD368"/>
</svg>
