<svg width="72" height="72" viewBox="0 0 72 72" fill="none" xmlns="http://www.w3.org/2000/svg">
<path d="M7.22425 54.1781C7.22425 56.1773 7.9174 58.0565 9.08893 59.5259C7.20472 57.9466 6.02344 55.5576 6.02344 52.9387C6.02344 52.4888 6.05272 52.029 6.13083 51.5592C6.19917 51.1094 6.23822 50.6496 6.23822 50.1998C6.23822 48.2406 5.57435 46.3514 4.3833 44.832C6.34561 46.4614 7.44879 48.9003 7.44879 51.4293C7.44879 51.8791 7.40974 52.3389 7.3414 52.7987C7.2633 53.2585 7.23401 53.7183 7.23401 54.1781H7.22425Z" fill="#FFE3A4"/>
<path d="M22.2103 67.3218C22.4836 67.8816 22.8058 68.3914 23.1768 68.8512C22.2981 68.1215 21.5464 67.1919 20.9997 66.0823C20.7264 65.5326 20.4042 65.0128 20.0234 64.543C20.9216 65.2827 21.6733 66.2223 22.2005 67.3118L22.2103 67.3218Z" fill="#FFD15F"/>
<path d="M48.8136 3.15868C47.3199 1.9292 45.465 1.26947 43.571 1.26947C42.009 1.26947 40.4274 1.71928 39.002 2.67888C37.6157 3.6085 36.0244 4.0883 34.4233 4.0883C33.1249 4.0883 31.8264 3.77843 30.6256 3.14869C29.4053 2.50895 28.1068 2.19908 26.8377 2.19908C23.4988 2.19908 20.3162 4.26822 19.0568 7.71679C18.5296 9.15619 17.6412 10.3957 16.5185 11.3253C15.3958 12.2649 14.029 12.8946 12.5451 13.1245C8.39593 13.7843 5.50617 17.4427 5.50617 21.521C5.50617 22.2707 5.6038 23.0304 5.80881 23.7901C6.01383 24.5398 6.11146 25.2995 6.11146 26.0491C6.11146 28.2882 5.25234 30.4673 3.66102 32.0866C2.01112 33.7559 1.21058 35.945 1.21058 38.1141C1.21058 40.0233 1.83539 41.9325 3.06549 43.4719C1.03485 41.7826 0 39.3336 0 36.8746C0 34.6955 0.810305 32.5165 2.45044 30.8372C4.04176 29.2178 4.90088 27.0387 4.90088 24.7997C4.90088 24.05 4.80325 23.2803 4.59824 22.5406C4.39322 21.7809 4.29559 21.0112 4.29559 20.2716C4.29559 16.1933 7.18536 12.5348 11.3345 11.8751C12.8184 11.6451 14.1852 11.0054 15.3079 10.0658C16.4306 9.1262 17.3191 7.89671 17.8462 6.45731C19.1056 3.00875 22.2883 0.939609 25.6271 0.939609C26.906 0.939609 28.1947 1.23948 29.4151 1.87922C30.6061 2.50895 31.9143 2.81883 33.2127 2.81883C34.8138 2.81883 36.4052 2.34902 37.7915 1.40941C39.2071 0.449813 40.7886 0 42.3604 0C44.8109 0 47.2125 1.10954 48.8136 3.1287V3.15868Z" fill="#FFE3A4"/>
<path d="M62.901 12.4945C61.5733 11.3949 59.8941 10.6952 58.0392 10.6053C56.5358 10.5353 55.1202 10.0555 53.8998 9.24583C53.1774 8.76603 52.5233 8.16628 51.9766 7.47656C52.2011 7.66648 52.4452 7.84641 52.6892 8.00634C53.9096 8.80601 55.3252 9.28581 56.8286 9.35578C59.3084 9.46573 61.4659 10.6752 62.901 12.4845V12.4945Z" fill="#FFE3A4"/>
<path d="M68.964 28.5495C68.964 28.5495 68.9151 28.5095 68.8859 28.4795C68.4172 28.0895 67.9877 27.6595 67.6167 27.1895C67.6362 27.2095 67.6557 27.2195 67.6753 27.2395C68.1634 27.6395 68.593 28.0695 68.964 28.5495Z" fill="#FFD15F"/>
<path d="M68.3486 39.9232C66.7573 41.5425 65.8982 43.7216 65.8982 45.9607C65.8982 46.7104 65.9958 47.48 66.2008 48.2197C66.4058 48.9794 66.5035 49.7491 66.5035 50.4888C66.5035 54.5671 63.6137 58.2356 59.4646 58.8853C56.4967 59.3551 54.0072 61.4242 52.9528 64.303C51.6837 67.7516 48.5108 69.8207 45.1719 69.8207C43.893 69.8207 42.6043 69.5209 41.384 68.8711C40.193 68.2414 38.8848 67.9315 37.5863 67.9315C35.9852 67.9315 34.3939 68.4013 33.0076 69.3409C31.592 70.3005 30.0104 70.7504 28.4387 70.7504C26.5447 70.7504 24.68 70.0906 23.1863 68.8411C22.8251 68.3813 22.4932 67.8615 22.2198 67.3118C21.6829 66.2222 20.9311 65.2826 20.0427 64.5429C19.496 63.8432 18.8419 63.2535 18.1097 62.7637C16.8894 61.964 15.4738 61.4742 13.9703 61.4042C12.1056 61.3243 10.4264 60.6146 9.10848 59.515C7.93696 58.0456 7.2438 56.1664 7.2438 54.1673C7.2438 53.7174 7.27309 53.2576 7.35119 52.7878C7.41953 52.328 7.45858 51.8782 7.45858 51.4184C7.45858 48.8795 6.34563 46.4505 4.39309 44.8212C4.02211 44.3513 3.59255 43.9215 3.12394 43.5317C3.10441 43.5117 3.08489 43.4917 3.0556 43.4817C1.8255 41.9324 1.20068 40.0331 1.20068 38.1239C1.20068 35.9449 2.01099 33.7658 3.65112 32.0965C5.24245 30.4771 6.10157 28.298 6.10157 26.059C6.10157 25.3093 6.00394 24.5396 5.79892 23.7999C5.5939 23.0402 5.49628 22.2705 5.49628 21.5309C5.49628 17.4526 8.38604 13.7841 12.5352 13.1344C14.0191 12.9045 15.3859 12.2647 16.5086 11.3351C17.6313 10.3955 18.5197 9.15601 19.0469 7.72661C20.3161 4.27805 23.489 2.20891 26.8278 2.20891C28.1067 2.20891 29.3954 2.50878 30.6157 3.15851C31.8165 3.78825 33.115 4.09812 34.4134 4.09812C36.0145 4.09812 37.6058 3.62832 38.9921 2.68871C40.4077 1.72911 41.9893 1.2793 43.5611 1.2793C45.4551 1.2793 47.3197 1.93902 48.8037 3.16851C49.1649 3.62832 49.4968 4.1481 49.7702 4.70787C50.3071 5.79741 51.0589 6.73702 51.957 7.48671C52.5037 8.17642 53.1578 8.77617 53.8803 9.25597C55.1006 10.0556 56.5162 10.5354 58.0197 10.6154C59.8843 10.6954 61.5538 11.4051 62.8815 12.5046C64.053 13.974 64.7462 15.8532 64.7462 17.8624C64.7462 18.3122 64.7169 18.772 64.6388 19.2418C64.5705 19.7016 64.5314 20.1514 64.5314 20.6012C64.5314 23.1402 65.6444 25.5692 67.5969 27.1985C67.9679 27.6683 68.3974 28.1081 68.866 28.488C68.8953 28.5079 68.9149 28.5279 68.9441 28.5579C70.1645 30.1073 70.7893 32.0065 70.7893 33.9057C70.7893 36.0848 69.979 38.2639 68.3389 39.9332L68.3486 39.9232Z" fill="#FFD15F"/>
<path d="M4.37362 44.842C4.37362 44.842 4.33457 44.812 4.31505 44.792C3.83668 44.402 3.40712 43.962 3.03613 43.502C3.05566 43.522 3.07518 43.532 3.10447 43.552C3.57308 43.942 4.00264 44.372 4.37362 44.842Z" fill="#FFE3A4"/>
<path d="M20.0231 64.5533C19.7888 64.3634 19.5545 64.1835 19.3007 64.0135C18.0803 63.2039 16.6647 62.7241 15.1613 62.6541C12.6815 62.5441 10.524 61.3346 9.08887 59.5254C10.4166 60.6349 12.0958 61.3346 13.9507 61.4146C15.4542 61.4846 16.8697 61.9644 18.0901 62.774C18.8125 63.2538 19.4666 63.8536 20.0231 64.5533Z" fill="#F2B838"/>
<path d="M49.78 4.70733C49.5066 4.14756 49.1747 3.63777 48.8135 3.16797C49.6921 3.89766 50.4438 4.82728 50.9906 5.94681C51.2639 6.49658 51.5958 7.01637 51.9668 7.48617C51.0687 6.74648 50.3169 5.79687 49.78 4.70733Z" fill="#FFD15F"/>
<path d="M64.766 17.8519C64.766 15.8427 64.0729 13.9735 62.9014 12.4941C64.7953 14.0735 65.9766 16.4725 65.9766 19.0914C65.9766 19.5412 65.9473 20.001 65.8692 20.4708C65.8009 20.9306 65.7618 21.3804 65.7618 21.8402C65.7618 23.7994 66.4257 25.6886 67.6168 27.198C65.6642 25.5687 64.5513 23.1397 64.5513 20.6008C64.5513 20.151 64.5903 19.6911 64.6587 19.2413C64.7368 18.7815 64.766 18.3217 64.766 17.8619V17.8519Z" fill="#F2B838"/>
<path d="M69.5594 41.1631C67.9681 42.7824 67.109 44.9615 67.109 47.2006C67.109 47.9503 67.2066 48.72 67.4116 49.4597C67.6166 50.2193 67.7142 50.979 67.7142 51.7287C67.7142 55.807 64.8245 59.4655 60.6753 60.1252C57.7075 60.595 55.218 62.6642 54.1636 65.543C52.8945 68.9915 49.7118 71.0606 46.373 71.0606C45.1038 71.0606 43.8054 70.7608 42.585 70.121C41.3842 69.4913 40.0858 69.1814 38.7873 69.1814C37.1863 69.1814 35.5949 69.6512 34.2086 70.5908C32.793 71.5504 31.2115 72.0003 29.6397 72.0003C27.1795 72.0003 24.7778 70.8807 23.1768 68.8616C24.6705 70.1011 26.5351 70.7708 28.4291 70.7708C29.9911 70.7708 31.5825 70.321 32.998 69.3614C34.3844 68.4318 35.9757 67.9519 37.5768 67.9519C38.8752 67.9519 40.1736 68.2618 41.3745 68.8916C42.5948 69.5313 43.8932 69.8412 45.1624 69.8412C48.5012 69.8412 51.6839 67.772 52.9433 64.3235C53.9976 61.4447 56.4871 59.3755 59.455 58.9057C63.6041 58.256 66.4939 54.5875 66.4939 50.5092C66.4939 49.7595 66.3963 48.9998 66.1913 48.2402C65.9863 47.4905 65.8886 46.7308 65.8886 45.9811C65.8886 43.742 66.7477 41.5629 68.3391 39.9436C69.989 38.2743 70.7895 36.0852 70.7895 33.9161C70.7895 32.0069 70.1647 30.1177 68.9444 28.5684C70.9652 30.2577 72.0001 32.6966 72.0001 35.1556C72.0001 37.3347 71.1898 39.5138 69.5496 41.1831L69.5594 41.1631Z" fill="#F2B838"/>
<path d="M29.87 35.0198C32.2725 35.0198 34.22 32.2933 34.22 28.9298C34.22 25.5664 32.2725 22.8398 29.87 22.8398C27.4676 22.8398 25.52 25.5664 25.52 28.9298C25.52 32.2933 27.4676 35.0198 29.87 35.0198Z" fill="white"/>
<path d="M31.9099 31.17C33.2851 31.17 34.3999 29.6209 34.3999 27.71C34.3999 25.7991 33.2851 24.25 31.9099 24.25C30.5347 24.25 29.4199 25.7991 29.4199 27.71C29.4199 29.6209 30.5347 31.17 31.9099 31.17Z" fill="#FFD15F"/>
<path d="M44.0199 35.0198C46.4224 35.0198 48.3699 32.2933 48.3699 28.9298C48.3699 25.5664 46.4224 22.8398 44.0199 22.8398C41.6175 22.8398 39.6699 25.5664 39.6699 28.9298C39.6699 32.2933 41.6175 35.0198 44.0199 35.0198Z" fill="white"/>
<path d="M46.0598 31.17C47.435 31.17 48.5498 29.6209 48.5498 27.71C48.5498 25.7991 47.435 24.25 46.0598 24.25C44.6846 24.25 43.5698 25.7991 43.5698 27.71C43.5698 29.6209 44.6846 31.17 46.0598 31.17Z" fill="#FFD15F"/>
<path d="M37.5402 45.7193C33.5402 45.7193 29.6902 43.7693 27.5602 40.6193C27.3102 40.2393 27.4102 39.7293 27.7802 39.4793C28.1602 39.2293 28.6702 39.3293 28.9202 39.6993C30.8502 42.5593 34.6002 44.3093 38.2702 44.0593C41.3202 43.8493 43.7802 42.2993 45.0002 39.7993C45.2002 39.3893 45.6902 39.2293 46.1002 39.4193C46.5102 39.6193 46.6702 40.1093 46.4802 40.5193C44.9902 43.5593 42.0402 45.4393 38.3902 45.6893C38.1102 45.7093 37.8302 45.7193 37.5502 45.7193H37.5402Z" fill="white"/>
<path d="M26.0199 44.4396C25.7399 44.4396 25.4699 44.2996 25.3199 44.0496C25.0799 43.6596 25.2099 43.1596 25.5899 42.9196C28.7099 41.0196 26.8899 37.6996 26.6799 37.3196C26.4499 36.9296 26.5799 36.4296 26.9699 36.1996C27.3599 35.9696 27.8599 36.0996 28.0899 36.4896C29.1199 38.2296 30.0899 42.0996 26.4399 44.3196C26.3099 44.3996 26.1599 44.4396 26.0099 44.4396H26.0199Z" fill="white"/>
<path d="M22.9301 56.5313C23.9701 56.9613 24.0401 57.3213 23.6301 58.3113L22.9801 59.8913L21.3101 59.2013L21.8701 57.8313C21.9201 57.7113 21.8901 57.6013 21.7501 57.5513L17.4201 55.7713C16.9601 55.5813 16.8101 55.2313 16.9701 54.8413C17.1301 54.4513 17.4901 54.3013 17.9501 54.4913L22.9201 56.5413L22.9301 56.5313ZM18.1701 51.5213C18.2401 51.3413 18.3601 51.1913 18.4901 51.0813C18.1201 50.9113 18.0101 50.5913 18.1501 50.2513C18.2901 49.9013 18.6001 49.7613 19.0001 49.9213L20.1901 50.4113C20.4101 49.9613 20.8401 49.8213 21.3401 50.0213C21.8401 50.2313 22.0301 50.6313 21.8701 51.1013L23.0601 51.5913C23.4701 51.7613 23.5901 52.0813 23.4401 52.4313C23.3001 52.7713 23.0001 52.9213 22.6101 52.7813C22.6301 52.9513 22.6001 53.1313 22.5201 53.3213L22.2801 53.8913C21.8401 54.9513 20.7401 55.2513 19.4101 54.7013C18.0801 54.1513 17.4901 53.1613 17.9301 52.1013L18.1701 51.5313V51.5213ZM20.9801 52.7913C21.1401 52.4013 20.9801 52.0413 20.5801 51.8713C20.1701 51.7013 19.8001 51.8513 19.6401 52.2413L19.5001 52.5813C19.3401 52.9613 19.5001 53.3313 19.9101 53.5013C20.3201 53.6713 20.6801 53.5013 20.8401 53.1313L20.9801 52.7913ZM25.7401 53.6613C26.2501 53.8713 26.2301 54.3213 26.1001 54.6513C25.9601 54.9913 25.6401 55.3113 25.1501 55.1013L24.8901 54.9913L24.1901 56.6913L22.5301 56.0113L24.1001 52.2013C24.3201 51.6613 24.8301 51.5413 25.2701 51.7213C25.7101 51.9013 25.9801 52.3413 25.7601 52.8813L25.4801 53.5513L25.7401 53.6613Z" fill="white"/>
<path d="M35.1402 56.9705C35.6202 57.0305 35.8002 57.3305 35.7602 57.6905C35.7202 58.0605 35.4602 58.3105 34.9902 58.2505L28.0402 57.4205C27.5702 57.3605 27.3802 57.0705 27.4202 56.7005C27.4602 56.3305 27.7102 56.0805 28.1902 56.1405L35.1402 56.9705ZM35.1502 59.3305L34.8402 61.8905L28.5802 61.1405C27.5002 61.0105 27.3502 60.6705 27.4702 59.6305L27.6102 58.4305C27.6802 57.8505 28.1402 57.7205 28.6102 57.7705C29.0102 57.8205 29.3902 58.0405 29.4102 58.5105L33.3802 58.9905C33.5002 58.5305 33.9002 58.4105 34.3402 58.4605C34.7902 58.5105 35.2202 58.7605 35.1502 59.3305ZM27.8302 55.0905C27.8702 54.6905 28.2102 54.4105 28.7102 54.4705C29.8002 54.6105 30.7902 54.2105 31.0902 53.5405C31.2502 53.1505 31.6002 52.9505 32.0802 53.0105C32.5802 53.0705 32.9402 53.4005 32.8602 54.0105V54.1005C34.3102 54.1905 35.5202 55.0605 35.6402 56.7405L33.8302 56.5205C33.6102 55.7605 32.9302 55.2905 31.9302 55.3005C31.0902 55.8605 29.7802 56.1405 28.5602 55.9305C28.0202 55.8405 27.8002 55.4905 27.8402 55.1005L27.8302 55.0905ZM33.1902 60.5405L33.2502 60.0705L29.2902 59.6005L29.2702 59.8005C29.2502 59.9805 29.3002 60.0805 29.5102 60.1105L33.1902 60.5505V60.5405Z" fill="white"/>
<path d="M39.1901 58.9001C38.6901 58.9701 38.4301 58.6901 38.3801 58.3201C38.3301 57.9501 38.5001 57.6001 39.0101 57.5301L40.2401 57.3601L40.1701 56.8101H40.1201C39.0101 56.9701 38.3201 56.3301 38.1901 55.4001V55.3701C38.0601 54.4501 38.5601 53.6501 39.6701 53.4901L41.5701 53.2301C42.6701 53.0801 43.3501 53.7201 43.4701 54.6501V54.6801C43.6001 55.6001 43.1201 56.4001 42.0201 56.5501L41.8501 56.5701L41.9201 57.1201L43.3801 56.9201C43.8901 56.8501 44.1401 57.1501 44.1901 57.5201C44.2401 57.8901 44.0601 58.2301 43.5601 58.2901L39.2001 58.8801L39.1901 58.9001ZM46.0901 59.5501C46.6001 59.4801 46.8501 59.7701 46.9001 60.1301C46.9501 60.4901 46.7801 60.8401 46.2701 60.9101L40.8201 61.6501C39.8201 61.7901 39.5101 61.4801 39.3801 60.5301L39.3101 59.9901C39.2401 59.4601 39.6201 59.1301 40.1201 59.0701C40.6201 59.0001 41.0501 59.2301 41.1201 59.7501L41.1601 60.0801C41.1801 60.2001 41.2201 60.2301 41.3401 60.2101L46.0901 59.5701V59.5501ZM39.8501 55.1901C39.8901 55.4701 40.0901 55.6101 40.4101 55.5701L41.3801 55.4401C41.6901 55.4001 41.8401 55.2101 41.8001 54.9301V54.9001C41.7601 54.6201 41.5701 54.4701 41.2601 54.5101L40.2901 54.6401C39.9701 54.6801 39.8201 54.8801 39.8501 55.1601V55.1901ZM46.1601 54.6901C46.7001 54.6201 46.9201 55.0101 46.9701 55.3701C47.0201 55.7301 46.9101 56.1601 46.3701 56.2401L46.0901 56.2801L46.4301 58.8101L44.7001 59.0501L43.9601 53.6001C43.8801 53.0501 44.2401 52.6901 44.7101 52.6301C45.1801 52.5701 45.6101 52.8101 45.6901 53.3701L45.8801 54.7401L46.1601 54.7001V54.6901Z" fill="white"/>
<path d="M57.1602 55.351C57.6502 55.141 57.9802 55.381 58.1302 55.721C58.2802 56.071 58.2002 56.461 57.7202 56.661L51.3702 59.371C50.8902 59.581 50.5502 59.361 50.4102 59.011C50.2702 58.671 50.3302 58.261 50.8102 58.061L51.7002 57.681L51.1802 56.471C50.2902 56.721 49.6302 56.371 49.2902 55.591L49.2302 55.441C48.8502 54.561 49.1802 53.771 50.2502 53.321L53.8602 51.781L53.7502 51.521C53.7002 51.411 53.6202 51.301 53.4302 51.381L49.1302 53.211C48.7402 53.381 48.3702 53.161 48.2202 52.821C48.0802 52.501 48.1802 52.071 48.5702 51.901L53.3602 49.861C54.4802 49.381 55.0202 49.761 55.3502 50.531L56.1002 52.301L51.2102 54.391C51.0202 54.471 50.9702 54.601 51.0302 54.761C51.1002 54.931 51.2302 54.971 51.4202 54.891L55.9002 52.981C56.3502 52.791 56.6702 53.061 56.8002 53.361C56.9302 53.671 56.8902 54.071 56.4402 54.261L55.7502 54.561L56.2602 55.751L57.1502 55.371L57.1602 55.351ZM52.7902 55.811L53.3002 57.001L54.6702 56.421L54.1602 55.231L52.7902 55.811Z" fill="white"/>
<path opacity="0.8" d="M15.4401 37.5799L15.9901 38.7199C16.0601 38.8699 16.2101 38.9799 16.3801 38.9999L17.6301 39.1699C18.0501 39.2299 18.2201 39.7399 17.9101 40.0399L17.0001 40.9199C16.8801 41.0399 16.8201 41.2099 16.8501 41.3699L17.0701 42.6199C17.1401 43.0399 16.7101 43.3599 16.3301 43.1599L15.2101 42.5599C15.0601 42.4799 14.8801 42.4799 14.7301 42.5599L13.6101 43.1599C13.2401 43.3599 12.8001 43.0399 12.8701 42.6199L13.0901 41.3699C13.1201 41.1999 13.0601 41.0299 12.9401 40.9199L12.0301 40.0399C11.7201 39.7499 11.8901 39.2299 12.3101 39.1699L13.5601 38.9999C13.7301 38.9799 13.8701 38.8699 13.9501 38.7199L14.5001 37.5799C14.6801 37.1999 15.2301 37.1999 15.4101 37.5799H15.4401Z" fill="white"/>
<path opacity="0.7" d="M11.8 28.9297L12.55 29.5197C12.65 29.5997 12.78 29.6197 12.9 29.5797L13.81 29.2897C14.11 29.1897 14.4 29.4897 14.29 29.7897L13.96 30.6797C13.92 30.7997 13.93 30.9297 14.01 31.0397L14.57 31.8097C14.76 32.0697 14.57 32.4297 14.25 32.4097L13.3 32.3697C13.17 32.3697 13.05 32.4197 12.98 32.5297L12.42 33.2997C12.23 33.5597 11.83 33.4897 11.74 33.1797L11.48 32.2597C11.45 32.1397 11.35 32.0397 11.23 31.9997L10.32 31.7097C10.02 31.6097 9.96004 31.2097 10.23 31.0297L11.02 30.4997C11.13 30.4297 11.19 30.3097 11.19 30.1797V29.2297C11.19 28.9097 11.56 28.7297 11.81 28.9297H11.8Z" fill="white"/>
<path opacity="0.8" d="M58.2999 37.5799L57.7499 38.7199C57.6799 38.8699 57.5299 38.9799 57.3599 38.9999L56.1099 39.1699C55.6899 39.2299 55.5199 39.7399 55.8299 40.0399L56.7399 40.9199C56.8599 41.0399 56.9199 41.2099 56.8899 41.3699L56.6699 42.6199C56.5999 43.0399 57.0299 43.3599 57.4099 43.1599L58.5299 42.5599C58.6799 42.4799 58.8599 42.4799 59.0099 42.5599L60.1299 43.1599C60.4999 43.3599 60.9399 43.0399 60.8699 42.6199L60.6499 41.3699C60.6199 41.1999 60.6799 41.0299 60.7999 40.9199L61.7099 40.0399C62.0199 39.7499 61.8499 39.2299 61.4299 39.1699L60.1799 38.9999C60.0099 38.9799 59.8699 38.8699 59.7899 38.7199L59.2399 37.5799C59.0599 37.1999 58.5099 37.1999 58.3299 37.5799H58.2999Z" fill="white"/>
<path opacity="0.7" d="M61.94 28.9297L61.19 29.5197C61.09 29.5997 60.96 29.6197 60.84 29.5797L59.93 29.2897C59.63 29.1897 59.34 29.4897 59.45 29.7897L59.78 30.6797C59.82 30.7997 59.81 30.9297 59.73 31.0397L59.17 31.8097C58.98 32.0697 59.17 32.4297 59.49 32.4097L60.44 32.3697C60.57 32.3697 60.69 32.4197 60.76 32.5297L61.32 33.2997C61.51 33.5597 61.91 33.4897 62 33.1797L62.26 32.2597C62.29 32.1397 62.39 32.0397 62.51 31.9997L63.42 31.7097C63.72 31.6097 63.78 31.2097 63.51 31.0297L62.72 30.4997C62.61 30.4297 62.55 30.3097 62.55 30.1797V29.2297C62.55 28.9097 62.18 28.7297 61.93 28.9297H61.94Z" fill="white"/>
</svg>
