<svg width="75" height="77" viewBox="0 0 75 77" fill="none" xmlns="http://www.w3.org/2000/svg">
<g filter="url(#filter0_d_385_15829)">
<path d="M25.1027 44.9034C26.0031 44.581 26.8393 44.0819 27.536 43.4059C28.8009 42.1788 29.4977 40.5461 29.4977 38.8094C29.4977 37.0727 28.7902 35.44 27.5253 34.2129C26.2497 32.9754 24.5774 32.3098 22.7551 32.3098C19.0891 32.3202 16.0983 35.2424 16.0983 38.8094C16.0983 41.6068 17.9313 43.9883 20.4933 44.9034C15.6802 45.8394 11.8427 49.6143 11.103 54.4916C10.6528 57.4554 11.6604 59.2545 14.4797 60.5128C14.8227 60.6688 15.1764 60.804 15.5409 60.9288C17.6848 61.636 19.9788 61.948 23.4519 62H23.4626C23.4626 62 23.5377 62 23.5698 62C23.7628 61.9792 23.9986 61.9584 24.2773 61.9376C25.0813 61.8752 26.1747 61.7816 27.268 61.6152C28.8653 61.3656 30.9341 60.9184 32.6814 59.5977C33.9785 58.6202 34.6109 57.341 34.5788 55.7811C34.4394 50.4567 30.3445 45.933 25.1027 44.9034Z" fill="white"></path>
<path d="M60.9071 54.5331C60.1996 49.687 56.3728 45.8601 51.5168 44.9033C52.4173 44.5809 53.2534 44.0818 53.9502 43.4058C55.2151 42.1787 55.9118 40.546 55.9118 38.7989C55.9118 35.2319 52.9211 32.3097 49.2443 32.2993H49.2229C47.4327 32.2993 45.7497 32.9753 44.4848 34.2128C43.2092 35.4503 42.5124 37.083 42.5124 38.8093C42.5124 41.5859 44.3348 43.957 46.8646 44.8721C42.4696 45.7145 38.8571 48.9799 37.7744 53.3788C36.9061 56.925 37.3135 59.296 42.0301 60.9287C44.5063 61.7919 47.079 61.9479 49.5659 61.9791L50.0483 61.9583C50.5521 61.9375 51.1631 61.9063 51.7741 61.8543C54.1431 61.6463 55.9011 61.2303 57.4983 60.5336C60.3176 59.2856 61.3359 57.4865 60.9071 54.5331Z" fill="white"></path>
<path d="M49.0201 12.6549C47.3907 11.3654 45.4612 10.5334 43.2851 10.1902C41.5057 9.89904 39.812 9.94064 38.1183 10.3254C37.7003 10.419 37.3787 10.7518 37.3036 11.1574C37.2715 11.3134 37.3036 11.4693 37.3465 11.6253C32.9622 9.20229 27.1201 9.49347 23.111 12.5197C20.667 14.3708 19.2627 17.0226 19.2627 19.7888C19.2627 22.4823 20.6241 25.0301 22.9716 26.798C24.0436 27.5987 24.1401 28.0043 23.9686 28.6803C23.9471 28.7635 23.9364 28.8467 23.9364 28.9299V29.4186C23.9364 29.7722 23.9364 30.1258 23.9364 30.469C23.915 31.7897 24.7404 32.2992 25.2335 32.476C25.48 32.5696 25.7158 32.6112 25.9517 32.6112C26.4876 32.6112 27.0129 32.372 27.506 31.9041C27.8597 31.5609 28.2135 31.2281 28.5672 30.8953C29.0818 30.417 29.5856 29.9386 30.1216 29.4394C32.855 29.585 35.342 29.0131 37.518 27.7547C37.4859 27.8587 37.4537 27.9731 37.4537 28.0875V28.2643C37.4537 28.8259 37.9039 29.2938 38.4828 29.3146L39.3511 29.3458C40.1443 29.377 40.9483 29.3978 41.7415 29.4498C41.8273 29.4498 41.9023 29.481 41.8702 29.4498C42.5884 30.0946 43.2959 30.7705 43.9926 31.4465L44.475 31.9145C45.0217 32.4344 45.5469 32.6008 46.0079 32.6008C46.2973 32.6008 46.5546 32.5384 46.769 32.4448C47.2406 32.2576 48.0232 31.7481 48.0017 30.4794C48.0017 30.2194 48.0017 29.9594 48.0017 29.6994C48.0124 29.1898 48.0232 28.6595 47.9696 28.1083C47.9267 27.7027 47.9696 27.5259 48.5163 27.1412C51.0568 25.4045 52.5789 22.8046 52.6754 20.0384C52.7719 17.2514 51.4427 14.558 49.0201 12.6445V12.6549Z" fill="white"></path>
</g>
<path d="M25.0113 28.9295C25.3543 27.588 24.7433 26.8081 23.6285 25.9761C19.1585 22.6275 19.2764 16.7415 23.7679 13.3409C27.8091 10.2835 34.0264 10.2731 38.0784 13.3409C42.6771 16.8143 42.6449 22.8147 37.9819 26.2153C35.6665 27.9 33.0402 28.5656 30.1781 28.4096C29.8137 28.3888 29.5778 28.472 29.3313 28.7215C28.4844 29.5535 27.6054 30.3542 26.7586 31.1758C26.437 31.4878 26.094 31.6958 25.633 31.519C25.1507 31.3422 25.0113 30.9574 25.0113 30.4894C25.0113 29.9695 25.0113 29.4495 25.0113 28.9295ZM27.7662 20.0277C27.7769 19.1541 27.0909 18.4574 26.2012 18.4366C25.29 18.4158 24.5397 19.1229 24.5397 19.9965C24.5397 20.8492 25.2579 21.546 26.1476 21.5564C27.048 21.5564 27.7555 20.8908 27.7662 20.0173V20.0277ZM32.59 20.0277C32.6007 19.1541 31.9147 18.4574 31.0357 18.4366C30.1245 18.4158 29.3742 19.1229 29.3742 19.9965C29.3742 20.8492 30.0924 21.5564 30.9714 21.5564C31.8718 21.5564 32.5793 20.8908 32.59 20.0277ZM37.4031 19.9549C37.3816 19.0917 36.6634 18.4262 35.763 18.4366C34.884 18.447 34.1658 19.1645 34.1765 20.0173C34.1872 20.8908 34.9483 21.5876 35.8487 21.5564C36.7385 21.5252 37.4138 20.8284 37.3924 19.9549H37.4031Z" fill="#FFE39E"></path>
<path d="M23.4654 60.9594C20.4318 60.9178 18.1163 60.689 15.8867 59.9506C15.5651 59.8466 15.2435 59.7218 14.9327 59.5763C12.5529 58.5155 11.7918 57.1428 12.167 54.647C12.9603 49.4057 17.634 45.5787 23.1009 45.7139C28.7394 45.8491 33.3702 50.352 33.5096 55.8013C33.5417 57.07 33.0272 58.0268 32.0303 58.7651C30.5831 59.857 28.8573 60.3042 27.0993 60.5746C25.6736 60.793 24.2158 60.8762 23.4654 60.949V60.9594Z" fill="#FF5065"></path>
<path d="M49.5023 60.9593C46.8868 60.9177 44.5821 60.7306 42.3846 59.9714C38.2683 58.5363 38.0539 56.7268 38.815 53.6382C40.0048 48.7921 44.6785 45.4539 49.7382 45.7243C54.905 46.0051 59.1284 49.7488 59.8359 54.6781C60.2004 57.174 59.4393 58.5363 57.0381 59.597C55.3337 60.3562 53.5114 60.6682 51.6569 60.8345C50.8423 60.9073 50.0169 60.9281 49.4916 60.9593H49.5023Z" fill="#FFC747"></path>
<path d="M38.5265 28.0874C45.119 23.6885 44.8403 15.317 38.3657 11.334C39.9736 10.9805 41.5387 10.9597 43.1145 11.2196C45.0547 11.5316 46.8127 12.2596 48.3456 13.4659C52.8585 17.0329 52.687 23.0437 47.9061 26.3091C47.1343 26.8395 46.8127 27.349 46.9092 28.233C46.9949 28.9817 46.9092 29.7513 46.9306 30.5104C46.9306 30.9576 46.8127 31.3216 46.3625 31.4984C45.9123 31.6856 45.5585 31.4984 45.2262 31.1864C44.3579 30.3544 43.5004 29.5121 42.5999 28.7009C42.407 28.5242 42.0854 28.441 41.8067 28.4202C40.7133 28.3474 39.6199 28.3266 38.5265 28.285C38.5265 28.2226 38.5265 28.1498 38.5265 28.0874Z" fill="#FFF6E0"></path>
<path d="M54.8409 38.8088C54.8409 41.8454 52.3326 44.2789 49.2025 44.2685C46.1153 44.2685 43.5962 41.8142 43.5854 38.8192C43.5854 35.8034 46.1367 33.3388 49.2454 33.3492C52.3433 33.3492 54.8409 35.793 54.8409 38.8088Z" fill="#FFC747"></path>
<path d="M17.1728 38.8088C17.1728 35.793 19.6705 33.3596 22.7577 33.3492C25.8664 33.3388 28.4176 35.793 28.4176 38.8088C28.4176 41.835 25.8878 44.2789 22.7577 44.2685C19.6598 44.2685 17.1621 41.835 17.1621 38.8192L17.1728 38.8088Z" fill="#FF5065"></path>
<defs>
<filter id="filter0_d_385_15829" x="1" y="1" width="74.0015" height="76" filterUnits="userSpaceOnUse" color-interpolation-filters="sRGB">
<feFlood flood-opacity="0" result="BackgroundImageFix"></feFlood>
<feColorMatrix in="SourceAlpha" type="matrix" values="0 0 0 0 0 0 0 0 0 0 0 0 0 0 0 0 0 0 127 0" result="hardAlpha"></feColorMatrix>
<feOffset dx="2" dy="3"></feOffset>
<feGaussianBlur stdDeviation="6"></feGaussianBlur>
<feComposite in2="hardAlpha" operator="out"></feComposite>
<feColorMatrix type="matrix" values="0 0 0 0 0 0 0 0 0 0 0 0 0 0 0 0 0 0 0.08 0"></feColorMatrix>
<feBlend mode="normal" in2="BackgroundImageFix" result="effect1_dropShadow_385_15829"></feBlend>
<feBlend mode="normal" in="SourceGraphic" in2="effect1_dropShadow_385_15829" result="shape"></feBlend>
</filter>
</defs>
</svg>
