<svg width="256" height="221" viewBox="0 0 256 221" fill="none" xmlns="http://www.w3.org/2000/svg">
<g style="mix-blend-mode:multiply" opacity="0.15">
<path d="M158.28 199.379C193.967 199.379 222.897 195.717 222.897 191.201C222.897 186.685 193.967 183.023 158.28 183.023C122.592 183.023 93.6621 186.685 93.6621 191.201C93.6621 195.717 122.592 199.379 158.28 199.379Z" fill="black"/>
</g>
<path d="M130.518 165.804L126.461 172.154C126.461 172.154 118.929 164.285 107.305 165.804C98.4792 166.955 96.911 176.579 96.6709 181.14C96.5729 183.012 97.5334 184.8 99.1848 185.682C103.414 187.951 114.322 190.376 141.456 183.997C142.716 183.703 143.755 182.816 144.245 181.615C145.465 178.612 147.714 172.767 148.175 169.371C148.812 164.657 130.523 165.799 130.523 165.799L130.518 165.804Z" fill="#FFB743" stroke="#513925" stroke-width="1.46992" stroke-linecap="round" stroke-linejoin="round"/>
<g style="mix-blend-mode:color-burn" opacity="0.15">
<path d="M148.096 169.852C147.508 173.292 145.405 178.745 144.239 181.611C143.749 182.812 142.705 183.704 141.446 183.998C115.522 190.093 104.413 188.143 99.7871 185.982C99.8851 181.891 101.047 171.038 110.455 169.808C122.074 168.294 129.606 176.163 129.606 176.163L134.938 166.594C134.938 166.594 143.323 167.613 148.101 169.852H148.096Z" fill="black"/>
</g>
<path d="M126.461 172.156L129.651 174.454" stroke="#513925" stroke-width="1.46992" stroke-linecap="round" stroke-linejoin="round"/>
<path d="M213.321 111.919C213.321 111.919 224.671 87.4547 231.585 90.2084C238.5 92.962 228.464 113.423 228.464 113.423C228.464 113.423 211.243 138.936 206.617 130.18C201.991 121.429 213.326 111.919 213.326 111.919H213.321Z" fill="#FFB743" stroke="#513925" stroke-width="1.46992" stroke-linecap="round" stroke-linejoin="round"/>
<path d="M214.816 143.295C214.816 143.295 258.783 122.461 252.618 107.209C246.453 91.9557 206.578 142.413 206.578 142.413L214.816 143.295Z" fill="#FFB743" stroke="#513925" stroke-width="1.46992" stroke-linecap="round" stroke-linejoin="round"/>
<g style="mix-blend-mode:color-burn" opacity="0.15">
<path d="M208.322 140.249C208.042 140.592 207.792 140.901 207.577 141.165C207.479 141.283 207.391 141.401 207.302 141.504C206.827 142.096 206.572 142.42 206.572 142.42L214.81 143.302C214.81 143.302 214.844 143.282 214.908 143.258C214.937 143.238 214.986 143.218 215.03 143.199C215.369 143.032 216.084 142.684 217.089 142.175C217.231 142.101 217.378 142.023 217.535 141.949C217.951 141.734 218.417 141.494 218.912 141.234C229.683 135.594 257.601 119.572 252.607 107.215C252.357 106.593 252.049 106.083 251.691 105.672C254.773 117.142 232.535 130.739 220.975 136.986C221.029 136.702 220.906 135.394 220.906 135.394C220.906 135.394 238.602 116.015 243.233 106.054C236.49 109.68 227.556 118.47 220.2 126.505C217.157 129.828 214.379 133.022 212.139 135.663C211.581 136.329 211.046 136.957 210.561 137.54L208.317 140.259L208.322 140.249Z" fill="black"/>
</g>
<path d="M214.733 116.519C214.733 116.519 226.823 91.8975 241.505 92.7893C256.186 93.6859 221.29 133.937 216.87 135.794C212.45 137.651 204.942 134.702 214.733 116.514V116.519Z" fill="white" stroke="#513925" stroke-width="1.46992" stroke-linecap="round" stroke-linejoin="round"/>
<g style="mix-blend-mode:multiply" opacity="0.15">
<path d="M220.383 129.615C229.121 120.634 245.297 100.33 243.567 93.3281C243.655 93.3771 243.739 93.4359 243.822 93.4898C243.837 93.4996 243.851 93.5094 243.866 93.5192C243.944 93.578 244.018 93.6368 244.091 93.7054C244.091 93.7054 244.093 93.707 244.096 93.7103C244.16 93.7691 244.224 93.8328 244.283 93.9014C244.302 93.9161 244.312 93.9357 244.332 93.9602C244.376 94.0092 244.42 94.0631 244.459 94.1219C244.488 94.1562 244.508 94.1856 244.533 94.2248C244.567 94.2738 244.606 94.3326 244.635 94.3865C244.655 94.4159 244.675 94.4502 244.684 94.4845C244.724 94.558 244.758 94.6314 244.792 94.7098C244.792 94.7098 244.792 94.7147 244.792 94.7196C244.827 94.7931 244.851 94.8715 244.876 94.9499C244.89 94.9891 244.905 95.0283 244.91 95.0724C244.929 95.1361 244.949 95.1998 244.959 95.2635C244.974 95.3174 244.983 95.3615 244.993 95.4203C245.008 95.4987 245.023 95.5771 245.032 95.6653C245.037 95.7143 245.047 95.7682 245.052 95.8221C245.072 96.023 245.076 96.2386 245.076 96.459C245.076 96.5276 245.076 96.6109 245.072 96.6844C245.072 96.7138 245.072 96.7481 245.067 96.7775C245.067 96.8314 245.067 96.8853 245.057 96.9343C245.052 97.0323 245.037 97.1401 245.023 97.243C245.023 97.243 245.023 97.2577 245.023 97.2626C245.003 97.39 244.983 97.5174 244.964 97.6546C244.959 97.6595 244.964 97.6693 244.959 97.6742C244.939 97.7918 244.92 97.9143 244.89 98.0368C244.792 98.512 244.66 99.0216 244.493 99.5508C244.459 99.6537 244.43 99.7615 244.386 99.8644C244.371 99.9085 244.356 99.9525 244.346 99.9917C244.297 100.129 244.243 100.271 244.189 100.413C244.136 100.56 244.082 100.707 244.023 100.849C243.959 101.021 243.891 101.187 243.817 101.364C243.739 101.545 243.66 101.726 243.577 101.912C243.503 102.079 243.43 102.251 243.347 102.417C243.347 102.427 243.337 102.432 243.337 102.442C243.268 102.589 243.2 102.736 243.131 102.887C242.773 103.622 242.386 104.382 241.96 105.156C241.862 105.342 241.759 105.524 241.656 105.705C241.578 105.842 241.504 105.979 241.426 106.112C241.293 106.347 241.151 106.587 241.014 106.822C240.034 108.483 238.921 110.213 237.721 111.967C237.549 112.217 237.378 112.466 237.201 112.721C236.868 113.197 236.535 113.672 236.192 114.142C236.074 114.309 235.957 114.47 235.839 114.632C234.913 115.911 233.952 117.185 232.982 118.439C232.83 118.64 232.673 118.846 232.512 119.047C231.331 120.556 230.135 122.036 228.959 123.447C228.782 123.662 228.596 123.878 228.42 124.089C225.391 127.68 222.505 130.816 220.319 132.947C220.118 133.148 219.922 133.334 219.736 133.511C219.545 133.692 219.359 133.864 219.187 134.02C218.129 134.981 217.325 135.613 216.855 135.804C215.757 136.269 214.473 136.431 213.307 136.142C213.204 136.117 213.101 136.088 213.003 136.054C212.9 136.024 212.802 135.985 212.704 135.941C212.606 135.902 212.513 135.858 212.415 135.814C212.322 135.77 212.229 135.716 212.136 135.657C212.087 135.627 212.038 135.598 211.984 135.564C211.925 135.52 211.866 135.48 211.807 135.436C211.748 135.397 211.695 135.353 211.641 135.304C211.626 135.289 211.616 135.284 211.606 135.275C211.606 135.275 211.606 135.27 211.597 135.27C211.543 135.221 211.484 135.172 211.435 135.118C211.405 135.088 211.371 135.064 211.347 135.03C211.312 135 211.288 134.971 211.258 134.937C211.219 134.897 211.185 134.858 211.146 134.809C211.141 134.804 211.131 134.794 211.126 134.785C210.999 134.628 210.876 134.456 210.763 134.265V134.256C210.67 134.113 210.592 133.962 210.518 133.805C210.479 133.717 210.44 133.623 210.401 133.53C210.401 133.53 210.401 133.525 210.396 133.521C210.352 133.408 210.308 133.295 210.273 133.173C210.224 133.026 210.185 132.874 210.141 132.717C210.117 132.614 210.092 132.506 210.072 132.399C210.072 132.389 210.072 132.379 210.068 132.364C210.043 132.247 210.019 132.124 210.009 131.997C210.004 131.982 210.004 131.962 209.999 131.948C209.592 128.895 207.328 119.081 212.582 112.579C215.066 116.881 219.08 125.191 220.368 129.615H220.383Z" fill="black"/>
</g>
<path d="M174.623 2.88694C174.623 2.88694 176.505 0.417478 177.985 1.33863C179.465 2.26467 178.828 4.33726 178.828 4.33726L174.623 2.88694Z" fill="white" stroke="#513925" stroke-width="1.46992" stroke-linecap="round" stroke-linejoin="round"/>
<g style="mix-blend-mode:color-burn" opacity="0.15">
<path d="M178.823 4.34306L174.623 2.89274C174.623 2.89274 174.75 2.72615 174.961 2.50076L177.598 3.40721C177.598 3.40721 177.99 2.13818 177.456 1.14844C177.632 1.17294 177.813 1.23663 177.985 1.33953C179.47 2.26067 178.828 4.33816 178.828 4.33816L178.823 4.34306Z" fill="black"/>
</g>
<path d="M161.563 9.33192C161.563 9.33192 169.075 -0.394035 178.048 3.91282C187.02 8.21968 182.453 26.5691 182.453 26.5691C182.453 26.5691 159.249 23.1148 161.563 9.33192Z" fill="white" stroke="#513925" stroke-width="1.46992" stroke-linecap="round" stroke-linejoin="round"/>
<path d="M182.455 26.5718C182.455 26.5718 179.505 26.1357 175.815 24.9451C175.476 23.4066 175.746 21.5202 177.451 19.3888C182.038 13.6561 178.912 4.58185 178.828 4.35156C186.752 9.31988 182.46 26.5767 182.46 26.5767L182.455 26.5718Z" fill="#FFB743" stroke="#513925" stroke-width="1.46992" stroke-linecap="round" stroke-linejoin="round"/>
<path d="M182.455 26.5706C182.455 26.5706 163.848 23.8023 161.623 13.3267C166.465 18.589 173.698 21.911 173.698 21.911C173.698 21.911 179.647 11.6853 178.456 4.125C186.88 8.78464 182.455 26.5657 182.455 26.5657V26.5706Z" fill="#FFB743" stroke="#513925" stroke-width="1.46992" stroke-linecap="round" stroke-linejoin="round"/>
<path d="M162.658 10.5691C162.658 10.5691 165.721 6.60031 168.034 7.25197C170.347 7.89874 171.998 12.1468 169.509 16.1989C167.019 20.246 160.84 14.4644 162.658 10.574V10.5691Z" fill="#FFB743" stroke="#513925" stroke-width="1.46992" stroke-linecap="round" stroke-linejoin="round"/>
<path d="M144.088 15.5198C144.088 15.5198 138.718 3.46651 148.935 1.16854C159.152 -1.12943 169.365 20.8311 169.365 20.8311L144.088 15.5198Z" fill="#FFB743" stroke="#513925" stroke-width="1.46992" stroke-linecap="round" stroke-linejoin="round"/>
<g style="mix-blend-mode:color-burn" opacity="0.15">
<path d="M166.165 20.1613L144.089 15.5212C144.089 15.5212 141.506 9.72974 143.329 5.41308C144.265 4.57033 145.549 3.89907 147.279 3.51199C155.105 1.75299 162.931 14.2326 166.165 20.1613Z" fill="black"/>
</g>
<path d="M97.6901 83.4141C97.6901 83.4141 85.3409 122.328 95.2987 142.755C105.261 163.182 137.438 146.586 137.438 146.586L97.6852 83.4141H97.6901Z" fill="#FFF492" stroke="#513925" stroke-width="1.46992" stroke-linecap="round" stroke-linejoin="round"/>
<g style="mix-blend-mode:color-burn" opacity="0.15">
<path d="M137.443 146.588C137.443 146.588 109.868 160.812 97.8719 146.72C111.079 154.766 133.488 143.207 133.488 143.207L97.1074 85.3906C97.4701 84.1167 97.6955 83.4062 97.6955 83.4062L137.443 146.583V146.588Z" fill="black"/>
</g>
<path d="M101.189 53.9643C103.507 41.5337 110.828 30.3575 121.786 23.1745C129.857 17.8828 139.653 14.7812 150.213 14.7812C167.909 14.7812 183.458 23.4881 192.342 36.6193C192.342 36.6193 208.636 57.9478 204.613 99.8405C204.613 99.8405 209.117 103.829 207.774 106.191L206.72 108.185C206.72 108.185 221.662 125.412 218.692 142.282C215.723 159.147 206.72 180.367 162.092 174.566C117.463 168.76 101.757 146.638 97.7342 116.892C94.6028 93.7305 99.0671 65.3807 101.194 53.9643H101.189Z" fill="#FFF492" stroke="#513925" stroke-width="1.46992" stroke-linecap="round" stroke-linejoin="round"/>
<g style="mix-blend-mode:color-burn" opacity="0.15">
<path d="M163.091 16.7947C159.572 15.9324 155.054 16.7702 147.948 17.6669C140.563 18.6027 142.656 15.8491 142.759 15.7168C145.214 15.3395 147.728 15.1484 150.286 15.1484C154.711 15.1484 158.999 15.7217 163.086 16.7996L163.091 16.7947Z" fill="black"/>
</g>
<g style="mix-blend-mode:color-burn" opacity="0.15">
<path d="M203.075 112.363C203.075 112.363 213.214 119.36 210.244 136.225C207.275 153.09 198.273 174.311 153.644 168.509C137.522 166.412 125.172 162.189 115.793 156.24C125.79 165.398 140.447 171.822 161.602 174.57C206.236 180.372 215.238 159.151 218.208 142.281C221.177 125.416 206.236 108.184 206.236 108.184L207.289 106.19C208.632 103.833 204.129 99.8396 204.129 99.8396C208.152 57.947 191.858 36.6185 191.858 36.6185C188.001 30.9201 182.895 26.0596 176.897 22.375C179.538 24.8396 181.885 27.5834 183.895 30.5526C183.895 30.5526 202.82 48.5689 200.556 103.211C200.522 104.083 201.193 104.813 202.1 104.945C205.378 105.43 204.516 107.483 203.075 112.354V112.363Z" fill="black"/>
</g>
<path d="M204.608 99.6562L204.289 103.615" stroke="#513925" stroke-width="1.46992" stroke-linecap="round" stroke-linejoin="round"/>
<path d="M206.715 108.172L204.289 112.577" stroke="#513925" stroke-width="1.46992" stroke-linecap="round" stroke-linejoin="round"/>
<path d="M172.687 175.549V182.79C172.687 182.79 171.839 193.403 192.274 193.888C192.274 193.888 205.294 193.888 207.725 188.082C209.665 183.452 210.744 166.465 197.973 162.961C185.202 159.453 176.137 175.544 176.137 175.544H172.687V175.549Z" fill="#FFB743" stroke="#513925" stroke-width="1.46992" stroke-linecap="round" stroke-linejoin="round"/>
<path d="M188.009 172.457C189.996 171.409 191.191 169.771 190.678 168.799C190.165 167.828 188.139 167.89 186.152 168.938C184.165 169.986 182.97 171.624 183.483 172.595C183.996 173.567 186.022 173.505 188.009 172.457Z" fill="white"/>
<g style="mix-blend-mode:color-burn" opacity="0.15">
<path d="M207.72 188.09C205.289 193.891 192.269 193.891 192.269 193.891C182.782 193.666 177.881 191.255 175.357 188.742C178.244 190.104 182.409 191.123 188.402 191.265C188.402 191.265 201.428 191.265 203.854 185.464C205.417 181.73 206.421 169.971 200.07 163.719C210.606 168.418 209.548 183.729 207.72 188.095V188.09Z" fill="black"/>
</g>
<path d="M176.136 175.547L174.984 178.315" stroke="#513925" stroke-width="1.46992" stroke-linecap="round" stroke-linejoin="round"/>
<g style="mix-blend-mode:color-burn" opacity="0.15">
<path d="M141.118 74.9313C142.348 70.4725 142.009 65.2592 140.182 61.7853C137.976 57.601 133.796 53.4411 127.798 53.5734C116.434 53.8282 111.195 69.7866 111.195 69.7866C111.195 69.7866 112.283 88.8906 125.367 89.9587C125.367 89.9587 136.604 91.2572 141.113 74.9264L141.118 74.9313Z" fill="black"/>
</g>
<path d="M138.755 72.5719C139.985 68.1132 139.647 62.8999 137.819 59.426C135.614 55.2416 131.433 51.0817 125.435 51.214C115.228 51.4443 109.964 64.3404 108.999 66.9666C108.886 67.2753 108.847 67.6036 108.877 67.927C109.156 70.9452 111.19 86.6341 123.01 87.5994C123.01 87.5994 134.246 88.8978 138.755 72.567V72.5719Z" fill="#FFB743" stroke="#513925" stroke-width="1.46992" stroke-linecap="round" stroke-linejoin="round"/>
<g style="mix-blend-mode:color-burn" opacity="0.15">
<path d="M138.754 72.5681C131.545 90.3345 123.009 87.6004 123.009 87.6004C120.416 86.8557 118.289 85.5964 116.555 84.0481C117.638 84.6655 118.824 85.1751 120.137 85.5475C120.137 85.5475 128.669 88.2815 135.882 70.5151C137.622 66.2278 137.308 61.3477 134.946 57.3691C133.956 55.6934 132.697 53.9834 131.138 52.5625C134.089 54.1206 136.274 56.8155 137.818 59.4221C140.18 63.4056 140.489 68.2808 138.754 72.5681Z" fill="black"/>
</g>
<path d="M109.004 67.4375C112.62 70.3234 122.157 70.9653 128.209 68.4419L109.004 67.4375Z" fill="#FFB743"/>
<path d="M109.004 67.4375C112.62 70.3234 122.157 70.9653 128.209 68.4419" stroke="#513925" stroke-width="1.46992" stroke-linecap="round" stroke-linejoin="round"/>
<path d="M136.228 42.9715L135.997 42.9636C134.315 42.906 132.904 44.223 132.847 45.9052L132.653 51.5611C132.596 53.2433 133.913 54.6536 135.595 54.7112L135.826 54.719C137.508 54.7766 138.919 53.4596 138.976 51.7774L139.17 46.1216C139.227 44.4394 137.91 43.0291 136.228 42.9715Z" fill="#513925"/>
<path d="M134.544 46.8412C134.966 46.8412 135.308 46.499 135.308 46.0769C135.308 45.6547 134.966 45.3125 134.544 45.3125C134.122 45.3125 133.779 45.6547 133.779 46.0769C133.779 46.499 134.122 46.8412 134.544 46.8412Z" fill="white"/>
<path d="M116.109 43.1043L115.878 43.0964C114.196 43.0389 112.785 44.3559 112.728 46.038L112.534 51.6939C112.477 53.3761 113.794 54.7864 115.476 54.844L115.706 54.8519C117.389 54.9094 118.799 53.5924 118.857 51.9102L119.051 46.2544C119.108 44.5722 117.791 43.1619 116.109 43.1043Z" fill="#513925"/>
<path d="M114.432 46.8334C114.855 46.8334 115.197 46.4912 115.197 46.069C115.197 45.6469 114.855 45.3047 114.432 45.3047C114.01 45.3047 113.668 45.6469 113.668 46.069C113.668 46.4912 114.01 46.8334 114.432 46.8334Z" fill="white"/>
<path d="M113.236 35.0878C115.324 32.9564 117.338 33.025 119.274 35.2935" stroke="#513925" stroke-width="1.46992" stroke-linecap="round" stroke-linejoin="round"/>
<path d="M132.893 35.0878C134.98 32.9564 136.994 33.025 138.93 35.2935" stroke="#513925" stroke-width="1.46992" stroke-linecap="round" stroke-linejoin="round"/>
<path d="M110.195 55.5007C110.238 54.2648 107.691 53.1745 104.507 53.0654C101.324 52.9564 98.7086 53.8699 98.6664 55.1059C98.6241 56.3418 101.171 57.4321 104.354 57.5412C107.538 57.6502 110.153 56.7366 110.195 55.5007Z" fill="#FF7471" stroke="#513925" stroke-width="1.46992" stroke-linecap="round" stroke-linejoin="round"/>
<path d="M152.457 55.4926C152.499 54.2566 149.953 53.1664 146.769 53.0575C143.586 52.9485 140.97 53.8621 140.928 55.0981C140.886 56.334 143.432 57.4242 146.616 57.5332C149.8 57.6421 152.415 56.7285 152.457 55.4926Z" fill="#FF7471" stroke="#513925" stroke-width="1.46992" stroke-linecap="round" stroke-linejoin="round"/>
<path d="M174.96 102.13C174.833 99.9104 177.092 98.2396 179.777 98.906C180.37 99.053 180.851 99.3616 180.792 99.8124C180.493 101.998 181.644 110.455 184.658 119.098" stroke="#513925" stroke-width="1.46992" stroke-linecap="round" stroke-linejoin="round"/>
<path d="M119.013 84.6299L118.141 82.3271C118.141 82.3271 146.054 75.7565 152.806 83.6304" fill="white"/>
<path d="M119.013 84.6299L118.141 82.3271C118.141 82.3271 146.054 75.7565 152.806 83.6304" stroke="#513925" stroke-width="1.46992" stroke-linecap="round" stroke-linejoin="round"/>
<path d="M118.66 87.8897L117.199 85.1802C117.199 85.1802 144.426 76.4097 152.811 83.6368" fill="white"/>
<path d="M118.66 87.8897L117.199 85.1802C117.199 85.1802 144.426 76.4097 152.811 83.6368" stroke="#513925" stroke-width="1.46992" stroke-linecap="round" stroke-linejoin="round"/>
<path d="M176.47 64.8193L175.784 62.5703C175.784 62.5703 157.163 71.184 153.242 83.6293" fill="white"/>
<path d="M176.47 64.8193L175.784 62.5703C175.784 62.5703 157.163 71.184 153.242 83.6293" stroke="#513925" stroke-width="1.46992" stroke-linecap="round" stroke-linejoin="round"/>
<path d="M179.807 67.0274L178.489 64.1953C178.489 64.1953 161.861 68.3454 153.736 83.0299" fill="white"/>
<path d="M179.807 67.0274L178.489 64.1953C178.489 64.1953 161.861 68.3454 153.736 83.0299" stroke="#513925" stroke-width="1.46992" stroke-linecap="round" stroke-linejoin="round"/>
<path d="M116.719 89.0333C116.719 89.0333 130.901 79.2779 151.203 83.6289C152.575 83.5799 153.756 83.2173 154.663 82.399C159.338 77.6953 170.119 65.936 182.277 67.0776L194.518 99.7441C194.518 99.7441 178.744 102.645 166.909 114.987C166.434 116.192 165.434 116.712 164.175 116.883C164.175 116.883 138.442 117.422 128.617 122.538L116.719 89.0333Z" fill="#FFF492" stroke="#513925" stroke-width="1.46992" stroke-linecap="round" stroke-linejoin="round"/>
<path d="M166.904 114.992L154.893 83.0312C153.742 84.3346 151.473 84.3346 151.473 84.3346L164.165 116.888C164.165 116.888 166.223 116.952 166.899 114.992H166.904Z" fill="white" stroke="#513925" stroke-width="1.46992" stroke-linecap="round" stroke-linejoin="round"/>
<g style="mix-blend-mode:color-burn" opacity="0.15">
<path d="M116.719 89.0333C116.719 89.0333 130.901 79.2779 151.203 83.6289C152.575 83.5799 153.756 83.2173 154.663 82.399C159.338 77.6953 170.119 65.936 182.277 67.0776L194.518 99.7441C194.518 99.7441 178.744 102.645 166.909 114.987C166.434 116.192 165.434 116.712 164.175 116.883C164.175 116.883 138.442 117.422 128.617 122.538L116.719 89.0333Z" fill="black"/>
</g>
<path d="M127.288 106.934C127.288 106.934 137.888 99.6036 154.657 101.49L158.68 112.524C158.68 112.524 138.486 113.759 130.924 118.076L127.283 106.934H127.288Z" fill="white" stroke="#513925" stroke-width="1.46992" stroke-linecap="round" stroke-linejoin="round"/>
<path d="M196.877 117.427C201.474 135.904 194.103 148.055 187.076 146.943C180.049 145.831 160.77 130.843 154.258 123.351C147.745 115.854 153.175 115.114 153.175 115.114L156.943 118.074C156.943 118.074 150.048 108.083 150.176 102.13C150.303 96.177 155.017 97.0687 155.017 97.0687L161.922 107.461C154.003 89.724 161.157 86.0591 161.157 86.0591C161.157 86.0591 164.48 83.1927 166.519 87.2595C168.562 91.3312 176.805 105.075 181.681 113.909C181.681 113.909 187.105 121.822 187.105 128.069" fill="#FFF492"/>
<path d="M196.877 117.427C201.474 135.904 194.103 148.055 187.076 146.943C180.049 145.831 160.77 130.843 154.258 123.351C147.745 115.854 153.175 115.114 153.175 115.114L156.943 118.074C156.943 118.074 150.048 108.083 150.176 102.13C150.303 96.177 155.017 97.0687 155.017 97.0687L161.922 107.461C154.003 89.724 161.157 86.0591 161.157 86.0591C161.157 86.0591 164.48 83.1927 166.519 87.2595C168.562 91.3312 176.805 105.075 181.681 113.909C181.681 113.909 187.105 121.822 187.105 128.069" stroke="#513925" stroke-width="1.46992" stroke-linecap="round" stroke-linejoin="round"/>
<g style="mix-blend-mode:color-burn" opacity="0.15">
<path d="M187.077 146.946C181.27 146.029 167.103 135.637 158.684 127.827C167.152 135.147 178.923 143.452 184.083 144.265C191.11 145.378 199.941 137.097 196.873 117.43C201.47 135.907 194.099 148.058 187.077 146.946Z" fill="black"/>
</g>
<g style="mix-blend-mode:color-burn" opacity="0.15">
<path d="M157.468 116.409L162.956 125.175C162.956 125.175 156.086 116.777 154.027 113.298C152.16 109.912 150.102 105.409 150.176 102.136C150.23 99.6327 151.087 98.3441 152.072 97.6875C151.842 98.3343 151.69 99.1378 151.665 100.128C151.538 105.988 157.262 116.106 157.468 116.409Z" fill="black"/>
</g>
<g style="mix-blend-mode:color-burn" opacity="0.15">
<path d="M168.974 118.075L159.864 103.641C156.561 91.5676 159.565 87.3441 160.677 86.3984C159.349 89.1276 159.864 97.1876 168.974 118.075Z" fill="black"/>
</g>
<path d="M161.922 107.461C161.922 107.461 167.543 116.501 171.243 120.617L161.922 107.461Z" fill="#FFF492"/>
<path d="M161.922 107.461C161.922 107.461 167.543 116.501 171.243 120.617" stroke="#513925" stroke-width="1.46992" stroke-linecap="round" stroke-linejoin="round"/>
<path d="M156.939 118.078C156.939 118.078 162.173 124.462 164.344 126.682L156.939 118.078Z" fill="#FFF492"/>
<path d="M156.939 118.078C156.939 118.078 162.173 124.462 164.344 126.682" stroke="#513925" stroke-width="1.46992" stroke-linecap="round" stroke-linejoin="round"/>
<path d="M221.814 60.6032C222.034 57.7026 222.123 54.2728 222.123 51.5387C222.123 48.4421 221.76 47.7758 221.535 47.3299C221.314 46.9379 221.172 46.5508 221.172 45.7669C221.172 41.4747 229.875 41.4453 231.546 41.4453C234.697 41.4453 238.657 41.8618 238.657 45.3504C238.657 46.9673 237.373 49.3094 235.981 50.9018C238.27 51.5436 239.411 53.0773 239.411 55.1106C239.411 60.1329 232.967 64.3417 226.469 64.3417C223.931 64.3417 221.809 63.6166 221.809 60.7992V60.6032H221.814ZM227.111 55.1645C226.999 55.1939 226.832 55.2184 226.665 55.2184C226.636 56.0808 226.611 57.144 226.611 57.5066C226.611 57.8986 226.641 58.2857 226.695 58.7315C227.111 58.7854 227.587 58.7854 228.062 58.7854C230.042 58.7854 234.256 58.2269 234.256 56.218C234.256 55.1302 231.997 54.8804 230.939 54.8804C229.321 54.8804 228.454 54.993 227.092 55.1596H227.121L227.111 55.1645ZM226.695 47.2711C226.641 47.9962 226.641 48.692 226.641 49.3633V50.3971C231.076 50.0884 232.722 48.2216 232.722 46.9673C232.722 46.6586 232.276 46.4626 231.551 46.4626C230.071 46.4626 228.091 46.7958 226.7 47.2711H226.695Z" fill="white" stroke="#513925" stroke-width="1.46992" stroke-linecap="round" stroke-linejoin="round"/>
<path d="M251.226 23.1197C252.246 23.3892 254.333 24.3055 254.456 25.9322C254.392 27.3923 253.476 27.8724 252.603 27.892C251.52 27.5589 251.123 26.8092 249.624 26.8092C247.228 26.8092 244.723 29.3718 244.723 31.851C244.723 34.3303 245.993 36.1873 248.663 36.1873C250.246 36.1873 251.52 35.7267 252.206 35.4768C252.643 35.3102 253 35.1828 253.187 35.1828C254.103 35.1828 255 36.643 255 37.2897C255 38.9164 252.584 40.3129 248.977 40.3129C243.998 40.3129 240.705 36.834 240.705 32.5174C240.705 27.9116 244.292 22.9531 249.501 22.9531C250.104 22.9531 250.712 23.0168 251.231 23.1197H251.226Z" fill="#FFB743" stroke="#513925" stroke-width="1.46992" stroke-linecap="round" stroke-linejoin="round"/>
<path d="M205.406 56.0296C205.406 55.7552 205.328 53.859 205.009 51.566C203.627 51.5268 201.77 51.566 199.717 51.566H195.056C194.743 54.0942 194.66 55.7503 194.66 57.4505C194.66 59.3075 193.63 61.0861 191.303 61.0861C189.171 61.0861 187.51 59.6652 187.51 57.4946C187.51 53.6239 189.681 27.6406 201.099 27.6406C207.969 27.6406 210.537 40.9483 211.248 45.6079C211.88 49.8707 212.076 52.9134 212.076 56.0345C212.076 57.8523 210.258 59.7485 208.758 59.7485C206.386 59.7485 205.401 57.8523 205.401 56.0345L205.406 56.0296ZM196.046 43.9469C198.536 43.9861 201.496 44.1037 203.431 44.1821C203.789 44.1821 203.392 44.1821 203.745 44.1821C203.191 39.64 201.692 37.1902 200.192 37.1902C198.492 37.1902 196.953 39.7968 196.046 43.942V43.9469Z" fill="#FFB743" stroke="#513925" stroke-width="1.46992" stroke-linecap="round" stroke-linejoin="round"/>
<path d="M194.033 37.2016C194.033 37.2016 192.95 37.0448 193.038 38.2991C193.102 39.2448 193.93 38.7646 194.337 38.4706C194.528 38.3334 194.665 38.1276 194.695 37.8924C194.729 37.6181 194.636 37.2849 194.038 37.2016H194.033Z" fill="white"/>
<path d="M194.723 36.3301C195.027 36.4036 195.429 36.3154 195.517 36.0166C195.821 34.9435 197.222 32.9395 198.702 32.2683C199.148 32.0674 199.119 31.3961 198.746 31.0776L198.629 30.9747C198.32 30.7102 197.948 30.8473 197.595 31.0433C196.453 31.6558 194.87 33.2629 194.287 35.1885C194.135 35.6883 194.218 36.2125 194.728 36.3301H194.723Z" fill="white"/>
<g style="mix-blend-mode:multiply" opacity="0.15">
<path d="M37.17 220.994C57.6984 220.994 74.34 219.508 74.34 217.676C74.34 215.844 57.6984 214.359 37.17 214.359C16.6416 214.359 0 215.844 0 217.676C0 219.508 16.6416 220.994 37.17 220.994Z" fill="black"/>
</g>
<path d="M9.64877 208.231V213.273C9.64877 214.571 10.5554 214.635 11.6678 214.635H65.6953V217.379H9.13422C8.02182 217.379 7.11523 216.325 7.11523 215.037V206.462C7.11523 205.174 8.02182 204.125 9.13422 204.125H65.6953V206.869H11.6678C10.5554 206.869 9.64877 206.937 9.64877 208.226V208.231Z" fill="#66AAA3" stroke="#513925" stroke-width="1.46992" stroke-linecap="round" stroke-linejoin="round"/>
<path d="M64.4944 206.875V214.636H11.6233C10.5354 214.636 9.64844 214.568 9.64844 213.274V208.232C9.64844 206.944 10.5354 206.875 11.6233 206.875H64.4944Z" fill="white" stroke="#513925" stroke-width="1.46992" stroke-linecap="round" stroke-linejoin="round"/>
<path d="M7.37924 194.981V200.023C7.37924 201.321 8.28583 201.385 9.39823 201.385H63.4258V204.129H6.86469C5.75229 204.129 4.8457 203.075 4.8457 201.787V193.212C4.8457 191.924 5.75229 190.875 6.86469 190.875H63.4258V193.619H9.39823C8.28583 193.619 7.37924 193.687 7.37924 194.976V194.981Z" fill="#B1DDB6" stroke="#513925" stroke-width="1.46992" stroke-linecap="round" stroke-linejoin="round"/>
<path d="M62.2249 193.625V201.386H9.35379C8.26589 201.386 7.37891 201.318 7.37891 200.024V194.982C7.37891 193.694 8.26589 193.625 9.35379 193.625H62.2249Z" fill="white" stroke="#513925" stroke-width="1.46992" stroke-linecap="round" stroke-linejoin="round"/>
<path d="M15.0886 184.049V186.935C15.0886 187.988 15.8923 187.856 16.8821 187.856H64.495V190.874H13.344C12.8589 190.874 12.457 190.453 12.457 189.933V181.045C12.457 180.531 12.8491 180.109 13.3342 180.109H64.4901V183.128H16.8821C15.8972 183.128 15.0886 183.005 15.0886 184.049Z" fill="#DBDBB2" stroke="#513925" stroke-width="1.46992" stroke-linecap="round" stroke-linejoin="round"/>
<path d="M63.426 183.125V187.859H16.8423C15.8769 187.859 15.0879 187.991 15.0879 186.937V184.047C15.0879 182.998 15.8769 183.13 16.8423 183.13H63.426V183.125Z" fill="white" stroke="#513925" stroke-width="1.46992" stroke-linecap="round" stroke-linejoin="round"/>
<path d="M43.9023 209.438H64.4941" stroke="#513925" stroke-width="1.46992" stroke-linecap="round" stroke-linejoin="round"/>
<path d="M52.7637 212.109H64.4954" stroke="#513925" stroke-width="1.46992" stroke-linecap="round" stroke-linejoin="round"/>
<path d="M7.37891 196.664H46.0827" stroke="#513925" stroke-width="1.46992" stroke-linecap="round" stroke-linejoin="round"/>
<path d="M43.6328 199.062H61.9311" stroke="#513925" stroke-width="1.46992" stroke-linecap="round" stroke-linejoin="round"/>
<path d="M9.64844 212.109H40.5654" stroke="#513925" stroke-width="1.46992" stroke-linecap="round" stroke-linejoin="round"/>
<path d="M25.0261 209.438H9.64844" stroke="#513925" stroke-width="1.46992" stroke-linecap="round" stroke-linejoin="round"/>
</svg>
