<svg width="32" height="32" viewBox="0 0 32 32" fill="none" xmlns="http://www.w3.org/2000/svg">
<path d="M24.5182 21.5545C22.7671 18.6078 21.016 15.6656 19.2693 12.7145C19.216 12.6256 19.1671 12.5145 19.1671 12.4123C19.1626 11.0301 19.1626 9.64785 19.1671 8.26562H12.5626C12.5626 9.61674 12.5626 10.9678 12.5582 12.319C12.5582 12.4567 12.5137 12.6078 12.4426 12.7278C10.696 15.6745 8.9493 18.6212 7.19374 21.5678C6.69596 22.4078 6.5093 23.2967 6.79374 24.2434C7.24707 25.759 8.4693 26.6567 10.0515 26.6612C11.9849 26.6612 13.9226 26.6612 15.856 26.6612C17.1004 26.6612 18.3493 26.6612 19.5937 26.6612C20.3537 26.6612 21.1182 26.679 21.8782 26.6523C22.9537 26.6123 23.8337 26.1501 24.4382 25.2567C25.256 24.0523 25.2515 22.8034 24.5137 21.559L24.5182 21.5545Z" fill="#FFF6E0"/>
<path d="M18.6293 5.32812H13.096C12.097 5.32812 11.2871 6.13799 11.2871 7.13701C11.2871 8.13604 12.097 8.9459 13.096 8.9459H18.6293C19.6284 8.9459 20.4382 8.13604 20.4382 7.13701C20.4382 6.13799 19.6284 5.32812 18.6293 5.32812Z" fill="#FFC747"/>
<path d="M16.9492 10.0894C16.9492 10.2139 17.047 10.3116 17.1714 10.3116H19.1626C19.1626 10.165 19.1626 10.0139 19.1626 9.86719H17.1714C17.047 9.86719 16.9492 9.96497 16.9492 10.0894Z" fill="#D19500"/>
<path d="M16.9492 11.5191C16.9492 11.6435 17.047 11.7413 17.1714 11.7413H19.1626C19.1626 11.5947 19.1626 11.4435 19.1626 11.2969H17.1714C17.047 11.2969 16.9492 11.3947 16.9492 11.5191Z" fill="#D19500"/>
<path d="M20.4885 14.7578C19.8352 14.8823 19.1863 15.0511 18.564 15.2467C16.2707 15.9623 14.0396 17.0023 11.644 17.2156C11.0263 17.2689 10.404 17.26 9.79071 17.2023C8.92849 18.6556 8.06627 20.1134 7.1996 21.5667C6.70182 22.4067 6.51516 23.2956 6.7996 24.2423C7.25293 25.7578 8.47516 26.6556 10.0574 26.66C11.9907 26.66 13.9285 26.66 15.8618 26.66C17.1063 26.66 18.3552 26.66 19.5996 26.66C20.3596 26.66 21.124 26.6778 21.884 26.6511C22.9596 26.6111 23.8396 26.1489 24.444 25.2556C25.2618 24.0511 25.2574 22.8023 24.5196 21.5578C23.1774 19.2956 21.8307 17.0289 20.484 14.7667L20.4885 14.7578Z" fill="#FFC747"/>
</svg>