<svg width="32" height="32" viewBox="0 0 32 32" fill="none" xmlns="http://www.w3.org/2000/svg">
  <path d="M6.67188 9.60156V24.6522C6.70473 25.1974 6.96498 25.7104 7.39905 26.0854C7.83313 26.4604 8.40798 26.669 9.00521 26.6682H23.0052C23.6024 26.669 24.1772 26.4604 24.6114 26.0854C25.0455 25.7104 25.3056 25.1974 25.3385 24.6522V9.60156H6.67188Z" fill="#F9F9F9"/>
  <path d="M20.8941 13.3359H11.1163C10.8709 13.3359 10.6719 13.4852 10.6719 13.6693V14.3359C10.6719 14.52 10.8709 14.6693 11.1163 14.6693H20.8941C21.1396 14.6693 21.3385 14.52 21.3385 14.3359V13.6693C21.3385 13.4852 21.1396 13.3359 20.8941 13.3359Z" fill="#FFD368"/>
  <path d="M25.3385 7.46927C25.3385 6.90347 25.0927 6.36084 24.6551 5.96077C24.2175 5.56069 23.624 5.33594 23.0052 5.33594H9.00521C8.38637 5.33594 7.79288 5.56069 7.3553 5.96077C6.9177 6.36084 6.67188 6.90347 6.67188 7.46927V9.6026H25.3385V7.46927Z" fill="#FFD368"/>
  <path d="M20.8941 17.0703H11.1163C10.8709 17.0703 10.6719 17.2196 10.6719 17.4036V18.0703C10.6719 18.2544 10.8709 18.4036 11.1163 18.4036H20.8941C21.1396 18.4036 21.3385 18.2544 21.3385 18.0703V17.4036C21.3385 17.2196 21.1396 17.0703 20.8941 17.0703Z" fill="#FFD368"/>
  <path d="M20.8941 20.8047H11.1163C10.8709 20.8047 10.6719 20.954 10.6719 21.138V21.8047C10.6719 21.9888 10.8709 22.138 11.1163 22.138H20.8941C21.1396 22.138 21.3385 21.9888 21.3385 21.8047V21.138C21.3385 20.954 21.1396 20.8047 20.8941 20.8047Z" fill="#FFD368"/>
</svg>