                            <svg class="english-character" width="167" height="202" viewBox="0 0 167 202" fill="none" xmlns="http://www.w3.org/2000/svg">
                                <path d="M154.486 140.784C154.486 140.784 168.776 109.954 177.482 113.424C186.188 116.894 173.552 142.68 173.552 142.68C173.552 142.68 151.87 174.831 146.045 163.797C140.221 152.769 154.492 140.784 154.492 140.784H154.486Z" fill="#FFB743" stroke="#513925" stroke-width="1.85185" stroke-linecap="round" stroke-linejoin="round" />
                                <path d="M156.36 180.326C156.36 180.326 211.718 154.072 203.956 134.85C196.194 115.629 145.988 179.215 145.988 179.215L156.36 180.326Z" fill="#FFB743" stroke="#513925" stroke-width="1.85185" stroke-linecap="round" stroke-linejoin="round" />
                                <g style="mix-blend-mode:color-burn" opacity="0.15">
                                    <path d="M148.191 176.485C147.839 176.917 147.525 177.306 147.253 177.64C147.13 177.788 147.019 177.936 146.908 178.066C146.309 178.813 145.988 179.22 145.988 179.22L156.36 180.332C156.36 180.332 156.403 180.307 156.484 180.276C156.521 180.252 156.582 180.227 156.638 180.202C157.064 179.992 157.964 179.554 159.229 178.912C159.408 178.819 159.593 178.72 159.791 178.628C160.315 178.356 160.901 178.053 161.525 177.726C175.086 170.619 210.237 150.428 203.95 134.856C203.635 134.072 203.246 133.43 202.796 132.911C206.677 147.366 178.677 164.5 164.122 172.373C164.19 172.015 164.036 170.366 164.036 170.366C164.036 170.366 186.316 145.945 192.147 133.393C183.657 137.962 172.408 149.039 163.147 159.165C159.316 163.352 155.817 167.378 152.997 170.706C152.294 171.545 151.622 172.336 151.011 173.071L148.185 176.497L148.191 176.485Z" fill="black" />
                                </g>
                                <path d="M156.262 146.582C156.262 146.582 171.484 115.555 189.969 116.678C208.455 117.808 164.518 168.533 158.952 170.873C153.387 173.213 143.934 169.496 156.262 146.576V146.582Z" fill="white" stroke="#513925" stroke-width="1.85185" stroke-linecap="round" stroke-linejoin="round" />
                                <g style="mix-blend-mode:multiply" opacity="0.15">
                                    <path d="M163.369 163.087C174.37 151.769 194.738 126.181 192.56 117.358C192.671 117.419 192.776 117.494 192.881 117.561C192.899 117.574 192.918 117.586 192.936 117.598C193.035 117.673 193.127 117.747 193.22 117.833C193.22 117.833 193.222 117.835 193.226 117.839C193.306 117.913 193.387 117.994 193.461 118.08C193.485 118.099 193.498 118.123 193.522 118.154C193.578 118.216 193.633 118.284 193.683 118.358C193.72 118.401 193.744 118.438 193.775 118.488C193.818 118.549 193.868 118.623 193.905 118.691C193.93 118.728 193.954 118.772 193.967 118.815C194.016 118.907 194.059 119 194.102 119.099C194.102 119.099 194.102 119.105 194.102 119.111C194.146 119.204 194.176 119.303 194.207 119.401C194.226 119.451 194.244 119.5 194.25 119.556C194.275 119.636 194.3 119.716 194.312 119.797C194.331 119.865 194.343 119.92 194.355 119.994C194.374 120.093 194.392 120.192 194.405 120.303C194.411 120.365 194.423 120.433 194.429 120.501C194.454 120.754 194.46 121.025 194.46 121.303C194.46 121.39 194.46 121.495 194.454 121.587C194.454 121.624 194.454 121.668 194.448 121.705C194.448 121.773 194.448 121.84 194.436 121.902C194.429 122.026 194.411 122.162 194.392 122.291C194.392 122.291 194.392 122.31 194.392 122.316C194.368 122.476 194.343 122.637 194.318 122.81C194.312 122.816 194.318 122.828 194.312 122.835C194.287 122.983 194.263 123.137 194.226 123.291C194.102 123.89 193.936 124.533 193.726 125.199C193.683 125.329 193.646 125.465 193.59 125.595C193.572 125.65 193.553 125.706 193.541 125.755C193.479 125.928 193.411 126.107 193.343 126.286C193.276 126.471 193.208 126.657 193.134 126.836C193.053 127.052 192.967 127.262 192.874 127.484C192.776 127.712 192.677 127.941 192.572 128.176C192.48 128.386 192.387 128.602 192.282 128.812C192.282 128.824 192.27 128.83 192.27 128.842C192.183 129.028 192.097 129.213 192.011 129.404C191.56 130.331 191.073 131.288 190.536 132.263C190.413 132.498 190.283 132.726 190.153 132.955C190.055 133.128 189.962 133.301 189.863 133.467C189.697 133.764 189.518 134.066 189.345 134.363C188.111 136.456 186.711 138.635 185.199 140.846C184.983 141.161 184.767 141.476 184.545 141.797C184.125 142.396 183.706 142.995 183.274 143.587C183.126 143.797 182.978 144.001 182.83 144.205C181.663 145.816 180.454 147.422 179.232 149.003C179.041 149.256 178.844 149.515 178.64 149.768C177.153 151.67 175.648 153.535 174.167 155.313C173.945 155.585 173.71 155.856 173.488 156.122C169.675 160.648 166.041 164.6 163.289 167.286C163.036 167.539 162.789 167.773 162.555 167.996C162.314 168.224 162.08 168.44 161.864 168.638C160.531 169.848 159.519 170.645 158.927 170.885C157.545 171.472 155.928 171.676 154.46 171.311C154.33 171.281 154.2 171.243 154.077 171.2C153.948 171.163 153.824 171.114 153.701 171.058C153.577 171.009 153.46 170.953 153.337 170.898C153.219 170.842 153.102 170.774 152.985 170.7C152.923 170.663 152.862 170.626 152.794 170.583C152.72 170.527 152.646 170.478 152.572 170.422C152.498 170.373 152.43 170.317 152.362 170.256C152.343 170.237 152.331 170.231 152.319 170.218C152.319 170.218 152.319 170.212 152.306 170.212C152.238 170.151 152.164 170.089 152.103 170.021C152.066 169.984 152.022 169.953 151.992 169.91C151.948 169.873 151.918 169.836 151.881 169.792C151.831 169.743 151.788 169.694 151.739 169.632C151.732 169.626 151.72 169.613 151.714 169.601C151.554 169.403 151.399 169.187 151.257 168.947V168.934C151.14 168.755 151.041 168.564 150.949 168.366C150.9 168.255 150.85 168.138 150.801 168.02C150.801 168.02 150.801 168.014 150.795 168.008C150.739 167.866 150.684 167.724 150.64 167.57C150.579 167.384 150.529 167.193 150.474 166.995C150.443 166.866 150.412 166.73 150.387 166.594C150.387 166.582 150.387 166.569 150.381 166.551C150.35 166.403 150.32 166.248 150.307 166.088C150.301 166.069 150.301 166.044 150.295 166.026C149.783 162.179 146.932 149.811 153.546 141.618C156.675 147.039 161.728 157.511 163.351 163.087H163.369Z" fill="black" />
                                </g>
                                <path d="M105.754 3.38583C105.754 3.38583 108.123 0.273832 109.987 1.43466C111.85 2.59548 111.048 5.21352 111.048 5.21352L105.754 3.38583Z" fill="white" stroke="#513925" stroke-width="1.85185" stroke-linecap="round" stroke-linejoin="round" />
                                <g style="mix-blend-mode:color-burn" opacity="0.15">
                                    <path d="M111.048 5.21335L105.76 3.38566C105.76 3.38566 105.92 3.17572 106.186 2.89169L109.505 4.03399C109.505 4.03399 109.999 2.43477 109.326 1.1875C109.548 1.21837 109.776 1.29864 109.992 1.42831C111.862 2.58914 111.054 5.20717 111.054 5.20717L111.048 5.21335Z" fill="black" />
                                </g>
                                <path d="M89.3096 11.5053C89.3096 11.5053 98.7683 -0.751309 110.066 4.67617C121.363 10.1037 115.613 33.2276 115.613 33.2276C115.613 33.2276 86.3973 28.8745 89.3096 11.5053Z" fill="white" stroke="#513925" stroke-width="1.85185" stroke-linecap="round" stroke-linejoin="round" />
                                <path d="M115.614 33.2274C115.614 33.2274 111.9 32.6779 107.254 31.1775C106.828 29.2386 107.167 26.8614 109.314 24.1755C115.09 16.9512 111.153 5.51579 111.048 5.22559C121.025 11.4866 115.62 33.2336 115.62 33.2336L115.614 33.2274Z" fill="#FFB743" stroke="#513925" stroke-width="1.85185" stroke-linecap="round" stroke-linejoin="round" />
                                <path d="M115.612 33.2278C115.612 33.2278 92.184 29.7391 89.3828 16.5378C95.4788 23.1693 104.586 27.3557 104.586 27.3557C104.586 27.3557 112.076 14.4693 110.577 4.94189C121.183 10.8139 115.612 33.2216 115.612 33.2216V33.2278Z" fill="#FFB743" stroke="#513925" stroke-width="1.85185" stroke-linecap="round" stroke-linejoin="round" />
                                <path d="M90.6925 13.0677C90.6925 13.0677 94.5488 8.06626 97.461 8.88748C100.373 9.70253 102.453 15.0559 99.3182 20.1623C96.1839 25.2625 88.4034 17.9765 90.6925 13.0739V13.0677Z" fill="#FFB743" stroke="#513925" stroke-width="1.85185" stroke-linecap="round" stroke-linejoin="round" />
                                <path d="M67.3134 19.304C67.3134 19.304 60.551 4.10828 73.4156 1.21239C86.2801 -1.6835 99.1386 25.9911 99.1386 25.9911L67.3134 19.2978V19.304Z" fill="#FFB743" stroke="#513925" stroke-width="1.85185" stroke-linecap="round" stroke-linejoin="round" />
                                <g style="mix-blend-mode:color-burn" opacity="0.15">
                                    <path d="M95.1038 25.1513L67.3077 19.304C67.3077 19.304 64.056 12.0056 66.3513 6.56577C67.5298 5.50374 69.1463 4.65782 71.3244 4.17002C81.178 1.95334 91.0316 17.6801 95.1038 25.1513Z" fill="black" />
                                </g>
                                <path d="M8.89709 104.865C8.89709 104.865 -6.65148 153.904 5.8861 179.646C18.4298 205.388 58.9425 184.474 58.9425 184.474L8.89709 104.865Z" fill="#FFF492" stroke="#513925" stroke-width="1.85185" stroke-linecap="round" stroke-linejoin="round" />
                                <g style="mix-blend-mode:color-burn" opacity="0.15">
                                    <path d="M58.9421 184.475C58.9421 184.475 24.2231 202.399 9.11878 184.641C25.7471 194.78 53.9628 180.214 53.9628 180.214L8.15625 107.36C8.61283 105.754 8.89666 104.859 8.89666 104.859L58.9421 184.475Z" fill="black" />
                                </g>
                                <path d="M13.2974 67.7558C16.2159 52.0908 25.4339 38.0065 39.2302 28.9545C49.3923 22.286 61.7263 18.3774 75.0228 18.3774C97.3029 18.3774 116.881 29.3497 128.067 45.8977C128.067 45.8977 148.582 72.7758 143.517 125.569C143.517 125.569 149.187 130.595 147.496 133.571L146.17 136.084C146.17 136.084 164.982 157.794 161.243 179.053C157.504 200.306 146.17 227.048 89.979 219.738C33.7882 212.421 14.0131 184.542 8.94752 147.056C5.00485 117.869 10.6258 82.1426 13.3036 67.7558H13.2974Z" fill="#FFF492" stroke="#513925" stroke-width="1.85185" stroke-linecap="round" stroke-linejoin="round" />
                                <g style="mix-blend-mode:color-burn" opacity="0.15">
                                    <path d="M91.2363 20.915C86.8061 19.8283 81.1173 20.8841 72.1707 22.0141C62.8725 23.1934 65.5071 19.7233 65.6366 19.5566C68.7279 19.0811 71.8931 18.8403 75.1139 18.8403C80.6854 18.8403 86.0843 19.5628 91.2301 20.9212L91.2363 20.915Z" fill="black" />
                                </g>
                                <g style="mix-blend-mode:color-burn" opacity="0.15">
                                    <path d="M141.585 141.345C141.585 141.345 154.35 150.163 150.611 171.416C146.872 192.669 135.538 219.411 79.347 212.1C59.0475 209.457 43.499 204.135 31.6895 196.639C44.2764 208.179 62.7311 216.274 89.3672 219.738C145.564 227.049 156.899 200.307 160.638 179.047C164.377 157.794 145.564 136.078 145.564 136.078L146.891 133.565C148.581 130.595 142.911 125.563 142.911 125.563C147.977 72.77 127.461 45.892 127.461 45.892C122.605 38.7109 116.176 32.5857 108.624 27.9424C111.95 31.0482 114.905 34.506 117.435 38.2478C117.435 38.2478 141.264 60.9518 138.413 129.811C138.37 130.91 139.215 131.83 140.357 131.997C144.484 132.608 143.399 135.195 141.585 141.333V141.345Z" fill="black" />
                                </g>
                                <path d="M143.516 125.328L143.115 130.317" stroke="#513925" stroke-width="1.85185" stroke-linecap="round" stroke-linejoin="round" />
                                <path d="M146.169 136.066L143.115 141.617" stroke="#513925" stroke-width="1.85185" stroke-linecap="round" stroke-linejoin="round" />
                                <path d="M103.319 220.973V230.099C103.319 230.099 102.251 243.474 127.981 244.085C127.981 244.085 144.374 244.085 147.435 236.768C149.878 230.933 151.235 209.526 135.156 205.111C119.077 200.69 107.662 220.967 107.662 220.967H103.319V220.973Z" fill="#FFB743" stroke="#513925" stroke-width="1.85185" stroke-linecap="round" stroke-linejoin="round" />
                                <path d="M137.363 143.13C143.151 175.262 133.871 196.386 125.023 194.459C116.182 192.527 91.9024 166.464 83.7024 153.429C75.5024 140.394 82.3388 139.11 82.3388 139.11L87.0836 144.26C87.0836 144.26 78.4023 126.884 78.5627 116.536C78.7232 106.187 84.6588 107.737 84.6588 107.737L93.3524 125.804C83.3816 94.9555 92.3899 88.5895 92.3899 88.5895C92.3899 88.5895 96.5732 83.6004 99.1399 90.6826C101.713 97.7649 112.091 121.661 118.23 137.023C118.23 137.023 125.06 150.786 125.06 161.647" fill="#FFF492" />
                                <path d="M137.363 143.13C143.151 175.262 133.871 196.386 125.023 194.459C116.182 192.527 91.9024 166.464 83.7024 153.429C75.5024 140.394 82.3388 139.11 82.3388 139.11L87.0836 144.26C87.0836 144.26 78.4023 126.884 78.5627 116.536C78.7232 106.187 84.6588 107.737 84.6588 107.737L93.3524 125.804C83.3816 94.9555 92.3899 88.5895 92.3899 88.5895C92.3899 88.5895 96.5732 83.6004 99.1399 90.6826C101.713 97.7649 112.091 121.661 118.23 137.023C118.23 137.023 125.06 150.786 125.06 161.647" stroke="#513925" stroke-width="1.85185" stroke-linecap="round" stroke-linejoin="round" />
                                <g style="mix-blend-mode:color-burn" opacity="0.15">
                                    <path d="M125.023 194.453C117.711 192.86 99.8736 174.787 89.2734 161.203C99.9353 173.929 114.756 188.371 121.253 189.785C130.101 191.718 141.219 177.319 137.357 143.124C143.144 175.256 133.865 196.386 125.023 194.453Z" fill="black" />
                                </g>
                                <g style="mix-blend-mode:color-burn" opacity="0.15">
                                    <path d="M87.744 141.357L94.6545 156.596C94.6545 156.596 86.0041 141.993 83.4126 135.942C81.0618 130.058 78.4704 122.222 78.563 116.529C78.6308 112.182 79.7106 109.929 80.9508 108.799C80.6608 109.922 80.4695 111.318 80.4387 113.047C80.2782 123.235 87.4849 140.832 87.744 141.363V141.357Z" fill="black" />
                                </g>
                                <g style="mix-blend-mode:color-burn" opacity="0.15">
                                    <path d="M102.231 144.253L90.7612 119.154C86.6026 98.1537 90.3848 90.8183 91.7854 89.1697C90.1133 93.918 90.7612 107.928 102.231 144.253Z" fill="black" />
                                </g>
                                <path d="M93.3535 125.797C93.3535 125.797 100.431 141.518 105.089 148.68L93.3535 125.797Z" fill="#FFF492" />
                                <path d="M93.3535 125.797C93.3535 125.797 100.431 141.518 105.089 148.68" stroke="#513925" stroke-width="1.85185" stroke-linecap="round" stroke-linejoin="round" />
                                <path d="M87.0781 144.253C87.0781 144.253 93.6678 155.355 96.4011 159.214L87.0781 144.253Z" fill="#FFF492" />
                                <path d="M87.0781 144.253C87.0781 144.253 93.6678 155.355 96.4011 159.214" stroke="#513925" stroke-width="1.85185" stroke-linecap="round" stroke-linejoin="round" />
                                <g style="mix-blend-mode:color-burn" opacity="0.15">
                                    <path d="M63.5748 94.1773C65.1235 88.5584 64.6978 81.9886 62.3963 77.6108C59.6198 72.3377 54.3567 67.0955 46.8046 67.2622C32.4962 67.5833 25.9004 87.694 25.9004 87.694C25.9004 87.694 27.2701 111.769 43.7442 113.115C43.7442 113.115 57.8922 114.751 63.5687 94.1711L63.5748 94.1773Z" fill="black" />
                                </g>
                                <path d="M60.5936 91.2007C62.1423 85.5818 61.7166 79.0121 59.4151 74.6343C56.6386 69.3611 51.3755 64.1189 43.8234 64.2856C30.9711 64.5758 24.3445 80.8274 23.129 84.137C22.9871 84.526 22.9377 84.9397 22.9747 85.3472C23.3264 89.1508 25.887 108.922 40.7692 110.138C40.7692 110.138 54.9172 111.775 60.5936 91.1946V91.2007Z" fill="#FFB743" stroke="#513925" stroke-width="1.85185" stroke-linecap="round" stroke-linejoin="round" />
                                <g style="mix-blend-mode:color-burn" opacity="0.15">
                                    <path d="M60.5988 91.2012C51.5227 113.59 40.7744 110.145 40.7744 110.145C37.5105 109.206 34.8326 107.619 32.6484 105.668C34.012 106.446 35.5052 107.088 37.1588 107.558C37.1588 107.558 47.9008 111.003 56.9832 88.614C59.1736 83.2112 58.7787 77.0613 55.8047 72.0475C54.5583 69.9358 52.9726 67.7809 51.0106 65.9902C54.7249 67.9538 57.4768 71.3498 59.4204 74.6347C62.3943 79.6546 62.783 85.7984 60.5988 91.2012Z" fill="black" />
                                </g>
                                <path d="M23.1406 84.7236C27.6941 88.3605 39.7011 89.1694 47.3211 85.9894L23.1406 84.7236Z" fill="#FFB743" />
                                <path d="M23.1406 84.7236C27.6941 88.3605 39.7011 89.1694 47.3211 85.9894" stroke="#513925" stroke-width="1.85185" stroke-linecap="round" stroke-linejoin="round" />
                                <path d="M57.4086 53.9019L57.1187 53.892C55.0004 53.8195 53.2244 55.4792 53.1518 57.5991L52.9079 64.7266C52.8354 66.8465 54.4938 68.6237 56.6121 68.6962L56.9019 68.7061C59.0202 68.7786 60.7963 67.1189 60.8688 64.999L61.1127 57.8715C61.1853 55.7517 59.5269 53.9744 57.4086 53.9019Z" fill="#513925" />
                                <path d="M55.2887 58.778C55.8203 58.778 56.2512 58.3468 56.2512 57.815C56.2512 57.2832 55.8203 56.8521 55.2887 56.8521C54.7571 56.8521 54.3262 57.2832 54.3262 57.815C54.3262 58.3468 54.7571 58.778 55.2887 58.778Z" fill="white" />
                                <path d="M32.0824 54.0724L31.7926 54.0625C29.6743 53.9899 27.8982 55.6496 27.8257 57.7695L27.5819 64.897C27.5094 67.0169 29.1679 68.7942 31.2862 68.8667L31.576 68.8766C33.6943 68.9491 35.4703 67.2894 35.5428 65.1696L35.7866 58.0421C35.8591 55.9222 34.2007 54.1449 32.0824 54.0724Z" fill="#513925" />
                                <path d="M29.9723 58.7775C30.5039 58.7775 30.9348 58.3464 30.9348 57.8145C30.9348 57.2827 30.5039 56.8516 29.9723 56.8516C29.4407 56.8516 29.0098 57.2827 29.0098 57.8145C29.0098 58.3464 29.4407 58.7775 29.9723 58.7775Z" fill="white" />
                                <path d="M28.4609 43.9712C31.0894 41.2852 33.6253 41.3717 36.0625 44.2305" stroke="#513925" stroke-width="1.85185" stroke-linecap="round" stroke-linejoin="round" />
                                <path d="M53.2168 43.9712C55.8452 41.2852 58.3811 41.3717 60.8183 44.2305" stroke="#513925" stroke-width="1.85185" stroke-linecap="round" stroke-linejoin="round" />
                                <path d="M24.6279 69.6892C24.6812 68.1317 21.4749 66.7578 17.4664 66.6205C13.458 66.4832 10.1653 67.6345 10.1121 69.1921C10.0588 70.7496 13.2651 72.1235 17.2735 72.2608C21.282 72.398 24.5746 71.2467 24.6279 69.6892Z" fill="#FF7471" stroke="#513925" stroke-width="1.85185" stroke-linecap="round" stroke-linejoin="round" />
                                <path d="M77.8388 69.6892C77.8921 68.1317 74.6858 66.7578 70.6774 66.6205C66.6689 66.4832 63.3763 67.6345 63.323 69.1921C63.2697 70.7496 66.476 72.1235 70.4845 72.2608C74.4929 72.398 77.7856 71.2467 77.8388 69.6892Z" fill="#FF7471" stroke="#513925" stroke-width="1.85185" stroke-linecap="round" stroke-linejoin="round" />
                                <path d="M109.772 116.529C109.612 112.67 112.456 109.762 115.837 110.923C116.584 111.176 117.189 111.713 117.114 112.503C116.738 116.301 118.188 131.009 121.983 146.038" stroke="#513925" stroke-width="1.85185" stroke-linecap="round" stroke-linejoin="round" />
                            </svg>
