<svg width="239" height="221" viewBox="0 0 239 221" fill="none" xmlns="http://www.w3.org/2000/svg">
<g style="mix-blend-mode:multiply" opacity="0.15">
<path d="M239.002 196.231C239.002 201.132 207.698 205.103 169.075 205.103C130.458 205.103 99.1484 201.132 99.1484 196.231C99.1484 191.33 130.453 187.359 169.075 187.359C207.693 187.359 239.002 191.33 239.002 196.231Z" fill="black"/>
</g>
<path d="M116.421 62.763C116.421 62.763 111.824 77.6892 101.642 88.7829C91.4597 99.8766 81.4792 135.156 96.1317 163.542C110.784 191.927 132.426 196.132 142.566 195.212C151.093 194.436 185.314 180.498 185.245 179.18C185.176 177.862 157.892 53.3438 157.892 53.3438L116.421 62.7683V62.763Z" fill="#86DBD4" stroke="#0B3242" stroke-width="1.59468" stroke-linecap="round" stroke-linejoin="round"/>
<path d="M136.636 194.376C132.972 193.18 129.827 190.777 127.494 187.705C118.176 175.442 110.545 154.456 120.048 132.221C131.466 105.515 117.137 71.6015 116.421 62.7564C115.705 53.9112 118.001 44.7524 130.283 42.1159C142.565 39.474 155.59 41.6906 155.59 41.6906C195.135 67.1045 207.952 152.261 201.191 180.944C196.97 198.868 143.191 195.131 143.191 195.131C140.969 195.349 138.784 195.072 136.636 194.371V194.376Z" fill="#66AAA3" stroke="#0B3242" stroke-width="1.59468" stroke-linecap="round" stroke-linejoin="round"/>
<path opacity="0.3" d="M137.708 47.1485C137.708 47.1485 124.508 46.9837 124.328 61.4847C124.328 61.4847 125.961 73.3013 129.08 77.5006C132.198 81.7 137.247 112.908 134.871 120.079C132.495 127.249 145.726 124.826 145.726 124.826L152 101.586L137.708 47.1538V47.1485Z" fill="black"/>
<g style="mix-blend-mode:color-burn" opacity="0.15">
<path d="M101.642 88.7798C101.907 88.4875 102.177 88.1898 102.437 87.8921C94.2067 102.797 88.6968 132.15 101.239 156.453C104.484 162.747 108.08 167.85 111.808 171.969C113.648 174 116.984 172.155 116.199 169.524C112.99 158.765 112.587 145.997 118.235 132.788C128.597 108.538 117.737 78.34 115.122 66.3692C115.997 64.1367 116.421 62.7546 116.421 62.7546C116.14 59.3207 116.315 55.8496 117.355 52.7188C117.222 54.3825 117.249 56.0888 117.387 57.7739C117.482 58.9061 117.795 60.4476 118.246 62.34C120.993 73.7207 131.222 98.0131 126.068 119.499C125.4 122.268 124.525 125 123.384 127.653C121.422 132.246 120.192 136.79 119.55 141.208C117.106 158.186 121.067 172.984 128.454 182.717C129.202 183.706 130.04 184.62 130.947 185.455C137.586 188.017 143.568 188.485 147.667 188.113C153.967 187.539 174.284 179.788 184.444 175.244C184.954 177.641 185.24 179.039 185.245 179.166C185.288 180.012 171.303 186.018 158.984 190.441C172.794 190.202 192.298 188.416 199.553 180.66C199.5 180.942 199.436 181.229 199.373 181.5C198.206 186.449 193.258 189.745 186.714 191.929C169.553 197.649 141.373 195.687 141.373 195.687C139.151 195.905 136.971 195.629 134.818 194.927C134.807 194.927 134.797 194.917 134.786 194.911C123.607 193.263 107.693 185.923 96.1317 163.523C81.4792 135.137 91.4597 99.8576 101.642 88.7639V88.7798Z" fill="black"/>
</g>
<path d="M129.281 50.5312C126.354 53.1253 122.742 58.4356 125.256 67.9664C129.18 82.8501 141.25 111.06 132.129 128.362" stroke="#0B3242" stroke-width="1.59468" stroke-linecap="round" stroke-linejoin="round"/>
<path d="M133.242 48.0456C133.242 48.0456 141.494 45.2868 144.23 48.9758" stroke="#0B3242" stroke-width="1.59468" stroke-linecap="round" stroke-linejoin="round"/>
<path d="M121.37 83.6797L106.405 95.4963L102.518 130.175L115.887 148.647" stroke="#0B3242" stroke-width="1.59468" stroke-linecap="round" stroke-linejoin="round"/>
<path d="M102.518 130.18L89.4668 142.103" stroke="#0B3242" stroke-width="1.59468" stroke-linecap="round" stroke-linejoin="round"/>
<path d="M106.405 95.4949L101.643 88.7812" stroke="#0B3242" stroke-width="1.59468" stroke-linecap="round" stroke-linejoin="round"/>
<path d="M119.449 173.172L113.828 185.382" stroke="#0B3242" stroke-width="1.59468" stroke-linecap="round" stroke-linejoin="round"/>
<path d="M210.338 118.707C210.338 118.707 227.997 137.812 215.466 171.427C208.228 190.84 201.254 116.081 201.254 116.081C201.254 116.081 205.65 109.049 210.338 118.707Z" fill="#66AAA3" stroke="#0B3242" stroke-width="1.59468" stroke-linecap="round" stroke-linejoin="round"/>
<path d="M138.211 185.658C139.606 186.621 141.16 187.439 142.888 188.12C143.461 188.348 144.034 188.561 144.607 188.763C161.699 194.865 177.051 191.612 190.335 188.837C204.065 185.972 214.841 177.829 216.496 156.742C218.145 135.66 208.615 120.771 208.615 120.771C195.994 105.77 172.034 108.991 148.849 114.684C144.564 115.737 140.746 118.129 137.543 120.882C135.788 122.387 134.218 124.008 132.86 125.56C132.823 125.603 132.786 125.645 132.749 125.688C128.978 130.036 126.868 135.58 126.671 141.337C126.003 160.888 126.73 177.802 138.206 185.664L138.211 185.658Z" fill="#B1DDB6" stroke="#0B3242" stroke-width="1.59468" stroke-linecap="round" stroke-linejoin="round"/>
<g style="mix-blend-mode:color-burn" opacity="0.15">
<path d="M137.464 185.165C138.858 186.127 140.417 186.951 142.141 187.626C142.719 187.855 143.292 188.067 143.859 188.264C160.951 194.372 176.304 191.118 189.593 188.338C197.818 186.621 204.988 183.012 209.766 175.847C205.365 179.908 199.818 182.241 193.692 183.522C180.403 186.303 165.05 189.556 147.958 183.453C147.391 183.251 146.818 183.039 146.24 182.81C144.517 182.135 142.958 181.311 141.563 180.349C130.087 172.487 129.36 155.568 130.029 136.022C130.188 131.233 131.683 126.592 134.351 122.664C133.555 123.467 132.813 124.269 132.118 125.061C132.081 125.109 132.044 125.146 132.007 125.189C128.236 129.542 126.12 135.081 125.929 140.838C125.261 160.384 125.988 177.303 137.464 185.165Z" fill="black"/>
</g>
<path d="M141.79 186.69C145.916 180.269 158.145 157.715 149.713 126.858C149.713 126.858 146.102 118.289 138.566 118.512C138.539 118.512 138.513 118.512 138.481 118.512C138.481 118.512 131.72 120.458 133.629 122.913C133.629 122.913 137.182 119.756 141.822 127.979C146.377 136.07 151.527 148.763 135.58 183.224C134.504 185.164 140.714 188.625 141.79 186.685V186.69Z" fill="#66AAA3" stroke="#0B3242" stroke-width="1.59468" stroke-linecap="round" stroke-linejoin="round"/>
<path d="M208.09 110.348C208.09 110.348 212.672 120.835 198.804 127.405C184.937 133.975 160.887 131.334 149.3 122.249C149.3 122.249 137.628 114.839 143.732 102.273C151.479 86.3264 204.569 81.1596 208.09 110.348Z" fill="#66AAA3" stroke="#0B3242" stroke-width="1.59468" stroke-linecap="round" stroke-linejoin="round"/>
<g style="mix-blend-mode:color-burn" opacity="0.15">
<path d="M149.296 122.251C158.03 129.098 173.844 132.287 187.043 130.623C175.058 131.033 161.992 127.838 154.35 121.853C154.35 121.853 142.678 114.443 148.781 101.871C151.889 95.4767 162.294 90.8149 173.865 89.4062C160.385 89.9059 147.281 94.9557 143.728 102.27C137.624 114.841 149.296 122.251 149.296 122.251Z" fill="black"/>
</g>
<path d="M215.399 66.4738C215.399 66.4738 217.663 31.8745 173.504 29.9822C173.504 29.9822 147.397 28.2652 133.519 51.2234C129.244 58.2931 127.075 66.4313 126.985 74.6918C126.874 85.1157 128.703 101.759 140.057 111.742C157.526 127.093 176.935 128.247 185.844 127.439C195.416 126.572 227.405 114.952 221.439 78.5403C221.439 78.5403 219.837 72.0924 215.399 66.4738Z" fill="#FFE3AB" stroke="#0B3242" stroke-width="1.59468" stroke-linecap="round" stroke-linejoin="round"/>
<g style="mix-blend-mode:color-burn" opacity="0.15">
<path d="M126.985 74.6884C126.879 85.1123 128.708 101.761 140.062 111.738C157.531 127.095 176.94 128.243 185.849 127.435C190.182 127.042 199.112 124.442 207.035 118.34C201.228 121.413 195.708 122.842 192.584 123.124C183.675 123.932 164.266 122.784 146.797 107.427C135.443 97.4445 133.614 80.8013 133.72 70.3774C133.81 62.1169 135.979 53.9734 140.248 46.909C143.223 41.9867 146.76 38.202 150.488 35.2891C144.421 38.42 138.254 43.3794 133.518 51.2199C129.244 58.2844 127.075 66.4279 126.99 74.6884H126.985Z" fill="black"/>
</g>
<path d="M204.16 24.2223C204.16 24.2223 187.832 16.3658 188.659 37.1445C188.659 37.1445 192.133 25.0728 204.16 24.2223Z" fill="#B3E9BB" stroke="#0B3242" stroke-width="1.59468" stroke-linecap="round" stroke-linejoin="round"/>
<path d="M165.454 166.787C163.28 166.298 161.074 165.692 158.836 164.953" stroke="#0B3242" stroke-width="1.59468" stroke-linecap="round" stroke-linejoin="round"/>
<path d="M208.547 160.375C198.45 167.376 184.153 169.619 170.434 167.689" stroke="#0B3242" stroke-width="1.59468" stroke-linecap="round" stroke-linejoin="round"/>
<path d="M209.665 143.531C194.891 153.673 177.194 155.406 156.852 149.543" stroke="#0B3242" stroke-width="1.59468" stroke-linecap="round" stroke-linejoin="round"/>
<path d="M205.927 62.4051C203.466 59.7154 201.016 59.7314 198.582 62.4423" stroke="#0B3242" stroke-width="1.59468" stroke-linecap="round" stroke-linejoin="round"/>
<path d="M197.251 92.4742C194.758 95.8868 190.394 95.8337 187.737 92.7984C186.109 90.9327 186.167 86.8343 188.633 86.6536C191.412 86.4463 193.936 86.0901 196.328 86.6961C198.529 87.2543 198.587 90.6403 197.246 92.4795L197.251 92.4742Z" fill="#FF7471" stroke="#0B3242" stroke-width="1.59468" stroke-linecap="round" stroke-linejoin="round"/>
<path d="M211.692 80.2853C214.384 80.2712 216.561 79.4102 216.556 78.3621C216.55 77.3141 214.364 76.4759 211.672 76.49C208.981 76.5042 206.803 77.3652 206.809 78.4133C206.814 79.4613 209.001 80.2995 211.692 80.2853Z" fill="#FF7471" stroke="#0B3242" stroke-width="1.59468" stroke-linecap="round" stroke-linejoin="round"/>
<path d="M199.656 74.4482C199.663 75.916 200.857 77.0997 202.321 77.092C203.786 77.0844 204.966 75.8882 204.959 74.4204L204.941 70.9812C204.933 69.5134 203.74 68.3297 202.275 68.3374C200.811 68.345 199.63 69.5412 199.638 71.009L199.656 74.4482Z" fill="#0B3242"/>
<path d="M203.523 71.6145C203.877 71.6145 204.164 71.3265 204.164 70.9713C204.164 70.6161 203.877 70.3281 203.523 70.3281C203.168 70.3281 202.881 70.6161 202.881 70.9713C202.881 71.3265 203.168 71.6145 203.523 71.6145Z" fill="white"/>
<path d="M184.007 61.7723C181.546 59.0826 179.096 59.0986 176.662 61.8095" stroke="#0B3242" stroke-width="1.59468" stroke-linecap="round" stroke-linejoin="round"/>
<path d="M171.223 79.1057C173.915 79.0916 176.092 78.2306 176.087 77.1825C176.082 76.1345 173.895 75.2963 171.204 75.3104C168.512 75.3245 166.335 76.1855 166.34 77.2336C166.346 78.2816 168.532 79.1198 171.223 79.1057Z" fill="#FF7471" stroke="#0B3242" stroke-width="1.59468" stroke-linecap="round" stroke-linejoin="round"/>
<path d="M177.742 73.8076C177.749 75.2754 178.943 76.4591 180.407 76.4514C181.871 76.4437 183.052 75.2476 183.045 73.7797L183.027 70.3406C183.019 68.8727 181.826 67.689 180.361 67.6967C178.897 67.7044 177.716 68.9006 177.724 70.3684L177.742 73.8076Z" fill="#0B3242"/>
<path d="M181.601 70.9739C181.955 70.9739 182.242 70.6859 182.242 70.3307C182.242 69.9755 181.955 69.6875 181.601 69.6875C181.246 69.6875 180.959 69.9755 180.959 70.3307C180.959 70.6859 181.246 70.9739 181.601 70.9739Z" fill="white"/>
<path d="M228.794 188.884C227.675 192.546 224.244 194.991 220.42 194.901C213.881 194.747 203.949 194.173 198.683 193.073C192.515 191.786 191.629 185.492 192.276 179.55C192.987 173.043 198.884 168.371 205.386 169.041C208.679 169.381 211.946 169.769 213.786 170.125C213.786 170.125 217.339 156.15 226.338 159.095C229.966 160.281 231.535 163.741 232.129 166.999C232.612 169.636 232.527 172.342 231.997 174.973C231.419 177.849 230.395 183.637 228.794 188.884Z" fill="#FFE3AB" stroke="#0B3242" stroke-width="1.59468" stroke-linecap="round" stroke-linejoin="round"/>
<g style="mix-blend-mode:color-burn" opacity="0.15">
<path d="M198.687 193.083C203.948 194.183 213.886 194.757 220.425 194.906C223.845 194.991 226.953 193.03 228.364 190C226.863 191.132 224.991 191.77 223.007 191.722C216.469 191.568 206.536 190.994 201.27 189.899C195.102 188.607 194.217 182.313 194.859 176.376C195.034 174.77 195.527 173.277 196.259 171.953C194.1 173.835 192.61 176.498 192.271 179.565C191.629 185.508 192.509 191.802 198.682 193.088L198.687 193.083Z" fill="black"/>
</g>
<path d="M213.785 170.125C213.785 170.125 212.64 174.308 212.295 176.823L213.785 170.125Z" fill="#FFE3AB"/>
<path d="M213.785 170.125C213.785 170.125 212.64 174.308 212.295 176.823" stroke="#0B3242" stroke-width="1.59468" stroke-linecap="round" stroke-linejoin="round"/>
<path d="M166.334 139.202L192.325 144.651L215.664 139.202L192.325 134.859L166.334 139.202Z" fill="#FF9680" stroke="#0B3242" stroke-width="1.59468" stroke-linecap="round" stroke-linejoin="round"/>
<path d="M166.334 139.203V167.44L192.325 174.111L215.664 166.642V139.203L192.325 144.652L166.334 139.203Z" fill="#FF9680" stroke="#0B3242" stroke-width="1.59468" stroke-linecap="round" stroke-linejoin="round"/>
<path d="M192.324 144.652V174.111L215.663 166.642V139.203L192.324 144.652Z" fill="#FF9680" stroke="#0B3242" stroke-width="1.59468" stroke-linecap="round" stroke-linejoin="round"/>
<path d="M175.736 141.18V169.857L180.35 171.043V142.147L175.736 141.18Z" fill="#FFEAA9" stroke="#0B3242" stroke-width="1.59468" stroke-linecap="round" stroke-linejoin="round"/>
<path d="M202.555 142.269V170.841L207.094 169.39V141.18L202.555 142.269Z" fill="#FFEAA9" stroke="#0B3242" stroke-width="1.59468" stroke-linecap="round" stroke-linejoin="round"/>
<path d="M194.044 134.866C194.044 134.866 202.561 124.378 208.076 128.923C213.591 133.473 208.892 138.273 206.432 138.858C203.971 139.443 195.057 139.097 195.057 139.097C192.978 137.099 193.084 135.839 194.044 134.861V134.866Z" fill="#FFEAA9" stroke="#0B3242" stroke-width="1.59468" stroke-linecap="round" stroke-linejoin="round"/>
<path d="M201.447 134.859C199.162 135.646 197.576 135.694 196.457 135.694L201.447 134.859Z" fill="#FFB6CB"/>
<path d="M201.447 134.859C199.162 135.646 197.576 135.694 196.457 135.694" stroke="#0B3242" stroke-width="1.59468" stroke-linecap="round" stroke-linejoin="round"/>
<path d="M190.295 134.973C190.295 134.973 181.179 123.715 175.674 129.084C170.164 134.453 174.693 139.619 178.957 140.512C181.502 141.044 189.404 139.752 189.404 139.752C191.472 137.408 191.313 136.01 190.295 134.973Z" fill="#FFEAA9" stroke="#0B3242" stroke-width="1.59468" stroke-linecap="round" stroke-linejoin="round"/>
<path d="M183.895 134.859C186.18 135.646 187.766 135.694 188.885 135.694L183.895 134.859Z" fill="#FFB6CB"/>
<path d="M183.895 134.859C186.18 135.646 187.766 135.694 188.885 135.694" stroke="#0B3242" stroke-width="1.59468" stroke-linecap="round" stroke-linejoin="round"/>
<path d="M194.544 139.426C194.544 139.426 200.431 140.494 199.901 144.837C199.37 149.185 198.861 154.442 201.645 158.551L203.051 155.441L206.121 157.153C206.121 157.153 203.294 151.97 204.212 144.252C204.986 137.73 194.539 136.406 194.539 136.406V139.426H194.544Z" fill="#FFEAA9" stroke="#0B3242" stroke-width="1.59468" stroke-linecap="round" stroke-linejoin="round"/>
<path d="M196.468 138.363C196.468 138.363 197.396 134.259 194.58 134.201C192.995 134.169 191.674 134.201 190.826 134.238C189.521 134.296 188.418 135.296 188.317 136.603C188.302 136.816 188.302 137.044 188.328 137.289C188.546 139.596 188.641 139.995 191.372 140.037C194.103 140.08 196.543 139.793 196.474 138.357L196.468 138.363Z" fill="#FFEAA9" stroke="#0B3242" stroke-width="1.59468" stroke-linecap="round" stroke-linejoin="round"/>
<path d="M193.333 192.754C192.299 196.443 188.926 198.968 185.103 198.968C178.564 198.968 168.615 198.628 163.328 197.65C157.129 196.507 156.1 190.24 156.604 184.281C157.161 177.759 162.952 172.948 169.464 173.464C172.768 173.725 176.04 174.033 177.89 174.346C177.89 174.346 181.115 160.292 190.183 163.024C193.837 164.125 195.486 167.548 196.16 170.79C196.706 173.416 196.679 176.122 196.213 178.764C195.698 181.65 194.818 187.465 193.333 192.749V192.754Z" fill="#FFE3AB" stroke="#0B3242" stroke-width="1.59468" stroke-linecap="round" stroke-linejoin="round"/>
<g style="mix-blend-mode:color-burn" opacity="0.15">
<path d="M162.575 196.35C167.793 197.652 177.699 198.62 184.222 199.024C187.637 199.242 190.819 197.408 192.346 194.431C190.798 195.505 188.905 196.068 186.932 195.941C180.404 195.531 170.497 194.569 165.284 193.267C159.17 191.736 158.534 185.416 159.409 179.505C159.647 177.91 160.199 176.438 160.978 175.141C158.746 176.932 157.155 179.537 156.699 182.593C155.824 188.509 156.46 194.83 162.575 196.355V196.35Z" fill="black"/>
</g>
<path d="M191.402 167.502C191.402 167.502 185.568 164.77 184.078 180.052L191.402 167.502Z" fill="#FFE3AB"/>
<path d="M191.402 167.502C191.402 167.502 185.568 164.77 184.078 180.052" stroke="#0B3242" stroke-width="1.59468" stroke-linecap="round" stroke-linejoin="round"/>
<path d="M177.889 174.359C177.889 174.359 176.844 178.569 176.553 181.089L177.889 174.359Z" fill="#FFE3AB"/>
<path d="M177.889 174.359C177.889 174.359 176.844 178.569 176.553 181.089" stroke="#0B3242" stroke-width="1.59468" stroke-linecap="round" stroke-linejoin="round"/>
<path d="M151.989 140.864C154.975 142.56 158.57 143.421 162.457 143.389C163.094 142.975 163.916 138.573 167.925 139.201C169.325 139.663 169.394 141.157 168.216 143.623C168.232 143.639 168.243 143.66 168.259 143.676C169.07 144.724 170.184 145.048 171.658 145.282C173.583 145.585 176.643 145.521 176.813 147.541C177.057 150.411 170.47 150.714 170.47 150.714C170.47 150.714 176.516 151.171 176.574 153.877C176.654 157.258 170.502 156.179 170.502 156.179C176.001 157.444 174.426 162.371 167.67 160.479C167.67 160.479 162.102 159.682 158.252 157.449C158.252 157.449 135.613 154.914 130.241 142.082C124.869 129.25 133.343 123.36 133.343 123.36C133.343 123.36 142.125 118.22 145.583 133.072L147.768 136.686C148.807 138.409 150.244 139.876 151.994 140.87L151.989 140.864Z" fill="#FFE3AB" stroke="#0B3242" stroke-width="1.59468" stroke-linecap="round" stroke-linejoin="round"/>
<path d="M213.785 170.125C213.785 170.125 217.338 156.15 226.338 159.095C229.965 160.281 231.535 163.741 232.129 166.999" fill="#FFE3AB"/>
<path d="M213.785 170.125C213.785 170.125 217.338 156.15 226.338 159.095C229.965 160.281 231.535 163.741 232.129 166.999" stroke="#0B3242" stroke-width="1.59468" stroke-linecap="round" stroke-linejoin="round"/>
<path d="M220.462 172.086C220.223 173.223 220.011 174.51 219.836 175.956L220.462 172.086Z" fill="#FFE3AB"/>
<path d="M220.462 172.086C220.223 173.223 220.011 174.51 219.836 175.956" stroke="#0B3242" stroke-width="1.59468" stroke-linecap="round" stroke-linejoin="round"/>
<path d="M227.451 163.582C227.451 163.582 223.664 161.7 221.246 169.083L227.451 163.582Z" fill="#FFE3AB"/>
<path d="M227.451 163.582C227.451 163.582 223.664 161.7 221.246 169.083" stroke="#0B3242" stroke-width="1.59468" stroke-linecap="round" stroke-linejoin="round"/>
<path d="M214.146 124.336C214.146 124.336 222.043 136.631 222.96 143.541C223.793 149.782 215.663 152.902 215.663 152.902V142.786C215.626 142.34 218.866 140.49 218.834 140.049C218.575 135.913 215.663 128.222 214.146 124.336Z" fill="#FFE3AB" stroke="#0B3242" stroke-width="1.59468" stroke-linecap="round" stroke-linejoin="round"/>
<path d="M215.663 154.011V139.207L211.67 138.462C211.67 138.462 211.903 135.422 213.431 135.422C216.231 135.422 215.663 141.003 215.663 141.003C215.663 141.003 219.752 141.189 219.46 143.539C219.322 144.655 217.615 145.532 215.663 145.692C215.663 145.692 219.656 145.745 219.561 148.222C219.492 149.955 217.307 149.843 215.663 149.801C215.663 149.801 219.656 150.114 219.561 152.469C219.513 153.638 217.286 154.271 215.663 154.011Z" fill="#FFE3AB" stroke="#0B3242" stroke-width="1.59468" stroke-linecap="round" stroke-linejoin="round"/>
<g style="mix-blend-mode:color-burn" opacity="0.15">
<path d="M169.496 34.0134C170.53 37.1124 165.524 42.3748 157.908 44.9263C150.288 47.4831 142.938 46.3615 141.903 43.2625C140.869 40.1635 146.21 35.5815 153.83 33.03C161.451 30.4732 168.467 30.9144 169.501 34.0134H169.496Z" fill="black"/>
</g>
<path d="M127.17 70.9825C127.17 70.9825 130.951 46.3181 155.695 36.9573C155.695 36.9573 169.579 30.3021 185.244 31.4343" stroke="#0B3242" stroke-width="1.59468" stroke-linecap="round" stroke-linejoin="round"/>
<path d="M146.25 5.82563L142.708 39.7711C142.628 40.5312 142.777 41.3179 143.217 41.9452C147.582 48.1751 167.903 42.1366 168.699 34.5724C168.794 33.6847 168.492 32.8023 167.924 32.1113L146.25 5.82031V5.82563Z" fill="#66AAA3"/>
<mask id="mask0_1473_31952" style="mask-type:luminance" maskUnits="userSpaceOnUse" x="142" y="5" width="27" height="40">
<path d="M146.25 5.82563L142.708 39.7711C142.628 40.5312 142.777 41.3179 143.217 41.9452C147.582 48.1751 167.903 42.1366 168.699 34.5724C168.794 33.6847 168.492 32.8023 167.924 32.1113L146.25 5.82031V5.82563Z" fill="white"/>
</mask>
<g mask="url(#mask0_1473_31952)">
<path d="M138.895 20.4629C138.895 20.4629 151.293 18.6184 157.265 7.46094L160.261 13.6164C160.261 13.6164 154.348 23.7054 140.072 28.1705L138.895 20.4629Z" fill="#B1DDB6" stroke="#0B3242" stroke-width="1.59468" stroke-linecap="round" stroke-linejoin="round"/>
<path d="M137.336 34.3504C137.336 34.3504 154.884 30.9484 164.573 18.6641L168.025 24.6813C168.025 24.6813 158.548 35.8494 138.062 42.1963L137.336 34.3504Z" fill="#B1DDB6" stroke="#0B3242" stroke-width="1.59468" stroke-linecap="round" stroke-linejoin="round"/>
</g>
<path d="M146.25 5.82563L142.708 39.7711C142.628 40.5312 142.777 41.3179 143.217 41.9452C147.582 48.1751 167.903 42.1366 168.699 34.5724C168.794 33.6847 168.492 32.8023 167.924 32.1113L146.25 5.82031V5.82563Z" stroke="#0B3242" stroke-width="1.59468" stroke-linecap="round" stroke-linejoin="round"/>
<path d="M144.788 1L147.922 4.35946L152.456 3.67907L150.239 7.70298L152.286 11.8173L147.784 10.9455L144.512 14.1721L143.944 9.60597L139.877 7.48504L144.035 5.53421L144.788 1Z" fill="#B1DDB6" stroke="#0B3242" stroke-width="1.59468" stroke-linecap="round" stroke-linejoin="round"/>
<path d="M98.7806 103.055C98.7806 103.055 97.6404 104.474 95.7949 105.34L98.7806 103.055Z" fill="#FF9680"/>
<path d="M98.7806 103.055C98.7806 103.055 97.6404 104.474 95.7949 105.34" stroke="#4C2318" stroke-width="1.59468" stroke-linecap="round" stroke-linejoin="round"/>
<g style="mix-blend-mode:multiply" opacity="0.15">
<path d="M60.8906 203.195C91.2069 203.195 115.783 199.416 115.783 194.754C115.783 190.092 91.2069 186.312 60.8906 186.312C30.5743 186.312 5.99805 190.092 5.99805 194.754C5.99805 199.416 30.5743 203.195 60.8906 203.195Z" fill="black"/>
</g>
<path d="M18.592 166.424C18.592 166.424 19.1489 172.367 16.0996 173.377C13.3791 174.275 14.2753 168.965 14.2753 168.965C14.2753 168.965 7.80019 174.749 6.16683 171.931C4.53347 169.114 10.123 165.755 10.123 165.755C10.123 165.755 2.8842 170.071 2.28495 167.567C1.6857 165.069 7.53503 161.943 7.53503 161.943C7.53503 161.943 -0.159784 164.574 1.15009 161.778C2.74632 158.366 10.6321 156.5 10.6321 156.5C10.6321 156.5 18.0776 149.903 20.6019 139.006L23.1262 128.109L27.5861 150.796L18.5973 166.424H18.592Z" fill="#FF9680" stroke="#4C2318" stroke-width="1.59468" stroke-linecap="round" stroke-linejoin="round"/>
<path d="M91.4633 75.8084C91.4633 75.8084 57.3643 62.2536 46.4452 97.5439C46.4452 97.5439 37.9284 99.6277 45.9149 88.2044C45.9149 88.2044 18.1478 109.451 16.9174 146.793C15.6871 184.135 51.674 188.01 78.9108 186.384C105.734 184.778 117.231 171.649 119.098 153.379C120.896 135.8 108.513 112.821 94.6133 85.7433C94.6133 85.7433 106.153 96.2841 98.7816 103.056C98.7816 103.056 103.199 94.1313 91.1186 85.1054C91.1186 85.1054 82.3154 79.3592 72.0804 83.0536C72.0804 83.0536 77.076 78.0516 91.458 75.8084H91.4633Z" fill="#FF9680" stroke="#4C2318" stroke-width="1.59468" stroke-linecap="round" stroke-linejoin="round"/>
<path d="M72.0812 83.0547C72.0812 83.0547 63.628 88.2374 69.1804 93.4095C72.5372 96.5404 78.657 93.3882 77.6919 90.0819C77.6919 90.0819 76.8381 87.0945 73.8948 88.8753" fill="#FF9680"/>
<path d="M72.0812 83.0547C72.0812 83.0547 63.628 88.2374 69.1804 93.4095C72.5372 96.5404 78.657 93.3882 77.6919 90.0819C77.6919 90.0819 76.8381 87.0945 73.8948 88.8753" stroke="#4C2318" stroke-width="1.59468" stroke-linecap="round" stroke-linejoin="round"/>
<path d="M100.671 101.776C100.671 101.776 101.599 99.7298 101.615 95.6367C101.376 89.46 96.9004 83.0547 96.9004 83.0547C98.2951 84.0009 99.6527 85.0321 100.973 86.1324C103.222 90.1191 106.25 96.652 100.671 101.776Z" fill="white"/>
<path d="M91.3848 75.8076C91.2999 75.8235 91.2098 75.8342 91.1249 75.8501C82.6559 73.5432 59.0093 69.8701 49.697 96.9797C49.2781 98.1969 47.7084 98.6647 46.7962 97.7611C46.6424 97.6069 46.5205 97.4262 46.4462 97.2082C46.128 96.2089 47.4644 94.3697 48.5091 91.8661C48.5144 91.8554 48.5197 91.8448 48.5197 91.8342C48.8804 91.0262 49.2569 90.2554 49.6493 89.5166C49.6599 89.4953 49.6758 89.4687 49.6917 89.4421C50.3122 88.3205 51.0971 87.0607 52.0834 85.6468C52.0675 85.6627 52.0092 85.7053 51.9084 85.7903C65.8556 65.6601 91.3848 75.8076 91.3848 75.8076Z" fill="white"/>
<path d="M45.905 88.2109C43.4285 91.7564 45.6452 90.7677 45.1467 92.6495C37.5579 99.884 20.6251 118.579 17.0508 144.158C19.5857 108.575 45.4383 88.583 45.905 88.2109Z" fill="white"/>
<path d="M34.9643 170.547C28.0278 164.38 19.2194 152.707 21.6853 134.374C22.2156 130.424 23.3982 126.592 25.2225 123.046C30.3135 113.143 44.0008 94.847 74.1066 100.067C112.289 106.69 109.372 142.464 108.025 149.778C107.893 150.501 107.787 151.224 107.681 151.953C105.92 164.109 84.4795 188.481 48.2115 177.845C43.3167 176.41 38.7773 173.938 34.959 170.547H34.9643Z" fill="#FFEAA9"/>
<path d="M105.007 122.449C100.463 113.221 91.6276 104.748 74.9281 101.851C34.1949 94.7861 23.5145 130.773 23.5145 130.773C21.1758 140.511 22.2894 148.479 25.0365 154.874C21.7114 148.192 20.1311 139.655 22.6925 128.997C22.6925 128.997 33.373 93.0107 74.1062 100.075C91.8716 103.158 100.738 112.551 105.007 122.449Z" fill="white"/>
<path d="M57.3111 143.638C56.6164 143.627 55.9217 143.601 55.2323 143.558C51.2974 143.324 49.3034 140.225 49.1761 138.344C49.0382 136.249 51.2019 135.372 55.5929 135.468C56.2399 135.484 56.8868 135.505 57.5391 135.537C61.5642 135.728 63.6165 136.393 63.7385 138.301C63.871 140.385 61.7074 143.712 57.3164 143.638H57.3111Z" fill="#FF7471" stroke="#4C2318" stroke-width="1.59468" stroke-linecap="round" stroke-linejoin="round"/>
<path d="M38.8993 130.057C38.952 128.513 35.7865 127.152 31.8291 127.016C27.8716 126.881 24.6208 128.022 24.5681 129.565C24.5154 131.108 27.6808 132.469 31.6383 132.605C35.5957 132.741 38.8466 131.6 38.8993 130.057Z" fill="#FF7471" stroke="#4C2318" stroke-width="1.59468" stroke-linecap="round" stroke-linejoin="round"/>
<path d="M48.2327 118.39C48.3152 115.975 46.4291 113.951 44.0201 113.868C41.6111 113.786 39.5914 115.676 39.5089 118.091L39.3156 123.754C39.2331 126.169 41.1192 128.193 43.5282 128.276C45.9372 128.359 47.957 126.468 48.0394 124.053L48.2327 118.39Z" fill="#4C2318"/>
<path d="M41.8625 119.214C42.4424 119.214 42.9125 118.743 42.9125 118.162C42.9125 117.581 42.4424 117.109 41.8625 117.109C41.2826 117.109 40.8125 117.581 40.8125 118.162C40.8125 118.743 41.2826 119.214 41.8625 119.214Z" fill="white"/>
<path d="M91.3817 130.064C91.4344 128.521 88.269 127.16 84.3115 127.024C80.354 126.888 77.1032 128.03 77.0505 129.573C76.9978 131.116 80.1632 132.477 84.1207 132.613C88.0782 132.749 91.329 131.608 91.3817 130.064Z" fill="#FF7471" stroke="#4C2318" stroke-width="1.59468" stroke-linecap="round" stroke-linejoin="round"/>
<path d="M74.9202 118.39C75.0027 115.975 73.1166 113.951 70.7076 113.868C68.2986 113.786 66.2789 115.676 66.1964 118.091L66.0031 123.754C65.9206 126.169 67.8067 128.193 70.2157 128.276C72.6247 128.359 74.6445 126.468 74.7269 124.053L74.9202 118.39Z" fill="#4C2318"/>
<path d="M68.55 119.214C69.1299 119.214 69.6 118.743 69.6 118.162C69.6 117.581 69.1299 117.109 68.55 117.109C67.9701 117.109 67.5 117.581 67.5 118.162C67.5 118.743 67.9701 119.214 68.55 119.214Z" fill="white"/>
<path d="M91.4633 75.8084C91.4633 75.8084 57.3643 62.2536 46.4452 97.5439C46.4452 97.5439 37.9284 99.6277 45.9149 88.2044C45.9149 88.2044 18.1478 109.451 16.9174 146.793C15.6871 184.135 51.674 188.01 78.9108 186.384C105.734 184.778 117.231 171.649 119.098 153.379C120.896 135.8 108.513 112.821 94.6133 85.7433C94.6133 85.7433 106.153 96.2841 98.7816 103.056C98.7816 103.056 103.199 94.1313 91.1186 85.1054C91.1186 85.1054 82.3154 79.3592 72.0804 83.0536C72.0804 83.0536 77.076 78.0516 91.458 75.8084H91.4633Z" stroke="#4C2318" stroke-width="1.59468" stroke-linecap="round" stroke-linejoin="round"/>
<path d="M110.321 158.21L110.607 171.254C110.607 171.254 107.245 176.182 109.424 178.547C111.371 180.657 113.153 175.576 113.153 175.576C113.153 175.576 116.022 183.783 118.811 182.109C121.6 180.434 118.334 174.784 118.334 174.784C118.334 174.784 122.581 182.071 124.31 180.179C126.039 178.287 122.438 172.711 122.438 172.711C122.438 172.711 127.895 178.749 128.102 175.666C128.357 171.903 122.364 166.443 122.364 166.443C122.364 166.443 118.519 162.489 119.06 152.506C119.161 150.603 119.198 148.689 119.087 146.786C118.986 145.117 118.784 143.661 118.609 142.406" fill="#FF9680"/>
<path d="M110.321 158.21L110.607 171.254C110.607 171.254 107.245 176.182 109.424 178.547C111.371 180.657 113.153 175.576 113.153 175.576C113.153 175.576 116.022 183.783 118.811 182.109C121.6 180.434 118.334 174.784 118.334 174.784C118.334 174.784 122.581 182.071 124.31 180.179C126.039 178.287 122.438 172.711 122.438 172.711C122.438 172.711 127.895 178.749 128.102 175.666C128.357 171.903 122.364 166.443 122.364 166.443C122.364 166.443 118.519 162.489 119.06 152.506C119.161 150.603 119.198 148.689 119.087 146.786C118.986 145.117 118.784 143.661 118.609 142.406" stroke="#4C2318" stroke-width="1.59468" stroke-linecap="round" stroke-linejoin="round"/>
<path d="M82.0555 169.913C82.0555 169.913 70.3516 169.913 70.3516 186.875C70.3516 197.666 75.7024 198.086 83.8798 198.139C95.43 198.208 98.0868 195.083 97.949 188.715C97.8058 182.346 96.6285 168.35 82.0555 169.919V169.913Z" fill="#FF7761" stroke="#4C2318" stroke-width="1.59468" stroke-linecap="round" stroke-linejoin="round"/>
<g style="mix-blend-mode:color-burn" opacity="0.15">
<path d="M83.8841 198.138C79.9014 198.112 76.5817 198 74.2324 196.634C75.9878 196.91 78.0135 196.953 80.2409 196.964C91.791 197.033 94.4532 193.907 94.31 187.534C94.2039 182.696 93.4986 173.474 86.7902 169.992C96.9032 171.629 97.826 183.111 97.9479 188.708C98.0911 195.077 95.4343 198.207 83.8841 198.138Z" fill="black"/>
</g>
<path d="M77.5962 175.076C77.5962 175.076 80.3379 173.604 80.1258 175.571C79.9136 177.537 77.9091 178.829 76.9598 177.303C76.0105 175.778 77.5909 175.076 77.5909 175.076H77.5962Z" fill="white"/>
<path d="M54.4582 185.778C54.034 192.301 55.3279 194.438 49.2983 195.432C41.6565 197.871 30.2813 198.903 26.3995 197.537C22.9365 196.761 20.2001 194.645 19.0122 190.584C16.7319 182.78 19.8501 174.775 25.6305 171.262C28.4783 170.002 31.2094 169.874 33.6912 170.464C36.9527 171.235 39.8004 173.239 41.9641 175.567C43.3959 177.103 44.5255 178.778 45.2785 180.33C45.671 181.117 47.7021 184.582 47.7021 184.582C50.4438 185.178 51.2339 185.284 54.4582 185.778Z" fill="#FF7761" stroke="#4C2318" stroke-width="1.59468" stroke-linecap="round" stroke-linejoin="round"/>
<g style="mix-blend-mode:color-burn" opacity="0.15">
<path d="M54.4587 185.776C54.0345 192.299 55.3284 194.43 49.2988 195.424C41.657 197.864 30.2818 198.895 26.3999 197.529C23.8332 196.955 21.6643 195.642 20.2324 193.346C31.3424 195.865 37.8547 193.006 41.1744 190.507C44.4358 188.062 42.06 176.027 41.9699 175.57C43.4017 177.101 44.526 178.776 45.279 180.322C45.6715 181.114 47.7025 184.58 47.7025 184.58C50.4443 185.176 51.2344 185.282 54.4587 185.776Z" fill="black"/>
</g>
<path d="M26.2238 176.84C26.2238 176.84 23.6836 178.87 23.4874 176.973C23.2912 175.08 25.0995 173.395 26.4094 174.602C27.7192 175.808 26.2238 176.84 26.2238 176.84Z" fill="white"/>
<path d="M47.7012 184.578L49.1701 188.118" stroke="#4C2318" stroke-width="1.59468" stroke-linecap="round" stroke-linejoin="round"/>
<path d="M32.7196 102.264C32.7196 102.264 30.5984 101.482 26.6476 110.062C26.6476 110.062 26.043 112.39 28.6203 109.764C31.1977 107.144 35.7955 101.78 44.0789 101.413C52.3624 101.047 38.4417 98.0698 32.7196 102.264Z" fill="#F784A5" stroke="#4C2318" stroke-width="1.59468" stroke-linecap="round" stroke-linejoin="round"/>
<path d="M58.0163 94.2348C58.0163 94.2348 41.1948 75.981 30.2969 83.896C19.399 91.8109 17.2088 103.569 22.0718 104.595C26.9347 105.621 56.017 101.602 56.017 101.602C60.1269 98.1259 59.9148 95.9305 58.0216 94.2348H58.0163Z" fill="#FCBBBE" stroke="#4C2318" stroke-width="1.59468" stroke-linecap="round" stroke-linejoin="round"/>
<path d="M98.7807 107.201C98.7807 107.201 104.291 110.459 109.726 117.354C110.331 118.119 111.54 117.471 111.238 116.546C110.055 112.92 108.385 108.556 106.99 107.743C105.929 107.121 100.801 104.846 98.7754 107.201H98.7807Z" fill="#F784A5" stroke="#4C2318" stroke-width="1.59468" stroke-linecap="round" stroke-linejoin="round"/>
<path d="M65.6632 94.4129C65.6632 94.4129 86.6582 74.8249 99.3433 84.1644C112.034 93.504 114.107 106.735 108.237 107.654C102.366 108.574 67.7208 102.732 67.7208 102.732C62.9639 98.6548 63.3192 96.2202 65.6632 94.4129Z" fill="#FCBBBE" stroke="#4C2318" stroke-width="1.59468" stroke-linecap="round" stroke-linejoin="round"/>
<path d="M54.1226 100.626C54.1226 100.626 52.4521 93.2318 57.5272 93.1255C60.3856 93.0671 62.7667 93.1255 64.294 93.1946C66.6486 93.2956 68.6372 95.1029 68.8122 97.4577C68.8388 97.8405 68.8388 98.2498 68.7963 98.6963C68.4039 102.853 68.2395 103.576 63.3129 103.65C58.3916 103.725 53.9901 103.209 54.1173 100.626H54.1226Z" fill="#FCBBBE" stroke="#4C2318" stroke-width="1.59468" stroke-linecap="round" stroke-linejoin="round"/>
<path d="M57.5703 99.8203C57.5703 99.8203 61.1022 100.862 64.2098 99.8203" stroke="#4C2318" stroke-width="1.59468" stroke-linecap="round" stroke-linejoin="round"/>
<path d="M23.5728 101.298C23.5728 101.298 19.7916 91.7942 51.1065 98.9277" stroke="#4C2318" stroke-width="1.59468" stroke-linecap="round" stroke-linejoin="round"/>
<path d="M71.9375 99.5723C71.9375 99.5723 107.845 94.1026 106.217 103.878" stroke="#4C2318" stroke-width="1.59468" stroke-linecap="round" stroke-linejoin="round"/>
<path d="M116.037 152.962L141.879 157.225L165.086 152.962L141.879 148.641L116.037 152.962Z" fill="#FCBBBE" stroke="#4C2318" stroke-width="1.59468" stroke-linecap="round" stroke-linejoin="round"/>
<path d="M129.974 155.247L153.483 150.803L149.017 149.969L125.387 154.524L129.974 155.247Z" fill="#FF9680" stroke="#4C2318" stroke-width="1.59468" stroke-linecap="round" stroke-linejoin="round"/>
<path d="M116.037 152.969V198.63L141.879 206.417L165.086 197.838V152.969L141.879 157.232L116.037 152.969Z" fill="#FCBBBE" stroke="#4C2318" stroke-width="1.59468" stroke-linecap="round" stroke-linejoin="round"/>
<path d="M141.879 157.232V206.417L165.085 197.838V152.969L141.879 157.232Z" fill="#FCBBBE" stroke="#4C2318" stroke-width="1.59468" stroke-linecap="round" stroke-linejoin="round"/>
<path d="M125.387 154.531V201.447L129.974 202.829V155.254L125.387 154.531Z" fill="#FF9680" stroke="#4C2318" stroke-width="1.59468" stroke-linecap="round" stroke-linejoin="round"/>
<path d="M152.051 155.36V202.659L156.569 200.99V154.531L152.051 155.36Z" fill="#FF9680" stroke="#4C2318" stroke-width="1.59468" stroke-linecap="round" stroke-linejoin="round"/>
<path d="M139.848 149.593C139.848 149.593 134.004 142.39 130.212 145.51C126.426 148.631 129.65 151.926 131.342 152.336C133.033 152.74 139.148 152.5 139.148 152.5C140.574 151.129 140.5 150.263 139.842 149.593H139.848Z" fill="#FF9680" stroke="#4C2318" stroke-width="1.59468" stroke-linecap="round" stroke-linejoin="round"/>
<path d="M134.768 149.586C136.337 150.123 137.424 150.16 138.193 150.16L134.768 149.586Z" fill="#FFB6CB"/>
<path d="M134.768 149.586C136.337 150.123 137.424 150.16 138.193 150.16" stroke="#4C2318" stroke-width="1.59468" stroke-linecap="round" stroke-linejoin="round"/>
<path d="M142.393 149.883C142.393 149.883 148.28 142.611 151.844 146.077C155.402 149.548 152.48 152.886 149.722 153.46C148.078 153.806 142.971 152.971 142.971 152.971C141.635 151.456 141.736 150.553 142.393 149.883Z" fill="#FF9680" stroke="#4C2318" stroke-width="1.59468" stroke-linecap="round" stroke-linejoin="round"/>
<path d="M148.233 149.125C146.663 149.662 144.165 150.162 143.396 150.162L148.233 149.125Z" fill="#FFB6CB"/>
<path d="M148.233 149.125C146.663 149.662 144.165 150.162 143.396 150.162" stroke="#4C2318" stroke-width="1.59468" stroke-linecap="round" stroke-linejoin="round"/>
<path d="M142.642 152.725C142.642 152.725 147.383 153.83 146.959 158.343C146.535 162.856 145.697 167.858 147.94 172.127L149.494 169.352L151.965 171.127C151.965 171.127 149.69 165.748 150.427 157.737C151.053 150.97 142.637 149.594 142.637 149.594V152.725H142.642Z" fill="#FF9680" stroke="#4C2318" stroke-width="1.59468" stroke-linecap="round" stroke-linejoin="round"/>
<path d="M138.188 151.996C138.188 151.996 137.552 149.179 139.487 149.141C140.574 149.12 141.481 149.141 142.065 149.168C142.961 149.205 143.719 149.896 143.783 150.789C143.793 150.933 143.793 151.092 143.778 151.262C143.629 152.846 143.565 153.123 141.688 153.149C139.811 153.176 138.14 152.979 138.188 151.996Z" fill="#FF9680" stroke="#4C2318" stroke-width="1.59468" stroke-linecap="round" stroke-linejoin="round"/>
<g style="mix-blend-mode:multiply" opacity="0.15">
<path d="M85.3691 209.515L110.426 216.303C111.413 216.569 112.457 216.542 113.428 216.223L136.671 208.585L111.943 202.828L85.4593 207.58C84.9873 207.665 84.6426 208.075 84.6426 208.558C84.6426 209.005 84.9449 209.398 85.3744 209.515H85.3691Z" fill="black"/>
</g>
<path d="M85.9629 179.613L111.81 185.035L135.017 179.613L111.81 175.297L85.9629 179.613Z" fill="#FF9680" stroke="#4C2318" stroke-width="1.59468" stroke-linecap="round" stroke-linejoin="round"/>
<path d="M85.9629 179.609V207.686L111.81 214.326L135.017 206.894V179.609L111.81 185.031L85.9629 179.609Z" fill="#FF9680" stroke="#4C2318" stroke-width="1.59468" stroke-linecap="round" stroke-linejoin="round"/>
<path d="M111.811 185.031V214.326L135.017 206.894V179.609L111.811 185.031Z" fill="#FF9680" stroke="#4C2318" stroke-width="1.59468" stroke-linecap="round" stroke-linejoin="round"/>
<path d="M95.3125 181.57V210.089L99.8997 211.263V182.532L95.3125 181.57Z" fill="#FFEAA9" stroke="#4C2318" stroke-width="1.59468" stroke-linecap="round" stroke-linejoin="round"/>
<path d="M121.977 182.655V211.067L126.495 209.621V181.57L121.977 182.655Z" fill="#FFEAA9" stroke="#4C2318" stroke-width="1.59468" stroke-linecap="round" stroke-linejoin="round"/>
<path d="M109.233 175.304C109.233 175.304 100.764 164.875 95.2807 169.393C89.792 173.916 94.4693 178.69 96.9194 179.275C99.3641 179.859 108.226 179.514 108.226 179.514C110.294 177.526 110.188 176.271 109.233 175.304Z" fill="#FFEAA9" stroke="#4C2318" stroke-width="1.59468" stroke-linecap="round" stroke-linejoin="round"/>
<path d="M101.873 175.297C104.143 176.078 105.723 176.126 106.837 176.126L101.873 175.297Z" fill="#FFB6CB"/>
<path d="M101.873 175.297C104.143 176.078 105.723 176.126 106.837 176.126" stroke="#4C2318" stroke-width="1.59468" stroke-linecap="round" stroke-linejoin="round"/>
<path d="M112.962 175.409C112.962 175.409 122.025 164.215 127.503 169.551C132.981 174.888 128.479 180.028 124.236 180.916C121.701 181.442 113.847 180.161 113.847 180.161C111.795 177.833 111.949 176.44 112.962 175.409Z" fill="#FFEAA9" stroke="#4C2318" stroke-width="1.59468" stroke-linecap="round" stroke-linejoin="round"/>
<path d="M119.331 175.297C117.061 176.078 115.481 176.126 114.367 176.126L119.331 175.297Z" fill="#FFB6CB"/>
<path d="M119.331 175.297C117.061 176.078 115.481 176.126 114.367 176.126" stroke="#4C2318" stroke-width="1.59468" stroke-linecap="round" stroke-linejoin="round"/>
<path d="M108.736 179.831C108.736 179.831 102.881 180.889 103.406 185.216C103.931 189.543 104.44 194.763 101.672 198.856L100.277 195.762L97.2227 197.463C97.2227 197.463 100.033 192.307 99.1212 184.631C98.3469 178.146 108.741 176.828 108.741 176.828V179.831H108.736Z" fill="#FFEAA9" stroke="#4C2318" stroke-width="1.59468" stroke-linecap="round" stroke-linejoin="round"/>
<path d="M106.825 178.781C106.825 178.781 105.903 174.704 108.703 174.646C110.278 174.614 111.593 174.646 112.436 174.683C113.735 174.742 114.833 175.736 114.928 177.033C114.944 177.24 114.944 177.468 114.918 177.713C114.7 180.004 114.61 180.408 111.895 180.445C109.18 180.482 106.751 180.201 106.825 178.776V178.781Z" fill="#FFEAA9" stroke="#4C2318" stroke-width="1.59468" stroke-linecap="round" stroke-linejoin="round"/>
<g style="mix-blend-mode:multiply" opacity="0.15">
<path d="M131.398 215.543L151.03 220.859C151.805 221.066 152.621 221.045 153.38 220.795L170.965 215.017C171.341 214.895 171.591 214.544 171.591 214.145C171.591 213.694 171.262 213.311 170.822 213.242L152.213 210.297L131.462 214.023C131.091 214.092 130.82 214.411 130.82 214.789C130.82 215.139 131.054 215.448 131.393 215.538L131.398 215.543Z" fill="black"/>
</g>
<path d="M132.072 191.729L152.235 195.961L170.34 191.729L152.235 188.359L132.072 191.729Z" fill="#FFBB83" stroke="#4C2318" stroke-width="1.59468" stroke-linecap="round" stroke-linejoin="round"/>
<path d="M132.072 191.734V213.64L152.235 218.876L170.34 213.023V191.734L152.235 195.966L132.072 191.734Z" fill="#FFBB83" stroke="#4C2318" stroke-width="1.59468" stroke-linecap="round" stroke-linejoin="round"/>
<path d="M152.234 195.966V218.876L170.339 213.023V191.734L152.234 195.966Z" fill="#FFBB83" stroke="#4C2318" stroke-width="1.59468" stroke-linecap="round" stroke-linejoin="round"/>
<path d="M139.363 193.258V215.53L142.943 216.455V194.007L139.363 193.258Z" fill="#FFABD3" stroke="#4C2318" stroke-width="1.59468" stroke-linecap="round" stroke-linejoin="round"/>
<path d="M160.168 194.103V216.306L163.695 215.163V193.258L160.168 194.103Z" fill="#FFABD3" stroke="#4C2318" stroke-width="1.59468" stroke-linecap="round" stroke-linejoin="round"/>
<path d="M152.885 189.318C152.885 189.318 159.859 181.494 163.974 185.214C168.089 188.935 164.271 192.492 162.341 192.858C160.41 193.225 153.516 192.635 153.516 192.635C151.978 191.008 152.106 190.036 152.88 189.318H152.885Z" fill="#FFABD3" stroke="#4C2318" stroke-width="1.59468" stroke-linecap="round" stroke-linejoin="round"/>
<path d="M158.624 189.586C156.827 190.112 155.596 190.096 154.727 190.054L158.624 189.586Z" fill="#FFB6CB"/>
<path d="M158.624 189.586C156.827 190.112 155.596 190.096 154.727 190.054" stroke="#4C2318" stroke-width="1.59468" stroke-linecap="round" stroke-linejoin="round"/>
<path d="M149.98 189.499C149.98 189.499 144.115 181.525 140.185 185.018C136.256 188.505 139.183 192.178 142.068 192.922C143.791 193.363 149.222 192.736 149.222 192.736C150.707 191.205 150.643 190.243 149.98 189.504V189.499Z" fill="#FFABD3" stroke="#4C2318" stroke-width="1.59468" stroke-linecap="round" stroke-linejoin="round"/>
<path d="M145.016 188.953C146.76 189.644 147.985 189.74 148.855 189.782L145.016 188.953Z" fill="#FFB6CB"/>
<path d="M145.016 188.953C146.76 189.644 147.985 189.74 148.855 189.782" stroke="#4C2318" stroke-width="1.59468" stroke-linecap="round" stroke-linejoin="round"/>
<path d="M154.637 192.123C154.637 192.123 155.501 188.976 153.322 188.833C152.091 188.748 151.068 188.732 150.41 188.727C149.397 188.727 148.506 189.46 148.384 190.47C148.363 190.635 148.358 190.81 148.369 191.002C148.453 192.798 148.512 193.112 150.628 193.245C152.744 193.378 154.642 193.245 154.642 192.129L154.637 192.123Z" fill="#FFABD3" stroke="#4C2318" stroke-width="1.59468" stroke-linecap="round" stroke-linejoin="round"/>
<g style="mix-blend-mode:color-burn" opacity="0.15">
<path d="M147.845 38.1746C145.803 37.8557 144.138 37.0849 143.21 35.756C142.77 35.1288 142.627 34.3421 142.706 33.5819L146.016 1.89561L146.164 1.39062L147.845 38.1746Z" fill="black"/>
</g>
</svg>
