<svg width="22" height="22" viewBox="0 0 22 22" fill="none" xmlns="http://www.w3.org/2000/svg">
<path d="M21.6663 10.9987C21.6663 5.10766 16.8907 0.332031 10.9997 0.332031C5.10863 0.332031 0.333008 5.10766 0.333008 10.9987C0.333008 16.8897 5.10863 21.6654 10.9997 21.6654C16.8907 21.6654 21.6663 16.8897 21.6663 10.9987Z" fill="#E5E5E5"/>
<path d="M11.7494 5.13086H10.2513C10.1063 5.13063 9.9627 5.15672 9.82947 5.20751C9.69624 5.2583 9.57614 5.33272 9.47662 5.42619C9.3771 5.51965 9.3003 5.63019 9.2508 5.75098C9.20131 5.87177 9.18019 6.00026 9.18894 6.12852L9.65635 13.1309H12.3337L12.8118 6.12852C12.8205 6.00026 12.7994 5.87177 12.7499 5.75098C12.7005 5.63019 12.6236 5.51965 12.5241 5.42619C12.4246 5.33272 12.3045 5.2583 12.1712 5.20751C12.038 5.15672 11.8944 5.13063 11.7494 5.13086Z" fill="white"/>
<path d="M11.0009 17.782C11.8845 17.782 12.6009 17.0657 12.6009 16.182C12.6009 15.2983 11.8845 14.582 11.0009 14.582C10.1173 14.582 9.40088 15.2983 9.40088 16.182C9.40088 17.0657 10.1173 17.782 11.0009 17.782Z" fill="white"/>
</svg>
