<svg width="32" height="32" viewBox="0 0 32 32" fill="none" xmlns="http://www.w3.org/2000/svg">
<path d="M16 8C11.1516 8 7.01095 11.0409 5.33337 15.3333C7.01095 19.6258 11.1516 22.6667 16 22.6667C20.8485 22.6667 24.9891 19.6258 26.6667 15.3333C24.9891 11.0409 20.8485 8 16 8ZM16 20.2222C13.3237 20.2222 11.1516 18.032 11.1516 15.3333C11.1516 12.6347 13.3237 10.4444 16 10.4444C18.6764 10.4444 20.8485 12.6347 20.8485 15.3333C20.8485 18.032 18.6764 20.2222 16 20.2222ZM16 12.4C14.3903 12.4 13.091 13.7102 13.091 15.3333C13.091 16.9564 14.3903 18.2667 16 18.2667C17.6097 18.2667 18.9091 16.9564 18.9091 15.3333C18.9091 13.7102 17.6097 12.4 16 12.4Z" fill="#FFC747"/>
</svg>
