<svg width="24" height="24" viewBox="0 0 24 24" fill="none" xmlns="http://www.w3.org/2000/svg">
<path d="M15.7727 7.09091V16.5C15.7727 18.3082 14.3082 19.7727 12.5 19.7727C10.6918 19.7727 9.22727 18.3082 9.22727 16.5V6.27273C9.22727 5.14364 10.1436 4.22727 11.2727 4.22727C12.4018 4.22727 13.3182 5.14364 13.3182 6.27273V14.8636C13.3182 15.3136 12.95 15.6818 12.5 15.6818C12.05 15.6818 11.6818 15.3136 11.6818 14.8636V7.09091H10.4545V14.8636C10.4545 15.9927 11.3709 16.9091 12.5 16.9091C13.6291 16.9091 14.5455 15.9927 14.5455 14.8636V6.27273C14.5455 4.46455 13.0809 3 11.2727 3C9.46455 3 8 4.46455 8 6.27273V16.5C8 18.9873 10.0127 21 12.5 21C14.9873 21 17 18.9873 17 16.5V7.09091H15.7727Z" fill="#222222" stroke="#222222" stroke-width="0.4"/>
</svg>
