<svg width="32" height="32" viewBox="0 0 32 32" fill="none" xmlns="http://www.w3.org/2000/svg">
<path d="M26.6559 12.81V12.3875C26.6559 11.8025 26.4213 11.25 25.9949 10.8384C25.5791 10.4267 25.0034 10.1992 24.4063 10.1992H14.3099L12.7214 8.63917C12.2949 8.2275 11.7299 8 11.1328 8H7.58257C6.98553 8 6.40981 8.2275 5.99402 8.63917C5.57822 9.05084 5.33301 9.60335 5.33301 10.1884V22.9502C5.33301 23.5785 5.56756 24.1852 5.99402 24.6402C6.40981 25.0843 6.98553 25.3335 7.58257 25.3335H24.417C25.014 25.3335 25.5791 25.0843 26.0055 24.6402C26.4213 24.196 26.6666 23.5893 26.6666 22.9502V12.81H26.6559Z" stroke="#222222" stroke-width="2.5"/>
<path d="M13.3359 17.7812H18.9938" stroke="#222222" stroke-width="1.8" stroke-linecap="round"/>
<path d="M16.1641 14.9062V20.6554" stroke="#222222" stroke-width="1.8" stroke-linecap="round"/>
</svg>
