<svg width="32" height="32" viewBox="0 0 32 32" fill="none" xmlns="http://www.w3.org/2000/svg">
    <path d="M21.6888 14.5766L17.4242 10.312L19.5565 5.33337L26.6675 12.4443L21.6888 14.5766Z" fill="#FF9BA3"/>
    <path d="M19.5553 12.4445L17.423 10.3122L10.3121 11.7304L5.79609 25.1275L5.33341 26.6663L6.86221 26.1936L20.2694 21.6877L21.6876 14.5767L19.5553 12.4445Z" fill="#F1F1F1"/>
    <path d="M16.7089 15.2908C16.5221 15.1037 16.3003 14.9554 16.056 14.8542C15.8118 14.7529 15.55 14.7008 15.2857 14.7008C15.0214 14.7008 14.7596 14.7529 14.5154 14.8542C14.2712 14.9554 14.0493 15.1037 13.8625 15.2908C13.5814 15.5745 13.3911 15.9355 13.3158 16.3278C13.2406 16.72 13.2839 17.1259 13.4401 17.4935L5.79607 25.1375L5.33341 26.6663L6.8622 26.2036L14.5062 18.5596C14.8738 18.7158 15.2796 18.7591 15.6719 18.6838C16.0642 18.6086 16.4252 18.4183 16.7089 18.1372C16.896 17.9503 17.0443 17.7285 17.1455 17.4843C17.2468 17.2401 17.2989 16.9783 17.2989 16.714C17.2989 16.4496 17.2468 16.1879 17.1455 15.9437C17.0443 15.6995 16.896 15.4776 16.7089 15.2908Z" fill="#DCDCDC"/>
</svg>