                                <svg class="full-screen-icon" width="42" height="42" viewBox="0 0 42 42" fill="none" xmlns="http://www.w3.org/2000/svg">
                                    <path d="M15.75 7H8.75C7.7875 7 7 7.7875 7 8.75V15.75C7 16.7125 7.7875 17.5 8.75 17.5C9.7125 17.5 10.5 16.7125 10.5 15.75V10.5H15.75C16.7125 10.5 17.5 9.7125 17.5 8.75C17.5 7.7875 16.7125 7 15.75 7Z" fill="white" />
                                    <path d="M33.25 7H26.25C25.2875 7 24.5 7.7875 24.5 8.75C24.5 9.7125 25.2875 10.5 26.25 10.5H31.5V15.75C31.5 16.7125 32.2875 17.5 33.25 17.5C34.2125 17.5 35 16.7125 35 15.75V8.75C35 7.7875 34.2125 7 33.25 7Z" fill="white" />
                                    <path d="M15.75 31.5H10.5V26.25C10.5 25.2875 9.7125 24.5 8.75 24.5C7.7875 24.5 7 25.2875 7 26.25V33.25C7 34.2125 7.7875 35 8.75 35H15.75C16.7125 35 17.5 34.2125 17.5 33.25C17.5 32.2875 16.7125 31.5 15.75 31.5Z" fill="white" />
                                    <path d="M33.25 24.5C32.2875 24.5 31.5 25.2875 31.5 26.25V31.5H26.25C25.2875 31.5 24.5 32.2875 24.5 33.25C24.5 34.2125 25.2875 35 26.25 35H33.25C34.2125 35 35 34.2125 35 33.25V26.25C35 25.2875 34.2125 24.5 33.25 24.5Z" fill="white" />
                                </svg>