<svg width="32" height="32" viewBox="0 0 32 32" fill="none" xmlns="http://www.w3.org/2000/svg">
  <path d="M16.0045 24.2678C20.5701 24.2678 24.2713 20.5667 24.2713 16.0011C24.2713 11.4355 20.5701 7.73438 16.0045 7.73438C11.4389 7.73438 7.73779 11.4355 7.73779 16.0011C7.73779 20.5667 11.4389 24.2678 16.0045 24.2678Z" fill="#FFC747"/>
  <path d="M13.8723 5.33398H18.139C18.4219 5.33398 18.6933 5.44637 18.8933 5.6464C19.0933 5.84645 19.2057 6.11776 19.2057 6.40066V8.53401H12.8057V6.40066C12.8057 6.11776 12.918 5.84645 13.1181 5.6464C13.3181 5.44637 13.5894 5.33398 13.8723 5.33398Z" fill="#FFC747"/>
  <path d="M5.701 12.5214L7.83435 8.82631C7.9758 8.58132 8.20881 8.40253 8.48207 8.32931C8.75533 8.2561 9.04646 8.29443 9.29146 8.43589L11.139 9.50256L7.93897 15.0452L6.09143 13.9785C5.84643 13.837 5.66768 13.6041 5.59446 13.3308C5.52124 13.0575 5.55955 12.7664 5.701 12.5214Z" fill="#FFC747"/>
  <path d="M7.83681 23.1895L5.70346 19.4945C5.562 19.2495 5.52368 18.9583 5.59689 18.6851C5.67011 18.4118 5.84889 18.1788 6.09388 18.0374L7.94142 16.9707L11.1414 22.5134L9.29391 23.58C9.04891 23.7215 8.75776 23.7598 8.4845 23.6865C8.21124 23.6133 7.97826 23.4345 7.83681 23.1895Z" fill="#FFC747"/>
  <path d="M18.1283 26.6668H13.8616C13.5787 26.6668 13.3074 26.5544 13.1074 26.3544C12.9073 26.1544 12.7949 25.883 12.7949 25.6001V23.4668H19.1949V25.6001C19.1949 25.883 19.0826 26.1544 18.8826 26.3544C18.6825 26.5544 18.4113 26.6668 18.1283 26.6668Z" fill="#FFC747"/>
  <path d="M26.3033 19.4964L24.1699 23.1915C24.0285 23.4365 23.7955 23.6153 23.5222 23.6884C23.2489 23.7617 22.9578 23.7233 22.7128 23.5819L20.8652 22.5152L24.0653 16.9727L25.9129 18.0393C26.1579 18.1808 26.3366 18.4137 26.4098 18.687C26.483 18.9602 26.4447 19.2514 26.3033 19.4964Z" fill="#FFC747"/>
  <path d="M24.1699 8.82824L26.3033 12.5233C26.4447 12.7683 26.483 13.0595 26.4098 13.3328C26.3365 13.606 26.1579 13.839 25.9129 13.9804L24.0653 15.0471L20.8652 9.5045L22.7128 8.43782C22.9578 8.29637 23.2489 8.25805 23.5222 8.33128C23.7955 8.4045 24.0285 8.58325 24.1699 8.82824Z" fill="#FFC747"/>
  <path d="M16.006 18.6674C17.4788 18.6674 18.6727 17.4734 18.6727 16.0007C18.6727 14.5279 17.4788 13.334 16.006 13.334C14.5333 13.334 13.3394 14.5279 13.3394 16.0007C13.3394 17.4734 14.5333 18.6674 16.006 18.6674Z" fill="white"/>
</svg>