<svg width="32" height="32" viewBox="0 0 32 32" fill="none" xmlns="http://www.w3.org/2000/svg">
<path d="M14.666 3.9974C14.666 3.26102 15.263 2.66406 15.9993 2.66406C16.7357 2.66406 17.3327 3.26102 17.3327 3.9974V6.66406H14.666V3.9974Z" fill="#FF5065"/>
<rect x="14.666" y="25.3359" width="2.66667" height="4" rx="1.33333" fill="#FF5065"/>
<path d="M15.9987 26.6615C21.8897 26.6615 26.6654 21.8858 26.6654 15.9948C26.6654 10.1038 21.8897 5.32812 15.9987 5.32812C10.1077 5.32812 5.33203 10.1038 5.33203 15.9948C5.33203 21.8858 10.1077 26.6615 15.9987 26.6615Z" fill="#FFAFB9"/>
<path d="M15.998 23.9922C20.4163 23.9922 23.998 20.4105 23.998 15.9922C23.998 11.5739 20.4163 7.99219 15.998 7.99219C11.5798 7.99219 7.99805 11.5739 7.99805 15.9922C7.99805 20.4105 11.5798 23.9922 15.998 23.9922Z" fill="white"/>
<path d="M15.9993 21.3307C18.9449 21.3307 21.3327 18.9429 21.3327 15.9974C21.3327 13.0519 18.9449 10.6641 15.9993 10.6641C13.0538 10.6641 10.666 13.0519 10.666 15.9974C10.666 18.9429 13.0538 21.3307 15.9993 21.3307Z" fill="#FF5065"/>
<path d="M15.9987 18.6615C17.4715 18.6615 18.6654 17.4676 18.6654 15.9948C18.6654 14.522 17.4715 13.3281 15.9987 13.3281C14.5259 13.3281 13.332 14.522 13.332 15.9948C13.332 17.4676 14.5259 18.6615 15.9987 18.6615Z" fill="white"/>
</svg>
