<svg width="137" height="149" viewBox="0 0 137 149" fill="none" xmlns="http://www.w3.org/2000/svg">
<g filter="url(#filter0_d_1902_8455)">
<path d="M74.6667 39.2797H73.8866C72.8754 37.5462 71.0265 36.3906 68.8886 36.3906H51.5543C49.4164 36.3906 47.5385 37.5462 46.5562 39.2797H45.7761C42.5982 39.2797 39.998 41.8798 39.998 45.0578V82.6154C39.998 85.7934 42.5982 88.3935 45.7761 88.3935H74.6667C77.8446 88.3935 80.4448 85.7934 80.4448 82.6154V45.0578C80.4448 41.8798 77.8446 39.2797 74.6667 39.2797Z" fill="white"/>
</g>
<path d="M74.6673 42.1719H45.7767C44.1812 42.1719 42.8877 43.4653 42.8877 45.0609V82.6186C42.8877 84.2142 44.1812 85.5076 45.7767 85.5076H74.6673C76.2628 85.5076 77.5563 84.2142 77.5563 82.6186V45.0609C77.5563 43.4653 76.2628 42.1719 74.6673 42.1719Z" fill="#FFE39E"/>
<path d="M72.3276 47.6016H48.0885C47.3067 47.6016 46.6729 48.2354 46.6729 49.0172V80.0167C46.6729 80.7985 47.3067 81.4323 48.0885 81.4323H72.3276C73.1095 81.4323 73.7433 80.7985 73.7433 80.0167V49.0172C73.7433 48.2354 73.1095 47.6016 72.3276 47.6016Z" fill="white"/>
<path d="M68.8864 39.2891H51.5521C49.9566 39.2891 48.6631 40.5825 48.6631 42.1781C48.6631 43.7737 49.9566 45.0672 51.5521 45.0672H68.8864C70.482 45.0672 71.7755 43.7737 71.7755 42.1781C71.7755 40.5825 70.482 39.2891 68.8864 39.2891Z" fill="#FFC747"/>
<path d="M52.3913 58.9576C52.1602 58.9576 51.929 58.8709 51.7557 58.6976L49.8489 56.7908C49.5022 56.4441 49.5022 55.8663 49.8489 55.5196C50.1956 55.1729 50.7734 55.1729 51.1201 55.5196L52.3913 56.7908L54.7893 54.3928C55.136 54.0461 55.7138 54.0461 56.0605 54.3928C56.4072 54.7395 56.4072 55.3173 56.0605 55.664L53.0269 58.6976C52.8536 58.8709 52.6224 58.9576 52.3913 58.9576Z" fill="#FF5065"/>
<path d="M52.3913 67.8014C52.1602 67.8014 51.929 67.7147 51.7557 67.5414L49.8489 65.6345C49.5022 65.2878 49.5022 64.71 49.8489 64.3633C50.1956 64.0166 50.7734 64.0166 51.1201 64.3633L52.3913 65.6345L54.7893 63.2366C55.136 62.8899 55.7138 62.8899 56.0605 63.2366C56.4072 63.5833 56.4072 64.1611 56.0605 64.5078L53.0269 67.5414C52.8536 67.7147 52.6224 67.8014 52.3913 67.8014Z" fill="#FF5065"/>
<defs>
<filter id="filter0_d_1902_8455" x="0.000284195" y="0.392639" width="136.441" height="147.995" filterUnits="userSpaceOnUse" color-interpolation-filters="sRGB">
<feFlood flood-opacity="0" result="BackgroundImageFix"/>
<feColorMatrix in="SourceAlpha" type="matrix" values="0 0 0 0 0 0 0 0 0 0 0 0 0 0 0 0 0 0 127 0" result="hardAlpha"/>
<feOffset dx="7.99955" dy="11.9993"/>
<feGaussianBlur stdDeviation="23.9987"/>
<feComposite in2="hardAlpha" operator="out"/>
<feColorMatrix type="matrix" values="0 0 0 0 0 0 0 0 0 0 0 0 0 0 0 0 0 0 0.08 0"/>
<feBlend mode="normal" in2="BackgroundImageFix" result="effect1_dropShadow_1902_8455"/>
<feBlend mode="normal" in="SourceGraphic" in2="effect1_dropShadow_1902_8455" result="shape"/>
</filter>
</defs>
</svg>
