<svg width="167" height="220" viewBox="0 0 167 220" fill="none" xmlns="http://www.w3.org/2000/svg">
<path d="M66.4699 112.902C66.4699 112.902 53.1695 110.186 49.9704 107.75C45.2476 104.156 46.1217 100.41 46.1217 100.41C46.1217 100.41 47.1537 97.3855 44.8773 95.1733C44.8773 95.1733 43.4932 89.5789 39.9541 89.1244C36.415 88.6637 31.3219 87.4939 29.0637 90.9184C28.1288 92.3428 25.2939 95.2339 29.3126 100.652C29.3126 100.652 33.5012 113.29 44.6769 122.012C54.5111 129.691 66.4942 128.812 66.4942 128.812" fill="#FF9680"/>
<path d="M66.4699 112.902C66.4699 112.902 53.1695 110.186 49.9704 107.75C45.2476 104.156 46.1217 100.41 46.1217 100.41C46.1217 100.41 47.1537 97.3855 44.8773 95.1733C44.8773 95.1733 43.4932 89.5789 39.9541 89.1244C36.415 88.6637 31.3219 87.4939 29.0637 90.9184C28.1288 92.3428 25.2939 95.2339 29.3126 100.652C29.3126 100.652 33.5012 113.29 44.6769 122.012C54.5111 129.691 66.4942 128.812 66.4942 128.812" stroke="#4C2318" stroke-width="1.81818" stroke-linecap="round" stroke-linejoin="round"/>
<path d="M42.273 98.2969C42.273 98.2969 35.4376 99.3878 35.9536 102.115C36.6578 105.86 42.6918 102.594 42.6918 102.594" fill="#FF9680"/>
<path d="M42.273 98.2969C42.273 98.2969 35.4376 99.3878 35.9536 102.115C36.6578 105.86 42.6918 102.594 42.6918 102.594" stroke="#4C2318" stroke-width="1.81818" stroke-linecap="round" stroke-linejoin="round"/>
<path d="M32.6384 94.1719C32.6384 94.1719 29.4696 102.329 36.1107 101.117" stroke="#4C2318" stroke-width="1.81818" stroke-linecap="round" stroke-linejoin="round"/>
<path d="M37.7801 94.0078C37.7801 94.0078 35.7343 98.9775 36.8877 100.232" stroke="#4C2318" stroke-width="1.81818" stroke-linecap="round" stroke-linejoin="round"/>
<path d="M41.5498 94.9062C41.5498 94.9062 41.295 97.3972 40.834 98.6093" stroke="#4C2318" stroke-width="1.81818" stroke-linecap="round" stroke-linejoin="round"/>
<path d="M32.56 100.32C32.56 100.32 31.0484 101.696 29.3184 100.654" stroke="#4C2318" stroke-width="1.81818" stroke-linecap="round" stroke-linejoin="round"/>
<path d="M74.9994 52.2487L26.0775 137.218C18.9871 149.328 -4.78484 135.448 2.30547 123.339L51.2335 38.375L75.0055 52.2548L74.9994 52.2487Z" fill="#FF7471" stroke="#4C2318" stroke-width="1.81818" stroke-linecap="round" stroke-linejoin="round"/>
<g style="mix-blend-mode:color-burn" opacity="0.15">
<path d="M25.4104 131.601C20.0016 140.832 4.90432 134.959 1.17705 126.286C-1.06296 137.517 19.5585 148.354 26.0842 137.22L75.0001 52.25L72.0741 50.5469L25.4104 131.601Z" fill="black"/>
</g>
<path d="M59.9448 29.509C59.9448 29.509 58.9189 17.1505 53.1155 11.8047C53.1155 11.8047 49.0787 18.5567 45.4121 21.3569C45.4121 21.3569 52.4478 27.1512 53.158 37.3216L59.9448 29.509Z" fill="#FFEAA9" stroke="#4C2318" stroke-width="1.81818" stroke-linecap="round" stroke-linejoin="round"/>
<path d="M51.234 38.3729L69.5061 19.7109L85.9571 20.4201L75.0059 52.2466C69.9917 60.8047 46.2258 46.931 51.234 38.3668V38.3729Z" fill="#FFEAA9" stroke="#4C2318" stroke-width="1.81818" stroke-linecap="round" stroke-linejoin="round"/>
<path d="M78.368 42.4681C78.368 42.4681 63.902 47.7954 52.6777 36.8984" stroke="#4C2318" stroke-width="1.81818" stroke-linecap="round" stroke-linejoin="round"/>
<path d="M81.9921 31.9376C81.9921 31.9376 70.9378 37.3497 60.7637 28.6406" stroke="#4C2318" stroke-width="1.81818" stroke-linecap="round" stroke-linejoin="round"/>
<path d="M92.5251 4.02344L85.9568 20.4185C85.9568 20.4185 76.8208 26.6311 69.5059 19.7094L82.958 4.1689L92.5251 4.02344Z" fill="#FF7471" stroke="#4C2318" stroke-width="1.81818" stroke-linecap="round" stroke-linejoin="round"/>
<g style="mix-blend-mode:color-burn" opacity="0.15">
<path d="M69.5471 54.9396C71.9267 54.9154 73.9057 54.1093 74.9923 52.2485L85.9434 20.4221L92.2264 4.74219C91.4129 5.56649 90.1199 6.40897 88.062 6.91204L82.9021 20.2887L82.1737 22.1919L69.541 54.9396H69.5471Z" fill="black"/>
</g>
<path d="M88.4865 6.81449C91.1945 6.1062 93.0648 4.2931 92.6637 2.7648C92.2627 1.23651 89.7423 0.57176 87.0342 1.28004C84.3262 1.98833 82.456 3.80143 82.857 5.32972C83.258 6.85802 85.7784 7.52277 88.4865 6.81449Z" fill="#FF7471" stroke="#4C2318" stroke-width="1.81818" stroke-linecap="round" stroke-linejoin="round"/>
<path d="M50.3846 52.1094L43.0332 64.6557" stroke="white" stroke-width="1.81818" stroke-linecap="round" stroke-linejoin="round"/>
<path d="M81.9377 10.7344L78.5625 15.1768" stroke="white" stroke-width="1.81818" stroke-linecap="round" stroke-linejoin="round"/>
<g style="mix-blend-mode:multiply" opacity="0.15">
<path d="M94.5534 219.999C117.549 219.999 136.191 217.141 136.191 213.617C136.191 210.092 117.549 207.234 94.5534 207.234C71.5577 207.234 52.916 210.092 52.916 213.617C52.916 217.141 71.5577 219.999 94.5534 219.999Z" fill="black"/>
</g>
<path d="M115.63 41.8391C115.63 41.8391 76.5964 26.3834 64.0973 66.6226C64.0973 66.6226 58.2817 64.9134 67.4239 51.8883C67.4239 51.8883 31.7052 80.1993 30.2968 122.778C28.8885 165.357 67.8792 182.728 99.0571 180.873C129.762 179.043 154.893 160.508 158.36 133.07C161.82 105.68 146.686 66.9439 121.846 50.1003C121.846 50.1003 132.439 65.1862 124.007 72.9079C124.007 72.9079 129.064 62.7314 115.235 52.4398C115.235 52.4398 105.158 45.8878 93.4419 50.1003C93.4419 50.1003 99.1603 44.3968 115.623 41.8391H115.63Z" fill="#FF9680" stroke="#4C2318" stroke-width="1.81818" stroke-linecap="round" stroke-linejoin="round"/>
<path d="M126.168 71.4407C126.168 71.4407 127.23 69.1072 127.248 64.4402C126.975 57.3973 121.852 50.0938 121.852 50.0938C123.448 51.1726 125.002 52.3485 126.514 53.6031C129.088 58.1489 132.554 65.5979 126.168 71.4407Z" fill="white"/>
<path d="M115.537 41.8303C115.44 41.8485 115.337 41.8606 115.239 41.8788C105.545 39.2483 78.4767 35.0601 67.8169 65.9714C67.3374 67.3594 65.5405 67.8928 64.4964 66.8624C64.3203 66.6866 64.1807 66.4805 64.0957 66.232C63.7315 65.0926 65.2613 62.9954 66.4571 60.1407C66.4632 60.1286 66.4693 60.1164 66.4693 60.1043C66.8821 59.1831 67.3131 58.3042 67.7623 57.4617C67.7744 57.4375 67.7926 57.4072 67.8108 57.3769C68.5211 56.098 69.4195 54.6615 70.5486 53.0493C70.5304 53.0675 70.4636 53.116 70.3483 53.2129C86.3137 30.2598 115.537 41.8303 115.537 41.8303Z" fill="white"/>
<path d="M67.4104 51.8906C64.5755 55.9333 63.1793 58.8911 62.6086 61.0367C53.9218 69.2858 34.5388 90.6024 30.4473 119.768C33.349 79.1956 66.8762 52.3149 67.4104 51.8906Z" fill="white"/>
<path d="M115.63 41.8391C115.63 41.8391 76.5964 26.3834 64.0973 66.6226C64.0973 66.6226 58.2817 64.9134 67.4239 51.8883C67.4239 51.8883 31.7052 80.1993 30.2968 122.778C28.8885 165.357 67.8792 182.728 99.0571 180.873C129.762 179.043 154.893 160.508 158.36 133.07C161.82 105.68 146.686 66.9439 121.846 50.1003C121.846 50.1003 132.439 65.1862 124.007 72.9079C124.007 72.9079 129.064 62.7314 115.235 52.4398C115.235 52.4398 105.158 45.8878 93.4419 50.1003C93.4419 50.1003 99.1603 44.3968 115.623 41.8391H115.63Z" stroke="#4C2318" stroke-width="1.81818" stroke-linecap="round" stroke-linejoin="round"/>
<path d="M64.6114 154.699C64.6114 154.699 27.7818 140.317 36.9118 102.478C36.9118 102.478 49.1377 61.4505 95.759 69.4996C142.38 77.5547 135.472 123.431 134.319 127.395C131.666 136.498 121.747 162.706 77.1044 157.912C73.6078 157.536 70.1537 156.803 66.8453 155.603C66.0622 155.318 65.2913 155.009 64.6175 154.693L64.6114 154.699Z" fill="#FFEAA9"/>
<path d="M131.134 95.0118C125.931 84.4898 115.818 74.8286 96.7018 71.5253C50.0744 63.4702 37.8485 104.503 37.8485 104.503C35.1714 115.607 36.4462 124.693 39.5907 131.984C35.7845 124.365 33.9755 114.631 36.9076 102.479C36.9076 102.479 49.1335 61.4458 95.7609 69.5009C116.097 73.0163 126.247 83.7261 131.134 95.0118Z" fill="white"/>
<path d="M93.4423 50.0938C93.4423 50.0938 83.7659 56.0033 90.1217 61.9006C93.9643 65.4706 100.97 61.8764 99.8648 58.1064C99.8648 58.1064 98.8875 54.7001 95.5184 56.7306" fill="#FF9680"/>
<path d="M93.4423 50.0938C93.4423 50.0938 83.7659 56.0033 90.1217 61.9006C93.9643 65.4706 100.97 61.8764 99.8648 58.1064C99.8648 58.1064 98.8875 54.7001 95.5184 56.7306" stroke="#4C2318" stroke-width="1.81818" stroke-linecap="round" stroke-linejoin="round"/>
<path d="M76.5849 123.748C76.251 123.76 75.9232 123.742 75.5893 123.699C71.6314 123.19 72.1352 109.474 76.1175 109.438C76.427 109.438 76.7366 109.444 77.0462 109.474C81.0588 109.807 80.6096 123.632 76.5788 123.748H76.5849Z" fill="#FF7471" stroke="#4C2318" stroke-width="1.81818" stroke-linecap="round" stroke-linejoin="round"/>
<path d="M73.3125 126.797C75.2004 128.257 77.0883 128.257 78.9763 126.797" stroke="#4C2318" stroke-width="1.81818" stroke-linecap="round" stroke-linejoin="round"/>
<path d="M57.0274 103.875C57.0816 102.293 53.8171 100.897 49.736 100.757C45.6549 100.618 42.3026 101.787 42.2484 103.369C42.1943 104.952 45.4588 106.348 49.5399 106.487C53.621 106.627 56.9733 105.457 57.0274 103.875Z" fill="#FF7471" stroke="#4C2318" stroke-width="1.81818" stroke-linecap="round" stroke-linejoin="round"/>
<path d="M68.2038 92.9705C68.2798 90.7524 66.5419 88.8929 64.3221 88.817C62.1023 88.7412 60.2411 90.4778 60.1651 92.6958L59.9872 97.8871C59.9111 100.105 61.649 101.965 63.8688 102.041C66.0887 102.116 67.9498 100.38 68.0258 98.1617L68.2038 92.9705Z" fill="#4C2318"/>
<path d="M62.3326 93.7285C62.869 93.7285 63.3039 93.2943 63.3039 92.7588C63.3039 92.2232 62.869 91.7891 62.3326 91.7891C61.7962 91.7891 61.3613 92.2232 61.3613 92.7588C61.3613 93.2943 61.7962 93.7285 62.3326 93.7285Z" fill="white"/>
<path d="M112.346 103.874C112.4 102.292 109.136 100.896 105.055 100.757C100.974 100.617 97.6212 101.787 97.5669 103.369C97.5127 104.952 100.777 106.347 104.858 106.487C108.939 106.626 112.292 105.457 112.346 103.874Z" fill="#FF7471" stroke="#4C2318" stroke-width="1.81818" stroke-linecap="round" stroke-linejoin="round"/>
<path d="M95.3756 92.9705C95.4517 90.7524 93.7138 88.8929 91.4939 88.817C89.2741 88.7412 87.413 90.4778 87.337 92.6958L87.159 97.8871C87.083 100.105 88.8209 101.965 91.0407 102.041C93.2605 102.116 95.1217 100.38 95.1977 98.1617L95.3756 92.9705Z" fill="#4C2318"/>
<path d="M89.5025 93.7285C90.0389 93.7285 90.4738 93.2943 90.4738 92.7588C90.4738 92.2232 90.0389 91.7891 89.5025 91.7891C88.9661 91.7891 88.5312 92.2232 88.5312 92.7588C88.5312 93.2943 88.9661 93.7285 89.5025 93.7285Z" fill="white"/>
<path d="M124.008 72.9062C124.008 72.9062 122.702 74.5244 120.59 75.5123Z" fill="#FF9680"/>
<path d="M124.008 72.9062C124.008 72.9062 122.702 74.5244 120.59 75.5123" stroke="#4C2318" stroke-width="1.81818" stroke-linecap="round" stroke-linejoin="round"/>
<path d="M140.5 88.5257C140.5 88.5257 150.091 78.9311 151.415 75.143C153.363 69.5426 150.565 66.9 150.565 66.9C150.565 66.9 148.294 64.8453 148.707 61.8451C148.707 61.8451 146.771 56.4204 149.466 54.0869C152.161 51.7534 155.761 47.9714 159.537 49.5836C161.103 50.2564 165.067 51.1049 164.709 57.8387C164.709 57.8387 168.2 70.682 163.701 84.1193C159.743 95.9383 149.266 101.811 149.266 101.811" fill="#FF9680"/>
<path d="M140.5 88.5257C140.5 88.5257 150.091 78.9311 151.415 75.143C153.363 69.5426 150.565 66.9 150.565 66.9C150.565 66.9 148.294 64.8453 148.707 61.8451C148.707 61.8451 146.771 56.4204 149.466 54.0869C152.161 51.7534 155.761 47.9714 159.537 49.5836C161.103 50.2564 165.067 51.1049 164.709 57.8387C164.709 57.8387 168.2 70.682 163.701 84.1193C159.743 95.9383 149.266 101.811 149.266 101.811" stroke="#4C2318" stroke-width="1.81818" stroke-linecap="round" stroke-linejoin="round"/>
<path d="M152.605 63.0177C152.605 63.0177 158.913 60.1632 159.987 62.7208C161.468 66.2359 154.639 66.8359 154.639 66.8359" fill="#FF9680"/>
<path d="M152.605 63.0177C152.605 63.0177 158.913 60.1632 159.987 62.7208C161.468 66.2359 154.639 66.8359 154.639 66.8359" stroke="#4C2318" stroke-width="1.81818" stroke-linecap="round" stroke-linejoin="round"/>
<path d="M158.359 54.2578C158.359 54.2578 165.51 59.3124 159.306 61.9608" stroke="#4C2318" stroke-width="1.81818" stroke-linecap="round" stroke-linejoin="round"/>
<path d="M153.977 56.9609C153.977 56.9609 158.432 59.9731 158.159 61.6579" stroke="#4C2318" stroke-width="1.81818" stroke-linecap="round" stroke-linejoin="round"/>
<path d="M151.336 59.7812C151.336 59.7812 152.926 61.7206 153.977 62.4722" stroke="#4C2318" stroke-width="1.81818" stroke-linecap="round" stroke-linejoin="round"/>
<path d="M161.826 59.345C161.826 59.345 163.848 59.6602 164.71 57.8359" stroke="#4C2318" stroke-width="1.81818" stroke-linecap="round" stroke-linejoin="round"/>
<path d="M116.831 169.248C116.831 169.248 102.486 173 107.015 190.244C109.892 201.214 116.564 199.923 126.604 197.353C140.785 193.717 143.207 189.692 141.331 183.261C139.462 176.831 134.283 162.987 116.837 169.254L116.831 169.248Z" fill="#FF7761" stroke="#4C2318" stroke-width="1.81818" stroke-linecap="round" stroke-linejoin="round"/>
<g style="mix-blend-mode:color-burn" opacity="0.15">
<path d="M126.603 197.349C121.716 198.597 117.619 199.549 114.371 198.913C116.599 198.628 119.088 198.022 121.826 197.319C136 193.682 138.428 189.657 136.553 183.227C135.132 178.348 131.806 169.195 122.657 167.813C135.49 166.232 139.685 177.608 141.324 183.257C143.194 189.682 140.778 193.712 126.603 197.349Z" fill="black"/>
</g>
<path d="M113.17 177.551C113.17 177.551 116.06 174.872 116.43 177.345C116.8 179.818 114.76 182.036 113.103 180.478C111.452 178.921 113.164 177.557 113.164 177.557L113.17 177.551Z" fill="white"/>
<path d="M63.8432 173.881C59.1508 180.596 54.6404 188.791 47.5076 185.936C37.7038 183.585 26.1335 171.493 22.8433 167.511C18.6425 162.183 19.1828 158.552 21.4531 153.758C23.5899 149.249 29.2476 144.661 37.7463 144.648C41.6314 145.152 44.6484 146.788 46.937 149.037C49.9479 151.982 51.7084 155.983 52.5218 159.886C53.0621 162.462 53.1896 164.989 52.9953 167.147C53.2624 167.438 54.0091 167.092 54.865 166.595C56.0973 165.874 57.5724 165.662 58.9444 166.038C62.4228 166.995 64.4139 169.311 63.8432 173.887V173.881Z" fill="#FF7761" stroke="#4C2318" stroke-width="1.81818" stroke-linecap="round" stroke-linejoin="round"/>
<path d="M34.7603 151.018C34.7603 151.018 30.7113 151.539 31.7311 149.381C32.751 147.224 35.7923 146.599 36.4175 148.739C37.0428 150.884 34.7603 151.018 34.7603 151.018Z" fill="white"/>
<path d="M25.2285 156.055C25.2285 156.055 31.8878 160.794 37.5152 167.504Z" fill="#FF7761"/>
<path d="M25.2285 156.055C25.2285 156.055 31.8878 160.794 37.5152 167.504" stroke="#4C2318" stroke-width="1.81818" stroke-linecap="round" stroke-linejoin="round"/>
<path d="M52.9959 167.141C52.9959 167.141 52.6986 171.056 52.4863 172.092Z" fill="#FF7761"/>
<path d="M52.9959 167.141C52.9959 167.141 52.6986 171.056 52.4863 172.092" stroke="#4C2318" stroke-width="1.81818" stroke-linecap="round" stroke-linejoin="round"/>
<g style="mix-blend-mode:color-burn" opacity="0.15">
<path d="M63.9395 174.488C58.5914 181.404 55.4894 189.131 47.5067 185.943C37.6969 183.586 26.9825 172.476 23.7044 168.494C23.0974 167.912 20.6388 163.342 20.1532 162.687C20.1532 162.687 15.4364 142.522 37.5147 167.512C46.062 177.191 51.3554 155.935 51.3554 155.935C52.8427 159.766 53.2919 163.893 52.9945 167.148L55.0341 166.245C56.0904 165.778 57.2802 165.663 58.3972 165.936C63.1686 167.112 64.6558 170.167 63.9395 174.488Z" fill="black"/>
</g>
<path d="M29.5765 78.4314C29.5886 77.8738 29.2669 77.3526 28.7873 77.0617C27.7189 76.4254 25.6732 75.6738 24.1252 77.9587C22.4315 80.4557 23.0143 82.0193 24.192 83.2617C24.8051 83.9102 25.831 83.9405 26.5048 83.3587C28.2349 81.8738 29.5401 80.292 29.5765 78.4314Z" fill="#FF9680" stroke="#4C2318" stroke-width="1.81818" stroke-linecap="round" stroke-linejoin="round"/>
<path d="M26.2738 83.783C26.2859 83.2254 25.9642 82.7042 25.4846 82.4133C24.4162 81.7769 22.3704 81.0254 20.8225 83.3103C19.1288 85.8072 19.7116 87.3709 20.8892 88.6133C21.5024 89.2618 22.5283 89.2921 23.2021 88.7102C24.9322 87.2254 26.2373 85.6436 26.2738 83.783Z" fill="#FF9680" stroke="#4C2318" stroke-width="1.81818" stroke-linecap="round" stroke-linejoin="round"/>
<path d="M22.9652 89.1267C22.9773 88.5691 22.6556 88.0479 22.176 87.757C21.1076 87.1207 19.0619 86.3692 17.5139 88.654C15.8202 91.151 16.403 92.7146 17.5807 93.957C18.1938 94.6055 19.2197 94.6358 19.8935 94.054C21.6236 92.5691 22.9287 90.9873 22.9652 89.1267Z" fill="#FF9680" stroke="#4C2318" stroke-width="1.81818" stroke-linecap="round" stroke-linejoin="round"/>
</svg>
