<svg width="76" height="73" viewBox="0 0 76 73" fill="none" xmlns="http://www.w3.org/2000/svg">
<g filter="url(#filter0_d_1856_13643)">
<path d="M58.6 25.8C57.59 24.79 56.42 24 55.15 23.43C57.12 21.97 58.4 19.64 58.4 17.01C58.4 12.6 54.81 9.01 50.4 9.01C45.99 9.01 42.4 12.6 42.4 17.01C42.4 18.33 42.72 19.57 43.29 20.66C43.26 20.69 43.24 20.73 43.21 20.76C41.92 18.07 39.18 16.21 36 16.21C32.82 16.21 30.26 17.95 28.92 20.5L28.87 20.46C28.87 20.46 28.84 20.44 28.82 20.42C29.31 19.38 29.6 18.23 29.6 17.01C29.6 12.59 26.01 9 21.6 9C17.19 9 13.6 12.59 13.6 17C13.6 19.63 14.88 21.96 16.85 23.42C15.58 23.99 14.41 24.78 13.4 25.79C11.21 27.98 10 30.89 10 33.99V45.99C10 47.17 10.46 48.27 11.29 49.1C12.12 49.93 13.23 50.39 14.4 50.39H22.29V53.19C22.29 54.37 22.75 55.47 23.58 56.3C24.41 57.13 25.52 57.59 26.69 57.59H45.29C46.47 57.59 47.57 57.13 48.4 56.3C49.23 55.47 49.69 54.36 49.69 53.19V50.39H57.6C58.78 50.39 59.88 49.93 60.71 49.1C61.54 48.27 62 47.16 62 45.99V33.99C62 30.89 60.79 27.98 58.6 25.79V25.8Z" fill="white"/>
</g>
<path d="M21.6 24.3984C24.15 24.3984 26.59 25.4084 28.39 27.2084C30.19 29.0084 31.2 31.4484 31.2 33.9984V45.9984C31.2 46.6384 30.95 47.2484 30.5 47.6984C30.05 48.1484 29.44 48.3984 28.8 48.3984H14.4C13.76 48.3984 13.15 48.1484 12.7 47.6984C12.25 47.2484 12 46.6384 12 45.9984V33.9984C12 31.4484 13.01 29.0084 14.81 27.2084C16.61 25.4084 19.05 24.3984 21.6 24.3984Z" fill="#FF5065"/>
<path d="M21.6001 23C24.9101 23 27.6001 20.31 27.6001 17C27.6001 13.69 24.9101 11 21.6001 11C18.2901 11 15.6001 13.69 15.6001 17C15.6001 20.31 18.2901 23 21.6001 23Z" fill="#FF5065"/>
<path d="M57.5998 48.3984H43.1998C42.5598 48.3984 41.9498 48.1484 41.4998 47.6984C41.0498 47.2484 40.7998 46.6384 40.7998 45.9984V33.9984C40.7998 31.4484 41.8098 29.0084 43.6098 27.2084C45.4098 25.4084 47.8498 24.3984 50.3998 24.3984C52.9498 24.3984 55.3898 25.4084 57.1898 27.2084C58.9898 29.0084 59.9998 31.4484 59.9998 33.9984V45.9984C59.9998 46.6384 59.7498 47.2484 59.2998 47.6984C58.8498 48.1484 58.2398 48.3984 57.5998 48.3984Z" fill="#1ACEFF"/>
<path d="M50.3999 23C53.7099 23 56.3999 20.31 56.3999 17C56.3999 13.69 53.7099 11 50.3999 11C47.0899 11 44.3999 13.69 44.3999 17C44.3999 20.31 47.0899 23 50.3999 23Z" fill="#1ACEFF"/>
<path d="M33.89 32.1016H38.09C40.5076 32.1016 42.8204 33.059 44.5265 34.7651C46.2326 36.4712 47.19 38.784 47.19 41.2016V53.2016C47.19 53.7108 46.9914 54.1931 46.6365 54.548C46.2815 54.903 45.7993 55.1016 45.29 55.1016H26.69C26.1808 55.1016 25.6985 54.903 25.3436 54.548C24.9886 54.1931 24.79 53.7108 24.79 53.2016V41.2016C24.79 38.784 25.7475 36.4712 27.4536 34.7651C29.1597 33.059 31.4724 32.1016 33.89 32.1016Z" fill="#FFC747" stroke="#FFC747"/>
<path d="M41.5 24.2031C41.5 27.237 39.0339 29.7031 36 29.7031C32.9661 29.7031 30.5 27.237 30.5 24.2031C30.5 21.1693 32.9661 18.7031 36 18.7031C39.0339 18.7031 41.5 21.1693 41.5 24.2031Z" fill="#FFC747" stroke="#FFC747"/>
<defs>
<filter id="filter0_d_1856_13643" x="0" y="0" width="76" height="72.5938" filterUnits="userSpaceOnUse" color-interpolation-filters="sRGB">
<feFlood flood-opacity="0" result="BackgroundImageFix"/>
<feColorMatrix in="SourceAlpha" type="matrix" values="0 0 0 0 0 0 0 0 0 0 0 0 0 0 0 0 0 0 127 0" result="hardAlpha"/>
<feOffset dx="2" dy="3"/>
<feGaussianBlur stdDeviation="6"/>
<feComposite in2="hardAlpha" operator="out"/>
<feColorMatrix type="matrix" values="0 0 0 0 0 0 0 0 0 0 0 0 0 0 0 0 0 0 0.08 0"/>
<feBlend mode="normal" in2="BackgroundImageFix" result="effect1_dropShadow_1856_13643"/>
<feBlend mode="normal" in="SourceGraphic" in2="effect1_dropShadow_1856_13643" result="shape"/>
</filter>
</defs>
</svg>

