<svg width="72" height="72" viewBox="0 0 72 72" fill="none" xmlns="http://www.w3.org/2000/svg">
<path d="M59.99 30.3497H58.81C57.38 25.3697 53.25 21.6697 48.11 20.7997C46.04 15.8097 41.08 12.4297 35.61 12.4297C30.14 12.4297 25.28 15.6797 23.17 20.6397C17.92 21.4297 13.6 25.2597 12.18 30.3497H12C10.9 30.3497 10 31.2497 10 32.3497V34.3197C10 34.9697 10.26 35.5697 10.68 36.0097V52.3697C10.68 56.3397 13.81 59.5697 17.66 59.5697H54.34C58.19 59.5697 61.32 56.3397 61.32 52.3697V36.0097C61.74 35.5697 62 34.9797 62 34.3197V32.3497C62 31.2497 61.1 30.3497 60 30.3497H59.99Z" fill="white"/>
<mask id="path-2-inside-1_1473_34054" fill="white">
<path d="M36.7141 33.9987C36.7141 40.3687 31.5541 45.5287 25.1841 45.5287C18.8141 45.5287 13.6641 40.3587 13.6641 33.9987C13.6641 27.6387 18.8241 22.4688 25.1941 22.4688C31.5641 22.4688 36.7241 27.6287 36.7241 33.9987"/>
</mask>
<path d="M36.7141 33.9987C36.7141 40.3687 31.5541 45.5287 25.1841 45.5287C18.8141 45.5287 13.6641 40.3587 13.6641 33.9987C13.6641 27.6387 18.8241 22.4688 25.1941 22.4688C31.5641 22.4688 36.7241 27.6287 36.7241 33.9987" fill="#FFC747"/>
<path d="M35.7141 33.9987C35.7141 39.8165 31.0018 44.5287 25.1841 44.5287V46.5287C32.1063 46.5287 37.7141 40.921 37.7141 33.9987H35.7141ZM25.1841 44.5287C19.368 44.5287 14.6641 39.8082 14.6641 33.9987H12.6641C12.6641 40.9093 18.2601 46.5287 25.1841 46.5287V44.5287ZM14.6641 33.9987C14.6641 28.1905 19.3769 23.4688 25.1941 23.4688V21.4688C18.2712 21.4688 12.6641 27.087 12.6641 33.9987H14.6641ZM25.1941 23.4688C31.0118 23.4688 35.7241 28.181 35.7241 33.9987H37.7241C37.7241 27.0765 32.1163 21.4688 25.1941 21.4688V23.4688Z" fill="#FFC747" mask="url(#path-2-inside-1_1473_34054)"/>
<path d="M25.1955 43.3363C30.3538 43.3363 34.5355 39.1546 34.5355 33.9963C34.5355 28.8379 30.3538 24.6562 25.1955 24.6562C20.0371 24.6562 15.8555 28.8379 15.8555 33.9963C15.8555 39.1546 20.0371 43.3363 25.1955 43.3363Z" fill="#FFE39E"/>
<path d="M29.9344 39.059C30.0531 39.6409 29.4696 40.0919 28.954 39.8753L28.8798 39.8334L26.0411 38.2342C26.0409 38.2341 26.0406 38.2339 26.0403 38.2338C25.5154 37.9362 24.8707 37.9396 24.3425 38.2314L24.3425 38.2314L24.3389 38.2334L21.4989 39.8334L21.4989 39.8334L21.4963 39.8349C20.9658 40.138 20.3059 39.674 20.4249 39.0557C20.425 39.0552 20.4251 39.0548 20.4252 39.0544L21.0646 35.8674L21.0646 35.8674L21.0655 35.8626C21.1769 35.2778 20.9838 34.6636 20.5459 34.2539L20.5459 34.2539L20.5422 34.2505L18.1433 32.0515C18.1431 32.0513 18.143 32.0512 18.1428 32.051C17.684 31.6273 17.9321 30.8666 18.5511 30.7958L18.5512 30.7958L21.7812 30.4258L21.7821 30.4257C22.3858 30.3555 22.9056 29.9762 23.1583 29.4286L23.1593 29.4265L24.5089 26.4674C24.5089 26.4673 24.509 26.4672 24.509 26.4671C24.7709 25.8963 25.5681 25.8964 25.8298 26.4674L25.83 26.4678L27.19 29.4278L27.1904 29.4286C27.4431 29.9762 27.9629 30.3555 28.5666 30.4257L28.5674 30.4258L31.797 30.7958C32.4114 30.8667 32.6611 31.6306 32.2058 32.0511C32.2057 32.0512 32.2055 32.0513 32.2054 32.0515L29.8086 34.2486C29.8082 34.2489 29.8078 34.2493 29.8074 34.2496C29.356 34.6594 29.159 35.279 29.2849 35.8711L29.9344 39.0589L29.9344 39.059Z" fill="#FFC747" stroke="#FFC747"/>
<path d="M56.853 34.1159C56.853 40.2098 51.9168 45.1459 45.823 45.1459C39.7291 45.1459 34.793 40.2098 34.793 34.1159C34.793 28.0221 39.7291 23.0859 45.823 23.0859C51.9168 23.0859 56.853 28.0221 56.853 34.1159Z" fill="#FFC747" stroke="#FFC747"/>
<path d="M45.7345 43.3363C50.8929 43.3363 55.0745 39.1546 55.0745 33.9963C55.0745 28.8379 50.8929 24.6562 45.7345 24.6562C40.5762 24.6562 36.3945 28.8379 36.3945 33.9963C36.3945 39.1546 40.5762 43.3363 45.7345 43.3363Z" fill="#FFE39E"/>
<path d="M50.4735 39.059C50.5921 39.6409 50.0086 40.0919 49.4931 39.8753L49.4188 39.8334L46.5802 38.2342C46.5799 38.2341 46.5797 38.2339 46.5794 38.2338C46.0545 37.9362 45.4097 37.9396 44.8816 38.2314L44.8815 38.2314L44.878 38.2334L42.038 39.8334L42.038 39.8334L42.0353 39.8349C41.5049 40.138 40.845 39.674 40.964 39.0557C40.9641 39.0552 40.9641 39.0548 40.9642 39.0544L41.6036 35.8674L41.6036 35.8674L41.6046 35.8626C41.7159 35.2778 41.5229 34.6636 41.085 34.2539L41.085 34.2539L41.0813 34.2505L38.6823 32.0515C38.6822 32.0513 38.682 32.0512 38.6819 32.051C38.223 31.6273 38.4712 30.8666 39.0902 30.7958L39.0903 30.7958L42.3203 30.4258L42.3211 30.4257C42.9249 30.3555 43.4446 29.9762 43.6974 29.4286L43.6983 29.4265L45.0479 26.4674C45.048 26.4673 45.048 26.4672 45.0481 26.4671C45.31 25.8963 46.1072 25.8964 46.3689 26.4674L46.3691 26.4678L47.7291 29.4278L47.7294 29.4286C47.9822 29.9762 48.5019 30.3555 49.1056 30.4257L49.1065 30.4258L52.3361 30.7958C52.9505 30.8667 53.2002 31.6306 52.7449 32.0511C52.7447 32.0512 52.7446 32.0513 52.7445 32.0515L50.3476 34.2486C50.3473 34.2489 50.3469 34.2493 50.3465 34.2496C49.8951 34.6594 49.698 35.279 49.8239 35.8711L50.4735 39.0589L50.4735 39.059Z" fill="#FFC747" stroke="#FFC747"/>
<path d="M46.6459 25.9597C46.6459 32.0535 41.7098 36.9897 35.6159 36.9897C29.5221 36.9897 24.5859 32.0535 24.5859 25.9597C24.5859 19.8658 29.5221 14.9297 35.6159 14.9297C41.7098 14.9297 46.6459 19.8658 46.6459 25.9597Z" fill="#FFC747" stroke="#FFC747"/>
<path d="M35.6134 35.2972C40.7718 35.2972 44.9534 31.1155 44.9534 25.9572C44.9534 20.7988 40.7718 16.6172 35.6134 16.6172C30.4551 16.6172 26.2734 20.7988 26.2734 25.9572C26.2734 31.1155 30.4551 35.2972 35.6134 35.2972Z" fill="#FFE39E"/>
<path d="M40.3524 31.0199C40.471 31.6018 39.8875 32.0528 39.372 31.8362L39.2977 31.7944L36.4591 30.1952C36.4589 30.195 36.4587 30.1949 36.4585 30.1948C35.9335 29.8972 35.2887 29.9005 34.7605 30.1924L34.7604 30.1924L34.7569 30.1944L31.9169 31.7944L31.9169 31.7944L31.9142 31.7959C31.3838 32.099 30.7239 31.635 30.8429 31.0166C30.843 31.0162 30.843 31.0158 30.8431 31.0153L31.4825 27.8284L31.4826 27.8284L31.4835 27.8236C31.5949 27.2388 31.4018 26.6245 30.9639 26.2149L30.9639 26.2148L30.9602 26.2114L28.5612 24.0124C28.5611 24.0123 28.5609 24.0121 28.5608 24.012C28.1019 23.5882 28.3501 22.8275 28.9691 22.7568L28.9692 22.7568L32.1992 22.3868L32.2 22.3867C32.8038 22.3165 33.3235 21.9372 33.5763 21.3895L33.5772 21.3875L34.9268 18.4283C34.9269 18.4282 34.9269 18.4281 34.927 18.428C35.1889 17.8572 35.9861 17.8573 36.2478 18.4283L36.248 18.4288L37.608 21.3888L37.6083 21.3895C37.8611 21.9372 38.3808 22.3165 38.9845 22.3867L38.9854 22.3868L42.215 22.7567C42.8294 22.8276 43.0791 23.5916 42.6238 24.012C42.6237 24.0121 42.6235 24.0123 42.6234 24.0124L40.2265 26.2095C40.2262 26.2098 40.2258 26.2102 40.2254 26.2105C39.774 26.6204 39.577 27.24 39.7028 27.8321L40.3524 31.0198L40.3524 31.0199Z" fill="#FFC747" stroke="#FFC747"/>
<path d="M58.9041 32.3516H13.0841C12.8541 32.3516 12.6641 32.5416 12.6641 32.7816V52.3616C12.6641 55.2216 14.9041 57.5616 17.6441 57.5616H54.3241C57.0641 57.5616 59.3041 55.2216 59.3041 52.3616V32.7816C59.3041 32.5416 59.1141 32.3516 58.8841 32.3516H58.9041Z" fill="#FF5065"/>
<path d="M11.9922 32.3516V34.3216C11.9922 34.5616 12.1822 34.7516 12.4122 34.7516H27.7422C27.7422 34.8316 27.7322 34.9116 27.7322 34.9916V44.7116C27.7322 46.1716 28.8722 47.3616 30.2722 47.3616H41.7222C43.1222 47.3616 44.2622 46.1716 44.2622 44.7116V34.9916C44.2622 34.9116 44.2622 34.8316 44.2522 34.7516H59.5822C59.8122 34.7516 60.0022 34.5616 60.0022 34.3216V32.3516H11.9922Z" fill="#FFB3BC"/>
<path d="M38.7309 39.2834C38.7309 37.8934 37.6109 36.7734 36.2209 36.7734C34.8309 36.7734 33.7109 37.8934 33.7109 39.2834C33.7109 40.1234 34.1309 40.8734 34.7709 41.3234L34.5209 43.7834C34.5209 43.9634 34.6709 44.1134 34.8509 44.1134H37.7009C37.8809 44.1134 38.0309 43.9634 38.0309 43.7834L37.7709 41.2634C38.3609 40.8034 38.7509 40.0834 38.7509 39.2734L38.7309 39.2834Z" fill="#FF5065"/>
</svg>
