<svg width="77" height="72" viewBox="0 0 77 72" fill="none" xmlns="http://www.w3.org/2000/svg">
<g filter="url(#filter0_d_1473_32020)">
<path d="M61.51 28.45V28.41C61.87 27.98 62.08 27.43 62.08 26.85V22.37C62.08 21.78 61.87 21.24 61.51 20.81V20.76C61.51 18.66 59.64 17 57.25 17C55.09 17 52.16 17 52.07 17H19.88C17.48 17 15.61 18.65 15.61 20.76V28.23H14.27C11.87 28.23 10 29.88 10 31.99V39.7C10 41.81 11.88 43.46 14.27 43.46H15.61V50.93C15.61 53.04 17.49 54.69 19.88 54.69H45.75C45.85 54.69 53.37 54.69 57.25 54.69C59.64 54.69 61.52 53.03 61.51 50.93V50.89C61.87 50.46 62.08 49.91 62.08 49.33V44.85C62.08 44.26 61.87 43.72 61.51 43.29V43.24C61.51 41.14 59.64 39.48 57.25 39.48C56.86 39.48 56.45 39.48 56.04 39.48C56.31 39.08 56.47 38.61 56.47 38.11V33.63C56.47 33.12 56.31 32.65 56.04 32.25C56.47 32.25 56.88 32.25 57.25 32.25C59.64 32.25 61.52 30.59 61.51 28.49V28.45Z" fill="white"/>
</g>
<path d="M59.5094 43.2053C59.5094 42.2353 58.4994 41.4453 57.2394 41.4453C55.0794 41.4453 52.1594 41.4453 52.0694 41.4453H19.8794C18.6294 41.4453 17.6094 42.2353 17.6094 43.2053V50.9153C17.6094 51.8853 18.6294 52.6753 19.8794 52.6753H45.7494C45.8494 52.6753 53.3694 52.6753 57.2494 52.6753C58.4994 52.6753 59.5194 51.8853 59.5194 50.9153V43.2153L59.5094 43.2053Z" fill="#FFB3BC"/>
<path d="M54.0812 49.12L54.8412 47.26C54.8912 47.15 54.8912 47.02 54.8412 46.91L54.0713 45C53.9513 44.7 54.1512 44.38 54.5212 44.28C54.5912 44.26 54.6712 44.25 54.7412 44.25H59.3512C59.7412 44.25 60.0612 44.5 60.0612 44.82V49.29C60.0612 49.61 59.7412 49.86 59.3512 49.86H54.7412C54.3512 49.86 54.0312 49.61 54.0312 49.29C54.0312 49.23 54.0413 49.17 54.0713 49.11" fill="#FF5065"/>
<path d="M53.2236 31.9788V32.2549L53.2336 32.2649V39.6888C53.2336 40.1425 52.68 40.7821 51.6302 40.7821H51.6075H51.5846H51.5617H51.5386H51.5155H51.4923H51.4691H51.4457H51.4223H51.3988H51.3752H51.3516H51.3278H51.304H51.2801H51.2562H51.2321H51.208H51.1838H51.1595H51.1352H51.1108H51.0863H51.0618H51.0371H51.0124H50.9877H50.9628H50.9379H50.9129H50.8879H50.8628H50.8376H50.8123H50.787H50.7617H50.7362H50.7107H50.6851H50.6595H50.6338H50.608H50.5822H50.5563H50.5303H50.5043H50.4783H50.4521H50.4259H50.3997H50.3734H50.347H50.3206H50.2941H50.2675H50.2409H50.2143H50.1876H50.1608H50.134H50.1071H50.0802H50.0532H50.0262H49.9991H49.972H49.9448H49.9176H49.8903H49.863H49.8356H49.8082H49.7807H49.7532H49.7256H49.698H49.6703H49.6426H49.6149H49.5871H49.5592H49.5313H49.5034H49.4755H49.4474H49.4194H49.3913H49.3632H49.335H49.3068H49.2785H49.2503H49.2219H49.1936H49.1652H49.1367H49.1083H49.0798H49.0512H49.0226H48.994H48.9654H48.9367H48.908H48.8793H48.8505H48.8217H48.7928H48.764H48.7351H48.7062H48.6772H48.6482H48.6192H48.5902H48.5611H48.5321H48.5029H48.4738H48.4446H48.4155H48.3863H48.357H48.3278H48.2985H48.2692H48.2399H48.2105H48.1812H48.1518H48.1224H48.093H48.0636H48.0341H48.0046H47.9752H47.9457H47.9161H47.8866H47.8571H47.8275H47.7979H47.7683H47.7388H47.7091H47.6795H47.6499H47.6202H47.5906H47.5609H47.5312H47.5016H47.4719H47.4422H47.4125H47.3828H47.353H47.3233H47.2936H47.2639H47.2341H47.2044H47.1746H47.1449H47.1151H47.0854H47.0556H47.0259H46.9961H46.9664H46.9366H46.9069H46.8771H46.8474H46.8176H46.7879H46.7581H46.7284H46.6987H46.669H46.6392H46.6095H46.5798H46.5501H46.5204H46.4907H46.4611H46.4314H46.4018H46.3721H46.3425H46.3129H46.2832H46.2536H46.2241H46.1945H46.1649H46.1354H46.1058H46.0763H46.0468H46.0173H45.9879H45.9584H45.929H45.8996H45.8702H45.8408H45.8114H45.7821H45.7528H45.7235H45.6942H45.665H45.6357H45.6065H45.5773H45.5482H45.519H45.4899H45.4608H45.4318H45.4028H45.3737H45.3448H45.3158H45.2869H45.258H45.2291H45.2003H45.1715H45.1427H45.114H45.0853H45.0566H45.028H44.9993H44.9708H44.9422H44.9137H44.8852H44.8568H44.8284H44.8H44.7717H44.7434H44.7152H44.687H44.6588H44.6307H44.6026H44.5745H44.5465H44.5185H44.4906H44.4627H44.4349H44.4071H44.3793H44.3516H44.324H44.2964H44.2688H44.2413H44.2138H44.1864H44.159H44.1317H44.1044H44.0771H44.05H44.0228H43.9957H43.9687H43.9417H43.9148H43.8879H43.8611H43.8344H43.8077H43.781H43.7544H43.7279H43.7014H43.675H43.6486H43.6223H43.596H43.5698H43.5437H43.5176H43.4916H43.4656H43.4398H43.4139H43.3882H43.3625H43.3368H43.3112H43.2857H43.2603H43.2349H43.2096H43.1843H43.1592H43.134H43.109H43.084H43.0591H43.0343H43.0095H42.9848H42.9602H42.9356H42.9111H42.8867H42.8624H42.8381H42.8139H42.7898H42.7658H42.7418H42.7179H42.6941H42.6703H42.6467H42.6231H42.5996H42.5762H42.5528H42.5296H42.5064H42.4833H42.4602H42.4373H42.4144H42.3917H42.369H42.3464H42.3238H42.3014H42.279H42.2568H42.2346H42.2125H42.1905H42.1686H42.1467H42.125H42.1033H42.0818H42.0603H42.0389H42.0176H41.9964H41.9753H41.9543H41.9334H41.9125H41.8918H41.8711H41.8506H41.8302H41.8098H41.7895H41.7694H41.7493H41.7294H41.7095H41.6897H41.6701H41.6505H41.631H41.6117H41.5924H41.5732H41.5542H41.5352H41.5164H41.4976H41.479H41.4604H41.442H41.4237H41.4055H41.3873H41.3693H41.3514H41.3336H41.316H41.2984H41.2809H41.2636H41.2463H41.2292H41.2122H41.1953H41.1785H41.1618H41.1453H41.1288H41.1125H41.0963H41.0802H41.0642H41.0483H41.0326H41.0169H41.0014H40.986H40.9707H40.9556H40.9405H40.9256H40.9108H40.8962H40.8816H40.8672H40.8529H40.8387H40.8246H40.8107H40.7969H40.7832H40.7697H40.7562H40.7429H40.7298H40.7167H40.7038H40.691H40.6784H40.6658H40.6535H40.6412H40.6291H40.6171H40.6052H40.5935H40.5819H40.5704H40.5591H40.5479H40.5368H40.5259H40.5151H40.5045H40.4939H40.4836H40.4733H40.4632H40.4533H40.4435H40.4338H40.4243H40.4149H40.4056H40.3965H40.3875H40.3787H40.3701H40.3615H40.3531H40.3449H40.3368H40.3288H40.321H40.3134H40.3059H40.2985H40.2913H40.2843H40.2774H40.2706H40.264H40.2575H40.2512H40.2451H40.2391H40.2332H40.2275H40.222H40.2166H40.2114H40.2063H40.2014H40.1967H40.1921H40.1876H40.1833H40.1792H40.1753H40.1715H40.1678H40.1643H40.161H40.1579H40.1549H40.152H40.1494H40.1468H40.1445H40.1423H40.1403H40.1385H40.1368H40.1353H40.1339H40.1328H40.1317H40.1309H40.1302H14.2602C13.2104 40.7821 12.6569 40.1425 12.6569 39.6888V31.9788C12.6569 31.525 13.2104 30.8854 14.2602 30.8854H46.4502H46.4508H46.4514H46.4521H46.4529H46.4537H46.4546H46.4555H46.4565H46.4576H46.4587H46.4599H46.4612H46.4625H46.4639H46.4653H46.4669H46.4684H46.4701H46.4718H46.4735H46.4753H46.4772H46.4792H46.4812H46.4832H46.4854H46.4876H46.4898H46.4921H46.4945H46.4969H46.4994H46.5019H46.5046H46.5072H46.5099H46.5127H46.5156H46.5185H46.5214H46.5245H46.5275H46.5307H46.5339H46.5371H46.5404H46.5438H46.5472H46.5507H46.5542H46.5578H46.5615H46.5652H46.5689H46.5728H46.5766H46.5806H46.5845H46.5886H46.5927H46.5968H46.601H46.6053H46.6096H46.614H46.6184H46.6229H46.6274H46.632H46.6367H46.6414H46.6461H46.6509H46.6558H46.6607H46.6656H46.6707H46.6757H46.6808H46.686H46.6912H46.6965H46.7018H46.7072H46.7126H46.7181H46.7236H46.7292H46.7348H46.7405H46.7463H46.752H46.7579H46.7638H46.7697H46.7757H46.7817H46.7878H46.7939H46.8001H46.8063H46.8126H46.8189H46.8253H46.8317H46.8382H46.8447H46.8513H46.8579H46.8645H46.8712H46.878H46.8848H46.8916H46.8985H46.9055H46.9124H46.9195H46.9265H46.9337H46.9408H46.948H46.9553H46.9626H46.97H46.9773H46.9848H46.9923H46.9998H47.0074H47.015H47.0226H47.0303H47.0381H47.0459H47.0537H47.0616H47.0695H47.0774H47.0854H47.0935H47.1016H47.1097H47.1179H47.1261H47.1343H47.1426H47.151H47.1593H47.1678H47.1762H47.1847H47.1933H47.2018H47.2105H47.2191H47.2278H47.2366H47.2453H47.2542H47.263H47.2719H47.2808H47.2898H47.2988H47.3079H47.317H47.3261H47.3352H47.3444H47.3537H47.363H47.3723H47.3816H47.391H47.4004H47.4099H47.4194H47.4289H47.4385H47.4481H47.4577H47.4674H47.4771H47.4869H47.4967H47.5065H47.5163H47.5262H47.5361H47.5461H47.5561H47.5661H47.5762H47.5862H47.5964H47.6065H47.6167H47.6269H47.6372H47.6475H47.6578H47.6682H47.6785H47.689H47.6994H47.7099H47.7204H47.7309H47.7415H47.7521H47.7628H47.7734H47.7841H47.7949H47.8056H47.8164H47.8272H47.8381H47.849H47.8599H47.8708H47.8818H47.8928H47.9038H47.9148H47.9259H47.937H47.9482H47.9593H47.9705H47.9818H47.993H48.0043H48.0156H48.0269H48.0383H48.0497H48.0611H48.0725H48.084H48.0955H48.107H48.1185H48.1301H48.1417H48.1533H48.165H48.1766H48.1883H48.2H48.2118H48.2235H48.2353H48.2471H48.259H48.2708H48.2827H48.2946H48.3066H48.3185H48.3305H48.3425H48.3545H48.3666H48.3786H48.3907H48.4029H48.415H48.4271H48.4393H48.4515H48.4637H48.476H48.4882H48.5005H48.5128H48.5251H48.5375H48.5499H48.5622H48.5746H48.5871H48.5995H48.612H48.6244H48.6369H48.6495H48.662H48.6745H48.6871H48.6997H48.7123H48.7249H48.7376H48.7502H48.7629H48.7756H48.7883H48.8011H48.8138H48.8266H48.8394H48.8521H48.865H48.8778H48.8906H48.9035H48.9164H48.9292H48.9421H48.9551H48.968H48.9809H48.9939H49.0069H49.0199H49.0329H49.0459H49.0589H49.072H49.085H49.0981H49.1112H49.1243H49.1374H49.1505H49.1636H49.1768H49.1899H49.2031H49.2163H49.2295H49.2427H49.2559H49.2691H49.2824H49.2956H49.3089H49.3222H49.3354H49.3487H49.362H49.3753H49.3887H49.402H49.4153H49.4287H49.442H49.4554H49.4688H49.4821H49.4955H49.5089H49.5223H49.5357H49.5492H49.5626H49.576H49.5895H49.6029H49.6164H49.6298H49.6433H49.6568H49.6703H49.6838H49.6973H49.7108H49.7243H49.7378H49.7513H49.7648H49.7783H49.7919H49.8054H49.8189H49.8325H49.846H49.8596H49.8731H49.8867H49.9003H49.9138H49.9274H49.941H49.9545H49.9681H49.9817H49.9953H50.0089H50.0225H50.036H50.0496H50.0632H50.0768H50.0904H50.104H50.1176H50.1312H50.1448H50.1584H50.172H50.1856H50.1992H50.2128H50.2264H50.24H50.2536H50.2672H50.2808H50.2944H50.308H50.3216H50.3352H50.3487H50.3623H50.3759H50.3895H50.4031H50.4166H50.4302H50.4438H50.4574H50.4709H50.4845H50.498H50.5116H50.5251H50.5387H50.5522H50.5658H50.5793H50.5928H50.6063H50.6199H50.6334H50.6469H50.6604H50.6739H50.6874H50.7009H50.7143H50.7278H50.7413H50.7547H50.7682H50.7816H50.7951H50.8085H50.8219H50.8353H50.8487H50.8621H50.8755H50.8889H50.9023H50.9156H50.929H50.9424H50.9557H50.969H50.9823H50.9957H51.009H51.0222H51.0355H51.0488H51.0621H51.0753H51.0886H51.1018H51.115H51.1282H51.1414H51.1546H51.1678H51.1809H51.1941H51.2072H51.2203H51.2334H51.2465H51.2596H51.2727H51.2858H51.2988H51.3118H51.3249H51.3379H51.3509H51.3638H51.3768H51.3898H51.4027H51.4156H51.4285H51.4414H51.4543H51.4672H51.48H51.4928H51.5056H51.5184H51.5312H51.544H51.5567H51.5695H51.5822H51.5949H51.6076H51.6202C52.678 30.8854 53.2236 31.5234 53.2236 31.9788Z" fill="#FFC747" stroke="#FFC747" stroke-width="1.33333"/>
<path d="M48.468 37.8856L49.228 36.0256C49.278 35.9156 49.278 35.7856 49.228 35.6756L48.458 33.7656C48.338 33.4656 48.538 33.1456 48.908 33.0456C48.978 33.0256 49.058 33.0156 49.128 33.0156H53.738C54.128 33.0156 54.448 33.2656 54.448 33.5856V38.0556C54.448 38.3756 54.128 38.6256 53.738 38.6256H49.128C48.738 38.6256 48.418 38.3756 48.418 38.0556C48.418 37.9956 48.428 37.9356 48.458 37.8756" fill="#D19500"/>
<path d="M59.5094 20.7522C59.5094 19.7822 58.4994 18.9922 57.2394 18.9922C55.0794 18.9922 52.1594 18.9922 52.0694 18.9922H19.8794C18.6294 18.9922 17.6094 19.7822 17.6094 20.7522V28.4622C17.6094 29.4322 18.6294 30.2222 19.8794 30.2222H45.7494C45.8494 30.2222 53.3694 30.2222 57.2494 30.2222C58.4994 30.2222 59.5194 29.4322 59.5194 28.4622V20.7522H59.5094Z" fill="#9EEAFF"/>
<path d="M54.0812 26.6669L54.8412 24.8069C54.8912 24.6969 54.8912 24.5669 54.8412 24.4569L54.0713 22.5469C53.9513 22.2469 54.1512 21.9269 54.5212 21.8269C54.5912 21.8069 54.6712 21.7969 54.7412 21.7969H59.3512C59.7412 21.7969 60.0612 22.0469 60.0612 22.3669V26.8469C60.0612 27.1669 59.7412 27.4169 59.3512 27.4169H54.7412C54.3512 27.4169 54.0312 27.1669 54.0312 26.8469C54.0312 26.7869 54.0413 26.7269 54.0713 26.6669" fill="#06B4E3"/>
<defs>
<filter id="filter0_d_1473_32020" x="0" y="8" width="76.0801" height="61.6875" filterUnits="userSpaceOnUse" color-interpolation-filters="sRGB">
<feFlood flood-opacity="0" result="BackgroundImageFix"/>
<feColorMatrix in="SourceAlpha" type="matrix" values="0 0 0 0 0 0 0 0 0 0 0 0 0 0 0 0 0 0 127 0" result="hardAlpha"/>
<feOffset dx="2" dy="3"/>
<feGaussianBlur stdDeviation="6"/>
<feComposite in2="hardAlpha" operator="out"/>
<feColorMatrix type="matrix" values="0 0 0 0 0 0 0 0 0 0 0 0 0 0 0 0 0 0 0.08 0"/>
<feBlend mode="normal" in2="BackgroundImageFix" result="effect1_dropShadow_1473_32020"/>
<feBlend mode="normal" in="SourceGraphic" in2="effect1_dropShadow_1473_32020" result="shape"/>
</filter>
</defs>
</svg>
