<svg width="24" height="24" viewBox="0 0 24 24" fill="none" xmlns="http://www.w3.org/2000/svg">
 <path d="M12.02 7.10067C11.7199 6.77761 11.4497 6.45455 11.1396 6.1638C10.3092 5.39923 9.33878 4.97925 8.23828 5.00079C6.15733 5.04386 4.62663 6.51917 4.15641 8.44675C3.81626 9.8359 4.04636 11.1389 4.69666 12.3881C5.24691 13.4542 5.97724 14.3587 6.78761 15.2094C8.04819 16.5232 9.44883 17.6432 10.9295 18.6446C11.2797 18.8815 11.6398 19 12 19C12.3602 19 12.7303 18.8815 13.0705 18.6446C14.5512 17.6432 15.9518 16.5232 17.2124 15.2094C18.0228 14.3695 18.7531 13.4542 19.3033 12.3881C19.9536 11.1497 20.1837 9.84667 19.8436 8.44675C19.3734 6.51917 17.8527 5.04386 15.7617 5.00079C14.6612 4.97925 13.6908 5.39923 12.8604 6.1638C12.5503 6.44378 12.2801 6.77761 11.98 7.10067H12.02Z" fill="lightgray"/>
 </svg>

