<svg width="32" height="32" viewBox="0 0 32 32" fill="none" xmlns="http://www.w3.org/2000/svg">
  <path d="M16.0031 24.2669C20.5687 24.2669 24.2698 20.5657 24.2698 16.0001C24.2698 11.4345 20.5687 7.7334 16.0031 7.7334C11.4375 7.7334 7.73633 11.4345 7.73633 16.0001C7.73633 20.5657 11.4375 24.2669 16.0031 24.2669Z" fill="#DCDCDC"></path>
  <path d="M13.8704 5.33398H18.1371C18.42 5.33398 18.6913 5.44637 18.8913 5.6464C19.0913 5.84645 19.2038 6.11776 19.2038 6.40066V8.53401H12.8037V6.40066C12.8037 6.11776 12.9161 5.84645 13.1161 5.6464C13.3162 5.44637 13.5875 5.33398 13.8704 5.33398Z" fill="#DCDCDC"></path>
  <path d="M5.69953 12.5224L7.83288 8.82729C7.97434 8.58229 8.20734 8.40351 8.4806 8.33029C8.75386 8.25707 9.04499 8.29541 9.29 8.43686L11.1375 9.50354L7.9375 15.0462L6.08997 13.9795C5.84496 13.838 5.66621 13.605 5.59299 13.3318C5.51978 13.0585 5.55808 12.7674 5.69953 12.5224Z" fill="#DCDCDC"></path>
  <path d="M7.83583 23.1895L5.70248 19.4945C5.56103 19.2495 5.5227 18.9583 5.59592 18.6851C5.66913 18.4118 5.84791 18.1788 6.0929 18.0374L7.94044 16.9707L11.1405 22.5134L9.29293 23.58C9.04794 23.7215 8.75679 23.7598 8.48353 23.6865C8.21027 23.6133 7.97728 23.4345 7.83583 23.1895Z" fill="#DCDCDC"></path>
  <path d="M18.1273 26.6668H13.8606C13.5777 26.6668 13.3064 26.5544 13.1064 26.3544C12.9064 26.1544 12.7939 25.883 12.7939 25.6001V23.4668H19.194V25.6001C19.194 25.883 19.0816 26.1544 18.8816 26.3544C18.6815 26.5544 18.4103 26.6668 18.1273 26.6668Z" fill="#DCDCDC"></path>
  <path d="M26.3023 19.4954L24.1689 23.1905C24.0275 23.4355 23.7945 23.6143 23.5212 23.6875C23.248 23.7608 22.9569 23.7224 22.7118 23.5809L20.8643 22.5142L24.0643 16.9717L25.9119 18.0384C26.1569 18.1798 26.3357 18.4128 26.4088 18.686C26.482 18.9592 26.4437 19.2504 26.3023 19.4954Z" fill="#DCDCDC"></path>
  <path d="M24.1689 8.82824L26.3023 12.5233C26.4437 12.7683 26.482 13.0595 26.4088 13.3328C26.3356 13.606 26.1569 13.839 25.9119 13.9804L24.0643 15.0471L20.8643 9.5045L22.7118 8.43782C22.9569 8.29637 23.248 8.25805 23.5212 8.33128C23.7945 8.4045 24.0275 8.58325 24.1689 8.82824Z" fill="#DCDCDC"></path>
  <path d="M16.0046 18.6674C17.4773 18.6674 18.6713 17.4734 18.6713 16.0007C18.6713 14.5279 17.4773 13.334 16.0046 13.334C14.5318 13.334 13.3379 14.5279 13.3379 16.0007C13.3379 17.4734 14.5318 18.6674 16.0046 18.6674Z" fill="white"></path>
</svg>