<svg width="194" height="198" viewBox="0 0 194 198" fill="none" xmlns="http://www.w3.org/2000/svg">
<path d="M77.3103 156.395C77.3103 156.395 53.1729 150.135 36.3471 141.287C36.3471 141.287 33.7055 139.296 24.5849 137.26C15.4643 135.224 19.2185 129.858 20.3235 128.2C20.3235 128.2 19.2639 126.406 20.1722 124.06C21.4059 120.888 23.9794 121.063 23.9794 121.063C23.9794 121.063 24.1005 118.633 25.9397 117.013C29.8983 113.531 38.4664 121.895 38.4664 121.895L77.053 130.925" fill="#FFE3AB"/>
<path d="M77.3103 156.394C77.3103 156.394 53.1729 150.135 36.3471 141.287C36.3471 141.287 33.7055 139.296 24.5849 137.26C15.4643 135.224 19.2185 129.858 20.3235 128.2C20.3235 128.2 19.2639 126.406 20.1722 124.06C21.4059 120.888 23.9794 121.063 23.9794 121.063C23.9794 121.063 24.1005 118.633 25.9397 117.013C29.8983 113.531 38.4664 121.895 38.4664 121.895L77.053 130.925" stroke="#0B3242" stroke-width="2.02697" stroke-linecap="round" stroke-linejoin="round"/>
<path d="M4.04255 45.9636C5.61689 45.4111 7.34262 46.2285 7.91029 47.7953L40.8959 138.002C41.3424 139.213 40.3963 140.659 38.7993 141.219L36.1501 142.143C34.5531 142.703 32.9182 142.158 32.5095 140.932L2.15787 49.8087C1.62805 48.2267 2.47577 46.5162 4.04255 45.9636Z" fill="#C2EFFF" stroke="#0B3242" stroke-width="2.02697" stroke-linecap="round" stroke-linejoin="round"/>
<path d="M32.7662 127.315C33.4701 129.336 35.7485 130.373 37.7469 129.616C39.397 128.988 41.0472 127.588 40.8201 124.469C40.7217 123.175 40.487 122.13 40.1313 121.298C38.5114 117.475 32.7662 118.444 32.365 122.584C32.1985 124.303 32.2742 125.907 32.7662 127.315Z" fill="#FFE3AB" stroke="#0B3242" stroke-width="2.02697" stroke-linecap="round" stroke-linejoin="round"/>
<path d="M175.685 55.9171C175.685 55.9171 182.58 73.25 195.773 85.4966C208.966 97.7432 224.194 138.805 209.382 173.978C194.569 209.151 169.138 216.198 156.952 216.061C146.703 215.948 104.552 202.581 104.514 200.999C104.476 199.417 125.313 48.6055 125.313 48.6055L175.685 55.9095V55.9171Z" fill="#86DBD4" stroke="#0B3242" stroke-width="2.02697" stroke-linecap="round" stroke-linejoin="round"/>
<path d="M163.952 214.509C168.214 212.738 171.741 209.582 174.238 205.707C184.199 190.228 191.337 164.524 177.902 138.956C161.765 108.241 175.677 66.5132 175.692 55.9167C175.714 45.3201 172.112 34.6327 157.208 32.6497C142.305 30.6666 126.97 34.5343 126.97 34.5343C82.177 68.519 74.8881 171.109 85.6587 204.617C92.3875 225.552 156.209 216.038 156.209 216.038C158.881 216.091 161.462 215.554 163.96 214.517L163.952 214.509Z" fill="#66AAA3" stroke="#0B3242" stroke-width="2.02697" stroke-linecap="round" stroke-linejoin="round"/>
<path opacity="0.3" d="M148.815 39.3331C148.815 39.3331 164.551 37.895 166.133 55.1371C166.133 55.1371 165.293 69.3592 161.97 74.6499C158.647 79.9406 155.559 117.574 159.064 125.884C162.576 134.195 146.552 132.56 146.552 132.56L136.879 105.486L148.815 39.3331Z" fill="black"/>
<g style="mix-blend-mode:color-burn" opacity="0.15">
<path d="M195.772 85.4965C195.424 85.1786 195.076 84.8456 194.743 84.5126C205.968 101.482 215.308 135.906 202.622 166.023C199.337 173.819 195.538 180.23 191.466 185.49C189.46 188.079 185.305 186.202 185.993 182.992C188.809 169.883 188.09 154.639 180.112 139.448C165.466 111.556 175.586 74.5821 177.577 60.0875C176.32 57.514 175.684 55.9094 175.684 55.9094C175.692 51.7995 175.162 47.6744 173.626 44.0488C173.944 46.0168 174.072 48.0452 174.065 50.0737C174.065 51.4286 173.83 53.2981 173.467 55.5839C171.257 69.3897 161.334 99.2796 169.508 124.371C170.56 127.603 171.87 130.774 173.474 133.824C176.252 139.108 178.144 144.398 179.325 149.598C183.836 169.58 180.506 187.572 172.604 199.856C171.801 201.105 170.893 202.271 169.887 203.345C162.204 207.024 155.112 208.144 150.185 208.084C142.616 208 117.638 200.681 105.089 196.231C104.703 199.129 104.498 200.825 104.506 200.976C104.528 201.983 121.786 207.819 136.901 211.921C120.401 212.943 96.9519 212.648 87.5664 204.11C87.6572 204.443 87.7632 204.776 87.8616 205.094C89.716 210.877 95.9301 214.328 103.946 216.319C124.957 221.503 158.404 216.515 158.404 216.515C161.076 216.568 163.65 216.031 166.155 214.994C166.17 214.994 166.178 214.979 166.193 214.971C179.378 211.951 197.68 201.718 209.366 173.963C224.179 138.79 208.95 97.728 195.757 85.4814L195.772 85.4965Z" fill="black"/>
</g>
<path d="M159.191 42.5654C162.923 45.3735 167.736 51.3606 165.632 62.9411C162.355 81.031 150.6 115.75 163.119 135.49" stroke="#0B3242" stroke-width="2.02697" stroke-linecap="round" stroke-linejoin="round"/>
<path d="M154.225 39.9839C154.225 39.9839 144.113 37.4786 141.199 42.1259" stroke="#0B3242" stroke-width="2.02697" stroke-linecap="round" stroke-linejoin="round"/>
<path d="M171.748 81.2881L190.716 93.9434L198.618 134.854L184.403 158.106" stroke="#0B3242" stroke-width="2.02697" stroke-linecap="round" stroke-linejoin="round"/>
<path d="M190.717 93.9436L195.773 85.4961" stroke="#0B3242" stroke-width="2.02697" stroke-linecap="round" stroke-linejoin="round"/>
<path d="M182.467 187.64L190.323 201.65" stroke="#0B3242" stroke-width="2.02697" stroke-linecap="round" stroke-linejoin="round"/>
<path d="M66.0929 126.891C66.0929 126.891 54.7016 173.607 68.0684 190.115C83.6454 209.348 79.4749 127.391 79.4749 127.391C79.4749 127.391 70.7857 114.955 66.0929 126.891Z" fill="#66AAA3" stroke="#0B3242" stroke-width="2.02697" stroke-linecap="round" stroke-linejoin="round"/>
<path d="M124.541 219.982C124.541 219.982 116.616 221.201 117.244 229.337C117.827 236.846 128.999 236.55 128.999 236.55C128.999 236.55 142.093 236.725 151.373 233.939C152.766 233.523 153.878 232.456 154.302 231.063C155.074 228.535 156.709 213.624 156.452 205.404C156.043 192.249 121.839 201.763 121.839 201.763C121.839 201.763 122.535 215.221 124.541 219.982Z" fill="#FFE3AB" stroke="#0B3242" stroke-width="2.02697" stroke-linecap="round" stroke-linejoin="round"/>
<path d="M161.251 204.276C159.677 205.556 157.898 206.676 155.9 207.645C155.234 207.97 154.575 208.28 153.909 208.568C134.086 217.446 115.459 215.024 99.3443 212.966C82.6925 210.846 69.0608 202.172 65.1098 177.225C61.1588 152.278 71.1271 133.658 71.1271 133.658C84.7816 114.614 113.672 116.181 141.874 120.775C147.089 121.623 151.873 124.113 155.953 127.088C158.193 128.715 160.214 130.494 161.977 132.212C162.023 132.258 162.076 132.311 162.121 132.356C167.026 137.177 170.069 143.573 170.848 150.416C173.482 173.622 174.209 193.831 161.251 204.276Z" fill="#B1DDB6" stroke="#0B3242" stroke-width="2.02697" stroke-linecap="round" stroke-linejoin="round"/>
<g style="mix-blend-mode:color-burn" opacity="0.15">
<path d="M162.098 203.618C160.524 204.89 158.745 206.017 156.747 206.986C156.081 207.312 155.415 207.622 154.756 207.91C134.933 216.788 116.306 214.366 100.191 212.315C90.2156 211.043 81.3221 207.425 74.9414 199.349C80.5803 203.77 87.4151 206.017 94.8478 206.971C110.97 209.03 129.597 211.452 149.413 202.574C150.071 202.278 150.737 201.968 151.403 201.643C153.394 200.674 155.18 199.546 156.754 198.274C169.713 187.837 168.986 167.628 166.352 144.414C165.709 138.729 163.491 133.348 159.941 128.92C160.963 129.798 161.932 130.683 162.825 131.561C162.87 131.614 162.923 131.66 162.969 131.705C167.873 136.534 170.924 142.93 171.696 149.765C174.33 172.971 175.056 193.181 162.098 203.626V203.618Z" fill="black"/>
</g>
<path d="M162.121 132.363C162.121 132.363 155.165 127.648 151.517 135.974C147.059 146.139 143.13 175.711 164.164 201.15C165.633 203.36 158.548 208.06 157.08 205.85C151.691 198.781 135.092 178.405 140.905 142.422C141.412 139.266 144.425 131.417 146.415 128.912C148.406 126.406 150.283 124.582 154.506 124.378C154.506 124.378 165.542 126.868 162.113 132.356" fill="#66AAA3"/>
<path d="M162.121 132.363C162.121 132.363 155.165 127.648 151.517 135.974C147.059 146.139 143.13 175.711 164.164 201.15C165.633 203.36 158.548 208.06 157.08 205.85C151.691 198.781 135.092 178.405 140.905 142.422C141.412 139.266 144.425 131.417 146.415 128.912C148.406 126.406 150.283 124.582 154.506 124.378C154.506 124.378 165.542 126.868 162.113 132.356" stroke="#0B3242" stroke-width="2.02697" stroke-linecap="round" stroke-linejoin="round"/>
<path d="M70.7771 121.207C70.7771 121.207 66.2963 134.127 83.4627 140.644C100.629 147.161 129.081 141.749 142.054 129.835C142.054 129.835 155.285 119.912 146.815 105.524C136.067 87.2674 72.2304 86.1244 70.7696 121.207H70.7771Z" fill="#66AAA3" stroke="#0B3242" stroke-width="2.02697" stroke-linecap="round" stroke-linejoin="round"/>
<g style="mix-blend-mode:color-burn" opacity="0.15">
<path d="M142.055 129.836C132.275 138.813 113.701 144.096 97.7988 143.362C112.142 142.718 127.431 137.685 135.992 129.836C135.992 129.836 149.222 119.913 140.753 105.524C136.446 98.205 123.586 93.6334 109.652 93.0506C125.789 92.3694 141.896 97.1454 146.823 105.524C155.293 119.913 142.062 129.836 142.062 129.836H142.055Z" fill="black"/>
</g>
<path d="M58.7507 61.2005C58.7507 61.2005 60.1661 19.8133 112.99 22.8258C112.99 22.8258 144.288 23.893 158.093 52.8292C162.34 61.7379 163.959 71.6683 163.081 81.4929C161.976 93.8984 157.813 113.457 143.107 123.962C120.476 140.122 97.2238 139.176 86.703 137.155C75.4101 134.983 38.6854 117.37 50.1221 74.8095C50.1221 74.8095 52.794 67.3389 58.7507 61.1929V61.2005Z" fill="#FFE3AB" stroke="#0B3242" stroke-width="2.02697" stroke-linecap="round" stroke-linejoin="round"/>
<path d="M89.6404 78.2754C87.2183 83.006 76.652 83.006 74.457 77.7607" stroke="#0B3242" stroke-width="2.02697" stroke-linecap="round" stroke-linejoin="round"/>
<g style="mix-blend-mode:color-burn" opacity="0.15">
<path d="M163.082 81.5004C161.969 93.8983 157.814 113.464 143.1 123.97C120.468 140.137 97.2164 139.184 86.6956 137.163C81.5789 136.179 71.2549 132.023 62.543 123.826C69.0901 128.163 75.5011 130.525 79.1871 131.236C89.708 133.257 112.96 134.203 135.591 118.043C150.305 107.538 154.461 87.9718 155.573 75.5738C156.451 65.7418 154.831 55.8113 150.585 46.9102C147.626 40.7112 143.864 35.7838 139.769 31.8857C146.627 36.3287 153.378 42.9592 158.094 52.8367C162.34 61.7453 163.96 71.6758 163.082 81.5004Z" fill="black"/>
</g>
<path d="M66.5156 44.8359C69.5585 41.7173 72.4879 41.8157 75.3037 45.1387" stroke="#0B3242" stroke-width="2.02697" stroke-linecap="round" stroke-linejoin="round"/>
<path d="M64.9102 63.9238C64.953 62.6704 62.3766 61.565 59.1556 61.4548C55.9345 61.3446 53.2885 62.2712 53.2456 63.5246C53.2027 64.7779 55.7792 65.8833 59.0002 65.9935C62.2213 66.1038 64.8673 65.1771 64.9102 63.9238Z" fill="#FF7471" stroke="#0B3242" stroke-width="2.02697" stroke-linecap="round" stroke-linejoin="round"/>
<path d="M120.31 2.08631C120.31 2.08631 98.7835 -0.502283 107.715 22.6739C107.715 22.6739 107.003 7.68735 120.31 2.08631Z" fill="#B3E9BB" stroke="#0B3242" stroke-width="2.02697" stroke-linecap="round" stroke-linejoin="round"/>
<path d="M126.963 191.515C129.514 190.728 132.087 189.797 134.691 188.707" stroke="#0B3242" stroke-width="2.02697" stroke-linecap="round" stroke-linejoin="round"/>
<path d="M77.3105 186.746C90.0189 194.133 104.922 196.661 121.105 193.066" stroke="#0B3242" stroke-width="2.02697" stroke-linecap="round" stroke-linejoin="round"/>
<path d="M72.0195 164.04C90.6014 174.72 111.885 175.113 135.606 166.212" stroke="#0B3242" stroke-width="2.02697" stroke-linecap="round" stroke-linejoin="round"/>
<path d="M70.6753 52.0238L70.6678 52.0235C68.9172 51.9636 67.4495 53.3342 67.3896 55.0848L67.249 59.1926C67.1891 60.9432 68.5597 62.4109 70.3103 62.4708L70.3178 62.471C72.0684 62.531 73.5361 61.1604 73.596 59.4098L73.7366 55.302C73.7965 53.5514 72.4259 52.0837 70.6753 52.0238Z" fill="#0B3242"/>
<path d="M69.0965 55.9089C69.5188 55.9089 69.8611 55.5666 69.8611 55.1444C69.8611 54.7222 69.5188 54.3799 69.0965 54.3799C68.6743 54.3799 68.332 54.7222 68.332 55.1444C68.332 55.5666 68.6743 55.9089 69.0965 55.9089Z" fill="white"/>
<path d="M92.7656 44.8359C95.8085 41.7173 98.7379 41.8157 101.554 45.1387" stroke="#0B3242" stroke-width="2.02697" stroke-linecap="round" stroke-linejoin="round"/>
<path d="M113.373 63.9296C113.416 62.6763 110.84 61.5709 107.618 61.4607C104.397 61.3504 101.751 62.2771 101.709 63.5304C101.666 64.7838 104.242 65.8892 107.463 65.9994C110.684 66.1096 113.33 65.183 113.373 63.9296Z" fill="#FF7471" stroke="#0B3242" stroke-width="2.02697" stroke-linecap="round" stroke-linejoin="round"/>
<path d="M96.9253 52.0287L96.9178 52.0284C95.1672 51.9685 93.6995 53.3391 93.6396 55.0897L93.499 59.1975C93.4391 60.9481 94.8097 62.4158 96.5603 62.4757L96.5678 62.4759C98.3184 62.5358 99.7861 61.1653 99.846 59.4147L99.9866 55.3069C100.047 53.5563 98.6759 52.0886 96.9253 52.0287Z" fill="#0B3242"/>
<path d="M95.3407 55.9089C95.7629 55.9089 96.1052 55.5666 96.1052 55.1444C96.1052 54.7222 95.7629 54.3799 95.3407 54.3799C94.9185 54.3799 94.5762 54.7222 94.5762 55.1444C94.5762 55.5666 94.9185 55.9089 95.3407 55.9089Z" fill="white"/>
<path d="M152.259 149.969C159.033 159.317 187.189 163.949 187.189 163.949C187.189 163.949 192.026 173.213 195.175 172.305C200.17 170.867 195.069 165.493 194.933 163.101C194.933 163.101 201.593 166.689 204.757 163.987C206.899 162.163 203.796 158.613 197.824 155.684C197.824 155.684 206.967 156.266 207.626 152.308C208.087 149.56 201.919 149.462 195.122 147.759C195.122 147.759 199.065 140.841 194.251 139.229C191.118 138.184 188.348 146.237 188.348 146.237C188.257 147.797 177.289 143.18 163.786 132.311C162.182 131.016 160.123 130.335 158.072 130.547C155.748 130.797 153.038 132.106 151.494 136.375C148.398 144.905 152.274 149.969 152.274 149.969H152.259Z" fill="#FFE3AB" stroke="#0B3242" stroke-width="2.02697" stroke-linecap="round" stroke-linejoin="round"/>
<g style="mix-blend-mode:color-burn" opacity="0.15">
<path d="M152.267 149.969C159.041 159.317 187.19 163.942 187.19 163.942C187.19 163.942 192.026 173.206 195.175 172.305C196.757 171.851 197.317 171.003 197.362 169.982C197.294 170.004 197.226 170.035 197.151 170.05C194.002 170.958 189.165 161.686 189.165 161.686C189.165 161.686 161.009 157.061 154.242 147.706C154.242 147.706 150.367 142.65 153.462 134.112C153.758 133.287 154.106 132.568 154.484 131.955C153.326 132.841 152.259 134.241 151.487 136.368C148.399 144.898 152.267 149.962 152.267 149.962V149.969Z" fill="black"/>
</g>
<path d="M182.731 149.182C182.731 149.182 181.619 152.8 183.117 156.395L182.731 149.182Z" fill="#FFE3AB"/>
<path d="M182.731 149.182C182.731 149.182 181.619 152.8 183.117 156.395" stroke="#0B3242" stroke-width="2.02697" stroke-linecap="round" stroke-linejoin="round"/>
<path d="M59.265 75.8835C69.8368 75.8835 78.4069 67.3133 78.4069 56.7415C78.4069 46.1697 69.8368 37.5996 59.265 37.5996C48.6932 37.5996 40.123 46.1697 40.123 56.7415C40.123 67.3133 48.6932 75.8835 59.265 75.8835Z" stroke="#0B3242" stroke-width="2.02697" stroke-linecap="round" stroke-linejoin="round"/>
<path d="M104.824 75.8835C115.395 75.8835 123.966 67.3133 123.966 56.7415C123.966 46.1697 115.395 37.5996 104.824 37.5996C94.2518 37.5996 85.6816 46.1697 85.6816 56.7415C85.6816 67.3133 94.2518 75.8835 104.824 75.8835Z" stroke="#0B3242" stroke-width="2.02697" stroke-linecap="round" stroke-linejoin="round"/>
<path d="M78.4062 56.7412H85.6805" stroke="#0B3242" stroke-width="2.02697" stroke-linecap="round" stroke-linejoin="round"/>
</svg>
