<svg class="ko-language-character" width="171" height="212" viewBox="0 0 171 212" fill="none" xmlns="http://www.w3.org/2000/svg">
    <path d="M79.3741 133.436C79.3741 133.436 63.6554 130.227 59.8746 127.347C54.2931 123.1 55.3262 118.673 55.3262 118.673C55.3262 118.673 56.5458 115.099 53.8555 112.484C53.8555 112.484 52.2198 105.873 48.0372 105.335C43.8546 104.791 37.8355 103.408 35.1667 107.456C34.0619 109.139 30.7115 112.556 35.4608 118.959C35.4608 118.959 40.411 133.894 53.6187 144.202C65.2409 153.278 79.4028 152.239 79.4028 152.239" fill="#FF9680" />
    <path d="M79.3741 133.436C79.3741 133.436 63.6554 130.227 59.8746 127.347C54.2931 123.1 55.3262 118.673 55.3262 118.673C55.3262 118.673 56.5458 115.099 53.8555 112.484C53.8555 112.484 52.2198 105.873 48.0372 105.335C43.8546 104.791 37.8355 103.408 35.1667 107.456C34.0619 109.139 30.7115 112.556 35.4608 118.959C35.4608 118.959 40.411 133.894 53.6187 144.202C65.2409 153.278 79.4028 152.239 79.4028 152.239" stroke="#4C2318" stroke-width="2.14876" stroke-linecap="round" stroke-linejoin="round" />
    <path d="M50.7785 116.18C50.7785 116.18 42.7004 117.47 43.3102 120.693C44.1424 125.119 51.2736 121.259 51.2736 121.259" fill="#FF9680" />
    <path d="M50.7785 116.18C50.7785 116.18 42.7004 117.47 43.3102 120.693C44.1424 125.119 51.2736 121.259 51.2736 121.259" stroke="#4C2318" stroke-width="2.14876" stroke-linecap="round" stroke-linejoin="round" />
    <path d="M39.393 111.302C39.393 111.302 35.648 120.943 43.4966 119.511" stroke="#4C2318" stroke-width="2.14876" stroke-linecap="round" stroke-linejoin="round" />
    <path d="M45.4693 111.102C45.4693 111.102 43.0516 116.975 44.4147 118.457" stroke="#4C2318" stroke-width="2.14876" stroke-linecap="round" stroke-linejoin="round" />
    <path d="M49.9221 112.169C49.9221 112.169 49.621 115.113 49.0762 116.545" stroke="#4C2318" stroke-width="2.14876" stroke-linecap="round" stroke-linejoin="round" />
    <path d="M39.2998 118.565C39.2998 118.565 37.5134 120.191 35.4688 118.959" stroke="#4C2318" stroke-width="2.14876" stroke-linecap="round" stroke-linejoin="round" />
    <path d="M89.4539 61.7482L31.637 162.167C23.2575 176.479 -4.83663 160.075 3.54283 145.764L61.3669 45.3521L89.4611 61.7554L89.4539 61.7482Z" fill="#FF7471" stroke="#4C2318" stroke-width="2.14876" stroke-linecap="round" stroke-linejoin="round" />
    <g style="mix-blend-mode:color-burn" opacity="0.15">
        <path d="M30.8472 155.527C24.455 166.436 6.61278 159.495 2.20782 149.245C-0.439461 162.518 23.9313 175.325 31.6436 162.167L89.4533 61.7482L85.9953 59.7354L30.8472 155.527Z" fill="black" />
    </g>
    <path d="M71.6614 34.8798C71.6614 34.8798 70.4489 20.2743 63.5904 13.9565C63.5904 13.9565 58.8195 21.9362 54.4863 25.2455C54.4863 25.2455 62.8012 32.0934 63.6406 44.1129L71.6614 34.8798Z" fill="#FFEAA9" stroke="#4C2318" stroke-width="2.14876" stroke-linecap="round" stroke-linejoin="round" />
    <path d="M61.3671 45.3519L82.9614 23.2969L102.403 24.1349L89.4612 61.7481C83.5353 71.8623 55.4483 55.4661 61.3671 45.3447V45.3519Z" fill="#FFEAA9" stroke="#4C2318" stroke-width="2.14876" stroke-linecap="round" stroke-linejoin="round" />
    <path d="M93.4354 50.1942C93.4354 50.1942 76.3393 56.49 63.0742 43.6118" stroke="#4C2318" stroke-width="2.14876" stroke-linecap="round" stroke-linejoin="round" />
    <path d="M97.7171 37.7446C97.7171 37.7446 84.6529 44.1407 72.6289 33.8481" stroke="#4C2318" stroke-width="2.14876" stroke-linecap="round" stroke-linejoin="round" />
    <path d="M110.166 4.75928L102.403 24.1353C102.403 24.1353 91.6058 31.4774 82.9609 23.2972L98.859 4.93119L110.166 4.75928Z" fill="#FF7471" stroke="#4C2318" stroke-width="2.14876" stroke-linecap="round" stroke-linejoin="round" />
    <g style="mix-blend-mode:color-burn" opacity="0.15">
        <path d="M83.0111 64.9288C85.8234 64.9001 88.1622 63.9474 89.4463 61.7484L102.389 24.1353L109.814 5.60449C108.853 6.57867 107.324 7.57433 104.892 8.16886L98.7943 23.9777L97.9334 26.2269L83.0039 64.9288H83.0111Z" fill="black" />
    </g>
    <path d="M105.392 8.05632C108.592 7.21926 110.803 5.0765 110.329 3.27034C109.855 1.46417 106.876 0.678558 103.676 1.51562C100.475 2.35268 98.2651 4.49544 98.739 6.3016C99.2129 8.10777 102.192 8.89339 105.392 8.05632Z" fill="#FF7471" stroke="#4C2318" stroke-width="2.14876" stroke-linecap="round" stroke-linejoin="round" />
    <path d="M60.3618 61.5835L51.6738 76.411" stroke="white" stroke-width="2.14876" stroke-linecap="round" stroke-linejoin="round" />
    <path d="M97.6529 12.6885L93.6641 17.9386" stroke="white" stroke-width="2.14876" stroke-linecap="round" stroke-linejoin="round" />
    <path d="M137.47 49.4422C137.47 49.4422 91.3396 31.1765 76.5679 78.7319C76.5679 78.7319 69.695 76.7119 80.4994 61.3185C80.4994 61.3185 38.2864 94.7771 36.6219 145.097C34.9575 195.418 81.0374 215.947 117.884 213.755C154.171 211.592 183.872 189.687 187.969 157.26C192.058 124.89 174.173 79.1115 144.816 59.2054C144.816 59.2054 157.335 77.0342 147.37 86.16C147.37 86.16 153.346 74.1332 137.003 61.9704C137.003 61.9704 125.094 54.2271 111.248 59.2054C111.248 59.2054 118.006 52.465 137.463 49.4422H137.47Z" fill="#FF9680" stroke="#4C2318" stroke-width="2.14876" stroke-linecap="round" stroke-linejoin="round" />
    <path d="M149.927 84.4333C149.927 84.4333 151.183 81.6755 151.204 76.16C150.881 67.8365 144.826 59.2051 144.826 59.2051C146.713 60.4801 148.55 61.8697 150.336 63.3525C153.378 68.7248 157.474 77.5281 149.927 84.4333Z" fill="white" />
    <path d="M137.363 49.4421C137.248 49.4636 137.126 49.4779 137.011 49.4994C125.554 46.3906 93.5642 41.441 80.9663 77.9725C80.3996 79.6128 78.276 80.2431 77.0421 79.0254C76.834 78.8177 76.669 78.5742 76.5686 78.2805C76.1381 76.9338 77.946 74.4554 79.3593 71.0816C79.3665 71.0673 79.3737 71.053 79.3737 71.0386C79.8615 69.9499 80.3709 68.9112 80.9018 67.9156C80.9161 67.8869 80.9376 67.8511 80.9592 67.8153C81.7985 66.3039 82.8603 64.6062 84.1947 62.7009C84.1732 62.7224 84.0943 62.7797 83.958 62.8943C102.826 35.7679 137.363 49.4421 137.363 49.4421Z" fill="white" />
    <path d="M80.4864 61.3257C77.1361 66.1034 75.486 69.599 74.8116 72.1347C64.5454 81.8836 41.6381 107.076 36.8027 141.545C40.232 93.5952 79.8551 61.8271 80.4864 61.3257Z" fill="white" />
    <path d="M137.47 49.4422C137.47 49.4422 91.3396 31.1765 76.5679 78.7319C76.5679 78.7319 69.695 76.7119 80.4994 61.3185C80.4994 61.3185 38.2864 94.7771 36.6219 145.097C34.9575 195.418 81.0374 215.947 117.884 213.755C154.171 211.592 183.872 189.687 187.969 157.26C192.058 124.89 174.173 79.1115 144.816 59.2054C144.816 59.2054 157.335 77.0342 147.37 86.16C147.37 86.16 153.346 74.1332 137.003 61.9704C137.003 61.9704 125.094 54.2271 111.248 59.2054C111.248 59.2054 118.006 52.465 137.463 49.4422H137.47Z" stroke="#4C2318" stroke-width="2.14876" stroke-linecap="round" stroke-linejoin="round" />
    <path d="M77.1778 182.833C77.1778 182.833 33.6519 165.835 44.4419 121.116C44.4419 121.116 58.8908 72.6295 113.989 82.142C169.086 91.6616 160.922 145.879 159.559 150.563C156.424 161.322 144.701 192.295 91.9423 186.629C87.81 186.185 83.7278 185.318 79.8179 183.9C78.8924 183.563 77.9813 183.198 77.185 182.826L77.1778 182.833Z" fill="#FFEAA9" />
    <path d="M155.794 112.291C149.645 99.8558 137.693 88.4379 115.102 84.5341C59.9965 75.0144 45.5477 123.508 45.5477 123.508C42.3839 136.631 43.8905 147.368 47.6067 155.985C43.1085 146.981 40.9706 135.478 44.4357 121.116C44.4357 121.116 58.8845 72.6219 113.99 82.1416C138.023 86.2962 150.018 98.9533 155.794 112.291Z" fill="white" />
    <path d="M111.25 59.2056C111.25 59.2056 99.8141 66.1895 107.325 73.1592C111.867 77.3782 120.146 73.1305 118.84 68.6751C118.84 68.6751 117.685 64.6495 113.703 67.0491" fill="#FF9680" />
    <path d="M111.25 59.2056C111.25 59.2056 99.8141 66.1895 107.325 73.1592C111.867 77.3782 120.146 73.1305 118.84 68.6751C118.84 68.6751 117.685 64.6495 113.703 67.0491" stroke="#4C2318" stroke-width="2.14876" stroke-linecap="round" stroke-linejoin="round" />
    <path d="M91.3279 146.236C90.9334 146.25 90.546 146.229 90.1514 146.179C85.4738 145.577 86.0693 129.367 90.7755 129.324C91.1414 129.324 91.5073 129.331 91.8732 129.367C96.6153 129.761 96.0844 146.1 91.3208 146.236H91.3279Z" fill="#FF7471" stroke="#4C2318" stroke-width="2.14876" stroke-linecap="round" stroke-linejoin="round" />
    <path d="M87.459 149.847C89.6902 151.573 91.9213 151.573 94.1525 149.847" stroke="#4C2318" stroke-width="2.14876" stroke-linecap="round" stroke-linejoin="round" />
    <path d="M68.2148 122.754C68.2788 120.884 64.4207 119.235 59.5976 119.07C54.7745 118.905 50.8127 120.287 50.7487 122.157C50.6847 124.027 54.5427 125.676 59.3659 125.841C64.189 126.006 68.1508 124.624 68.2148 122.754Z" fill="#FF7471" stroke="#4C2318" stroke-width="2.14876" stroke-linecap="round" stroke-linejoin="round" />
    <path d="M81.4216 109.865C81.5114 107.244 79.4575 105.046 76.8341 104.956C74.2107 104.867 72.0111 106.919 71.9213 109.54L71.711 115.675C71.6212 118.297 73.675 120.494 76.2985 120.584C78.9219 120.674 81.1214 118.621 81.2113 116L81.4216 109.865Z" fill="#4C2318" />
    <path d="M74.4838 110.765C75.1178 110.765 75.6317 110.252 75.6317 109.619C75.6317 108.986 75.1178 108.473 74.4838 108.473C73.8499 108.473 73.3359 108.986 73.3359 109.619C73.3359 110.252 73.8499 110.765 74.4838 110.765Z" fill="white" />
    <path d="M133.592 122.749C133.656 120.879 129.798 119.23 124.975 119.065C120.152 118.9 116.19 120.282 116.126 122.152C116.062 124.022 119.92 125.672 124.743 125.836C129.566 126.001 133.528 124.619 133.592 122.749Z" fill="#FF7471" stroke="#4C2318" stroke-width="2.14876" stroke-linecap="round" stroke-linejoin="round" />
    <path d="M113.535 109.866C113.625 107.245 111.571 105.047 108.947 104.957C106.324 104.868 104.124 106.92 104.035 109.541L103.824 115.677C103.734 118.298 105.788 120.496 108.412 120.585C111.035 120.675 113.235 118.623 113.325 116.001L113.535 109.866Z" fill="#4C2318" />
    <path d="M106.593 110.765C107.227 110.765 107.741 110.252 107.741 109.619C107.741 108.986 107.227 108.473 106.593 108.473C105.959 108.473 105.445 108.986 105.445 109.619C105.445 110.252 105.959 110.765 106.593 110.765Z" fill="white" />
    <path d="M147.371 86.1602C147.371 86.1602 145.829 88.0726 143.332 89.24L147.371 86.1602Z" fill="#FF9680" />
    <path d="M147.371 86.1602C147.371 86.1602 145.829 88.0726 143.332 89.24" stroke="#4C2318" stroke-width="2.14876" stroke-linecap="round" stroke-linejoin="round" />
    <path d="M166.865 104.626C166.865 104.626 178.2 93.2868 179.764 88.8099C182.067 82.1913 178.76 79.0682 178.76 79.0682C178.76 79.0682 176.077 76.6399 176.565 73.0942C176.565 73.0942 174.276 66.6833 177.462 63.9255C180.647 61.1678 184.901 56.698 189.364 58.6034C191.214 59.3985 195.899 60.4013 195.476 68.3595C195.476 68.3595 199.601 83.5379 194.285 99.4184C189.607 113.386 177.225 120.327 177.225 120.327" fill="#FF9680" />
    <path d="M166.865 104.626C166.865 104.626 178.2 93.2868 179.764 88.8099C182.067 82.1913 178.76 79.0682 178.76 79.0682C178.76 79.0682 176.077 76.6399 176.565 73.0942C176.565 73.0942 174.276 66.6833 177.462 63.9255C180.647 61.1678 184.901 56.698 189.364 58.6034C191.214 59.3985 195.899 60.4013 195.476 68.3595C195.476 68.3595 199.601 83.5379 194.285 99.4184C189.607 113.386 177.225 120.327 177.225 120.327" stroke="#4C2318" stroke-width="2.14876" stroke-linecap="round" stroke-linejoin="round" />
    <path d="M138.891 200.031C138.891 200.031 121.939 204.465 127.291 224.844C130.691 237.809 138.576 236.283 150.442 233.246C167.201 228.948 170.063 224.192 167.847 216.592C165.637 208.992 159.517 192.631 138.899 200.038L138.891 200.031Z" fill="#FF7761" stroke="#4C2318" stroke-width="2.14876" stroke-linecap="round" stroke-linejoin="round" />
    <g style="mix-blend-mode:color-burn" opacity="0.15">
        <path d="M150.442 233.239C144.667 234.714 139.825 235.839 135.986 235.087C138.619 234.75 141.561 234.034 144.796 233.203C161.548 228.905 164.418 224.149 162.201 216.549C160.522 210.783 156.591 199.966 145.779 198.333C160.945 196.464 165.903 209.909 167.84 216.585C170.049 224.178 167.194 228.941 150.442 233.239Z" fill="black" />
    </g>
    <path d="M134.565 209.837C134.565 209.837 137.98 206.671 138.417 209.594C138.855 212.516 136.444 215.138 134.486 213.297C132.534 211.456 134.558 209.844 134.558 209.844L134.565 209.837Z" fill="white" />
    <path d="M76.2677 205.496C70.722 213.433 65.3916 223.117 56.9619 219.744C45.3756 216.964 31.7016 202.674 27.8132 197.968C22.8486 191.672 23.4871 187.381 26.1703 181.715C28.6956 176.386 35.3819 170.963 45.4258 170.949C50.0173 171.544 53.5829 173.478 56.2876 176.135C59.846 179.616 61.9265 184.344 62.8878 188.957C63.5263 192.001 63.677 194.988 63.4474 197.538C63.7631 197.882 64.6455 197.474 65.6571 196.886C67.1134 196.034 68.8567 195.783 70.4781 196.227C74.5889 197.359 76.9421 200.095 76.2677 205.503V205.496Z" fill="#FF7761" stroke="#4C2318" stroke-width="2.14876" stroke-linecap="round" stroke-linejoin="round" />
    <path d="M41.8957 178.477C41.8957 178.477 37.1105 179.093 38.3158 176.543C39.521 173.993 43.1153 173.256 43.8543 175.784C44.5932 178.32 41.8957 178.477 41.8957 178.477Z" fill="white" />
    <path d="M30.6328 184.429C30.6328 184.429 38.5029 190.031 45.1534 197.96L30.6328 184.429Z" fill="#FF7761" />
    <path d="M30.6328 184.429C30.6328 184.429 38.5029 190.031 45.1534 197.96" stroke="#4C2318" stroke-width="2.14876" stroke-linecap="round" stroke-linejoin="round" />
    <path d="M63.4479 197.531C63.4479 197.531 63.0966 202.158 62.8457 203.382L63.4479 197.531Z" fill="#FF7761" />
    <path d="M63.4479 197.531C63.4479 197.531 63.0966 202.158 62.8457 203.382" stroke="#4C2318" stroke-width="2.14876" stroke-linecap="round" stroke-linejoin="round" />
    <g style="mix-blend-mode:color-burn" opacity="0.15">
        <path d="M76.3818 206.212C70.0614 214.385 66.3953 223.518 56.9613 219.75C45.3678 216.964 32.7053 203.834 28.8312 199.128C28.1138 198.44 25.2083 193.039 24.6343 192.266C24.6343 192.266 19.06 168.434 45.1525 197.968C55.2538 209.407 61.5097 184.286 61.5097 184.286C63.2674 188.813 63.7983 193.691 63.4468 197.538L65.8573 196.471C67.1056 195.919 68.5117 195.783 69.8318 196.105C75.4707 197.495 77.2284 201.105 76.3818 206.212Z" fill="black" />
    </g>
    <path d="M35.7696 92.6996C35.7839 92.0406 35.4037 91.4246 34.8369 91.0808C33.5743 90.3288 31.1565 89.4406 29.3271 92.1409C27.3255 95.0919 28.0142 96.9398 29.406 98.4081C30.1306 99.1745 31.3431 99.2103 32.1394 98.5227C34.1841 96.7679 35.7265 94.8985 35.7696 92.6996Z" fill="#FF9680" stroke="#4C2318" stroke-width="2.14876" stroke-linecap="round" stroke-linejoin="round" />
    <path d="M31.8672 99.0248C31.8816 98.3658 31.5013 97.7498 30.9346 97.406C29.6719 96.654 27.2542 95.7658 25.4248 98.4661C23.4232 101.417 24.1119 103.265 25.5037 104.733C26.2283 105.5 27.4407 105.536 28.2371 104.848C30.2817 103.093 31.8242 101.224 31.8672 99.0248Z" fill="#FF9680" stroke="#4C2318" stroke-width="2.14876" stroke-linecap="round" stroke-linejoin="round" />
    <path d="M27.9571 105.342C27.9714 104.683 27.5912 104.067 27.0244 103.724C25.7618 102.972 23.344 102.083 21.5146 104.784C19.513 107.735 20.2017 109.583 21.5935 111.051C22.3181 111.817 23.5306 111.853 24.3269 111.166C26.3716 109.411 27.914 107.541 27.9571 105.342Z" fill="#FF9680" stroke="#4C2318" stroke-width="2.14876" stroke-linecap="round" stroke-linejoin="round" />
</svg>
