<svg iwidth="120" height="130" viewBox="0 0 120 130" fill="none" xmlns="http://www.w3.org/2000/svg">
      <g style="mix-blend-mode: multiply" opacity="0.15">
        <path d="M58.8294 130.001C81.0897 130.001 99.1353 127.205 99.1353 123.755C99.1353 120.306 81.0897 117.51 58.8294 117.51C36.569 117.51 18.5234 120.306 18.5234 123.755C18.5234 127.205 36.569 130.001 58.8294 130.001Z" fill="#222222"></path>
      </g>
      <path d="M18.6947 75.6706C18.6947 75.6706 9.72314 67.0614 5.58002 62.8256C5.58002 62.8256 4.8596 61.6496 1.64323 59.4747C-1.56925 57.2998 0.502279 56.0216 2.97492 57.8268C2.97492 57.8268 0.276447 54.8653 1.53029 53.9686C2.67899 53.1427 5.86037 57.052 5.86037 57.052C5.86037 57.052 3.59408 53.4809 4.75836 52.2813C5.92264 51.0818 8.87815 56.3441 8.87815 56.3441C8.87815 56.3441 9.6258 53.7562 10.9419 54.3186C12.2581 54.881 12.3787 57.815 12.3437 58.8926L22.4095 65.7006" fill="#FF9680"></path>
      <path d="M18.6947 75.6706C18.6947 75.6706 9.72314 67.0614 5.58002 62.8256C5.58002 62.8256 4.8596 61.6496 1.64323 59.4747C-1.56925 57.2998 0.502279 56.0216 2.97492 57.8268C2.97492 57.8268 0.276447 54.8653 1.53029 53.9686C2.67899 53.1427 5.86037 57.052 5.86037 57.052C5.86037 57.052 3.59408 53.4809 4.75836 52.2813C5.92264 51.0818 8.87815 56.3441 8.87815 56.3441C8.87815 56.3441 9.6258 53.7562 10.9419 54.3186C12.2581 54.881 12.3787 57.815 12.3437 58.8926L22.4095 65.7006" stroke="#4C2318" stroke-width="1.5" stroke-linecap="round" stroke-linejoin="round"></path>
      <path d="M36.0384 106.43C36.0384 106.43 33.9395 113.384 30.435 116.68C28.6399 118.367 28.4063 120.577 29.7186 122.249C33.702 127.334 42.1363 125.191 47.1516 121.187C51.0845 118.048 56.6956 109.647 56.6956 109.647C56.6956 109.647 47.249 100.252 36.0384 106.43Z" fill="#824C41" stroke="#4C2318" stroke-width="1.5" stroke-linecap="round" stroke-linejoin="round"></path>
      <path d="M85.4405 105.261C85.4405 105.261 86.6827 112.659 90.1522 115.978C91.7487 117.504 92.5314 120.32 91.0244 122.248C87.0409 127.333 78.4042 126.161 73.5914 121.186C70.0868 117.563 64.0474 109.646 64.0474 109.646C64.0474 109.646 74.2338 99.0825 85.4444 105.261H85.4405Z" fill="#824C41" stroke="#4C2318" stroke-width="1.5" stroke-linecap="round" stroke-linejoin="round"></path>
      <path d="M70.3318 23.1488C70.3318 23.1488 45.2939 13.1198 37.2764 39.2307C37.2764 39.2307 33.546 38.1216 39.4102 29.6696C39.4102 29.6696 16.4985 48.0405 15.5951 75.6695C14.6917 103.299 39.7023 114.57 59.7015 113.367C79.3969 112.179 95.5177 100.152 97.7411 82.3477C99.9606 64.5747 90.2531 39.4391 74.3192 28.5094C74.3192 28.5094 81.114 38.2986 75.7054 43.3091C75.7054 43.3091 78.949 36.7057 70.0787 30.0275C70.0787 30.0275 63.6148 25.776 56.0996 28.5094C56.0996 28.5094 59.7677 24.8085 70.328 23.1488H70.3318Z" fill="#FF9680" stroke="#4C2318" stroke-width="1.5" stroke-linecap="round" stroke-linejoin="round"></path>
      <path d="M37.6074 96.3884C37.6074 96.3884 13.983 87.0555 19.8394 62.5021C19.8394 62.5021 27.6817 35.8799 57.587 41.1029C87.4923 46.3298 83.061 76.0983 82.3212 78.6705C80.6195 84.5778 74.2569 101.584 45.621 98.4729C43.3781 98.2291 41.1625 97.7532 39.0403 96.9745C38.538 96.7896 38.0435 96.589 37.6113 96.3845L37.6074 96.3884Z" fill="#FFEAA9"></path>
      <path d="M56.0998 28.5098C56.0998 28.5098 49.8929 32.3444 53.9698 36.1712C56.4347 38.4877 60.9282 36.1554 60.2195 33.7091C60.2195 33.7091 59.5926 31.4988 57.4315 32.8164" fill="#FF9680"></path>
      <path d="M56.0998 28.5098C56.0998 28.5098 49.8929 32.3444 53.9698 36.1712C56.4347 38.4877 60.9282 36.1554 60.2195 33.7091C60.2195 33.7091 59.5926 31.4988 57.4315 32.8164" stroke="#4C2318" stroke-width="1.5" stroke-linecap="round" stroke-linejoin="round"></path>
      <path d="M95.7162 73.7746C95.7162 73.7746 105.447 67.061 111.046 61.8695C111.046 61.8695 118.745 59.8519 119.893 57.3152C120.836 55.2346 115.205 57.2404 115.205 57.2404C115.205 57.2404 119.477 54.8846 119.017 53.04C118.558 51.1955 113.278 54.4402 113.278 54.4402C113.278 54.4402 117.359 51.9152 116.136 49.8425C114.917 47.7699 110.205 52.0961 110.205 52.0961C110.205 52.0961 110.825 48.1592 108.835 48.8436C106.6 49.6144 107.055 54.0075 107.055 54.0075C107.055 54.0075 100.572 60.0958 91.834 65.3581" fill="#FF9680"></path>
      <path d="M95.7162 73.7746C95.7162 73.7746 105.447 67.061 111.046 61.8695C111.046 61.8695 118.745 59.8519 119.893 57.3152C120.836 55.2346 115.205 57.2404 115.205 57.2404C115.205 57.2404 119.477 54.8846 119.017 53.04C118.558 51.1955 113.278 54.4402 113.278 54.4402C113.278 54.4402 117.359 51.9152 116.136 49.8425C114.917 47.7699 110.205 52.0961 110.205 52.0961C110.205 52.0961 110.825 48.1592 108.835 48.8436C106.6 49.6144 107.055 54.0075 107.055 54.0075C107.055 54.0075 100.572 60.0958 91.834 65.3581" stroke="#4C2318" stroke-width="1.5" stroke-linecap="round" stroke-linejoin="round"></path>
      <path d="M71.4767 7.12305C71.4767 7.12305 71.6792 9.95478 70.0359 13.1995C69.631 13.9979 69.4089 14.8867 69.4751 15.7834C69.5491 16.8217 69.9697 18.0331 71.3364 18.7292C71.3364 18.7292 66.2393 18.2887 66.8351 14.0687C67.2712 10.9695 70.3864 10.2183 71.4767 7.12305Z" fill="#FF9680" stroke="#4C2318" stroke-width="1.5" stroke-linecap="round" stroke-linejoin="round"></path>
      <path d="M60.4962 0C60.4962 0 60.7648 1.50651 62.2172 3.5873C63.6697 5.66809 62.4508 7.87082 62.4508 7.87082C62.4508 7.87082 59.5226 4.55492 60.5 0H60.4962Z" fill="#FF9680" stroke="#4C2318" stroke-width="1.5" stroke-linecap="round" stroke-linejoin="round"></path>
      <path d="M46.6844 75.1918C46.003 75.18 45.3255 75.1525 44.6479 75.1131C36.5096 74.649 36.8134 67.9228 44.9673 68.1195C45.602 68.1352 46.2366 68.1588 46.8713 68.1863C55.107 68.5679 54.924 75.3491 46.6844 75.1918Z" fill="#FF7471" stroke="#4C2318" stroke-width="1.5" stroke-linecap="round" stroke-linejoin="round"></path>
      <path d="M32.7779 63.4038C32.8127 62.3769 30.7187 61.471 28.1009 61.3805C25.483 61.2901 23.3327 62.0492 23.2979 63.0761C23.2631 64.1031 25.357 65.0089 27.9749 65.0994C30.5927 65.1899 32.7431 64.4307 32.7779 63.4038Z" fill="#FF7471" stroke="#4C2318" stroke-width="1.5" stroke-linecap="round" stroke-linejoin="round"></path>
      <path d="M38.0465 53.693L36.7818 53.6493C35.7071 53.6121 34.8061 54.4619 34.7694 55.5474L34.6118 60.1973C34.5751 61.2827 35.4164 62.1928 36.4911 62.2299L37.7558 62.2736C38.8305 62.3108 39.7315 61.461 39.7682 60.3756L39.9258 55.7256C39.9625 54.6402 39.1212 53.7302 38.0465 53.693Z" fill="#4C2318"></path>
      <path d="M36.1436 56.8212C36.4877 56.8212 36.7665 56.5394 36.7665 56.1918C36.7665 55.8443 36.4877 55.5625 36.1436 55.5625C35.7995 55.5625 35.5205 55.8443 35.5205 56.1918C35.5205 56.5394 35.7995 56.8212 36.1436 56.8212Z" fill="white"></path>
      <path d="M68.2618 63.4038C68.2966 62.3769 66.2026 61.471 63.5848 61.3805C60.9669 61.2901 58.8165 62.0492 58.7818 63.0761C58.747 64.1031 60.8409 65.0089 63.4588 65.0994C66.0766 65.1899 68.227 64.4307 68.2618 63.4038Z" fill="#FF7471" stroke="#4C2318" stroke-width="1.5" stroke-linecap="round" stroke-linejoin="round"></path>
      <path d="M55.4777 53.693L54.2129 53.6493C53.1383 53.6121 52.2373 54.4619 52.2005 55.5474L52.043 60.1973C52.0062 61.2827 52.8476 62.1928 53.9222 62.2299L55.187 62.2736C56.2616 62.3108 57.1626 61.461 57.1994 60.3756L57.3569 55.7256C57.3937 54.6402 56.5523 53.7302 55.4777 53.693Z" fill="#4C2318"></path>
      <path d="M53.5728 56.8212C53.9169 56.8212 54.1957 56.5394 54.1957 56.1918C54.1957 55.8443 53.9169 55.5625 53.5728 55.5625C53.2287 55.5625 52.9497 55.8443 52.9497 56.1918C52.9497 56.5394 53.2287 56.8212 53.5728 56.8212Z" fill="white"></path>
      <path d="M36.564 47.3457L39.9362 49.1512" stroke="#4C2318" stroke-width="1.5" stroke-linecap="round" stroke-linejoin="round"></path>
      <path d="M55.4186 47.3457L52.0464 49.1512" stroke="#4C2318" stroke-width="1.5" stroke-linecap="round" stroke-linejoin="round"></path>
      <path d="M31.9221 117.187C31.9221 117.187 33.7912 114.878 34.9905 116.648C36.1898 118.418 32.8372 119.032 32.8372 119.032C32.8372 119.032 30.933 119.185 31.9221 117.187Z" fill="white"></path>
      <path d="M84.7629 117.187C84.7629 117.187 86.632 114.878 87.8313 116.648C89.0307 118.418 85.678 119.032 85.678 119.032C85.678 119.032 83.7738 119.185 84.7629 117.187Z" fill="white"></path>
      <path d="M75.7054 43.3105C75.7054 43.3105 74.8683 44.3608 73.5132 45.0019L75.7054 43.3105Z" fill="#FF9680"></path>
      <path d="M75.7054 43.3105C75.7054 43.3105 74.8683 44.3608 73.5132 45.0019" stroke="#4C2318" stroke-width="1.5" stroke-linecap="round" stroke-linejoin="round"></path>
    </svg>