<svg width="32" height="32" viewBox="0 0 32 32" fill="none" xmlns="http://www.w3.org/2000/svg">
<path d="M12.284 5.32812H9.71732C9.50561 5.32812 9.33398 5.49711 9.33398 5.70556V8.23274C9.33398 8.44119 9.50561 8.61018 9.71732 8.61018H12.284C12.4957 8.61018 12.6673 8.44119 12.6673 8.23274V5.70556C12.6673 5.49711 12.4957 5.32812 12.284 5.32812Z" fill="#FFC747"/>
<path d="M22.284 5.32812H19.7173C19.5056 5.32812 19.334 5.49711 19.334 5.70556V8.23274C19.334 8.44119 19.5056 8.61018 19.7173 8.61018H22.284C22.4957 8.61018 22.6673 8.44119 22.6673 8.23274V5.70556C22.6673 5.49711 22.4957 5.32812 22.284 5.32812Z" fill="#FFC747"/>
<path d="M26 20.1016H6V26.6657H26V20.1016Z" fill="#1ACEFF"/>
<path d="M7.11667 6.97656H24.8833C25.5 6.97656 26 7.46887 26 8.07605V13.5407H6V8.07605C6 7.46887 6.5 6.97656 7.11667 6.97656Z" fill="#FF5065"/>
<path d="M16 13.5391H6V20.1032H16V13.5391Z" fill="#FFE39E"/>
<path d="M26 13.5391H16V20.1032H26V13.5391Z" fill="#FFC747"/>
<path d="M14.8173 22.8917H15.4507V22.2845C15.4507 21.9071 15.7007 21.7266 16.0007 21.7266C16.3007 21.7266 16.5507 21.9071 16.5507 22.2845V22.8917H17.184C17.534 22.8917 17.6673 23.1378 17.6673 23.384C17.6673 23.6302 17.534 23.8927 17.184 23.8927H16.5507V24.4999C16.5507 24.8773 16.3007 25.0578 16.0007 25.0578C15.7007 25.0578 15.4507 24.8773 15.4507 24.4999V23.8927H14.8173C14.4673 23.8927 14.334 23.6302 14.334 23.384C14.334 23.1378 14.4673 22.8917 14.8173 22.8917Z" fill="white"/>
<path d="M10.5174 15.6391L10.9674 16.0822L11.4008 15.6555C11.6674 15.3929 11.9841 15.4422 12.1841 15.6555C12.3841 15.8688 12.4508 16.1642 12.1841 16.4268L11.7508 16.8534L12.2008 17.2965C12.4508 17.5427 12.3674 17.8052 12.2008 17.9858C12.0341 18.1663 11.7341 18.2483 11.5008 18.0022L11.0508 17.5591L10.6174 17.9858C10.3508 18.2483 10.0341 18.1991 9.83409 17.9858C9.63409 17.7724 9.56742 17.477 9.83409 17.2145L10.2674 16.7878L9.81742 16.3447C9.56742 16.0986 9.66742 15.8196 9.85075 15.6555C10.0341 15.4914 10.3008 15.3929 10.5508 15.6555L10.5174 15.6391Z" fill="white"/>
<path d="M19.8507 16.2578H22.1507C22.534 16.2578 22.6673 16.5368 22.6673 16.7994C22.6673 17.0619 22.5173 17.3573 22.1507 17.3573H19.8507C19.484 17.3573 19.334 17.0619 19.334 16.7994C19.334 16.5368 19.4673 16.2578 19.8507 16.2578Z" fill="white"/>
<path d="M15.0152 9.84014H16.9819C17.2652 9.84014 17.3819 10.0535 17.3819 10.2504C17.3819 10.4473 17.2652 10.6607 16.9819 10.6607H15.0152C14.7319 10.6607 14.6152 10.4309 14.6152 10.2504C14.6152 10.0699 14.7319 9.84014 15.0152 9.84014ZM15.9986 8.60938C16.3319 8.60938 16.5152 8.8063 16.5152 9.10168C16.5152 9.39707 16.3152 9.59399 15.9986 9.59399C15.6819 9.59399 15.4819 9.41348 15.4819 9.10168C15.4819 8.78989 15.6819 8.60938 15.9986 8.60938ZM15.9986 10.9232C16.3319 10.9232 16.5152 11.1201 16.5152 11.4155C16.5152 11.7109 16.3152 11.9078 15.9986 11.9078C15.6819 11.9078 15.4819 11.7273 15.4819 11.4155C15.4819 11.1037 15.6819 10.9232 15.9986 10.9232Z" fill="white"/>
</svg>
