                            <svg class="mathematics-character" width="165" height="197" viewBox="0 0 165 197" fill="none" xmlns="http://www.w3.org/2000/svg">
                                <path d="M15.5735 28.8974L30.734 70.9814L18.1904 75.4879L3.02353 33.4039C2.34223 31.5224 4.60263 28.9863 8.06644 27.7469C11.5303 26.5075 14.8922 27.0159 15.5671 28.9037L15.5735 28.8974Z" fill="#FF7471" stroke="#0B3242" stroke-width="1.9084" stroke-linecap="round" stroke-linejoin="round" />
                                <path d="M25.6808 76.6479C29.1454 75.4042 31.4042 72.8695 30.7258 70.9866C30.0475 69.1038 26.689 68.5857 23.2244 69.8295C19.7598 71.0733 17.5011 73.6079 18.1794 75.4908C18.8577 77.3737 22.2162 77.8917 25.6808 76.6479Z" fill="#FFE3AB" stroke="#0B3242" stroke-width="1.9084" stroke-linecap="round" stroke-linejoin="round" />
                                <path d="M30.7605 71.0642L34.0778 80.2679L21.5343 84.7744L18.2169 75.5707C17.5356 73.6893 19.796 71.1532 23.2598 69.9138C26.73 68.668 30.0855 69.1828 30.7605 71.0706V71.0642Z" fill="#5E5E5E" stroke="#0B3242" stroke-width="1.9084" stroke-linecap="round" stroke-linejoin="round" />
                                <g style="mix-blend-mode:color-burn" opacity="0.15">
                                    <path d="M30.7582 71.0639L34.0755 80.2676L21.5319 84.7741L20.8379 82.8546L30.5035 79.3841L27.1861 70.1804C27.0524 69.8181 26.8232 69.5003 26.5112 69.2461C28.6187 69.1507 30.2997 69.7927 30.7582 71.0703V71.0639Z" fill="black" />
                                </g>
                                <path d="M28.9992 85.853C32.4638 84.6092 34.7225 82.0746 34.0442 80.1917C33.3659 78.3088 30.0074 77.7908 26.5428 79.0345C23.0782 80.2783 20.8194 82.813 21.4977 84.6959C22.1761 86.5787 25.5346 87.0968 28.9992 85.853Z" fill="#5E5E5E" stroke="#0B3242" stroke-width="1.9084" stroke-linecap="round" stroke-linejoin="round" />
                                <path d="M10.6914 43.4468L11.1558 44.7244" stroke="white" stroke-width="1.9084" stroke-linecap="round" stroke-linejoin="round" />
                                <path d="M7.11719 33.5308L9.61954 40.4717" stroke="white" stroke-width="1.9084" stroke-linecap="round" stroke-linejoin="round" />
                                <path d="M17.2369 85.4288C12.3086 96.0308 31.4487 153.478 31.4487 153.478C36.8291 168.713 56.0074 163.501 54.0781 150.204C50.003 128.053 37.7842 102.247 37.7842 102.247C40.6176 101.186 42.496 98.9419 42.496 98.9419C47.9209 93.4502 40.5603 90.1196 40.5603 90.1196C45.8643 85.2381 38.0898 81.8375 38.0898 81.8375C40.9169 79.3078 36.5489 76.2696 33.8301 75.7166C31.5124 75.2462 22.1652 74.8331 17.2369 85.4288Z" fill="#FFE3AB" />
                                <path d="M17.2369 85.4288C12.3086 96.0308 31.4487 153.478 31.4487 153.478C36.8291 168.713 56.0074 163.501 54.0781 150.204C50.003 128.053 37.7842 102.247 37.7842 102.247C40.6176 101.186 42.496 98.9419 42.496 98.9419C47.9209 93.4502 40.5603 90.1196 40.5603 90.1196C45.8643 85.2381 38.0898 81.8375 38.0898 81.8375C40.9169 79.3078 36.5489 76.2696 33.8301 75.7166C31.5124 75.2462 22.1652 74.8331 17.2369 85.4288Z" stroke="#0B3242" stroke-width="1.9084" stroke-linecap="round" stroke-linejoin="round" />
                                <g style="mix-blend-mode:color-burn" opacity="0.15">
                                    <path d="M54.0722 153.814C49.0611 159.382 38.3004 159.325 34.0279 148.691C34.0279 148.691 18.428 107.828 16.486 88.9246C15.3208 105.063 31.4492 153.478 31.4492 153.478C36.3074 167.245 52.4358 164.315 54.0722 153.808V153.814Z" fill="black" />
                                </g>
                                <path d="M37.7904 102.247C37.7904 102.247 34.8042 103.569 32.4355 102.794" stroke="#0B3242" stroke-width="1.9084" stroke-linecap="round" stroke-linejoin="round" />
                                <path d="M40.5605 90.1202C40.5605 90.1202 38.7649 89.5158 37.7207 89.783" stroke="#0B3242" stroke-width="1.9084" stroke-linecap="round" stroke-linejoin="round" />
                                <path d="M38.0897 81.8381C38.0897 81.8381 36.8162 80.8012 34.9824 82.0989" stroke="#0B3242" stroke-width="1.9084" stroke-linecap="round" stroke-linejoin="round" />
                                <path d="M1 20.958L3.999 24.581" stroke="#0B3242" stroke-width="1.9084" stroke-linecap="round" stroke-linejoin="round" />
                                <path d="M9.1875 22.7187V18.0215" stroke="#0B3242" stroke-width="1.9084" stroke-linecap="round" stroke-linejoin="round" />
                                <path d="M41.0046 99.4883L42.8893 104.713L30.3458 109.22L28.461 103.995C27.7797 102.113 30.0401 99.5773 33.5039 98.3378C36.9741 97.092 40.3297 97.6069 41.0046 99.4947V99.4883Z" fill="#5E5E5E" stroke="#0B3242" stroke-width="1.9084" stroke-linecap="round" stroke-linejoin="round" />
                                <g style="mix-blend-mode:color-burn" opacity="0.15">
                                    <path d="M41.0058 99.4884L42.8841 104.713L30.3405 109.22L29.6465 107.3L39.312 103.83L37.4273 98.6049C37.3 98.2489 37.0708 97.9375 36.7524 97.6832C38.86 97.5815 40.5346 98.2299 40.9994 99.5011L41.0058 99.4884Z" fill="black" />
                                </g>
                                <path d="M37.8156 110.303C41.2802 109.059 43.5389 106.525 42.8606 104.642C42.1823 102.759 38.8238 102.241 35.3592 103.484C31.8946 104.728 29.6358 107.263 30.3142 109.146C30.9925 111.029 34.351 111.547 37.8156 110.303Z" fill="#5E5E5E" stroke="#0B3242" stroke-width="1.9084" stroke-linecap="round" stroke-linejoin="round" />
                                <g style="mix-blend-mode:color-burn" opacity="0.15">
                                    <path d="M37.8156 110.303C41.2802 109.059 43.5389 106.525 42.8606 104.642C42.1823 102.759 38.8238 102.241 35.3592 103.484C31.8946 104.728 29.6358 107.263 30.3142 109.146C30.9925 111.029 34.351 111.547 37.8156 110.303Z" fill="black" />
                                </g>
                                <path d="M150.022 64.6694C150.022 64.6694 156.937 82.0281 170.168 94.2891C183.399 106.55 198.674 147.662 183.819 182.887C168.964 218.107 143.451 225.162 131.225 225.022C120.942 224.908 78.6696 211.522 78.6251 209.939C78.5805 208.356 99.4907 57.3535 99.4907 57.3535L150.022 64.6694Z" fill="#86DBD4" stroke="#0B3242" stroke-width="1.9084" stroke-linecap="round" stroke-linejoin="round" />
                                <path d="M138.248 223.472C142.52 221.698 146.061 218.539 148.563 214.656C158.56 199.153 165.71 173.423 152.237 147.815C136.051 117.064 150.002 75.2783 150.021 64.6699C150.04 54.0615 146.43 43.3578 131.48 41.3746C116.529 39.3915 101.152 43.2561 101.152 43.2561C56.218 77.2805 48.9147 180.002 59.7136 213.556C66.463 234.519 130.473 224.991 130.473 224.991C133.154 225.042 135.739 224.501 138.248 223.465V223.472Z" fill="#66AAA3" stroke="#0B3242" stroke-width="1.9084" stroke-linecap="round" stroke-linejoin="round" />
                                <path opacity="0.3" d="M123.068 48.074C123.068 48.074 138.853 46.6312 140.438 63.9008C140.438 63.9008 139.598 78.1449 136.261 83.4396C132.925 88.7342 129.83 126.413 133.351 134.74C136.872 143.067 120.801 141.427 120.801 141.427L111.098 114.318L123.068 48.0804V48.074Z" fill="black" />
                                <g style="mix-blend-mode:color-burn" opacity="0.15">
                                    <path d="M170.168 94.2893C169.818 93.9651 169.474 93.6346 169.137 93.3041C180.394 110.294 189.761 144.763 177.039 174.917C173.747 182.722 169.926 189.142 165.851 194.411C163.839 197.005 159.675 195.123 160.363 191.913C163.19 178.781 162.464 163.527 154.46 148.31C139.764 120.381 149.914 83.3631 151.92 68.8456C150.659 66.2651 150.022 64.6633 150.022 64.6633C150.035 60.5445 149.494 56.4194 147.953 52.79C148.271 54.7604 148.399 56.7944 148.392 58.822C148.392 60.1822 148.157 62.0509 147.794 64.3455C145.578 78.1701 135.626 108.095 143.827 133.221C144.884 136.456 146.195 139.628 147.806 142.691C150.589 147.98 152.493 153.281 153.677 158.486C158.204 178.489 154.861 196.509 146.934 208.808C146.132 210.054 145.215 211.23 144.209 212.304C136.504 215.984 129.392 217.109 124.451 217.052C116.861 216.963 91.8123 209.641 79.2178 205.185C78.8357 208.09 78.6256 209.78 78.632 209.939C78.6575 210.95 95.9702 216.791 111.131 220.897C94.5821 221.921 71.0613 221.628 61.6504 213.073C61.7395 213.403 61.8478 213.734 61.9497 214.058C63.8089 219.842 70.0425 223.306 78.0844 225.296C99.1665 230.489 132.709 225.493 132.709 225.493C135.39 225.544 137.975 225.01 140.484 223.967C140.497 223.967 140.509 223.955 140.522 223.948C153.747 220.929 172.104 210.677 183.826 182.881C198.681 147.662 183.406 106.55 170.175 94.2829L170.168 94.2893Z" fill="black" />
                                </g>
                                <path d="M133.473 51.3091C137.217 54.1249 142.043 60.1187 139.936 71.7123C136.644 89.8209 124.858 124.589 137.414 144.357" stroke="#0B3242" stroke-width="1.9084" stroke-linecap="round" stroke-linejoin="round" />
                                <path d="M128.499 48.7224C128.499 48.7224 118.356 46.2117 115.434 50.8708" stroke="#0B3242" stroke-width="1.9084" stroke-linecap="round" stroke-linejoin="round" />
                                <path d="M146.074 90.0752L165.1 102.749L173.027 143.715L158.771 166.997" stroke="#0B3242" stroke-width="1.9084" stroke-linecap="round" stroke-linejoin="round" />
                                <path d="M165.098 102.749L170.166 94.2893" stroke="#0B3242" stroke-width="1.9084" stroke-linecap="round" stroke-linejoin="round" />
                                <path d="M156.82 196.573L164.703 210.601" stroke="#0B3242" stroke-width="1.9084" stroke-linecap="round" stroke-linejoin="round" />
                                <path d="M40.094 135.737C40.094 135.737 28.671 182.512 42.0742 199.038C57.6996 218.297 53.5099 136.233 53.5099 136.233C53.5099 136.233 44.793 123.782 40.0876 135.731L40.094 135.737Z" fill="#66AAA3" stroke="#0B3242" stroke-width="1.9084" stroke-linecap="round" stroke-linejoin="round" />
                                <path d="M135.534 213.232C133.955 214.509 132.173 215.634 130.167 216.607C129.498 216.931 128.836 217.242 128.174 217.535C108.295 226.421 89.6071 223.999 73.4469 221.94C56.7455 219.817 43.0749 211.128 39.108 186.155C35.1412 161.181 45.1442 142.532 45.1442 142.532C58.8339 123.464 87.8179 125.034 116.108 129.629C121.335 130.481 126.136 132.973 130.224 135.947C132.472 137.575 134.503 139.354 136.273 141.083C136.324 141.128 136.369 141.178 136.42 141.223C141.341 146.054 144.391 152.454 145.168 159.3C147.811 182.538 148.536 202.769 135.541 213.232H135.534Z" fill="#B1DDB6" stroke="#0B3242" stroke-width="1.9084" stroke-linecap="round" stroke-linejoin="round" />
                                <g style="mix-blend-mode:color-burn" opacity="0.15">
                                    <path d="M136.387 212.571C134.808 213.848 133.019 214.973 131.02 215.946C130.351 216.27 129.683 216.581 129.027 216.867C109.142 225.76 90.4601 223.331 74.2935 221.272C64.2841 220.001 55.3635 216.372 48.9707 208.287C54.6249 212.717 61.4825 214.967 68.9322 215.914C85.0988 217.973 103.787 220.395 123.666 211.509C124.328 211.21 124.99 210.905 125.659 210.581C127.658 209.609 129.447 208.484 131.026 207.206C144.022 196.75 143.296 176.519 140.647 153.28C140.004 147.585 137.775 142.195 134.216 137.765C135.248 138.642 136.209 139.532 137.113 140.409C137.158 140.46 137.209 140.505 137.253 140.555C142.175 145.386 145.232 151.793 146.008 158.632C148.651 181.87 149.383 202.108 136.387 212.558V212.571Z" fill="black" />
                                </g>
                                <path d="M131.359 214.802C125.813 207.537 109.048 181.807 116.224 144.23C116.224 144.23 119.738 133.672 128.78 133.233C128.812 133.233 128.844 133.233 128.882 133.227C128.882 133.227 137.159 134.911 135.109 138.02C135.109 138.02 130.556 134.587 125.781 144.833C121.088 154.908 116.128 170.525 138.471 210.098C139.942 212.31 132.836 217.02 131.365 214.808L131.359 214.802Z" fill="#66AAA3" stroke="#0B3242" stroke-width="1.9084" stroke-linecap="round" stroke-linejoin="round" />
                                <path d="M44.7924 130.048C44.7924 130.048 40.2971 142.983 57.5207 149.505C74.7379 156.032 103.276 150.61 116.291 138.686C116.291 138.686 129.56 128.752 121.066 114.349C110.287 96.0684 46.2506 94.9243 44.7924 130.048Z" fill="#66AAA3" stroke="#0B3242" stroke-width="1.9084" stroke-linecap="round" stroke-linejoin="round" />
                                <g style="mix-blend-mode:color-burn" opacity="0.15">
                                    <path d="M116.287 138.693C106.482 147.68 87.851 152.975 71.8945 152.238C86.2846 151.596 101.617 146.555 110.2 138.693C110.2 138.693 123.47 128.758 114.976 114.349C110.652 107.02 97.7585 102.444 83.7759 101.859C99.9616 101.179 116.122 105.959 121.063 114.349C129.557 128.758 116.287 138.693 116.287 138.693Z" fill="black" />
                                </g>
                                <path d="M32.7284 69.9703C32.7284 69.9703 34.1483 28.5283 87.1306 31.5474C87.1306 31.5474 118.521 32.6216 132.37 61.5866C136.63 70.5042 138.254 80.4452 137.375 90.2909C136.261 102.711 132.097 122.294 117.337 132.813C94.6377 148.996 71.3079 148.049 60.7636 146.028C49.4362 143.854 12.6013 126.216 24.0688 83.6042C24.0688 83.6042 26.7495 76.1231 32.7284 69.9703Z" fill="#FFE3AB" stroke="#0B3242" stroke-width="1.9084" stroke-linecap="round" stroke-linejoin="round" />
                                <g style="mix-blend-mode:color-burn" opacity="0.15">
                                    <path d="M137.382 90.2914C136.268 102.705 132.097 122.295 117.344 132.814C94.6446 148.997 71.3148 148.05 60.7706 146.028C55.6385 145.043 45.2853 140.886 36.543 132.681C43.114 137.028 49.5386 139.386 53.238 140.098C63.7887 142.119 87.1121 143.073 109.812 126.884C124.565 116.364 128.735 96.7747 129.849 84.3611C130.728 74.5218 129.104 64.5745 124.845 55.6568C121.878 49.4469 118.102 44.5208 114.001 40.6118C120.878 45.0611 127.653 51.6969 132.377 61.5934C136.637 70.5111 138.261 80.4521 137.382 90.2978V90.2914Z" fill="black" />
                                </g>
                                <path d="M40.5156 53.5784C43.5656 50.4512 46.5009 50.5529 49.3343 53.8772" stroke="#0B3242" stroke-width="1.9084" stroke-linecap="round" stroke-linejoin="round" />
                                <path d="M60.1213 93.5962C57.4406 96.895 53.9705 96.8505 51.4044 93.3991C48.9276 90.0749 48.6601 84.1001 52.124 84.2145L60.325 84.3289C63.7379 84.4433 62.7191 90.3927 60.1149 93.5898L60.1213 93.5962Z" fill="#FF7471" stroke="#0B3242" stroke-width="1.9084" stroke-linecap="round" stroke-linejoin="round" />
                                <path d="M38.9127 72.6928C38.9556 71.4403 36.3721 70.3355 33.1423 70.2252C29.9125 70.1149 27.2594 71.0407 27.2164 72.2932C27.1735 73.5457 29.757 74.6505 32.9868 74.7608C36.2166 74.8712 38.8697 73.9453 38.9127 72.6928Z" fill="#FF7471" stroke="#0B3242" stroke-width="1.9084" stroke-linecap="round" stroke-linejoin="round" />
                                <path d="M95.4639 9.92432C95.4639 9.92432 73.815 7.90942 83.3851 30.8678C83.3851 30.8678 82.2708 15.8864 95.4639 9.92432Z" fill="#B3E9BB" stroke="#0B3242" stroke-width="1.9084" stroke-linecap="round" stroke-linejoin="round" />
                                <path d="M101.15 200.45C103.704 199.661 106.289 198.727 108.899 197.64" stroke="#0B3242" stroke-width="1.9084" stroke-linecap="round" stroke-linejoin="round" />
                                <path d="M51.3457 195.676C64.093 203.068 79.0371 205.604 95.2737 202.007" stroke="#0B3242" stroke-width="1.9084" stroke-linecap="round" stroke-linejoin="round" />
                                <path d="M46.0371 172.94C64.6742 183.637 86.0238 184.031 109.818 175.114" stroke="#0B3242" stroke-width="1.9084" stroke-linecap="round" stroke-linejoin="round" />
                                <path d="M47.7606 64.066C47.8207 62.3118 46.4449 60.8411 44.6876 60.7811C42.9304 60.721 41.4571 62.0944 41.397 63.8486L41.2561 67.9586C41.1959 69.7128 42.5717 71.1835 44.329 71.2435C46.0862 71.3035 47.5595 69.9302 47.6197 68.176L47.7606 64.066Z" fill="#0B3242" />
                                <path d="M43.1064 64.6695C43.5319 64.6695 43.8768 64.3252 43.8768 63.9004C43.8768 63.4757 43.5319 63.1313 43.1064 63.1313C42.6809 63.1313 42.3359 63.4757 42.3359 63.9004C42.3359 64.3252 42.6809 64.6695 43.1064 64.6695Z" fill="white" />
                                <path d="M66.8457 53.5779C69.8956 50.4507 72.831 50.5524 75.6644 53.8767" stroke="#0B3242" stroke-width="1.9084" stroke-linecap="round" stroke-linejoin="round" />
                                <path d="M87.5201 72.6957C87.563 71.4432 84.9795 70.3385 81.7497 70.2281C78.5199 70.1178 75.8668 71.0437 75.8238 72.2962C75.7809 73.5486 78.3644 74.6534 81.5942 74.7637C84.8241 74.8741 87.4772 73.9482 87.5201 72.6957Z" fill="#FF7471" stroke="#0B3242" stroke-width="1.9084" stroke-linecap="round" stroke-linejoin="round" />
                                <path d="M74.0828 64.0621C74.143 62.3079 72.7672 60.8372 71.0099 60.7772C69.2527 60.7171 67.7794 62.0905 67.7192 63.8447L67.5783 67.9547C67.5182 69.7089 68.894 71.1796 70.6512 71.2396C72.4085 71.2996 73.8818 69.9263 73.9419 68.1721L74.0828 64.0621Z" fill="#0B3242" />
                                <path d="M69.4384 64.67C69.8639 64.67 70.2089 64.3257 70.2089 63.9009C70.2089 63.4762 69.8639 63.1318 69.4384 63.1318C69.0129 63.1318 68.668 63.4762 68.668 63.9009C68.668 64.3257 69.0129 64.67 69.4384 64.67Z" fill="white" />
                                <path d="M123.068 14.856V64.8534H108.162V14.856C108.162 12.6186 111.499 10.8071 115.612 10.8071C119.725 10.8071 123.068 12.6186 123.068 14.856Z" fill="#FF7471" stroke="#0B3242" stroke-width="1.9084" stroke-linecap="round" stroke-linejoin="round" />
                                <path d="M115.612 68.9024C119.726 68.9024 123.062 67.0897 123.062 64.8536C123.062 62.6174 119.726 60.8047 115.612 60.8047C111.497 60.8047 108.162 62.6174 108.162 64.8536C108.162 67.0897 111.497 68.9024 115.612 68.9024Z" fill="#FFE3AB" stroke="#0B3242" stroke-width="1.9084" stroke-linecap="round" stroke-linejoin="round" />
                                <path d="M123.068 64.9488V75.8813H108.162V64.9488C108.162 62.7114 111.499 60.8999 115.612 60.8999C119.725 60.8999 123.068 62.7114 123.068 64.9488Z" fill="#5E5E5E" stroke="#0B3242" stroke-width="1.9084" stroke-linecap="round" stroke-linejoin="round" />
                                <g style="mix-blend-mode:color-burn" opacity="0.15">
                                    <path d="M123.068 64.9422V75.8748H108.162V73.5929H119.649V62.6603C119.649 62.2281 119.521 61.8086 119.292 61.4209C121.546 62.1137 123.068 63.4294 123.068 64.9422Z" fill="black" />
                                </g>
                                <path d="M115.612 79.835C119.726 79.835 123.062 78.0223 123.062 75.7862C123.062 73.55 119.726 71.7373 115.612 71.7373C111.497 71.7373 108.162 73.55 108.162 75.7862C108.162 78.0223 111.497 79.835 115.612 79.835Z" fill="#5E5E5E" stroke="#0B3242" stroke-width="1.9084" stroke-linecap="round" stroke-linejoin="round" />
                                <path d="M112.422 28.312V29.8311" stroke="white" stroke-width="1.9084" stroke-linecap="round" stroke-linejoin="round" />
                                <path d="M112.422 16.5342V24.7781" stroke="white" stroke-width="1.9084" stroke-linecap="round" stroke-linejoin="round" />
                                <path d="M127.568 74.0578C137.578 82.4733 145.378 149.709 145.378 149.709C147.141 167.684 125.238 171.447 120.902 157.063C114.547 132.7 114.706 100.785 114.706 100.785C111.338 101.046 108.371 99.6604 108.371 99.6604C100.278 96.6539 106.155 89.8147 106.155 89.8147C98.4698 87.3739 104.742 80.2551 104.742 80.2551C100.679 79.0283 103.672 73.8862 106.155 72.0429C108.282 70.473 117.559 65.6423 127.562 74.0578" fill="#FFE3AB" />
                                <path d="M127.568 74.0578C137.578 82.4733 145.378 149.709 145.378 149.709C147.141 167.684 125.238 171.447 120.902 157.063C114.547 132.7 114.706 100.785 114.706 100.785C111.338 101.046 108.371 99.6604 108.371 99.6604C100.278 96.6539 106.155 89.8147 106.155 89.8147C98.4698 87.3739 104.742 80.2551 104.742 80.2551C100.679 79.0283 103.672 73.8862 106.155 72.0429C108.282 70.473 117.559 65.6423 127.562 74.0578" stroke="#0B3242" stroke-width="1.9084" stroke-linecap="round" stroke-linejoin="round" />
                                <g style="mix-blend-mode:color-burn" opacity="0.15">
                                    <path d="M122.615 160.717C130.326 163.997 141.201 158.861 140.501 146.073C140.501 146.073 136.967 97.3149 129.982 77.2485C138.801 93.0499 145.378 149.709 145.378 149.709C146.97 165.948 129.244 170.588 122.615 160.717Z" fill="black" />
                                </g>
                                <path d="M114.707 100.792C114.707 100.792 118.362 100.722 120.393 98.8213" stroke="#0B3242" stroke-width="1.9084" stroke-linecap="round" stroke-linejoin="round" />
                                <path d="M106.156 89.8143C106.156 89.8143 107.691 88.3587 108.875 88.1362" stroke="#0B3242" stroke-width="1.9084" stroke-linecap="round" stroke-linejoin="round" />
                                <path d="M104.742 80.255C104.742 80.255 105.544 78.6024 108.015 79.0537" stroke="#0B3242" stroke-width="1.9084" stroke-linecap="round" stroke-linejoin="round" />
                                <path d="M110.748 1L112.531 5.94508" stroke="#0B3242" stroke-width="1.9084" stroke-linecap="round" stroke-linejoin="round" />
                                <path d="M118.695 5.94508L120.478 1" stroke="#0B3242" stroke-width="1.9084" stroke-linecap="round" stroke-linejoin="round" />
                                <path d="M123.068 98.7193V104.929H108.162V98.7193C108.162 96.4819 111.499 94.6704 115.612 94.6704C119.725 94.6704 123.068 96.4819 123.068 98.7193Z" fill="#5E5E5E" stroke="#0B3242" stroke-width="1.9084" stroke-linecap="round" stroke-linejoin="round" />
                                <g style="mix-blend-mode:color-burn" opacity="0.15">
                                    <path d="M123.068 98.7193V104.923H108.162V102.641H119.649V96.4311C119.649 96.0052 119.528 95.5921 119.292 95.2043C121.546 95.8908 123.068 97.2065 123.068 98.7193Z" fill="black" />
                                </g>
                                <path d="M115.612 108.883C119.726 108.883 123.062 107.07 123.062 104.834C123.062 102.598 119.726 100.785 115.612 100.785C111.497 100.785 108.162 102.598 108.162 104.834C108.162 107.07 111.497 108.883 115.612 108.883Z" fill="#5E5E5E" stroke="#0B3242" stroke-width="1.9084" stroke-linecap="round" stroke-linejoin="round" />
                                <g style="mix-blend-mode:color-burn" opacity="0.15">
                                    <path d="M115.612 108.883C119.726 108.883 123.062 107.07 123.062 104.834C123.062 102.598 119.726 100.785 115.612 100.785C111.497 100.785 108.162 102.598 108.162 104.834C108.162 107.07 111.497 108.883 115.612 108.883Z" fill="black" />
                                </g>
                            </svg>
