<svg width="24" height="24" viewBox="0 0 24 24" fill="none" xmlns="http://www.w3.org/2000/svg">
    <path d="M13.1802 14.9167H11.1802V20.0001H13.1802V14.9167Z" fill="#FFBD19"/>
    <path d="M6.66667 5.58325H17.3333C18.8067 5.58325 20 6.77659 20 8.24992V14.2499C20 14.6166 19.7 14.9166 19.3333 14.9166H4.66667C4.3 14.9166 4 14.6166 4 14.2499V8.24992C4 6.77659 5.19333 5.58325 6.66667 5.58325Z" fill="#FFE39E"/>
    <path d="M6.66667 5.58325H7.88C9.35333 5.58325 10.5467 6.77659 10.5467 8.24992V14.9166H4.66667C4.3 14.9166 4 14.6166 4 14.2499V8.24992C4 6.77659 5.19333 5.58325 6.66667 5.58325Z" fill="#FFBD19"/>
    <path d="M17.2601 4H14.5868C14.4034 4 14.2534 4.15 14.2534 4.33333V8.4H14.7234V5.94667H17.2601C17.4434 5.94667 17.5934 5.79667 17.5934 5.61333V4.33333C17.5934 4.15 17.4434 4 17.2601 4Z" fill="#FFBD19"/>
    <path d="M8.30685 7.77344H6.24018C5.88856 7.77344 5.60352 8.05848 5.60352 8.4101C5.60352 8.76172 5.88856 9.04677 6.24018 9.04677H8.30685C8.65847 9.04677 8.94352 8.76172 8.94352 8.4101C8.94352 8.05848 8.65847 7.77344 8.30685 7.77344Z" fill="white"/>
    <path d="M14.5301 9.23332C14.9903 9.23332 15.3634 8.86022 15.3634 8.39998C15.3634 7.93975 14.9903 7.56665 14.5301 7.56665C14.0699 7.56665 13.6968 7.93975 13.6968 8.39998C13.6968 8.86022 14.0699 9.23332 14.5301 9.23332Z" fill="#FF5065"/>
</svg>    