<svg width="32" height="32" viewBox="0 0 32 32" fill="none"
    xmlns="http://www.w3.org/2000/svg">
    <path fill-rule="evenodd" clip-rule="evenodd"
        d="M16.0021 8.00237C14.4578 8.00236 12.9767 8.61527 11.884 9.70647C10.7915 10.7975 10.1766 12.2774 10.1742 13.8214V17.4569H7.75L7.75001 13.8189C7.75302 11.6322 8.62376 9.53621 10.171 7.99109C11.7183 6.44598 13.8155 5.57812 16.0021 5.57813C18.1888 5.57812 20.286 6.44598 21.8333 7.99109C23.3805 9.53621 24.2512 11.6322 24.2542 13.8189V13.8206V17.4569H21.83V13.8222C21.83 13.822 21.83 13.8224 21.83 13.8222C21.8277 12.2782 21.2128 10.7975 20.1202 9.70647C19.0275 8.61527 17.5464 8.00236 16.0021 8.00237Z"
        fill="#FFE39E" />
    <path fill-rule="evenodd" clip-rule="evenodd"
        d="M23.5472 19.4102C24.0699 19.8284 24.1547 20.5912 23.7365 21.114L19.4938 26.4173H15.0324C14.363 26.4173 13.8203 25.8746 13.8203 25.2052C13.8203 24.5357 14.363 23.9931 15.0324 23.9931H18.3286L21.8435 19.5995C22.2617 19.0767 23.0245 18.992 23.5472 19.4102Z"
        fill="#FFE39E" />
    <path
        d="M8.24503 13.332H9.21473C9.47191 13.332 9.71854 13.4342 9.90039 13.616C10.0822 13.7979 10.1844 14.0445 10.1844 14.3017V20.1199C10.1844 20.3771 10.0822 20.6238 9.90039 20.8056C9.71854 20.9874 9.47191 21.0896 9.21473 21.0896H8.24503C7.47349 21.0896 6.73353 20.7831 6.18797 20.2375C5.64241 19.692 5.33594 18.952 5.33594 18.1805V16.2411C5.33594 15.4696 5.64241 14.7297 6.18797 14.1841C6.73353 13.6385 7.47349 13.332 8.24503 13.332Z"
        fill="#FFC747" />
    <path
        d="M22.79 13.5664H23.7597C24.5312 13.5664 25.2712 13.8729 25.8167 14.4185C26.3623 14.964 26.6688 15.704 26.6688 16.4755V18.4149C26.6688 19.1864 26.3623 19.9264 25.8167 20.4719C25.2712 21.0175 24.5312 21.324 23.7597 21.324H22.79C22.5328 21.324 22.2862 21.2218 22.1043 21.04C21.9225 20.8581 21.8203 20.6114 21.8203 20.3543V14.5361C21.8203 14.2789 21.9225 14.0323 22.1043 13.8504C22.2862 13.6686 22.5328 13.5664 22.79 13.5664Z"
        fill="#FFC747" />
</svg>