<svg class="group-3806" width="69" height="73" viewBox="0 0 69 73" fill="none" xmlns="http://www.w3.org/2000/svg">
                      <path d="M61.4045 11.7033C61.2038 11.7033 61.0031 11.6632 60.7622 11.623V11.7033H61.4045Z" fill="#EDB52B"></path>
                      <path d="M44.9844 68.2289C44.7435 68.1888 44.5026 68.0684 44.2618 68.0684H40.9297V68.2289H44.9844Z" fill="#EDB52B"></path>
                      <g filter="url(#filter0_d_340_4785)">
                        <path d="M61.3235 12.3873C62.1264 11.1829 62.568 9.6975 62.568 8.17196C62.568 3.87636 59.0754 0.423828 54.7397 0.423828H14.9152C10.6197 0.423828 7.08686 3.91651 7.08686 8.17196C7.08686 9.6975 7.52847 11.1427 8.33138 12.3873C3.91536 13.6318 0.663574 17.6865 0.663574 22.4639V32.7412C0.663574 38.4419 5.32046 43.1389 11.0613 43.2192C13.2291 49.5221 18.4079 53.9783 25.8348 55.9454V57.7921H23.8276C19.6926 57.7921 16.3203 61.1242 16.3203 65.2191C16.3203 69.3139 19.6926 72.646 23.8276 72.646H45.7069C49.8419 72.646 53.2141 69.3139 53.2141 65.2191C53.2141 61.1242 49.8419 57.7921 45.7069 57.7921H43.6996V55.9454C51.1667 53.9783 56.3455 49.4819 58.5133 43.1791C64.2541 43.0988 68.8709 38.4419 68.8709 32.7412V22.4639C68.8709 17.6865 65.6191 13.6719 61.2432 12.4274L61.3235 12.3873Z" fill="white"></path>
                      </g>
                      <path d="M13.9919 11.7842V15.9995H11.262C7.64889 15.9995 4.71826 18.89 4.71826 22.4629V32.7403C4.71826 36.2731 7.64889 39.2037 11.262 39.2037H14.2328C15.4773 47.0322 21.74 51.4482 29.8895 52.6927V61.8459H23.8677C21.9407 61.8459 20.375 63.3715 20.375 65.2583C20.375 67.1452 21.9407 68.6707 23.8677 68.6707H45.747C47.674 68.6707 49.2397 67.1452 49.2397 65.2583C49.2397 63.3715 47.674 61.8459 45.747 61.8459H39.7252V52.6927C47.8747 51.4482 54.1776 47.0322 55.4221 39.2037H58.3527C61.9658 39.2037 64.8965 36.3132 64.8965 32.7403V22.4629C64.8965 18.9301 61.9658 15.9995 58.3527 15.9995H55.663V11.7842C57.309 11.3827 58.5133 9.89732 58.5133 8.17106C58.5133 6.12362 56.8272 4.4375 54.6995 4.4375H14.9152C12.8277 4.4375 11.1014 6.12362 11.1014 8.17106C11.1014 9.89732 12.3058 11.3827 13.9517 11.7842M13.9517 34.2658H11.2218C10.3788 34.2658 9.65617 33.5432 9.65617 32.7001V22.4228C9.65617 21.5797 10.3788 20.8571 11.2218 20.8571H13.9517V34.2257V34.2658ZM59.9586 32.7403C59.9586 33.5833 59.2359 34.3059 58.3929 34.3059H55.7031V20.8973H58.3929C59.2359 20.8973 59.9586 21.6199 59.9586 22.4629V32.7403Z" fill="#FFC747"></path>
                      <path d="M20.6542 16.8036C20.6542 16.2014 20.1724 15.7598 19.5703 15.7598C18.9681 15.7598 18.4863 16.2415 18.4863 16.8036V23.9094C18.4863 24.5115 18.9681 24.9531 19.5703 24.9531C20.1724 24.9531 20.6542 24.4714 20.6542 23.9094V16.8036Z" fill="#FFE39E"></path>
                      <path d="M20.6542 27.6024C20.6542 27.0002 20.1724 26.5586 19.5703 26.5586C18.9681 26.5586 18.4863 27.0403 18.4863 27.6024V29.2082C18.4863 29.8104 18.9681 30.252 19.5703 30.252C20.1724 30.252 20.6542 29.7703 20.6542 29.2082V27.6024Z" fill="#FFE39E"></path>
                      <defs>
                        <filter id="filter0_d_340_4785" x="-6.74793" y="-6.24653" width="85.9951" height="90.0103" filterUnits="userSpaceOnUse" color-interpolation-filters="sRGB">
                          <feFlood flood-opacity="0" result="BackgroundImageFix"></feFlood>
                          <feColorMatrix in="SourceAlpha" type="matrix" values="0 0 0 0 0 0 0 0 0 0 0 0 0 0 0 0 0 0 127 0" result="hardAlpha"></feColorMatrix>
                          <feOffset dx="1.4823" dy="2.22345"></feOffset>
                          <feGaussianBlur stdDeviation="4.4469"></feGaussianBlur>
                          <feComposite in2="hardAlpha" operator="out"></feComposite>
                          <feColorMatrix type="matrix" values="0 0 0 0 0 0 0 0 0 0 0 0 0 0 0 0 0 0 0.08 0"></feColorMatrix>
                          <feBlend mode="normal" in2="BackgroundImageFix" result="effect1_dropShadow_340_4785"></feBlend>
                          <feBlend mode="normal" in="SourceGraphic" in2="effect1_dropShadow_340_4785" result="shape"></feBlend>
                        </filter>
                      </defs>
                    </svg>