<svg class="group-4494" width="57" height="73" viewBox="0 0 57 73" fill="none" xmlns="http://www.w3.org/2000/svg">
                      <g filter="url(#filter0_d_340_5933)">
                        <path d="M48.6574 0.164062H14.8948L13.7305 1.32829L1.64665 13.372L0.482422 14.5362V64.3571C0.482422 68.7732 4.09554 72.3863 8.51158 72.3863H48.6574C53.0734 72.3863 56.6865 68.7732 56.6865 64.3571V8.19321C56.6865 3.77718 53.0734 0.164062 48.6574 0.164062Z" fill="white"></path>
                      </g>
                      <path d="M5.6088 16.6839L17.0013 5.29142H48.6574C50.2515 5.29142 51.5603 6.60024 51.5603 8.19426V64.3983C51.5603 65.9924 50.2515 67.3012 48.6574 67.3012H8.51165C6.91762 67.3012 5.6088 65.9924 5.6088 64.3983V16.6839Z" fill="white" stroke="#FFE39E" stroke-width="2.22346"></path>
                      <path d="M13.1289 45.9458C13.3095 45.8069 13.865 45.543 13.7122 45.2236C13.8789 45.2374 14.4345 44.9736 14.6011 44.9874C17.9622 44.3486 21.1289 43.2374 24.4622 42.8069C28.6983 42.0985 33.2122 42.0291 37.5317 42.4041L40.2261 42.6402C41.2539 42.7374 42.7956 43.0152 43.6011 43.7097V43.8624C43.5734 44.0152 43.3234 44.8208 43.1567 44.8069H42.99L42.49 44.5985C42.3233 44.5847 41.6428 44.3624 41.4622 44.3486L39.0456 44.1402C36.6845 43.9319 34.9484 43.9319 32.5039 44.1819L29.8372 44.8208L28.4206 45.1541C27.6845 45.5569 26.2956 45.5847 25.3928 45.9736L18.0039 47.6402C17.6289 47.918 17.2956 47.7374 16.9622 47.7097C16.7956 47.6958 15.0456 47.8486 14.865 47.8347H14.6984C14.5317 47.8069 14.0317 47.4458 13.8789 47.2791L13.1289 45.918V45.9458Z" fill="#FF5065"></path>
                      <path d="M14.3242 50.2368C14.5048 50.0979 15.0603 49.834 14.9076 49.5146C15.0742 49.5285 15.6298 49.2646 15.7964 49.2785C19.1576 48.6396 22.3242 47.5285 25.6576 47.0979C29.8937 46.3896 34.4076 46.3201 38.727 46.6951L41.4214 46.9312C42.4492 47.0285 43.9909 47.3062 44.7964 48.0007V48.1535C44.7687 48.3062 44.5187 49.1118 44.352 49.0979H44.1853L43.6853 48.8896C43.5187 48.8757 42.8381 48.6535 42.6576 48.6396L40.2409 48.4312C37.8798 48.2229 36.1437 48.2229 33.6992 48.4729L31.0326 49.1118L29.6159 49.4451C28.8798 49.8479 27.4909 49.8757 26.5881 50.2646L19.1992 51.9312C18.8242 52.209 18.4909 52.0285 18.1576 52.0007C17.9909 51.9868 16.2409 52.1396 16.0603 52.1257H15.8937C15.727 52.0979 15.227 51.7368 15.0742 51.5701L14.3242 50.209V50.2368Z" fill="#FF5065"></path>
                      <path d="M18.1701 31.5106C18.4285 31.4431 18.4285 31.1061 18.0915 31.1622C17.6982 31.2521 17.2263 31.3083 16.8106 31.342C16.114 31.3982 15.6533 30.9488 15.4735 30.1285C15.2825 29.0274 15.878 28.3645 16.6196 28.0949C17.2151 27.8926 18.0915 27.8027 18.8892 27.8027C19.9566 27.8027 20.7993 28.2971 20.8555 29.342C20.9791 31.8027 20.9678 35.5442 20.8555 38.0048C20.7993 38.9262 19.9004 39.3194 18.9566 39.3194C18.0128 39.3194 17.1252 38.9149 17.069 38.0048C16.9791 36.1285 16.9791 33.3645 17.069 31.7353C17.4173 31.6791 17.878 31.6004 18.1701 31.5106Z" fill="#FF5065"></path>
                      <path d="M21.8447 33.5331C21.8447 30.2859 23.4514 27.668 26.6537 27.668C29.8559 27.668 31.4513 30.2859 31.4513 33.5331C31.4513 36.7802 29.8559 39.4319 26.6537 39.4319C23.4514 39.4319 21.8447 36.8027 21.8447 33.5331ZM26.9008 35.3757C26.6087 34.769 26.4964 34.0948 26.4964 33.5331C26.4964 32.9713 26.6087 32.3084 26.9008 31.7129C27.1031 31.2971 26.6199 31.0499 26.4177 31.432C26.0919 32.0612 25.9458 32.8252 25.9458 33.5331C25.9458 34.2409 26.0919 35.0162 26.4177 35.6454C26.6199 36.0162 27.1031 35.7802 26.9008 35.3757Z" fill="#FF5065"></path>
                      <path d="M32.1133 33.5331C32.1133 30.2859 33.72 27.668 36.9222 27.668C40.1244 27.668 41.7199 30.2859 41.7199 33.5331C41.7199 36.7802 40.1244 39.4319 36.9222 39.4319C33.72 39.4319 32.1133 36.8027 32.1133 33.5331ZM37.1806 35.3757C36.8885 34.769 36.7761 34.0948 36.7761 33.5331C36.7761 32.9713 36.8885 32.3084 37.1806 31.7129C37.3829 31.2971 36.8997 31.0499 36.6975 31.432C36.3717 32.0612 36.2256 32.8252 36.2256 33.5331C36.2256 34.2409 36.3717 35.0162 36.6975 35.6454C36.8997 36.0162 37.3829 35.7802 37.1806 35.3757Z" fill="#FF5065"></path>
                      <path d="M5.39172 15.8528L16.1702 5.07434V12.2088C16.1702 14.2122 14.5296 15.8528 12.5262 15.8528H5.39172Z" fill="#FFC747" stroke="#FFC747" stroke-width="0.741153"></path>
                      <defs>
                        <filter id="filter0_d_340_5933" x="-6.9291" y="-6.50631" width="73.9918" height="90.0103" filterUnits="userSpaceOnUse" color-interpolation-filters="sRGB">
                          <feFlood flood-opacity="0" result="BackgroundImageFix"></feFlood>
                          <feColorMatrix in="SourceAlpha" type="matrix" values="0 0 0 0 0 0 0 0 0 0 0 0 0 0 0 0 0 0 127 0" result="hardAlpha"></feColorMatrix>
                          <feOffset dx="1.48231" dy="2.22346"></feOffset>
                          <feGaussianBlur stdDeviation="4.44692"></feGaussianBlur>
                          <feComposite in2="hardAlpha" operator="out"></feComposite>
                          <feColorMatrix type="matrix" values="0 0 0 0 0 0 0 0 0 0 0 0 0 0 0 0 0 0 0.08 0"></feColorMatrix>
                          <feBlend mode="normal" in2="BackgroundImageFix" result="effect1_dropShadow_340_5933"></feBlend>
                          <feBlend mode="normal" in="SourceGraphic" in2="effect1_dropShadow_340_5933" result="shape"></feBlend>
                        </filter>
                      </defs>
                    </svg>