<svg width="75" height="91" viewBox="0 0 75 91" fill="none" xmlns="http://www.w3.org/2000/svg">
<g filter="url(#filter0_d_0_1)">
<path d="M58.9851 12.1779C57.7413 9.40941 54.9327 7.44336 51.6827 7.44336H23.5963C22.5129 7.44336 21.5098 7.88472 20.7475 8.60694L8.71046 20.644C7.94811 21.4063 7.54688 22.4094 7.54688 23.4927V67.6285C7.54688 70.8785 9.4728 73.6872 12.2814 74.931C13.5253 77.6995 16.3339 79.6656 19.5839 79.6656H55.695C60.1086 79.6656 63.7197 76.0545 63.7197 71.6409V19.4804C63.7197 16.2304 61.7938 13.4218 58.9851 12.1779Z" fill="white"/>
</g>
<path d="M27.6073 15.4668H55.6938C57.9006 15.4668 59.7061 17.2724 59.7061 19.4791V71.6396C59.7061 73.8464 57.9006 75.652 55.6938 75.652H19.5827C17.3759 75.652 15.5703 73.8464 15.5703 71.6396V27.5038L27.6073 15.4668Z" fill="#FFC747"/>
<path d="M12.6697 23.9524L24.0559 12.5662H51.6821C53.2752 12.5662 54.5833 13.8743 54.5833 15.4674V67.6279C54.5833 69.2211 53.2752 70.5292 51.6821 70.5292H15.5709C13.9778 70.5292 12.6697 69.2211 12.6697 67.6279V23.9524Z" fill="white" stroke="#FFE39E" stroke-width="2.22222"/>
<path d="M12.4527 23.1217L23.2253 12.3492V19.4798C23.2253 21.482 21.5855 23.1217 19.5833 23.1217H12.4527Z" fill="#FFC747" stroke="#FFC747" stroke-width="0.740741"/>
<rect x="23.5967" y="32.3203" width="20.0617" height="3.20988" rx="1.60494" fill="#FFE39E"/>
<rect x="23.5967" y="41.9512" width="20.0617" height="3.20988" rx="1.60494" fill="#FFE39E"/>
<rect x="23.5967" y="51.5801" width="20.0617" height="3.20988" rx="1.60494" fill="#FFE39E"/>
<defs>
<filter id="filter0_d_0_1" x="0.139467" y="0.776692" width="73.9506" height="90.0004" filterUnits="userSpaceOnUse" color-interpolation-filters="sRGB">
<feFlood flood-opacity="0" result="BackgroundImageFix"/>
<feColorMatrix in="SourceAlpha" type="matrix" values="0 0 0 0 0 0 0 0 0 0 0 0 0 0 0 0 0 0 127 0" result="hardAlpha"/>
<feOffset dx="1.48148" dy="2.22222"/>
<feGaussianBlur stdDeviation="4.44444"/>
<feComposite in2="hardAlpha" operator="out"/>
<feColorMatrix type="matrix" values="0 0 0 0 0 0 0 0 0 0 0 0 0 0 0 0 0 0 0.08 0"/>
<feBlend mode="normal" in2="BackgroundImageFix" result="effect1_dropShadow_0_1"/>
<feBlend mode="normal" in="SourceGraphic" in2="effect1_dropShadow_0_1" result="shape"/>
</filter>
</defs>
</svg>
