<svg width="76" height="74" viewBox="0 0 76 74" fill="none" xmlns="http://www.w3.org/2000/svg">
<g filter="url(#filter0_d_1792_13283)">
<path d="M55.5087 11.5571H50.5578C50.2177 10.0916 48.9275 9 47.3772 9H44.8467C43.2964 9 42.0062 10.0916 41.6661 11.5571H30.2839C29.9538 10.0916 28.6536 9 27.1033 9H24.6228C23.0725 9 21.7823 10.0916 21.4422 11.5571H16.4912C12.9206 11.5571 10 14.4983 10 18.1267V51.8745C10 55.8061 13.1606 59 17.0514 59H54.9486C58.8394 59 62 55.8061 62 51.8745V18.1267C62 14.5084 59.0794 11.5571 55.4987 11.5571H55.5087Z" fill="white"/>
</g>
<path d="M54.9583 13.5781H17.051C14.2604 13.5781 12 15.8623 12 18.6822V51.8741C12 54.694 14.2604 56.9782 17.051 56.9782H54.9483C57.7388 56.9782 59.9992 54.694 59.9992 51.8741V18.6822C59.9992 15.8623 57.7388 13.5781 54.9483 13.5781H54.9583Z" fill="#F9F9F9"/>
<path d="M12 18.1263C12 15.6097 14.0104 13.5781 16.5009 13.5781H55.5084C57.9988 13.5781 60.0092 15.6097 60.0092 18.1263V24.1906H12V18.1263Z" fill="#FF5065"/>
<path d="M27.113 11.0234H24.633C23.933 11.0234 23.373 11.5995 23.373 12.2969V17.401C23.373 18.1085 23.943 18.6745 24.633 18.6745H27.113C27.813 18.6745 28.373 18.0984 28.373 17.401V12.2969C28.373 11.5894 27.803 11.0234 27.113 11.0234Z" fill="#FFB3BC"/>
<path d="M47.3759 11.0234H44.8459C44.1459 11.0234 43.5859 11.5995 43.5859 12.2969V17.401C43.5859 18.1085 44.1559 18.6745 44.8459 18.6745H47.3759C48.0759 18.6745 48.6359 18.0984 48.6359 17.401V12.2969C48.6359 11.5894 48.0659 11.0234 47.3759 11.0234Z" fill="#FFB3BC"/>
<path d="M29.6024 35.7578C30.7326 35.7578 31.8228 36.2126 32.623 37.0212C33.4231 37.8298 33.8732 38.9315 33.8732 40.0736V45.4607C33.8732 45.7437 33.7632 46.0166 33.5631 46.2187C33.3631 46.4208 33.0931 46.532 32.813 46.532H26.4118C26.1317 46.532 25.8617 46.4208 25.6616 46.2187C25.4616 46.0166 25.3516 45.7437 25.3516 45.4607V40.0736C25.3516 38.9315 25.8016 37.8298 26.6018 37.0212C27.402 36.2126 28.4922 35.7578 29.6224 35.7578H29.6024Z" fill="#FF5065"/>
<path d="M29.6022 35.1316C31.0724 35.1316 32.2727 33.9288 32.2727 32.433C32.2727 30.9371 31.0824 29.7344 29.6022 29.7344C28.1219 29.7344 26.9316 30.9371 26.9316 32.433C26.9316 33.9288 28.1219 35.1316 29.6022 35.1316Z" fill="#FF5065"/>
<path d="M45.606 46.5398H39.2047C38.9247 46.5398 38.6546 46.4287 38.4546 46.2265C38.2546 46.0244 38.1445 45.7515 38.1445 45.4685V40.0814C38.1445 38.9393 38.5946 37.8376 39.3948 37.029C40.1949 36.2204 41.2851 35.7656 42.4154 35.7656C43.5456 35.7656 44.6358 36.2204 45.4359 37.029C46.2361 37.8376 46.6862 38.9393 46.6862 40.0814V45.4685C46.6862 45.7515 46.5762 46.0244 46.3761 46.2265C46.1761 46.4287 45.906 46.5398 45.626 46.5398H45.606Z" fill="#1ACEFF"/>
<path d="M42.4049 35.1316C43.8752 35.1316 45.0754 33.9288 45.0754 32.433C45.0754 30.9371 43.8852 29.7344 42.4049 29.7344C40.9246 29.7344 39.7344 30.9371 39.7344 32.433C39.7344 33.9288 40.9246 35.1316 42.4049 35.1316Z" fill="#1ACEFF"/>
<path d="M35.0833 39.4922H36.9337C37.93 39.4922 38.8923 39.8933 39.5989 40.6073C40.3056 41.3214 40.7045 42.2964 40.7045 43.3079V48.695C40.7045 48.8486 40.6449 48.9944 40.539 49.1014C40.4334 49.2081 40.2916 49.2664 40.1443 49.2664H31.8727C31.7254 49.2664 31.5836 49.2081 31.478 49.1014C31.3721 48.9945 31.3125 48.8486 31.3125 48.695V43.3079C31.3125 42.2964 31.7114 41.3214 32.4181 40.6073C33.1247 39.8933 34.087 39.4922 35.0833 39.4922Z" fill="#FFC747" stroke="#FFC747"/>
<path d="M38.1731 35.6674C38.1731 36.8908 37.193 37.866 36.0025 37.866C34.8033 37.866 33.832 36.892 33.832 35.6674C33.832 34.4427 34.8033 33.4688 36.0025 33.4688C37.2018 33.4688 38.1731 34.4427 38.1731 35.6674Z" fill="#FFC747" stroke="#FFC747"/>
<defs>
<filter id="filter0_d_1792_13283" x="0" y="0" width="76" height="74" filterUnits="userSpaceOnUse" color-interpolation-filters="sRGB">
<feFlood flood-opacity="0" result="BackgroundImageFix"/>
<feColorMatrix in="SourceAlpha" type="matrix" values="0 0 0 0 0 0 0 0 0 0 0 0 0 0 0 0 0 0 127 0" result="hardAlpha"/>
<feOffset dx="2" dy="3"/>
<feGaussianBlur stdDeviation="6"/>
<feComposite in2="hardAlpha" operator="out"/>
<feColorMatrix type="matrix" values="0 0 0 0 0 0 0 0 0 0 0 0 0 0 0 0 0 0 0.08 0"/>
<feBlend mode="normal" in2="BackgroundImageFix" result="effect1_dropShadow_1792_13283"/>
<feBlend mode="normal" in="SourceGraphic" in2="effect1_dropShadow_1792_13283" result="shape"/>
</filter>
</defs>
</svg>
