<svg width="35" height="34" viewBox="0 0 35 34" fill="none" xmlns="http://www.w3.org/2000/svg">
 <g filter="url(#filter0_d_2002_43331)">
  <path d="M24.4985 12.1194L24.0652 11.272L23.5645 10.2801C23.3623 9.87569 22.9482 9.62532 22.4956 9.62532C22.2741 9.62532 22.0526 9.69272 21.8601 9.80828L20.9164 10.3957L20.8778 10.4149V9.35569C20.8778 8.29643 20.0112 7.42976 18.9519 7.42976H18.8942C18.7208 6.87124 18.2105 6.4668 17.5942 6.4668H17.4208C16.8142 6.4668 16.2942 6.87124 16.1208 7.42976H15.5238C15.3505 6.87124 14.8401 6.4668 14.2238 6.4668H14.0505C13.4438 6.4668 12.9238 6.87124 12.7505 7.42976H12.1535C11.9801 6.87124 11.4698 6.4668 10.8535 6.4668H10.6802C10.0735 6.4668 9.5535 6.87124 9.38017 7.42976H9.32239C8.26314 7.42976 7.39648 8.29643 7.39648 9.35569V21.8742C7.39648 22.9335 8.26314 23.8001 9.32239 23.8001H18.9519C19.1156 23.8001 19.2793 23.7809 19.443 23.7327C19.6838 23.7712 19.9341 23.8001 20.1653 23.8001C21.2245 23.8001 21.966 23.3861 22.1489 22.6927L22.4475 21.8068C22.4763 21.749 22.5052 21.6816 22.5245 21.6046V21.5853L22.6978 20.9305C22.6978 20.9305 22.7267 20.8438 22.7363 20.7957L24.5852 13.9009C24.5852 13.9009 24.6045 13.8431 24.6045 13.8046L24.6237 13.7564C24.7971 13.2075 24.7489 12.6298 24.4889 12.1194H24.4985Z" fill="white"/>
  </g>
  <path d="M18.9519 8.39258H9.32233C8.7905 8.39258 8.35938 8.82371 8.35938 9.35554V21.8741C8.35938 22.4059 8.7905 22.837 9.32233 22.837H18.9519C19.4837 22.837 19.9148 22.4059 19.9148 21.8741V9.35554C19.9148 8.82371 19.4837 8.39258 18.9519 8.39258Z" fill="#FFE39E"/>
  <path d="M18.4482 9.93359H9.82584C9.54772 9.93359 9.32227 10.1609 9.32227 10.4413V21.5592C9.32227 21.8396 9.54772 22.0669 9.82584 22.0669H18.4482C18.7263 22.0669 18.9518 21.8396 18.9518 21.5592V10.4413C18.9518 10.1609 18.7263 9.93359 18.4482 9.93359Z" fill="white"/>
  <path d="M10.68 7.76302H10.8533C10.8873 7.76302 10.9148 7.79054 10.9148 7.8245V8.9608C10.9148 8.99476 10.8872 9.02228 10.8533 9.02228H10.68C10.646 9.02228 10.6185 8.99476 10.6185 8.9608V7.8245C10.6185 7.79054 10.646 7.76302 10.68 7.76302Z" fill="#FFC747" stroke="#FFC747" stroke-width="0.666664"/>
  <path d="M14.0511 7.76302H14.2244C14.2583 7.76302 14.2859 7.79054 14.2859 7.8245V8.9608C14.2859 8.99476 14.2583 9.02228 14.2244 9.02228H14.0511C14.0171 9.02228 13.9896 8.99476 13.9896 8.9608V7.8245C13.9896 7.79054 14.0171 7.76302 14.0511 7.76302Z" fill="#FFC747" stroke="#FFC747" stroke-width="0.666664"/>
  <path d="M17.4222 7.76302H17.5955C17.6294 7.76302 17.657 7.79054 17.657 7.8245V8.9608C17.657 8.99476 17.6294 9.02228 17.5955 9.02228H17.4222C17.3882 9.02228 17.3607 8.99476 17.3607 8.9608V7.8245C17.3607 7.79054 17.3882 7.76302 17.4222 7.76302Z" fill="#FFC747" stroke="#FFC747" stroke-width="0.666664"/>
  <path d="M21.6478 21.1718L23.6604 13.6511C23.7374 13.3718 22.9767 12.9289 21.9752 12.6592C20.9737 12.3896 20.0974 12.3992 20.0204 12.6785L18.0078 20.1992L21.6478 21.1718Z" fill="#FFD368"/>
  <path d="M23.2092 11.7063C22.9781 11.8315 22.6122 11.8604 22.2366 11.7545C21.8611 11.6485 21.5625 11.4367 21.4277 11.2056L22.3714 10.6182C22.487 10.5411 22.6411 10.5893 22.7085 10.7145L23.2092 11.7063Z" fill="#222222"/>
  <path d="M20.041 12.6304L20.0795 12.4571C20.1566 12.1489 20.3395 11.8889 20.6188 11.7156L21.4277 11.2148C21.5625 11.446 21.8514 11.6578 22.2366 11.7637C22.6217 11.8697 22.978 11.8408 23.2091 11.7156L23.6425 12.563C23.7869 12.8519 23.8158 13.1697 23.7195 13.4778L23.6617 13.6511C23.2284 13.8148 22.5062 13.8148 21.7262 13.5934C20.9462 13.3719 20.3299 13.006 20.041 12.64V12.6304Z" fill="#FFF6E0"/>
  <path d="M17.7483 21.4895C17.6617 21.8265 18.2779 22.4428 19.289 22.7124C20.3002 22.982 21.1379 22.7606 21.2246 22.4332V22.4139L21.6483 21.162L18.0083 20.1895L17.758 21.4702C17.758 21.4702 17.758 21.4895 17.758 21.4991L17.7483 21.4895Z" fill="#FFC0BC"/>
  <path d="M17.9698 20.3531C17.8831 20.6901 18.6246 21.1812 19.6261 21.4412C20.6275 21.7012 21.5134 21.6627 21.6001 21.3353V21.316L21.7831 20.6035C21.6964 20.9309 20.8105 20.979 19.809 20.7094C18.8075 20.4397 18.0564 19.9583 18.1527 19.6309L17.9698 20.3338C17.9698 20.3338 17.9698 20.3531 17.9698 20.3627V20.3531Z" fill="#FF5065"/>
  <path d="M11.537 11.0889C10.8457 11.0889 10.2852 11.6494 10.2852 12.3407C10.2852 13.032 10.8457 13.5926 11.537 13.5926C12.2283 13.5926 12.7888 13.032 12.7888 12.3407C12.7888 11.6494 12.2283 11.0889 11.537 11.0889ZM11.537 13.0881C11.1259 13.0881 10.7896 12.7518 10.7896 12.3407C10.7896 11.9297 11.1259 11.5933 11.537 11.5933C11.948 11.5933 12.2844 11.9297 12.2844 12.3407C12.2844 12.7518 11.948 13.0881 11.537 13.0881Z" fill="#FFB3BC"/>
  <path d="M11.537 18.4072C10.8457 18.4072 10.2852 18.9678 10.2852 19.6591C10.2852 20.3504 10.8457 20.9109 11.537 20.9109C12.2283 20.9109 12.7888 20.3504 12.7888 19.6591C12.7888 18.9678 12.2283 18.4072 11.537 18.4072ZM11.537 20.4065C11.1259 20.4065 10.7896 20.0701 10.7896 19.6591C10.7896 19.248 11.1259 18.9117 11.537 18.9117C11.948 18.9117 12.2844 19.248 12.2844 19.6591C12.2844 20.0701 11.948 20.4065 11.537 20.4065Z" fill="#FFB3BC"/>
  <path d="M12.7888 15.1606L12.3762 14.748L11.5417 15.5826L10.7071 14.748L10.2852 15.1606L11.1197 15.9952L10.2852 16.8392L10.7071 17.2518L11.5417 16.4172L12.3762 17.2518L12.7888 16.8392L11.9543 15.9952L12.7888 15.1606Z" fill="#FFB3BC"/>
  <defs>
  <filter id="filter0_d_2002_43331" x="0.729848" y="0.466824" width="33.33" height="33.3329" filterUnits="userSpaceOnUse" color-interpolation-filters="sRGB">
   <feFlood flood-opacity="0" result="BackgroundImageFix"/>
   <feColorMatrix in="SourceAlpha" type="matrix" values="0 0 0 0 0 0 0 0 0 0 0 0 0 0 0 0 0 0 127 0" result="hardAlpha"/>
   <feOffset dx="1.33333" dy="1.99999"/>
   <feGaussianBlur stdDeviation="3.99998"/>
   <feComposite in2="hardAlpha" operator="out"/>
   <feColorMatrix type="matrix" values="0 0 0 0 0 0 0 0 0 0 0 0 0 0 0 0 0 0 0.08 0"/>
   <feBlend mode="normal" in2="BackgroundImageFix" result="effect1_dropShadow_2002_43331"/>
   <feBlend mode="normal" in="SourceGraphic" in2="effect1_dropShadow_2002_43331" result="shape"/>
   </filter>
   </defs>
   </svg>

