<svg width="244" height="221" viewBox="0 0 244 221" fill="none" xmlns="http://www.w3.org/2000/svg">
<path d="M103.037 118.648C103.037 118.648 108.902 119.687 114.496 117.267C121.147 114.387 122.596 134.927 122.477 135.528C122.477 135.528 104.464 135.831 96.0218 133.243C86.3047 130.277 83.4346 117.035 89.5655 115.871C95.6963 114.707 101.952 113.949 103.037 118.653V118.648Z" fill="#FFE3AB" stroke="#0B3242" stroke-width="1.62561" stroke-linecap="round" stroke-linejoin="round"/>
<g style="mix-blend-mode:color-burn" opacity="0.15">
<path d="M96.0222 133.244C104.464 135.837 122.477 135.529 122.477 135.529C122.504 135.399 122.455 134.3 122.293 132.692C120.372 132.719 103.965 132.844 96.0222 130.402C90.4285 128.691 87.1027 123.575 86.4625 119.32C85.6432 123.781 89.0884 131.128 96.0222 133.244Z" fill="black"/>
</g>
<g style="mix-blend-mode:multiply" opacity="0.15">
<path d="M166.874 205.672C201.117 205.672 228.877 202.167 228.877 197.844C228.877 193.52 201.117 190.016 166.874 190.016C132.631 190.016 104.871 193.52 104.871 197.844C104.871 202.167 132.631 205.672 166.874 205.672Z" fill="black"/>
</g>
<path d="M208.992 46.9733C208.992 46.9733 214.884 61.7581 226.158 72.2011C237.433 82.6442 250.448 117.66 237.791 147.663C225.133 177.66 203.393 183.669 192.976 183.55C184.214 183.452 148.194 172.051 148.156 170.703C148.118 169.355 165.935 40.7422 165.935 40.7422L208.992 46.9733Z" fill="#86DBD4" stroke="#0B3242" stroke-width="1.62561" stroke-linecap="round" stroke-linejoin="round"/>
<path d="M198.961 182.222C202.601 180.711 205.618 178.021 207.75 174.713C216.268 161.509 222.361 139.594 210.881 117.783C197.089 91.5911 208.976 56.0015 208.992 46.966C209.009 37.9306 205.932 28.8139 193.193 27.1248C180.454 25.4304 167.352 28.7273 167.352 28.7273C129.064 57.7068 122.841 145.197 132.042 173.776C137.793 191.631 192.336 183.516 192.336 183.516C194.62 183.559 196.823 183.099 198.961 182.216V182.222Z" fill="#66AAA3" stroke="#0B3242" stroke-width="1.62561" stroke-linecap="round" stroke-linejoin="round"/>
<path opacity="0.3" d="M186.026 32.8299C186.026 32.8299 199.476 31.601 200.827 46.31C200.827 46.31 200.111 58.4421 197.268 62.9517C194.425 67.4613 191.788 99.5536 194.788 106.646C197.789 113.738 184.095 112.341 184.095 112.341L175.826 89.2514L186.026 32.8353V32.8299Z" fill="black"/>
<g style="mix-blend-mode:color-burn" opacity="0.15">
<path d="M226.159 72.1976C225.86 71.9215 225.567 71.64 225.28 71.3584C234.872 85.8292 242.853 115.188 232.013 140.87C229.208 147.518 225.953 152.986 222.48 157.474C220.766 159.683 217.218 158.08 217.804 155.346C220.212 144.162 219.594 131.169 212.774 118.209C200.252 94.4208 208.9 62.8914 210.609 50.5266C209.535 48.3286 208.993 46.9643 208.993 46.9643C209.003 43.4563 208.542 39.9428 207.229 36.8516C207.501 38.5298 207.609 40.2622 207.604 41.9892C207.604 43.1477 207.403 44.7393 207.094 46.6937C205.206 58.4684 196.725 83.9561 203.714 105.356C204.614 108.112 205.732 110.813 207.104 113.423C209.475 117.927 211.098 122.442 212.107 126.876C215.964 143.913 213.116 159.261 206.361 169.736C205.678 170.797 204.896 171.799 204.039 172.714C197.474 175.848 191.414 176.806 187.204 176.758C180.736 176.682 159.393 170.445 148.661 166.65C148.335 169.124 148.156 170.564 148.162 170.7C148.183 171.561 162.935 176.536 175.854 180.033C161.753 180.905 141.711 180.656 133.692 173.369C133.768 173.65 133.86 173.932 133.947 174.208C135.531 179.134 140.843 182.085 147.695 183.779C165.659 188.202 194.241 183.947 194.241 183.947C196.525 183.99 198.727 183.536 200.865 182.648C200.876 182.648 200.887 182.637 200.898 182.631C212.166 180.06 227.808 171.328 237.797 147.654C250.454 117.656 237.438 82.6406 226.164 72.1922L226.159 72.1976Z" fill="black"/>
</g>
<path d="M194.892 35.5859C198.082 37.9842 202.195 43.0893 200.399 52.9639C197.594 68.3875 187.551 98.0004 198.25 114.837" stroke="#0B3242" stroke-width="1.62561" stroke-linecap="round" stroke-linejoin="round"/>
<path d="M190.649 33.3879C190.649 33.3879 182.006 31.2495 179.516 35.2177" stroke="#0B3242" stroke-width="1.62561" stroke-linecap="round" stroke-linejoin="round"/>
<path d="M205.628 68.6094L221.84 79.4043L228.595 114.296L216.447 134.126" stroke="#0B3242" stroke-width="1.62561" stroke-linecap="round" stroke-linejoin="round"/>
<path d="M228.595 114.289L242.864 125.344" stroke="#0B3242" stroke-width="1.62561" stroke-linecap="round" stroke-linejoin="round"/>
<path d="M221.84 79.4033L226.159 72.2031" stroke="#0B3242" stroke-width="1.62561" stroke-linecap="round" stroke-linejoin="round"/>
<path d="M214.787 159.312L221.498 171.261" stroke="#0B3242" stroke-width="1.62561" stroke-linecap="round" stroke-linejoin="round"/>
<path d="M115.326 107.507C115.326 107.507 105.593 147.346 117.014 161.421C130.328 177.825 126.758 107.929 126.758 107.929C126.758 107.929 119.33 97.3234 115.321 107.501L115.326 107.507Z" fill="#66AAA3" stroke="#0B3242" stroke-width="1.62561" stroke-linecap="round" stroke-linejoin="round"/>
<path d="M126.997 184.578C126.997 184.578 121.262 186.186 120.795 191.535C120.264 197.658 129.78 198.291 129.78 198.291C129.78 198.291 140.447 199.098 148.162 197.306C149.317 197.035 150.278 196.223 150.695 195.113C151.455 193.094 152.508 189.147 152.719 182.44C153.061 171.71 125.722 169.609 125.722 169.609C125.722 169.609 125.597 180.599 126.991 184.573" fill="#FFE3AB"/>
<path d="M126.997 184.578C126.997 184.578 121.262 186.186 120.795 191.535C120.264 197.658 129.78 198.291 129.78 198.291C129.78 198.291 140.447 199.098 148.162 197.306C149.317 197.035 150.278 196.223 150.695 195.113C151.455 193.094 152.508 189.147 152.719 182.44C153.061 171.71 125.722 169.609 125.722 169.609C125.722 169.609 125.597 180.599 126.991 184.573" stroke="#0B3242" stroke-width="1.62561" stroke-linecap="round" stroke-linejoin="round"/>
<path d="M165.274 186.901C165.274 186.901 158.498 187.94 159.035 194.88C159.534 201.285 169.077 201.03 169.077 201.03C169.077 201.03 180.265 201.177 188.202 198.8C189.39 198.443 190.345 197.533 190.703 196.347C191.365 194.193 192.76 181.476 192.543 174.465C192.195 163.243 162.963 171.363 162.963 171.363C162.963 171.363 163.554 182.84 165.269 186.901" fill="#FFE3AB"/>
<path d="M165.274 186.901C165.274 186.901 158.498 187.94 159.035 194.88C159.534 201.285 169.077 201.03 169.077 201.03C169.077 201.03 180.265 201.177 188.202 198.8C189.39 198.443 190.345 197.533 190.703 196.347C191.365 194.193 192.76 181.476 192.543 174.465C192.195 163.243 162.963 171.363 162.963 171.363C162.963 171.363 163.554 182.84 165.269 186.901" stroke="#0B3242" stroke-width="1.62561" stroke-linecap="round" stroke-linejoin="round"/>
<g style="mix-blend-mode:color-burn" opacity="0.15">
<path d="M150.701 195.123C150.283 196.233 149.322 197.045 148.161 197.316C140.446 199.108 129.78 198.301 129.78 198.301C129.78 198.301 123.578 197.879 121.403 193.802C125.315 195.432 125.966 195.421 125.966 195.421C125.966 195.421 136.638 196.228 144.347 194.436C145.503 194.17 146.463 193.353 146.881 192.243C147.641 190.224 148.693 186.277 148.905 179.57C148.959 177.821 148.281 176.305 147.103 174.984C150.462 176.825 152.822 179.256 152.724 182.455C152.507 189.157 151.46 193.109 150.701 195.129V195.123Z" fill="black"/>
</g>
<g style="mix-blend-mode:color-burn" opacity="0.15">
<path d="M190.708 196.348C190.344 197.533 189.39 198.443 188.201 198.8C180.269 201.177 169.082 201.031 169.082 201.031C169.082 201.031 161.649 201.323 159.604 196.835C163.852 198.492 165.3 198.096 165.3 198.096C165.3 198.096 176.488 198.243 184.42 195.866C185.613 195.514 186.557 194.599 186.921 193.414C187.583 191.259 188.983 178.542 188.76 171.531C188.733 170.725 188.559 170.016 188.25 169.398C190.778 170.254 192.455 171.818 192.536 174.46C192.753 181.476 191.359 194.188 190.697 196.342L190.708 196.348Z" fill="black"/>
</g>
<path d="M196.649 173.506C195.303 174.595 193.784 175.553 192.075 176.381C191.506 176.657 190.941 176.922 190.377 177.171C173.439 184.74 157.515 182.677 143.745 180.923C129.514 179.115 117.865 171.714 114.485 150.444C111.105 129.174 119.628 113.29 119.628 113.29C131.293 97.0488 155.99 98.386 180.096 102.3C184.55 103.026 188.641 105.148 192.124 107.681C194.039 109.067 195.77 110.583 197.278 112.056C197.322 112.093 197.36 112.137 197.403 112.175C201.597 116.289 204.196 121.741 204.858 127.571C207.109 147.364 207.728 164.595 196.654 173.506H196.649Z" fill="#B1DDB6" stroke="#0B3242" stroke-width="1.62561" stroke-linecap="round" stroke-linejoin="round"/>
<g style="mix-blend-mode:color-burn" opacity="0.15">
<path d="M197.376 172.94C196.031 174.028 194.506 174.987 192.803 175.815C192.233 176.091 191.663 176.356 191.105 176.6C174.161 184.174 158.242 182.106 144.467 180.352C135.938 179.269 128.337 176.178 122.89 169.291C127.707 173.065 133.551 174.981 139.899 175.788C153.674 177.542 169.598 179.605 186.536 172.036C187.101 171.782 187.665 171.522 188.234 171.246C189.938 170.418 191.463 169.459 192.808 168.371C203.882 159.466 203.263 142.234 201.006 122.441C200.458 117.591 198.559 113 195.526 109.227C196.405 109.974 197.225 110.732 197.995 111.479C198.033 111.522 198.076 111.56 198.114 111.603C202.308 115.718 204.912 121.175 205.574 127C207.826 146.792 208.45 164.029 197.376 172.929V172.94Z" fill="black"/>
</g>
<path d="M197.392 112.172C197.392 112.172 191.446 108.15 188.332 115.247C184.523 123.914 181.159 149.131 199.145 170.835C200.398 172.719 194.343 176.73 193.09 174.847C188.484 168.816 174.296 151.438 179.266 120.753C179.7 118.057 182.271 111.366 183.98 109.233C185.69 107.1 187.285 105.54 190.898 105.367C190.898 105.367 200.333 107.489 197.403 112.172" fill="#66AAA3"/>
<path d="M197.392 112.172C197.392 112.172 191.446 108.15 188.332 115.247C184.523 123.914 181.159 149.131 199.145 170.835C200.398 172.719 194.343 176.73 193.09 174.847C188.484 168.816 174.296 151.438 179.266 120.753C179.7 118.057 182.271 111.366 183.98 109.233C185.69 107.1 187.285 105.54 190.898 105.367C190.898 105.367 200.333 107.489 197.403 112.172" stroke="#0B3242" stroke-width="1.62561" stroke-linecap="round" stroke-linejoin="round"/>
<path d="M119.33 102.667C119.33 102.667 115.5 113.684 130.176 119.238C144.847 124.798 169.164 120.18 180.253 110.024C180.253 110.024 191.56 101.562 184.323 89.295C175.137 73.7252 120.573 72.7507 119.33 102.667Z" fill="#66AAA3" stroke="#0B3242" stroke-width="1.62561" stroke-linecap="round" stroke-linejoin="round"/>
<g style="mix-blend-mode:color-burn" opacity="0.15">
<path d="M180.248 110.021C171.892 117.676 156.017 122.185 142.421 121.557C154.683 121.01 167.747 116.717 175.061 110.021C175.061 110.021 186.368 101.559 179.13 89.2862C175.446 83.0442 164.459 79.1463 152.545 78.6483C166.337 78.069 180.106 82.1401 184.317 89.2862C191.554 101.559 180.248 110.021 180.248 110.021Z" fill="black"/>
</g>
<path d="M109.049 51.4848C109.049 51.4848 110.259 16.1875 155.405 18.759C155.405 18.759 182.152 19.6739 193.953 44.3441C197.582 51.9395 198.966 60.4065 198.217 68.7923C197.268 79.3707 193.719 96.0503 181.143 105.01C161.801 118.793 141.922 117.987 132.938 116.265C123.286 114.414 91.899 99.3905 101.67 63.0971C101.67 63.0971 103.954 56.7252 109.049 51.4848Z" fill="#FFE3AB" stroke="#0B3242" stroke-width="1.62561" stroke-linecap="round" stroke-linejoin="round"/>
<g style="mix-blend-mode:color-burn" opacity="0.15">
<path d="M198.217 68.7978C197.268 79.3707 193.714 96.0557 181.143 105.015C161.801 118.799 141.922 117.992 132.938 116.27C128.565 115.431 119.743 111.891 112.293 104.902C117.893 108.605 123.367 110.613 126.519 111.219C135.509 112.941 155.383 113.753 174.725 99.9644C187.296 91.0048 190.849 74.3198 191.799 63.7468C192.548 55.3664 191.164 46.894 187.534 39.2986C185.006 34.0094 181.789 29.8138 178.295 26.4844C184.154 30.274 189.927 35.9259 193.953 44.355C197.582 51.9504 198.966 60.4174 198.217 68.8032V68.7978Z" fill="black"/>
</g>
<path d="M115.684 37.5291C118.283 34.8656 120.784 34.9522 123.198 37.7835" stroke="#0B3242" stroke-width="1.62561" stroke-linecap="round" stroke-linejoin="round"/>
<path d="M116.954 69.4561C120.974 77.5983 130.371 77.5496 135.802 70.4468C138.021 67.5451 137.218 62.2342 133.578 61.8932C129.243 61.4871 124.734 61.4709 120.025 61.7145C116.693 61.8878 115.484 66.4731 116.959 69.4561H116.954Z" fill="#FF7471" stroke="#0B3242" stroke-width="1.62561" stroke-linecap="round" stroke-linejoin="round"/>
<path d="M114.321 53.8072C114.358 52.7404 112.156 51.7995 109.404 51.7055C106.652 51.6115 104.391 52.4001 104.355 53.4669C104.318 54.5337 106.52 55.4746 109.272 55.5686C112.024 55.6626 114.284 54.874 114.321 53.8072Z" fill="#FF7471" stroke="#0B3242" stroke-width="1.62561" stroke-linecap="round" stroke-linejoin="round"/>
<path d="M161.665 1.07371C161.665 1.07371 143.267 -1.13508 150.901 18.6303C150.901 18.6303 150.293 5.84858 161.665 1.07371Z" fill="#B3E9BB" stroke="#0B3242" stroke-width="1.62561" stroke-linecap="round" stroke-linejoin="round"/>
<path d="M167.352 162.619C169.527 161.948 171.73 161.152 173.954 160.227" stroke="#0B3242" stroke-width="1.62561" stroke-linecap="round" stroke-linejoin="round"/>
<path d="M124.913 158.555C135.775 164.851 148.509 167.011 162.344 163.947" stroke="#0B3242" stroke-width="1.62561" stroke-linecap="round" stroke-linejoin="round"/>
<path d="M120.388 139.188C136.268 148.299 154.46 148.634 174.735 141.039" stroke="#0B3242" stroke-width="1.62561" stroke-linecap="round" stroke-linejoin="round"/>
<path d="M121.85 46.4607C121.901 44.9667 120.728 43.714 119.231 43.6629C117.733 43.6118 116.478 44.7815 116.427 46.2756L116.307 49.7762C116.255 51.2703 117.428 52.5229 118.925 52.574C120.423 52.6252 121.678 51.4554 121.73 49.9613L121.85 46.4607Z" fill="#0B3242"/>
<path d="M117.888 46.9742C118.251 46.9742 118.545 46.6809 118.545 46.3191C118.545 45.9573 118.251 45.6641 117.888 45.6641C117.525 45.6641 117.231 45.9573 117.231 46.3191C117.231 46.6809 117.525 46.9742 117.888 46.9742Z" fill="white"/>
<path d="M138.119 37.5213C140.718 34.8577 143.219 34.9444 145.633 37.7757" stroke="#0B3242" stroke-width="1.62561" stroke-linecap="round" stroke-linejoin="round"/>
<path d="M155.735 53.7994C155.771 52.7326 153.57 51.7916 150.818 51.6977C148.066 51.6037 145.805 52.3923 145.768 53.4591C145.732 54.5258 147.933 55.4668 150.685 55.5608C153.437 55.6548 155.698 54.8662 155.735 53.7994Z" fill="#FF7471" stroke="#0B3242" stroke-width="1.62561" stroke-linecap="round" stroke-linejoin="round"/>
<path d="M144.288 46.4529C144.339 44.9588 143.166 43.7062 141.669 43.6551C140.171 43.6039 138.916 44.7737 138.865 46.2678L138.745 49.7684C138.693 51.2624 139.866 52.5151 141.363 52.5662C142.861 52.6173 144.116 51.4476 144.167 49.9535L144.288 46.4529Z" fill="#0B3242"/>
<path d="M140.323 46.9664C140.685 46.9664 140.979 46.6731 140.979 46.3113C140.979 45.9495 140.685 45.6562 140.323 45.6562C139.96 45.6562 139.666 45.9495 139.666 46.3113C139.666 46.6731 139.96 46.9664 140.323 46.9664Z" fill="white"/>
<path d="M93.9665 131.195H91.9427C88.7254 131.195 86.1103 128.591 86.1103 125.376V110.304H99.7935V125.376C99.7935 128.586 97.1838 131.195 93.961 131.195H93.9665Z" fill="#B1DDB6" stroke="#0B3242" stroke-width="1.62561" stroke-linecap="round" stroke-linejoin="round"/>
<g style="mix-blend-mode:color-burn" opacity="0.15">
<path d="M93.9665 131.195H91.9427C88.7254 131.195 86.1103 128.591 86.1103 125.376V110.304H99.7935V125.376C99.7935 128.586 97.1838 131.195 93.961 131.195H93.9665Z" fill="black"/>
</g>
<path d="M94.6772 131.195C91.8559 131.195 89.561 128.911 89.561 126.09V110.304H99.7935V126.09C99.7935 128.905 97.5039 131.195 94.6772 131.195Z" fill="#B1DDB6" stroke="#0B3242" stroke-width="1.62561" stroke-linecap="round" stroke-linejoin="round"/>
<path d="M102.479 98.375H83.4243V110.399H102.479V98.375Z" fill="white"/>
<mask id="mask0_1473_33147" style="mask-type:luminance" maskUnits="userSpaceOnUse" x="83" y="98" width="20" height="13">
<path d="M102.478 98.375H83.4238V110.399H102.478V98.375Z" fill="white"/>
</mask>
<g mask="url(#mask0_1473_33147)">
<g style="mix-blend-mode:multiply" opacity="0.15">
<path d="M83.4288 110.398H90.4277V102.175H83.4288V110.398Z" fill="black"/>
</g>
</g>
<path d="M102.479 98.375H83.4243V110.399H102.479V98.375Z" stroke="#0B3242" stroke-width="1.62561" stroke-linecap="round" stroke-linejoin="round"/>
<path d="M89.5609 110.398H102.479V98.3746H89.5609V110.398Z" fill="white" stroke="#0B3242" stroke-width="1.62561" stroke-linecap="round" stroke-linejoin="round"/>
<path d="M58.0386 112.012C61.0063 111.99 66.7574 110.312 75.6064 106.787C80.7498 104.741 86.2241 103.653 91.7581 103.572L97.2976 103.49C105.165 103.377 111.968 97.6762 113.086 89.9075C113.178 89.2741 113.232 88.6353 113.243 88.0019C113.232 87.3685 113.178 86.7351 113.086 86.0963C111.968 78.3276 105.159 72.627 97.2976 72.5133L91.7581 72.4321C86.2241 72.3509 80.7443 71.2628 75.6064 69.2164C66.7574 65.6921 61.0063 64.0138 58.0386 63.9922" fill="#B1DDB6"/>
<path d="M58.0386 112.012C61.0063 111.99 66.7574 110.312 75.6064 106.787C80.7498 104.741 86.2241 103.653 91.7581 103.572L97.2976 103.49C105.165 103.377 111.968 97.6762 113.086 89.9075C113.178 89.2741 113.232 88.6353 113.243 88.0019C113.232 87.3685 113.178 86.7351 113.086 86.0963C111.968 78.3276 105.159 72.627 97.2976 72.5133L91.7581 72.4321C86.2241 72.3509 80.7443 71.2628 75.6064 69.2164C66.7574 65.6921 61.0063 64.0138 58.0386 63.9922" stroke="#0B3242" stroke-width="1.62561" stroke-linecap="round" stroke-linejoin="round"/>
<path d="M68.1031 109.586C70.295 108.834 72.7962 107.903 75.6066 106.777C76.67 106.355 77.7497 105.97 78.8348 105.629C81.7971 101.239 83.6418 94.9641 83.6418 87.9913C83.6418 81.013 81.7863 74.7331 78.8348 70.3426C77.7497 70.007 76.67 69.628 75.6066 69.2003C72.7908 68.0797 70.2896 67.1485 68.0923 66.3906C73.0783 70.2831 76.5072 78.4902 76.5072 87.9858C76.5072 97.476 73.0783 105.678 68.1031 109.576V109.586Z" fill="white" stroke="#0B3242" stroke-width="1.62561" stroke-linecap="round" stroke-linejoin="round"/>
<g style="mix-blend-mode:multiply" opacity="0.15">
<path d="M58.3697 111.998C61.4242 111.868 67.0776 110.179 75.6065 106.785C80.7445 104.739 86.2242 103.645 91.7583 103.569L97.2977 103.488C104.964 103.374 111.626 97.9553 112.988 90.4844C110.286 95.5354 104.888 98.8918 98.8711 98.9785L93.3316 99.0597C87.7976 99.1409 82.3179 100.229 77.1799 102.275C72.9046 103.986 69.3509 105.253 66.4862 106.114C64.2998 109.66 61.4676 111.852 58.3643 111.998H58.3697Z" fill="black"/>
</g>
<path d="M70.9079 87.9941C70.9079 101.258 65.146 112.004 58.0441 112.004C50.9366 112.004 45.1802 101.252 45.1802 87.9941C45.1802 74.7306 50.9421 63.9844 58.0441 63.9844C65.1515 63.9844 70.9079 74.736 70.9079 87.9941Z" fill="#B1DDB6" stroke="#0B3242" stroke-width="1.62561" stroke-linecap="round" stroke-linejoin="round"/>
<g style="mix-blend-mode:color-burn" opacity="0.15">
<path d="M70.9079 87.9941C70.9079 101.258 65.146 112.004 58.0441 112.004C50.9366 112.004 45.1802 101.252 45.1802 87.9941C45.1802 74.7306 50.9421 63.9844 58.0441 63.9844C65.1515 63.9844 70.9079 74.736 70.9079 87.9941Z" fill="black"/>
</g>
<g style="mix-blend-mode:color-burn" opacity="0.15">
<path d="M47.0792 100.578C46.5583 98.2554 46.2816 95.776 46.2816 93.1991C46.2816 79.9409 53.6712 69.1893 62.7914 69.1893C64.0393 69.1893 65.2492 69.3896 66.4157 69.774C64.1641 66.1685 61.2397 63.9922 58.0387 63.9922C50.9367 63.9922 45.1748 74.7384 45.1748 88.0019C45.1748 92.609 45.8693 96.9183 47.0792 100.578Z" fill="black"/>
</g>
<path d="M60.1704 80.2734V95.7241L70.4029 94.6793C70.799 92.5896 70.9075 90.3429 70.9075 87.9988C70.9075 85.6601 70.8044 83.4134 70.4083 81.3237L60.1758 80.2734H60.1704Z" fill="white" stroke="#0B3242" stroke-width="1.62561" stroke-linecap="round" stroke-linejoin="round"/>
<g style="mix-blend-mode:multiply" opacity="0.15">
<path d="M60.6377 95.6793L70.409 94.6777C70.5609 93.8927 70.664 93.0807 70.74 92.2578L63.3179 93.0103C62.656 94.4666 61.7065 95.4519 60.6377 95.6739V95.6793Z" fill="black"/>
</g>
<path d="M60.1709 95.7241C62.4572 95.7241 64.3106 92.2654 64.3106 87.9988C64.3106 83.7322 62.4572 80.2734 60.1709 80.2734C57.8846 80.2734 56.0312 83.7322 56.0312 87.9988C56.0312 92.2654 57.8846 95.7241 60.1709 95.7241Z" fill="white" stroke="#0B3242" stroke-width="1.62561" stroke-linecap="round" stroke-linejoin="round"/>
<path d="M99.793 113.125C99.793 113.125 102.913 112.426 103.038 116.043C103.163 119.659 101.486 120.189 99.793 120.449V113.13V113.125Z" fill="#FFE3AB" stroke="#0B3242" stroke-width="1.62561" stroke-linecap="round" stroke-linejoin="round"/>
<path d="M86.4902 111.581C86.2786 111.224 85.8771 111.018 85.4593 111.024C84.5368 111.034 82.9524 111.354 82.8656 113.395C82.768 115.625 83.7446 116.383 84.9763 116.713C85.6166 116.881 86.2732 116.508 86.4739 115.874C86.984 114.266 87.1956 112.767 86.4902 111.581Z" fill="#FFE3AB" stroke="#0B3242" stroke-width="1.62561" stroke-linecap="round" stroke-linejoin="round"/>
<path d="M86.4902 116.237C86.2786 115.88 85.8771 115.674 85.4593 115.68C84.5368 115.691 82.9524 116.01 82.8656 118.051C82.768 120.281 83.7446 121.039 84.9763 121.37C85.6166 121.537 86.2732 121.164 86.4739 120.53C86.984 118.923 87.1956 117.423 86.4902 116.237Z" fill="#FFE3AB" stroke="#0B3242" stroke-width="1.62561" stroke-linecap="round" stroke-linejoin="round"/>
<path d="M86.4902 120.886C86.2786 120.529 85.8771 120.323 85.4593 120.328C84.5368 120.339 82.9524 120.658 82.8656 122.699C82.768 124.93 83.7446 125.688 84.9763 126.018C85.6166 126.186 86.2732 125.812 86.4739 125.179C86.984 123.571 87.1956 122.071 86.4902 120.886Z" fill="#FFE3AB" stroke="#0B3242" stroke-width="1.62561" stroke-linecap="round" stroke-linejoin="round"/>
<path d="M37.9641 89.3047H30.249" stroke="#0B3242" stroke-width="1.62561" stroke-linecap="round" stroke-linejoin="round"/>
<path d="M37.9638 94.7578L30.4766 97.3726" stroke="#0B3242" stroke-width="1.62561" stroke-linecap="round" stroke-linejoin="round"/>
<path d="M37.9638 83.857L30.4766 81.2422" stroke="#0B3242" stroke-width="1.62561" stroke-linecap="round" stroke-linejoin="round"/>
<path d="M188.971 127.184C194.766 135.158 218.828 139.105 218.828 139.105C218.828 139.105 222.957 147.004 225.653 146.229C229.923 145.006 225.566 140.421 225.447 138.385C225.447 138.385 231.138 141.444 233.846 139.143C235.679 137.584 233.021 134.558 227.916 132.062C227.916 132.062 235.728 132.56 236.293 129.182C236.683 126.838 231.415 126.756 225.604 125.3C225.604 125.3 228.974 119.399 224.861 118.03C222.181 117.136 219.815 124.006 219.815 124.006C219.739 125.333 210.364 121.397 198.819 112.129C197.446 111.024 195.688 110.44 193.936 110.629C191.95 110.84 189.633 111.961 188.315 115.599C185.673 122.875 188.977 127.195 188.977 127.195L188.971 127.184Z" fill="#FFE3AB" stroke="#0B3242" stroke-width="1.62561" stroke-linecap="round" stroke-linejoin="round"/>
<g style="mix-blend-mode:color-burn" opacity="0.15">
<path d="M188.972 127.187C194.761 135.156 218.823 139.102 218.823 139.102C218.823 139.102 222.957 147.006 225.648 146.232C226.999 145.848 227.482 145.122 227.515 144.251C227.455 144.272 227.395 144.294 227.336 144.31C224.644 145.084 220.51 137.18 220.51 137.18C220.51 137.18 196.448 133.234 190.659 125.259C190.659 125.259 187.35 120.945 189.992 113.669C190.247 112.965 190.54 112.353 190.865 111.828C189.872 112.586 188.966 113.777 188.304 115.591C185.662 122.867 188.972 127.187 188.972 127.187Z" fill="black"/>
</g>
<g style="mix-blend-mode:color-burn" opacity="0.15">
<path d="M233.84 139.145C232.43 140.341 227.243 138.901 225.442 138.387C225.165 137.754 225.469 137.375 225.876 137.066C226.646 136.471 227.65 136.346 228.55 136.687C230.183 137.315 232.695 138.003 234.502 137.207C234.67 137.959 234.459 138.62 233.846 139.145H233.84Z" fill="black"/>
</g>
<path d="M215.014 126.508C215.014 126.508 214.059 129.599 215.345 132.658L215.014 126.508Z" fill="#FFE3AB"/>
<path d="M215.014 126.508C215.014 126.508 214.059 129.599 215.345 132.658" stroke="#0B3242" stroke-width="1.62561" stroke-linecap="round" stroke-linejoin="round"/>
<path d="M56.3022 170.586H1V199.571H56.3022V170.586Z" fill="#B1DDB6" stroke="#0B3242" stroke-width="1.62561" stroke-linecap="round" stroke-linejoin="round"/>
<path d="M53.4053 173.32H3.89209V196.821H53.4053V173.32Z" fill="white"/>
<path d="M53.4053 173.32H3.89209V196.821H53.4053V173.32Z" stroke="#0B3242" stroke-width="1.62561" stroke-linecap="round" stroke-linejoin="round"/>
<g style="mix-blend-mode:multiply" opacity="0.15">
<path d="M30.2485 220.998C41.4042 220.998 50.4476 219.166 50.4476 216.905C50.4476 214.645 41.4042 212.812 30.2485 212.812C19.0928 212.812 10.0493 214.645 10.0493 216.905C10.0493 219.166 19.0928 220.998 30.2485 220.998Z" fill="black"/>
</g>
<path d="M32.0233 199.57H25.2739V217.701H32.0233V199.57Z" fill="#B1DDB6" stroke="#0B3242" stroke-width="1.62561" stroke-linecap="round" stroke-linejoin="round"/>
<path d="M32.0288 217.701L35.2193 215.156V199.57H32.0288V217.701Z" fill="#B1DDB6" stroke="#0B3242" stroke-width="1.62561" stroke-linecap="round" stroke-linejoin="round"/>
<path d="M56.3018 199.568L59.4922 196.829V168.039L56.3018 170.584V199.568Z" fill="#B1DDB6" stroke="#0B3242" stroke-width="1.62561" stroke-linecap="round" stroke-linejoin="round"/>
<g style="mix-blend-mode:color-burn" opacity="0.15">
<path d="M32.0288 217.701L35.2193 215.156V199.57H32.0288V217.701Z" fill="black"/>
</g>
<g style="mix-blend-mode:color-burn" opacity="0.15">
<path d="M56.3018 199.568L59.4922 196.829V168.039L56.3018 170.584V199.568Z" fill="black"/>
</g>
<path d="M56.3022 170.584L59.4924 168.039H5.45977L1 170.584H56.3022Z" fill="#B1DDB6" stroke="#0B3242" stroke-width="1.62561" stroke-linecap="round" stroke-linejoin="round"/>
<path d="M8.79102 180.359H46.2867" stroke="#0B3242" stroke-width="1.62561" stroke-linecap="round" stroke-linejoin="round"/>
<path d="M8.79102 185.078H46.2867" stroke="#0B3242" stroke-width="1.62561" stroke-linecap="round" stroke-linejoin="round"/>
<path d="M38.208 189.797H46.2866" stroke="#0B3242" stroke-width="1.62561" stroke-linecap="round" stroke-linejoin="round"/>
<path d="M8.79102 189.797H28.6484" stroke="#0B3242" stroke-width="1.62561" stroke-linecap="round" stroke-linejoin="round"/>
</svg>
