<svg width="68" height="76" viewBox="0 0 68 76" fill="none" xmlns="http://www.w3.org/2000/svg">
<g filter="url(#filter0_d_1833_9362)">
<path d="M50 46.19V31.62C50 23.91 45.11 17.05 37.94 14.46C37.5 11.38 34.84 9 31.64 9C28.44 9 25.78 11.38 25.34 14.46C18.16 17.05 13.27 23.91 13.27 31.62V46.19C11.4 46.61 10 48.28 10 50.27C10 52.58 11.88 54.45 14.18 54.45H23.33C24.23 58.2 27.62 61 31.64 61C35.66 61 39.05 58.2 39.95 54.45H49.1C51.41 54.45 53.28 52.57 53.28 50.27C53.28 48.28 51.88 46.6 50.01 46.19H50Z" fill="white"/>
</g>
<path d="M37.6898 52.4484C37.6898 55.7923 34.9837 58.4984 31.6398 58.4984C28.296 58.4984 25.5898 55.7923 25.5898 52.4484C25.5898 49.1046 28.296 46.3984 31.6398 46.3984C34.9837 46.3984 37.6898 49.1046 37.6898 52.4484Z" fill="#FFC747" stroke="#FFC747"/>
<path d="M35.5003 15.9478V16.3303L35.8695 16.4304C42.5582 18.2431 47.5003 24.3603 47.5003 31.6178V49.7678H15.7803V31.6178C15.7803 24.3608 20.722 18.2529 27.4117 16.4302L27.7803 16.3298V15.9478V15.3678C27.7803 13.234 29.5064 11.5078 31.6403 11.5078C33.7741 11.5078 35.5003 13.234 35.5003 15.3678V15.9478Z" fill="#FFC747" stroke="#FFC747"/>
<path d="M49.09 48.0938H14.18C12.98 48.0938 12 49.1052 12 50.3438C12 51.5823 12.98 52.5938 14.18 52.5938H49.09C50.3 52.5938 51.27 51.5823 51.27 50.3438C51.27 49.1052 50.29 48.0938 49.09 48.0938Z" fill="#FF5065"/>
<defs>
<filter id="filter0_d_1833_9362" x="0" y="0" width="67.28" height="76" filterUnits="userSpaceOnUse" color-interpolation-filters="sRGB">
<feFlood flood-opacity="0" result="BackgroundImageFix"/>
<feColorMatrix in="SourceAlpha" type="matrix" values="0 0 0 0 0 0 0 0 0 0 0 0 0 0 0 0 0 0 127 0" result="hardAlpha"/>
<feOffset dx="2" dy="3"/>
<feGaussianBlur stdDeviation="6"/>
<feComposite in2="hardAlpha" operator="out"/>
<feColorMatrix type="matrix" values="0 0 0 0 0 0 0 0 0 0 0 0 0 0 0 0 0 0 0.08 0"/>
<feBlend mode="normal" in2="BackgroundImageFix" result="effect1_dropShadow_1833_9362"/>
<feBlend mode="normal" in="SourceGraphic" in2="effect1_dropShadow_1833_9362" result="shape"/>
</filter>
</defs>
</svg>
