<svg width="22" height="20" viewBox="0 0 22 20" fill="none" xmlns="http://www.w3.org/2000/svg">
 <g clip-path="url(#clip0_2039_17525)">
  <path d="M15.8497 4.59619H6.15271C4.00968 4.59619 2.27393 6.35479 2.27393 8.52602V15.4032C2.27393 17.5744 4.00968 19.333 6.15271 19.333H15.8497C17.9927 19.333 19.7285 17.5744 19.7285 15.4032V8.52602C19.7285 6.35479 17.9927 4.59619 15.8497 4.59619Z" fill="#DCDCDC"/>
  <path d="M11.0012 0.666504C11.3212 0.666504 11.6315 0.794223 11.8545 1.03001C12.0775 1.25598 12.2133 1.57036 12.2133 1.89457V4.59633H9.78906V1.89457C9.78906 1.57036 9.91512 1.25598 10.1479 1.03001C10.3709 0.804048 10.6812 0.666504 11.0012 0.666504Z" fill="#F9F9F9"/>
  <path d="M9.06046 10.4913C9.06046 9.67582 8.41076 9.01758 7.60591 9.01758C6.80106 9.01758 6.15137 9.67582 6.15137 10.4913V12.4562C6.15137 13.2716 6.80106 13.9299 7.60591 13.9299C8.41076 13.9299 9.06046 13.2716 9.06046 12.4562V10.4913Z" fill="white"/>
  <path d="M15.8495 10.4913C15.8495 9.67582 15.1998 9.01758 14.395 9.01758C13.5901 9.01758 12.9404 9.67582 12.9404 10.4913V12.4562C12.9404 13.2716 13.5901 13.9299 14.395 13.9299C15.1998 13.9299 15.8495 13.2716 15.8495 12.4562V10.4913Z" fill="white"/>
  <path d="M2.27289 8.52637V14.4211C1.75895 14.4211 1.26441 14.2148 0.905617 13.8415C0.546829 13.4681 0.333496 12.9769 0.333496 12.4562V10.4913C0.333496 9.97058 0.537132 9.46953 0.905617 9.10602C1.2741 8.74251 1.75895 8.52637 2.27289 8.52637Z" fill="#F9F9F9"/>
  <path d="M19.7266 8.52588C20.2405 8.52588 20.735 8.73219 21.0938 9.10553C21.4623 9.47886 21.666 9.97009 21.666 10.4908V12.4557C21.666 12.9764 21.4623 13.4775 21.0938 13.841C20.7254 14.2143 20.2405 14.4206 19.7266 14.4206V8.52588Z" fill="#F9F9F9"/>
  </g>
  <defs>
  <clipPath id="clip0_2039_17525">
   <rect width="21.3333" height="18.6667" fill="white" transform="translate(0.333496 0.666504)"/>
   </clipPath>
   </defs>
   </svg>

