<svg class="group-3808" width="68" height="73" viewBox="0 0 68 73" fill="none" xmlns="http://www.w3.org/2000/svg">
                      <g filter="url(#filter0_d_340_2289)">
                        <path d="M58.8872 0.443359H23.5129C19.0543 0.443359 15.4063 4.23871 15.4063 8.88157V24.7262H8.7736C4.31497 24.7262 0.666992 28.5216 0.666992 33.1644V56.8946C0.666992 61.5375 4.31497 65.3328 8.7736 65.3328H9.10524V67.6542C9.10524 70.4178 11.3161 72.6656 14.0429 72.6656C15.4063 72.6656 16.6591 72.1129 17.6172 71.118L22.8496 65.3328H44.1847C48.6434 65.3328 52.2914 61.5375 52.2914 56.8946V48.1616C52.7335 48.309 53.2126 48.3459 53.6547 48.3459C56.3815 48.3459 58.5924 46.0981 58.5924 43.3345V41.0131H58.924C63.3827 41.0131 67.0306 37.2177 67.0306 32.5749V8.88157C67.0306 4.23871 63.3827 0.443359 58.924 0.443359H58.8872Z" fill="white"></path>
                      </g>
                      <path d="M63.3097 8.88231V32.6125C63.3097 35.2287 61.3199 37.3659 58.8879 37.3659H54.8714V43.3721C54.8714 44.5512 53.5449 45.1408 52.7711 44.2933L46.47 37.3659H23.5136C21.0816 37.3659 19.0918 35.2287 19.0918 32.6125V8.88231C19.0918 6.26609 21.0816 4.12891 23.5136 4.12891H58.8879C61.3199 4.12891 63.3097 6.26609 63.3097 8.88231Z" fill="#FFE39E"></path>
                      <path d="M47.8311 18.9428V22.5171C47.8311 23.1803 48.3101 23.6962 48.9365 23.6962H52.2528C52.8793 23.6962 53.3583 23.1803 53.3583 22.5171V18.9428C53.3583 18.2795 52.8793 17.7637 52.2528 17.7637H48.9365C48.3101 17.7637 47.8311 18.2795 47.8311 18.9428Z" fill="#F3B527"></path>
                      <path d="M38.4375 18.9409V22.5151C38.4375 23.1784 38.9165 23.6943 39.5429 23.6943H42.8593C43.4857 23.6943 43.9647 23.1784 43.9647 22.5151V18.9409C43.9647 18.2776 43.4857 17.7617 42.8593 17.7617H39.5429C38.9165 17.7617 38.4375 18.2776 38.4375 18.9409Z" fill="#F3B527"></path>
                      <path d="M29.041 18.9428V22.5171C29.041 23.1803 29.52 23.6962 30.1465 23.6962H33.4628C34.0892 23.6962 34.5682 23.1803 34.5682 22.5171V18.9428C34.5682 18.2795 34.0892 17.7637 33.4628 17.7637H30.1465C29.52 17.7637 29.041 18.2795 29.041 18.9428Z" fill="#F3B527"></path>
                      <path d="M8.77335 28.4102H44.1476C46.5796 28.4102 48.5694 30.5473 48.5694 33.1636V56.8937C48.5694 59.5099 46.5796 61.6471 44.1476 61.6471H21.1912L14.8902 68.5746C14.1163 69.4221 12.7898 68.8325 12.7898 67.6534V61.6471H8.77335C6.34137 61.6471 4.35156 59.5099 4.35156 56.8937V33.1636C4.35156 30.5473 6.34137 28.4102 8.77335 28.4102Z" fill="#FFB3BC"></path>
                      <path d="M18.7235 42.0449H15.4072C14.7808 42.0449 14.3018 42.5976 14.3018 43.2241V46.7983C14.3018 47.4616 14.8176 47.9775 15.4072 47.9775H18.7235C19.35 47.9775 19.829 47.4247 19.829 46.7983V43.2241C19.829 42.5608 19.3131 42.0449 18.7235 42.0449Z" fill="#FF5065"></path>
                      <path d="M28.1191 42.0449H24.8027C24.1763 42.0449 23.6973 42.5976 23.6973 43.2241V46.7983C23.6973 47.4616 24.2131 47.9775 24.8027 47.9775H28.1191C28.7455 47.9775 29.2245 47.4247 29.2245 46.7983V43.2241C29.2245 42.5608 28.7086 42.0449 28.1191 42.0449Z" fill="#FF5065"></path>
                      <path d="M37.5146 42.0449H34.1982C33.5718 42.0449 33.0928 42.5976 33.0928 43.2241V46.7983C33.0928 47.4616 33.6086 47.9775 34.1982 47.9775H37.5146C38.141 47.9775 38.62 47.4247 38.62 46.7983V43.2241C38.62 42.5608 38.1041 42.0449 37.5146 42.0449Z" fill="#FF5065"></path>
                      <defs>
                        <filter id="filter0_d_340_2289" x="-6.13574" y="-5.6791" width="82.6898" height="88.5492" filterUnits="userSpaceOnUse" color-interpolation-filters="sRGB">
                          <feFlood flood-opacity="0" result="BackgroundImageFix"></feFlood>
                          <feColorMatrix in="SourceAlpha" type="matrix" values="0 0 0 0 0 0 0 0 0 0 0 0 0 0 0 0 0 0 127 0" result="hardAlpha"></feColorMatrix>
                          <feOffset dx="1.36055" dy="2.04082"></feOffset>
                          <feGaussianBlur stdDeviation="4.08164"></feGaussianBlur>
                          <feComposite in2="hardAlpha" operator="out"></feComposite>
                          <feColorMatrix type="matrix" values="0 0 0 0 0 0 0 0 0 0 0 0 0 0 0 0 0 0 0.08 0"></feColorMatrix>
                          <feBlend mode="normal" in2="BackgroundImageFix" result="effect1_dropShadow_340_2289"></feBlend>
                          <feBlend mode="normal" in="SourceGraphic" in2="effect1_dropShadow_340_2289" result="shape"></feBlend>
                        </filter>
                      </defs>
                    </svg>