                                <svg width="42" height="42" viewBox="0 0 42 42" fill="none" xmlns="http://www.w3.org/2000/svg">
                                    <path d="M26.4568 10.1016L11.0371 25.5212L16.5508 31.0193L31.9705 15.5997L26.4568 10.1016Z" fill="#FFF6E0" />
                                    <path d="M9.80923 26.7519L8.78125 29.8514L12.1923 33.2625L15.3229 32.2501L16.5534 31.0196L11.0397 25.5215L9.80923 26.7519Z" fill="#FFE39E" />
                                    <path d="M7.08203 34.9126L12.1908 33.2616L8.77976 29.8506L7.08203 34.9126Z" fill="#D19500" />
                                    <path d="M34.1688 8.99613L33.063 7.90588C32.4794 7.32568 31.6898 7 30.8668 7C30.044 7 29.2543 7.32568 28.6707 7.90588L26.459 10.102L31.9729 15.6157L34.1688 13.404C34.4585 13.1147 34.6883 12.7711 34.8451 12.3929C35.0018 12.0148 35.0825 11.6094 35.0825 11.2001C35.0825 10.7907 35.0018 10.3853 34.8451 10.0071C34.6883 9.62897 34.4585 9.28543 34.1688 8.99613Z" fill="#FF5065" />
                                </svg>