<svg width="42" height="42" viewBox="0 0 42 42" fill="none" xmlns="http://www.w3.org/2000/svg">
<path d="M26.4568 10.0996L11.0371 25.5193L16.5508 31.0174L31.9705 15.5977L26.4568 10.0996Z" fill="#FFD368"/>
<path d="M9.8063 26.7519L8.77832 29.8514L12.1893 33.2625L15.32 32.2501L16.5505 31.0196L11.0368 25.5215L9.8063 26.7519Z" fill="#F0F0F0"/>
<path d="M7.08105 34.9116L12.1898 33.2606L8.77878 29.8496L7.08105 34.9116Z" fill="#999999"/>
<path d="M34.1669 8.99613L33.061 7.90588C32.4774 7.32568 31.6879 7 30.8649 7C30.042 7 29.2524 7.32568 28.6687 7.90588L26.457 10.102L31.9709 15.6157L34.1669 13.404C34.4566 13.1147 34.6863 12.7711 34.8432 12.3929C34.9999 12.0148 35.0805 11.6094 35.0805 11.2001C35.0805 10.7907 34.9999 10.3853 34.8432 10.0071C34.6863 9.62897 34.4566 9.28543 34.1669 8.99613Z" fill="#FFAFB9"/>
</svg>
