<svg width="60" height="54" viewBox="0 0 60 54" fill="none" xmlns="http://www.w3.org/2000/svg">
<path d="M0 27.2031V40.6429H0.0444444C0.622222 44.1596 8.31111 46.9371 17.7778 46.9371C27.2444 46.9371 34.9333 44.1596 35.5111 40.6429H35.5556V27.2031H0Z" fill="#FFC747"/>
<path d="M0 13.7656V27.2054H0.0444444C0.622222 30.7221 8.31111 33.4996 17.7778 33.4996C27.2444 33.4996 34.9333 30.7221 35.5111 27.2054H35.5556V13.7656H0Z" fill="#FFE39E"/>
<path d="M17.7778 20.4866C27.5962 20.4866 35.5556 17.478 35.5556 13.7667C35.5556 10.0555 27.5962 7.04688 17.7778 7.04688C7.95938 7.04688 0 10.0555 0 13.7667C0 17.478 7.95938 20.4866 17.7778 20.4866Z" fill="#FFC747"/>
<path d="M24.4375 33.9219V47.3616H24.4819C25.0597 50.8783 32.7486 53.6559 42.2153 53.6559C51.6819 53.6559 59.3708 50.8783 59.9486 47.3616H59.9931V33.9219H24.4375Z" fill="#FFE39E"/>
<path d="M24.4375 20.4844V33.9241H24.4819C25.0597 37.4408 32.7486 40.2184 42.2153 40.2184C51.6819 40.2184 59.3708 37.4408 59.9486 33.9241H59.9931V20.4844H24.4375Z" fill="#FFC747"/>
<path d="M24.4375 7.04688V20.4866H24.4819C25.0597 24.0033 32.7486 26.7809 42.2153 26.7809C51.6819 26.7809 59.3708 24.0033 59.9486 20.4866H59.9931V7.04688H24.4375Z" fill="#FFE39E"/>
<path d="M42.2153 13.7679C52.0337 13.7679 59.9931 10.7593 59.9931 7.04799C59.9931 3.33671 52.0337 0.328125 42.2153 0.328125C32.3969 0.328125 24.4375 3.33671 24.4375 7.04799C24.4375 10.7593 32.3969 13.7679 42.2153 13.7679Z" fill="#FFC747"/>
</svg>
