<svg width="32" height="32" viewBox="0 0 32 32" fill="none" xmlns="http://www.w3.org/2000/svg">
                            <path d="M4 16.0853V21.4612H4.01778C4.24889 22.8679 7.32444 23.9789 11.1111 23.9789C14.8978 23.9789 17.9733 22.8679 18.2044 21.4612H18.2222V16.0853H4Z" fill="white"></path>
                            <path d="M4 10.709V16.0849H4.01778C4.24889 17.4916 7.32444 18.6026 11.1111 18.6026C14.8978 18.6026 17.9733 17.4916 18.2044 16.0849H18.2222V10.709H4Z" fill="#FFE39E"></path>
                            <path d="M11.1111 13.3974C15.0385 13.3974 18.2222 12.1939 18.2222 10.7094C18.2222 9.22492 15.0385 8.02148 11.1111 8.02148C7.18375 8.02148 4 9.22492 4 10.7094C4 12.1939 7.18375 13.3974 11.1111 13.3974Z" fill="white"></path>
                            <path d="M13.7778 18.7741V24.15H13.7956C14.0267 25.5567 17.1023 26.6677 20.8889 26.6677C24.6756 26.6677 27.7512 25.5567 27.9823 24.15H28.0001V18.7741H13.7778Z" fill="#FFE39E"></path>
                            <path d="M13.7778 13.3978V18.7737H13.7956C14.0267 20.1804 17.1023 21.2914 20.8889 21.2914C24.6756 21.2914 27.7512 20.1804 27.9823 18.7737H28.0001V13.3978H13.7778Z" fill="white"></path>
                            <path d="M13.7778 8.02148V13.3974H13.7956C14.0267 14.8041 17.1023 15.9151 20.8889 15.9151C24.6756 15.9151 27.7512 14.8041 27.9823 13.3974H28.0001V8.02148H13.7778Z" fill="#FFE39E"></path>
                            <path d="M20.8889 10.7099C24.8163 10.7099 28.0001 9.50644 28.0001 8.02193C28.0001 6.53742 24.8163 5.33398 20.8889 5.33398C16.9616 5.33398 13.7778 6.53742 13.7778 8.02193C13.7778 9.50644 16.9616 10.7099 20.8889 10.7099Z" fill="white"></path>
                          </svg>