<svg width="200" height="38" viewBox="0 0 200 38" fill="none" xmlns="http://www.w3.org/2000/svg">
<path d="M38.7809 16.6229C38.7809 13.587 36.3233 11.1263 33.2911 11.1263C33.2422 11.1263 33.1932 11.1263 33.1443 11.1285C31.3229 5.9685 26.4097 2.27002 20.6327 2.27002C14.4344 2.27002 9.22548 6.53094 7.77006 12.2832C3.21652 14.3391 0.0439453 18.9302 0.0439453 24.2585C0.0439453 31.5106 5.9146 37.3907 13.1598 37.3907C15.6855 37.3907 18.0389 36.6791 20.0412 35.4413C20.5072 36.9262 21.8924 38 23.5308 38C25.5522 38 27.1907 36.3595 27.1907 34.3356C27.1907 34.2227 27.1843 34.1098 27.1758 33.999C28.1673 34.4123 29.2525 34.6403 30.393 34.6403C35.0253 34.6403 38.7809 30.88 38.7809 26.242C38.7809 24.1797 38.0404 22.2964 36.8127 20.837C38.0149 19.8293 38.7809 18.3145 38.7809 16.6229Z" fill="#FFD15F"/>
<path d="M18.8752 17.6328C20.2889 17.6328 21.435 16.0256 21.435 14.043C21.435 12.0603 20.2889 10.4531 18.8752 10.4531C17.4615 10.4531 16.3154 12.0603 16.3154 14.043C16.3154 16.0256 17.4615 17.6328 18.8752 17.6328Z" fill="white"/>
<path d="M19.92 15.5216C20.7285 15.5216 21.3839 14.6087 21.3839 13.4827C21.3839 12.3567 20.7285 11.4438 19.92 11.4438C19.1115 11.4438 18.4561 12.3567 18.4561 13.4827C18.4561 14.6087 19.1115 15.5216 19.92 15.5216Z" fill="#472B16"/>
<path d="M27.2033 17.6328C28.617 17.6328 29.7631 16.0256 29.7631 14.043C29.7631 12.0603 28.617 10.4531 27.2033 10.4531C25.7896 10.4531 24.6436 12.0603 24.6436 14.043C24.6436 16.0256 25.7896 17.6328 27.2033 17.6328Z" fill="white"/>
<path d="M28.2501 15.5216C29.0586 15.5216 29.714 14.6087 29.714 13.4827C29.714 12.3567 29.0586 11.4438 28.2501 11.4438C27.4416 11.4438 26.7861 12.3567 26.7861 13.4827C26.7861 14.6087 27.4416 15.5216 28.2501 15.5216Z" fill="#472B16"/>
<path d="M28.8182 20.1679C28.5629 20.0422 28.2543 20.1487 28.1309 20.4044C27.3628 21.9702 25.8265 22.946 23.9114 23.0781C21.656 23.2315 19.343 22.1748 18.1153 20.4363C18.1068 19.6076 17.8216 18.8299 17.528 18.3335C17.3833 18.0885 17.0705 18.0076 16.8258 18.1525C16.5811 18.2952 16.4981 18.6105 16.6407 18.8555C16.6449 18.8619 16.996 19.4733 17.0684 20.2233C17.1599 21.1564 16.796 21.8573 15.9598 22.3665C15.7172 22.5135 15.6406 22.831 15.7874 23.0738C15.8853 23.2336 16.0534 23.321 16.2279 23.321C16.3194 23.321 16.4109 23.2975 16.4939 23.2464C17.1918 22.8203 17.6195 22.2983 17.8599 21.7487C19.2515 23.2357 21.3155 24.1241 23.454 24.1241C23.6306 24.1241 23.8051 24.1177 23.9817 24.1071C26.2712 23.9494 28.1181 22.767 29.0523 20.8603C29.1778 20.6046 29.0714 20.2957 28.8182 20.1721V20.1679Z" fill="#280800"/>
<path d="M4.55643 10.3384C5.12353 9.65979 4.81171 8.4633 3.85996 7.66596C2.9082 6.86862 1.67693 6.77236 1.10983 7.45097C0.542733 8.12957 0.854555 9.32606 1.80631 10.1234C2.75806 10.9207 3.98933 11.017 4.55643 10.3384Z" fill="#FFD15F"/>
<path d="M39.5441 6.93376C40.4504 5.23212 40.2714 3.36479 39.1442 2.76296C38.0171 2.16114 36.3687 3.05271 35.4623 4.75435C34.556 6.456 34.735 8.32333 35.8622 8.92515C36.9893 9.52698 38.6378 8.63541 39.5441 6.93376Z" fill="#FFD15F"/>
<path d="M34.847 2.28741C35.0146 1.2466 34.5918 0.31266 33.9027 0.201398C33.2135 0.0901368 32.519 0.843685 32.3514 1.88449C32.1837 2.9253 32.6065 3.85924 33.2957 3.9705C33.9848 4.08176 34.6793 3.32822 34.847 2.28741Z" fill="#FFD15F"/>
<path d="M68.9001 15.2633C68.9001 21.4928 64.2424 24.5884 58.4802 24.9335C58.4802 27.5369 58.5419 29.7718 58.7185 30.9222C58.7568 31.1672 58.6526 31.4165 58.4419 31.5507C56.7205 32.6394 52.1351 32.5307 51.5308 31.9278C51.1116 31.5081 51.035 21.8763 51.2627 14.9203H51.1478C50.3839 14.9203 50.1541 8.38406 50.4605 8.0794C50.803 7.73427 55.231 6.70312 58.9356 6.70312C64.6998 6.70312 68.898 10.5635 68.898 15.2633H68.9001ZM58.5185 19.1237C60.0846 19.0087 61.6102 18.3972 61.6102 14.882C61.6102 13.6207 60.6549 12.9326 59.359 12.8942C59.1292 12.8942 58.9015 12.8942 58.6334 12.9326L58.5185 19.1237Z" fill="#473300"/>
<path d="M152.828 9.46655C152.637 9.21089 152.428 8.96802 152.201 8.73367C150.707 7.19761 148.73 6.42212 146.624 6.21972C146.47 6.20481 146.317 6.19629 146.162 6.19629C139.595 6.19629 137.268 9.78825 137.268 20.758C137.268 31.7277 142.764 32.7205 147.383 32.7205C152.003 32.7205 154.903 27.2943 154.903 17.3556C154.903 14.6542 154.49 11.6758 152.826 9.46655H152.828ZM146.545 28.2487C144.828 28.2487 144.751 25.4578 144.751 19.4584C144.751 13.459 145.668 11.433 146.583 11.433C147.041 11.433 148.111 13.4974 148.111 15.4084C148.188 16.5162 148.226 17.8542 148.226 19.4605C148.226 24.8868 148.149 28.2508 146.547 28.2508L146.545 28.2487Z" fill="#473300"/>
<path d="M117.058 15.172C117.058 21.4015 112.4 24.497 106.636 24.8422C106.636 27.4456 106.697 29.6805 106.874 30.8309C106.912 31.0759 106.808 31.3252 106.597 31.4594C104.876 32.5481 100.29 32.4394 99.6861 31.8365C99.2669 31.4168 99.1903 21.785 99.418 14.829H99.3031C98.5392 14.829 98.3115 8.29275 98.6158 7.98809C98.9584 7.64296 103.386 6.61182 107.089 6.61182C112.853 6.61182 117.051 10.4722 117.051 15.172H117.058ZM106.674 19.0324C108.24 18.9174 109.766 18.3059 109.766 14.7907C109.766 13.5294 108.81 12.8413 107.514 12.8029C107.285 12.8029 107.057 12.8029 106.789 12.8413L106.674 19.0324Z" fill="#473300"/>
<path d="M127.636 32.9997C122.482 32.9997 119.199 28.0314 119.199 20.4257C119.199 12.8199 121.91 6.28369 127.176 6.28369C132.443 6.28369 134.888 10.6405 134.888 14.5776C134.888 14.7778 134.479 14.9525 134.343 15.0271C133.832 15.3041 133.288 15.5214 132.747 15.7323C132.143 15.9666 131.532 16.1839 130.915 16.3863C130.668 16.4673 130.421 16.544 130.172 16.6164C130.03 16.6569 129.577 16.8508 129.509 16.6633C129.466 16.5461 129.487 16.3842 129.491 16.2628C129.498 16.0519 129.515 15.8388 129.53 15.6279C129.568 15.0889 129.602 14.5499 129.583 14.0087C129.566 13.5081 129.517 12.9733 129.291 12.5174C129.091 12.1148 128.736 11.8612 128.279 11.8612C126.102 11.8612 125.264 27.0344 127.821 27.0344C129.072 27.0344 129.306 25.5324 129.343 24.6057C129.349 24.4203 129.509 24.2818 129.691 24.2989C131.368 24.4544 134.807 25.5985 134.807 26.3463C134.807 28.0655 131.907 32.9954 127.632 32.9954L127.636 32.9997Z" fill="#473300"/>
<path d="M176.064 15.1717C176.064 19.2238 174.117 21.8997 171.179 23.4272C172.608 25.0975 175.283 28.4402 176.63 29.1433C176.898 29.2839 176.994 29.6226 176.836 29.8825C176.079 31.1374 173.538 33.0953 172.057 33.0953C170.798 33.0953 167.476 29.0815 165.644 26.5228C165.678 28.3848 165.74 29.9294 165.88 30.8285C165.919 31.0735 165.816 31.3249 165.606 31.4569C163.884 32.5456 159.299 32.437 158.697 31.834C158.278 31.4143 158.201 21.7825 158.429 14.8266H158.314C157.55 14.8266 157.32 8.29031 157.626 7.98565C157.969 7.64052 162.397 6.60938 166.102 6.60938C171.866 6.60938 176.064 10.4698 176.064 15.1696V15.1717ZM165.682 19.0321C167.246 18.9171 168.774 18.3056 168.774 14.7903C168.774 13.5291 167.819 12.841 166.521 12.8026C166.291 12.8026 166.063 12.8026 165.795 12.841L165.68 19.0321H165.682Z" fill="#473300"/>
<path d="M186.645 7.64474C187.162 9.43432 189.827 18.3844 190.99 21.6696C190.952 15.095 191.182 7.796 191.639 7.33795C192.48 6.49642 199.044 7.52969 199.044 7.98774C199.044 9.36402 198.357 27.4793 199.044 30.7666C197.708 32.1429 192.059 32.7544 191.448 32.1429C190.876 31.5698 187.822 22.3577 186.182 17.773C186.067 21.595 185.952 26.1052 185.99 30.7304C185.99 31.1501 178.736 32.6798 178.736 31.915C178.736 31.1501 179.27 10.474 179.27 8.63966C179.27 7.06525 184.879 7.26764 186.258 7.34221C186.439 7.35286 186.592 7.4743 186.643 7.649L186.645 7.64474Z" fill="#473300"/>
<path d="M73.0238 14.2153C72.8366 14.4156 72.6515 14.6222 72.4749 14.8395C68.5129 19.7396 69.2682 26.9278 74.1622 30.8926C79.0562 34.8595 86.2355 34.1032 90.1953 29.2031C91.072 28.1187 91.7167 26.9214 92.138 25.6729C93.1722 25.1211 94.1127 24.3563 94.8978 23.3891C98.03 19.5159 97.4321 13.834 93.5637 10.6979C90.5762 8.27772 86.5142 8.08384 83.3757 9.90326C83.0459 8.93603 82.4522 8.04336 81.5989 7.35309C79.186 5.39733 75.6432 5.77016 73.6898 8.18611C72.2663 9.948 72.0833 12.3064 73.0196 14.2153H73.0238Z" fill="#FFD15F"/>
<path d="M86.1508 23.4187C86.1082 23.391 81.9419 20.6044 82.5165 15.9003C82.6058 15.1674 82.0866 14.5027 81.3547 14.4133C80.6248 14.3217 79.9588 14.8436 79.8695 15.5765C79.7014 16.9485 79.8226 18.1906 80.1163 19.2984C79.0077 19.2984 77.6672 19.537 76.3181 20.3573C75.6883 20.7407 75.4883 21.5631 75.8713 22.1916C76.1224 22.6049 76.5607 22.8328 77.0118 22.8328C77.248 22.8328 77.4863 22.7711 77.7033 22.639C79.1907 21.7335 80.6653 21.9381 81.3462 22.1128C82.7314 24.3412 84.5592 25.5662 84.6911 25.6536C84.9166 25.8006 85.1699 25.8709 85.4188 25.8709C85.8529 25.8709 86.2806 25.6578 86.5359 25.2658C86.9381 24.648 86.7657 23.8214 86.1508 23.4166V23.4187Z" fill="#473300"/>
</svg>
