<svg width="100" height="92" viewBox="0 0 100 92" fill="none" xmlns="http://www.w3.org/2000/svg">
<path d="M94.156 40.2452C94.156 32.8951 88.1824 26.9377 80.8123 26.9377C80.6933 26.9377 80.5744 26.9377 80.4554 26.9429C76.0282 14.4503 64.0861 5.49609 50.0442 5.49609C34.9782 5.49609 22.3171 15.812 18.7795 29.7385C7.71143 34.7159 0 45.8313 0 58.7313C0 76.289 14.2695 90.5249 31.8801 90.5249C38.0193 90.5249 43.7395 88.8022 48.6063 85.8054C49.739 89.4005 53.106 92.0001 57.0884 92.0001C62.0018 92.0001 65.9842 88.0285 65.9842 83.1284C65.9842 82.855 65.9687 82.5817 65.948 82.3135C68.3582 83.3141 70.9959 83.866 73.7681 83.866C85.0275 83.866 94.156 74.7622 94.156 63.5334C94.156 58.5405 92.3562 53.9808 89.3719 50.4476C92.2941 48.0079 94.156 44.3406 94.156 40.2452Z" fill="#FFD15F"/>
<path d="M45.7727 42.6899C49.2089 42.6899 51.9946 38.7988 51.9946 33.9988C51.9946 29.1988 49.2089 25.3076 45.7727 25.3076C42.3364 25.3076 39.5508 29.1988 39.5508 33.9988C39.5508 38.7988 42.3364 42.6899 45.7727 42.6899Z" fill="white"/>
<path d="M48.3122 37.5784C50.2774 37.5784 51.8706 35.3684 51.8706 32.6422C51.8706 29.916 50.2774 27.7061 48.3122 27.7061C46.347 27.7061 44.7539 29.916 44.7539 32.6422C44.7539 35.3684 46.347 37.5784 48.3122 37.5784Z" fill="#472B16"/>
<path d="M66.0149 42.6899C69.4511 42.6899 72.2368 38.7988 72.2368 33.9988C72.2368 29.1988 69.4511 25.3076 66.0149 25.3076C62.5786 25.3076 59.793 29.1988 59.793 33.9988C59.793 38.7988 62.5786 42.6899 66.0149 42.6899Z" fill="white"/>
<path d="M68.5583 37.5784C70.5235 37.5784 72.1167 35.3684 72.1167 32.6422C72.1167 29.916 70.5235 27.7061 68.5583 27.7061C66.5931 27.7061 65 29.916 65 32.6422C65 35.3684 66.5931 37.5784 68.5583 37.5784Z" fill="#472B16"/>
<path d="M69.9404 48.8269C69.3197 48.5226 68.5698 48.7805 68.2698 49.3994C66.4027 53.1905 62.6686 55.5529 58.0138 55.8727C52.5315 56.244 46.9095 53.6857 43.9253 49.4768C43.9046 47.4704 43.2115 45.5877 42.4978 44.3859C42.1461 43.7927 41.3858 43.5967 40.7911 43.9475C40.1963 44.2931 39.9946 45.0564 40.3411 45.6496C40.3514 45.6651 41.2048 47.1454 41.3807 48.961C41.6031 51.2202 40.7186 52.9172 38.6861 54.1499C38.0964 54.5058 37.9103 55.2743 38.2671 55.8624C38.505 56.2492 38.9136 56.4607 39.3377 56.4607C39.5601 56.4607 39.7825 56.4039 39.9842 56.2801C41.6806 55.2486 42.7202 53.9849 43.3046 52.6541C46.6871 56.2544 51.7039 58.4052 56.9018 58.4052C57.3311 58.4052 57.7552 58.3897 58.1844 58.364C63.7495 57.9823 68.2388 55.1196 70.5093 50.5032C70.8144 49.8843 70.5558 49.1364 69.9404 48.8372V48.8269Z" fill="#280800"/>
<path d="M10.9671 25.0295C12.3455 23.3865 11.5876 20.4898 9.2742 18.5594C6.96082 16.629 3.96802 16.3959 2.5896 18.0389C1.21118 19.6818 1.96911 22.5786 4.28249 24.509C6.59587 26.4394 9.58866 26.6724 10.9671 25.0295Z" fill="#FFD15F"/>
<path d="M96.0117 16.7867C98.2146 12.6669 97.7795 8.14605 95.0398 6.68899C92.3001 5.23194 88.2933 7.39049 86.0904 11.5102C83.8874 15.63 84.3225 20.1509 87.0622 21.608C89.8019 23.065 93.8087 20.9065 96.0117 16.7867Z" fill="#FFD15F"/>
<path d="M84.5947 5.53789C85.0021 3.01804 83.9745 0.756929 82.2994 0.487559C80.6244 0.21819 78.9362 2.04257 78.5287 4.56242C78.1213 7.08226 79.1489 9.34337 80.824 9.61274C82.4991 9.88211 84.1873 8.05774 84.5947 5.53789Z" fill="#FFD15F"/>
</svg>
