              <svg width="24" height="24" viewBox="0 0 24 24" fill="none" xmlns="http://www.w3.org/2000/svg">
                <path d="M17.6 8.88889H6.4C5.072 8.88889 4 9.93111 4 11.2222V15.8889H7.2V19H16.8V15.8889H20V11.2222C20 9.93111 18.928 8.88889 17.6 8.88889ZM15.2 17.4444H8.8V13.5556H15.2V17.4444ZM17.6 12C17.16 12 16.8 11.65 16.8 11.2222C16.8 10.7944 17.16 10.4444 17.6 10.4444C18.04 10.4444 18.4 10.7944 18.4 11.2222C18.4 11.65 18.04 12 17.6 12ZM16.8 5H7.2V8.11111H16.8V5Z" fill="#999999"></path>
              </svg>
