<svg width="60" height="80" viewBox="0 0 60 80" fill="none" xmlns="http://www.w3.org/2000/svg">
<g style="mix-blend-mode:multiply" opacity="0.15">
<path d="M29.9989 80.003C42.7138 80.003 53.0213 78.2744 53.0213 76.1421C53.0213 74.0098 42.7138 72.2812 29.9989 72.2812C17.284 72.2812 6.97656 74.0098 6.97656 76.1421C6.97656 78.2744 17.284 80.003 29.9989 80.003Z" fill="black"/>
</g>
<path d="M29.9998 1.46094C15.8337 1.46094 1.4375 23.1072 1.4375 43.4796C1.4375 63.8519 10.9263 75.2385 29.9998 75.2385C49.0733 75.2385 58.5621 63.8519 58.5621 43.4796C58.5621 23.1072 44.1659 1.46094 29.9998 1.46094Z" fill="#FFE499"/>
<path d="M30 76.7173C10.3706 76.7173 0 65.2229 0 43.4885C0 21.754 15.1438 0 30 0C44.8562 0 60 21.95 60 43.4885C60 65.0269 49.6294 76.7173 30 76.7173ZM30 2.92993C16.8211 2.92993 2.8754 23.7727 2.8754 43.4787C2.8754 63.1847 12 73.7678 30 73.7678C48 73.7678 57.1246 63.5767 57.1246 43.4787C57.1246 23.3807 43.1789 2.92993 30 2.92993Z" fill="#222222"/>
<g style="mix-blend-mode:multiply" opacity="0.15">
<path d="M58.5717 43.4923C58.5717 63.8646 49.0733 75.2512 30.0094 75.2512C10.9455 75.2512 1.4375 63.8646 1.4375 43.4923C1.4375 42.7181 1.45667 41.9538 1.50459 41.1797C2.36721 59.7686 11.8369 70.0969 30.0094 70.0969C48.1819 70.0969 57.6516 59.7686 58.5142 41.1797C58.5621 41.9538 58.5813 42.7181 58.5813 43.4923H58.5717Z" fill="black"/>
</g>
<path d="M41.0706 17.3869C42.1063 16.2506 41.5363 13.9865 39.7975 12.3299C38.0587 10.6733 35.8095 10.2515 34.7738 11.3878C33.7381 12.5241 34.308 14.7882 36.0469 16.4448C37.7857 18.1014 40.0349 18.5232 41.0706 17.3869Z" fill="white"/>
</svg>
