<svg width="142" height="154" viewBox="0 0 142 154" fill="none" xmlns="http://www.w3.org/2000/svg">
<g style="mix-blend-mode:multiply" opacity="0.15">
<path d="M58.0892 135.463C90.0976 135.463 116.046 130.816 116.046 125.083C116.046 119.35 90.0976 114.703 58.0892 114.703C26.0808 114.703 0.132812 119.35 0.132812 125.083C0.132812 130.816 26.0808 135.463 58.0892 135.463Z" fill="black"/>
</g>
<path d="M125.281 62.5664C125.281 62.5664 117.306 61.7588 115.5 71.991C113.704 82.2232 112.355 104.569 102.634 103.387C92.9243 102.205 97.7033 112.723 97.7033 112.723C97.7033 112.723 109.676 115.126 116.241 104.578C122.806 94.0311 121.71 70.8585 127.169 71.2819C136.351 71.991 134.23 61.9361 125.281 62.5762V62.5664Z" fill="#FFE092"/>
<path d="M100.573 114.398C98.6758 114.398 97.438 114.162 97.3974 114.152C96.9205 114.053 96.5146 113.738 96.3117 113.305C96.0276 112.685 93.6331 107.16 96.1291 103.9C97.438 102.196 99.6905 101.527 102.826 101.911C109.553 102.728 111.704 87.4536 113.145 77.3495C113.439 75.3011 113.713 73.361 113.997 71.7361C115.864 61.1493 123.961 61.041 125.26 61.0804C129.633 60.8047 132.504 62.794 133.742 64.7636C134.868 66.556 134.929 68.5847 133.914 70.1801C133.214 71.283 131.398 73.0656 127.045 72.7406C125.584 72.5928 124.225 80.5895 123.484 84.8734C122.256 91.9739 120.856 100.02 117.548 105.338C112.658 113.197 104.906 114.408 100.583 114.408L100.573 114.398ZM98.7976 111.385C101.426 111.68 109.878 111.926 114.93 103.811C117.934 98.9759 119.283 91.2255 120.47 84.3909C121.972 75.7344 123.048 69.4513 127.279 69.8058C129.267 69.9634 130.749 69.5399 131.317 68.6438C131.723 68.0135 131.652 67.137 131.134 66.3098C130.363 65.0689 128.445 63.828 125.391 64.0447C125.31 64.0447 125.219 64.0447 125.128 64.0447C124.843 64.0151 118.522 63.5917 117 72.2482C116.726 73.8239 116.452 75.7442 116.158 77.773C114.454 89.699 112.12 106.047 102.45 104.865C100.482 104.629 99.1832 104.905 98.5744 105.692C97.5395 107.032 98.2396 109.848 98.8078 111.404L98.7976 111.385Z" fill="#222222"/>
<path d="M23.7033 74.9219C25.9153 81.7269 16.8545 111.074 8.05755 112.896C8.05755 112.896 3.1974 113.123 1.94938 117.584C0.873863 121.444 1.62474 124.103 6.18049 124.418C11.345 124.773 17.514 127.452 20.9334 118.441C22.2524 114.974 28.4113 92.9833 28.4113 92.9833" fill="#FFE092"/>
<path d="M12.4922 126.527C11.1224 126.527 9.78307 126.34 8.55535 126.172C7.68276 126.054 6.8609 125.946 6.07962 125.887C3.68507 125.719 1.97034 124.951 0.965845 123.582C-0.140116 122.075 -0.292344 119.988 0.488931 117.191C1.67606 112.946 5.73463 111.577 7.84509 111.43C9.65116 110.986 11.8326 108.771 14.004 105.146C19.615 95.7809 23.6431 79.6596 22.253 75.3658C21.9994 74.5878 22.4458 73.7606 23.2474 73.5144C24.0489 73.2681 24.9012 73.7015 25.1549 74.4795C26.961 80.024 22.4966 96.8544 16.6319 106.634C13.9025 111.183 11.1326 113.773 8.37273 114.345C8.29155 114.364 8.21039 114.374 8.12922 114.374C7.98717 114.374 4.35473 114.63 3.42126 117.969C2.9038 119.83 2.91396 121.14 3.44158 121.869C3.88802 122.479 4.84178 122.834 6.29272 122.932C7.18561 122.991 8.09875 123.119 8.98149 123.237C13.4966 123.858 17.0682 124.34 19.5034 117.919C20.7818 114.551 26.8798 92.8068 26.9407 92.5803C27.1639 91.7924 27.9959 91.3296 28.8076 91.5463C29.6194 91.7629 30.0962 92.5705 29.873 93.3583C29.6193 94.2545 23.6837 115.448 22.3545 118.944C19.9701 125.227 16.1144 126.517 12.482 126.517L12.4922 126.527Z" fill="#222222"/>
<path d="M103.351 47.2279C105.391 53.0087 106.365 59.085 106.537 65.1908C106.842 76.0336 106.679 95.9169 102.134 106.651C92.3832 129.696 77.7622 127.52 43.3455 126.958C41.3771 126.929 39.5203 126.801 37.7751 126.584H37.765C37.0547 126.702 16.1024 129.735 12.7135 123.186C10.4102 118.774 6.16899 99.1176 14.3977 96.9017C13.6672 91.8496 13.2816 87.1029 13.17 83.3803C12.9671 44.2734 19.3999 34.4253 27.446 27.9059C27.446 27.9059 25.8531 16.0586 30.5306 4.05372C31.1191 2.50757 32.8541 1.71972 34.3862 2.42879C38.4955 4.38856 45.8517 9.35201 49.0681 20.7463C52.7512 20.0471 56.617 19.7122 60.5742 19.7812C62.3396 19.8107 64.0747 19.919 65.7793 20.1062C65.7793 20.1062 74.5864 2.39924 82.4499 1.48337C90.3133 0.577339 87.8173 27.4233 87.8173 27.4233C96.0055 32.436 100.429 38.8963 103.351 47.2082V47.2279Z" fill="#FFE092"/>
<path d="M26.8992 128.877C20.5476 128.877 13.4552 127.903 11.3447 123.855C9.55896 120.428 6.09907 106.788 9.35608 99.6581C10.1475 97.915 11.2838 96.6741 12.7246 95.9552C12.1463 91.6418 11.7607 87.2396 11.6491 83.4284C11.4563 47.0495 16.702 35.025 25.8541 27.2942C25.5802 24.3594 25.0018 14.0879 29.1111 3.54053C29.5474 2.38831 30.4707 1.45274 31.6274 0.999723C32.7435 0.566406 33.9611 0.605799 35.0468 1.10805C39.2373 3.10722 46.6036 8.06082 50.1447 19.071C53.5539 18.5097 57.0747 18.2635 60.6056 18.3226C62.0464 18.3423 63.4771 18.421 64.8875 18.5491C66.9878 14.531 74.6382 0.920939 82.2683 0.0346085C83.6685 -0.132809 84.9571 0.310355 85.992 1.29517C90.7203 5.75636 89.7563 22.2618 89.4114 26.6836C96.8284 31.4402 101.597 37.6642 104.793 46.7541C106.772 52.3872 107.878 58.5718 108.061 65.1503C108.365 76.1507 108.192 96.231 103.545 107.212C94.1193 129.478 79.5998 129.173 50.6622 128.572C48.3183 128.523 45.8731 128.474 43.3263 128.434C41.3883 128.405 39.5315 128.287 37.7965 128.08C36.721 128.237 32.0638 128.887 26.8992 128.887V128.877ZM33.2103 3.65871C33.0378 3.65871 32.8856 3.69811 32.7638 3.74735C32.3986 3.89507 32.1043 4.19051 31.9623 4.58444C27.4776 16.087 28.9488 27.6192 28.9589 27.7275C29.0299 28.2298 28.8271 28.732 28.4212 29.057C21.3593 34.7689 14.48 43.6716 14.693 83.389C14.8148 87.3972 15.2511 92.144 15.9005 96.7135C16.0019 97.4521 15.5352 98.1415 14.7945 98.3385C13.6379 98.6536 12.7653 99.471 12.1362 100.86C9.50826 106.631 12.2478 119.049 14.064 122.525C16.4281 127.075 32.2971 126.012 37.5023 125.135C37.6545 125.106 37.8168 125.106 37.969 125.125C39.6533 125.332 41.4695 125.45 43.377 125.48C45.9339 125.519 48.3792 125.569 50.7332 125.618C79.9853 126.218 92.1002 126.484 100.735 106.089C105.169 95.6105 105.331 75.9931 105.027 65.2291C104.854 58.9559 103.809 53.0568 101.922 47.7093C98.8476 38.9937 94.2512 33.1243 87.0168 28.6926C86.5298 28.3972 86.266 27.8654 86.3167 27.3139C87.027 19.6324 86.9965 6.3571 83.8917 3.42236C83.5061 3.05798 83.1308 2.92995 82.6539 2.97919C76.8907 3.64886 69.5244 16.0575 67.1806 20.7846C66.8965 21.3459 66.2775 21.6906 65.6383 21.6118C63.9946 21.4346 62.29 21.3262 60.5854 21.2967C56.7906 21.2277 53.0161 21.5527 49.3938 22.2323C48.6227 22.38 47.8516 21.9171 47.6385 21.1687C44.5845 10.3653 37.624 5.63818 33.7481 3.78674C33.5654 3.70795 33.4031 3.66856 33.2407 3.66856L33.2103 3.65871Z" fill="#222222"/>
<path d="M106.226 69.9297C106.226 69.9297 98.4846 71.3577 98.6875 74.2136C98.8904 77.0696 106.226 76.6067 106.226 76.6067V69.9395V69.9297Z" fill="#FFC36C"/>
<path d="M105.739 85.1492C105.739 85.1492 98.1395 83.2289 98.5555 80.4911C98.9715 77.7533 106.033 78.6593 106.033 78.6593L105.739 85.1492Z" fill="#FFC36C"/>
<path d="M106.541 65.1797C106.714 71.5317 106.734 80.9958 105.801 89.8984L106.541 65.1797Z" fill="#FFE092"/>
<path d="M105.812 91.3821C105.761 91.3821 105.711 91.3821 105.66 91.3821C104.828 91.3033 104.219 90.5746 104.3 89.767C105.224 80.9431 105.203 71.5578 105.031 65.2354C105.011 64.418 105.67 63.7384 106.512 63.7188C106.522 63.7188 106.543 63.7188 106.553 63.7188C107.375 63.7188 108.054 64.3589 108.075 65.1566C108.257 71.5677 108.268 81.0908 107.334 90.0723C107.253 90.8306 106.593 91.4018 105.822 91.4018L105.812 91.3821Z" fill="#222222"/>
<path d="M35.9516 91.6126C44.4848 92.6368 59.5725 93.858 72.3165 91.7997C76.6185 91.1005 80.2611 94.5966 78.7696 98.1124C76.6794 103.056 71.0785 108.443 56.6097 108.404C36.2053 108.354 30.9393 103.716 29.5898 97.167C28.9303 93.9663 32.167 91.1498 35.9415 91.6028L35.9516 91.6126Z" fill="#FFC36C"/>
<path d="M54.6012 27.5189C54.6012 27.5189 73.4938 25.1849 87.4248 40.4298C92.1328 45.5803 95.4913 52.1786 95.4913 66.2909C95.4913 73.8247 91.3921 80.3146 82.3212 83.2986C63.0734 89.6309 19.8903 89.1385 19.4945 68.5461C19.0785 46.7916 25.7346 28.8287 54.6012 27.5189Z" fill="white"/>
<path d="M56.3864 88.3492C44.6876 88.3492 32.796 86.35 25.3992 81.3078C20.5695 78.0086 18.0634 73.7247 17.9619 68.5741C17.6271 51.0544 21.0464 27.5863 54.4687 26.0401C55.9197 25.8826 74.5283 24.0902 88.5608 39.4434C92.944 44.2395 97.0127 50.818 97.0127 66.2894C97.0127 75.0148 91.838 81.7214 82.8077 84.6955C76.04 86.9212 66.2792 88.3492 56.3864 88.3492ZM57.2691 28.8764C55.737 28.8764 54.834 28.9749 54.7934 28.9847C54.7528 28.9847 54.7122 28.9847 54.6717 28.9847C30.8884 30.068 20.5087 42.26 21.016 68.5151C21.0972 72.671 23.1569 76.1572 27.1546 78.8851C39.8274 87.5318 68.0041 86.4386 81.8337 81.8888C89.6566 79.3184 93.9688 73.7739 93.9688 66.2795C93.9688 51.793 90.2755 45.7561 86.2879 41.3933C75.9893 30.1271 62.7076 28.8666 57.2691 28.8666V28.8764Z" fill="#222222"/>
<path d="M105.927 88.6016C104.446 93.5552 108.038 110.858 112.38 110.543C112.38 110.543 117.058 112.02 118.56 116.038C120.081 120.125 117.697 122.006 114.511 122.745C109.468 123.907 103.025 125.67 98.916 117.604C98.3377 116.472 97.3231 110.612 96.1562 104.546" fill="#FFE092"/>
<path d="M108.11 125.217C104.336 125.217 100.379 123.809 97.5581 118.254C97.0305 117.22 96.442 114.177 95.3563 108.436C95.1331 107.264 94.9099 106.043 94.6664 104.812C94.5142 104.014 95.0519 103.236 95.8839 103.088C96.716 102.94 97.5074 103.462 97.6596 104.27C97.8929 105.501 98.1263 106.722 98.3495 107.904C99.0801 111.794 99.9121 116.206 100.288 116.944C103.737 123.71 108.811 122.538 113.711 121.406L114.158 121.297C115.253 121.051 116.674 120.539 117.232 119.534C117.638 118.806 117.597 117.801 117.131 116.541C116.075 113.704 112.95 112.345 112.118 112.02C111.043 111.981 110.028 111.4 109.105 110.287C105.452 105.914 103.088 92.8264 104.478 88.1879C104.711 87.4099 105.554 86.9569 106.365 87.1834C107.177 87.4099 107.633 88.2273 107.4 89.0151C106.294 92.7082 108.547 104.93 111.469 108.426C111.925 108.977 112.23 109.095 112.27 109.066C112.463 109.056 112.666 109.066 112.859 109.135C113.082 109.204 118.267 110.888 120.002 115.536C120.783 117.624 120.753 119.446 119.921 120.943C119.038 122.528 117.344 123.612 114.878 124.183L114.432 124.281C112.585 124.705 110.393 125.217 108.121 125.217H108.11Z" fill="#222222"/>
<path d="M80.2796 110.906C81.9132 105.243 84.876 100.27 90.1826 100.004C100.299 99.5014 100.989 115.593 97.5286 123.944C96.7676 125.796 95.8341 127.588 93.7642 128.169C90.6899 129.046 85.8906 129.607 81.0913 126.968C79.2853 125.973 78.2301 124.141 78.3721 122.221C78.4431 121.236 78.5548 120.035 78.7171 118.715" fill="#FFE092"/>
<path d="M88.691 130.372C86.1138 130.372 83.2424 129.83 80.3507 128.244C78.017 126.954 76.6777 124.61 76.8603 122.109C76.9516 120.908 77.0734 119.696 77.2154 118.524C77.3169 117.717 78.0779 117.155 78.9099 117.234C79.7419 117.333 80.3405 118.071 80.2391 118.879C80.097 120.002 79.9854 121.154 79.8941 122.306C79.7926 123.655 80.5434 124.945 81.8523 125.664C86.1443 128.028 90.4768 127.555 93.3381 126.738C94.647 126.363 95.3471 125.221 96.1182 123.379C98.4417 117.776 98.7259 108.41 95.4384 103.929C94.1397 102.167 92.4554 101.349 90.2638 101.467C86.4487 101.655 83.5772 104.963 81.7509 111.296C81.5277 112.084 80.6855 112.537 79.8738 112.32C79.0621 112.103 78.5953 111.286 78.8186 110.498C81.5885 100.926 86.4893 98.7001 90.1115 98.513C93.3381 98.3554 96.0269 99.6357 97.9243 102.206C101.973 107.711 101.607 118.052 98.9491 124.473C98.3403 125.96 97.1938 128.717 94.2006 129.564C92.6685 129.997 90.7812 130.352 88.691 130.352V130.372Z" fill="#222222"/>
<path d="M30.2603 113.881H30.2298L26.5466 113.822C25.7045 113.812 25.0348 113.132 25.0551 112.315C25.0653 111.497 25.7654 110.877 26.6076 110.867L30.2907 110.926C31.1328 110.936 31.8025 111.616 31.7822 112.433C31.7721 113.241 31.0923 113.881 30.2603 113.881Z" fill="#222222"/>
<path d="M47.7292 51.5278C47.648 56.2056 44.4519 57.4268 40.5354 57.3677C36.6189 57.2988 33.4633 55.9791 33.5445 51.2914C33.6257 46.6037 36.8624 42.8713 40.7789 42.9304C44.6954 42.9993 47.8003 46.8401 47.7191 51.5179L47.7292 51.5278Z" fill="#303030"/>
<path d="M40.0923 47.113C40.1055 46.3517 39.3805 45.7224 38.4728 45.7074C37.5652 45.6925 36.8186 46.2977 36.8053 47.059C36.792 47.8203 37.5171 48.4496 38.4247 48.4645C39.3324 48.4794 40.079 47.8744 40.0923 47.113Z" fill="white"/>
<path d="M73.6315 51.9575C73.5504 56.6353 70.3542 57.8565 66.4377 57.7974C62.5212 57.7383 59.3657 56.4088 59.4468 51.7211C59.528 47.0334 62.7647 43.301 66.6813 43.3601C70.5978 43.429 73.7025 47.2698 73.6214 51.9476L73.6315 51.9575Z" fill="#303030"/>
<path d="M65.9985 47.5348C66.0118 46.7735 65.2868 46.1442 64.3791 46.1293C63.4714 46.1144 62.7248 46.7195 62.7115 47.4808C62.6983 48.2422 63.4233 48.8715 64.331 48.8864C65.2387 48.9013 65.9852 48.2962 65.9985 47.5348Z" fill="white"/>
<path d="M36.4369 60.1602C36.4625 58.6919 33.6309 57.4547 30.1122 57.3969C26.5936 57.3391 23.7204 58.4825 23.6948 59.9508C23.6692 61.4191 26.5008 62.6563 30.0195 62.7141C33.5381 62.7719 36.4113 61.6285 36.4369 60.1602Z" fill="#FF7471"/>
<path d="M82.4799 60.9102C82.5055 59.4418 79.6738 58.2047 76.1552 58.1468C72.6366 58.089 69.7634 59.2324 69.7378 60.7008C69.7122 62.1691 72.5438 63.4063 76.0624 63.4641C79.5811 63.5219 82.4543 62.3785 82.4799 60.9102Z" fill="#FF7471"/>
<path d="M57.0057 62.6005C54.0632 65.6436 51.1817 65.5943 48.3508 62.4626C48.0566 62.1376 47.9044 61.7043 47.9145 61.271C47.9348 60.2763 48.777 59.4885 49.7916 59.5082L55.6562 59.6067C56.681 59.6264 57.4927 60.4437 57.4725 61.4286C57.4725 61.8619 57.2999 62.2952 56.9955 62.6103L57.0057 62.6005Z" fill="#303030"/>
<path d="M50.2077 61.5201C50.7344 61.5201 51.1614 61.2953 51.1614 61.0179C51.1614 60.7405 50.7344 60.5156 50.2077 60.5156C49.6809 60.5156 49.2539 60.7405 49.2539 61.0179C49.2539 61.2953 49.6809 61.5201 50.2077 61.5201Z" fill="white"/>
<path d="M52.5929 68.2326H52.5726C52.0146 68.2326 51.5681 67.7796 51.5783 67.2281L51.6189 64.7464C51.6189 64.2047 52.0958 63.7911 52.6538 63.7812C53.2119 63.7812 53.6583 64.2343 53.6481 64.7858L53.6076 67.2675C53.6076 67.8091 53.1408 68.2326 52.5929 68.2326Z" fill="#222222"/>
<path d="M37.7756 126.57C37.7756 126.57 17.2798 133.73 10.9078 123.685C8.00596 119.115 2.95306 95.5682 13.9822 96.8386C25.0114 98.0992 26.5029 115.895 26.5029 115.895" fill="#FFE092"/>
<path d="M23.6013 130.53C18.1628 130.53 12.6026 129.171 9.61951 124.463C7.33657 120.869 3.26787 104.895 7.61054 98.2869C9.08177 96.0612 11.3546 95.0469 14.1753 95.3719C26.3003 96.7605 27.9744 114.999 28.0353 115.777C28.1063 116.595 27.4773 117.304 26.6452 117.373C25.8132 117.461 25.0726 116.831 25.0015 116.023C24.9914 115.856 23.4795 99.4195 13.8201 98.3165C12.1663 98.1294 11.0096 98.6218 10.1776 99.8823C6.72783 105.122 10.208 119.756 12.217 122.917C17.8584 131.82 37.0859 125.251 37.2787 125.182C38.0701 124.906 38.9427 125.31 39.2268 126.078C39.5109 126.846 39.1051 127.693 38.3136 127.969C37.8063 128.146 30.8256 130.539 23.6216 130.539L23.6013 130.53Z" fill="#222222"/>
<path d="M73.6158 23.2686C72.2967 22.914 71.7488 21.3777 72.5605 20.3141C75.1885 16.8771 79.937 11.0667 80.9415 12.6621C81.946 14.2575 81.7025 19.9202 81.4792 23.3276C81.3981 24.6079 80.0587 25.445 78.8209 24.9821C77.3496 24.4306 75.432 23.761 73.6158 23.2686Z" fill="#FFC36C"/>
<path d="M40.7715 23.654C42.121 23.4177 42.8211 21.9503 42.1108 20.8079C39.838 17.1444 35.6882 10.9106 34.5315 12.4075C33.3748 13.9044 33.0501 19.5572 32.9385 22.9745C32.8979 24.2646 34.1458 25.21 35.4243 24.8653C36.9361 24.4616 38.9248 23.9691 40.7816 23.654H40.7715Z" fill="#FFC36C"/>
<path d="M42.1216 22.2792C41.5838 22.2792 41.0562 22.0035 40.7823 21.511C38.6718 17.7589 34.6741 13.1894 34.6335 13.15C34.0856 12.5296 34.1668 11.594 34.806 11.072C35.4452 10.5402 36.4091 10.619 36.9469 11.2395C37.1194 11.4364 41.178 16.0749 43.4508 20.1028C43.8566 20.8217 43.5827 21.7179 42.842 22.1118C42.6087 22.23 42.3651 22.289 42.1115 22.289L42.1216 22.2792Z" fill="#222222"/>
<path d="M72.1856 22.7704C71.9928 22.7704 71.8 22.731 71.6174 22.6621C70.8361 22.3568 70.4607 21.5 70.7752 20.7417C72.7944 15.8866 78.6894 11.5436 78.9431 11.3663C79.6128 10.8739 80.5666 11.0118 81.0739 11.6617C81.5812 12.3117 81.4391 13.2374 80.7694 13.7298C80.7187 13.7692 75.3006 17.7676 73.596 21.8545C73.3525 22.4257 72.7842 22.7803 72.1856 22.7803V22.7704Z" fill="#222222"/>
<path d="M86.5717 123.537C84.5019 122.69 83.3046 120.474 83.5988 118.248C84.0453 114.9 86.3993 106.5 90.265 106.913C96.3428 107.573 95.0947 115.205 93.9279 118.524C92.9437 121.331 91.6348 125.625 86.5616 123.537H86.5717Z" fill="#FFC36C"/>
<path d="M18.0726 122.556C20.1628 122.418 23.0545 120.488 23.1357 118.735C23.2676 116.105 20.4063 103.165 14.6127 104.77C9.56993 106.178 11.8529 113.437 12.4008 116.184C12.8574 118.498 14.1155 122.812 18.0726 122.556Z" fill="#FFC36C"/>
<g style="mix-blend-mode:multiply" opacity="0.15">
<path d="M103.293 153.993C111.172 153.993 117.559 152.926 117.559 151.61C117.559 150.294 111.172 149.227 103.293 149.227C95.4144 149.227 89.0273 150.294 89.0273 151.61C89.0273 152.926 95.4144 153.993 103.293 153.993Z" fill="black"/>
</g>
<path d="M103.292 150.473C112.986 150.473 120.845 142.845 120.845 133.436C120.845 124.026 112.986 116.398 103.292 116.398C93.5972 116.398 85.7383 124.026 85.7383 133.436C85.7383 142.845 93.5972 150.473 103.292 150.473Z" fill="#FCAC90"/>
<path d="M103.292 151.958C100.785 151.958 98.2893 151.475 95.9049 150.5C91.2071 148.59 87.5646 145.015 85.6368 140.436C83.7089 135.856 83.7394 130.824 85.7078 126.264C87.6762 121.705 91.3593 118.169 96.0774 116.298C100.795 114.427 105.98 114.456 110.668 116.367C115.356 118.277 119.008 121.852 120.936 126.432C122.864 131.011 122.834 136.043 120.865 140.603C118.897 145.163 115.214 148.698 110.496 150.569C108.172 151.495 105.727 151.958 103.281 151.958H103.292ZM103.292 117.874C101.242 117.874 99.1822 118.258 97.2341 119.036C93.2669 120.602 90.1722 123.586 88.5183 127.416C86.8644 131.247 86.8441 135.472 88.4574 139.323C90.0809 143.173 93.1451 146.177 97.0921 147.782C101.039 149.388 105.392 149.407 109.359 147.841C113.326 146.276 116.421 143.292 118.075 139.461C119.729 135.63 119.749 131.405 118.136 127.554C116.512 123.704 113.448 120.7 109.501 119.095C107.502 118.277 105.402 117.874 103.302 117.874H103.292Z" fill="#222222"/>
<path d="M87.9207 142.871C87.4642 142.871 87.038 142.625 86.8046 142.231C86.4292 141.571 86.1248 140.951 85.8711 140.34C83.0504 133.634 84.5825 125.922 89.7978 120.713C90.1529 120.358 90.6806 120.24 91.1473 120.417C91.6242 120.585 91.9387 121.018 91.9692 121.501C92.3547 128.247 91.3908 135.15 89.1282 142.014C88.976 142.487 88.5498 142.812 88.0425 142.861C88.0019 142.861 87.9613 142.861 87.9207 142.861V142.871ZM89.5137 125.026C87.0279 128.857 86.3379 133.584 87.6975 137.967C88.8542 133.634 89.463 129.3 89.5137 125.026Z" fill="#222222"/>
<path d="M92.4446 148.036C92.1605 148.036 91.8866 147.948 91.6633 147.77C89.6645 146.244 88.0309 144.373 86.8133 142.216C86.6408 141.921 86.6104 141.566 86.722 141.251C88.8934 134.682 89.8166 128.074 89.4514 121.634C89.4311 121.289 89.563 120.954 89.8065 120.708C91.501 119.014 93.51 117.665 95.7828 116.7C96.1481 116.542 96.564 116.562 96.909 116.749C97.254 116.936 97.4874 117.261 97.5483 117.645C99.0195 127.336 97.7106 137.292 93.6418 147.249C93.4896 147.613 93.1751 147.879 92.7896 147.987C92.678 148.017 92.5663 148.027 92.4547 148.027L92.4446 148.036ZM89.2992 141.497C90.0196 142.689 90.8922 143.762 91.9068 144.727C95.0827 136.307 96.1988 127.907 95.245 119.713C94.0579 120.363 92.9722 121.151 91.9981 122.057C92.2924 128.458 91.3792 134.997 89.2992 141.497Z" fill="#222222"/>
<path d="M103.283 151.684C101.264 151.684 99.275 151.369 97.3675 150.758C97.0326 150.65 96.7587 150.404 96.6065 150.098C96.4644 149.783 96.4543 149.429 96.6065 149.114C101.436 138.163 102.806 127.261 100.685 116.703C100.614 116.359 100.706 116.004 100.919 115.719C101.142 115.443 101.467 115.266 101.832 115.236C103.963 115.069 106.124 115.275 108.244 115.837C108.701 115.955 109.056 116.319 109.158 116.782C111.501 127.92 110.132 139.413 105.089 150.935C104.896 151.379 104.46 151.664 103.963 151.684C103.739 151.684 103.516 151.694 103.293 151.694L103.283 151.684ZM99.488 148.789C100.655 149.064 101.852 149.202 103.06 149.222C107.524 138.675 108.792 128.196 106.814 118.023C105.688 117.777 104.561 117.649 103.435 117.639C105.19 127.832 103.871 138.291 99.488 148.789Z" fill="#222222"/>
<path d="M97.7618 150.814C97.6299 150.814 97.498 150.794 97.3661 150.755C95.2963 150.085 93.3786 149.08 91.6639 147.78C91.2174 147.446 91.0652 146.865 91.2681 146.362C95.1745 136.81 96.4327 127.277 95.0223 118.019C94.9411 117.468 95.2455 116.936 95.763 116.71L95.8847 116.651C95.9761 116.601 96.0775 116.562 96.179 116.523C97.9749 115.814 99.8723 115.37 101.82 115.223C102.47 115.173 103.038 115.597 103.16 116.217C105.382 127.267 103.961 138.661 98.9287 150.065C98.7257 150.528 98.259 150.814 97.7618 150.814ZM93.9772 146.382C94.9411 147.032 95.976 147.584 97.0617 148.017C101.354 137.814 102.632 127.661 100.887 117.803C99.7911 117.96 98.7055 118.226 97.6705 118.601C98.8881 127.7 97.6401 137.036 93.9772 146.372V146.382Z" fill="#222222"/>
<path d="M103.901 151.673C103.485 151.673 103.09 151.476 102.856 151.142C102.613 150.797 102.562 150.354 102.735 149.96C107.574 138.9 108.893 127.9 106.651 117.264C106.56 116.85 106.702 116.407 107.027 116.122C107.351 115.826 107.808 115.718 108.224 115.836C113.926 117.353 118.482 121.252 120.704 126.531C120.968 127.152 121.201 127.841 121.424 128.619C122.053 130.864 122.246 133.149 121.993 135.414C121.759 137.453 121.161 139.462 120.197 141.382C119.162 143.45 117.761 145.292 116.026 146.838C114.352 148.345 112.455 149.517 110.395 150.334C108.356 151.142 106.184 151.585 103.932 151.663C103.922 151.663 103.901 151.663 103.891 151.663L103.901 151.673ZM107.392 144.839C106.935 146.237 106.428 147.626 105.87 149.024C107.108 148.837 108.305 148.512 109.452 148.059C110.507 147.645 111.511 147.114 112.465 146.474C110.75 145.981 109.056 145.43 107.402 144.829L107.392 144.839ZM108.112 142.475C110.294 143.273 112.546 143.972 114.819 144.573C115.712 143.696 116.493 142.731 117.153 141.687C114.413 141.037 111.653 140.21 108.934 139.235C108.691 140.318 108.417 141.392 108.112 142.475ZM109.421 136.783C112.374 137.866 115.357 138.753 118.33 139.432C118.776 138.388 119.101 137.325 119.304 136.251C116.179 135.591 113.023 134.695 109.888 133.572C109.766 134.636 109.604 135.71 109.421 136.783ZM110.131 131.022C113.277 132.174 116.442 133.1 119.568 133.779C119.598 132.509 119.456 131.238 119.162 129.978C116.179 129.308 113.196 128.451 110.243 127.408C110.243 128.609 110.202 129.811 110.121 131.022H110.131ZM110.182 124.758C112.851 125.743 115.56 126.57 118.269 127.24C116.584 123.399 113.47 120.435 109.533 118.859C109.868 120.819 110.081 122.789 110.182 124.758Z" fill="#222222"/>
<path d="M125.146 140.35C121.828 140.35 119.474 137.868 119.373 137.76C118.805 137.159 118.855 136.223 119.474 135.672C120.093 135.13 121.057 135.169 121.615 135.77C121.656 135.81 123.269 137.435 125.268 137.395C126.536 137.346 127.784 136.588 128.971 135.14C130.909 132.786 133.091 131.516 135.485 131.378C138.935 131.191 141.441 133.505 141.543 133.604C142.141 134.175 142.152 135.11 141.563 135.691C140.975 136.272 140.011 136.282 139.412 135.711C139.412 135.711 137.758 134.204 135.638 134.323C134.156 134.421 132.715 135.307 131.346 136.972C129.57 139.138 127.551 140.261 125.339 140.34C125.268 140.34 125.197 140.34 125.126 140.34L125.146 140.35Z" fill="#222222"/>
</svg>
