<svg width="32" height="32" class="me-2" viewBox="0 0 32 32" fill="none" xmlns="http://www.w3.org/2000/svg">
                            <path d="M26.6668 16.0003C26.6668 17.1545 25.6936 18.1278 25.367 19.1708C25.0273 20.2485 25.2559 21.6321 24.6289 22.529C23.9953 23.4329 22.6562 23.6345 21.7875 24.295C20.9253 24.9486 20.3308 26.214 19.2988 26.5686C18.2994 26.9093 17.1106 26.2557 16.0002 26.2557C14.8897 26.2557 13.7009 26.9093 12.7015 26.5686C11.6695 26.2209 11.0751 24.9486 10.2129 24.295C9.34411 23.6345 8.00506 23.4329 7.37146 22.529C6.7444 21.6321 6.97301 20.2485 6.63335 19.1708C6.30676 18.1278 5.3335 17.1545 5.3335 16.0003C5.3335 14.8461 6.30676 13.8727 6.63335 12.8298C6.97301 11.7521 6.7444 10.3685 7.37146 9.47158C8.00506 8.56772 9.34411 8.36608 10.2129 7.70557C11.0751 7.052 11.6695 5.78659 12.7015 5.43199C13.7009 5.0913 14.8897 5.74487 15.9936 5.74487C17.0975 5.74487 18.2929 5.0913 19.2923 5.43199C20.3243 5.77963 20.9187 7.052 21.7809 7.70557C22.6497 8.36608 23.9887 8.56772 24.6223 9.47158C25.2494 10.3685 25.0208 11.7521 25.3604 12.8298C25.687 13.8658 26.6603 14.8461 26.6603 16.0003H26.6668Z" fill="#FF5065"></path>
                            <path d="M16.0026 23.8283C11.8549 23.8283 8.48438 20.3171 8.48438 15.9994C8.48438 11.6817 11.8549 8.17053 16.0026 8.17053C20.1504 8.17053 23.5209 11.6817 23.5209 15.9994C23.5209 20.3171 20.1504 23.8283 16.0026 23.8283ZM16.0026 9.5611C12.5799 9.5611 9.79076 12.4465 9.79076 15.9994C9.79076 19.5523 12.5799 22.4377 16.0026 22.4377C19.4254 22.4377 22.2145 19.5523 22.2145 15.9994C22.2145 12.4465 19.4319 9.5611 16.0026 9.5611Z" fill="white"></path>
                            <path d="M16.4039 13.2053L16.9526 14.5264C17.0179 14.6793 17.1551 14.7836 17.3119 14.7975L18.6836 14.9366C18.9187 14.9574 19.0951 15.173 19.0755 15.4233C19.069 15.5415 19.0167 15.6527 18.9318 15.7292L17.8998 16.6817C17.7822 16.793 17.7299 16.9599 17.7626 17.1198L18.063 18.5242C18.1088 18.7745 17.9585 19.0179 17.7234 19.0666C17.6189 19.0874 17.5078 19.0666 17.4164 19.0109L16.2276 18.2809C16.0904 18.1975 15.9206 18.1975 15.7834 18.2809L14.5946 19.0109C14.3921 19.143 14.1243 19.0666 14.0002 18.851C13.9479 18.7537 13.9283 18.6355 13.9479 18.5242L14.2484 17.1198C14.2811 16.9599 14.2288 16.786 14.1112 16.6817L13.0792 15.7292C12.9028 15.5623 12.8832 15.2773 13.0335 15.0895C13.1053 14.9992 13.2098 14.9435 13.3209 14.9366L14.6926 14.7975C14.8493 14.7836 14.9865 14.6793 15.0518 14.5264L15.6005 13.2053C15.6985 12.9689 15.9598 12.8646 16.1819 12.9759C16.2798 13.0246 16.3517 13.101 16.3974 13.2053H16.4039Z" fill="white"></path>
                          </svg>