<svg width="130" height="174" viewBox="0 0 130 174" fill="none" xmlns="http://www.w3.org/2000/svg">
<g style="mix-blend-mode:multiply" opacity="0.15">
<path d="M57.4446 173.997C89.1703 173.997 114.889 169.578 114.889 164.127C114.889 158.676 89.1703 154.258 57.4446 154.258C25.7188 154.258 0 158.676 0 164.127C0 169.578 25.7188 173.997 57.4446 173.997Z" fill="black"/>
</g>
<path d="M118.5 71.7093C118.5 71.7093 108.302 70.6348 106.006 84.1754C103.709 97.7159 101.986 127.264 89.5702 125.712C77.1546 124.15 83.2733 138.059 83.2733 138.059C83.2733 138.059 98.57 141.243 106.966 127.284C115.362 113.326 113.956 82.6731 120.926 83.2302C132.659 84.1754 129.946 70.8637 118.51 71.7193L118.5 71.7093Z" fill="#FFB0CA"/>
<path d="M86.9575 139.826C84.5714 139.826 83.0269 139.518 82.9774 139.508C82.512 139.408 82.116 139.09 81.918 138.652C81.5714 137.856 78.5913 130.773 81.6309 126.674C83.1952 124.564 85.9278 123.729 89.7595 124.216C98.7791 125.35 101.591 104.875 103.462 91.3249C103.838 88.6188 104.185 86.0619 104.551 83.9129C106.888 70.1436 117.056 70.1237 118.501 70.2032C123.086 69.8749 126.977 71.6259 128.927 74.8494C130.274 77.078 130.353 79.5752 129.155 81.5351C128.313 82.8981 126.115 85.1367 120.808 84.6989C120.789 84.6989 120.769 84.6989 120.749 84.6989C118.521 84.6989 116.927 94.1902 115.769 101.135C114.205 110.487 112.422 121.092 108.244 128.047C102.106 138.254 92.3832 139.826 86.9674 139.826H86.9575ZM84.3338 136.712C87.4129 137.12 98.8979 137.797 105.69 126.504C109.581 120.038 111.304 109.731 112.828 100.647C114.71 89.4346 116.066 81.3461 121.036 81.7341C123.769 81.953 125.798 81.3163 126.62 79.9731C127.224 78.9882 127.135 77.655 126.383 76.4114C125.323 74.6604 122.729 72.8895 118.61 73.1979C118.521 73.1979 118.442 73.1979 118.353 73.1979C117.967 73.1581 109.492 72.5214 107.472 84.4303C107.116 86.5295 106.769 89.0665 106.393 91.7527C104.244 107.343 101.343 128.713 89.3832 127.191C86.6902 126.853 84.8784 127.281 84.0071 128.464C82.5121 130.484 83.5714 134.643 84.3338 136.722V136.712Z" fill="#222222"/>
<path d="M110.816 97.434C110.579 98.5284 107.688 98.8666 103.945 98.3493C104.183 96.7774 104.411 95.2054 104.609 93.7031C108.381 94.7677 111.054 96.3197 110.816 97.434Z" fill="#FF92AA"/>
<path d="M111.909 89.731C111.493 90.7259 108.711 90.5468 105.246 89.4026C105.484 87.6715 105.721 86.0498 105.959 84.6172C109.791 86.4279 112.375 88.6266 111.909 89.731Z" fill="#FF92AA"/>
<path d="M114.203 82.0785C113.628 82.9938 110.688 82.1979 107.371 80.3275C107.906 78.7556 108.619 77.5219 109.401 76.5469C112.678 78.7456 114.787 81.1333 114.203 82.0785Z" fill="#FF92AA"/>
<path d="M86.9575 139.826C84.5714 139.826 83.0269 139.518 82.9774 139.508C82.512 139.408 82.116 139.09 81.918 138.652C81.5714 137.856 78.5913 130.773 81.6309 126.674C83.1952 124.564 85.9278 123.729 89.7595 124.216C98.7791 125.35 101.591 104.875 103.462 91.3249C103.838 88.6188 104.185 86.0619 104.551 83.9129C106.888 70.1436 117.056 70.1237 118.501 70.2032C123.086 69.8749 126.977 71.6259 128.927 74.8494C130.274 77.078 130.353 79.5752 129.155 81.5351C128.313 82.8981 126.115 85.1367 120.808 84.6989C120.789 84.6989 120.769 84.6989 120.749 84.6989C118.521 84.6989 116.927 94.1902 115.769 101.135C114.205 110.487 112.422 121.092 108.244 128.047C102.106 138.254 92.3832 139.826 86.9674 139.826H86.9575ZM84.3338 136.712C87.4129 137.12 98.8979 137.797 105.69 126.504C109.581 120.038 111.304 109.731 112.828 100.647C114.71 89.4346 116.066 81.3461 121.036 81.7341C123.769 81.953 125.798 81.3163 126.62 79.9731C127.224 78.9882 127.135 77.655 126.383 76.4114C125.323 74.6604 122.729 72.8895 118.61 73.1979C118.521 73.1979 118.442 73.1979 118.353 73.1979C117.967 73.1581 109.492 72.5214 107.472 84.4303C107.116 86.5295 106.769 89.0665 106.393 91.7527C104.244 107.343 101.343 128.713 89.3832 127.191C86.6902 126.853 84.8784 127.281 84.0071 128.464C82.5121 130.484 83.5714 134.643 84.3338 136.722V136.712Z" fill="#222222"/>
<path d="M28.5663 92.452C28.5663 92.452 20.8832 100.381 16.4773 105.624C12.5071 110.35 0.735029 120.518 2.60628 132.198C3.02212 134.815 4.80426 137.004 7.23986 138.018C9.94278 139.153 13.4279 139.74 14.616 136.118L28.5762 92.452H28.5663Z" fill="#FFB0CA"/>
<path d="M10.8928 140.386C9.64532 140.386 8.23945 140.058 6.66522 139.401C3.74447 138.177 1.62568 135.511 1.14054 132.447C-0.552497 121.851 7.982 112.668 13.0809 107.176C13.9819 106.211 14.7541 105.376 15.3482 104.669C19.7343 99.446 27.4272 91.4968 27.5064 91.4172C27.546 91.3674 27.5955 91.3276 27.6451 91.2878C27.8134 91.1585 28.0213 91.059 28.2391 91.0093L31.6152 90.3128C32.4172 90.1437 33.1994 90.671 33.3677 91.4769C33.3875 91.5764 33.3974 91.6759 33.3974 91.7753C33.3974 92.4718 32.9123 93.0886 32.2093 93.2378L29.6846 93.7552L15.9918 136.586C15.467 138.187 14.5463 139.302 13.2295 139.908C12.5265 140.237 11.7344 140.396 10.8532 140.396L10.8928 140.386ZM25.1797 98.1825C22.7342 100.799 19.764 104.032 17.6155 106.589C16.9819 107.345 16.1799 108.211 15.2492 109.206C10.5265 114.29 2.60589 122.806 4.07121 131.959C4.39793 134.019 5.83351 135.81 7.80377 136.635C9.62552 137.401 11.1305 137.59 12.0215 137.173C12.5562 136.924 12.9423 136.426 13.1898 135.65L25.1698 98.1825H25.1797Z" fill="#222222"/>
<path d="M6.86272 127.037C6.86272 127.037 8.33796 121.804 11.3973 124.211C14.4567 126.619 15.922 135.374 12.0211 135.683C8.11024 136.001 5.14989 132.24 6.87263 127.037H6.86272Z" fill="#FF92AA"/>
<path d="M24.5842 145.602H49.4649C50.0689 145.602 50.554 146.089 50.554 146.696V155.232C50.554 160.137 46.5937 164.127 41.7027 164.127H15.822C13.1488 164.127 10.9805 161.948 10.9805 159.262C10.9805 151.72 17.0695 145.602 24.5743 145.602H24.5842Z" fill="#FFB0CA"/>
<path d="M41.7034 165.619H15.8227C12.3376 165.619 9.49609 162.774 9.49609 159.262C9.49609 150.905 16.2583 144.109 24.575 144.109H49.4558C50.8815 144.109 52.03 145.273 52.03 146.696V155.232C52.03 160.953 47.3964 165.619 41.6936 165.619H41.7034ZM24.5849 147.094C17.9019 147.094 12.4762 152.556 12.4762 159.262C12.4762 161.122 13.9811 162.634 15.8326 162.634H41.7133C45.7727 162.634 49.0795 159.311 49.0795 155.232V147.094H24.5948H24.5849Z" fill="#222222"/>
<path d="M16.196 153.497C15.5425 154.701 16.5227 156.243 17.8593 155.964C18.3147 155.875 18.79 155.566 19.2058 154.9C19.9682 153.666 21.4335 153.288 22.5919 153.199C24.0473 153.089 24.3146 151.05 22.9186 150.622C22.8889 150.622 22.8493 150.602 22.8196 150.592C20.3444 149.866 17.2851 151.468 16.196 153.497Z" fill="white"/>
<path d="M32.4745 151.494C21.1677 147.822 13.7817 140.918 13.7817 129.715C13.7817 125.218 14.9698 120.93 17.1282 117.02C19.8014 112.165 22.0687 107.091 23.5043 101.719C24.534 97.8587 25.534 93.4016 26.0984 89.1036C11.6729 82.2488 4.01948 69.9121 15.0985 53.3172C16.2668 51.5662 17.2866 49.7156 18.1579 47.7955C19.7519 44.2437 21.8212 41.1396 24.2667 38.4435C23.8706 38.2345 20.4153 31.4394 21.3063 23.5399C22.1578 15.9886 23.3063 8.98454 24.2271 4.43786C24.7617 1.76159 27.9399 0.65725 30.0389 2.39832C35.4843 6.93505 43.6921 15.8195 42.3257 27.3901C49.6127 25.1914 57.573 24.7736 65.1967 26.0172C64.5927 15.0534 72.4639 6.65648 77.6915 2.31873C79.7311 0.627403 82.8102 1.63225 83.4538 4.20903C84.1171 6.90521 84.9686 10.2779 86.7804 17.0432C88.3448 22.8733 87.2953 31.0016 86.7904 35.21C95.6813 42.1942 101.374 52.7799 100.335 66.609C99.9386 75.5432 93.4734 83.7411 86.5329 88.4072C87.8002 94.8442 92.2655 104.425 96.5823 113.608C100.117 118.383 102.127 123.865 102.127 129.705C102.127 148.041 82.3548 154.856 57.9691 154.856C52.3751 154.856 47.0187 154.498 42.0881 153.722" fill="#FFB0CA"/>
<path d="M57.9588 156.36C52.1272 156.36 46.7114 155.972 41.8501 155.216C41.0382 155.087 40.4838 154.321 40.6125 153.515C40.7412 152.699 41.5036 152.152 42.3056 152.271C47.0084 153.008 52.2757 153.386 57.9488 153.386C73.8892 153.386 100.621 150.311 100.621 129.727C100.621 124.404 98.8095 119.151 95.3739 114.535C95.2848 114.416 95.2254 114.296 95.1759 114.157C91.0472 105.362 86.3741 95.413 85.0672 88.7074C84.9484 88.1204 85.1959 87.5136 85.7008 87.1753C91.5126 83.2653 98.4432 75.5051 98.8392 66.5411C100.007 50.961 92.4235 41.5493 85.8592 36.3858C85.4533 36.0674 85.2355 35.5501 85.2949 35.0327L85.3444 34.6148C85.8394 30.486 86.7602 22.8054 85.3246 17.4429C83.5127 10.7075 82.6514 7.27507 81.988 4.58884C81.8098 3.87252 81.3147 3.33527 80.6217 3.10645C79.9187 2.87762 79.1861 3.01691 78.6118 3.48451C73.8991 7.39446 66.0774 15.5029 66.6516 25.9493C66.6714 26.397 66.4932 26.8348 66.1566 27.1432C65.82 27.4516 65.3744 27.5809 64.9289 27.5113C57.3647 26.2776 49.6817 26.7353 42.7214 28.8345C42.2461 28.9837 41.7214 28.8743 41.3352 28.546C40.9491 28.2177 40.761 27.7302 40.8204 27.2228C42.1174 16.2291 34.0087 7.67303 29.0583 3.55415C28.4741 3.06665 27.7018 2.92737 26.989 3.17609C26.286 3.42481 25.791 3.99191 25.6425 4.73808C24.5732 10.0906 23.4841 17.1842 22.7514 23.7108C21.9594 30.6651 24.7316 36.545 25.2761 37.3807C25.494 37.5995 25.6425 37.8781 25.692 38.1865C25.7712 38.6442 25.6326 39.1018 25.3256 39.4501C22.9296 42.0965 20.9594 45.111 19.4743 48.4041C18.5733 50.4039 17.504 52.334 16.2961 54.1447C11.811 60.8602 10.316 67.1182 11.8605 72.7194C13.5041 78.7187 18.6426 83.922 26.7019 87.7523C27.286 88.0309 27.6226 88.6577 27.5434 89.2944C27.0484 93.085 26.1672 97.4028 24.9098 102.099C23.5831 107.083 21.4544 112.197 18.405 117.739C16.306 121.539 15.2466 125.568 15.2466 129.707C15.2466 139.407 21.1871 146.262 32.9096 150.063C33.6918 150.311 34.1176 151.157 33.87 151.943C33.6225 152.729 32.7809 153.157 31.9988 152.908C19.098 148.72 12.2764 140.691 12.2764 129.707C12.2764 125.051 13.4645 120.534 15.8011 116.296C18.7317 110.973 20.7713 106.078 22.0386 101.333C23.1375 97.1939 23.9494 93.3735 24.4444 89.971C16.1377 85.8023 10.811 80.1215 8.9992 73.5154C7.21705 67.0286 8.8507 59.9549 13.8407 52.4832C14.9595 50.8118 15.9495 49.021 16.7713 47.1804C18.2267 43.937 20.1277 40.9424 22.4049 38.2661C20.9396 35.5202 19.098 29.5011 19.7911 23.3725C20.5435 16.7664 21.6326 9.57328 22.7217 4.14114C23.0781 2.37022 24.2959 0.957469 25.989 0.36053C27.6919 -0.246357 29.5434 0.0819589 30.9394 1.24599C36.0284 5.48425 44.1768 14.0702 43.9095 25.3922C50.1965 23.8003 56.939 23.4223 63.6418 24.2978C63.8992 13.4335 71.8298 5.21563 76.701 1.17635C78.0574 0.0521119 79.8594 -0.296102 81.5326 0.26104C83.186 0.808234 84.4335 2.15135 84.8493 3.86257C85.5127 6.53884 86.3741 9.95134 88.176 16.6669C89.7106 22.4075 88.8493 30.1577 88.3245 34.5751C97.9679 42.4845 102.74 53.8661 101.78 66.7301C101.354 76.3309 94.6116 84.4493 88.1662 89.0755C89.6513 95.413 93.9878 104.656 97.8491 112.883C101.602 117.987 103.582 123.807 103.582 129.717C103.582 146.899 87.3741 156.36 57.9389 156.36H57.9588Z" fill="#222222"/>
<path d="M36.4531 96.1406C36.4531 96.1406 27.6215 107.95 24.2652 117.312C21.2157 125.789 18.2059 138.165 46.6014 143.746C65.2446 147.408 84.7196 138.772 86.4126 128.614C88.1056 118.446 71.9475 97.0261 71.9475 97.0261L36.4531 96.1406Z" fill="white"/>
<path d="M55.5828 146.095C52.464 146.095 49.3453 145.806 46.3057 145.209C33.6426 142.722 25.9002 138.693 22.6329 132.903C19.6527 127.61 20.9794 122.038 22.8606 116.805C26.2566 107.344 34.8999 95.7332 35.2663 95.2457C35.5534 94.8577 36.0188 94.6388 36.494 94.6488L71.9884 95.5342C72.4439 95.5442 72.8597 95.763 73.1369 96.1212C73.8102 97.0166 89.6614 118.178 87.8792 128.853C87.2654 132.544 84.6714 136.066 80.3843 139.051C73.8597 143.598 64.7509 146.095 55.5927 146.095H55.5828ZM37.187 97.6533C35.3653 100.18 28.4744 109.97 25.6526 117.82C24.1279 122.068 22.7022 126.983 25.217 131.43C27.9892 136.355 35.2762 140.006 46.8701 142.284C59.6025 144.782 72.0181 141.24 78.6715 136.604C82.2358 134.126 84.4635 131.201 84.9288 128.366C86.1961 120.795 75.8101 104.777 71.1766 98.499L37.1772 97.6533H37.187Z" fill="#222222"/>
<path d="M74.0075 122.231V148.695L68.4531 144.357V117.883L74.0075 122.231Z" fill="#FFB0CA"/>
<path d="M74.0082 150.19C73.6815 150.19 73.3647 150.08 73.0974 149.871L67.543 145.524C67.1767 145.245 66.9688 144.807 66.9688 144.35V117.886C66.9688 117.318 67.2955 116.791 67.8004 116.542C68.3054 116.294 68.9192 116.353 69.3647 116.702L74.9191 121.039C75.2855 121.318 75.4933 121.756 75.4933 122.213V148.678C75.4933 149.245 75.1666 149.772 74.6617 150.021C74.4538 150.12 74.2359 150.17 74.0082 150.17V150.19ZM69.939 143.624L72.5231 145.643V122.959L69.939 120.94V143.624Z" fill="#222222"/>
<path d="M74.0075 122.231V148.695L68.4531 144.357V117.883L74.0075 122.231Z" fill="white"/>
<path d="M74.0082 150.19C73.6815 150.19 73.3647 150.08 73.0974 149.871L67.543 145.524C67.1767 145.245 66.9688 144.807 66.9688 144.35V117.886C66.9688 117.318 67.2955 116.791 67.8004 116.542C68.3054 116.294 68.9192 116.353 69.3647 116.702L74.9191 121.039C75.2855 121.318 75.4933 121.756 75.4933 122.213V148.678C75.4933 149.245 75.1666 149.772 74.6617 150.021C74.4538 150.12 74.2359 150.17 74.0082 150.17V150.19ZM69.939 143.624L72.5231 145.643V122.959L69.939 120.94V143.624Z" fill="#222222"/>
<path d="M113.76 122.234H74.0078V148.699H113.76V122.234Z" fill="#FFE092"/>
<path d="M113.76 150.191H74.0086C73.1868 150.191 72.5234 149.525 72.5234 148.699V122.235C72.5234 121.409 73.1868 120.742 74.0086 120.742H113.76C114.582 120.742 115.245 121.409 115.245 122.235V148.699C115.245 149.525 114.582 150.191 113.76 150.191ZM75.4937 147.206H112.275V123.727H75.4937V147.206Z" fill="#222222"/>
<path d="M113.69 122.238L108.136 117.891H68.4531L74.0075 122.238H113.759" fill="white"/>
<path d="M113.689 123.729H74.0067C73.68 123.729 73.3533 123.619 73.0958 123.41L67.5415 119.073C67.0366 118.685 66.8385 118.018 67.0465 117.411C67.2544 116.804 67.8187 116.406 68.4524 116.406H108.135C108.462 116.406 108.788 116.516 109.046 116.725L114.362 120.883C114.877 121.122 115.234 121.639 115.234 122.246C115.234 123.072 114.57 123.739 113.749 123.739H113.679L113.689 123.729ZM74.5117 120.744H109.363L107.63 119.391H72.779L74.5117 120.744Z" fill="#222222"/>
<path d="M81.8125 98.2467L90.0005 94.1875C93.04 97.1523 99.3865 104.047 101.139 106.136C105.109 110.862 112.465 122.622 108.782 133.854C105.515 143.823 97.0004 140.739 97.0004 140.739C93.2975 139.286 90.9807 135.456 91.347 131.476C92.0896 123.378 91.5054 117.369 88.3966 110.166" fill="#FFB0CA"/>
<path d="M99.9702 142.68C98.0197 142.68 96.594 142.183 96.495 142.143C92.1486 140.432 89.4357 135.995 89.8615 131.339C90.6337 122.912 89.8615 117.33 87.0298 110.764C86.7031 110.008 87.0496 109.133 87.8021 108.804C88.5545 108.476 89.4258 108.824 89.7526 109.58C92.7723 116.574 93.6337 122.753 92.8218 131.617C92.5149 134.96 94.4554 138.144 97.5346 139.358C97.5346 139.358 100.426 140.342 103.129 138.999C105.03 138.054 106.445 136.174 107.356 133.398C111.366 121.161 101.158 108.506 99.9801 107.103C98.396 105.223 92.8713 99.2134 89.6832 95.9999L82.4458 99.5915C81.7131 99.9596 80.822 99.6512 80.4557 98.9149C80.0893 98.1787 80.3963 97.2833 81.1289 96.9152L89.3169 92.856C89.8813 92.5774 90.5545 92.6869 91.01 93.1246C94.1089 96.1591 100.465 103.054 102.247 105.183C108.049 112.087 113.604 123.867 110.168 134.333C108.99 137.915 107.049 140.392 104.386 141.696C102.832 142.462 101.267 142.69 99.9405 142.69L99.9702 142.68Z" fill="#222222"/>
<path d="M90.5127 69.5481C88.7602 111.015 -6.67374 99.206 18.6129 57.8481C19.6723 56.117 20.6228 54.3162 21.4148 52.4359C35.5235 19.1864 93.374 28.7672 90.5028 69.5381L90.5127 69.5481Z" fill="white"/>
<path d="M53.3637 96.8651C38.562 96.8651 23.8593 91.7215 17.0871 83.0559C13.0872 77.9322 9.87933 69.2666 17.3445 57.0692C18.4336 55.2983 19.3148 53.5871 20.0475 51.8559C28.0968 32.9031 48.4331 28.3067 63.918 32.0674C77.8484 35.4501 93.5512 47.3093 91.9868 69.6348C91.4819 81.2552 83.9572 90.0003 70.7792 94.2684C65.2942 96.0393 59.324 96.8751 53.3637 96.8751V96.8651ZM53.73 33.8383C41.5124 33.8383 28.6117 39.3202 22.79 53.02C22.0078 54.8605 21.0276 56.7508 19.8792 58.6212C14.6812 67.1276 14.5228 74.9376 19.4237 81.2054C28.2354 92.4876 51.8093 97.2531 69.8684 91.4131C76.7692 89.1746 88.4324 83.3643 89.0265 69.4756C89.0265 69.4656 89.0265 69.4457 89.0265 69.4358C90.472 48.9608 76.0267 38.0667 63.225 34.9626C60.2052 34.2264 56.9874 33.8383 53.7201 33.8383H53.73Z" fill="#222222"/>
<path d="M88.808 94.9178C72.3825 104.648 44.8088 104.638 26.4428 97.0071C25.3042 96.5295 24.4725 95.4749 24.3141 94.2512C24.3141 94.1816 24.2943 94.1219 24.2943 94.0522C24.0369 91.4058 26.7596 89.4956 29.2249 90.4805C45.9969 97.1364 69.8777 97.1165 85.2536 88.8191C87.8575 87.4163 91.0456 89.6647 90.4516 92.5698C90.4516 92.6096 90.4317 92.6494 90.4218 92.6892C90.2238 93.6145 89.6199 94.4303 88.808 94.9078V94.9178Z" fill="white"/>
<path d="M56.0975 103.959C45.6027 103.959 34.89 102.118 25.8802 98.3776C24.2268 97.6912 23.0684 96.1789 22.8506 94.4279L22.8209 94.1991C22.6526 92.4779 23.3753 90.8264 24.7614 89.7718C26.207 88.6774 28.0782 88.4187 29.7712 89.0853C47.0779 95.9501 70.1171 95.2935 84.5525 87.4935C86.295 86.5483 88.3841 86.7075 89.9979 87.9213C91.5623 89.0853 92.2949 90.9855 91.9088 92.8659L91.889 92.9753C91.6019 94.3284 90.7504 95.4825 89.5722 96.1889C80.8991 101.323 68.6518 103.949 56.0975 103.949V103.959ZM27.8703 91.7118C27.405 91.7118 26.9396 91.8611 26.5535 92.1595C25.9891 92.5873 25.7119 93.2241 25.7813 93.9105L25.801 94.0697C25.8802 94.7463 26.3654 95.3631 27.0189 95.6317C46.0284 103.521 72.8398 102.646 88.0673 93.632C88.5326 93.3534 88.8791 92.8858 88.988 92.3784L89.0079 92.2789C89.1564 91.5327 88.8692 90.8065 88.2356 90.3289C87.7009 89.931 86.8297 89.6723 85.9683 90.1399C70.8299 98.308 46.7413 99.0343 28.6921 91.871C28.4248 91.7616 28.1475 91.7118 27.8802 91.7118H27.8703Z" fill="#222222"/>
<path d="M48.8903 109.823C51.7228 109.823 54.019 107.515 54.019 104.669C54.019 101.823 51.7228 99.5156 48.8903 99.5156C46.0579 99.5156 43.7617 101.823 43.7617 104.669C43.7617 107.515 46.0579 109.823 48.8903 109.823Z" fill="#FFE092"/>
<path d="M48.8911 111.315C45.2476 111.315 42.2773 108.331 42.2773 104.669C42.2773 101.008 45.2476 98.0234 48.8911 98.0234C52.5346 98.0234 55.5048 101.008 55.5048 104.669C55.5048 108.331 52.5346 111.315 48.8911 111.315ZM48.8911 101.008C46.8812 101.008 45.2476 102.65 45.2476 104.669C45.2476 106.689 46.8812 108.331 48.8911 108.331C50.9009 108.331 52.5346 106.689 52.5346 104.669C52.5346 102.65 50.9009 101.008 48.8911 101.008Z" fill="#222222"/>
<path d="M40.763 58.8474C40.6937 62.8569 37.763 63.8916 34.169 63.8319C30.575 63.7722 27.6741 62.628 27.7434 58.6286C27.8127 54.6191 30.783 51.4255 34.377 51.4852C37.971 51.5449 40.8323 54.8479 40.763 58.8474Z" fill="#303030"/>
<path d="M29.9332 66.0651C29.9551 64.7795 27.6593 63.6984 24.8053 63.6504C21.9514 63.6023 19.6201 64.6054 19.5982 65.891C19.5763 67.1766 21.8722 68.2577 24.7261 68.3058C27.58 68.3539 29.9113 67.3507 29.9332 66.0651Z" fill="#FF7471"/>
<path d="M74.9836 66.0591C75.0052 64.7735 72.7092 63.692 69.8553 63.6434C67.0014 63.5949 64.6703 64.5977 64.6486 65.8832C64.6269 67.1688 66.9229 68.2503 69.7769 68.2989C72.6308 68.3474 74.9619 67.3446 74.9836 66.0591Z" fill="#FF7471"/>
<path d="M31.6049 56.7154C32.3704 56.7154 32.991 56.0918 32.991 55.3225C32.991 54.5533 32.3704 53.9297 31.6049 53.9297C30.8394 53.9297 30.2188 54.5533 30.2188 55.3225C30.2188 56.0918 30.8394 56.7154 31.6049 56.7154Z" fill="white"/>
<path d="M67.1185 58.8084C67.0492 62.8178 64.1185 63.8525 60.5245 63.7928C56.9305 63.7331 54.0296 62.589 54.0989 58.5895C54.1682 54.59 57.1384 51.3864 60.7324 51.4461C64.3264 51.5058 67.1878 54.8089 67.1185 58.8084Z" fill="#303030"/>
<path d="M57.9486 56.7154C58.7142 56.7154 59.3347 56.0918 59.3347 55.3225C59.3347 54.5533 58.7142 53.9297 57.9486 53.9297C57.1831 53.9297 56.5625 54.5533 56.5625 55.3225C56.5625 56.0918 57.1831 56.7154 57.9486 56.7154Z" fill="white"/>
<path d="M50.4659 69.3515C47.7729 72.2467 45.1194 72.1969 42.5254 69.2122C42.2581 68.9038 42.1195 68.486 42.1294 68.0781C42.1492 67.1329 42.9215 66.3867 43.8521 66.4066L49.2382 66.4962C50.1788 66.5161 50.9213 67.2921 50.9015 68.2273C50.9015 68.6352 50.7431 69.0431 50.4659 69.3515Z" fill="#303030"/>
<path d="M46.4277 74.7618H46.4079C45.8634 74.7618 45.4278 74.3041 45.4377 73.747L45.4772 71.3891C45.4772 70.8419 45.9327 70.4141 46.4673 70.4141H46.4871C47.0317 70.4141 47.4673 70.8717 47.4574 71.4289L47.4178 73.7868C47.4178 74.334 46.9624 74.7618 46.4277 74.7618Z" fill="#222222"/>
<path d="M44.3565 68.3039C44.8705 68.3039 45.2871 68.0767 45.2871 67.7965C45.2871 67.5162 44.8705 67.2891 44.3565 67.2891C43.8425 67.2891 43.4258 67.5162 43.4258 67.7965C43.4258 68.0767 43.8425 68.3039 44.3565 68.3039Z" fill="white"/>
<path d="M49.4255 76.5222C47.2969 76.5222 45.98 75.1094 45.5345 74.2041C45.287 73.7166 45.4949 73.1196 45.98 72.8709C46.4652 72.6222 47.0592 72.8311 47.3068 73.3186C47.3959 73.4878 48.2671 75.0199 50.4354 74.3732C50.9601 74.214 51.5146 74.5225 51.6631 75.0497C51.8215 75.577 51.5146 76.1342 50.9898 76.2834C50.4255 76.4526 49.9107 76.5222 49.4255 76.5222Z" fill="#222222"/>
<path d="M43.4164 76.5223C42.9412 76.5223 42.4164 76.4527 41.8521 76.2836C41.3273 76.1244 41.0303 75.5772 41.1788 75.0499C41.3372 74.5226 41.8818 74.2241 42.4065 74.3734C44.5748 75.0101 45.446 73.478 45.5352 73.3088C45.7827 72.8313 46.3767 72.6323 46.8619 72.881C47.347 73.1297 47.545 73.7167 47.2975 74.2042C46.852 75.1096 45.5352 76.5223 43.4065 76.5223H43.4164Z" fill="#222222"/>
<path d="M72.1951 28.3829C71.7297 28.2038 71.3336 27.9253 71.2841 27.4676C71.0861 25.5574 71.4426 22.2743 73.0168 18.1255C74.0861 15.31 75.8682 13.3102 77.195 12.1263C77.9969 11.41 79.3335 11.7184 79.6702 12.7033C80.9078 16.275 83.2344 26.1743 80.4622 31.5865C80.2048 32.0939 79.6008 32.3526 79.0365 32.1834C77.6702 31.7656 74.3534 29.2385 72.1951 28.3929V28.3829Z" fill="#FF92AA"/>
<path d="M36.3472 29.9689C36.8125 29.7898 37.2085 29.5112 37.258 29.0536C37.4561 27.1434 37.0996 23.8602 35.5254 19.7115C34.4561 16.8959 32.674 14.8962 31.3473 13.7122C30.5453 12.9959 29.2087 13.3043 28.8721 14.2893C27.6345 17.861 25.3078 27.7602 28.08 33.1724C28.3375 33.6798 28.9414 33.9385 29.5058 33.7694C30.8721 33.3515 34.1888 30.8245 36.3472 29.9788V29.9689Z" fill="#FF92AA"/>
<path d="M37.268 30.538C37.2185 30.538 37.1591 30.538 37.1096 30.538C36.2978 30.4485 35.7037 29.7122 35.7928 28.8964C35.872 28.1005 36.0007 25.1357 34.1492 20.2408C33.179 17.6939 31.5553 15.8832 30.3672 14.8186C29.7533 14.2714 29.7038 13.3263 30.2484 12.7094C30.7929 12.0926 31.7335 12.0429 32.3473 12.5901C33.783 13.8735 35.7532 16.0622 36.9314 19.1763C38.3671 22.9569 39.0304 26.6082 38.7531 29.2148C38.6739 29.9809 38.0304 30.548 37.2779 30.548L37.268 30.538Z" fill="#222222"/>
<path d="M76.3353 145.961H82.1966C88.3252 145.961 93.2954 150.955 93.2954 157.114V161.173C93.2954 163.501 91.4142 165.391 89.0974 165.391H69.4245C67.1077 165.391 65.2266 163.501 65.2266 161.173V157.114C65.2266 150.955 70.1968 145.961 76.3254 145.961H76.3353Z" fill="#FFB0CA"/>
<path d="M89.0982 166.876H69.4252C66.2966 166.876 63.7422 164.319 63.7422 161.165V157.106C63.7422 150.132 69.3857 144.461 76.3261 144.461H82.1874C89.1279 144.461 94.7714 150.132 94.7714 157.106V161.165C94.7714 164.309 92.2269 166.876 89.0883 166.876H89.0982ZM76.3361 147.456C71.0391 147.456 66.7223 151.793 66.7223 157.116V161.175C66.7223 162.678 67.9401 163.901 69.4352 163.901H89.1081C90.6031 163.901 91.8209 162.678 91.8209 161.175V157.116C91.8209 151.793 87.5042 147.456 82.2072 147.456H76.346H76.3361Z" fill="#222222"/>
<path d="M27.743 73.1299C27.743 73.1299 27.6638 73.1299 27.6242 73.1299L19.8421 72.2047C19.2976 72.145 18.9115 71.6475 18.9709 71.1003C19.0303 70.5531 19.5352 70.1651 20.0698 70.2248L27.8519 71.1501C28.3964 71.2098 28.7826 71.7072 28.7232 72.2544C28.6637 72.7618 28.238 73.1299 27.743 73.1299Z" fill="#222222"/>
<path d="M22.2482 78.7467C21.773 78.7467 21.3571 78.4084 21.2779 77.9209C21.1789 77.3837 21.5453 76.8663 22.0799 76.7668L27.5749 75.7819C28.1194 75.6824 28.6243 76.0505 28.7233 76.5877C28.8223 77.125 28.456 77.6423 27.9214 77.7418L22.4264 78.7268C22.367 78.7367 22.3076 78.7467 22.2482 78.7467Z" fill="#222222"/>
<path d="M68.2481 72.9055C67.7431 72.9055 67.3075 72.5175 67.258 72.0001C67.2085 71.4529 67.6145 70.9654 68.159 70.9256L79.1687 69.9606C79.7034 69.8909 80.1984 70.3187 80.238 70.8659C80.2776 71.4131 79.8815 71.9006 79.337 71.9404L68.3273 72.9055C68.3273 72.9055 68.2679 72.9055 68.2382 72.9055H68.2481Z" fill="#222222"/>
<path d="M77.3155 79.1647C77.2561 79.1647 77.1967 79.1647 77.1373 79.1448L68.0681 77.5231C67.5335 77.4236 67.1672 76.9062 67.2662 76.369C67.3652 75.8317 67.8702 75.4636 68.4147 75.5631L77.4838 77.1848C78.0185 77.2843 78.3848 77.8017 78.2858 78.3389C78.1967 78.8164 77.7809 79.1647 77.3155 79.1647Z" fill="#222222"/>
<path d="M71.2753 28.9664C70.5229 28.9664 69.8793 28.3993 69.8001 27.6332C69.5229 25.0366 70.1863 21.3753 71.6219 17.5947C72.8001 14.4807 74.7605 12.2919 76.206 11.0085C76.8198 10.4613 77.7604 10.521 78.3049 11.1279C78.8495 11.7447 78.8 12.6899 78.1861 13.2371C76.998 14.3016 75.3743 16.1024 74.404 18.6593C72.5427 23.5542 72.6713 26.5289 72.7604 27.3149C72.8496 28.1307 72.2555 28.8669 71.4437 28.9565C71.3942 28.9565 71.3347 28.9565 71.2852 28.9565L71.2753 28.9664Z" fill="#222222"/>
<path d="M77.3339 153.688C75.9775 153.558 73.9181 153.658 72.7597 155.15C72.2053 155.857 71.6409 156.135 71.1162 156.185C69.5816 156.334 68.6707 154.484 69.5519 153.21C71.0172 151.071 72.8092 149.778 76.5022 150.116C76.5022 150.116 78.5814 150.166 78.5814 151.917C78.5814 153.787 77.3339 153.688 77.3339 153.688Z" fill="white"/>
</svg>
