
<svg width="32" height="32" viewBox="0 0 32 32" class="me-2" fill="none" xmlns="http://www.w3.org/2000/svg">
                            <path d="M16 16H4V24H16V16Z" fill="#FF5065"></path>
                            <path d="M28 16H16V24H28V16Z" fill="#1ACEFF"></path>
                            <path d="M22 8H10V16H22V8Z" fill="#FFC747"></path>
                            <path d="M15.17 12.0577C15.22 12.0577 15.27 12.0577 15.33 12.0577C15.39 12.0577 15.43 12.0463 15.48 12.0348C15.53 12.0234 15.56 12.012 15.59 11.9891C15.62 11.9663 15.63 11.9434 15.63 11.9206C15.63 11.8863 15.63 11.8634 15.6 11.8406C15.55 11.8634 15.49 11.8748 15.43 11.8977C15.37 11.9206 15.29 11.9206 15.2 11.9206C15.11 11.9206 15.02 11.8977 14.93 11.8634C14.84 11.8291 14.77 11.772 14.71 11.692C14.65 11.612 14.59 11.5206 14.56 11.4063C14.53 11.292 14.5 11.1548 14.5 11.0063C14.5 10.8806 14.51 10.7663 14.53 10.6863C14.55 10.6063 14.58 10.5263 14.6 10.4463C14.7 10.4348 14.81 10.412 14.9 10.3891C14.99 10.3663 15.09 10.332 15.19 10.2748C15.29 10.2177 15.37 10.1491 15.46 10.0577C15.55 9.96627 15.62 9.85199 15.7 9.71484H16.24C16.32 9.71484 16.39 9.71484 16.46 9.7377C16.53 9.76056 16.58 9.78342 16.63 9.82913C16.68 9.87484 16.71 9.93199 16.74 10.012C16.77 10.092 16.78 10.1834 16.78 10.3091V13.9663C16.68 14.0806 16.55 14.1606 16.42 14.2177C16.29 14.2748 16.15 14.2977 16.01 14.2977C15.9 14.2977 15.8 14.2863 15.7 14.252C15.6 14.2177 15.51 14.172 15.44 14.1034C15.37 14.0348 15.3 13.9548 15.26 13.852C15.22 13.7491 15.19 13.6234 15.19 13.4748V12.0806L15.17 12.0577Z" fill="white"></path>
                            <path d="M11.6496 19.3716C11.6496 19.543 11.6296 19.7145 11.5796 19.8745C11.5296 20.0345 11.4596 20.183 11.3596 20.3087C11.2596 20.4345 11.1296 20.5487 10.9696 20.6516C10.8096 20.7545 10.6196 20.823 10.3996 20.8687C10.3996 20.9145 10.4096 20.9487 10.4296 20.9716C10.4496 20.9945 10.4696 21.0059 10.4996 21.0059C10.5496 21.0059 10.6196 21.0059 10.6896 20.9716C10.7596 20.9373 10.8396 20.9259 10.9296 20.8802C11.0196 20.8345 11.0896 20.7887 11.1696 20.743C11.2496 20.6973 11.3096 20.6287 11.3696 20.5602C11.4696 20.6745 11.5396 20.8002 11.5896 20.9602C11.6396 21.1202 11.6596 21.2802 11.6596 21.4402C11.6596 21.6002 11.6396 21.7602 11.5896 21.9087C11.5396 22.0573 11.4796 22.183 11.3896 22.2859H8.63961C8.47961 22.023 8.39961 21.7145 8.39961 21.383C8.39961 21.2459 8.40961 21.1087 8.43961 20.9602C8.46961 20.8116 8.50961 20.6973 8.56961 20.583C8.75961 20.5373 8.94961 20.4802 9.13961 20.4002C9.32961 20.3202 9.49961 20.2173 9.64961 20.1145C9.79961 20.0116 9.91961 19.8859 10.0196 19.7602C10.1196 19.6345 10.1596 19.4973 10.1596 19.3602C10.1596 19.2916 10.1496 19.2345 10.1196 19.1887C10.0896 19.143 10.0496 19.1202 9.99961 19.1202C9.93961 19.1202 9.89961 19.143 9.87961 19.1773C9.85961 19.2116 9.84961 19.2573 9.84961 19.303C9.84961 19.3487 9.84961 19.3945 9.87961 19.4402C9.90961 19.4859 9.91961 19.5202 9.95961 19.5545C9.89961 19.6459 9.83961 19.7373 9.74961 19.8173C9.65961 19.8973 9.57961 19.9659 9.47961 20.0345C9.37961 20.103 9.27961 20.1602 9.17961 20.2059C9.07961 20.2516 8.97961 20.2973 8.88961 20.3316C8.70961 20.1945 8.57961 20.0345 8.48961 19.8516C8.39961 19.6687 8.34961 19.4516 8.34961 19.2116C8.34961 18.9716 8.38961 18.7659 8.47961 18.583C8.56961 18.4002 8.68961 18.2402 8.82961 18.1145C8.96961 17.9887 9.14961 17.8973 9.34961 17.8287C9.54961 17.7602 9.75961 17.7259 9.96961 17.7259C10.1996 17.7259 10.4196 17.7602 10.6196 17.8287C10.8196 17.8973 10.9996 18.0116 11.1596 18.1487C11.3196 18.2859 11.4296 18.4687 11.5196 18.6745C11.6096 18.8802 11.6496 19.1202 11.6496 19.383V19.3716Z" fill="white"></path>
                            <path d="M21.2403 20.0573C21.2603 20.1945 21.2903 20.3087 21.3403 20.4116C21.3903 20.5145 21.4503 20.6059 21.5203 20.6745C21.5903 20.743 21.6703 20.8002 21.7603 20.8345C21.8503 20.8687 21.9403 20.8916 22.0403 20.8916C22.1403 20.8916 22.2003 20.8916 22.2303 20.8687C22.2603 20.8459 22.2803 20.823 22.2803 20.7773C22.2803 20.7545 22.2803 20.7316 22.2703 20.7202C22.2403 20.7202 22.2103 20.7202 22.1903 20.7316C22.1703 20.743 22.1303 20.7316 22.0803 20.7316C21.9903 20.7316 21.9103 20.7202 21.8303 20.6859C21.7503 20.6516 21.6803 20.6059 21.6203 20.5373C21.5603 20.4687 21.5103 20.3887 21.4703 20.2973C21.4303 20.2059 21.4103 20.0916 21.4103 19.9659C21.4103 19.8516 21.4303 19.7602 21.4603 19.6687C21.4903 19.5773 21.5403 19.4973 21.6003 19.4402C21.6603 19.383 21.7303 19.3259 21.8103 19.2916C21.8903 19.2573 21.9803 19.2345 22.0803 19.2345H22.1303C22.1303 19.2345 22.1803 19.2345 22.2003 19.2345C22.2003 19.223 22.2003 19.2116 22.2003 19.1887C22.2003 19.1202 22.1503 19.0745 22.0403 19.0745C21.9603 19.0745 21.8703 19.0859 21.7903 19.1202C21.7103 19.1545 21.6303 19.1887 21.5603 19.2459C21.4903 19.303 21.4303 19.3716 21.3703 19.463C21.3103 19.5545 21.2803 19.6459 21.2503 19.7716C21.0903 19.7716 20.9503 19.7487 20.8403 19.703C20.7303 19.6573 20.6303 19.6002 20.5603 19.5316C20.4903 19.463 20.4403 19.383 20.4003 19.2802C20.3603 19.1773 20.3503 19.0859 20.3503 18.9945C20.3503 18.8116 20.3903 18.6402 20.4703 18.4802C20.5503 18.3202 20.6603 18.183 20.8003 18.0802C20.9403 17.9773 21.1103 17.8745 21.3003 17.8173C21.4903 17.7602 21.7003 17.7259 21.9303 17.7259C22.1703 17.7259 22.4003 17.7602 22.6003 17.8287C22.8003 17.8973 22.9803 18.0002 23.1203 18.1259C23.2603 18.2516 23.3803 18.4116 23.4603 18.583C23.5403 18.7545 23.5803 18.9602 23.5803 19.1659C23.5803 19.3259 23.5503 19.463 23.5003 19.5773C23.4503 19.6916 23.3803 19.7945 23.3103 19.863C23.2703 19.8402 23.2303 19.8173 23.2003 19.8059C23.1703 19.7945 23.1303 19.783 23.0903 19.783C23.0503 19.783 23.0303 19.783 23.0103 19.8173C22.9903 19.8516 22.9903 19.863 22.9903 19.8859C22.9903 19.9202 22.9903 19.9316 23.0103 19.943C23.0703 19.943 23.1403 19.9545 23.2203 19.9887C23.3003 20.023 23.3703 20.0687 23.4403 20.1373C23.5103 20.2059 23.5703 20.2973 23.6103 20.4116C23.6503 20.5259 23.6803 20.663 23.6803 20.8345C23.6803 21.0745 23.6303 21.2802 23.5403 21.463C23.4503 21.6459 23.3203 21.7945 23.1703 21.9087C23.0203 22.023 22.8303 22.1145 22.6203 22.183C22.4103 22.2516 22.1903 22.2745 21.9503 22.2745C21.7303 22.2745 21.5203 22.2402 21.3203 22.183C21.1203 22.1259 20.9503 22.0345 20.8003 21.9087C20.6503 21.783 20.5403 21.6459 20.4503 21.4745C20.3603 21.303 20.3203 21.1202 20.3203 20.9145C20.3203 20.7887 20.3403 20.6745 20.3703 20.5716C20.4003 20.4687 20.4603 20.3773 20.5203 20.2973C20.5803 20.2173 20.6703 20.1602 20.7703 20.1145C20.8703 20.0687 20.9903 20.0459 21.1203 20.0459C21.1403 20.0459 21.1603 20.0459 21.1703 20.0459C21.1803 20.0459 21.2003 20.0459 21.2203 20.0459L21.2403 20.0573Z" fill="white"></path>
                          </svg>