<svg width="106" height="95" viewBox="0 0 106 95" fill="none" xmlns="http://www.w3.org/2000/svg">
<g style="mix-blend-mode:multiply" opacity="0.15">
<path d="M54.9562 95.0012C74.3784 95.0012 90.1233 92.3951 90.1233 89.1803C90.1233 85.9655 74.3784 83.3594 54.9562 83.3594C35.5339 83.3594 19.7891 85.9655 19.7891 89.1803C19.7891 92.3951 35.5339 95.0012 54.9562 95.0012Z" fill="black"/>
</g>
<path d="M49.3655 5.12514C39.0927 5.14474 29.0046 8.57457 21.2027 15.4244C12.9825 22.6369 5.38481 34.8961 5.39454 55.5731C5.39454 89.2639 37.7308 87.3922 52.9455 88.3231C68.1603 89.2541 101.761 84.0211 104.3 56.3179C106.693 30.1923 91.3229 5.05654 49.3753 5.12514H49.3655Z" fill="#FFDCE9"/>
<path d="M56.1443 89.8843C54.9478 89.8843 53.8388 89.8549 52.8465 89.7863C51.5332 89.7079 50.0837 89.6491 48.5467 89.5805C31.863 88.8945 3.93359 87.7382 3.93359 55.5663C3.93359 37.6822 9.42023 23.8061 20.2476 14.3103C28.0593 7.45065 38.4003 3.66804 49.3736 3.64844H49.5389C69.3454 3.64844 84.9784 9.34196 94.7551 20.1312C103.151 29.382 107.051 42.288 105.758 56.4483C103.219 84.1516 71.6898 89.8745 56.154 89.8745L56.1443 89.8843ZM49.3736 6.5981C39.1104 6.6177 29.4504 10.1455 22.164 16.5348C11.9982 25.4524 6.85202 38.5838 6.85202 55.5761C6.85202 84.9257 32.0186 85.9644 48.6731 86.6504C50.2394 86.719 51.6986 86.7778 53.0313 86.8562C66.0281 87.6598 100.32 83.7008 102.839 56.1837C104.055 42.8465 100.417 30.7539 92.5858 22.1205C83.3733 11.9682 68.4893 6.5981 49.5292 6.5981H49.3736Z" fill="#222222"/>
<path d="M83.2664 40.1421C83.2664 52.2446 67.6723 55.1844 48.4301 55.1844C29.1879 55.1844 13.5938 52.0584 13.5938 40.1421C13.5938 28.8923 29.1879 16.5547 48.4301 16.5547C67.6723 16.5547 83.2664 28.8923 83.2664 40.1421Z" fill="white"/>
<path d="M48.4284 56.6555C32.8439 56.6555 12.1328 54.9406 12.1328 40.1433C12.1328 28.5603 27.9896 15.0859 48.4284 15.0859C68.8671 15.0859 84.7239 28.3153 84.7239 40.1433C84.7239 54.9504 64.0128 56.6555 48.4284 56.6555ZM48.4284 18.0258C29.6337 18.0258 15.0512 29.9126 15.0512 40.1433C15.0512 49.2765 25.9662 53.7157 48.4284 53.7157C70.8906 53.7157 81.8055 49.4039 81.8055 40.1433C81.8055 29.9126 67.2231 18.0258 48.4284 18.0258Z" fill="#222222"/>
<path d="M6.41246 54.4453C6.41246 54.4453 -0.825248 59.5901 2.24883 64.431C3.87343 66.9985 10.1383 64.6564 10.1383 64.6564" fill="#FFDCE9"/>
<path d="M5.2754 67.1133C3.58271 67.1133 1.92893 66.6723 1.01448 65.222C-2.76975 59.2639 5.22675 53.4822 5.56723 53.2372C6.22874 52.7668 7.13345 52.9334 7.6004 53.59C8.06735 54.2563 7.91171 55.1677 7.2502 55.6381C7.19183 55.6773 1.18958 60.0283 3.46596 63.6345C4.07883 64.6046 7.46421 64.0755 9.61412 63.2719C10.3729 62.9877 11.2095 63.3797 11.4916 64.1343C11.7738 64.8986 11.3846 65.7414 10.6356 66.0256C9.92541 66.2901 7.5615 67.1035 5.2754 67.1035V67.1133Z" fill="#222222"/>
<path d="M89.3356 54.2188C89.3356 54.2188 95.7659 59.5791 93.1004 64.3711C91.4856 67.2717 85.2109 64.2731 85.2109 64.2731" fill="#FFDCE9"/>
<path d="M90.4157 67.0941C87.8377 67.0941 85.0652 65.8201 84.5885 65.5947C83.8589 65.242 83.5476 64.3698 83.8978 63.6348C84.2383 62.8999 85.1138 62.5863 85.8435 62.9391C87.9058 63.919 91.2328 64.7324 91.836 63.6446C93.8497 60.0286 88.4701 55.3934 88.4117 55.3444C87.7891 54.825 87.7015 53.9039 88.2171 53.2767C88.7327 52.6496 89.6472 52.5614 90.2698 53.0807C90.5713 53.3355 97.6047 59.2936 94.375 65.0852C93.5287 66.6041 92.0111 67.0941 90.4157 67.0941Z" fill="#222222"/>
<g style="mix-blend-mode:multiply" opacity="0.3">
<path d="M79.6364 75.9589C79.6364 80.0453 67.1455 83.3576 51.746 83.3576C36.3464 83.3576 23.8555 80.0453 23.8555 75.9589C23.8555 71.8725 36.3464 71.4609 51.746 71.4609C67.1455 71.4609 79.6364 71.8725 79.6364 75.9589Z" fill="#FFB3D2"/>
</g>
<path d="M23.1332 15.8021C23.1332 15.8021 22.8317 4.0427 27.2677 1.8084C31.7037 -0.425888 38.669 9.35404 38.669 9.35404" fill="#FFDCE9"/>
<path d="M23.1343 17.2733C22.3463 17.2733 21.6946 16.6364 21.6751 15.8426C21.6459 14.5393 21.4903 3.0738 26.617 0.49653C32.0161 -2.21794 39.069 7.3954 39.8569 8.49295C40.3239 9.14951 40.178 10.0707 39.5262 10.541C38.8744 11.0212 37.96 10.8644 37.493 10.2079C34.9734 6.68003 30.1872 1.97626 27.9303 3.1228C25.3037 4.44574 24.4963 11.5798 24.6033 15.7642C24.6227 16.5776 23.9904 17.2537 23.183 17.2733C23.1732 17.2733 23.1538 17.2733 23.1441 17.2733H23.1343Z" fill="#222222"/>
<path d="M81.9325 15.3297C81.9325 15.3297 81.3293 3.58008 76.7377 1.69857C72.146 -0.18294 65.9492 10.1066 65.9492 10.1066" fill="#FFDCE9"/>
<path d="M81.9225 16.7998C81.154 16.7998 80.5119 16.1922 80.4633 15.4082C80.2493 11.2239 78.8873 4.17799 76.1732 3.06085C73.8287 2.10049 69.4219 7.15705 67.1844 10.8711C66.7661 11.5668 65.8711 11.7824 65.1804 11.361C64.4897 10.9397 64.2757 10.0381 64.694 9.34234C65.3944 8.1762 71.6885 -1.95651 77.2822 0.33658C82.584 2.51207 83.3233 13.9579 83.3817 15.2515C83.4206 16.0648 82.8078 16.7508 82.0003 16.7998C81.9711 16.7998 81.9517 16.7998 81.9225 16.7998Z" fill="#222222"/>
<path d="M39.1266 34.4485C39.1266 38.6917 36.7238 39.848 33.7664 39.848C30.8091 39.848 28.4062 38.6917 28.4062 34.4485C28.4062 30.2053 30.8091 26.7656 33.7664 26.7656C36.7238 26.7656 39.1266 30.2053 39.1266 34.4485Z" fill="#303030"/>
<path d="M32.0828 31.8724C32.8081 31.8724 33.3961 31.2801 33.3961 30.5495C33.3961 29.8189 32.8081 29.2266 32.0828 29.2266C31.3575 29.2266 30.7695 29.8189 30.7695 30.5495C30.7695 31.2801 31.3575 31.8724 32.0828 31.8724Z" fill="white"/>
<path d="M62.2204 34.4485C62.2204 38.6917 59.8175 39.848 56.8602 39.848C53.9029 39.848 51.5 38.6917 51.5 34.4485C51.5 30.2053 53.9029 26.7656 56.8602 26.7656C59.8175 26.7656 62.2204 30.2053 62.2204 34.4485Z" fill="#303030"/>
<path d="M55.1687 31.8724C55.8941 31.8724 56.482 31.2801 56.482 30.5495C56.482 29.8189 55.8941 29.2266 55.1687 29.2266C54.4434 29.2266 53.8555 29.8189 53.8555 30.5495C53.8555 31.2801 54.4434 31.8724 55.1687 31.8724Z" fill="white"/>
<path d="M22.7945 41.7227C25.3734 41.7227 27.464 40.7092 27.464 39.459C27.464 38.2088 25.3734 37.1953 22.7945 37.1953C20.2156 37.1953 18.125 38.2088 18.125 39.459C18.125 40.7092 20.2156 41.7227 22.7945 41.7227Z" fill="#FF7471"/>
<path d="M67.7203 41.7227C70.2992 41.7227 72.3898 40.7092 72.3898 39.459C72.3898 38.2088 70.2992 37.1953 67.7203 37.1953C65.1414 37.1953 63.0508 38.2088 63.0508 39.459C63.0508 40.7092 65.1414 41.7227 67.7203 41.7227Z" fill="#FF7471"/>
</svg>
