<svg width="98" height="100" viewBox="0 0 98 100" fill="none" xmlns="http://www.w3.org/2000/svg">
<g style="mix-blend-mode:multiply" opacity="0.15">
<path d="M41.2858 86.6628C56.8946 86.6628 69.5481 84.5924 69.5481 82.0384C69.5481 79.4845 56.8946 77.4141 41.2858 77.4141C25.6769 77.4141 13.0234 79.4845 13.0234 82.0384C13.0234 84.5924 25.6769 86.6628 41.2858 86.6628Z" fill="black"/>
</g>
<path d="M36.7955 15.2423C28.5403 15.2519 20.4295 17.9766 14.1587 23.4261C7.55063 29.1634 1.4435 38.9015 1.45314 55.3267C1.45314 82.1041 27.4421 80.6074 39.666 81.3557C51.8899 82.1041 78.9 77.9306 80.9421 55.9216C82.8687 35.1598 70.5099 15.1847 36.8051 15.2423H36.7955Z" fill="#FFDBC0"/>
<path d="M42.2297 82.8713C41.2568 82.8713 40.3706 82.8425 39.5711 82.7946C38.5115 82.7274 37.3556 82.6794 36.1226 82.6315C23.5038 82.1134 0.00963269 81.154 0 55.3361C0 41.0503 4.44066 29.9499 13.2064 22.3513C19.5351 16.8634 27.9156 13.8317 36.7873 13.8125H36.9221C52.922 13.8125 65.5505 18.3697 73.4589 26.9949C80.2596 34.4016 83.4191 44.7249 82.3692 56.0652C80.3078 78.2853 54.8004 82.8713 42.2297 82.8713ZM36.7969 16.6812C28.6091 16.6907 20.9126 19.4731 15.1041 24.51C7.00296 31.5425 2.88981 41.9042 2.88981 55.3265C2.88981 78.3908 22.9547 79.2063 36.2382 79.7532C37.5001 79.8012 38.6753 79.8492 39.7445 79.9163C50.1189 80.5399 77.4854 77.441 79.489 55.787C80.4619 45.2718 77.5625 35.7256 71.3205 28.9233C63.9707 20.9122 52.0743 16.6812 36.9125 16.6812H36.7873H36.7969Z" fill="#222222"/>
<g style="mix-blend-mode:multiply" opacity="0.4">
<path d="M63.1612 72.0219C63.1612 74.881 52.6616 77.1932 39.7056 77.1932C26.7496 77.1932 16.25 74.881 16.25 72.0219C16.25 69.1628 26.7496 68.875 39.7056 68.875C52.6616 68.875 63.1612 69.1628 63.1612 72.0219Z" fill="#FFB888"/>
</g>
<path d="M71.1382 26.4111L59.3382 21.403L48.511 26.4111L28.6773 19.8775L11.0977 26.4111C17.7346 12.2213 30.7098 1.4375 41.9319 1.4375C53.154 1.4375 64.5109 12.2213 71.1382 26.4111Z" fill="#FFE499"/>
<path d="M11.0975 27.8519C10.7025 27.8519 10.3172 27.6888 10.0379 27.3914C9.64293 26.9596 9.53697 26.336 9.78742 25.8083C16.7808 10.851 30.2954 0 41.9317 0C53.568 0 65.1272 10.1314 72.4481 25.8083C72.6985 26.3456 72.5926 26.9884 72.1784 27.4201C71.7642 27.8519 71.1284 27.9766 70.5697 27.7463L59.3669 22.9876L49.1177 27.7271C48.7806 27.8807 48.4049 27.8998 48.0581 27.7847L28.706 21.4046L11.5984 27.7655C11.4346 27.8231 11.2612 27.8519 11.0975 27.8519ZM28.6771 18.44C28.8313 18.44 28.9854 18.4688 29.1299 18.5167L48.4242 24.8777L58.7311 20.1094C59.1068 19.9367 59.5307 19.9271 59.9063 20.0902L68.0749 23.5633C61.1971 10.8894 51.1984 2.88785 41.9221 2.88785C32.6458 2.88785 20.865 11.6665 14.0643 23.7839L28.1666 18.5455C28.3303 18.488 28.5037 18.4592 28.6675 18.4592L28.6771 18.44Z" fill="#222222"/>
<path d="M53.8761 17.5532C55.1455 16.1965 54.4424 13.4889 52.3057 11.5057C50.1689 9.52251 47.4077 9.0147 46.1383 10.3715C44.8689 11.7282 45.572 14.4358 47.7088 16.419C49.8455 18.4022 52.6067 18.91 53.8761 17.5532Z" fill="white"/>
<path d="M38.8545 43.2944L45.0446 41.8506C45.9304 41.644 46.4803 40.7614 46.2729 39.8792L46.2092 39.6083C46.0017 38.7261 45.1155 38.1784 44.2298 38.385L38.0397 39.8288C37.1539 40.0354 36.604 40.918 36.8114 41.8002L36.8751 42.0711C37.0826 42.9533 37.9688 43.501 38.8545 43.2944Z" fill="#303030"/>
<path d="M26.4457 39.8147L21.4749 38.6553C20.5891 38.4487 19.7029 38.9964 19.4955 39.8786L19.4318 40.1495C19.2244 41.0318 19.7743 41.9144 20.6601 42.121L25.6309 43.2804C26.5166 43.487 27.4028 42.9393 27.6103 42.0571L27.674 41.7862C27.8814 40.904 27.3315 40.0213 26.4457 39.8147Z" fill="#303030"/>
<path d="M72.3904 87.8549C75.2995 86.79 79.22 85.111 82.3603 82.8755C83.1501 82.3191 84.1038 82.0312 85.067 82.0312H95.2295C96.4433 82.0312 97.0116 83.5279 96.1061 84.3338L87.8027 91.6734C86.2904 93.007 84.2001 93.4963 82.2543 92.9686L72.5156 90.3494C71.273 90.0136 71.1863 88.2866 72.4 87.8453L72.3904 87.8549Z" fill="#FFE499"/>
<path d="M83.8235 94.6186C83.1781 94.6186 82.5231 94.5323 81.8777 94.3596L72.1391 91.7404C70.9735 91.4238 70.1451 90.4068 70.0969 89.1979C70.0391 87.9987 70.7712 86.9145 71.8983 86.502C74.605 85.5138 78.4774 83.8732 81.5309 81.7049C82.552 80.9757 83.7754 80.6016 85.0758 80.6016H95.2383C96.3942 80.6016 97.4153 81.3019 97.8198 82.3765C98.2244 83.451 97.9354 84.6503 97.0685 85.4178L88.7651 92.7574C87.378 93.9758 85.6248 94.6282 83.8332 94.6282L83.8235 94.6186ZM73.2661 89.0636L82.6291 91.5773C84.1221 91.9802 85.6923 91.6061 86.8482 90.5891L94.9108 83.4702H85.0854C84.3919 83.4702 83.7465 83.6717 83.2167 84.0459C80.0475 86.3005 76.1366 87.9987 73.2854 89.0636H73.2661Z" fill="#222222"/>
<path d="M51.9487 93.7408L60.4062 91.9754C61.7933 91.6876 63.1612 92.1577 63.1612 93.002V97.4345C63.1612 98.4227 61.3598 98.8449 59.8957 98.3172L51.7079 95.3526C50.8409 95.036 50.9951 93.9326 51.9391 93.7312L51.9487 93.7408Z" fill="#FFE499"/>
<path d="M61.2265 100C60.6196 100 59.9935 99.8944 59.4059 99.6834L51.2181 96.7188C50.2356 96.3638 49.6287 95.4523 49.7058 94.4641C49.7828 93.4184 50.5631 92.5645 51.6516 92.3438L60.1091 90.5785C61.4866 90.2907 62.8737 90.5401 63.7214 91.2309C64.2897 91.6914 64.6076 92.3246 64.6076 93.0058V97.4383C64.6076 98.1867 64.2319 98.8774 63.5672 99.338C62.9507 99.7697 62.1127 99.9904 61.2265 99.9904V100ZM54.2235 94.7424L60.3981 96.9778C60.899 97.1601 61.4288 97.1409 61.7178 97.0641V93.3992C61.5058 93.3416 61.1494 93.3032 60.6967 93.3992L54.2235 94.7519V94.7424Z" fill="#222222"/>
</svg>
