<svg width="162" height="110" viewBox="0 0 162 110" fill="none" xmlns="http://www.w3.org/2000/svg">
<path d="M100.361 72.5634C100.361 72.5634 129.37 84.7855 151.501 55.1541C156.044 49.0677 162.498 52.3381 159.741 58.3652C157.512 63.2362 134.662 92.0377 99.3359 83.3429" fill="#B3EFFF"/>
<path d="M112.596 86.4658C108.286 86.4658 103.732 85.9421 98.9363 84.7663C98.0912 84.5589 97.5842 83.7487 97.806 82.9582C98.0279 82.1678 98.8941 81.6935 99.7392 81.901C133.967 90.3192 156.31 62.0908 158.285 57.773C159.289 55.5894 158.75 54.1074 157.789 53.6035C156.679 53.0304 154.651 53.5343 152.802 56.0044C130.185 86.2978 100.014 74.0461 99.7075 73.9176C98.9047 73.5817 98.5561 72.7024 98.9152 71.9613C99.2744 71.2203 100.215 70.8844 101.007 71.2203C102.148 71.6945 129.118 82.5433 150.204 54.305C153.193 50.3133 156.933 49.7699 159.331 51.0148C161.539 52.1609 162.976 55.0658 161.201 58.9488C159.268 63.1677 141.488 86.4757 112.596 86.4757V86.4658Z" fill="#222222"/>
<g style="mix-blend-mode:multiply" opacity="0.15">
<path d="M71.417 109.999C94.1593 109.999 112.596 107.167 112.596 103.675C112.596 100.183 94.1593 97.3516 71.417 97.3516C48.6746 97.3516 30.2383 100.183 30.2383 103.675C30.2383 107.167 48.6746 109.999 71.417 109.999Z" fill="black"/>
</g>
<path d="M109.144 21.2258C109.376 15.9595 109.038 5.70365 103.312 2.33442C97.0902 -1.33122 86.5473 7.80818 82.4801 11.7109C77.1558 10.881 71.3562 10.4364 65.0389 10.4463C61.8168 10.4463 58.6159 10.7229 55.4784 11.2564C51.0204 6.60277 42.8438 -0.609948 37.1498 2.18621C28.9626 6.20755 28.614 24.4172 28.614 24.4172H28.6351C20.0677 32.6081 12.7891 45.5811 12.7891 66.0731C12.7891 103.233 51.1894 101.158 69.2645 102.196C87.3396 103.223 127.251 97.4533 130.261 66.903C132.004 49.1874 125.761 31.8967 109.133 21.2159L109.144 21.2258Z" fill="#C2F4FF"/>
<path d="M73.0768 103.785C71.6506 103.785 70.3407 103.746 69.1681 103.677C67.6046 103.588 65.8827 103.518 64.0551 103.449C44.2897 102.688 11.2137 101.424 11.2031 66.0815C11.2031 48.356 16.5274 34.1381 27.0386 23.8229C27.176 20.5525 28.2535 4.88213 36.3984 0.880552C42.515 -2.1231 50.3535 3.84468 56.0475 9.66425C59.016 9.20975 62.0268 8.9825 65.0164 8.97262C70.964 9.00227 76.6263 9.35796 81.9083 10.1286C87.5812 4.80308 97.4692 -2.84437 104.146 1.07816C110.199 4.63512 110.917 14.4167 110.748 20.4734C126.077 30.6799 133.757 47.6051 131.845 67.0498C128.844 97.5013 91.4899 103.785 73.0768 103.785ZM30.1973 24.2478C30.2607 24.6825 30.1128 25.1271 29.7642 25.4532C19.5487 35.2348 14.3723 48.8994 14.3723 66.0815C14.3723 98.5782 44.3531 99.7342 64.1818 100.495C66.0411 100.564 67.7736 100.633 69.3582 100.722C84.8451 101.612 125.675 97.2246 128.675 66.7731C130.514 48.1288 123.066 31.9743 108.234 22.4495C107.78 22.163 107.526 21.6789 107.547 21.1651C107.737 16.8967 107.621 6.63096 102.455 3.58779C98.1981 1.07816 89.9264 6.67048 83.5986 12.7469C83.2394 13.0928 82.7112 13.2508 82.2041 13.1718C76.8587 12.3419 71.0591 11.9071 65.027 11.9269C61.9317 11.9269 58.8048 12.1936 55.7412 12.7074C55.2024 12.7963 54.6425 12.6185 54.2833 12.2332C47.3322 4.97105 41.3529 1.78955 37.8774 3.48898C31.9404 6.40371 30.3346 19.2483 30.1973 24.228V24.2478Z" fill="#222222"/>
<path d="M120.761 33.4766C120.761 33.4766 112.458 34.4844 112.595 38.1303C112.733 41.7761 125.103 39.4641 125.103 39.4641C125.103 39.4641 123.223 36.2727 120.751 33.4766H120.761Z" fill="#97E4FF"/>
<path d="M127.163 43.2812C127.163 43.2812 116.313 43.716 115.489 46.8678C114.665 50.0197 129.878 50.4544 129.878 50.4544C129.878 50.4544 128.959 47.0062 127.173 43.2812H127.163Z" fill="#97E4FF"/>
<path d="M130.27 68.3938C130.27 68.3938 130.175 68.3938 130.122 68.3938C129.245 68.3147 128.611 67.5935 128.685 66.7833C130.524 48.1389 123.076 31.9844 108.244 22.4597C107.526 21.9953 107.335 21.0764 107.832 20.3947C108.328 19.7228 109.311 19.5449 110.04 20.0093C125.844 30.1664 133.798 47.3089 131.844 67.05C131.77 67.8207 131.073 68.3938 130.27 68.3938Z" fill="#222222"/>
<path d="M106.938 55.3747C106.938 68.8911 87.8382 72.7247 64.2698 72.7247C40.7014 72.7247 21.6016 68.8911 21.6016 55.3747C21.6016 41.8583 34.3313 19.4297 62.8119 19.4297C94.8527 19.4297 106.938 41.8583 106.938 55.3747Z" fill="white"/>
<path d="M64.2685 74.1967C34.4884 74.1967 20.0156 68.0411 20.0156 55.3646C20.0156 42.688 32.5657 17.9375 62.8106 17.9375C93.0555 17.9375 108.521 39.8226 108.521 55.3646C108.521 68.0313 94.0485 74.1967 64.2685 74.1967ZM62.8106 20.9115C34.8159 20.9115 23.1848 43.3598 23.1848 55.3744C23.1848 66.0552 36.6223 71.2424 64.2685 71.2424C91.9146 71.2424 105.352 66.0552 105.352 55.3744C105.352 44.1305 94.957 20.9115 62.8106 20.9115Z" fill="#222222"/>
<path d="M101.123 88.7095C101.123 93.1755 86.4286 96.8016 68.2901 96.8016C50.1516 96.8016 35.457 93.1755 35.457 88.7095C35.457 84.2436 50.1516 83.7891 68.2901 83.7891C86.4286 83.7891 101.123 84.2436 101.123 88.7095Z" fill="#97E4FF"/>
<path d="M51.0211 38.7541C51.0211 43.0323 48.0103 44.1982 44.2918 44.1982C40.5733 44.1982 37.5625 43.0323 37.5625 38.7541C37.5625 34.4758 40.5733 31.0078 44.2918 31.0078C48.0103 31.0078 51.0211 34.4758 51.0211 38.7541Z" fill="#303030"/>
<path d="M42.1792 36.1521C43.0894 36.1521 43.8272 35.5549 43.8272 34.8182C43.8272 34.0816 43.0894 33.4844 42.1792 33.4844C41.2691 33.4844 40.5312 34.0816 40.5312 34.8182C40.5312 35.5549 41.2691 36.1521 42.1792 36.1521Z" fill="white"/>
<path d="M81.4352 38.7541C81.4352 43.0323 78.4244 44.1982 74.7059 44.1982C70.9873 44.1982 67.9766 43.0323 67.9766 38.7541C67.9766 34.4758 70.9873 31.0078 74.7059 31.0078C78.4244 31.0078 81.4352 34.4758 81.4352 38.7541Z" fill="#303030"/>
<path d="M72.5933 36.1521C73.5035 36.1521 74.2413 35.5549 74.2413 34.8182C74.2413 34.0816 73.5035 33.4844 72.5933 33.4844C71.6832 33.4844 70.9453 34.0816 70.9453 34.8182C70.9453 35.5549 71.6832 36.1521 72.5933 36.1521Z" fill="white"/>
<path d="M33.168 49.1466C36.8786 49.1466 39.8867 47.9787 39.8867 46.5381C39.8867 45.0975 36.8786 43.9297 33.168 43.9297C29.4573 43.9297 26.4492 45.0975 26.4492 46.5381C26.4492 47.9787 29.4573 49.1466 33.168 49.1466Z" fill="#FF7471"/>
<path d="M85.1211 49.1466C88.8317 49.1466 91.8398 47.9787 91.8398 46.5381C91.8398 45.0975 88.8317 43.9297 85.1211 43.9297C81.4104 43.9297 78.4023 45.0975 78.4023 46.5381C78.4023 47.9787 81.4104 49.1466 85.1211 49.1466Z" fill="#FF7471"/>
<path d="M41.2065 7.53904C41.2065 7.53904 46.2878 8.95195 48.1788 13.5859C48.4535 14.2479 48.126 15.0086 47.4393 15.3149C45.168 16.3524 40.055 18.8225 37.5408 21.095C34.2554 24.069 34.53 6.21507 41.196 7.53904H41.2065Z" fill="#97E4FF"/>
<path d="M48.1762 15.0657C47.5423 15.0657 46.9402 14.7002 46.6972 14.1172C45.1232 10.2441 40.7919 8.96951 40.7496 8.95963C39.9151 8.7225 39.4397 7.89255 39.6932 7.11199C39.9468 6.33144 40.8236 5.88682 41.6582 6.11407C41.9011 6.18324 47.5106 7.79374 49.6551 13.0501C49.972 13.8109 49.5601 14.6705 48.7361 14.9669C48.5459 15.0361 48.3557 15.0657 48.1762 15.0657Z" fill="#222222"/>
<path d="M97.2791 7.70897C97.2791 7.70897 92.314 9.41828 90.74 14.1708C90.5181 14.8525 90.8879 15.5837 91.5956 15.8603C93.9409 16.7594 99.2123 18.9134 101.874 21.0278C105.361 23.7943 103.839 5.99965 97.2791 7.71884V7.70897Z" fill="#97E4FF"/>
<path d="M90.7517 15.6491C90.5932 15.6491 90.4348 15.6294 90.2869 15.58C89.4523 15.3429 88.9875 14.5129 89.241 13.7225C91.0158 8.33762 96.5091 6.39118 96.7415 6.31214C97.5655 6.0256 98.474 6.42082 98.7804 7.19149C99.0867 7.96217 98.6642 8.81188 97.8507 9.08853C97.7662 9.11817 93.5723 10.6595 92.2729 14.5919C92.0616 15.2243 91.4384 15.6393 90.7623 15.6393L90.7517 15.6491Z" fill="#222222"/>
<path d="M61.2156 46.4614C58.4795 49.2872 55.7434 49.2872 53.0073 46.4614C52.7221 46.165 52.5742 45.7697 52.5742 45.3745C52.5742 44.4655 53.356 43.7344 54.3279 43.7344H59.8951C60.867 43.7344 61.6487 44.4655 61.6487 45.3745C61.6487 45.7697 61.5008 46.165 61.2156 46.4614Z" fill="#303030"/>
<path d="M15.6495 57.5781C15.6495 57.5781 0.637965 61.718 1.62042 69.3556C2.60288 76.9932 17.6567 68.6146 17.6567 68.6146" fill="#B3EFFF"/>
<path d="M5.76306 74.0289C4.68552 74.0289 3.67137 73.8609 2.81568 73.4657C1.72758 72.9618 0.354268 71.875 0.0584745 69.5234C-1.07188 60.7496 14.5523 56.3331 15.2179 56.1453C16.0524 55.9181 16.9398 56.3627 17.1828 57.1432C17.4258 57.9238 16.9504 58.7538 16.1158 58.981C12.3022 60.0382 2.54101 63.9311 3.20654 69.1677C3.34387 70.2645 3.81928 70.6201 4.22071 70.798C6.62932 71.9046 13.0628 69.4345 16.8659 67.33C17.6159 66.915 18.5878 67.1422 19.0421 67.8438C19.4858 68.5453 19.2428 69.4543 18.4927 69.8791C17.5948 70.3731 10.8655 74.0289 5.78417 74.0289H5.76306Z" fill="#222222"/>
<path d="M116.876 56.625C116.876 56.625 139.769 60.7945 139.663 69.6375C139.557 78.4805 115.852 69.43 115.852 69.43" fill="#B3EFFF"/>
<path d="M133.568 74.9661C126.448 74.9661 116.645 71.3202 115.261 70.7965C114.447 70.4902 114.067 69.6208 114.395 68.86C114.722 68.0992 115.652 67.7336 116.465 68.0498C122.698 70.431 133.843 73.4149 137.213 71.3301C137.614 71.0831 138.079 70.6582 138.09 69.6208C138.164 63.4257 122.18 59.108 116.581 58.0804C115.726 57.9223 115.166 57.1418 115.324 56.3415C115.493 55.5412 116.317 55.0175 117.184 55.1657C119.656 55.6202 141.365 59.8589 141.259 69.6504C141.238 71.4487 140.446 72.8813 138.967 73.8002C137.614 74.64 135.713 74.9661 133.579 74.9661H133.568Z" fill="#222222"/>
<path d="M57.1033 52.7028C56.5223 52.7028 56.0469 52.2582 56.0469 51.7148V48.5037C56.0469 47.9602 56.5223 47.5156 57.1033 47.5156C57.6843 47.5156 58.1597 47.9602 58.1597 48.5037V51.7148C58.1597 52.2582 57.6843 52.7028 57.1033 52.7028Z" fill="#222222"/>
</svg>
