<svg width="24" height="24" viewBox="0 0 24 24" fill="none" xmlns="http://www.w3.org/2000/svg">
<g clip-path="url(#clip0_1473_34785)">
<path fill-rule="evenodd" clip-rule="evenodd" d="M12.3297 4.72381C12.1813 4.66169 12.0183 4.62738 11.8474 4.62738C11.4888 4.62738 11.1654 4.77842 10.9375 5.02036L5.00869 10.9491C4.52054 11.4373 4.52054 12.2287 5.00869 12.7169C5.49685 13.205 6.28831 13.205 6.77646 12.7169L10.5975 8.89589L10.5976 17.8103C10.5976 18.5007 11.1572 19.0603 11.8476 19.0603C12.5379 19.0603 13.0976 18.5006 13.0976 17.8103L13.0975 8.89487L17.2371 13.0346C17.7253 13.5227 18.5168 13.5227 19.0049 13.0346C19.4931 12.5464 19.4931 11.7549 19.0049 11.2668L12.7319 4.99373C12.6129 4.87476 12.4759 4.78479 12.3297 4.72381Z" fill="#FF5065"/>
</g>
<defs>
<clipPath id="clip0_1473_34785">
<rect width="24" height="24" rx="12" fill="white"/>
</clipPath>
</defs>
</svg>
