<svg width="24" height="24" viewBox="0 0 24 24" fill="none" xmlns="http://www.w3.org/2000/svg">
  <path d="M20 12C20 7.58172 16.4182 4 12 4C7.58172 4 4 7.58172 4 12C4 16.4182 7.58172 20 12 20C16.4182 20 20 16.4182 20 12Z" fill="#FF5065"></path>
  <path d="M12.5624 7.59961H11.4389C11.3301 7.59943 11.2224 7.619 11.1225 7.6571C11.0225 7.69519 10.9325 7.751 10.8578 7.82111C10.7832 7.8912 10.7256 7.97411 10.6885 8.0647C10.6513 8.15529 10.6355 8.25166 10.6421 8.34786L10.9926 13.5996H13.0006L13.3592 8.34786C13.3657 8.25166 13.3499 8.15529 13.3128 8.0647C13.2757 7.97411 13.2181 7.8912 13.1434 7.82111C13.0688 7.751 12.9787 7.69519 12.8788 7.6571C12.7789 7.619 12.6712 7.59943 12.5624 7.59961Z" fill="white"></path>
  <path d="M12.0008 17.0885C12.6635 17.0885 13.2008 16.5512 13.2008 15.8885C13.2008 15.2257 12.6635 14.6885 12.0008 14.6885C11.3381 14.6885 10.8008 15.2257 10.8008 15.8885C10.8008 16.5512 11.3381 17.0885 12.0008 17.0885Z" fill="white"></path>
</svg>