<svg width="32" height="32" viewBox="0 0 32 32" fill="none" xmlns="http://www.w3.org/2000/svg">
    <g clip-path="url(#clip0_1284_48447)">
        <path d="M20.8492 10.5964H11.1522C9.0092 10.5964 7.27344 12.3549 7.27344 14.5262V21.4034C7.27344 23.5746 9.0092 25.3332 11.1522 25.3332H20.8492C22.9922 25.3332 24.728 23.5746 24.728 21.4034V14.5262C24.728 12.3549 22.9922 10.5964 20.8492 10.5964Z" fill="#FFC747"/>
        <path d="M16.0012 6.66666C16.3212 6.66666 16.6315 6.79438 16.8545 7.03017C17.0775 7.25614 17.2133 7.57052 17.2133 7.89473V10.5965H14.7891V7.89473C14.7891 7.57052 14.9151 7.25614 15.1479 7.03017C15.3709 6.80421 15.6812 6.66666 16.0012 6.66666Z" fill="#FF5065"/>
        <path d="M14.0602 16.4913C14.0602 15.6758 13.4105 15.0176 12.6057 15.0176C11.8008 15.0176 11.1511 15.6758 11.1511 16.4913V18.4562C11.1511 19.2716 11.8008 19.9299 12.6057 19.9299C13.4105 19.9299 14.0602 19.2716 14.0602 18.4562V16.4913Z" fill="#FFF6E0"/>
        <path d="M20.8493 16.4913C20.8493 15.6758 20.1996 15.0176 19.3947 15.0176C18.5899 15.0176 17.9402 15.6758 17.9402 16.4913V18.4562C17.9402 19.2716 18.5899 19.9299 19.3947 19.9299C20.1996 19.9299 20.8493 19.2716 20.8493 18.4562V16.4913Z" fill="#FFF6E0"/>
        <path d="M7.27265 14.5263V20.4211C6.75871 20.4211 6.26416 20.2147 5.90537 19.8414C5.54659 19.4681 5.33325 18.9768 5.33325 18.4561V16.4912C5.33325 15.9705 5.53689 15.4695 5.90537 15.106C6.27386 14.7425 6.75871 14.5263 7.27265 14.5263Z" fill="#FFE39E"/>
        <path d="M24.7266 14.526C25.2405 14.526 25.735 14.7324 26.0938 15.1057C26.4623 15.479 26.666 15.9703 26.666 16.491V18.4559C26.666 18.9766 26.4623 19.4776 26.0938 19.8411C25.7254 20.2145 25.2405 20.4208 24.7266 20.4208V14.526Z" fill="#FFE39E"/>
    </g>
    <defs>
        <clipPath id="clip0_1284_48447">
            <rect width="21.3333" height="18.6667" fill="white" transform="translate(5.33325 6.66666)"/>
        </clipPath>
    </defs>
</svg>
