<svg width="32" height="32" viewBox="0 0 32 32" fill="none" xmlns="http://www.w3.org/2000/svg">
<path d="M16.3444 5.32812H15.6777V10.6615H16.3444V5.32812Z" fill="#FFC747"/>
<path d="M23.1719 10.1016H8.8252C8.31853 10.1016 7.85186 10.3816 7.63853 10.8349L7.0652 11.9949C6.89186 12.3549 7.1452 12.7682 7.5452 12.7682H24.4652C24.8652 12.7682 25.1185 12.3549 24.9452 11.9949L24.3719 10.8349C24.1452 10.3816 23.6785 10.1016 23.1852 10.1016H23.1719Z" fill="#FF5065"/>
<path d="M25.332 15.9922H6.66536C5.92898 15.9922 5.33203 16.5891 5.33203 17.3255V25.3255C5.33203 26.0619 5.92898 26.6589 6.66536 26.6589H25.332C26.0684 26.6589 26.6654 26.0619 26.6654 25.3255V17.3255C26.6654 16.5891 26.0684 15.9922 25.332 15.9922Z" fill="#FFE195"/>
<path d="M23.998 12.7793H19.998L16.9447 9.72594C16.4247 9.20594 15.5847 9.20594 15.0647 9.72594L12.0114 12.7793H7.99805V26.6593H23.998V12.7793Z" fill="#FFC747"/>
<path d="M15.9993 14.0964C16.7357 14.0964 17.3327 13.4994 17.3327 12.763C17.3327 12.0266 16.7357 11.4297 15.9993 11.4297C15.263 11.4297 14.666 12.0266 14.666 12.763C14.666 13.4994 15.263 14.0964 15.9993 14.0964Z" fill="#F8FAFB"/>
<path d="M11.9987 15.9922H9.9987C9.62536 15.9922 9.33203 16.2855 9.33203 16.6589V18.6589C9.33203 19.0322 9.62536 19.3255 9.9987 19.3255H11.9987C12.372 19.3255 12.6654 19.0322 12.6654 18.6589V16.6589C12.6654 16.2855 12.372 15.9922 11.9987 15.9922Z" fill="white"/>
<path d="M21.9987 15.9922H19.9987C19.6254 15.9922 19.332 16.2855 19.332 16.6589V18.6589C19.332 19.0322 19.6254 19.3255 19.9987 19.3255H21.9987C22.372 19.3255 22.6654 19.0322 22.6654 18.6589V16.6589C22.6654 16.2855 22.372 15.9922 21.9987 15.9922Z" fill="white"/>
<path d="M11.9987 20.6641H9.9987C9.62536 20.6641 9.33203 20.9574 9.33203 21.3307V23.3307C9.33203 23.7041 9.62536 23.9974 9.9987 23.9974H11.9987C12.372 23.9974 12.6654 23.7041 12.6654 23.3307V21.3307C12.6654 20.9574 12.372 20.6641 11.9987 20.6641Z" fill="white"/>
<path d="M21.9987 20.6641H19.9987C19.6254 20.6641 19.332 20.9574 19.332 21.3307V23.3307C19.332 23.7041 19.6254 23.9974 19.9987 23.9974H21.9987C22.372 23.9974 22.6654 23.7041 22.6654 23.3307V21.3307C22.6654 20.9574 22.372 20.6641 21.9987 20.6641Z" fill="white"/>
<path d="M16.9987 15.9922H14.9987C14.6254 15.9922 14.332 16.2855 14.332 16.6589V18.6589C14.332 19.0322 14.6254 19.3255 14.9987 19.3255H16.9987C17.372 19.3255 17.6654 19.0322 17.6654 18.6589V16.6589C17.6654 16.2855 17.372 15.9922 16.9987 15.9922Z" fill="white"/>
<path d="M16.3457 5.32812H19.719C20.0657 5.32812 20.3457 5.60813 20.3457 5.95479V7.36812C20.3457 7.71479 20.0657 7.99479 19.719 7.99479H16.3457V5.32812Z" fill="#FF5065"/>
</svg>