                            <svg class="science-character" width="192" height="178" viewBox="0 0 192 178" fill="none" xmlns="http://www.w3.org/2000/svg">
                                <path d="M94.4823 127.403C92.1153 129.145 89.2005 129.978 86.2789 129.721C83.2356 129.45 79.915 128.453 76.6958 126.711C73.4767 124.969 70.8256 122.726 68.932 120.327C67.1127 118.022 66.2133 115.114 66.3688 112.18C66.4838 109.936 67.2209 107.774 68.4924 105.924L91.1279 72.1429C93.2988 68.1168 100.251 67.6627 106.656 71.133C113.06 74.6032 116.496 80.6762 114.325 84.7022L98.5333 122.191C97.688 124.271 96.2813 126.067 94.4756 127.396L94.4823 127.403Z" fill="#94D8ED" />
                                <mask id="mask0_161_82928" style="mask-type:luminance" maskUnits="userSpaceOnUse" x="66" y="68" width="49" height="62">
                                    <path d="M94.4823 127.403C92.1153 129.145 89.2005 129.978 86.2789 129.721C83.2356 129.45 79.915 128.453 76.6958 126.711C73.4767 124.969 70.8256 122.726 68.932 120.327C67.1127 118.022 66.2133 115.114 66.3688 112.18C66.4838 109.936 67.2209 107.774 68.4924 105.924L91.1279 72.1429C93.2988 68.1168 100.251 67.6627 106.656 71.133C113.06 74.6032 116.496 80.6762 114.325 84.7022L98.5333 122.191C97.688 124.271 96.2813 126.067 94.4756 127.396L94.4823 127.403Z" fill="white" />
                                </mask>
                                <g mask="url(#mask0_161_82928)">
                                    <path d="M103.532 119.127C96.5659 101.897 84.582 95.7092 67.9316 99.8504L73.4299 89.6565C91.9671 85.5017 104.059 91.6967 109.03 108.933L103.532 119.127Z" fill="white" />
                                </g>
                                <path d="M94.4823 127.403C92.1153 129.145 89.2005 129.978 86.2789 129.721C83.2356 129.45 79.915 128.453 76.6958 126.711C73.4767 124.969 70.8256 122.726 68.932 120.327C67.1127 118.022 66.2133 115.114 66.3688 112.18C66.4838 109.936 67.2209 107.774 68.4924 105.924L91.1279 72.1429C93.2988 68.1168 100.251 67.6627 106.656 71.133C113.06 74.6032 116.496 80.6762 114.325 84.7022L98.5333 122.191C97.688 124.271 96.2813 126.067 94.4756 127.396L94.4823 127.403Z" stroke="#303030" stroke-width="2.0339" stroke-linecap="round" stroke-linejoin="round" />
                                <path d="M86.1328 109.224C91.577 112.173 95.3913 116.538 96.6695 120.699" stroke="#303030" stroke-width="2.0339" stroke-linecap="round" stroke-linejoin="round" />
                                <path d="M71.3945 106.513C73.4505 106.032 75.8378 106.005 78.3604 106.452" stroke="#303030" stroke-width="2.0339" stroke-linecap="round" stroke-linejoin="round" />
                                <g style="mix-blend-mode:multiply" opacity="0.15">
                                    <path d="M114.332 84.7094L98.5409 122.191C97.6955 124.272 96.2888 126.075 94.4831 127.403C94.3208 127.518 94.1585 127.634 93.9962 127.742C91.7239 129.253 89.0052 129.965 86.2797 129.721C83.2364 129.45 79.9158 128.46 76.6966 126.712C73.4775 124.97 70.8264 122.726 68.9328 120.327C67.9724 119.107 67.2623 117.718 66.8363 116.247C66.4508 114.939 66.2952 113.563 66.3696 112.18C66.3696 112.18 76.2029 105.843 87.727 115.4C88.6805 116.193 89.5124 116.952 90.2293 117.684C91.7442 119.229 94.3749 118.748 95.2 116.748L95.2203 116.708L111.012 79.2193C111.729 77.8841 111.837 76.3184 111.411 74.6985C114.583 77.9586 115.868 81.8491 114.326 84.7162L114.332 84.7094Z" fill="black" />
                                </g>
                                <path d="M72.64 114.614C71.2063 115.753 68.9204 117.23 67.8924 118.749L64.6327 123.12C63.7332 124.144 63.1178 125.865 63.9158 127.038C66.1747 130.603 66.1138 130.915 70.4556 130.522C72.6603 130.007 74.9935 121.907 76.0891 120.199C76.691 119.142 76.7045 117.63 76.1026 116.722C75.3452 115.61 74.2361 113.164 72.64 114.621V114.614Z" fill="white" stroke="#303030" stroke-width="2.0339" stroke-linecap="round" stroke-linejoin="round" />
                                <path d="M67.5534 122.923C66.8633 124.651 67.0527 126.637 68.1082 128.23L68.3789 128.637" stroke="#303030" stroke-width="2.0339" stroke-linecap="round" stroke-linejoin="round" />
                                <g style="mix-blend-mode:multiply" opacity="0.15">
                                    <path d="M67.3511 126.549C67.3511 126.549 66.8574 121.987 70.3809 119.08C73.9044 116.179 74.5401 114.471 74.5401 114.471C74.6415 114.552 74.7294 114.654 74.8174 114.776L76.1091 116.721C76.711 117.629 76.6975 119.141 76.0956 120.198L72.4842 128.345C72.4165 128.508 72.3286 128.657 72.2407 128.799L71.6456 129.687C71.4427 129.992 71.206 130.216 70.9557 130.351C70.7934 130.439 70.6311 130.5 70.462 130.521C70.3876 130.534 70.3133 130.534 70.2389 130.527L67.6419 130.643C66.898 130.656 66.127 130.277 65.6806 129.68L63.5977 126.169C64.2875 127.328 65.8632 126.874 67.3578 126.549H67.3511Z" fill="black" />
                                </g>
                                <path d="M88.2424 123.336C88.1883 125.166 88.3776 127.891 87.7757 129.626L86.227 134.859C85.9497 136.194 84.9353 137.719 83.5218 137.773C79.3221 138.092 79.1124 138.322 76.8265 134.601C75.9203 132.52 81.006 125.81 81.7161 123.906C82.2031 122.787 83.4001 121.872 84.4889 121.818C85.8348 121.764 88.452 121.194 88.2424 123.343V123.336Z" fill="white" stroke="#303030" stroke-width="2.0339" stroke-linecap="round" stroke-linejoin="round" />
                                <path d="M85.4836 130.114C84.902 132.385 84.0161 134.662 82.5959 134.981L79.1738 134.703" stroke="#303030" stroke-width="2.0339" stroke-linecap="round" stroke-linejoin="round" />
                                <g style="mix-blend-mode:multiply" opacity="0.15">
                                    <path d="M88.242 123.343L88.215 126.678C88.2014 127.681 88.0594 128.671 87.7754 129.633L86.2267 134.866C86.2131 134.933 86.1928 134.994 86.1658 135.069L85.875 135.896C85.5233 136.885 84.4751 137.733 83.5215 137.78L80.3564 137.95C79.6125 137.95 78.8551 137.55 78.4155 136.946L76.9547 134.798C76.9073 134.737 76.8667 134.676 76.8262 134.608C76.9547 133.917 81.4588 135.828 82.764 134.947C84.0693 134.059 82.4056 132.548 82.4056 132.548C80.2753 133.517 77.658 131.151 77.658 131.151L80.4241 126.217C81.4655 124.767 82.6558 123.269 83.7244 121.994C83.9814 121.893 84.2383 121.832 84.4886 121.818L86.815 121.696C87.8295 121.642 88.3164 122.632 88.242 123.343Z" fill="black" />
                                </g>
                                <path d="M83.184 127.166L85.7337 117.955C86.2612 116.708 85.7607 115.244 84.5501 114.593L81.9532 113.204C80.8238 112.6 79.4509 112.906 78.6664 113.861L78.6191 113.841L73.4589 122.266C73.4048 122.347 73.3507 122.428 73.3034 122.523L72.7285 123.601C72.0455 124.889 72.5257 126.488 73.8106 127.18L78.8219 129.857C80.1069 130.541 81.703 130.06 82.3928 128.772L82.9676 127.695C83.0623 127.525 83.1299 127.342 83.1773 127.166H83.184Z" fill="white" stroke="#303030" stroke-width="2.0339" stroke-linecap="round" stroke-linejoin="round" />
                                <path d="M75.1152 122.157C75.5278 122.157 75.9403 122.258 76.3326 122.469L81.3439 125.146C81.6618 125.315 81.939 125.546 82.1487 125.81" fill="white" />
                                <path d="M75.1152 122.157C75.5278 122.157 75.9403 122.258 76.3326 122.469L81.3439 125.146C81.6618 125.315 81.939 125.546 82.1487 125.81" stroke="#303030" stroke-width="2.0339" stroke-linecap="round" stroke-linejoin="round" />
                                <g style="mix-blend-mode:multiply" opacity="0.15">
                                    <path d="M81.9941 125.031L76.3268 122.476C73.811 122.279 72.8574 126.298 72.8574 126.298C73.0874 126.657 73.4187 126.962 73.8178 127.179L78.8291 129.857C80.1141 130.548 81.7101 130.06 82.3999 128.772L82.9748 127.694C83.0627 127.525 83.1371 127.342 83.1844 127.166L85.734 117.961C86.2616 116.714 86.3968 115.542 85.1795 114.891L81.9941 125.038V125.031Z" fill="black" />
                                </g>
                                <path d="M99.2783 48.2983C99.2783 48.2983 92.1975 51.5178 90.4121 67.1679C88.8228 81.0828 89.9658 87.4811 92.1975 87.7319C94.4293 87.9827 99.2783 48.2983 99.2783 48.2983Z" fill="white" stroke="#303030" stroke-width="2.0339" stroke-linecap="round" stroke-linejoin="round" />
                                <path d="M116.76 126.63C146.639 136.688 190.76 133.658 213.342 109.956C217.359 107.381 215.912 72.9763 215.912 72.9763C215.729 18.8416 133.012 -18.2469 96.9789 52.5682C90.0469 67.4727 92.5424 89.3855 92.7182 105.381C93.8679 115.318 102.673 120.597 116.76 126.63Z" fill="#94D8ED" stroke="#303030" stroke-width="2.0339" stroke-linecap="round" stroke-linejoin="round" />
                                <path d="M196.462 85.692C196.462 89.7791 196.104 93.7645 195.414 97.6143C168.626 112.715 128.251 112.688 101.524 97.4652C94.1592 66.687 111.946 28.0532 146.376 26.7383C177.844 27.3686 197.274 55.8288 196.462 85.692Z" fill="white" stroke="#303030" stroke-width="2.0339" stroke-linecap="round" stroke-linejoin="round" />
                                <path d="M116.586 40.0098C102.519 55.0092 97.0548 77.3829 101.518 97.4589L98.3262 98.0892C94.2684 76.8338 100.693 54.4805 116.579 40.0098H116.586Z" fill="#94D8ED" stroke="#303030" stroke-width="2.0339" stroke-linecap="round" stroke-linejoin="round" />
                                <g style="mix-blend-mode:multiply" opacity="0.15">
                                    <path d="M116.586 40.0098C102.519 55.0092 97.0548 77.3829 101.518 97.4589L98.3262 98.0892C94.2684 76.8338 100.693 54.4805 116.579 40.0098H116.586Z" fill="black" />
                                </g>
                                <path d="M178.695 39.7519C194.947 53.9989 201.412 76.6234 198.937 98.3668L195.413 97.6077C198.842 76.9352 193.912 54.0532 178.695 39.7451V39.7519Z" fill="#94D8ED" stroke="#303030" stroke-width="2.0339" stroke-linecap="round" stroke-linejoin="round" />
                                <g style="mix-blend-mode:multiply" opacity="0.15">
                                    <path d="M178.695 39.7519C194.947 53.9989 201.412 76.6234 198.937 98.3668L195.413 97.6077C198.842 76.9352 193.912 54.0532 178.695 39.7451V39.7519Z" fill="black" />
                                </g>
                                <path d="M198.937 98.367C173.319 117.677 122.306 116.627 98.3379 98.0891L101.523 97.4587C128.25 112.682 168.625 112.709 195.413 97.6079L198.937 98.367Z" fill="#94D8ED" stroke="#303030" stroke-width="2.0339" stroke-linecap="round" stroke-linejoin="round" />
                                <path d="M92.252 89.7998C94.8489 96.0558 98.3386 98.0891 98.3386 98.0891" stroke="#303030" stroke-width="2.0339" stroke-linecap="round" stroke-linejoin="round" />
                                <path d="M159.488 2.45322C155.708 2.26344 152.238 6.91305 150.629 13.6299C150.155 15.5887 149.851 17.7237 149.736 19.9672C149.709 20.5094 149.696 21.0449 149.689 21.5735C149.689 22.2581 149.094 22.8003 148.411 22.7461C145.367 22.5021 143.338 22.5834 142.141 22.6919C141.452 22.7597 140.85 22.2107 140.85 21.5125C140.85 20.8551 140.863 20.1909 140.897 19.5199C140.978 17.8864 141.167 16.3072 141.445 14.816C142.858 7.23838 146.571 1.79577 150.649 2.00588L159.488 2.46V2.45322Z" fill="white" stroke="#303030" stroke-width="2.0339" stroke-linecap="round" stroke-linejoin="round" />
                                <path d="M167.245 15.2296C165.433 14.7958 163.593 14.4434 161.747 14.179C155.478 14.85 151.738 19.5945 150.331 21.7702C150.142 22.0685 149.675 21.9261 149.682 21.5737C149.682 21.045 149.702 20.5096 149.729 19.9673C149.844 17.7239 150.155 15.5888 150.622 13.63C152.231 6.91995 155.701 2.26357 159.481 2.45335C163.397 2.65668 166.454 8.00441 167.238 15.2296H167.245Z" fill="white" stroke="#303030" stroke-width="2.0339" stroke-linecap="round" stroke-linejoin="round" />
                                <path d="M165.263 14.7892C164.093 14.5452 162.923 14.3418 161.746 14.1724C157.965 14.5723 155.105 16.4633 153.123 18.3746C153.123 18.1103 153.123 17.846 153.137 17.5816C153.38 11.6171 156.322 6.88619 159.717 7.02852C162.463 7.13697 164.654 10.3903 165.269 14.7892H165.263Z" fill="#ADADAD" stroke="#303030" stroke-width="2.0339" stroke-linecap="round" stroke-linejoin="round" />
                                <path d="M144.632 22.5767C144.632 22.5767 143.759 25.159 143.786 26.9009L144.632 22.5767Z" fill="white" />
                                <path d="M144.632 22.5767C144.632 22.5767 143.759 25.159 143.786 26.9009" stroke="#303030" stroke-width="2.0339" stroke-linecap="round" stroke-linejoin="round" />
                                <g style="mix-blend-mode:multiply" opacity="0.15">
                                    <path d="M216.101 79.6192C216.02 75.6745 215.912 72.9769 215.912 72.9769C215.878 63.6032 213.369 54.7377 209.061 46.8619C208.926 46.6179 208.79 46.3739 208.655 46.1299C208.527 45.8994 208.398 45.6757 208.263 45.4453C207.6 44.2998 206.89 43.1815 206.146 42.0767C206.024 41.9005 205.903 41.7242 205.781 41.548C205.693 41.4125 205.592 41.2769 205.497 41.1413C205.375 40.9651 205.253 40.7889 205.125 40.6195C204.111 39.1961 203.028 37.8202 201.885 36.4917C201.723 36.2952 201.547 36.0986 201.378 35.9021C200.519 34.9125 199.62 33.95 198.693 33.0147C198.538 32.852 198.376 32.6894 198.213 32.5335C196.888 31.2186 195.501 29.9579 194.061 28.765C193.878 28.6091 193.696 28.46 193.513 28.3109C193.364 28.1889 193.222 28.0669 193.073 27.9516C192.918 27.8296 192.762 27.7009 192.6 27.5789C192.012 27.118 191.423 26.6639 190.821 26.2233C190.422 25.9318 190.017 25.6404 189.611 25.3557C189.097 25.0033 188.583 24.6508 188.062 24.3052C187.825 24.1493 187.589 23.9934 187.352 23.8443C187.115 23.6884 186.879 23.5393 186.635 23.3901C186.419 23.2546 186.195 23.119 185.979 22.9835C185.431 22.6446 184.87 22.3192 184.309 22.0007C184.113 21.8855 183.916 21.777 183.72 21.6686C183.477 21.533 183.227 21.3975 182.976 21.2619C182.726 21.1331 182.483 20.9976 182.232 20.8688C181.232 20.3469 180.217 19.8453 179.196 19.3777C178.682 19.1472 178.168 18.9168 177.647 18.6931C177.39 18.5846 177.126 18.4762 176.869 18.3678C176.606 18.2593 176.342 18.1509 176.071 18.0424C175.814 17.9475 175.557 17.8459 175.3 17.7442C174.786 17.5476 174.272 17.3579 173.758 17.1681C173.745 17.1681 173.731 17.1613 173.711 17.1545C173.441 17.0596 173.184 16.9715 172.913 16.8766C172.643 16.7817 172.379 16.6936 172.108 16.6055C171.033 16.2531 169.951 15.9345 168.862 15.6431C168.828 15.6363 168.801 15.6295 168.767 15.6159C168.253 15.4804 167.739 15.3516 167.219 15.2296C166.427 8.00442 163.371 2.65669 159.462 2.45336C155.681 2.26358 152.212 6.91318 150.602 13.63C150.129 15.5888 149.824 17.7239 149.709 19.9673C149.662 20.9501 149.432 21.6347 149.459 22.5768L149.561 23.0377L149.791 23.3563C159.171 23.9256 169.444 21.5127 169.444 21.5127C185.648 28.399 192.958 49.3493 196.252 67.636C199.241 77.4096 200.093 87.9899 198.917 98.36L202.061 96.6113L201.311 119.568C206.694 116.565 209.176 114.308 213.322 109.95C216.209 108.1 216.27 89.7521 216.081 79.6124L216.101 79.6192Z" fill="black" />
                                </g>
                                <path d="M155.148 112.288L154.864 115.074C154.64 117.256 152.916 118.985 150.738 119.174C146.633 119.527 142.109 119.5 137.375 119.012C132.647 118.531 128.197 117.649 124.255 116.484C122.158 115.86 120.812 113.82 121.029 111.637L121.306 108.906C132.045 111.712 143.806 112.905 155.148 112.288Z" fill="white" stroke="#303030" stroke-width="2.0339" stroke-linecap="round" stroke-linejoin="round" />
                                <g style="mix-blend-mode:multiply" opacity="0.15">
                                    <path d="M195.413 97.6142C193.371 98.7665 191.254 99.8238 189.069 100.8C195.291 57.3673 165.014 30.7778 165.014 30.7778C178.256 36.6271 187.879 48.2647 192.782 62.1525C196.603 73.3631 197.361 85.8479 195.406 97.6142H195.413Z" fill="black" />
                                </g>
                                <path d="M145.625 60.9943C148.249 58.4723 150.684 58.6418 152.943 61.496" stroke="#303030" stroke-width="2.0339" stroke-linecap="round" stroke-linejoin="round" />
                                <path d="M118.16 60.9943C120.784 58.4723 123.219 58.6418 125.478 61.496" stroke="#303030" stroke-width="2.0339" stroke-linecap="round" stroke-linejoin="round" />
                                <path d="M117.915 83.6161C118.021 82.0737 114.901 80.6037 110.948 80.3328C106.994 80.0618 103.703 81.0925 103.598 82.6348C103.492 84.1772 106.611 85.6472 110.565 85.9181C114.519 86.1891 117.809 85.1584 117.915 83.6161Z" fill="#FF7471" stroke="#303030" stroke-width="2.0339" stroke-linecap="round" stroke-linejoin="round" />
                                <path d="M165.026 86.1598C165.131 84.6174 162.012 83.147 158.058 82.8755C154.105 82.6039 150.814 83.6342 150.709 85.1765C150.603 86.7189 153.723 88.1893 157.676 88.4609C161.63 88.7324 164.92 87.7022 165.026 86.1598Z" fill="#FF7471" stroke="#303030" stroke-width="2.0339" stroke-linecap="round" stroke-linejoin="round" />
                                <path d="M125.887 73.371C126.035 71.2124 124.41 69.3427 122.258 69.1949C120.106 69.0471 118.242 70.6771 118.094 72.8357L117.749 77.8801C117.602 80.0387 119.227 81.9084 121.379 82.0562C123.531 82.2041 125.395 80.574 125.542 78.4155L125.887 73.371Z" fill="#303030" />
                                <path d="M120.19 73.9065C120.709 73.9065 121.13 73.4846 121.13 72.9641C121.13 72.4436 120.709 72.0217 120.19 72.0217C119.671 72.0217 119.25 72.4436 119.25 72.9641C119.25 73.4846 119.671 73.9065 120.19 73.9065Z" fill="white" />
                                <path d="M152.28 74.5728C152.427 72.4142 150.802 70.5445 148.65 70.3967C146.498 70.249 144.634 71.879 144.487 74.0376L144.142 79.082C143.994 81.2406 145.619 83.1103 147.771 83.2581C149.923 83.4058 151.787 81.7758 151.935 79.6172L152.28 74.5728Z" fill="#303030" />
                                <path d="M146.59 75.1057C147.11 75.1057 147.53 74.6838 147.53 74.1633C147.53 73.6429 147.11 73.2209 146.59 73.2209C146.071 73.2209 145.65 73.6429 145.65 74.1633C145.65 74.6838 146.071 75.1057 146.59 75.1057Z" fill="white" />
                                <path d="M195.713 130.839C192.399 130.331 188.247 127.267 185.041 122.611C181.842 117.955 180.462 112.973 181.173 109.686C181.173 109.631 181.186 109.577 181.193 109.53C181.632 105.924 183.763 102.745 186.908 100.929L225.003 78.9482C228.844 76.298 237.9 77.1317 242.039 83.1572C246.178 89.1827 243.838 98.1091 239.997 100.759L205.411 128.637C203.538 130.141 201.265 131.104 198.864 131.233C197.816 131.287 196.721 131.205 195.72 130.839H195.713Z" fill="#94D8ED" />
                                <mask id="mask1_161_82928" style="mask-type:luminance" maskUnits="userSpaceOnUse" x="180" y="77" width="65" height="55">
                                    <path d="M195.715 130.839C192.401 130.331 188.249 127.267 185.043 122.611C181.844 117.954 180.464 112.973 181.175 109.685C181.175 109.631 181.188 109.577 181.195 109.53C181.634 105.924 183.765 102.745 186.909 100.928L225.005 78.9479C228.846 76.2978 237.902 77.1314 242.041 83.157C246.18 89.1825 243.84 98.1089 239.999 100.759L205.413 128.636C203.54 130.141 201.267 131.103 198.866 131.232C197.818 131.286 196.723 131.205 195.722 130.839H195.715Z" fill="white" />
                                </mask>
                                <g mask="url(#mask1_161_82928)">
                                    <path d="M210.956 134.539C213.587 112.606 203.923 98.9893 182.572 93.2688L194.827 84.8032C215.393 90.1848 224.983 103.788 223.211 126.074L210.956 134.539Z" fill="white" />
                                </g>
                                <path d="M195.713 130.839C192.399 130.331 188.247 127.267 185.041 122.611C181.842 117.955 180.462 112.973 181.173 109.686C181.173 109.631 181.186 109.577 181.193 109.53C181.632 105.924 183.763 102.745 186.908 100.929L225.003 78.9482C228.844 76.298 237.9 77.1317 242.039 83.1572C246.178 89.1827 243.838 98.1091 239.997 100.759L205.411 128.637C203.538 130.141 201.265 131.104 198.864 131.233C197.816 131.287 196.721 131.205 195.72 130.839H195.713Z" stroke="#303030" stroke-width="2.0339" stroke-linecap="round" stroke-linejoin="round" />
                                <path d="M186.074 106.053C189.435 106.412 193.743 109.523 197.044 114.322C197.686 115.258 198.254 116.206 198.748 117.155" stroke="#303030" stroke-width="2.0339" stroke-linecap="round" stroke-linejoin="round" />
                                <g style="mix-blend-mode:multiply" opacity="0.15">
                                    <path d="M201.602 130.846C200.554 130.907 196.706 131.199 195.705 130.839C192.391 130.331 188.239 127.267 185.033 122.611C181.834 117.955 180.455 112.973 181.165 109.686C181.165 109.638 181.178 109.584 181.178 109.53C181.618 105.917 183.748 102.745 186.893 100.929L224.989 78.9481C225.983 78.2635 227.329 77.8094 228.85 77.6196L190.268 101.83C189.125 102.549 189.334 104.284 190.613 104.69C191.282 104.9 191.985 105.185 192.696 105.551C195.678 107.097 201.115 113.007 203.151 121.059C205.187 129.104 201.589 130.846 201.589 130.846H201.602Z" fill="black" />
                                </g>
                                <g style="mix-blend-mode:multiply" opacity="0.1">
                                    <path d="M192.838 123.112L189.531 109.496C189.253 108.371 188.138 107.672 187.008 107.916L185.06 99.905L180.793 100.949L182.741 108.96C181.632 109.258 180.949 110.397 181.226 111.522L184.533 125.139C185.094 127.437 187.4 128.846 189.693 128.284C191.986 127.721 193.392 125.41 192.831 123.112H192.838Z" fill="black" />
                                </g>
                                <path d="M171.337 65.1214L165.994 66.5244C159.955 67.9952 157.115 77.6876 159.664 88.1729C162.214 98.6515 169.18 105.951 175.219 104.474L180.562 103.071C186.608 101.593 189.442 91.9075 186.892 81.4289C184.342 70.9436 177.383 63.6506 171.337 65.1214ZM174.238 102.088C170.938 102.894 164.574 97.6348 162.126 87.5697C159.678 77.4978 162.917 69.8998 166.218 69.0932C169.518 68.2867 175.882 73.5463 178.33 83.6182C180.778 93.6833 177.539 101.288 174.232 102.095L174.238 102.088Z" fill="white" stroke="#303030" stroke-width="2.0339" stroke-linecap="round" stroke-linejoin="round" />
                                <path d="M165.994 66.5172C159.955 67.988 157.115 77.6803 159.664 88.1656C162.214 98.6442 169.18 105.944 175.219 104.466C181.265 102.989 184.106 93.3033 181.556 82.8247C179.006 72.3394 172.041 65.0464 165.994 66.5172ZM173.826 100.386C170.526 101.193 164.317 96.5973 162.126 87.5624C159.928 78.5275 163.33 71.587 166.63 70.7804C169.93 69.9739 176.139 74.5693 178.33 83.6041C180.528 92.639 177.126 99.5728 173.819 100.379L173.826 100.386Z" fill="white" stroke="#303030" stroke-width="2.0339" stroke-linecap="round" stroke-linejoin="round" />
                                <g style="mix-blend-mode:multiply" opacity="0.7">
                                    <path d="M178.33 83.612C180.528 92.674 177.14 99.628 173.833 100.435C170.533 101.241 164.324 96.6255 162.126 87.5702C159.922 78.5083 163.317 71.5542 166.624 70.7476C169.924 69.9411 176.133 74.5568 178.33 83.6188V83.612Z" fill="#94D8ED" />
                                </g>
                                <path d="M180.44 103.188L176.176 104.229L181.736 127.106L186.001 126.065L180.44 103.188Z" fill="#ADADAD" stroke="#303030" stroke-width="2.0339" stroke-linecap="round" stroke-linejoin="round" />
                                <path d="M178.18 112.22L182.339 111.205C183.483 110.925 184.635 111.628 184.913 112.774L188.223 126.392C188.782 128.69 187.375 131.008 185.082 131.568C182.789 132.128 180.476 130.718 179.918 128.42L176.608 114.801C176.329 113.655 177.03 112.501 178.173 112.222L178.18 112.22Z" fill="white" />
                                <mask id="mask2_161_82928" style="mask-type:luminance" maskUnits="userSpaceOnUse" x="176" y="111" width="13" height="21">
                                    <path d="M178.18 112.22L182.339 111.205C183.483 110.925 184.635 111.628 184.913 112.774L188.223 126.392C188.782 128.69 187.375 131.008 185.082 131.568C182.789 132.128 180.476 130.718 179.918 128.42L176.608 114.801C176.329 113.655 177.03 112.501 178.173 112.222L178.18 112.22Z" fill="white" />
                                </mask>
                                <g mask="url(#mask2_161_82928)">
                                    <path d="M190.99 121.683C186.439 125.851 181.251 127.146 175.429 125.478L174.15 120.219C179.987 121.75 185.167 120.463 189.712 116.423L190.99 121.683Z" fill="#94D8ED" />
                                </g>
                                <path d="M178.18 112.22L182.339 111.205C183.483 110.925 184.635 111.628 184.913 112.774L188.223 126.392C188.782 128.69 187.375 131.008 185.082 131.568C182.789 132.128 180.476 130.718 179.918 128.42L176.608 114.801C176.329 113.655 177.03 112.501 178.173 112.222L178.18 112.22Z" stroke="#303030" stroke-width="2.0339" stroke-linecap="round" stroke-linejoin="round" />
                                <g style="mix-blend-mode:multiply" opacity="0.15">
                                    <path d="M180.45 103.19L178.314 103.711L180.261 111.719L182.396 111.198L180.45 103.19Z" fill="black" />
                                    <path d="M180.45 103.19L178.314 103.711L180.261 111.719L182.396 111.198L180.45 103.19Z" stroke="#303030" stroke-width="0.677966" stroke-miterlimit="10" />
                                </g>
                                <g style="mix-blend-mode:multiply" opacity="0.15">
                                    <path d="M184.768 112.193L188.508 127.579C188.907 129.226 187.899 130.886 186.255 131.286L184.125 131.808C185.769 131.408 186.783 129.748 186.377 128.101L182.637 112.715C182.441 111.895 181.609 111.393 180.791 111.59L182.921 111.068C183.74 110.871 184.571 111.373 184.768 112.193Z" fill="black" />
                                    <path d="M184.768 112.193L188.508 127.579C188.907 129.226 187.899 130.886 186.255 131.286L184.125 131.808C185.769 131.408 186.783 129.748 186.377 128.101L182.637 112.715C182.441 111.895 181.609 111.393 180.791 111.59L182.921 111.068C183.74 110.871 184.571 111.373 184.768 112.193Z" stroke="#303030" stroke-width="0.677966" stroke-miterlimit="10" />
                                </g>
                                <path d="M166.698 75.9048C167.503 75.2948 168.673 75.1322 169.62 75.3829C171.256 75.8167 173.84 76.9757 172.636 79.9173C170.932 84.0925 165.724 80.9137 165.636 79.0159C165.575 77.6874 165.738 76.6368 166.698 75.9116V75.9048Z" fill="white" />
                                <path d="M172.283 82.2896C172.554 82.0794 172.959 82.0251 173.277 82.1133C173.832 82.2624 174.718 82.6557 174.305 83.659C173.724 85.0828 171.952 83.998 171.918 83.354C171.898 82.8997 171.952 82.5472 172.276 82.2963L172.283 82.2896Z" fill="white" />
                                <path opacity="0.9" d="M125.084 146.794L119.187 100.718C118.713 96.9973 115.176 93.195 111.288 92.2325L8.22741 66.741C4.33872 65.7785 1.57945 68.022 2.05285 71.7431L9.20127 127.599C9.67468 131.32 13.2117 135.123 17.1004 136.085L120.161 161.584C124.049 162.546 126.809 160.302 126.335 156.581L125.084 146.801" fill="#DCF8FF" />
                                <path d="M17.1261 89.5892L68.8355 136.716C72.474 140.037 69.2278 146.022 64.4734 144.761L24.0581 134.086C18.3975 132.588 14.1842 127.85 13.3524 122.042L9.30816 93.744C8.67921 89.3723 13.8664 86.6137 17.1329 89.5892H17.1261Z" fill="white" />
                                <path d="M87.9158 101.999L104.938 115.216C106.548 116.463 108.847 115.108 108.536 113.095L107.535 106.608C107.19 104.351 105.56 102.508 103.369 101.884L89.9041 98.0547C87.5235 97.3769 85.9613 100.488 87.9158 102.006V101.999Z" fill="white" />
                                <path d="M7.90234 117.466L9.20083 127.599C9.67423 131.32 13.2112 135.122 17.0999 136.085L120.16 161.583C124.049 162.546 126.808 160.302 126.335 156.581L125.084 146.801" stroke="#303030" stroke-width="2.0339" stroke-linecap="round" stroke-linejoin="round" />
                                <path d="M49.0485 76.84L8.22741 66.741C4.33872 65.7785 1.57945 68.022 2.05285 71.7431L6.34732 105.321" stroke="#303030" stroke-width="2.0339" stroke-linecap="round" stroke-linejoin="round" />
                                <path d="M123.197 132.026L119.194 100.725C118.72 97.0043 115.183 93.202 111.294 92.2395L56.2441 78.6228" stroke="#303030" stroke-width="2.0339" stroke-linecap="round" stroke-linejoin="round" />
                                <path d="M46.627 137.427L112.674 153.769C116.562 154.731 119.322 152.488 118.848 148.767L117.374 137.258C116.901 133.537 113.364 129.734 109.475 128.772L95.4756 125.308" stroke="#303030" stroke-width="2.0339" stroke-linecap="round" stroke-linejoin="round" />
                                <path d="M54.6222 115.202L19.8134 106.595C15.9247 105.632 13.1654 107.876 13.6388 111.597L15.1131 123.105C15.5865 126.826 19.1235 130.629 23.0122 131.591L38.9457 135.536" stroke="#303030" stroke-width="2.0339" stroke-linecap="round" stroke-linejoin="round" />
                                <path d="M71.2592 119.317L59.9922 116.531" stroke="#303030" stroke-width="2.0339" stroke-linecap="round" stroke-linejoin="round" />
                                <path d="M93.7108 93.859L73.2665 88.8028C69.3778 87.8403 66.6185 90.0838 67.0919 93.8048L68.5662 105.314C69.0396 109.035 72.5767 112.837 76.4653 113.799L108.576 121.743C112.464 122.706 115.224 120.462 114.75 116.741L113.276 105.232C112.803 101.511 109.266 97.7089 105.377 96.7464L100.203 95.4654" stroke="#303030" stroke-width="2.0339" stroke-linecap="round" stroke-linejoin="round" />
                                <path d="M17.216 99.5456L35.0296 103.565C37.187 104.053 38.5734 101.62 38.127 98.129L36.7474 87.3387C36.301 83.8481 34.191 80.6219 32.0336 80.1406L14.22 76.1214C12.0627 75.6334 10.6763 78.0666 11.1226 81.5572L12.5023 92.3475C12.9486 95.8381 15.0586 99.0644 17.216 99.5456Z" stroke="#303030" stroke-width="2.0339" stroke-linecap="round" stroke-linejoin="round" />
                                <path d="M25.5357 87.6777C26.5713 86.5625 26.2911 84.6148 24.9097 83.3276C23.5284 82.0404 21.569 81.901 20.5334 83.0163C19.4978 84.1315 19.778 86.0791 21.1593 87.3664C22.5407 88.6536 24.5 88.793 25.5357 87.6777Z" stroke="#303030" stroke-width="2.0339" stroke-linecap="round" stroke-linejoin="round" />
                                <path d="M18.4121 99.668L31.6877 102.671L31.3158 99.6409C30.8559 96.0215 27.515 92.4631 23.8495 91.6836C20.184 90.911 17.587 93.2154 18.0469 96.828L18.4189 99.668H18.4121Z" stroke="#303030" stroke-width="2.0339" stroke-linecap="round" stroke-linejoin="round" />
                                <path d="M58.6805 89.8465L46.6289 86.8643" stroke="#303030" stroke-width="2.0339" stroke-linecap="round" stroke-linejoin="round" />
                                <path d="M59.3367 94.9776L47.2852 91.9954" stroke="#303030" stroke-width="2.0339" stroke-linecap="round" stroke-linejoin="round" />
                                <path d="M50.092 97.6547L47.9414 97.1191" stroke="#303030" stroke-width="2.0339" stroke-linecap="round" stroke-linejoin="round" />
                                <path d="M59.9923 100.102L53.3105 98.4473" stroke="#303030" stroke-width="2.0339" stroke-linecap="round" stroke-linejoin="round" />
                                <path d="M60.6472 105.233L48.5957 102.25" stroke="#303030" stroke-width="2.0339" stroke-linecap="round" stroke-linejoin="round" />
                                <path d="M132.076 150.502L126.389 159.164" stroke="#303030" stroke-width="2.0339" stroke-linecap="round" stroke-linejoin="round" />
                                <path d="M153.456 117.927L137.4 142.388" stroke="#303030" stroke-width="2.0339" stroke-linecap="round" stroke-linejoin="round" />
                                <path d="M124.841 99.0579L115.596 94.5642" stroke="#303030" stroke-width="2.0339" stroke-linecap="round" stroke-linejoin="round" />
                                <path d="M151.595 112.071L132.273 102.67" stroke="#303030" stroke-width="2.0339" stroke-linecap="round" stroke-linejoin="round" />
                                <path d="M101.949 145.601L112.675 148.251" stroke="#303030" stroke-width="2.0339" stroke-linecap="round" stroke-linejoin="round" />
                                <path d="M54.6465 133.896L95.8531 144.09" stroke="#303030" stroke-width="2.0339" stroke-linecap="round" stroke-linejoin="round" />
                                <path d="M95.8555 139.542L112.675 143.704" stroke="#303030" stroke-width="2.0339" stroke-linecap="round" stroke-linejoin="round" />
                                <path d="M28.2793 122.821L85.9198 137.082" stroke="#303030" stroke-width="2.0339" stroke-linecap="round" stroke-linejoin="round" />
                                <path d="M19.1152 115.663L39.776 120.774" stroke="#303030" stroke-width="2.0339" stroke-linecap="round" stroke-linejoin="round" />
                            </svg>
