<svg width="32" height="32" viewBox="0 0 32 32" fill="none" xmlns="http://www.w3.org/2000/svg">
<rect width="32" height="32" rx="16" fill="#FFC747"/>
<path fill-rule="evenodd" clip-rule="evenodd" d="M15.6805 9.50885C15.993 9.45139 16.3276 9.54351 16.5693 9.78519L22.215 15.4309C22.6055 15.8215 22.6055 16.4546 22.215 16.8452C21.8245 17.2357 21.1913 17.2357 20.8008 16.8452L16.8611 12.9055L16.8612 21.2322C16.8612 21.7845 16.4135 22.2322 15.8613 22.2322C15.309 22.2322 14.8612 21.7845 14.8612 21.2322L14.8611 12.9075L11.2094 16.5593C10.8189 16.9498 10.1857 16.9498 9.79519 16.5593C9.40467 16.1687 9.40467 15.5356 9.79519 15.145L15.1308 9.80943C15.2742 9.65617 15.4653 9.54809 15.6805 9.50885Z" fill="white"/>
</svg>
