<svg width="32" height="32" viewBox="0 0 32 32" fill="none" xmlns="http://www.w3.org/2000/svg">
<path d="M24.4209 6.44531H7.57648C6.33648 6.44531 5.33203 7.43937 5.33203 8.66656V23.1112C5.33203 24.3384 6.33648 25.3325 7.57648 25.3325H24.4209C25.6609 25.3325 26.6654 24.3384 26.6654 23.1112V8.66656C26.6654 7.43937 25.6609 6.44531 24.4209 6.44531Z" fill="#FFF6E0"/>
<path d="M17.3858 14.0625L11.8125 19.5782L13.8036 21.5444L19.3769 16.0286L17.3858 14.0625Z" fill="#FFE39E"/>
<path d="M11.3675 20.0102L10.9941 21.1186L12.2253 22.337L13.3586 21.9763L13.803 21.5364L11.8119 19.5703L11.3675 20.0102Z" fill="#F0F0F0"/>
<path d="M10.3848 22.9328L12.2292 22.3434L10.9981 21.125L10.3848 22.9372V22.9328Z" fill="#999999"/>
<path d="M20.17 13.6623L19.77 13.2708C19.5611 13.0641 19.2722 12.9453 18.9745 12.9453C18.6767 12.9453 18.3922 13.0597 18.1789 13.2708L17.3789 14.0581L19.37 16.0287L20.1656 15.2369C20.2722 15.1314 20.3522 15.0126 20.41 14.8763C20.4678 14.7399 20.4945 14.5948 20.4945 14.4496C20.4945 14.3045 20.4634 14.1593 20.41 14.0229C20.3522 13.8866 20.2722 13.7634 20.1656 13.6623H20.17Z" fill="#FFB3BC"/>
<path d="M5.33203 8.42464C5.33203 7.32941 6.22536 6.44531 7.33203 6.44531H24.6654C25.772 6.44531 26.6654 7.32941 26.6654 8.42464V11.0637H5.33203V8.42464Z" fill="#FFC747"/>
<path d="M12.047 5.32812H10.9448C10.6337 5.32812 10.3848 5.57884 10.3848 5.88234V8.10358C10.3848 8.41148 10.6381 8.65779 10.9448 8.65779H12.047C12.3581 8.65779 12.607 8.40708 12.607 8.10358V5.88234C12.607 5.57444 12.3537 5.32812 12.047 5.32812Z" fill="#F3B527"/>
<path d="M21.0536 5.32812H19.9291C19.618 5.32812 19.3691 5.57884 19.3691 5.88234V8.10358C19.3691 8.41148 19.6225 8.65779 19.9291 8.65779H21.0536C21.3647 8.65779 21.6136 8.40708 21.6136 8.10358V5.88234C21.6136 5.57444 21.3603 5.32812 21.0536 5.32812Z" fill="#F3B527"/>
</svg>
