<?xml version="1.0" encoding="utf-8"?>
<!-- Generator: Adobe Illustrator 25.0.1, SVG Export Plug-In . SVG Version: 6.00 Build 0)  -->
<svg version="1.1" id="레이어_1" xmlns="http://www.w3.org/2000/svg" xmlns:xlink="http://www.w3.org/1999/xlink" x="0px"
	 y="0px" viewBox="0 0 114.6 108.3" style="enable-background:new 0 0 114.6 108.3;" xml:space="preserve">
<style type="text/css">
	.st0{fill:none;stroke:#FF5065;stroke-width:5.5556;}
	.st4{
		fill:none;
		stroke: #FF5065;
		stroke-width: 14;
		stroke-dasharray: 544;
		stroke-dashoffset: 544;
		transition: all 1s linear;
		animation: draw 1s linear forwards;
		}
@keyframes draw{
	100%{
		stroke-dashoffset: 0;
	}
}
	
</style>

<defs xmlns="http://www.w3.org/2000/svg">

<!-- <clipPath id="myClipPath1">
		<rect x="-19.7" y="-27.1" class="st1" width="145.3" height="145.7"/>
		
	</mask>
</clipPath> -->
<clipPath id="myClipPath">
<path class="st0" d="M49.5,108c-0.3,0-0.5,0-0.8-0.1c-1.4-0.3-2.4-1.5-2.6-2.9l-0.1-0.8c0-0.3,0-0.6,0-0.8c-0.1-0.6-0.3-1.1-0.4-1.6
	c-0.3-1-0.5-2-0.6-2.8c-0.1-0.2-0.2-0.3-0.2-0.5l-0.1-0.3c-0.1-0.3-0.2-0.6-0.2-1c0-0.2-0.1-0.4-0.1-0.7c-0.2-0.5-0.3-1-0.3-1.6
	c-0.1-0.4-0.2-0.7-0.3-1.1c-0.1-0.3-0.3-1-0.4-1.3c-0.4-0.7-0.5-1.5-0.4-2.3c0-0.2,0.1-0.3,0.1-0.4c-0.2-0.3-0.3-0.6-0.4-1
	c-0.1-0.3-0.2-0.6-0.2-0.9c-0.1-0.3-0.1-0.5-0.2-0.8c-0.1-0.2-0.2-0.5-0.3-0.8l-0.7-2.9c-0.1-0.3-0.1-0.7-0.1-1l0-0.1
	c0,0,0-0.1,0-0.1c-0.2-0.3-0.4-0.7-0.5-1.1L40,79.5c-0.1-0.5-0.2-1-0.1-1.5c-0.1-0.4-0.1-1,0-1.6c-0.3-1.2-0.6-2.2-0.9-3.2
	c-0.3-1.1-0.7-2.1-1-3.4c0,0,0-0.1,0-0.2c-0.1-0.3-0.1-0.7-0.1-1c-0.2-0.7-0.4-1.2-0.7-1.8c-0.2-0.5-0.3-1-0.3-1.5
	c-0.1-0.1-0.1-0.3-0.2-0.5c-1.1-0.1-2.3-0.3-3.4-0.4c-0.8-0.1-1.5-0.1-2.3-0.2c-1.4-0.1-3.2-0.3-4.8-0.4c-0.2,0-0.4-0.1-0.6-0.1
	c-0.1,0-0.2,0-0.3,0c-0.7,0.1-1.6,0.2-3.1,0c-0.3,0-0.7-0.1-1-0.3c-1.2-0.1-2.4-0.2-3.3-0.2c-2.2-0.1-4.1-0.1-4.8,0
	c-0.2,0-0.5,0-0.7-0.1c-0.1,0-0.3,0-0.4,0c-0.3,0-0.7,0-1.5-0.1c-0.2,0-0.5-0.1-0.7-0.2C9,63,8.4,63,7.7,63l-0.2,0l-3.9-0.4
	c-1.6-0.2-2.9-1.3-3.3-2.9c-0.4-1.6,0.3-3.2,1.7-4C4.5,54.2,6.3,53.1,8,52l1.5-0.9c0.3-0.2,0.6-0.4,0.9-0.6c0.6-0.4,1.2-0.8,1.8-1.2
	c0.2-0.1,0.4-0.2,0.6-0.3c0.2-0.1,0.5-0.2,0.9-0.3c0.8-0.6,1.6-1.1,2.4-1.7c1.3-0.9,2.5-1.8,3.7-2.6c0.3-0.2,0.6-0.4,0.9-0.5
	c0.5-0.5,1.1-0.9,2-1.3c0.4-0.4,0.9-0.8,1.8-1.3c0.3-0.2,0.6-0.3,1-0.4c0-0.1,0.1-0.1,0.1-0.2l0.3-0.3c1.5-1.4,2.6-1.8,3.6-2
	c0.3-0.1,0.5-0.1,0.8-0.3c0-0.1,0.1-0.2,0.2-0.3c-0.5-2-1.1-4-1.7-6.1c-0.1-0.5-0.2-1-0.1-1.5c0-0.3-0.3-1-0.4-1.5
	c-0.3-1-0.7-2.2-0.8-3.5c-0.3-0.6-0.5-1.4-0.8-2.7l-0.1-0.6c-0.2-0.7-0.3-1.5-0.4-2.1c0-0.2-0.1-0.5,0-0.7c0-0.1,0-0.2-0.1-0.2
	c-0.2-1-0.3-1.7-0.4-2.3c-0.1-0.3-0.2-0.7-0.3-1.1c-0.3-0.5-0.6-1-0.6-1.6l-0.2-1.3c0-0.2,0-0.4,0-0.6c0,0,0-0.1,0-0.1l-0.5-2
	c-0.2-0.8-0.4-1.6-0.6-2.4C23.3,6.6,23.1,6,23,5.5c0-0.1-0.1-0.2-0.1-0.2C22.3,3.7,22.8,2,24,1c1.3-1,3-1.1,4.4-0.2l1.3,0.9
	c0.4,0.3,0.9,0.6,1.2,0.8c0.2,0.1,0.3,0.2,0.4,0.3c0.3,0.2,0.6,0.5,0.9,0.8c0.2,0.1,0.4,0.3,0.6,0.4l1.3,0.8
	c0.5,0.3,0.9,0.6,1.3,0.9l0.1,0.1c0.1,0.1,0.2,0.2,0.3,0.3c1.4,0.7,3.1,1.9,3.9,2.7c0,0,0,0,0.1,0.1l2,1.4c1.1,0.8,2.2,1.5,3.2,2.3
	l2,1.4c0.6,0.4,1.2,0.8,1.7,1.2c0.6,0.4,1.1,0.8,1.7,1.1l0.9,0.6c0.3,0.2,0.6,0.4,0.8,0.5c0.4,0.3,0.8,0.6,1,1
	c0.7,0.2,1.5,0.6,2.6,1.4c0.2,0.1,0.4,0.3,0.6,0.4c0.2-0.1,0.4-0.1,0.6-0.1c0.3-0.4,0.7-0.8,1.3-1.1c0.3-0.2,0.6-0.3,0.8-0.4
	c0.3-0.1,0.6-0.2,1-0.5c0.1-0.1,0.2-0.1,0.3-0.2c0.6-0.4,1.2-0.8,1.8-1.3c0.7-0.5,1.8-1.2,2.1-1.5c0.5-0.7,1.3-1.2,2.2-1.3
	c0.2-0.1,0.4-0.3,0.5-0.3c0.4-0.2,0.7-0.5,1-0.6c0.2-0.1,0.5-0.3,0.9-0.4c0.1-0.1,0.2-0.2,0.3-0.2c0.3-0.4,0.6-0.7,1-0.9
	c0.4-0.3,0.9-0.4,1.4-0.5c0,0,0,0,0.1,0c0.4-0.3,0.9-0.6,1.4-0.8c0.4-0.4,0.9-0.7,1.4-1.1c0.3-0.2,0.6-0.4,0.8-0.6L75.3,8
	c0.3-0.3,0.7-0.5,1-0.6c0.1-0.1,0.2-0.2,0.3-0.3c0.2-0.2,0.5-0.4,0.8-0.6c0.2-0.1,0.6-0.3,1-0.5l0.2-0.2c0.3-0.3,0.6-0.5,0.9-0.7
	c0.2-0.1,0.5-0.2,0.7-0.3c0.5-0.4,1.1-0.9,2-1.3l0.1-0.1c0.2-0.2,0.5-0.4,0.7-0.5c1.3-0.6,3.4-1.7,5.4-0.4c0.6,0.4,1.1,1,1.4,1.7
	c0.1,0.2,0.2,0.3,0.3,0.5c0.4,0.7,0.5,1.4,0.4,2c1.2,0.7,1.9,1.9,1.8,3.4c0,0.3-0.1,0.5-0.1,0.8L92,12.1c-0.2,0.6-0.5,1.1-0.9,1.5
	c0,0,0,0,0,0l0,0c-0.1,0.4-0.3,0.8-0.6,1.2c0,0.2-0.1,0.4-0.1,0.6c0,0.2,0,0.2-0.1,0.4c0,0.6-0.2,1.2-0.5,1.7
	c-0.1,0.3-0.2,0.5-0.2,0.7c0,0.3-0.1,0.5-0.2,0.8l-0.1,0.2l0.2,0.2l-0.3,0.1c-0.1,0.2-0.3,0.5-0.5,0.7c-0.1,0.3-0.2,0.7-0.4,1.1
	L88,21.7c-0.1,0.4-0.3,0.7-0.6,1c-0.1,0.4-0.2,0.7-0.3,1c-0.1,0.3-0.1,0.6-0.2,0.8c-0.1,0.2-0.2,0.4-0.3,0.6
	c-0.1,0.2-0.1,0.4-0.3,0.6c-0.1,0.2-0.3,0.5-0.4,0.7c0,0.3-0.1,0.7-0.2,1c-0.3,0.8-0.7,1.6-1,2.1c-0.1,0.2-0.2,0.4-0.3,0.5
	c-0.2,0.5-0.5,0.9-0.9,1.2c-0.2,0.6-0.3,1.2-0.6,2c-0.5,2-1.4,3.7-2.1,5.1c-0.1,0.2-0.2,0.4-0.3,0.5c1.6,1.2,2.8,2.3,3.7,3.3
	c0.5,0.4,1,0.7,1.6,1.2c0.5,0.4,0.9,0.8,1.4,1.1l0.3,0.3c1,0.8,2.1,1.7,3.6,2.7c0.2,0.1,0.4,0.3,0.6,0.5c0.1,0.1,0.4,0.4,0.6,0.8
	l1.7,1.2c1.8,1.1,3.6,2.8,5.5,4.6c1.6,1.5,3.2,3.1,4.8,4.1c0.2,0.1,0.4,0.3,0.6,0.5c0,0,0,0,0,0l0.6,0.4l1.9,1.5
	c0.8,0.6,1.4,1.1,2.1,1.7c1,0.8,1.9,1.5,3.2,2.6l0,0c1.3,1,1.7,2.8,1.1,4.3c-0.3,0.8-0.9,1.4-1.6,1.8c-0.7,0.4-1.4,0.6-2.2,0.5
	l-0.7-0.1c-0.4,0-0.8-0.1-1.2-0.3l-0.1,0c-0.3,0-0.6-0.1-0.9-0.2c-0.1,0-0.3,0-0.4,0.1c-0.3,0-0.7,0-1.7,0l-0.2,0
	c-1-0.1-2-0.2-3.1-0.3l-3.8-0.6c-0.5-0.1-0.9-0.2-1.4-0.2c-0.4,0-0.7,0-0.9,0c-0.4,0.1-0.9,0.2-1.4,0.2c-1.2-0.1-2.2-0.2-3.2-0.3
	c-1.4-0.1-2.8-0.2-4.9-0.4c-0.1,0-0.2,0-0.3,0c0,0,0,0,0,0c-0.8,0-1.6-0.2-2.4-0.3c-0.2,0-0.4-0.1-0.6-0.1c-0.5,0-1.1-0.1-1.6-0.3
	c-0.1,0-0.2,0-0.4,0c-0.2,0-0.5,0-0.7,0c-1.5-0.1-3-0.3-4.4-0.4l-0.7-0.1c-1.7-0.1-3.4-0.3-5.1-0.5c-0.3,0-0.7-0.1-1-0.3
	c-0.3,0-0.7-0.1-1-0.1c-0.3,0.7-0.6,1.5-0.8,2.3l-0.1,0.3c-0.5,1.5-1.3,3.6-2.4,5.6c0,0.1-0.1,0.3-0.1,0.4l0,0.1
	c-0.1,0.4-0.1,0.7-0.3,1c-0.2,0.5-0.5,1.1-0.7,1.7l-0.1,0.1c-0.4,1-0.9,2.1-1.4,3c-0.1,0.1-0.1,0.2-0.2,0.3L61.5,84
	c-0.2,0.7-0.4,1.3-0.7,1.9c-0.4,1-0.8,2.2-1.4,3.5c-0.2,0.5-0.4,0.9-0.8,1.2c-0.2,0.3-0.3,0.6-0.5,0.8c0,0.3-0.1,0.7-0.3,1
	c-0.6,1.4-1.2,2.9-1.8,4.7l-1.2,3.3c-0.5,1.4-1,2.7-1.4,3.8c-0.1,0.3-0.3,0.6-0.5,0.8c0,0,0,0.1,0,0.1c-0.1,0.4-0.3,0.8-0.5,1.2
	c-0.1,0.1-0.2,0.3-0.3,0.4c-0.3,0.4-0.7,0.8-1.1,1.1C50.7,107.9,50.1,108,49.5,108z M50.2,85.5C50.2,85.5,50.2,85.5,50.2,85.5
	c0.1,0.7,0.2,0.9,0.4,1.3c0.2,0.4,0.4,0.9,0.6,1.5c0.1-0.2,0.2-0.5,0.3-0.7c0.2-0.6,0.5-1.3,0.7-1.9c0.1-0.3,0.3-0.6,0.4-0.8
	c0.4-1.1,0.9-2.2,1.4-3.2c0.3-0.6,0.6-1.2,0.8-1.8c0-0.6,0.1-1.1,0.4-1.6l0.3-0.5c0.1-0.4,0.2-0.7,0.3-1c0.1-0.4,0.3-0.9,0.5-1.3
	c0.2-0.5,0.4-0.9,0.4-1.2c0.1-0.4,0.3-0.7,0.5-1.1c0.1-0.3,0.2-0.6,0.3-0.8c0,0,0-0.1,0.1-0.2c0.1-0.3,0.2-0.7,0.3-1
	c0-0.1,0.1-0.2,0.2-0.4l-0.4,0.1l0.9-1.8v-0.6l0.5-0.2l0.5-1c-0.4-0.1-0.7-0.2-1-0.3c-0.2,0-0.4-0.1-0.8-0.2c0,0-0.1,0-0.1,0
	c-0.4,0.1-0.8,0.1-1.3,0l-1,0c-0.5,0-1-0.1-1.5-0.4c-0.4,0.1-0.9,0.2-1.4,0.1l-0.3,0c-0.3,0-0.5-0.1-0.7-0.2c-0.4,0.1-0.9,0.1-1.5,0
	l-0.3,0c-1.7-0.2-2.5-0.4-3.2-0.5c0,0.1,0,0.2,0.1,0.3c0.1,0.5,0.2,0.8,0.3,1.3l0,0.1c0.2,0.6,0.2,1.2,0.1,1.8
	c0.1,0.6,0.2,1.3,0.5,2c0.3,0.7,0.3,1.5,0,2.2c0,0.1,0,0.2,0,0.4c0.2,0.3,0.3,0.6,0.4,1c0.1,0.1,0.1,0.2,0.2,0.3
	c0.2,0.4,0.4,1,0.4,1.5c0.1,0.8,0.3,1.5,0.5,2.2c0.1,0.4,0.2,0.8,0.3,1.2c0,0.1,0.1,0.2,0.1,0.3c0.1,0.2,0.2,0.4,0.3,0.8
	c0.2,0.5,0.2,1,0.1,1.5c0,0.1,0,0.2,0,0.3c0,0.3,0.1,0.5,0.1,0.7c0.2,0.4,0.3,0.8,0.3,1.3C50.2,85.1,50.2,85.3,50.2,85.5z
	 M64.6,76.4c0,0.1,0,0.1,0,0.2C64.6,76.5,64.6,76.5,64.6,76.4z M57.5,72.3c0,0.1,0,0.1,0,0.2C57.5,72.4,57.5,72.3,57.5,72.3z
	 M83.5,69.4C83.5,69.4,83.5,69.4,83.5,69.4C83.5,69.4,83.5,69.4,83.5,69.4z M111.2,67l0.1,0.1C111.3,67.1,111.2,67,111.2,67z
	 M64.3,62L64.3,62l0.2-0.7L64.3,62z M85.2,60.5c1.2,0.1,2.4,0.1,3.5,0.1l0.1,0c1.2,0,2.4,0.1,3.7,0.1c-0.4-0.3-0.7-0.6-1.1-0.9
	c-0.2-0.1-0.3-0.3-0.5-0.5c-1.2-0.8-2.5-1.8-3.7-2.7c-0.6-0.5-1.1-0.9-1.5-1.1c-0.3-0.2-0.6-0.5-0.8-0.9c-0.3-0.3-0.5-0.5-0.8-0.8
	c-0.4-0.2-0.7-0.4-1.1-0.7c-0.1-0.1-0.3-0.2-0.4-0.3c-0.5-0.2-1.1-0.5-1.5-0.9c-0.4-0.4-0.8-0.9-1.1-1.4c-0.1-0.1-0.2-0.2-0.3-0.3
	c-0.3-0.3-0.6-0.6-0.8-0.9c-0.5-0.2-0.9-0.4-1.3-0.8c-0.2-0.2-0.4-0.4-0.6-0.7c-0.2-0.1-0.5-0.2-0.7-0.3c-0.1,0-0.1,0.1-0.2,0.1
	c-0.1,0.1-0.1,0.3-0.2,0.4c-0.1,0.2-0.2,0.4-0.3,0.6c0.1,0.7,0,1.3-0.3,2l-0.3,0.5c0,0.1-0.1,0.3-0.2,0.4l-0.7,1.5
	c-0.3,0.7-0.5,1.2-1.2,2.1c-0.1,0.4-0.3,0.9-0.5,1.4c-0.2,0.4-0.4,0.7-0.6,1c0,0.1-0.1,0.2-0.1,0.3c-0.1,0.2-0.2,0.5-0.3,0.7
	c0,0,0,0,0,0c0.4-0.1,0.7-0.1,1.1,0c1.5,0.3,3.5,0.5,5.4,0.7C81.1,59.8,83.5,60,85.2,60.5z M52.5,57.1c0.5,0,0.9,0.1,1.4,0.3
	c0.5,0.2,2.7,0.3,4.1,0.4c1.2,0.1,2.6,0.1,3.9,0.3c0.2,0,0.5-0.1,0.7-0.1l1,0l0,0c0.2-0.5,0.5-0.9,0.8-1.2c0-0.7,0.3-1.5,0.7-2.1
	c0.3-0.6,0.6-1.2,0.9-1.8c0.4-0.8,0.7-1.4,0.9-1.9c0.2-0.3,0.3-0.6,0.5-0.9c0.2-0.6,0.5-1.3,0.8-1.9c0.1-0.1,0.1-0.3,0.2-0.4
	c-0.1-0.7,0.1-1.3,0.4-2c0.1-0.2,0.2-0.4,0.4-0.6c0-0.1,0-0.3,0.1-0.4c0-0.1,0.1-0.3,0.1-0.5c0.2-0.6,0.4-1.1,0.8-1.4
	c0.1-0.1,0.2-0.2,0.2-0.3c-0.3-0.2-0.6-0.4-0.8-0.7c-0.7-0.6-1.4-1.1-2.1-1.5c-0.4-0.3-0.7-0.6-1-1c-0.1-0.1-0.2-0.2-0.6-0.6
	c-0.4-0.4-1-0.8-1.5-1.2L64,37.4c-1.2-1-2.2-1.7-2.8-2.7c-0.3-0.2-0.7-0.5-1-0.7C60.1,34,60,34,60,34c-0.8-0.2-1.6-0.7-4.4-2.7
	c-1.8,1.2-3.6,2.4-5.4,3.5c-0.3,0.3-0.6,0.5-0.9,0.7c-0.2,0.1-0.3,0.2-0.4,0.2c-2.2,1.1-3.7,2.3-5.4,3.7c-0.9,0.7-1.8,1.5-2.8,2.2
	c0.1,0.6,0.2,1.2,0.3,1.8c0,0,0,0,0,0c0.2,0.3,0.3,0.5,0.4,0.8c0.4,1.3,0.5,2.2,0.6,2.8c0.1,0.5,0.1,0.7,0.3,1.3
	c0.1,0.2,0.1,0.5,0.2,0.8c0.1,0.5,0,1-0.1,1.4c0.2,0.7,0.2,1.4,0.3,2c0,0.3,0.1,0.5,0.1,0.7c0.3,0.4,0.5,0.9,0.5,1.4l0.1,0.5
	c0,0.1,0,0.1,0.1,0.2c0.1,0.3,0.2,0.5,0.3,0.8c0.2,0,0.4,0.1,0.5,0.2c2.1,0.2,3.4,0.3,5.3,0.5l0.2,0c0.3,0,0.7,0.1,1,0.3
	c0,0,0.1,0,0.1,0l0.1,0c0.4,0,0.9,0,1.3,0C52.3,57.1,52.4,57.1,52.5,57.1z M64.4,56.7L64.4,56.7L64.4,56.7z M30.3,55.2
	c1.3,0,2.6,0.2,3.5,0.3c0.2,0,0.4,0,0.6,0.1c-0.2-0.9-0.4-1.8-0.6-2.7l0-0.1c-0.4-1.6-0.7-3.2-1.2-4.7c-0.1-0.4-0.2-0.9-0.1-1.3
	c-0.3,0.2-0.6,0.3-0.9,0.4c-1.1,0.9-2.5,1.9-3.8,2.8c-0.7,0.5-1.3,0.9-1.8,1.3c-0.4,0.3-0.9,0.5-1.4,0.6c-0.2,0.1-0.5,0.2-0.8,0.3
	l-0.1,0c0,0-0.1,0-0.1,0c-0.3,0.6-0.7,1.2-1.3,1.5c-0.2,0.1-0.4,0.2-0.6,0.4c-0.2,0.2-0.4,0.3-0.7,0.4c0.5,0,0.9,0,1.3,0
	c0.4,0,0.9,0,1.3,0.1c1-0.2,2.4,0,4.8,0.2c0.4,0.1,0.8,0.1,1.1,0.1C29.9,55.1,30.1,55.1,30.3,55.2z M80.5,50.9L80.5,50.9L80.5,50.9z
	 M70.2,43.8C70.2,43.8,70.2,43.8,70.2,43.8C70.2,43.8,70.2,43.8,70.2,43.8z M66.3,39.3C66.3,39.3,66.3,39.4,66.3,39.3
	C66.3,39.4,66.3,39.3,66.3,39.3z M74.1,33.7C74.1,33.7,74.1,33.7,74.1,33.7c0.2-0.6,0.6-1.2,1.1-1.7l0.2-0.1
	c0.1-0.8,0.4-1.6,0.7-2.5c0.1-0.3,0.3-0.6,0.5-0.9c0-0.1,0.1-0.2,0.1-0.3c0.3-0.9,0.6-2,1.4-3.3c0.1-0.1,0.1-0.2,0.2-0.4l0,0
	c0.1-0.4,0.3-0.8,0.6-1.1c0.1-0.4,0.3-0.8,0.7-1.3c0.1-0.1,0.2-0.2,0.2-0.3l0-0.1c0.1-0.7,0.5-1.3,1-1.7c0.4-1.4,0.8-2.7,1.6-3.7
	c0-0.1,0.1-0.2,0.1-0.3c0.1-0.3,0.2-0.5,0.4-0.8l0.3-0.5c0-0.1,0.1-0.1,0.1-0.2c0-0.4,0.1-0.8,0.2-1.2c0-0.2,0.1-0.4,0.2-0.6
	c0,0-0.1,0-0.1,0l-1.9,1.4c-0.3,0.2-0.5,0.4-0.8,0.5c-0.3,0.3-0.7,0.4-1.1,0.6c-0.3,0.2-0.7,0.5-1,0.6l0,0c-0.1,0.2-0.3,0.4-0.5,0.5
	c-1.8,1.6-3.5,2.4-4.8,3c-0.9,0.4-1.6,0.8-2.3,1.3l-1.3,1.2c-0.4,0.4-0.8,0.6-1.3,0.8c-0.5,0.5-1.1,1-2.3,1.7l-2.2,1.3
	c2.8,2.3,5.7,4.6,8.6,6.7c0.5,0.1,1,0.4,1.5,0.8C73.8,33.5,74,33.6,74.1,33.7z M38.1,30.9c0.2,0.3,0.4,0.7,0.5,1.1
	c0.1-0.1,0.2-0.1,0.2-0.2c0.4-0.2,0.7-0.4,1.1-0.5c0.5-0.4,1.1-0.8,1.7-1.2c0.7-0.5,1.5-1,1.8-1.3c0.4-0.4,0.8-0.6,1.2-0.8
	c0.1-0.1,0.2-0.2,0.3-0.3c0.4-0.4,1-0.9,1.6-1.4c0.3-0.2,0.6-0.4,0.9-0.5c0.1,0,0.1,0,0.2-0.1c0.1-0.1,0.1-0.2,0.2-0.3
	c-0.1-0.1-0.2-0.1-0.3-0.2c-0.3-0.2-0.5-0.4-0.7-0.6l-0.4-0.2c-0.8-0.5-1.6-1.1-2.2-1.9c-0.2-0.1-0.5-0.2-0.7-0.4
	c-0.4-0.3-0.8-0.7-1.1-1.1c-0.4-0.2-0.7-0.5-1.1-0.7c-1.2-0.8-1.9-1.1-2.2-1.2c-0.5-0.2-0.9-0.5-1.3-0.9c-0.5-0.3-1-0.6-1.5-0.9
	l-0.2-0.1c-0.7-0.4-1.4-0.8-2.1-1.4c0.1,0.4,0.1,0.8,0.2,1.2c0.1,0.1,0.1,0.2,0.1,0.3c0.2,0.3,0.3,0.7,0.4,1
	c0.2,0.3,0.3,0.5,0.4,0.8c0.2,0.5,0.2,0.8,0.3,1.1c0,0.1,0,0.3,0.1,0.4c0,0,0,0,0,0c0,0.1,0.1,0.2,0.1,0.3c0.1,0.4,0.3,0.8,0.4,1.2
	c0.1,0.2,0.1,0.4,0.2,0.5c0.1,0.3,0.2,0.6,0.2,1l0.1,0.4c0.1,0.4,0.1,0.8,0,1.2c0.3,0.7,0.6,1.6,0.9,3l0.1,0.5l0,0.5
	C37.8,30,37.9,30.4,38.1,30.9z M28.7,29.9C28.7,29.9,28.7,29.9,28.7,29.9C28.7,29.9,28.7,29.9,28.7,29.9z"/>
</clipPath>
</defs>
<!-- <polyline class="st4" clip-path="url(#myClipPath)" points="91.8,1.9 3,58.1 112.6,67.9 24.5,0.5 49.4,106 91.7,6.8 "/> -->
<polyline class="st4" clip-path="url(#myClipPath)" points="91.8,1.9 3,58.1 112.6,67.9 24.5,0.5 49.4,106 91.7,6.8 "/>
</svg>
