<svg width="24" height="16" viewBox="0 0 24 16" fill="none" xmlns="http://www.w3.org/2000/svg">
<path d="M6 15.2231V10.5854C6 10.1586 5.66421 9.8125 5.25 9.8125C4.83579 9.8125 4.5 10.1586 4.5 10.5854V15.2231C4.5 15.65 4.83579 15.996 5.25 15.996C5.66421 15.996 6 15.65 6 15.2231Z" fill="#FF5065"/>
<path d="M19.5 15.2231V10.5854C19.5 10.1586 19.1642 9.8125 18.75 9.8125C18.3358 9.8125 18 10.1586 18 10.5854V15.2231C18 15.65 18.3358 15.996 18.75 15.996C19.1642 15.996 19.5 15.65 19.5 15.2231Z" fill="#FF5065"/>
<path d="M22.5 2.08594H1.5C0.671573 2.08594 0 2.77805 0 3.63182V12.9071C0 13.7609 0.671573 14.453 1.5 14.453H22.5C23.3284 14.453 24 13.7609 24 12.9071V3.63182C24 2.77805 23.3284 2.08594 22.5 2.08594Z" fill="#FFC747"/>
<path d="M21.75 3.63281H2.25C1.83579 3.63281 1.5 3.97887 1.5 4.40575V12.1351C1.5 12.562 1.83579 12.9081 2.25 12.9081H21.75C22.1642 12.9081 22.5 12.562 22.5 12.1351V4.40575C22.5 3.97887 22.1642 3.63281 21.75 3.63281Z" fill="#FFF6E0"/>
<path d="M17.25 0H6.75C6.33579 0 6 0.346057 6 0.77294C6 1.19982 6.33579 1.54588 6.75 1.54588H17.25C17.6642 1.54588 18 1.19982 18 0.77294C18 0.346057 17.6642 0 17.25 0Z" fill="#FF5065"/>
</svg>
