<svg width="76" height="76" viewBox="0 0 76 76" fill="none" xmlns="http://www.w3.org/2000/svg">
<g filter="url(#filter0_d_1543_67264)">
<path d="M33.6655 11.1127C22.6997 12.145 13.6295 20.8351 12.2138 31.7579C11.4459 37.5913 12.7897 43.0647 15.5491 47.5538C16.8209 49.6183 17.0608 52.1869 15.981 54.3715C15.6931 54.9476 15.3572 55.4758 14.9972 55.8839C14.6373 56.292 14.8533 56.9161 15.4052 56.9881C17.1808 57.1802 20.2762 57.3002 23.6835 56.604C24.5233 56.436 25.4111 56.532 26.203 56.8921C30.4501 58.7886 35.3211 59.5328 40.4321 58.5965C50.2701 56.7961 58.1405 48.7541 59.7002 38.8636C62.1477 23.0917 49.2623 9.62433 33.6655 11.1127Z" fill="white"/>
<path d="M14.6977 48.0783L14.6972 48.0775C11.8225 43.4008 10.4235 37.6979 11.2222 31.6283C12.6989 20.2391 22.1448 11.1931 33.5711 10.1172C49.8154 8.56741 63.2361 22.5991 60.6884 39.017L60.688 39.0194C59.062 49.3304 50.8668 57.7034 40.6123 59.5802C35.2917 60.5548 30.2163 59.7793 25.7953 57.8052L25.789 57.8024C25.1918 57.5308 24.5185 57.4572 23.8817 57.5842C23.881 57.5844 23.8803 57.5845 23.8797 57.5846L23.6835 56.604C20.2762 57.3002 17.1808 57.1802 15.4052 56.9881L14.6977 48.0783ZM14.6977 48.0783C15.8088 49.882 15.9951 52.0844 15.0855 53.9265L14.6977 48.0783Z" stroke="white" stroke-width="2"/>
</g>
<path d="M33.6655 11.1127C22.6997 12.145 13.6295 20.8351 12.2138 31.7579C11.4459 37.5913 12.7897 43.0647 15.5491 47.5538C16.8209 49.6183 17.0608 52.1869 15.981 54.3715C15.6931 54.9476 15.3572 55.4758 14.9972 55.8839C14.6373 56.292 14.8533 56.9161 15.4052 56.9881C17.1808 57.1802 20.2762 57.3002 23.6835 56.604C24.5233 56.436 25.4111 56.532 26.203 56.8921C30.4501 58.7886 35.3211 59.5328 40.4321 58.5965C50.2701 56.7961 58.1405 48.7541 59.7002 38.8636C62.1477 23.0917 49.2623 9.62433 33.6655 11.1127Z" fill="#FFC747"/>
<path d="M43.6015 30.028C43.0017 32.3566 42.6417 33.4368 41.8019 35.0452C40.9861 36.6296 40.0982 37.9259 38.9465 39.2703C41.6579 41.1428 44.1054 42.127 47.9927 42.9192C46.9369 44.2875 46.457 45.2478 45.8091 46.9762C41.49 45.5599 38.9705 44.2635 36.0911 41.983C33.3076 44.1915 30.5482 45.5839 26.1091 47.0002C25.5572 45.5118 25.0293 44.5036 24.0215 43.1593C28.3406 42.079 30.8841 40.9987 33.2596 39.2943C31.9639 37.8299 31.0041 36.4136 30.1163 34.8052C29.3004 33.2688 28.9165 32.3566 28.1966 30.028H27.6927C26.493 30.028 25.3652 30.076 24.3814 30.172V26.187C25.4132 26.307 26.397 26.3551 27.7887 26.3551H33.7155V24.7227C33.7155 24.0745 33.6675 23.5224 33.5716 22.9702H37.8907C37.7947 23.4983 37.7467 24.0505 37.7467 24.6986V26.3791H44.0574C45.4492 26.3791 46.481 26.3311 47.4888 26.211V30.196C46.481 30.1 45.4972 30.052 44.2014 30.052H43.6255L43.6015 30.028ZM32.2038 30.028C32.7317 31.6844 33.0677 32.5486 33.8835 33.8929C34.5794 35.0932 35.1792 35.8854 35.9711 36.7737C36.7629 35.8854 37.3628 34.9972 37.9387 33.9169C38.6345 32.6686 38.8745 31.9725 39.4264 30.028H32.2038Z" fill="white"/>
<defs>
<filter id="filter0_d_1543_67264" x="0" y="0" width="76.001" height="76" filterUnits="userSpaceOnUse" color-interpolation-filters="sRGB">
<feFlood flood-opacity="0" result="BackgroundImageFix"/>
<feColorMatrix in="SourceAlpha" type="matrix" values="0 0 0 0 0 0 0 0 0 0 0 0 0 0 0 0 0 0 127 0" result="hardAlpha"/>
<feOffset dx="2" dy="3"/>
<feGaussianBlur stdDeviation="6"/>
<feComposite in2="hardAlpha" operator="out"/>
<feColorMatrix type="matrix" values="0 0 0 0 0 0 0 0 0 0 0 0 0 0 0 0 0 0 0.08 0"/>
<feBlend mode="normal" in2="BackgroundImageFix" result="effect1_dropShadow_1543_67264"/>
<feBlend mode="normal" in="SourceGraphic" in2="effect1_dropShadow_1543_67264" result="shape"/>
</filter>
</defs>
</svg>
