<svg width="106" height="105" viewBox="0 0 106 105" fill="none" xmlns="http://www.w3.org/2000/svg">
<g filter="url(#filter0_d_257_27693)">
<path d="M77.0832 18.7932H70.2082C69.736 16.7793 67.9443 15.2793 65.7916 15.2793H62.2777C60.1249 15.2793 58.3332 16.7793 57.861 18.7932H42.0555C41.5971 16.7793 39.7916 15.2793 37.6388 15.2793H34.1943C32.0416 15.2793 30.2499 16.7793 29.7777 18.7932H22.9166C17.9443 18.7932 13.8888 22.8349 13.8888 27.821V74.196C13.8888 79.5987 18.2777 83.9876 23.6805 83.9876H76.3193C81.7221 83.9876 86.111 79.5987 86.111 74.196V27.821C86.111 22.8487 82.0555 18.7932 77.0832 18.7932Z" fill="white"/>
</g>
<path d="M76.3194 21.5742H23.6805C19.8055 21.5742 16.6666 24.7131 16.6666 28.5881V74.1992C16.6666 78.0742 19.8055 81.2131 23.6805 81.2131H76.3194C80.1944 81.2131 83.3333 78.0742 83.3333 74.1992V28.5881C83.3333 24.7131 80.1944 21.5742 76.3194 21.5742Z" fill="#F9F9F9"/>
<path d="M16.6666 27.8242C16.6666 24.3659 19.4583 21.5742 22.9166 21.5742H77.0833C80.5416 21.5742 83.3333 24.3659 83.3333 27.8242V36.1576H16.6666V27.8242Z" fill="#FF5065"/>
<path d="M37.6529 18.0586H34.2085C33.2363 18.0586 32.4585 18.8503 32.4585 19.8086V26.8225C32.4585 27.7947 33.2502 28.5725 34.2085 28.5725H37.6529C38.6252 28.5725 39.4029 27.7808 39.4029 26.8225V19.8086C39.4029 18.8364 38.6113 18.0586 37.6529 18.0586Z" fill="#FFB3BC"/>
<path d="M65.7917 18.0586H62.2778C61.3056 18.0586 60.5278 18.8503 60.5278 19.8086V26.8225C60.5278 27.7947 61.3195 28.5725 62.2778 28.5725H65.7917C66.7639 28.5725 67.5417 27.7808 67.5417 26.8225V19.8086C67.5417 18.8364 66.75 18.0586 65.7917 18.0586Z" fill="#FFB3BC"/>
<path d="M59.4302 52.7305H72.5674V54.9854H62.2733V60.5932H72.7635V62.8481H59.4302V52.7305Z" fill="#FF5065"/>
<path d="M43.7347 62.6724V52.5352H46.5779V60.4175H57.0681V62.6724H43.7347Z" fill="#FF5065"/>
<path d="M27.9412 52.8281H41.2745V56.2791C41.2745 57.4948 41.2287 58.6974 41.1372 59.8869C41.0588 61.0765 40.9542 62.266 40.8235 63.4556L38.0392 63.2007C38.183 62.0765 38.281 60.9719 38.3333 59.8869C38.3987 58.802 38.4314 57.7105 38.4314 56.6124V55.1222H27.9412V52.8281Z" fill="#FF5065"/>
<defs>
<filter id="filter0_d_257_27693" x="-9.44138e-05" y="2.7793" width="105.556" height="102.042" filterUnits="userSpaceOnUse" color-interpolation-filters="sRGB">
<feFlood flood-opacity="0" result="BackgroundImageFix"/>
<feColorMatrix in="SourceAlpha" type="matrix" values="0 0 0 0 0 0 0 0 0 0 0 0 0 0 0 0 0 0 127 0" result="hardAlpha"/>
<feOffset dx="2.77778" dy="4.16667"/>
<feGaussianBlur stdDeviation="8.33333"/>
<feComposite in2="hardAlpha" operator="out"/>
<feColorMatrix type="matrix" values="0 0 0 0 0 0 0 0 0 0 0 0 0 0 0 0 0 0 0.08 0"/>
<feBlend mode="normal" in2="BackgroundImageFix" result="effect1_dropShadow_257_27693"/>
<feBlend mode="normal" in="SourceGraphic" in2="effect1_dropShadow_257_27693" result="shape"/>
</filter>
</defs>
</svg>
