<svg width="112" height="112" viewBox="0 0 112 112" fill="none" xmlns="http://www.w3.org/2000/svg">
<g filter="url(#filter0_d_257_27678)">
<mask id="path-1-outside-1_257_27678" maskUnits="userSpaceOnUse" x="15.6667" y="13.668" width="74" height="74" fill="black">
<rect fill="white" x="15.6667" y="13.668" width="74" height="74"/>
<path fill-rule="evenodd" clip-rule="evenodd" d="M22.8414 17.668C21.0881 17.668 19.6667 19.0893 19.6667 20.8426V46.2394C19.6667 47.9927 21.0881 49.414 22.8414 49.414H48.2382C49.9915 49.414 51.4128 47.9927 51.4128 46.2394V20.8426C51.4128 19.0893 49.9915 17.668 48.2382 17.668H22.8414ZM54.5875 20.8426C54.5875 19.0893 56.0088 17.668 57.7621 17.668H83.1589C84.9122 17.668 86.3335 19.0893 86.3335 20.8426V46.2394C86.3335 47.9927 84.9122 49.414 83.1589 49.414H57.7621C56.0088 49.414 54.5875 47.9927 54.5875 46.2394V20.8426ZM19.6667 55.7631C19.6667 54.0099 21.0881 52.5885 22.8414 52.5885H48.2382C49.9915 52.5885 51.4128 54.0099 51.4128 55.7631V81.16C51.4128 82.9132 49.9915 84.3346 48.2382 84.3346H22.8414C21.0881 84.3346 19.6667 82.9132 19.6667 81.16V55.7631ZM54.5875 55.7631C54.5875 54.0099 56.0088 52.5885 57.7621 52.5885H83.1589C84.9122 52.5885 86.3335 54.0099 86.3335 55.7631V81.16C86.3335 82.9132 84.9122 84.3346 83.1589 84.3346H57.7621C56.0088 84.3346 54.5875 82.9132 54.5875 81.16V55.7631Z"/>
</mask>
<path fill-rule="evenodd" clip-rule="evenodd" d="M22.8414 17.668C21.0881 17.668 19.6667 19.0893 19.6667 20.8426V46.2394C19.6667 47.9927 21.0881 49.414 22.8414 49.414H48.2382C49.9915 49.414 51.4128 47.9927 51.4128 46.2394V20.8426C51.4128 19.0893 49.9915 17.668 48.2382 17.668H22.8414ZM54.5875 20.8426C54.5875 19.0893 56.0088 17.668 57.7621 17.668H83.1589C84.9122 17.668 86.3335 19.0893 86.3335 20.8426V46.2394C86.3335 47.9927 84.9122 49.414 83.1589 49.414H57.7621C56.0088 49.414 54.5875 47.9927 54.5875 46.2394V20.8426ZM19.6667 55.7631C19.6667 54.0099 21.0881 52.5885 22.8414 52.5885H48.2382C49.9915 52.5885 51.4128 54.0099 51.4128 55.7631V81.16C51.4128 82.9132 49.9915 84.3346 48.2382 84.3346H22.8414C21.0881 84.3346 19.6667 82.9132 19.6667 81.16V55.7631ZM54.5875 55.7631C54.5875 54.0099 56.0088 52.5885 57.7621 52.5885H83.1589C84.9122 52.5885 86.3335 54.0099 86.3335 55.7631V81.16C86.3335 82.9132 84.9122 84.3346 83.1589 84.3346H57.7621C56.0088 84.3346 54.5875 82.9132 54.5875 81.16V55.7631Z" fill="white"/>
<path d="M22.8414 20.8426L22.8414 20.8426V14.4934C19.3348 14.4934 16.4921 17.336 16.4921 20.8426H22.8414ZM22.8414 46.2394V20.8426H16.4921V46.2394H22.8414ZM22.8414 46.2394L22.8414 46.2394H16.4921C16.4921 49.746 19.3348 52.5886 22.8414 52.5886V46.2394ZM48.2382 46.2394H22.8414V52.5886H48.2382V46.2394ZM48.2382 46.2394L48.2382 46.2394V52.5886C51.7447 52.5886 54.5874 49.746 54.5874 46.2394H48.2382ZM48.2382 20.8426V46.2394H54.5874V20.8426H48.2382ZM48.2382 20.8426L48.2382 20.8426H54.5874C54.5874 17.336 51.7447 14.4934 48.2382 14.4934V20.8426ZM22.8414 20.8426H48.2382V14.4934H22.8414V20.8426ZM57.7621 14.4934C54.2555 14.4934 51.4129 17.336 51.4129 20.8426H57.7621L57.7621 20.8426V14.4934ZM83.1589 14.4934H57.7621V20.8426H83.1589V14.4934ZM89.5081 20.8426C89.5081 17.336 86.6655 14.4934 83.1589 14.4934V20.8426L83.1589 20.8426H89.5081ZM89.5081 46.2394V20.8426H83.1589V46.2394H89.5081ZM83.1589 52.5886C86.6655 52.5886 89.5081 49.746 89.5081 46.2394H83.1589L83.1589 46.2394V52.5886ZM57.7621 52.5886H83.1589V46.2394H57.7621V52.5886ZM51.4129 46.2394C51.4129 49.746 54.2555 52.5886 57.7621 52.5886V46.2394L57.7621 46.2394H51.4129ZM51.4129 20.8426V46.2394H57.7621V20.8426H51.4129ZM22.8414 49.4139C19.3348 49.4139 16.4921 52.2566 16.4921 55.7631H22.8414L22.8414 55.7631V49.4139ZM48.2382 49.4139H22.8414V55.7631H48.2382V49.4139ZM54.5874 55.7631C54.5874 52.2566 51.7447 49.4139 48.2382 49.4139V55.7631L48.2382 55.7631H54.5874ZM54.5874 81.16V55.7631H48.2382V81.16H54.5874ZM48.2382 87.5092C51.7447 87.5092 54.5874 84.6665 54.5874 81.16H48.2382L48.2382 81.16V87.5092ZM22.8414 87.5092H48.2382V81.16H22.8414V87.5092ZM16.4921 81.16C16.4921 84.6665 19.3348 87.5092 22.8414 87.5092V81.16L22.8414 81.16H16.4921ZM16.4921 55.7631V81.16H22.8414V55.7631H16.4921ZM57.7621 49.4139C54.2555 49.4139 51.4129 52.2566 51.4129 55.7631H57.7621L57.7621 55.7631V49.4139ZM83.1589 49.4139H57.7621V55.7631H83.1589V49.4139ZM89.5081 55.7631C89.5081 52.2566 86.6655 49.4139 83.1589 49.4139V55.7631L83.1589 55.7631H89.5081ZM89.5081 81.16V55.7631H83.1589V81.16H89.5081ZM83.1589 87.5092C86.6655 87.5092 89.5081 84.6665 89.5081 81.16H83.1589L83.1589 81.16V87.5092ZM57.7621 87.5092H83.1589V81.16H57.7621V87.5092ZM51.4129 81.16C51.4129 84.6665 54.2555 87.5092 57.7621 87.5092V81.16L57.7621 81.16H51.4129ZM51.4129 55.7631V81.16H57.7621V55.7631H51.4129Z" fill="white" mask="url(#path-1-outside-1_257_27678)"/>
<rect x="18.0794" y="16.0807" width="34.9206" height="34.9206" rx="4.7619" fill="#FFC747" stroke="#FFC747" stroke-width="3.1746"/>
<path d="M30.8012 31.5368H33.3373V29.1054C33.3373 27.5939 34.3385 26.8711 35.5398 26.8711C36.7411 26.8711 37.7422 27.5939 37.7422 29.1054V31.5368H40.2784C41.6799 31.5368 42.2138 32.5225 42.2138 33.5082C42.2138 34.4939 41.6799 35.5453 40.2784 35.5453H37.7422V37.9767C37.7422 39.4882 36.7411 40.211 35.5398 40.211C34.3385 40.211 33.3373 39.4882 33.3373 37.9767V35.5453H30.8012C29.3996 35.5453 28.8657 34.4939 28.8657 33.5082C28.8657 32.5225 29.3996 31.5368 30.8012 31.5368Z" fill="white"/>
<rect x="54.5875" y="17.668" width="31.746" height="31.746" rx="3.1746" fill="#FFE39E"/>
<path d="M65.8553 31.3398H75.0655C76.6006 31.3398 77.1345 32.457 77.1345 33.5084C77.1345 34.5598 76.5338 35.7427 75.0655 35.7427H65.8553C64.387 35.7427 63.7864 34.5598 63.7864 33.5084C63.7864 32.457 64.3203 31.3398 65.8553 31.3398Z" fill="white"/>
<rect x="19.6667" y="52.5879" width="31.746" height="31.746" rx="3.1746" fill="#1ACEFF"/>
<path d="M30.7923 67.0399H38.6677C39.8023 67.0399 40.2695 67.8941 40.2695 68.6827C40.2695 69.4713 39.8023 70.3256 38.6677 70.3256H30.7923C29.6577 70.3256 29.1906 69.4056 29.1906 68.6827C29.1906 67.9599 29.6577 67.0399 30.7923 67.0399ZM34.73 62.1113C36.0648 62.1113 36.799 62.8999 36.799 64.0827C36.799 65.2656 35.9981 66.0542 34.73 66.0542C33.462 66.0542 32.6611 65.3313 32.6611 64.0827C32.6611 62.8342 33.462 62.1113 34.73 62.1113ZM34.73 71.377C36.0648 71.377 36.799 72.1655 36.799 73.3484C36.799 74.5312 35.9981 75.3198 34.73 75.3198C33.462 75.3198 32.6611 74.597 32.6611 73.3484C32.6611 72.0998 33.462 71.377 34.73 71.377Z" fill="white"/>
<rect x="54.5875" y="52.5879" width="31.746" height="31.746" rx="3.1746" fill="#9EEAFF"/>
<path d="M68.4912 63.729L70.2932 65.5032L72.0285 63.7947C73.0963 62.7432 74.3644 62.9404 75.1653 63.7947C75.9662 64.6489 76.2331 65.8318 75.1653 66.8832L73.43 68.5918L75.232 70.366C76.2331 71.3518 75.8994 72.4032 75.232 73.126C74.5646 73.8489 73.3633 74.1774 72.4289 73.1917L70.6269 71.4175L68.8917 73.126C67.8238 74.1775 66.5557 73.9803 65.7549 73.126C64.954 72.2717 64.687 71.0889 65.7549 70.0375L67.4901 68.3289L65.6881 66.5546C64.687 65.5689 65.0874 64.4518 65.8216 63.7947C66.5557 63.1375 67.6236 62.7432 68.6247 63.7947L68.4912 63.729Z" fill="white"/>
</g>
<defs>
<filter id="filter0_d_257_27678" x="0.619172" y="0.208426" width="111.111" height="111.111" filterUnits="userSpaceOnUse" color-interpolation-filters="sRGB">
<feFlood flood-opacity="0" result="BackgroundImageFix"/>
<feColorMatrix in="SourceAlpha" type="matrix" values="0 0 0 0 0 0 0 0 0 0 0 0 0 0 0 0 0 0 127 0" result="hardAlpha"/>
<feOffset dx="3.1746" dy="4.7619"/>
<feGaussianBlur stdDeviation="9.52381"/>
<feComposite in2="hardAlpha" operator="out"/>
<feColorMatrix type="matrix" values="0 0 0 0 0 0 0 0 0 0 0 0 0 0 0 0 0 0 0.08 0"/>
<feBlend mode="normal" in2="BackgroundImageFix" result="effect1_dropShadow_257_27678"/>
<feBlend mode="normal" in="SourceGraphic" in2="effect1_dropShadow_257_27678" result="shape"/>
</filter>
</defs>
</svg>
