<svg width="113" height="102" viewBox="0 0 113 102" fill="none" xmlns="http://www.w3.org/2000/svg">
<g filter="url(#filter0_d_257_27690)">
<g filter="url(#filter1_d_257_27690)">
<mask id="path-1-outside-1_257_27690" maskUnits="userSpaceOnUse" x="13.8889" y="18.6152" width="80" height="63" fill="black">
<rect fill="white" x="13.8889" y="18.6152" width="80" height="63"/>
<path fill-rule="evenodd" clip-rule="evenodd" d="M70.9648 25.8718C70.05 26.1378 69.524 27.0951 69.7901 28.01L75.3495 47.1278C75.6155 48.0426 76.5728 48.5686 77.4877 48.3026L88.4489 45.1151C89.3637 44.849 89.8897 43.8917 89.6236 42.9769L84.0642 23.8591C83.7982 22.9442 82.8409 22.4183 81.926 22.6843L70.9648 25.8718ZM17.958 47.506C17.6919 46.5912 18.2179 45.6339 19.1327 45.3679L26.0156 43.3664C26.9305 43.1003 27.8878 43.6263 28.1538 44.5411L28.2651 44.924L32.7261 43.6268C33.6409 43.3607 34.5982 43.8867 34.8643 44.8015L36.8658 51.6844C37.1318 52.5993 36.6059 53.5565 35.691 53.8226L31.23 55.1198L31.3413 55.5023C31.6073 56.4172 31.0813 57.3745 30.1665 57.6405L23.2836 59.642C22.3688 59.908 21.4115 59.3821 21.1455 58.4672L17.958 47.506ZM36.1992 41.7866C35.6672 39.957 36.7191 38.0424 38.5488 37.5103L66.2059 29.4677C67.1208 29.2016 68.0781 29.7276 68.3441 30.6424L72.7176 45.682C72.9836 46.5968 72.4576 47.5541 71.5428 47.8201L58.9247 51.4894L58.925 51.4905C59.2525 52.6167 58.605 53.7952 57.4789 54.1227C56.3527 54.4502 55.1742 53.8027 54.8467 52.6765L54.8464 52.6754L43.8856 55.8628C42.0559 56.3948 40.1414 55.3429 39.6093 53.5132L36.1992 41.7866ZM54.7109 55.6686C55.3794 55.9208 55.717 56.6672 55.4649 57.3357L48.2098 76.5721C47.9576 77.2407 47.2112 77.5783 46.5426 77.3262C45.8741 77.074 45.5365 76.3276 45.7886 75.659L53.0437 56.4226C53.2959 55.754 54.0423 55.4164 54.7109 55.6686ZM71.6978 76.5989C72.1017 77.1883 72.907 77.3387 73.4964 76.9348C74.0859 76.531 74.2363 75.7257 73.8324 75.1362L60.8213 56.1472C60.4174 55.5578 59.6121 55.4074 59.0227 55.8112C58.4332 56.2151 58.2828 57.0204 58.6867 57.6099L71.6978 76.5989Z"/>
</mask>
<path fill-rule="evenodd" clip-rule="evenodd" d="M70.9648 25.8718C70.05 26.1378 69.524 27.0951 69.7901 28.01L75.3495 47.1278C75.6155 48.0426 76.5728 48.5686 77.4877 48.3026L88.4489 45.1151C89.3637 44.849 89.8897 43.8917 89.6236 42.9769L84.0642 23.8591C83.7982 22.9442 82.8409 22.4183 81.926 22.6843L70.9648 25.8718ZM17.958 47.506C17.6919 46.5912 18.2179 45.6339 19.1327 45.3679L26.0156 43.3664C26.9305 43.1003 27.8878 43.6263 28.1538 44.5411L28.2651 44.924L32.7261 43.6268C33.6409 43.3607 34.5982 43.8867 34.8643 44.8015L36.8658 51.6844C37.1318 52.5993 36.6059 53.5565 35.691 53.8226L31.23 55.1198L31.3413 55.5023C31.6073 56.4172 31.0813 57.3745 30.1665 57.6405L23.2836 59.642C22.3688 59.908 21.4115 59.3821 21.1455 58.4672L17.958 47.506ZM36.1992 41.7866C35.6672 39.957 36.7191 38.0424 38.5488 37.5103L66.2059 29.4677C67.1208 29.2016 68.0781 29.7276 68.3441 30.6424L72.7176 45.682C72.9836 46.5968 72.4576 47.5541 71.5428 47.8201L58.9247 51.4894L58.925 51.4905C59.2525 52.6167 58.605 53.7952 57.4789 54.1227C56.3527 54.4502 55.1742 53.8027 54.8467 52.6765L54.8464 52.6754L43.8856 55.8628C42.0559 56.3948 40.1414 55.3429 39.6093 53.5132L36.1992 41.7866ZM54.7109 55.6686C55.3794 55.9208 55.717 56.6672 55.4649 57.3357L48.2098 76.5721C47.9576 77.2407 47.2112 77.5783 46.5426 77.3262C45.8741 77.074 45.5365 76.3276 45.7886 75.659L53.0437 56.4226C53.2959 55.754 54.0423 55.4164 54.7109 55.6686ZM71.6978 76.5989C72.1017 77.1883 72.907 77.3387 73.4964 76.9348C74.0859 76.531 74.2363 75.7257 73.8324 75.1362L60.8213 56.1472C60.4174 55.5578 59.6121 55.4074 59.0227 55.8112C58.4332 56.2151 58.2828 57.0204 58.6867 57.6099L71.6978 76.5989Z" fill="white"/>
<path d="M69.7901 28.01L66.4771 28.9733V28.9733L69.7901 28.01ZM70.9648 25.8718L71.9282 29.1847V29.1847L70.9648 25.8718ZM75.3495 47.1278L72.0366 48.0912L75.3495 47.1278ZM77.4877 48.3026L76.5243 44.9896L76.5243 44.9896L77.4877 48.3026ZM88.4489 45.1151L87.4855 41.8021L88.4489 45.1151ZM89.6236 42.9769L86.3107 43.9403V43.9403L89.6236 42.9769ZM84.0642 23.8591L87.3771 22.8957L87.3771 22.8957L84.0642 23.8591ZM81.926 22.6843L80.9627 19.3714L81.926 22.6843ZM19.1327 45.3679L20.0961 48.6808L20.0961 48.6808L19.1327 45.3679ZM17.958 47.506L21.2709 46.5426L21.2709 46.5426L17.958 47.506ZM26.0156 43.3664L25.0522 40.0534H25.0522L26.0156 43.3664ZM28.1538 44.5411L24.8409 45.5045L24.8409 45.5045L28.1538 44.5411ZM28.2651 44.924L24.9522 45.8874L25.9156 49.2003L29.2285 48.2369L28.2651 44.924ZM32.7261 43.6268L31.7627 40.3138H31.7627L32.7261 43.6268ZM34.8643 44.8015L38.1772 43.8382L34.8643 44.8015ZM36.8658 51.6844L33.5529 52.6478L36.8658 51.6844ZM35.691 53.8226L36.6544 57.1355H36.6544L35.691 53.8226ZM31.23 55.1198L30.2667 51.8069L26.9537 52.7703L27.9171 56.0832L31.23 55.1198ZM31.3413 55.5023L34.6542 54.5389L34.6542 54.5389L31.3413 55.5023ZM30.1665 57.6405L29.2031 54.3276H29.2031L30.1665 57.6405ZM23.2836 59.642L24.247 62.9549H24.247L23.2836 59.642ZM21.1455 58.4672L24.4584 57.5038H24.4584L21.1455 58.4672ZM38.5488 37.5103L39.5122 40.8232H39.5122L38.5488 37.5103ZM36.1992 41.7866L39.5122 40.8232L36.1992 41.7866ZM66.2059 29.4677L65.2426 26.1547V26.1548L66.2059 29.4677ZM68.3441 30.6424L65.0312 31.6058V31.6058L68.3441 30.6424ZM72.7176 45.682L76.0305 44.7186V44.7186L72.7176 45.682ZM71.5428 47.8201L70.5794 44.5072L71.5428 47.8201ZM58.9247 51.4894L57.9613 48.1765L54.6457 49.1407L55.6125 52.4555L58.9247 51.4894ZM58.925 51.4905L62.238 50.5271L62.2372 50.5245L58.925 51.4905ZM57.4789 54.1227L58.4422 57.4356H58.4422L57.4789 54.1227ZM54.8467 52.6765L58.1596 51.7131L58.1589 51.7105L54.8467 52.6765ZM54.8464 52.6754L58.1585 51.7094L57.1933 48.3999L53.883 49.3625L54.8464 52.6754ZM43.8856 55.8628L44.849 59.1757H44.849L43.8856 55.8628ZM39.6093 53.5132L36.2964 54.4766L36.2964 54.4766L39.6093 53.5132ZM55.4649 57.3357L58.6931 58.5533L58.6931 58.5533L55.4649 57.3357ZM54.7109 55.6686L53.4933 58.8968L53.4933 58.8968L54.7109 55.6686ZM48.2098 76.5721L44.9816 75.3546V75.3546L48.2098 76.5721ZM46.5426 77.3262L45.3251 80.5543L45.3251 80.5544L46.5426 77.3262ZM45.7886 75.659L49.0168 76.8765L49.0168 76.8765L45.7886 75.659ZM53.0437 56.4226L56.2719 57.6401L56.2719 57.6401L53.0437 56.4226ZM73.4964 76.9348L75.4466 79.781L75.4466 79.781L73.4964 76.9348ZM71.6978 76.5989L68.8517 78.549L68.8517 78.549L71.6978 76.5989ZM73.8324 75.1362L70.9863 77.0864L70.9863 77.0864L73.8324 75.1362ZM60.8213 56.1472L57.9752 58.0974L57.9752 58.0974L60.8213 56.1472ZM59.0227 55.8112L57.0725 52.9651L57.0725 52.9651L59.0227 55.8112ZM58.6867 57.6099L55.8405 59.56L55.8405 59.56L58.6867 57.6099ZM73.103 27.0466C73.369 27.9614 72.8431 28.9187 71.9282 29.1847L70.0015 22.5589C67.2569 23.357 65.6791 26.2288 66.4771 28.9733L73.103 27.0466ZM78.6624 46.1644L73.103 27.0466L66.4771 28.9733L72.0366 48.0912L78.6624 46.1644ZM76.5243 44.9896C77.4391 44.7236 78.3964 45.2496 78.6624 46.1644L72.0366 48.0912C72.8347 50.8357 75.7065 52.4136 78.4511 51.6155L76.5243 44.9896ZM87.4855 41.8021L76.5243 44.9896L78.451 51.6155L89.4122 48.428L87.4855 41.8021ZM86.3107 43.9403C86.0447 43.0255 86.5706 42.0682 87.4855 41.8021L89.4122 48.428C92.1568 47.6299 93.7347 44.758 92.9365 42.0135L86.3107 43.9403ZM80.7513 24.8225L86.3107 43.9403L92.9366 42.0135L87.3771 22.8957L80.7513 24.8225ZM82.8894 25.9972C81.9746 26.2633 81.0173 25.7373 80.7513 24.8225L87.3771 22.8957C86.579 20.1512 83.7072 18.5733 80.9627 19.3714L82.8894 25.9972ZM71.9282 29.1847L82.8894 25.9972L80.9627 19.3714L70.0015 22.5589L71.9282 29.1847ZM18.1694 42.055C15.4248 42.8531 13.847 45.7249 14.6451 48.4694L21.2709 46.5426C21.5369 47.4575 21.011 48.4148 20.0961 48.6808L18.1694 42.055ZM25.0522 40.0534L18.1694 42.055L20.0961 48.6808L26.979 46.6793L25.0522 40.0534ZM31.4667 43.5777C30.6686 40.8332 27.7968 39.2553 25.0522 40.0534L26.979 46.6793C26.0642 46.9453 25.1069 46.4194 24.8409 45.5045L31.4667 43.5777ZM31.5781 43.9606L31.4667 43.5777L24.8409 45.5045L24.9522 45.8874L31.5781 43.9606ZM31.7627 40.3138L27.3017 41.6111L29.2285 48.2369L33.6895 46.9397L31.7627 40.3138ZM38.1772 43.8382C37.3791 41.0936 34.5072 39.5157 31.7627 40.3138L33.6895 46.9397C32.7746 47.2057 31.8174 46.6798 31.5513 45.7649L38.1772 43.8382ZM40.1787 50.721L38.1772 43.8382L31.5513 45.7649L33.5529 52.6478L40.1787 50.721ZM36.6544 57.1355C39.3989 56.3374 40.9768 53.4656 40.1787 50.721L33.5529 52.6478C33.2868 51.733 33.8128 50.7757 34.7276 50.5097L36.6544 57.1355ZM32.1934 58.4327L36.6544 57.1355L34.7276 50.5096L30.2667 51.8069L32.1934 58.4327ZM34.6542 54.5389L34.543 54.1564L27.9171 56.0832L28.0283 56.4657L34.6542 54.5389ZM31.1299 60.9534C33.8744 60.1553 35.4523 57.2835 34.6542 54.5389L28.0283 56.4657C27.7623 55.5509 28.2883 54.5936 29.2031 54.3276L31.1299 60.9534ZM24.247 62.9549L31.1299 60.9534L29.2031 54.3276L22.3202 56.3291L24.247 62.9549ZM17.8325 59.4306C18.6306 62.1751 21.5025 63.753 24.247 62.9549L22.3202 56.3291C23.2351 56.063 24.1924 56.589 24.4584 57.5038L17.8325 59.4306ZM14.6451 48.4694L17.8325 59.4306L24.4584 57.5038L21.2709 46.5426L14.6451 48.4694ZM37.5854 34.1974C33.926 35.2615 31.8222 39.0907 32.8863 42.75L39.5122 40.8232H39.5122L37.5854 34.1974ZM65.2426 26.1548L37.5854 34.1974L39.5122 40.8232L67.1693 32.7806L65.2426 26.1548ZM71.657 29.6791C70.8589 26.9345 67.9871 25.3567 65.2426 26.1547L67.1693 32.7806C66.2545 33.0466 65.2972 32.5207 65.0312 31.6058L71.657 29.6791ZM76.0305 44.7186L71.657 29.6791L65.0312 31.6058L69.4046 46.6454L76.0305 44.7186ZM72.5062 51.1331C75.2507 50.3349 76.8286 47.4631 76.0305 44.7186L69.4046 46.6454C69.1386 45.7305 69.6646 44.7732 70.5794 44.5072L72.5062 51.1331ZM59.8881 54.8024L72.5062 51.1331L70.5794 44.5072L57.9613 48.1765L59.8881 54.8024ZM62.2372 50.5245L62.2369 50.5234L55.6125 52.4555L55.6129 52.4566L62.2372 50.5245ZM58.4422 57.4356C61.3981 56.576 63.0975 53.483 62.238 50.5271L55.6121 52.4539C55.4075 51.7504 55.812 51.0143 56.5155 50.8097L58.4422 57.4356ZM51.5338 53.6399C52.3933 56.5958 55.4864 58.2952 58.4422 57.4356L56.5155 50.8097C57.2189 50.6052 57.9551 51.0096 58.1596 51.7131L51.5338 53.6399ZM51.5342 53.6414L51.5345 53.6425L58.1589 51.7105L58.1585 51.7094L51.5342 53.6414ZM44.849 59.1757L55.8098 55.9883L53.883 49.3625L42.9222 52.5498L44.849 59.1757ZM36.2964 54.4766C37.3605 58.136 41.1897 60.2398 44.849 59.1757L42.9222 52.5498L42.9222 52.5498L36.2964 54.4766ZM32.8863 42.75L36.2964 54.4766L42.9222 52.5498L39.5122 40.8232L32.8863 42.75ZM58.6931 58.5533C59.6176 56.1018 58.3798 53.365 55.9284 52.4404L53.4933 58.8968C52.379 58.4765 51.8164 57.2325 52.2367 56.1182L58.6931 58.5533ZM51.438 77.7897L58.6931 58.5533L52.2367 56.1182L44.9816 75.3546L51.438 77.7897ZM45.3251 80.5544C47.7766 81.4789 50.5134 80.2411 51.438 77.7897L44.9816 75.3546C45.4018 74.2403 46.6459 73.6777 47.7602 74.098L45.3251 80.5544ZM42.5604 74.4415C41.6359 76.8929 42.8736 79.6298 45.3251 80.5543L47.7602 74.098C48.8745 74.5182 49.4371 75.7622 49.0168 76.8765L42.5604 74.4415ZM49.8155 55.2051L42.5604 74.4415L49.0168 76.8765L56.2719 57.6401L49.8155 55.2051ZM55.9284 52.4404C53.4769 51.5158 50.7401 52.7536 49.8155 55.2051L56.2719 57.6401C55.8516 58.7544 54.6076 59.3171 53.4933 58.8968L55.9284 52.4404ZM71.5463 74.0887C72.5287 73.4156 73.8708 73.6663 74.5439 74.6487L68.8517 78.549C70.3326 80.7103 73.2852 81.2619 75.4466 79.781L71.5463 74.0887ZM70.9863 77.0864C70.3131 76.104 70.5639 74.7619 71.5462 74.0887L75.4466 79.781C77.6079 78.3001 78.1595 75.3474 76.6785 73.1861L70.9863 77.0864ZM57.9752 58.0974L70.9863 77.0864L76.6785 73.1861L63.6674 54.1971L57.9752 58.0974ZM60.9728 58.6574C59.9904 59.3305 58.6483 59.0798 57.9752 58.0974L63.6674 54.1971C62.1865 52.0357 59.2339 51.4842 57.0725 52.9651L60.9728 58.6574ZM61.5328 55.6597C62.206 56.6421 61.9553 57.9842 60.9728 58.6574L57.0725 52.9651C54.9112 54.446 54.3596 57.3987 55.8405 59.56L61.5328 55.6597ZM74.5439 74.6487L61.5328 55.6597L55.8405 59.56L68.8517 78.549L74.5439 74.6487Z" fill="white" mask="url(#path-1-outside-1_257_27690)"/>
</g>
<rect x="69.314" y="26.3711" width="14.8654" height="23.3599" rx="1.72508" transform="rotate(-16.2143 69.314 26.3711)" fill="#FFC747"/>
<path fill-rule="evenodd" clip-rule="evenodd" d="M19.1381 45.3889C18.2233 45.655 17.6973 46.6123 17.9634 47.5271L21.1508 58.4883C21.4169 59.4031 22.3742 59.9291 23.289 59.6631L30.1719 57.6616C31.0867 57.3955 31.6127 56.4382 31.3466 55.5234L31.2354 55.141L35.6967 53.8436C36.6116 53.5776 37.1375 52.6203 36.8715 51.7055L34.87 44.8226C34.6039 43.9078 33.6467 43.3818 32.7318 43.6478L28.2705 44.9452L28.1592 44.5622C27.8931 43.6474 26.9358 43.1214 26.021 43.3874L19.1381 45.3889Z" fill="#FF5065"/>
<path d="M36.2046 41.8051C35.6725 39.9754 36.7245 38.0609 38.5541 37.5288L66.2113 29.4862C67.1261 29.2201 68.0834 29.7461 68.3495 30.6609L72.7229 45.7004C72.989 46.6153 72.463 47.5726 71.5482 47.8386L43.891 55.8812C42.0613 56.4133 40.1467 55.3614 39.6147 53.5317L36.2046 41.8051Z" fill="#FFE39E"/>
<circle cx="56.8919" cy="52.1024" r="3.41744" transform="rotate(-16.2143 56.8919 52.1024)" fill="white" stroke="#FFE39E" stroke-width="2.58762"/>
<path d="M54.6918 55.7502L47.0048 76.1317" stroke="#FFE39E" stroke-width="2.74166" stroke-linecap="round"/>
<path d="M72.7704 75.8865L58.7751 55.4612" stroke="#FFE39E" stroke-width="2.78335" stroke-linecap="round"/>
</g>
<defs>
<filter id="filter0_d_257_27690" x="0.654685" y="6.75931" width="111.785" height="94.7766" filterUnits="userSpaceOnUse" color-interpolation-filters="sRGB">
<feFlood flood-opacity="0" result="BackgroundImageFix"/>
<feColorMatrix in="SourceAlpha" type="matrix" values="0 0 0 0 0 0 0 0 0 0 0 0 0 0 0 0 0 0 127 0" result="hardAlpha"/>
<feOffset dx="2.75661" dy="4.13492"/>
<feGaussianBlur stdDeviation="8.26984"/>
<feComposite in2="hardAlpha" operator="out"/>
<feColorMatrix type="matrix" values="0 0 0 0 0 0 0 0 0 0 0 0 0 0 0 0 0 0 0.08 0"/>
<feBlend mode="normal" in2="BackgroundImageFix" result="effect1_dropShadow_257_27690"/>
<feBlend mode="normal" in="SourceGraphic" in2="effect1_dropShadow_257_27690" result="shape"/>
</filter>
<filter id="filter1_d_257_27690" x="0.654685" y="6.75931" width="111.785" height="94.7766" filterUnits="userSpaceOnUse" color-interpolation-filters="sRGB">
<feFlood flood-opacity="0" result="BackgroundImageFix"/>
<feColorMatrix in="SourceAlpha" type="matrix" values="0 0 0 0 0 0 0 0 0 0 0 0 0 0 0 0 0 0 127 0" result="hardAlpha"/>
<feOffset dx="2.75661" dy="4.13492"/>
<feGaussianBlur stdDeviation="8.26984"/>
<feComposite in2="hardAlpha" operator="out"/>
<feColorMatrix type="matrix" values="0 0 0 0 0 0 0 0 0 0 0 0 0 0 0 0 0 0 0.08 0"/>
<feBlend mode="normal" in2="BackgroundImageFix" result="effect1_dropShadow_257_27690"/>
<feBlend mode="normal" in="SourceGraphic" in2="effect1_dropShadow_257_27690" result="shape"/>
</filter>
</defs>
</svg>
