<svg width="112" height="102" viewBox="0 0 112 102" fill="none" xmlns="http://www.w3.org/2000/svg">
<g filter="url(#filter0_d_257_27686)">
<mask id="path-1-outside-1_257_27686" maskUnits="userSpaceOnUse" x="13.8889" y="19.3672" width="79" height="62" fill="black">
<rect fill="white" x="13.8889" y="19.3672" width="79" height="62"/>
<path fill-rule="evenodd" clip-rule="evenodd" d="M42.7896 29.6599C42.7896 33.6831 39.52 36.9527 35.4968 36.9527C31.4737 36.9527 28.2041 33.6831 28.2041 29.6599C28.2041 25.6368 31.4737 22.3672 35.4968 22.3672C39.52 22.3672 42.7896 25.6368 42.7896 29.6599ZM35.4969 38.6541C38.3462 38.6541 41.0824 39.6915 43.2052 41.5587C45.2529 39.9432 47.7954 39.0528 50.4349 39.0528H55.5398C58.1848 39.0528 60.7324 39.9468 62.7823 41.5687C64.9067 39.6952 67.6476 38.6541 70.5019 38.6541C73.6013 38.6541 76.5671 39.8817 78.7549 42.0695C80.9427 44.2574 82.1703 47.2231 82.1703 50.3225V52.9565C82.6018 52.9622 82.9028 53.0898 83.0887 53.267C83.1734 53.3477 83.2479 53.4412 83.3191 53.5339C83.921 54.3181 83.4744 55.5792 82.5096 56.9849L83.716 55.7785C84.0555 55.439 84.2463 54.9785 84.2463 54.4983V52.8381C83.9572 43.8778 86.16 42.1329 87.6384 42.3991C87.955 42.4561 88.3048 42.5849 88.4409 42.8764C89.4201 44.9733 89.1744 56.6966 88.6642 58.3002C88.2295 59.6664 81.3088 68.7938 77.5575 73.6348C77.311 73.9529 77.1776 74.3428 77.1776 74.7452V76.4105C77.1776 77.4104 76.367 78.221 75.3671 78.221H65.991C65.8839 78.221 65.7799 78.2255 65.6814 78.2297C65.2086 78.2501 64.862 78.2651 64.8941 77.7516C64.9637 76.6381 64.4082 71.8552 64.1037 69.4574C64.0908 69.3552 64.0862 69.2524 64.0927 69.1495C64.1127 68.8332 64.1512 68.5246 64.2063 68.2239H41.7938C41.8489 68.5246 41.8874 68.8332 41.9074 69.1495C41.9139 69.2524 41.9093 69.3552 41.8963 69.4574C41.5918 71.8552 41.0364 76.6381 41.106 77.7516C41.138 78.2651 40.7915 78.2501 40.3186 78.2297C40.2201 78.2255 40.1162 78.221 40.009 78.221H30.633C29.633 78.221 28.8225 77.4104 28.8225 76.4105V74.7452C28.8225 74.3428 28.689 73.9529 28.4426 73.6348C24.6913 68.7938 17.7705 59.6664 17.3358 58.3002C16.8256 56.6966 16.5799 44.9733 17.5591 42.8764C17.6952 42.5849 18.045 42.4561 18.3616 42.3991C19.84 42.1329 22.0428 43.8778 21.7538 52.8381V54.4983C21.7538 54.9785 21.9445 55.439 22.2841 55.7785L23.4904 56.9849C22.5257 55.5792 22.079 54.3181 22.681 53.5339C22.7522 53.4412 22.8266 53.3477 22.9113 53.267C23.0971 53.09 23.3977 52.9624 23.8286 52.9566V50.3225C23.8286 47.2231 25.0562 44.2574 27.244 42.0695C29.4318 39.8817 32.3975 38.6541 35.4969 38.6541ZM77.7949 29.6599C77.7949 33.6831 74.5253 36.9527 70.5022 36.9527C66.479 36.9527 63.2095 33.6831 63.2095 29.6599C63.2095 25.6368 66.479 22.3672 70.5022 22.3672C74.5253 22.3672 77.7949 25.6368 77.7949 29.6599ZM60.2917 30.0587C60.2917 34.0819 57.0222 37.3515 52.999 37.3515C48.9758 37.3515 45.7063 34.0819 45.7063 30.0587C45.7063 26.0355 48.9758 22.766 52.999 22.766C57.0222 22.766 60.2917 26.0355 60.2917 30.0587Z"/>
</mask>
<path fill-rule="evenodd" clip-rule="evenodd" d="M42.7896 29.6599C42.7896 33.6831 39.52 36.9527 35.4968 36.9527C31.4737 36.9527 28.2041 33.6831 28.2041 29.6599C28.2041 25.6368 31.4737 22.3672 35.4968 22.3672C39.52 22.3672 42.7896 25.6368 42.7896 29.6599ZM35.4969 38.6541C38.3462 38.6541 41.0824 39.6915 43.2052 41.5587C45.2529 39.9432 47.7954 39.0528 50.4349 39.0528H55.5398C58.1848 39.0528 60.7324 39.9468 62.7823 41.5687C64.9067 39.6952 67.6476 38.6541 70.5019 38.6541C73.6013 38.6541 76.5671 39.8817 78.7549 42.0695C80.9427 44.2574 82.1703 47.2231 82.1703 50.3225V52.9565C82.6018 52.9622 82.9028 53.0898 83.0887 53.267C83.1734 53.3477 83.2479 53.4412 83.3191 53.5339C83.921 54.3181 83.4744 55.5792 82.5096 56.9849L83.716 55.7785C84.0555 55.439 84.2463 54.9785 84.2463 54.4983V52.8381C83.9572 43.8778 86.16 42.1329 87.6384 42.3991C87.955 42.4561 88.3048 42.5849 88.4409 42.8764C89.4201 44.9733 89.1744 56.6966 88.6642 58.3002C88.2295 59.6664 81.3088 68.7938 77.5575 73.6348C77.311 73.9529 77.1776 74.3428 77.1776 74.7452V76.4105C77.1776 77.4104 76.367 78.221 75.3671 78.221H65.991C65.8839 78.221 65.7799 78.2255 65.6814 78.2297C65.2086 78.2501 64.862 78.2651 64.8941 77.7516C64.9637 76.6381 64.4082 71.8552 64.1037 69.4574C64.0908 69.3552 64.0862 69.2524 64.0927 69.1495C64.1127 68.8332 64.1512 68.5246 64.2063 68.2239H41.7938C41.8489 68.5246 41.8874 68.8332 41.9074 69.1495C41.9139 69.2524 41.9093 69.3552 41.8963 69.4574C41.5918 71.8552 41.0364 76.6381 41.106 77.7516C41.138 78.2651 40.7915 78.2501 40.3186 78.2297C40.2201 78.2255 40.1162 78.221 40.009 78.221H30.633C29.633 78.221 28.8225 77.4104 28.8225 76.4105V74.7452C28.8225 74.3428 28.689 73.9529 28.4426 73.6348C24.6913 68.7938 17.7705 59.6664 17.3358 58.3002C16.8256 56.6966 16.5799 44.9733 17.5591 42.8764C17.6952 42.5849 18.045 42.4561 18.3616 42.3991C19.84 42.1329 22.0428 43.8778 21.7538 52.8381V54.4983C21.7538 54.9785 21.9445 55.439 22.2841 55.7785L23.4904 56.9849C22.5257 55.5792 22.079 54.3181 22.681 53.5339C22.7522 53.4412 22.8266 53.3477 22.9113 53.267C23.0971 53.09 23.3977 52.9624 23.8286 52.9566V50.3225C23.8286 47.2231 25.0562 44.2574 27.244 42.0695C29.4318 39.8817 32.3975 38.6541 35.4969 38.6541ZM77.7949 29.6599C77.7949 33.6831 74.5253 36.9527 70.5022 36.9527C66.479 36.9527 63.2095 33.6831 63.2095 29.6599C63.2095 25.6368 66.479 22.3672 70.5022 22.3672C74.5253 22.3672 77.7949 25.6368 77.7949 29.6599ZM60.2917 30.0587C60.2917 34.0819 57.0222 37.3515 52.999 37.3515C48.9758 37.3515 45.7063 34.0819 45.7063 30.0587C45.7063 26.0355 48.9758 22.766 52.999 22.766C57.0222 22.766 60.2917 26.0355 60.2917 30.0587Z" fill="white"/>
<path d="M43.2052 41.5587L41.3666 43.649L43.1084 45.1809L44.9295 43.7442L43.2052 41.5587ZM62.7823 41.5687L61.055 43.7519L62.879 45.195L64.6235 43.6566L62.7823 41.5687ZM78.7549 42.0695L80.7234 40.101L80.7234 40.101L78.7549 42.0695ZM82.1703 52.9565H79.3865V55.7042L82.1339 55.7402L82.1703 52.9565ZM83.0887 53.267L85.009 51.2515L85.009 51.2515L83.0887 53.267ZM83.3191 53.5339L81.1108 55.229L81.1108 55.229L83.3191 53.5339ZM82.5096 56.9849L80.2143 55.4096L84.4781 58.9533L82.5096 56.9849ZM83.716 55.7785L81.7475 53.81L81.7475 53.81L83.716 55.7785ZM84.2463 52.8381H87.0301V52.7932L87.0287 52.7484L84.2463 52.8381ZM87.6384 42.3991L87.1452 45.1389L87.1452 45.1389L87.6384 42.3991ZM88.4409 42.8764L85.9185 44.0543L85.9186 44.0543L88.4409 42.8764ZM88.6642 58.3002L91.317 59.1443L91.317 59.1443L88.6642 58.3002ZM77.5575 73.6348L75.357 71.9297L75.3569 71.9297L77.5575 73.6348ZM65.6814 78.2297L65.8015 81.011L65.8016 81.011L65.6814 78.2297ZM64.8941 77.7516L67.6725 77.9253L67.6725 77.9253L64.8941 77.7516ZM64.1037 69.4574L66.8654 69.1068L66.8654 69.1067L64.1037 69.4574ZM64.0927 69.1495L61.3144 68.974L61.3144 68.974L64.0927 69.1495ZM64.2063 68.2239L66.9446 68.7253L67.5462 65.44H64.2063V68.2239ZM41.7938 68.2239V65.44H38.4538L39.0555 68.7253L41.7938 68.2239ZM41.9074 69.1495L44.6857 68.974L44.6857 68.974L41.9074 69.1495ZM41.8963 69.4574L44.658 69.8081L44.658 69.808L41.8963 69.4574ZM41.106 77.7516L38.3275 77.9253L38.3275 77.9253L41.106 77.7516ZM40.3186 78.2297L40.1985 81.011L40.1986 81.011L40.3186 78.2297ZM28.4426 73.6348L30.6431 71.9297L30.6431 71.9297L28.4426 73.6348ZM17.3358 58.3002L19.9887 57.4562L19.9887 57.4562L17.3358 58.3002ZM17.5591 42.8764L20.0815 44.0543L20.0815 44.0543L17.5591 42.8764ZM18.3616 42.3991L18.8549 45.1389L18.8549 45.1389L18.3616 42.3991ZM21.7538 52.8381L18.9714 52.7484L18.9699 52.7932V52.8381H21.7538ZM22.2841 55.7785L24.2526 53.81L24.2526 53.81L22.2841 55.7785ZM23.4904 56.9849L21.5219 58.9533L25.7857 55.4096L23.4904 56.9849ZM22.681 53.5339L20.4727 51.8388L20.4727 51.8388L22.681 53.5339ZM22.9113 53.267L24.8316 55.2826L24.8316 55.2826L22.9113 53.267ZM23.8286 52.9566L23.8664 55.7402L26.6124 55.7028V52.9566H23.8286ZM27.244 42.0695L25.2755 40.101L25.2755 40.101L27.244 42.0695ZM35.4968 39.7366C41.0575 39.7366 45.5734 35.2206 45.5734 29.6599H40.0057C40.0057 32.1457 37.9825 34.1689 35.4968 34.1689V39.7366ZM25.4203 29.6599C25.4203 35.2206 29.9362 39.7366 35.4968 39.7366V34.1689C33.0112 34.1689 30.9879 32.1457 30.9879 29.6599H25.4203ZM35.4968 19.5833C29.9362 19.5833 25.4203 24.0993 25.4203 29.6599H30.9879C30.9879 27.1742 33.0112 25.151 35.4968 25.151V19.5833ZM45.5734 29.6599C45.5734 24.0993 41.0575 19.5833 35.4968 19.5833V25.151C37.9825 25.151 40.0057 27.1742 40.0057 29.6599H45.5734ZM45.0438 39.4683C42.4134 37.1547 39.0237 35.8702 35.4969 35.8702V41.4379C37.6686 41.4379 39.7515 42.2283 41.3666 43.649L45.0438 39.4683ZM50.4349 36.269C47.1678 36.269 44.0183 37.3713 41.481 39.3731L44.9295 43.7442C46.4875 42.5151 48.423 41.8367 50.4349 41.8367V36.269ZM55.5398 36.269H50.4349V41.8367H55.5398V36.269ZM64.5096 39.3855C61.9695 37.3758 58.8137 36.269 55.5398 36.269V41.8367C57.5559 41.8367 59.4953 42.5179 61.055 43.7519L64.5096 39.3855ZM70.5019 35.8702C66.9689 35.8702 63.5734 37.1593 60.941 39.4807L64.6235 43.6566C66.24 42.2312 68.3264 41.4379 70.5019 41.4379V35.8702ZM80.7234 40.101C78.0126 37.3903 74.3385 35.8702 70.5019 35.8702V41.4379C72.8642 41.4379 75.1215 42.3731 76.7864 44.038L80.7234 40.101ZM84.9542 50.3225C84.9542 46.4859 83.4341 42.8118 80.7234 40.101L76.7864 44.038C78.4513 45.7029 79.3865 47.9602 79.3865 50.3225H84.9542ZM84.9542 52.9565V50.3225H79.3865V52.9565H84.9542ZM85.009 51.2515C84.1992 50.4799 83.1632 50.1854 82.2067 50.1729L82.1339 55.7402C82.0403 55.7389 81.6064 55.6997 81.1685 55.2826L85.009 51.2515ZM85.5273 51.8388C85.4501 51.7382 85.2632 51.4937 85.009 51.2515L81.1684 55.2825C81.1189 55.2353 81.0895 55.2009 81.0834 55.1936C81.0797 55.1893 81.0798 55.1893 81.0848 55.1955C81.0899 55.202 81.0977 55.212 81.1108 55.229L85.5273 51.8388ZM84.8049 58.5601C85.365 57.744 85.9169 56.7744 86.1918 55.7434C86.4707 54.6969 86.5541 53.1764 85.5273 51.8388L81.1108 55.229C80.9226 54.9838 80.8379 54.7174 80.8152 54.5123C80.7954 54.3329 80.8274 54.2514 80.8119 54.3093C80.7973 54.364 80.7544 54.4901 80.6502 54.6935C80.5481 54.8928 80.4048 55.1321 80.2143 55.4096L84.8049 58.5601ZM81.7475 53.81L80.5412 55.0164L84.4781 58.9533L85.6845 57.747L81.7475 53.81ZM81.4624 54.4983C81.4624 54.2402 81.5649 53.9926 81.7475 53.81L85.6845 57.747C86.5461 56.8854 87.0301 55.7168 87.0301 54.4983H81.4624ZM81.4624 52.8381V54.4983H87.0301V52.8381H81.4624ZM88.1317 39.6593C87.0804 39.47 85.9446 39.6629 84.928 40.323C83.9525 40.9565 83.2487 41.9103 82.7497 42.997C81.7792 45.1104 81.3148 48.307 81.4638 52.9279L87.0287 52.7484C86.8887 48.409 87.3812 46.253 87.8094 45.3204C88.0098 44.884 88.1158 44.8916 87.9601 44.9927C87.7633 45.1205 87.4573 45.1951 87.1452 45.1389L88.1317 39.6593ZM90.9633 41.6985C90.5612 40.8373 89.8993 40.3469 89.4034 40.0861C88.9165 39.83 88.447 39.7161 88.1317 39.6593L87.1452 45.1389C87.1349 45.1371 87.1027 45.1309 87.0533 45.1155C87.0053 45.1007 86.9195 45.0705 86.8114 45.0136C86.6035 44.9043 86.1846 44.6241 85.9185 44.0543L90.9633 41.6985ZM91.317 59.1443C91.4734 58.6529 91.5549 58.0445 91.6078 57.5734C91.6688 57.0293 91.7199 56.3787 91.7614 55.6714C91.8444 54.2531 91.8935 52.5177 91.895 50.7756C91.8964 49.0378 91.8505 47.2502 91.7367 45.7368C91.6799 44.9822 91.6036 44.2584 91.4997 43.6249C91.4064 43.0558 91.2561 42.3256 90.9633 41.6985L85.9186 44.0543C85.8705 43.9514 85.9268 44.0463 86.0054 44.526C86.0735 44.9412 86.1347 45.4898 86.1847 46.1542C86.2843 47.4788 86.3286 49.1154 86.3273 50.771C86.3259 52.4223 86.2791 54.0495 86.2032 55.3459C86.1651 55.9959 86.121 56.5406 86.0748 56.9527C86.0203 57.4379 85.9826 57.5466 86.0114 57.4562L91.317 59.1443ZM79.758 75.34C81.6414 72.9094 84.3242 69.3982 86.5956 66.316C87.7295 64.7774 88.7748 63.3269 89.5706 62.1637C89.9669 61.5843 90.3177 61.0524 90.5915 60.6043C90.8084 60.2494 91.1455 59.6833 91.317 59.1443L86.0114 57.4562C86.0742 57.2586 86.1 57.2767 85.8405 57.7013C85.638 58.0327 85.3475 58.476 84.9753 59.02C84.2339 60.1037 83.2331 61.4937 82.1135 63.0129C79.8781 66.0462 77.2248 69.5192 75.357 71.9297L79.758 75.34ZM79.9614 74.7452C79.9614 74.9603 79.8896 75.1702 79.758 75.34L75.3569 71.9297C74.7325 72.7356 74.3937 73.7253 74.3937 74.7452H79.9614ZM79.9614 76.4105V74.7452H74.3937V76.4105H79.9614ZM75.3671 81.0048C77.9045 81.0048 79.9614 78.9479 79.9614 76.4105H74.3937C74.3937 75.8729 74.8295 75.4371 75.3671 75.4371V81.0048ZM65.991 81.0048H75.3671V75.4371H65.991V81.0048ZM65.8016 81.011C65.9079 81.0064 65.9532 81.0048 65.991 81.0048V75.4371C65.8145 75.4371 65.6519 75.4445 65.5613 75.4485L65.8016 81.011ZM62.1157 77.5779C62.0906 77.9794 62.1118 78.6226 62.4489 79.2943C62.8284 80.0506 63.4441 80.5223 64.0458 80.768C64.5611 80.9785 65.0275 81.0092 65.2485 81.0177C65.4824 81.0266 65.7136 81.0148 65.8015 81.011L65.5614 75.4484C65.4128 75.4549 65.4234 75.4526 65.4603 75.454C65.4843 75.4549 65.7775 75.4611 66.151 75.6137C66.611 75.8015 67.1165 76.182 67.4253 76.7973C67.6916 77.3281 67.6816 77.7806 67.6725 77.9253L62.1157 77.5779ZM61.3421 69.8081C61.4925 70.9925 61.7046 72.7648 61.87 74.3711C61.9528 75.1757 62.0222 75.9226 62.0664 76.5264C62.0885 76.8287 62.1033 77.081 62.1107 77.2787C62.1189 77.4953 62.1155 77.5805 62.1157 77.578L67.6725 77.9253C67.7252 77.0818 67.5656 75.3287 67.4084 73.8011C67.2373 72.1382 67.0195 70.3201 66.8654 69.1068L61.3421 69.8081ZM61.3144 68.974C61.2953 69.2756 61.3101 69.5561 61.3421 69.8081L66.8654 69.1067C66.8715 69.1543 66.877 69.2291 66.871 69.325L61.3144 68.974ZM61.4679 67.7225C61.3935 68.129 61.3414 68.5464 61.3144 68.974L66.871 69.325C66.8839 69.12 66.9089 68.9202 66.9446 68.7253L61.4679 67.7225ZM41.7938 71.0077H64.2063V65.44H41.7938V71.0077ZM44.6857 68.974C44.6587 68.5464 44.6065 68.129 44.5321 67.7224L39.0555 68.7253C39.0912 68.9202 39.1161 69.12 39.1291 69.325L44.6857 68.974ZM44.658 69.808C44.69 69.5561 44.7047 69.2757 44.6857 68.974L39.1291 69.325C39.123 69.2291 39.1286 69.1542 39.1346 69.1068L44.658 69.808ZM43.8844 77.578C43.8845 77.5805 43.8812 77.4953 43.8893 77.2787C43.8968 77.081 43.9115 76.8287 43.9337 76.5264C43.9779 75.9226 44.0473 75.1757 44.1301 74.3711C44.2954 72.7648 44.5076 70.9925 44.658 69.8081L39.1346 69.1068C38.9806 70.3201 38.7628 72.1382 38.5916 73.8011C38.4344 75.3287 38.2748 77.0818 38.3275 77.9253L43.8844 77.578ZM40.1986 81.011C40.2864 81.0148 40.5177 81.0266 40.7516 81.0177C40.9725 81.0092 41.4389 80.9785 41.9542 80.768C42.5559 80.5223 43.1717 80.0506 43.5511 79.2943C43.8882 78.6226 43.9095 77.9794 43.8844 77.578L38.3275 77.9253C38.3185 77.7806 38.3085 77.3281 38.5748 76.7973C38.8835 76.182 39.3891 75.8015 39.849 75.6137C40.2226 75.4611 40.5157 75.4549 40.5397 75.454C40.5766 75.4526 40.5872 75.4549 40.4387 75.4484L40.1986 81.011ZM40.009 81.0048C40.0468 81.0048 40.0921 81.0064 40.1985 81.011L40.4387 75.4485C40.3482 75.4445 40.1856 75.4371 40.009 75.4371V81.0048ZM30.633 81.0048H40.009V75.4371H30.633V81.0048ZM26.0386 76.4105C26.0386 78.9479 28.0956 81.0048 30.633 81.0048V75.4371C31.1705 75.4371 31.6063 75.8729 31.6063 76.4105H26.0386ZM26.0386 74.7452V76.4105H31.6063V74.7452H26.0386ZM26.2421 75.34C26.1105 75.1702 26.0386 74.9603 26.0386 74.7452H31.6063C31.6063 73.7253 31.2676 72.7356 30.6431 71.9297L26.2421 75.34ZM14.683 59.1443C14.8546 59.6833 15.1917 60.2494 15.4085 60.6043C15.6824 61.0524 16.0331 61.5843 16.4295 62.1637C17.2252 63.3269 18.2706 64.7774 19.4045 66.316C21.6759 69.3982 24.3586 72.9094 26.2421 75.34L30.6431 71.9297C28.7752 69.5192 26.1219 66.0462 23.8865 63.0129C22.7669 61.4937 21.7661 60.1037 21.0248 59.02C20.6526 58.476 20.362 58.0327 20.1595 57.7013C19.9 57.2767 19.9258 57.2586 19.9887 57.4562L14.683 59.1443ZM15.0367 41.6985C14.7439 42.3256 14.5936 43.0558 14.5003 43.6249C14.3964 44.2584 14.3201 44.9822 14.2634 45.7368C14.1496 47.2502 14.1037 49.0378 14.1051 50.7756C14.1065 52.5177 14.1556 54.2531 14.2387 55.6714C14.2801 56.3787 14.3312 57.0293 14.3923 57.5734C14.4451 58.0445 14.5267 58.6529 14.683 59.1443L19.9887 57.4562C20.0174 57.5466 19.9797 57.4379 19.9253 56.9527C19.8791 56.5406 19.8349 55.9959 19.7969 55.3459C19.721 54.0495 19.6742 52.4223 19.6728 50.771C19.6714 49.1154 19.7158 47.4788 19.8154 46.1542C19.8653 45.4898 19.9265 44.9412 19.9946 44.526C20.0733 44.0463 20.1295 43.9514 20.0815 44.0543L15.0367 41.6985ZM17.8683 39.6593C17.5531 39.7161 17.0835 39.83 16.5967 40.0861C16.1007 40.3469 15.4389 40.8373 15.0367 41.6985L20.0815 44.0543C19.8154 44.6241 19.3965 44.9043 19.1887 45.0136C19.0805 45.0705 18.9947 45.1007 18.9468 45.1155C18.8974 45.1309 18.8651 45.1371 18.8549 45.1389L17.8683 39.6593ZM24.5362 52.9279C24.6853 48.307 24.2209 45.1104 23.2504 42.997C22.7514 41.9103 22.0475 40.9565 21.0721 40.323C20.0555 39.6629 18.9197 39.47 17.8683 39.6593L18.8549 45.1389C18.5428 45.1951 18.2367 45.1205 18.0399 44.9927C17.8842 44.8916 17.9903 44.884 18.1906 45.3204C18.6189 46.253 19.1114 48.409 18.9714 52.7484L24.5362 52.9279ZM24.5376 54.4983V52.8381H18.9699V54.4983H24.5376ZM24.2526 53.81C24.4351 53.9926 24.5376 54.2402 24.5376 54.4983H18.9699C18.9699 55.7168 19.454 56.8854 20.3156 57.747L24.2526 53.81ZM25.4589 55.0164L24.2526 53.81L20.3156 57.747L21.5219 58.9533L25.4589 55.0164ZM20.4727 51.8388C19.446 53.1764 19.5293 54.6969 19.8083 55.7434C20.0831 56.7744 20.635 57.744 21.1951 58.5601L25.7857 55.4096C25.5953 55.1321 25.452 54.8928 25.3499 54.6935C25.2457 54.4901 25.2027 54.364 25.1881 54.3093C25.1727 54.2514 25.2047 54.3329 25.1848 54.5123C25.1621 54.7175 25.0775 54.9838 24.8892 55.229L20.4727 51.8388ZM20.9911 51.2515C20.7368 51.4937 20.5499 51.7382 20.4727 51.8388L24.8892 55.229C24.9023 55.212 24.9101 55.202 24.9153 55.1955C24.9203 55.1893 24.9203 55.1893 24.9167 55.1936C24.9106 55.2008 24.8812 55.2353 24.8316 55.2826L20.9911 51.2515ZM23.7907 50.173C22.835 50.186 21.8001 50.4807 20.9911 51.2515L24.8316 55.2826C24.3941 55.6993 23.9605 55.7389 23.8664 55.7402L23.7907 50.173ZM21.0447 50.3225V52.9566H26.6124V50.3225H21.0447ZM25.2755 40.101C22.5648 42.8118 21.0447 46.4859 21.0447 50.3225H26.6124C26.6124 47.9602 27.5476 45.7029 29.2125 44.038L25.2755 40.101ZM35.4969 35.8702C31.6604 35.8702 27.9862 37.3903 25.2755 40.101L29.2125 44.038C30.8774 42.3731 33.1347 41.4379 35.4969 41.4379V35.8702ZM70.5022 39.7366C76.0628 39.7366 80.5788 35.2206 80.5788 29.6599H75.0111C75.0111 32.1457 72.9878 34.1689 70.5022 34.1689V39.7366ZM60.4256 29.6599C60.4256 35.2206 64.9415 39.7366 70.5022 39.7366V34.1689C68.0165 34.1689 65.9933 32.1457 65.9933 29.6599H60.4256ZM70.5022 19.5833C64.9415 19.5833 60.4256 24.0993 60.4256 29.6599H65.9933C65.9933 27.1742 68.0165 25.151 70.5022 25.151V19.5833ZM80.5788 29.6599C80.5788 24.0993 76.0628 19.5833 70.5022 19.5833V25.151C72.9878 25.151 75.0111 27.1742 75.0111 29.6599H80.5788ZM52.999 40.1353C58.5596 40.1353 63.0756 35.6194 63.0756 30.0587H57.5079C57.5079 32.5444 55.4847 34.5676 52.999 34.5676V40.1353ZM42.9224 30.0587C42.9224 35.6194 47.4384 40.1353 52.999 40.1353V34.5676C50.5133 34.5676 48.4901 32.5444 48.4901 30.0587H42.9224ZM52.999 19.9821C47.4384 19.9821 42.9224 24.4981 42.9224 30.0587H48.4901C48.4901 27.573 50.5133 25.5498 52.999 25.5498V19.9821ZM63.0756 30.0587C63.0756 24.4981 58.5596 19.9821 52.999 19.9821V25.5498C55.4847 25.5498 57.5079 27.573 57.5079 30.0587H63.0756Z" fill="white" mask="url(#path-1-outside-1_257_27686)"/>
<path d="M35.497 38.5078C38.5964 38.5078 41.5621 39.7354 43.7499 41.9233C45.9377 44.1111 47.1653 47.0768 47.1653 50.1762V64.7618C47.1653 65.5397 46.8615 66.2811 46.3145 66.828C45.7676 67.375 45.0261 67.6789 44.2483 67.6789H26.7457C25.9678 67.6789 25.2264 67.375 24.6794 66.828C24.1325 66.2811 23.8286 65.5397 23.8286 64.7618V50.1762C23.8286 47.0768 25.0562 44.1111 27.244 41.9233C29.4319 39.7354 32.3976 38.5078 35.497 38.5078Z" fill="#FF5065"/>
<path d="M35.4968 36.8062C39.52 36.8062 42.7896 33.5366 42.7896 29.5135C42.7896 25.4903 39.52 22.2207 35.4968 22.2207C31.4737 22.2207 28.2041 25.4903 28.2041 29.5135C28.2041 33.5366 31.4737 36.8062 35.4968 36.8062Z" fill="#FF5065"/>
<path d="M79.2534 67.6789H61.7508C60.9729 67.6789 60.2315 67.375 59.6846 66.828C59.1376 66.2811 58.8337 65.5397 58.8337 64.7618V50.1762C58.8337 47.0768 60.0614 44.1111 62.2492 41.9233C64.437 39.7354 67.4027 38.5078 70.5021 38.5078C73.6015 38.5078 76.5672 39.7354 78.755 41.9233C80.9429 44.1111 82.1705 47.0768 82.1705 50.1762V64.7618C82.1705 65.5397 81.8666 66.2811 81.3197 66.828C80.7727 67.375 80.0313 67.6789 79.2534 67.6789Z" fill="#1ACEFF"/>
<path d="M70.5022 36.8062C74.5254 36.8062 77.7949 33.5366 77.7949 29.5135C77.7949 25.4903 74.5254 22.2207 70.5022 22.2207C66.479 22.2207 63.2095 25.4903 63.2095 29.5135C63.2095 33.5366 66.479 36.8062 70.5022 36.8062Z" fill="#1ACEFF"/>
<path d="M50.435 39.514H55.5399C58.4784 39.514 61.2894 40.6777 63.3631 42.7514C65.4367 44.8251 66.6005 47.6362 66.6005 50.5747V65.1602C66.6005 65.7791 66.3591 66.3653 65.9277 66.7968C65.4963 67.2282 64.9101 67.4696 64.2912 67.4696H41.6837C41.0648 67.4696 40.4786 67.2282 40.0471 66.7968C39.6157 66.3653 39.3743 65.7791 39.3743 65.1602V50.5747C39.3743 47.6362 40.5381 44.8251 42.6118 42.7514C44.6854 40.6777 47.4965 39.514 50.435 39.514Z" fill="#FFC747" stroke="#FFC747" stroke-width="1.21546"/>
<path d="M59.684 29.9119C59.684 33.5994 56.6865 36.5969 52.999 36.5969C49.3115 36.5969 46.314 33.5994 46.314 29.9119C46.314 26.2244 49.3115 23.2269 52.999 23.2269C56.6865 23.2269 59.684 26.2244 59.684 29.9119Z" fill="#FFC747" stroke="#FFC747" stroke-width="1.21546"/>
<path d="M28.8225 76.263V74.5977C28.8225 74.1953 28.689 73.8054 28.4426 73.4874C24.6913 68.6463 17.7705 59.5189 17.3358 58.1528C16.8256 56.5492 16.5799 44.8259 17.5591 42.7289C17.6952 42.4375 18.045 42.3086 18.3616 42.2516C19.84 41.9855 22.0428 43.7304 21.7538 52.6907V54.3508C21.7538 54.831 21.9445 55.2915 22.2841 55.6311L23.4904 56.8374C22.5257 55.4317 22.079 54.1707 22.681 53.3865C22.7522 53.2937 22.8266 53.2002 22.9113 53.1196C23.6396 52.4257 26.1326 52.4912 31.3126 57.6712C32.0356 58.4209 33.7063 59.9686 34.606 60.1613C35.72 60.4001 41.5632 63.5552 41.9074 69.002C41.9139 69.1049 41.9093 69.2077 41.8963 69.31C41.5918 71.7078 41.0364 76.4906 41.106 77.6041C41.1447 78.2246 40.6307 78.0735 40.009 78.0735H30.633C29.633 78.0735 28.8225 77.2629 28.8225 76.263Z" fill="#FFE39E"/>
<path d="M77.1775 76.263V74.5977C77.1775 74.1953 77.311 73.8054 77.5574 73.4874C81.3087 68.6463 88.2295 59.5189 88.6642 58.1528C89.1744 56.5492 89.4201 44.8259 88.4409 42.7289C88.3048 42.4375 87.955 42.3086 87.6384 42.2516C86.16 41.9855 83.9572 43.7304 84.2462 52.6907V54.3508C84.2462 54.831 84.0555 55.2915 83.7159 55.6311L82.5096 56.8374C83.4743 55.4317 83.921 54.1707 83.319 53.3865C83.2478 53.2937 83.1734 53.2002 83.0887 53.1196C82.3604 52.4257 79.8674 52.4912 74.6874 57.6712C73.9644 58.4209 72.2937 59.9686 71.394 60.1613C70.28 60.4001 64.4368 63.5552 64.0926 69.002C64.0861 69.1049 64.0907 69.2077 64.1037 69.31C64.4082 71.7078 64.9636 76.4906 64.894 77.6041C64.8553 78.2246 65.3693 78.0735 65.991 78.0735H75.367C76.367 78.0735 77.1775 77.2629 77.1775 76.263Z" fill="#FFE39E"/>
</g>
<defs>
<filter id="filter0_d_257_27686" x="0.185737" y="7.05666" width="111.196" height="94.8437" filterUnits="userSpaceOnUse" color-interpolation-filters="sRGB">
<feFlood flood-opacity="0" result="BackgroundImageFix"/>
<feColorMatrix in="SourceAlpha" type="matrix" values="0 0 0 0 0 0 0 0 0 0 0 0 0 0 0 0 0 0 127 0" result="hardAlpha"/>
<feOffset dx="2.78385" dy="4.17577"/>
<feGaussianBlur stdDeviation="8.35155"/>
<feComposite in2="hardAlpha" operator="out"/>
<feColorMatrix type="matrix" values="0 0 0 0 0 0 0 0 0 0 0 0 0 0 0 0 0 0 0.08 0"/>
<feBlend mode="normal" in2="BackgroundImageFix" result="effect1_dropShadow_257_27686"/>
<feBlend mode="normal" in="SourceGraphic" in2="effect1_dropShadow_257_27686" result="shape"/>
</filter>
</defs>
</svg>
