<svg width="106" height="105" viewBox="0 0 106 105" fill="none" xmlns="http://www.w3.org/2000/svg">
<g filter="url(#filter0_d_257_27682)">
<path d="M77.0834 18.7912H70.2084C69.7361 16.7773 67.9445 15.2773 65.7917 15.2773H62.2778C60.125 15.2773 58.3334 16.7773 57.8611 18.7912H42.0556C41.5972 16.7773 39.7917 15.2773 37.6389 15.2773H34.1945C32.0417 15.2773 30.25 16.7773 29.7778 18.7912H22.9167C17.9445 18.7912 13.8889 22.8329 13.8889 27.819V74.194C13.8889 79.5968 18.2778 83.9857 23.6806 83.9857H76.3195C81.7222 83.9857 86.1111 79.5968 86.1111 74.194V27.819C86.1111 22.8468 82.0556 18.7912 77.0834 18.7912Z" fill="white"/>
</g>
<path d="M76.3193 21.5723H23.6804C19.8054 21.5723 16.6665 24.7112 16.6665 28.5862V74.1973C16.6665 78.0723 19.8054 81.2112 23.6804 81.2112H76.3193C80.1943 81.2112 83.3332 78.0723 83.3332 74.1973V28.5862C83.3332 24.7112 80.1943 21.5723 76.3193 21.5723Z" fill="#F9F9F9"/>
<path d="M36.6978 50.1133C37.045 50.1133 37.3506 50.1966 37.6006 50.3494C37.8506 50.5161 38.0728 50.8216 38.2672 51.2938L42.7672 62.8911C42.92 63.2799 42.92 63.6133 42.7672 63.8911C42.6144 64.1688 42.3783 64.3633 42.045 64.4744C41.7117 64.5855 41.3783 64.5994 41.0589 64.5161C40.7256 64.4327 40.4894 64.1827 40.3506 63.7522L39.1839 60.5577H34.1422L32.9617 63.8355C32.8089 64.2244 32.5867 64.4466 32.295 64.5299C31.9894 64.5994 31.6839 64.5855 31.3644 64.4744C31.045 64.3633 30.8089 64.1827 30.67 63.9327C30.5172 63.6827 30.5172 63.3633 30.67 62.9883L35.17 51.2799C35.3367 50.8077 35.5589 50.5022 35.8228 50.3355C36.0728 50.1827 36.3644 50.1133 36.6978 50.1133ZM36.67 53.3077C36.5589 53.7105 36.4617 54.0716 36.3644 54.3772C36.2672 54.6966 36.1283 55.0716 35.9756 55.5299L34.92 58.4327H38.4339L37.3922 55.5299C37.2256 55.0577 37.0867 54.6688 36.9756 54.3355C36.8783 53.9883 36.7672 53.6549 36.67 53.3077Z" fill="#FF5065"/>
<path d="M50.8504 50.2248C52.3781 50.2248 53.517 50.5165 54.267 51.0998C55.017 51.6832 55.392 52.572 55.392 53.7943V54.0304C55.392 54.3637 55.3504 54.6832 55.267 54.9887C55.1837 55.2943 55.0587 55.572 54.8781 55.8359C54.6976 56.0998 54.4615 56.322 54.1837 56.5165C53.892 56.7109 53.5448 56.8637 53.1143 56.9609C53.5587 57.0304 53.9476 57.1415 54.3087 57.2943C54.6698 57.4609 54.9754 57.6693 55.2393 57.947C55.5031 58.2248 55.6976 58.5443 55.8365 58.9332C55.9754 59.322 56.0448 59.7665 56.0448 60.2804V60.5998C56.0448 61.8082 55.6698 62.7526 54.9198 63.4332C54.1698 64.1137 53.017 64.447 51.4615 64.447H46.9476C46.3087 64.447 45.8643 64.322 45.6143 64.0859C45.3643 63.8498 45.2393 63.4193 45.2393 62.7804V51.8776C45.2393 51.2526 45.3643 50.822 45.6143 50.572C45.8643 50.3359 46.3087 50.2109 46.9476 50.2109H50.8504V50.2248ZM47.7809 56.0026H49.8643C50.4476 56.0026 50.9337 55.9748 51.3087 55.9054C51.6837 55.8498 51.9893 55.7387 52.2115 55.5998C52.4337 55.447 52.5865 55.2665 52.6559 55.0165C52.7393 54.7804 52.7809 54.4748 52.7809 54.0998V53.9193C52.7809 53.2804 52.5448 52.8498 52.0726 52.6554C51.6004 52.4471 50.8226 52.3498 49.7393 52.3498H47.7809V56.0026ZM47.7809 62.3359H50.1004C50.6559 62.3359 51.1559 62.322 51.5726 62.2804C51.9893 62.2387 52.3365 62.1554 52.6143 62.0165C52.892 61.8776 53.0865 61.6693 53.2254 61.4054C53.3643 61.1415 53.4198 60.7804 53.4198 60.3498V60.0859C53.4198 59.7526 53.3643 59.4609 53.267 59.2109C53.1559 58.9609 52.9754 58.7526 52.7115 58.5859C52.4476 58.4193 52.0865 58.3082 51.6281 58.2248C51.1698 58.1415 50.6143 58.0998 49.9337 58.0998H47.7809V62.3359Z" fill="#FF5065"/>
<path d="M64.0308 50.002C64.9475 50.002 65.753 50.0992 66.4336 50.3075C67.1141 50.502 67.6836 50.7658 68.1558 51.0853C68.4614 51.2936 68.628 51.5575 68.6558 51.8631C68.6836 52.1686 68.6003 52.4603 68.4197 52.7242C68.253 52.9742 68.0169 53.1408 67.7391 53.2242C67.4614 53.3075 67.1836 53.252 66.9058 53.0853C66.4753 52.8353 66.0447 52.6547 65.6003 52.5297C65.1558 52.4186 64.6141 52.3631 63.9753 52.3631C62.8641 52.3631 62.0169 52.7242 61.4197 53.4464C60.8225 54.1686 60.5169 55.3908 60.5169 57.1131V57.5297C60.5169 59.2103 60.8086 60.4186 61.378 61.1547C61.9475 61.8908 62.8225 62.2658 64.003 62.2658C64.6697 62.2658 65.253 62.1964 65.753 62.0297C66.253 61.877 66.7391 61.6408 67.1975 61.3353C67.4614 61.1547 67.7392 61.0853 68.0447 61.127C68.3364 61.1686 68.5864 61.3353 68.7808 61.6131C68.9753 61.8908 69.0586 62.1964 69.0169 62.5297C68.9753 62.8631 68.7947 63.1408 68.4753 63.3631C67.9058 63.7797 67.2253 64.0853 66.4614 64.3075C65.6975 64.5158 64.8503 64.627 63.9336 64.627C62.9892 64.627 62.1419 64.4881 61.4058 64.2242C60.6697 63.9603 60.0447 63.5436 59.5308 62.9881C59.0169 62.4325 58.628 61.7103 58.3503 60.8353C58.0725 59.9603 57.9336 58.9186 57.9336 57.7103V56.8908C57.9336 55.6825 58.0725 54.627 58.3503 53.7658C58.628 52.8908 59.0169 52.1825 59.5447 51.6131C60.0586 51.0575 60.7114 50.6408 61.4614 50.377C62.2114 50.1408 63.0725 50.002 64.0308 50.002Z" fill="#FF5065"/>
<path d="M16.6665 27.8223C16.6665 24.3639 19.4582 21.5723 22.9165 21.5723H77.0832C80.5415 21.5723 83.3332 24.3639 83.3332 27.8223V36.1556H16.6665V27.8223Z" fill="#FF5065"/>
<path d="M37.6527 18.0566H34.2083C33.236 18.0566 32.4583 18.8483 32.4583 19.8066V26.8205C32.4583 27.7928 33.2499 28.5705 34.2083 28.5705H37.6527C38.6249 28.5705 39.4027 27.7789 39.4027 26.8205V19.8066C39.4027 18.8344 38.611 18.0566 37.6527 18.0566Z" fill="#FFB3BC"/>
<path d="M65.7917 18.0566H62.2778C61.3056 18.0566 60.5278 18.8483 60.5278 19.8066V26.8205C60.5278 27.7928 61.3195 28.5705 62.2778 28.5705H65.7917C66.7639 28.5705 67.5417 27.7789 67.5417 26.8205V19.8066C67.5417 18.8344 66.75 18.0566 65.7917 18.0566Z" fill="#FFB3BC"/>
<defs>
<filter id="filter0_d_257_27682" x="2.76566e-05" y="2.77734" width="105.556" height="102.042" filterUnits="userSpaceOnUse" color-interpolation-filters="sRGB">
<feFlood flood-opacity="0" result="BackgroundImageFix"/>
<feColorMatrix in="SourceAlpha" type="matrix" values="0 0 0 0 0 0 0 0 0 0 0 0 0 0 0 0 0 0 127 0" result="hardAlpha"/>
<feOffset dx="2.77778" dy="4.16667"/>
<feGaussianBlur stdDeviation="8.33333"/>
<feComposite in2="hardAlpha" operator="out"/>
<feColorMatrix type="matrix" values="0 0 0 0 0 0 0 0 0 0 0 0 0 0 0 0 0 0 0.08 0"/>
<feBlend mode="normal" in2="BackgroundImageFix" result="effect1_dropShadow_257_27682"/>
<feBlend mode="normal" in="SourceGraphic" in2="effect1_dropShadow_257_27682" result="shape"/>
</filter>
</defs>
</svg>
