          <svg width="77" height="77" viewBox="0 0 77 77" fill="none" xmlns="http://www.w3.org/2000/svg">
            <g filter="url(#filter0_d_552_30134)">
              <path d="M60 40.08V18C60 15.79 58.21 14 56 14H44.2C44.05 11.77 42.19 10 39.93 10H32.07C29.8 10 27.94 11.77 27.8 14H16C13.79 14 12 15.79 12 18V40.08C10.8 40.79 10 42.09 10 43.57C10 45.8 11.82 47.62 14.05 47.62H20.02L17.53 56.93C16.99 58.94 18.19 61 20.19 61.54L21.42 61.87C21.74 61.96 22.07 62 22.4 62C24.1 62 25.6 60.85 26.04 59.21L29.15 47.62H31.62V58.23C31.62 60.31 33.31 61.99 35.39 61.99H36.66C38.74 61.99 40.43 60.3 40.43 58.23V47.62H43.19L46.3 59.21C46.74 60.85 48.24 62 49.94 62C50.27 62 50.6 61.96 50.92 61.87L52.15 61.54C53.12 61.28 53.93 60.66 54.44 59.79C54.94 58.92 55.08 57.9 54.82 56.93L52.33 47.62H58C60.23 47.62 62.05 45.8 62.05 43.57C62.05 42.08 61.25 40.78 60.05 40.08H60Z" fill="white"></path>
            </g>
            <path d="M16 16H56C57.1 16 58 16.9 58 18V41.52H14V18C14 16.9 14.9 16 16 16Z" fill="#FFE39E"></path>
            <path d="M18.35 19H53.66C54.4 19 55 19.6 55 20.34V41.51H17V20.35C17 19.61 17.6 19.01 18.34 19.01L18.35 19Z" fill="white"></path>
            <path d="M32.07 12H39.93C41.19 12 42.21 13.02 42.21 14.28V16H29.79V14.28C29.79 13.02 30.81 12 32.07 12Z" fill="#FFC747"></path>
            <path d="M57.95 41.5195H14.05C12.9178 41.5195 12 42.4373 12 43.5695C12 44.7017 12.9178 45.6195 14.05 45.6195H57.95C59.0822 45.6195 60 44.7017 60 43.5695C60 42.4373 59.0822 41.5195 57.95 41.5195Z" fill="#FFE39E"></path>
            <path d="M33.6001 45.6211H38.4001V58.2311C38.4001 59.2011 37.6101 59.9911 36.6401 59.9911H35.3701C34.4001 59.9911 33.6101 59.2011 33.6101 58.2311V45.6211H33.6001Z" fill="#FFE39E"></path>
            <path d="M50.3599 59.9411L51.5899 59.6111C52.5299 59.3611 53.0899 58.3911 52.8399 57.4511L49.6699 45.6211H44.6899L48.1999 58.6911C48.4499 59.6311 49.4199 60.1911 50.3599 59.9411Z" fill="#FFE39E"></path>
            <path d="M21.9302 59.9411L20.7002 59.6111C19.7602 59.3611 19.2002 58.3911 19.4502 57.4511L22.6202 45.6211H27.6002L24.0902 58.6911C23.8402 59.6311 22.8702 60.1911 21.9302 59.9411Z" fill="#FFE39E"></path>
            <path d="M34.9336 29H37.0835C38.3854 29 39.636 29.5626 40.561 30.5616C41.4861 31.5606 42 32.9185 42 34.3346V37.6712C42 38.0204 41.8715 38.3598 41.6403 38.612C41.409 38.8642 41.1006 39 40.7666 39H31.2334C30.9079 39 30.591 38.8545 30.3597 38.612C30.1285 38.3695 30 38.0204 30 37.6712V34.3346C30 32.9185 30.5225 31.5606 31.439 30.5616C32.364 29.5626 33.6146 29 34.9165 29H34.9336Z" fill="#FFC747"></path>
            <path d="M36 28C37.6546 28 39 26.657 39 25C39 23.343 37.6546 22 36 22C34.3454 22 33 23.343 33 25C33 26.657 34.3454 28 36 28Z" fill="#FFC747"></path>
            <defs>
              <filter id="filter0_d_552_30134" x="0" y="1" width="76.0498" height="76" filterUnits="userSpaceOnUse" color-interpolation-filters="sRGB">
                <feFlood flood-opacity="0" result="BackgroundImageFix"></feFlood>
                <feColorMatrix in="SourceAlpha" type="matrix" values="0 0 0 0 0 0 0 0 0 0 0 0 0 0 0 0 0 0 127 0" result="hardAlpha"></feColorMatrix>
                <feOffset dx="2" dy="3"></feOffset>
                <feGaussianBlur stdDeviation="6"></feGaussianBlur>
                <feComposite in2="hardAlpha" operator="out"></feComposite>
                <feColorMatrix type="matrix" values="0 0 0 0 0 0 0 0 0 0 0 0 0 0 0 0 0 0 0.08 0"></feColorMatrix>
                <feBlend mode="normal" in2="BackgroundImageFix" result="effect1_dropShadow_552_30134"></feBlend>
                <feBlend mode="normal" in="SourceGraphic" in2="effect1_dropShadow_552_30134" result="shape"></feBlend>
              </filter>
            </defs>
          </svg>
