<svg width="76" height="77" viewBox="0 0 76 77" fill="none" xmlns="http://www.w3.org/2000/svg">
<g filter="url(#filter0_d_552_33159)">
<path d="M48.52 35.0395C42.84 35.0395 37.98 38.5795 36 43.5595C34.02 38.5795 29.16 35.0395 23.48 35.0395C16.05 35.0395 10 41.0895 10 48.5195C10 54.1095 13.53 59.1795 18.77 61.1395C18.87 61.1795 18.97 61.2095 19.07 61.2495C19.29 61.3295 19.5 61.3995 19.72 61.4595C19.97 61.5295 20.24 61.5995 20.5 61.6595C20.68 61.6995 20.85 61.7295 21.02 61.7695C21.3 61.8195 21.59 61.8695 21.88 61.8995C22.01 61.9095 22.13 61.9295 22.25 61.9395C22.7 61.9795 23.08 61.9995 23.46 61.9995C23.84 61.9995 24.22 61.9795 24.67 61.9395C24.79 61.9295 24.91 61.9195 25.04 61.8995C25.34 61.8595 25.62 61.8195 25.91 61.7695C26.08 61.7395 26.25 61.6995 26.42 61.6695C26.69 61.6095 26.96 61.5395 27.22 61.4595C27.43 61.3995 27.64 61.3295 27.86 61.2495C27.97 61.2095 28.07 61.1695 28.18 61.1295C31.8 59.7795 34.61 56.9395 35.99 53.4595C37.38 56.9295 40.18 59.7795 43.81 61.1295C43.91 61.1695 44.01 61.1995 44.11 61.2395C44.33 61.3195 44.54 61.3895 44.76 61.4495C45.01 61.5195 45.28 61.5895 45.55 61.6495C45.73 61.6895 45.9 61.7195 46.07 61.7595C46.35 61.8095 46.64 61.8595 46.93 61.8895C47.06 61.8995 47.18 61.9195 47.3 61.9295C47.75 61.9695 48.13 61.9895 48.51 61.9895C48.89 61.9895 49.27 61.9695 49.72 61.9295C49.84 61.9195 49.96 61.9095 50.09 61.8895C50.39 61.8495 50.67 61.8095 50.96 61.7595C51.13 61.7295 51.3 61.6895 51.47 61.6595C51.74 61.5995 52.01 61.5295 52.27 61.4495C52.48 61.3895 52.69 61.3195 52.91 61.2395C53.02 61.1995 53.12 61.1595 53.23 61.1195C58.47 59.1595 62 54.0895 62 48.4995C62 41.0695 55.95 35.0195 48.52 35.0195V35.0395Z" fill="white"></path>
<path d="M49.3702 25.84C49.1502 25.04 48.6102 24.34 47.8802 23.93L47.1002 23.49L47.8802 23.05C48.6102 22.64 49.1502 21.94 49.3702 21.14C49.5902 20.33 49.4702 19.45 49.0502 18.72L46.7002 14.74C46.2702 14.02 45.5902 13.5 44.7702 13.29C44.5102 13.22 44.2302 13.19 43.9602 13.19C43.4102 13.19 42.8702 13.33 42.3902 13.6L41.5702 14.06C41.5702 14.06 41.5402 14.04 41.5202 14.03V13.15C41.5202 12.31 41.1802 11.5 40.5802 10.91C39.9802 10.32 39.1902 10 38.3502 10H33.6602C32.8202 10 32.0302 10.32 31.4302 10.91C30.8302 11.5 30.4902 12.31 30.4902 13.15V14.03C30.4902 14.03 30.4502 14.05 30.4302 14.06L29.6102 13.6C29.1302 13.33 28.5902 13.19 28.0402 13.19C27.7702 13.19 27.4902 13.23 27.2302 13.29C26.4102 13.5 25.7302 14.02 25.3002 14.74L22.9602 18.72C22.5302 19.44 22.4102 20.32 22.6402 21.13C22.8602 21.93 23.4002 22.63 24.1302 23.04L24.9102 23.48L24.1302 23.92C23.4002 24.33 22.8602 25.03 22.6402 25.83C22.4202 26.64 22.5402 27.52 22.9602 28.24L25.3002 32.22C25.7302 32.94 26.4102 33.46 27.2302 33.67C27.4902 33.74 27.7702 33.77 28.0402 33.77C28.5902 33.77 29.1302 33.63 29.6102 33.36L30.4502 32.89C30.4502 32.89 30.4702 32.9 30.4802 32.91V33.8C30.4802 34.64 30.8202 35.45 31.4202 36.04C32.0202 36.63 32.8102 36.95 33.6502 36.95H38.3402C39.1802 36.95 39.9702 36.63 40.5702 36.04C41.1702 35.45 41.5102 34.64 41.5102 33.8V32.92C41.5102 32.92 41.5402 32.9 41.5602 32.89L42.4002 33.36C42.8802 33.63 43.4202 33.77 43.9702 33.77C44.2402 33.77 44.5202 33.73 44.7802 33.67C45.6002 33.46 46.2802 32.94 46.7102 32.22L49.0502 28.25C49.4802 27.53 49.6002 26.65 49.3702 25.83V25.84Z" fill="white"></path>
</g>
<path d="M46.8893 25.6705L44.9993 24.6005C45.0493 24.2305 45.0793 23.8605 45.0793 23.4705C45.0793 23.0805 45.0493 22.7205 44.9993 22.3605L46.8793 21.3005C47.1493 21.1505 47.3493 20.9005 47.4293 20.6005C47.5093 20.3105 47.4693 19.9905 47.3093 19.7305L44.9693 15.7505C44.8093 15.4905 44.5593 15.2905 44.2593 15.2205C43.9593 15.1405 43.6393 15.1805 43.3693 15.3305L41.4893 16.3905C40.8893 15.9405 40.2293 15.5505 39.5193 15.2605V13.1305C39.5193 12.8305 39.3993 12.5305 39.1793 12.3205C38.9593 12.1005 38.6593 11.9805 38.3493 11.9805H33.6593C33.3493 11.9805 33.0493 12.1005 32.8293 12.3205C32.6093 12.5405 32.4893 12.8305 32.4893 13.1305V15.2605C31.7793 15.5505 31.1193 15.9405 30.5093 16.3905L28.6293 15.3205C28.3593 15.1705 28.0393 15.1305 27.7393 15.2105C27.4393 15.2905 27.1793 15.4805 27.0293 15.7405L24.6893 19.7205C24.5293 19.9805 24.4893 20.3005 24.5693 20.5905C24.6493 20.8805 24.8493 21.1305 25.1193 21.2905L27.0093 22.3605C26.9593 22.7205 26.9293 23.0905 26.9293 23.4705C26.9293 23.8505 26.9593 24.2305 27.0093 24.6005L25.1193 25.6705C24.8493 25.8205 24.6493 26.0705 24.5693 26.3705C24.4893 26.6605 24.5293 26.9805 24.6893 27.2405L27.0293 31.2205C27.1893 31.4805 27.4393 31.6805 27.7393 31.7505C28.0393 31.8305 28.3593 31.7905 28.6293 31.6405L30.5293 30.5705C31.1293 31.0105 31.7793 31.4005 32.4793 31.6905V33.8205C32.4793 34.1205 32.5993 34.4205 32.8193 34.6305C33.0393 34.8505 33.3393 34.9705 33.6493 34.9705H38.3393C38.6493 34.9705 38.9493 34.8505 39.1693 34.6305C39.3893 34.4105 39.5093 34.1205 39.5093 33.8205V31.7005C40.2193 31.4105 40.8793 31.0305 41.4793 30.5805L43.3793 31.6505C43.6493 31.8005 43.9693 31.8405 44.2693 31.7605C44.5693 31.6805 44.8293 31.4905 44.9793 31.2305L47.3193 27.2505C47.4793 26.9905 47.5193 26.6705 47.4393 26.3805C47.3593 26.0905 47.1593 25.8405 46.8893 25.6805V25.6705ZM35.9993 26.3505C34.3793 26.3505 33.0693 25.0705 33.0693 23.4805C33.0693 21.8905 34.3793 20.6105 35.9993 20.6105C37.6193 20.6105 38.9293 21.8905 38.9293 23.4805C38.9293 25.0705 37.6193 26.3505 35.9993 26.3505Z" fill="#FFD368"></path>
<path d="M23.48 59.9991C29.8202 59.9991 34.96 54.8593 34.96 48.5191C34.96 42.1788 29.8202 37.0391 23.48 37.0391C17.1398 37.0391 12 42.1788 12 48.5191C12 54.8593 17.1398 59.9991 23.48 59.9991Z" fill="#FFB3BC"></path>
<path d="M27.6598 51.0894C26.5498 49.9794 25.0498 49.3594 23.4798 49.3594C21.9098 49.3594 20.4098 49.9794 19.2998 51.0894C18.1898 52.1994 17.5698 53.6994 17.5698 55.2694V58.3394C19.2998 59.3794 21.3198 59.9894 23.4798 59.9894C25.6398 59.9894 27.6698 59.3794 29.3898 58.3394V55.2694C29.3898 53.6994 28.7698 52.1994 27.6598 51.0894Z" fill="#FF5065"></path>
<path d="M23.4798 41.0977C21.4398 41.0977 19.7798 42.7477 19.7798 44.7977C19.7798 46.8477 21.4298 48.4977 23.4798 48.4977C25.5298 48.4977 27.1798 46.8477 27.1798 44.7977C27.1798 42.7477 25.5298 41.0977 23.4798 41.0977Z" fill="#FF5065"></path>
<path d="M48.5191 59.9991C54.8593 59.9991 59.9991 54.8593 59.9991 48.5191C59.9991 42.1788 54.8593 37.0391 48.5191 37.0391C42.1788 37.0391 37.0391 42.1788 37.0391 48.5191C37.0391 54.8593 42.1788 59.9991 48.5191 59.9991Z" fill="#9EEAFF"></path>
<path d="M52.6989 51.0894C51.5889 49.9794 50.0889 49.3594 48.5189 49.3594C46.9489 49.3594 45.4489 49.9794 44.3389 51.0894C43.2289 52.1994 42.6089 53.6994 42.6089 55.2694V58.3394C44.3389 59.3794 46.3589 59.9894 48.5189 59.9894C50.6789 59.9894 52.7089 59.3794 54.4289 58.3394V55.2694C54.4289 53.6994 53.8089 52.1994 52.6989 51.0894Z" fill="#1ACEFF"></path>
<path d="M48.5188 41.0977C46.4788 41.0977 44.8188 42.7477 44.8188 44.7977C44.8188 46.8477 46.4688 48.4977 48.5188 48.4977C50.5688 48.4977 52.2188 46.8477 52.2188 44.7977C52.2188 42.7477 50.5688 41.0977 48.5188 41.0977Z" fill="#1ACEFF"></path>
<defs>
<filter id="filter0_d_552_33159" x="0" y="1" width="76" height="76" filterUnits="userSpaceOnUse" color-interpolation-filters="sRGB">
<feFlood flood-opacity="0" result="BackgroundImageFix"></feFlood>
<feColorMatrix in="SourceAlpha" type="matrix" values="0 0 0 0 0 0 0 0 0 0 0 0 0 0 0 0 0 0 127 0" result="hardAlpha"></feColorMatrix>
<feOffset dx="2" dy="3"></feOffset>
<feGaussianBlur stdDeviation="6"></feGaussianBlur>
<feComposite in2="hardAlpha" operator="out"></feComposite>
<feColorMatrix type="matrix" values="0 0 0 0 0 0 0 0 0 0 0 0 0 0 0 0 0 0 0.08 0"></feColorMatrix>
<feBlend mode="normal" in2="BackgroundImageFix" result="effect1_dropShadow_552_33159"></feBlend>
<feBlend mode="normal" in="SourceGraphic" in2="effect1_dropShadow_552_33159" result="shape"></feBlend>
</filter>
</defs>
</svg>