<svg width="77" height="77" viewBox="0 0 77 77" fill="none" xmlns="http://www.w3.org/2000/svg">
<g filter="url(#filter0_d_385_14697)">
<path d="M60.61 25.87L57.36 22.62C56.81 22.07 56.08 21.77 55.3 21.77C54.65 21.77 54.03 21.98 53.49 22.36C52.9 22.79 52.2 23.01 51.46 23.01C50.53 23.01 49.66 22.65 49.01 21.99C47.8 20.78 47.65 18.89 48.65 17.51C49.53 16.3 49.42 14.67 48.39 13.64L45.14 10.39C44.25 9.5 43.06 9 41.79 9C40.52 9 39.34 9.49 38.44 10.39L11.39 37.47C10.5 38.36 10 39.55 10 40.82C10 42.09 10.49 43.27 11.39 44.17L14.64 47.42C15.19 47.97 15.92 48.27 16.7 48.27C17.35 48.27 17.97 48.06 18.51 47.68C19.1 47.25 19.8 47.03 20.54 47.03C21.47 47.03 22.34 47.39 22.99 48.05C24.2 49.26 24.35 51.15 23.35 52.53C22.47 53.74 22.58 55.37 23.61 56.4L26.86 59.65C27.75 60.54 28.94 61.04 30.21 61.04C31.48 61.04 32.66 60.55 33.56 59.65L60.63 32.58C62.48 30.73 62.48 27.73 60.63 25.89L60.61 25.87Z" fill="white"/>
</g>
<path d="M47.6025 23.4181C45.6725 21.4881 45.4925 18.4881 47.0325 16.3481C47.3225 15.9481 47.3325 15.4181 46.9825 15.0681L43.7325 11.8181C42.6625 10.7481 40.9325 10.7481 39.8625 11.8181L12.8025 38.8881C11.7325 39.9581 11.7325 41.6881 12.8025 42.7581L16.0525 46.0081C16.4025 46.3581 16.9325 46.3481 17.3325 46.0581C19.4725 44.5081 22.4725 44.6981 24.4025 46.6281C26.3325 48.5581 26.5125 51.5581 24.9725 53.6981C24.6825 54.0981 24.6725 54.6281 25.0225 54.9781L28.2725 58.2281C29.3425 59.2981 31.0725 59.2981 32.1425 58.2281L59.2125 31.1581C60.2825 30.0881 60.2825 28.3581 59.2125 27.2881L55.9625 24.0381C55.6125 23.6881 55.0825 23.6981 54.6825 23.9881C52.5425 25.5381 49.5425 25.3481 47.6125 23.4181H47.6025Z" fill="#FFC747"/>
<path d="M33.2008 31.2063L35.4508 32.0763C35.7108 32.1763 36.0108 32.1263 36.2208 31.9463L38.1108 30.3863C38.4308 30.1163 38.9008 30.1463 39.1708 30.4663C39.3008 30.6163 39.3708 30.8163 39.3508 31.0163L39.1808 33.4463C39.1608 33.7263 39.2908 33.9863 39.5308 34.1363L41.5608 35.4163C41.9208 35.6463 42.0108 36.1263 41.7808 36.4863C41.6708 36.6463 41.5108 36.7663 41.3308 36.8063L38.9708 37.4363C38.7008 37.5063 38.4908 37.7163 38.4108 37.9963L37.7808 40.3563C37.6808 40.7663 37.2608 41.0163 36.8408 40.9163C36.6508 40.8663 36.4908 40.7563 36.3908 40.5963L35.1108 38.5663C34.9608 38.3363 34.7008 38.1963 34.4208 38.2163L31.9908 38.3863C31.5708 38.4163 31.2108 38.1063 31.1808 37.6863C31.1708 37.4863 31.2308 37.2863 31.3608 37.1363L32.9208 35.2463C33.1008 35.0363 33.1508 34.7363 33.0508 34.4763L32.1808 32.2263C32.0308 31.8263 32.2408 31.3763 32.6408 31.2263C32.8208 31.1663 33.0108 31.1663 33.1808 31.2263L33.2008 31.2063Z" fill="white"/>
<defs>
<filter id="filter0_d_385_14697" x="0" y="0" width="76.0156" height="76.0391" filterUnits="userSpaceOnUse" color-interpolation-filters="sRGB">
<feFlood flood-opacity="0" result="BackgroundImageFix"/>
<feColorMatrix in="SourceAlpha" type="matrix" values="0 0 0 0 0 0 0 0 0 0 0 0 0 0 0 0 0 0 127 0" result="hardAlpha"/>
<feOffset dx="2" dy="3"/>
<feGaussianBlur stdDeviation="6"/>
<feComposite in2="hardAlpha" operator="out"/>
<feColorMatrix type="matrix" values="0 0 0 0 0 0 0 0 0 0 0 0 0 0 0 0 0 0 0.08 0"/>
<feBlend mode="normal" in2="BackgroundImageFix" result="effect1_dropShadow_385_14697"/>
<feBlend mode="normal" in="SourceGraphic" in2="effect1_dropShadow_385_14697" result="shape"/>
</filter>
</defs>
</svg>
