<svg width="116" height="103" viewBox="0 0 116 103" fill="none" xmlns="http://www.w3.org/2000/svg">
  <mask id="path-1-outside-1_709_48512" maskUnits="userSpaceOnUse" x="-1.03545" y="-3.24099" width="120.018" height="107.039" fill="black">
  <rect fill="white" x="-1.03545" y="-3.24099" width="120.018" height="107.039"/>
  <path d="M101.585 93.8014C101.558 93.7133 101.519 93.6293 101.469 93.5519L101.358 93.3801C101.247 92.8187 101.019 92.4478 100.818 92.1696C100.803 92.0253 100.77 91.8728 100.72 91.7097C100.685 91.5935 100.629 91.4854 100.554 91.3898L100.307 91.0749C100.301 90.8161 100.22 90.5821 100.17 90.4402C100.135 90.3389 100.083 90.2432 100.016 90.1586C99.9244 90.0399 99.8286 89.948 99.7333 89.8774C99.7472 89.6791 99.7019 89.4747 99.5904 89.2923C99.5764 89.2698 99.5592 89.2414 99.5385 89.2092C99.4519 89.0651 99.3521 88.8648 99.2542 88.6711C99.0885 88.3409 98.9376 88.0407 98.7591 87.8011C98.6762 87.5161 98.5473 87.223 98.4212 86.9378C98.3919 86.8703 98.3555 86.7889 98.3219 86.7101C98.3591 86.5233 98.3451 86.3149 98.2518 86.0956C98.1845 85.938 98.078 85.8051 97.9471 85.7028C97.8708 85.5964 97.7679 85.4431 97.6658 85.2793C97.6593 85.1303 97.6257 84.9617 97.556 84.7699C97.4997 84.6163 97.421 84.4334 97.3378 84.2402C97.2786 84.103 97.1867 83.8872 97.1221 83.7205C97.185 83.3936 97.08 83.0487 96.8281 82.8121C96.6431 82.639 96.2766 81.854 96.0332 81.3358C95.8566 80.9592 95.6773 80.5748 95.487 80.216C95.47 80.157 95.4483 80.1003 95.4248 80.0476C95.3026 79.7345 95.2589 79.5568 95.2094 79.3526C95.1787 79.2268 95.1436 79.0844 95.0924 78.9137C95.0106 78.6468 94.8239 78.4354 94.5872 78.3166C94.5615 78.2825 94.5318 78.2413 94.5006 78.1967C94.5169 78.1584 94.5304 78.1175 94.5419 78.0762C94.6579 77.6699 94.5033 77.235 94.1562 76.9931C94.1468 76.9862 94.1373 76.9803 94.1268 76.9742C94.0777 76.899 94.0203 76.8055 93.9791 76.7391C93.8882 76.5899 93.7846 76.4227 93.6612 76.2721C93.6567 76.2555 93.6531 76.2401 93.6503 76.2258C93.6436 76.1982 93.6379 76.1761 93.633 76.1562C93.6354 76.1366 93.6388 76.1055 93.6442 76.0568C93.6796 75.7662 93.5831 75.4746 93.383 75.2619C93.3278 75.2035 93.266 75.1525 93.1997 75.1091C93.1314 74.9513 93.0379 74.7511 92.8905 74.5444C92.8873 74.527 92.8851 74.515 92.8837 74.5052C92.8853 74.496 92.886 74.4866 92.8866 74.4772C93.0045 74.2276 93.0158 73.9296 92.8968 73.6583C92.7248 73.2678 92.5403 72.9004 92.2165 72.6881C92.2245 72.5828 92.2208 72.4723 92.2031 72.3572C92.1858 72.2454 92.1488 72.1374 92.0957 72.0372C91.8989 71.674 91.6939 71.3749 91.5134 71.1107C91.4176 70.9713 91.3295 70.8417 91.2537 70.7206C91.2478 70.5262 91.1848 70.3324 91.0621 70.166C90.8849 69.9246 90.6587 69.4347 90.4413 68.9602C90.2657 68.5785 90.086 68.1898 89.8915 67.8313C89.8962 67.6726 89.8653 67.4887 89.7766 67.2787C89.7365 67.1829 89.6713 67.0372 89.5669 66.8086C89.5136 66.6915 89.4387 66.5895 89.35 66.5053C89.3588 66.4255 89.3632 66.3407 89.3635 66.2489C89.3631 66.1252 89.3393 66.0027 89.293 65.8879C88.9958 65.1415 88.7848 64.7388 88.5808 64.3501C88.3918 63.9904 88.2142 63.6496 87.9559 62.9998C87.9107 62.8852 87.8446 62.7806 87.7601 62.6907C87.6137 62.5328 87.4643 62.4336 87.3217 62.3736C87.091 61.8967 87.073 61.6633 87.0536 61.4201C87.014 60.9198 86.9376 60.4427 86.4047 59.6547C86.3762 59.6127 86.3443 59.5723 86.3096 59.5355C86.2064 59.4254 86.1101 59.343 86.0331 59.2766C86.0212 59.266 86.0091 59.2565 85.9973 59.2459C86.0403 59.0497 86.0245 58.8399 85.9415 58.6457C85.7097 58.1031 85.5274 57.8132 85.3591 57.5997C85.3537 57.5703 85.3465 57.5394 85.3393 57.5086C85.19 56.8876 85.0206 56.5905 84.7779 56.3375C84.7935 56.1649 84.7634 55.9885 84.6872 55.8272C84.3551 55.1232 83.9918 54.4159 83.6063 53.6667C83.3217 53.1126 83.0299 52.5447 82.7475 51.972C82.7579 51.8228 82.743 51.6501 82.6896 51.4496C82.6716 51.3841 82.6481 51.3197 82.6165 51.2592C81.6756 49.3949 80.8053 47.1363 80.064 45.1645C80.0308 45.0773 79.986 44.9955 79.9307 44.9203L79.682 44.587C79.6747 44.5086 79.658 44.4296 79.6314 44.3531C79.5689 44.1741 79.4792 43.9164 79.3095 43.7048C79.2877 43.6366 79.2593 43.5703 79.2219 43.5067C78.493 42.249 77.5945 40.5041 77.1155 39.2546C77.125 39.1168 77.1065 38.9762 77.0556 38.8395C76.8046 38.1667 76.5267 37.8135 76.3033 37.5291C76.2024 37.4004 76.1257 37.3024 76.0601 37.1831C76.0552 37.0734 76.0312 36.9635 75.9876 36.8576C75.634 35.9936 75.238 35.1125 74.8547 34.2612C74.1773 32.7538 73.5368 31.3301 73.2059 30.1817C73.1534 30.0003 73.0509 29.8386 72.912 29.7158C72.8225 29.5648 72.6634 29.1787 72.5651 28.9396C72.3247 28.3564 72.1043 27.8211 71.7819 27.4812C71.6979 27.1907 71.6503 26.9995 71.6071 26.825C71.4945 26.3732 71.4138 26.0463 70.9301 24.7643C70.9264 24.7552 70.9236 24.7473 70.9199 24.7382C70.7708 24.3739 70.5805 24.1291 70.4166 23.9322C70.4199 23.7997 70.3974 23.6637 70.3443 23.5339L70.2749 23.3643C70.206 23.198 70.0948 23.0558 69.953 22.9495L69.7573 22.6816L69.7605 22.4719C69.7627 22.3033 69.7224 22.1367 69.6419 21.9884L69.3542 21.4571C69.2797 21.2865 69.1959 21.145 69.0959 21.0292C69.0573 20.9843 69.015 20.9431 68.9697 20.9065C68.8549 20.5747 68.7735 20.2815 68.7435 20.1347C68.7533 19.959 68.7172 19.7804 68.63 19.6161L68.0862 18.5907C68.0806 18.4186 68.0297 18.2459 67.9294 18.0899C67.9227 18.0802 67.9161 18.0696 67.9104 18.0601C67.8791 18.0102 67.8462 17.9569 67.8151 17.906C67.8205 17.4918 67.5867 17.1285 67.3885 16.821C67.3328 16.7351 67.2667 16.6612 67.1911 16.5982C66.9952 16.026 66.6889 15.3435 66.4586 14.8582C66.4665 14.7117 66.4421 14.5627 66.3815 14.4211C66.0745 13.6941 65.7278 12.9464 65.4302 12.3098L63.8748 8.92913C63.733 8.61894 63.4434 8.40417 63.1047 8.36029C62.7672 8.31556 62.4301 8.44835 62.2137 8.71123L61.1052 10.0558C61.0016 10.1822 60.934 10.3256 60.9013 10.4751C60.8794 10.4976 60.8593 10.5216 60.8401 10.5467C60.7241 10.6118 60.6186 10.7009 60.5332 10.8137L60.3832 11.0112C60.3832 11.0112 60.3789 11.0178 60.3763 11.0205L60.354 11.0514C60.1339 11.1436 59.9496 11.3139 59.8439 11.5361C59.7828 11.613 59.6206 11.7724 59.5104 11.8818C59.2241 12.164 58.9097 12.473 58.6913 12.8253C58.6551 12.857 58.6214 12.8922 58.5904 12.9301C57.8787 13.7858 57.403 14.3927 56.9426 14.9791C56.5829 15.4375 56.2437 15.8699 55.8062 16.4043C55.6823 16.5557 55.6098 16.733 55.5891 16.9163C55.5699 16.9478 55.5482 16.9809 55.5305 17.0095C55.4383 17.1549 55.3276 17.3276 55.2305 17.5185C55.0189 17.7485 54.7959 17.9827 54.5624 18.2288C53.9747 18.8477 53.3092 19.549 52.6727 20.3314C52.6566 20.3507 52.6414 20.3713 52.6272 20.392C52.4573 20.6367 52.2931 20.8728 52.2149 21.1305C52.2073 21.1376 52.1987 21.1445 52.191 21.1527C52.0088 21.2093 51.8417 21.3182 51.7133 21.4772L51.6661 21.5355C50.6327 22.8193 50.3204 23.2068 49.0551 24.9314C49.0359 24.9566 49.0186 24.9831 49.0033 25.01C48.9225 25.0728 48.8499 25.1488 48.7897 25.2385C48.1812 26.1378 47.2755 27.0692 46.4005 27.9701C45.4352 28.9639 44.5203 29.9053 43.9511 30.839L43.1854 31.9409C43.0455 31.9975 42.896 32.0905 42.739 32.2319C42.6739 32.2901 42.6177 32.3573 42.5698 32.4312C41.9727 33.3611 41.4056 34.0078 40.8557 34.6344C40.4128 35.1394 39.9566 35.66 39.5061 36.304C38.7361 36.8548 37.9106 37.9007 37.0391 39.003C36.3564 39.8681 35.6496 40.7617 35.0802 41.2591C34.9341 41.3865 34.8336 41.5494 34.7823 41.7263C34.7011 41.7859 34.6082 41.8635 34.5099 41.9655C34.3507 42.1318 34.257 42.3455 34.2378 42.5682C32.6632 44.5435 30.8896 46.5208 29.1687 48.4397C28.3087 49.3992 27.4188 50.3905 26.5644 51.3721C26.0255 51.9964 25.8859 52.3869 25.7813 52.7645C25.7753 52.7867 25.7694 52.8079 25.7622 52.8309C25.5252 52.881 25.3077 53.018 25.1597 53.2285C24.2662 54.4979 23.2214 55.7449 22.2113 56.9505C21.449 57.8597 20.6662 58.7948 19.9405 59.7474C19.9063 59.7678 19.8717 59.7902 19.8388 59.815C19.5219 60.0549 18.6715 60.9897 18.2594 61.7515C18.1818 61.7906 18.1045 61.8393 18.0272 61.9007C18.0077 61.9152 17.9889 61.9319 17.9713 61.9478C17.6539 62.2383 17.4043 62.6179 17.1838 62.9519C17.1636 62.9821 17.1421 63.0142 17.119 63.0492C16.9793 63.1228 16.8559 63.2299 16.7615 63.3696C16.7386 63.4036 16.7114 63.4442 16.6809 63.4917C16.5986 63.6049 16.4394 63.8008 16.3368 63.9274C16.1991 64.0975 16.0695 64.2574 15.9666 64.3977C15.8581 64.5454 15.7807 64.6849 15.7294 64.8143C15.4312 65.1514 15.169 65.4886 14.9311 65.7952C14.7291 66.0543 14.5352 66.3032 14.3435 66.5219C14.2586 66.566 14.1789 66.6227 14.1085 66.6927L13.5715 67.2223C13.3965 67.3942 13.3001 67.617 13.2811 67.845C13.0895 68.0626 12.9061 68.2763 12.7708 68.4986C12.5182 68.679 12.2381 68.9676 11.8779 69.4048C11.8281 69.4657 11.7769 69.5285 11.7277 69.5917C11.6322 69.6424 11.5435 69.7081 11.4664 69.7917C11.2512 70.0241 10.9837 70.3308 10.713 70.656L10.6415 70.7384C10.6218 70.7603 10.6048 70.7847 10.588 70.8082C10.1709 71.3166 9.84615 71.7326 9.69363 72.1124C9.15969 72.6065 8.76411 73.1727 8.43511 73.6428C8.17666 74.0123 7.85459 74.4731 7.66949 74.5524C7.50722 74.622 7.36696 74.7346 7.26268 74.8768C6.69998 75.6479 6.13028 76.4167 5.57228 77.1612L5.31166 77.5072L4.6863 78.3222C4.45022 78.3672 4.23813 78.4977 4.09028 78.6892L3.99594 78.811C3.91822 78.9103 3.8431 79.0069 3.77502 79.0994L3.04056 80.1139C2.84735 80.3829 2.80165 80.7319 2.91914 81.042C3.03662 81.3521 3.30228 81.5828 3.62654 81.6547C4.30012 81.8063 4.90482 81.9351 5.4677 82.0554L6.28216 82.2286L6.29958 82.2317L6.80521 82.3293C7.18075 82.404 7.51917 82.4795 7.84589 82.5614C7.98415 82.7358 8.18217 82.8647 8.41532 82.9142C8.85208 83.0071 9.3215 83.1184 9.83944 83.2541C10.1014 83.3256 10.3639 83.3888 10.5828 83.4411L11.2934 83.6161C11.8401 83.7505 12.4323 83.8961 13.0379 84.0198C13.1752 84.1042 13.329 84.1482 13.4847 84.1757C13.5656 84.19 13.6465 84.1989 13.7262 84.2077C13.7902 84.2222 13.8559 84.239 13.9204 84.2567C14.3312 84.3651 14.8411 84.4983 15.2926 84.1364C15.3124 84.1198 15.3322 84.1032 15.351 84.0865C15.4557 84.1514 15.5659 84.2036 15.6732 84.2479C15.8054 84.5944 16.1256 84.8452 16.5072 84.8797C16.5675 84.8851 16.6321 84.8901 16.6982 84.8923C16.7976 84.9457 16.9079 84.9853 17.0244 85.0016C17.6069 85.0884 17.9017 85.0939 18.1583 85.0822C18.3409 85.2327 18.5763 85.3175 18.8274 85.3068L18.8605 85.3053C19.2562 85.2895 19.6148 85.2745 20.0649 85.3455C20.185 85.449 20.332 85.5256 20.4979 85.5612C20.5123 85.5638 20.5254 85.5671 20.5387 85.5695C21.2583 85.7175 21.8917 85.7616 22.5053 85.8043C22.6514 85.8142 22.7975 85.8241 22.9464 85.8366C23.431 85.8735 23.9447 85.9197 24.5148 86.035C24.7549 86.3087 25.1103 86.4136 25.2808 86.4648C25.2968 86.4697 25.317 86.4754 25.3369 86.4821C25.481 86.6416 25.6766 86.7543 25.8989 86.7935C25.9245 86.798 25.9501 86.8025 25.9773 86.8041L26.2887 86.8348C26.5223 86.858 26.755 86.88 26.9891 86.9002C27.1952 86.9175 27.3937 86.8701 27.5639 86.7734C27.6277 86.7772 27.6894 86.7807 27.75 86.784C27.7782 86.7858 27.8054 86.7874 27.8326 86.7891C27.9649 86.8895 28.1238 86.9587 28.2982 86.9821L29.9288 87.2051C30.0751 87.2257 30.2193 87.2109 30.3532 87.1701C30.3655 87.1723 30.3787 87.1757 30.391 87.1778C30.5313 87.2026 30.6757 87.2164 30.823 87.2255C30.893 87.2421 30.9651 87.258 31.041 87.2713C31.3114 87.319 31.6206 87.3324 31.9182 87.1905C31.9726 87.1874 32.0268 87.1853 32.0829 87.1847C32.1689 87.3678 32.2838 87.4831 32.3109 87.509C32.5837 87.7652 32.9754 87.8437 33.3227 87.7191C33.4757 87.708 33.8555 87.7528 34.1121 87.7833C34.351 87.8117 34.5849 87.8392 34.8114 87.8548C35.0439 88.0458 35.3481 88.1174 35.6365 88.0574C35.7415 88.1266 35.8604 88.1771 35.9879 88.2028C36.2134 88.2478 36.6011 88.3257 36.9611 88.2064C37.4955 88.3207 38.0121 88.3864 38.5169 88.4406C38.5878 88.5059 38.6687 88.5624 38.7582 88.6057L39.2422 88.8378C39.325 88.8778 39.4111 88.9046 39.4982 88.9199C39.5924 88.9366 39.688 88.9397 39.7818 88.9288C39.9029 89.0029 40.0389 89.0523 40.1807 89.0688C40.9998 89.1678 41.8469 89.2158 42.6658 89.2619C42.8425 89.272 43.0192 89.282 43.1948 89.2929C44.1648 89.3509 45.1056 89.4186 45.9524 89.588C46.1449 89.6282 46.3368 89.6061 46.5081 89.5391C46.6799 89.6075 46.8717 89.6814 47.0805 89.7436C47.1297 89.7998 47.1852 89.8508 47.248 89.8956C47.3999 90.0048 47.576 90.0665 47.7554 90.0791C48.7237 90.2784 49.7058 90.3216 50.9354 90.3747C51.1566 90.3841 51.3809 90.3941 51.6136 90.4045C51.6775 90.4432 51.7478 90.4757 51.8206 90.5002C52.326 90.6653 52.9774 90.7749 53.6071 90.8817C53.9938 90.9467 54.3599 91.0092 54.6481 91.0758C54.834 91.1181 55.027 91.1078 55.2061 91.0443C55.2279 91.0407 55.2635 91.0365 55.2883 91.0335C55.338 91.0274 55.4135 91.0185 55.5022 91.0004C56.725 91.4695 57.929 91.5181 58.8426 91.5545L58.9999 91.5612C59.517 91.5816 60.0047 91.601 60.4618 91.6626C60.6153 91.6844 60.7608 91.71 60.897 91.7404C61.0399 91.9663 61.2823 92.1432 61.6311 92.2015C61.6547 92.2057 61.6784 92.2088 61.7025 92.2099L63.5926 92.3752C63.7621 92.3903 63.9289 92.3606 64.079 92.2941C64.1653 92.3621 64.2599 92.4242 64.3693 92.4752C64.4474 92.5111 64.5294 92.5372 64.6124 92.5518C64.8562 92.5948 65.1091 92.5444 65.3214 92.4065C65.4646 92.3852 65.5921 92.3391 65.7061 92.2736C65.8348 92.3407 65.9801 92.379 66.1302 92.3843C66.1974 92.3866 66.2629 92.3866 66.3274 92.3863C66.4802 92.5559 66.6883 92.6697 66.9168 92.7036C67.2029 92.7467 67.4745 92.7396 67.7266 92.7175C68.2746 93.0782 68.5591 93.1601 68.9463 93.2463C69.0216 93.2628 69.1007 93.2809 69.1905 93.3052L69.8231 93.5213C69.8729 93.5386 69.9223 93.5515 69.9725 93.5604C70.0104 93.567 70.0478 93.5705 70.0854 93.5729L70.3893 93.6645C70.7857 93.783 71.2024 93.642 71.4481 93.3326C71.5312 93.3409 71.6258 93.3554 71.7356 93.3737C71.7878 93.3829 71.8401 93.3922 71.893 93.4036C71.9962 93.4229 72.1057 93.4432 72.2187 93.461C72.2668 93.6195 72.3539 93.7669 72.4815 93.8876C72.6271 94.0263 72.8052 94.1126 72.9916 94.1455C73.0521 94.1562 73.1136 94.1607 73.175 94.1599C73.4121 94.4024 73.7651 94.5153 74.1149 94.4302C74.1484 94.4319 74.2521 94.4671 74.3288 94.4933C74.599 94.5842 74.9729 94.7103 75.4816 94.6765C75.649 94.8591 75.8809 94.9761 76.1362 94.9957C76.5728 95.0294 76.909 94.9556 77.1445 94.7764C77.3091 94.8255 77.4843 94.8859 77.6665 94.9487C77.7463 94.9754 77.8259 95.0032 77.9047 95.0298C78.7439 95.314 79.65 95.5847 80.7041 95.5128C81.1839 95.5415 81.5616 95.532 81.8859 95.5078C81.9974 95.7683 82.2196 95.9755 82.503 96.0635C82.555 96.08 82.6798 96.139 82.7792 96.1861C83.054 96.3169 83.4145 96.4893 83.8324 96.563C83.9031 96.5755 83.9754 96.585 84.0492 96.5917C84.2553 96.609 84.4582 96.5603 84.6315 96.4578C84.7407 96.5636 84.876 96.6467 85.0314 96.6941C85.1617 96.734 85.2739 96.7622 85.3764 96.7803C85.4662 96.8278 85.5625 96.8628 85.6649 96.8808C85.6916 96.8855 85.7184 96.8892 85.7454 96.8918C85.9147 96.908 86.0803 96.9034 86.2469 96.881C86.4466 96.893 86.6438 96.9003 86.8388 96.903C86.9911 97.0576 87.1945 97.1621 87.4228 97.1908L88.0701 97.2701C88.1503 97.2821 88.2257 97.2922 88.2969 97.3016C88.4138 97.4595 88.5766 97.5844 88.775 97.651L88.9476 97.7089C88.9955 97.7248 89.0439 97.7375 89.0931 97.7462C89.2078 97.7664 89.3241 97.7658 89.4377 97.7446C89.4652 97.7505 89.4937 97.7566 89.5234 97.7619C89.6125 97.7776 89.7129 97.789 89.821 97.7869C89.927 97.851 90.0427 97.8957 90.1646 97.9172C90.351 97.9501 90.55 97.9302 90.7356 97.8478C90.8594 97.7925 90.9027 97.7864 91.0187 97.7699C91.1324 97.754 91.2477 97.7353 91.3773 97.7011C91.5693 97.8881 91.8284 97.9877 92.0915 97.9813C92.142 97.9944 92.1948 98.0069 92.2407 98.016L92.2478 98.0173C92.399 98.2203 92.6209 98.3577 92.8688 98.4014C92.9692 98.4191 93.0733 98.4216 93.1785 98.4064C93.4634 98.3658 93.693 98.3217 93.9153 98.2648C94.2772 98.1955 94.5746 97.9586 94.7071 97.626C94.8436 97.2835 94.7858 96.8984 94.5567 96.6045C94.3761 96.3645 94.1129 96.222 93.7767 96.1817C93.6766 96.1683 93.5626 96.1619 93.4316 96.1621C93.1078 95.9318 92.7625 95.7631 92.4064 95.6623C92.2386 95.6137 92.0652 95.5789 91.8855 95.5557C91.6765 95.3689 91.3942 95.2747 91.1059 95.3105C90.8456 95.3428 90.6141 95.3917 90.411 95.4594C90.3853 95.4433 90.3597 95.4271 90.3324 95.4139L90.0831 95.2886C89.9562 95.1997 89.8022 95.1324 89.6218 95.0953C89.5596 95.0822 89.4975 95.0755 89.4352 95.0751C89.2679 94.904 89.0376 94.7419 88.7177 94.6274C88.7097 94.625 88.7019 94.6215 88.6928 94.6188C88.4134 94.5262 88.0927 94.476 87.6517 94.4553C87.5187 94.4488 87.384 94.4461 87.2525 94.443C87.0518 94.1076 86.6672 93.9163 86.27 93.9708L86.2224 93.9772C86.1666 93.922 86.1043 93.874 86.0346 93.8322C85.7402 93.6567 85.495 93.5733 85.2799 93.5354C85.1098 93.3681 84.8784 93.2607 84.6221 93.2525L84.616 93.2514C84.5557 93.2038 84.4905 93.1606 84.4183 93.1268C84.0718 92.9653 83.7179 92.8575 83.3348 92.79C83.0273 92.7368 82.7558 92.7312 82.5379 92.7266L82.4358 92.7244C82.3821 92.7234 82.3211 92.7221 82.2633 92.7204C82.1189 92.5988 81.9389 92.5174 81.739 92.4949C81.1228 92.4253 80.6636 92.394 80.2887 92.5856L80.1135 92.3329C79.935 92.0754 79.6439 91.9174 79.3308 91.9076C79.2363 91.9046 79.1433 91.9168 79.0537 91.94C78.9537 91.7883 78.812 91.6629 78.637 91.5835C78.0394 91.3123 77.473 91.0561 76.969 91.4647C76.7667 91.4438 76.5698 91.4883 76.3994 91.5798C76.3429 91.5349 76.2815 91.4935 76.2153 91.4617C75.9681 91.3421 75.6838 91.3311 75.4314 91.427C75.3252 91.4062 75.2223 91.3965 75.1282 91.3915C74.9455 91.1871 74.7041 91.0527 74.5473 90.9659C74.3875 90.8775 74.2097 90.8377 74.0343 90.8437C73.9705 90.7744 73.8949 90.7061 73.8021 90.6391C73.6028 90.4275 73.3159 90.3115 73.0166 90.3316C72.8691 90.3415 72.6605 90.3564 72.4534 90.4171C72.3392 90.322 72.2035 90.2526 72.0558 90.216C71.7582 90.1424 71.3606 90.1568 70.9824 90.5168C70.8785 90.5007 70.7741 90.4822 70.6807 90.4668C70.334 90.4078 69.9495 90.3421 69.5639 90.3069C69.3859 90.2258 69.1898 90.1701 68.9967 90.115C68.6839 90.026 68.2845 89.925 67.8617 89.8187C67.4906 89.7248 67.1114 89.6294 66.792 89.5414C66.779 89.5317 66.7659 89.522 66.7528 89.5123C66.3928 89.2597 65.9231 89.2815 65.5894 89.5332C65.5798 89.5336 65.5702 89.534 65.5596 89.5343C65.4112 89.2979 65.1649 89.1309 64.8716 89.0813L64.806 89.0697C64.5707 88.8708 64.2486 88.7866 63.933 88.863L63.7577 88.9049C63.6573 88.8513 63.5456 88.8137 63.429 88.7984C63.0226 88.7426 62.6231 88.7323 62.236 88.7232C62.0908 88.7198 61.9436 88.716 61.7957 88.71C61.367 88.6915 60.8565 88.6511 60.3175 88.4853C60.0701 88.4089 59.8142 88.4346 59.5958 88.5408C59.5876 88.5393 59.5804 88.5381 59.5724 88.5356C59.232 88.4597 58.9513 88.3564 58.8006 88.2886C58.769 88.2461 58.735 88.2052 58.6982 88.1681C58.4358 87.9011 58.0449 87.8057 57.6888 87.9204C57.6216 87.9423 57.5602 87.9727 57.5004 88.0065C57.3827 87.9256 57.2458 87.8571 57.0885 87.8029C56.9062 87.7401 56.7102 87.732 56.5255 87.7786C56.4951 87.7775 56.4565 87.7749 56.4273 87.7729C56.2499 87.7607 56.0918 87.7645 55.9506 87.7808C55.7625 87.661 55.5385 87.6078 55.311 87.6342C55.2016 87.6434 54.8335 87.6102 54.6131 87.5904C54.3479 87.5668 54.0743 87.5429 53.8449 87.5384C53.7312 87.5363 53.513 87.5337 53.2812 87.5963L52.9654 87.4942C52.6536 87.3938 52.3214 87.4567 52.071 87.6428C51.6985 87.575 51.3174 87.4898 50.9272 87.402C50.3086 87.2623 49.6736 87.1197 49.0282 87.0418C48.8825 86.9517 48.714 86.9009 48.5384 86.8963C48.1926 86.8871 47.7987 86.8504 47.4184 86.815C46.8562 86.7624 46.3178 86.7128 45.8369 86.7326C45.813 86.6407 45.7769 86.552 45.7272 86.4682C45.561 86.1949 45.2721 86.0183 44.9528 85.9958C44.6221 85.9723 44.3526 86.0209 44.1429 86.1382L44.1378 86.1373C43.9248 86.087 43.7548 86.0391 43.5897 85.9931C43.1105 85.859 42.7432 85.7678 42.175 85.7732C41.9091 85.6101 41.6164 85.5448 41.4609 85.51C41.1875 85.4491 40.8852 85.4085 40.6338 85.3969C40.5418 85.3194 40.4351 85.2594 40.3177 85.2186C39.2495 84.8549 38.2653 84.8599 37.3963 84.8641C37.3541 84.864 37.3128 84.8641 37.2704 84.8651C37.0995 84.6543 36.8441 84.5153 36.553 84.5009L35.6703 84.4573C35.5373 84.4507 35.41 84.4716 35.2918 84.513C35.0865 84.4135 34.8524 84.387 34.6286 84.4405C34.5624 84.4563 34.501 84.475 34.4444 84.4967C34.3957 84.4733 34.348 84.4502 34.3033 84.4285C34.0024 84.2836 33.7757 84.1739 33.5478 84.1242C32.7165 83.891 32.2206 83.9958 31.8573 84.0733C31.5939 84.1293 31.4349 84.1625 31.0121 84.0563C30.9969 84.0526 30.9818 84.0488 30.9664 84.0461C30.8871 83.9804 30.7925 83.9183 30.6791 83.8603C30.4793 83.7595 30.2552 83.7306 30.0417 83.7732C29.9088 83.7361 29.766 83.7014 29.6213 83.6653C29.5526 83.6479 29.4695 83.628 29.3908 83.6067C29.2176 83.4452 28.9866 83.3474 28.7361 83.3423C28.554 83.3387 28.4168 83.3441 28.3047 83.3571C28.2399 83.3647 28.1798 83.3763 28.1222 83.3914C27.9247 83.3556 27.7346 83.3252 27.5462 83.2973C27.1371 83.2336 26.7148 83.1665 26.1859 83.0331C25.9251 82.9248 25.6801 82.8943 25.443 82.9391C25.3632 82.9546 25.288 82.9794 25.2168 83.0122C24.9075 82.9809 24.6855 83.0062 24.4583 83.0845C24.357 82.9705 24.2412 82.8899 24.112 82.8322C23.9406 82.5401 23.6233 82.3447 23.2634 82.3435C22.7885 82.3411 22.3584 82.2283 22.0358 82.1292C22.0138 82.1221 21.9928 82.1153 21.971 82.1072C21.8015 81.8946 21.5456 81.7523 21.2528 81.7355C20.9725 81.7199 20.7425 81.6762 20.4769 81.6251L20.4554 81.6213C20.3187 81.594 20.1806 81.5982 20.0507 81.6281C19.9748 81.6211 19.8984 81.6234 19.8213 81.6352C19.7487 81.6456 19.6815 81.6612 19.6201 81.68C19.4983 81.592 19.3527 81.5314 19.1957 81.5048C19.1527 81.4972 19.1052 81.491 19.0538 81.483C18.8799 81.3615 18.6911 81.3176 18.5463 81.3005C17.8538 81.0643 17.4589 81.0454 16.9729 81.2143C16.9482 81.2226 16.9188 81.2333 16.8521 81.2342C16.5076 80.9537 16.0465 80.8429 15.823 80.8225C15.5924 80.8008 15.3726 80.8613 15.1922 80.9795C14.8747 80.9056 14.6451 80.8894 14.4246 80.8822C14.3165 80.8779 14.2694 80.8759 14.2064 80.8617L13.9371 80.7772C13.708 80.7051 13.4716 80.7216 13.2653 80.8077C13.1064 80.7681 12.9057 80.6904 12.7089 80.6145C12.3836 80.4885 11.999 80.3394 11.5598 80.2545C11.4394 80.1108 11.2614 79.9759 11.0024 79.8753C10.9184 79.8425 10.8312 79.8218 10.7408 79.8133C10.312 79.7715 10.1246 79.6962 9.86508 79.5923C9.55329 79.4677 9.16551 79.3127 8.46398 79.2238C8.29555 79.2026 8.12894 79.225 7.97807 79.2839C7.95155 79.2666 7.92365 79.2511 7.89454 79.2364C7.90039 79.2153 7.90436 79.1928 7.90816 79.1712C7.97316 79.0961 8.03853 79.0189 8.10323 78.9395C8.26164 78.8618 8.39528 78.7628 8.50584 78.6809C8.51789 78.6725 8.52892 78.6638 8.54097 78.6554C8.66497 78.5991 8.75999 78.5335 8.81903 78.4921C9.04522 78.3355 9.18733 78.0987 9.23044 77.8422C9.43684 77.5702 9.62643 77.3036 9.7395 77.0278L10.1131 76.724C10.1514 76.6927 10.1881 76.658 10.222 76.6217C10.8038 75.9818 11.0457 75.5206 11.2557 75.114C11.4433 75.0626 11.6165 74.9547 11.7502 74.7956C11.8009 74.7359 11.8504 74.677 11.8984 74.62C12.0306 74.4637 12.1452 74.3286 12.2368 74.2043C12.2996 74.1182 12.3491 74.035 12.3885 73.9554C12.5128 73.8072 12.6298 73.6293 12.7635 73.4279C12.8112 73.355 12.8783 73.2559 12.9449 73.1599C12.9633 73.1452 12.9828 73.1307 13.0014 73.1149C13.053 73.068 13.1003 73.0215 13.1445 72.9743C13.2405 72.8793 13.336 72.7747 13.4632 72.5869C13.5516 72.4567 13.6048 72.3108 13.6236 72.1621C13.7656 72.0456 13.8748 71.8937 13.9343 71.7183C13.9372 71.7135 13.9402 71.7088 13.9431 71.704C13.9869 71.6293 14.0366 71.5451 14.0797 71.4566C14.0865 71.442 14.0931 71.4284 14.0989 71.4135C14.6721 70.8946 15.2261 70.2085 15.7652 69.541C15.8125 69.4828 15.8597 69.4245 15.9059 69.3661C16.4674 69.3088 16.8042 68.8126 16.9226 68.6381C17.0313 68.4766 17.0865 68.2899 17.0899 68.1025C17.1452 68.0647 17.1979 68.0233 17.2459 67.9726L17.4879 67.7206C17.581 67.624 17.6492 67.5124 17.6953 67.3949C18.2079 66.7279 18.696 66.1042 19.0982 65.6026C19.1533 65.5659 19.205 65.5243 19.2526 65.4756C19.8035 64.9211 19.9474 64.5841 20.0627 64.2358C20.6427 64.1036 21.0577 63.5293 21.4345 63.0095C21.5839 62.8035 21.7556 62.5665 21.9231 62.3711C21.999 62.3359 22.0716 62.2895 22.1385 62.2337C22.5601 61.8792 22.8904 61.3903 23.2395 60.872C23.4443 60.5669 23.6557 60.2546 23.8939 59.9523C24.0632 59.8543 24.2 59.7073 24.2862 59.5303C24.5312 59.0274 25.1128 58.2152 25.6601 57.4773C25.6668 57.4753 25.6745 57.4735 25.6812 57.4715C25.8939 57.415 26.0819 57.2897 26.2152 57.1147C26.3457 56.9433 26.4251 56.7809 26.4694 56.6314C26.5186 56.6157 26.5665 56.5957 26.614 56.5723C27.1546 56.298 27.4965 55.7963 27.7715 55.3928C27.7899 55.3664 27.8085 55.3391 27.8258 55.3125C27.9488 55.2497 28.0596 55.1605 28.1491 55.0484C28.6319 54.4428 28.8573 54.0632 29.0568 53.7287C29.2039 53.4811 29.3374 53.2574 29.5795 52.9389C29.5934 52.9318 29.6081 52.926 29.6221 52.9189C30.019 52.7164 30.6073 52.1536 30.8649 51.597C30.8923 51.5374 30.9138 51.4757 30.928 51.4127C31.045 51.3425 31.1483 51.2477 31.2275 51.1339C31.3617 51.0741 31.4843 50.9837 31.5846 50.8641C32.9406 49.2421 33.0774 48.8257 33.1216 48.6888C33.1447 48.6179 33.1593 48.5466 33.1667 48.475C33.3472 48.2058 33.5582 47.9198 33.7982 47.6188C34.2719 47.4425 34.7102 46.9335 35.4025 46.1282C35.7706 45.6999 36.3869 44.9846 36.6138 44.8536C36.7599 44.78 36.8847 44.6711 36.9781 44.5365C37.6443 43.5797 38.4335 42.6985 39.2696 41.7665C39.8665 41.1007 40.4834 40.412 41.1137 39.6348C41.2379 39.4814 41.3089 39.3006 41.3279 39.1149C41.4985 39.0277 41.6719 38.9009 41.8494 38.7273C42.0497 38.5313 42.1488 38.2689 42.1453 38.0073C42.3782 37.9745 42.5947 37.8606 42.7536 37.6784C42.8992 37.5118 42.9874 37.4186 43.0363 37.3691C43.2632 37.2866 43.464 37.1477 43.7299 36.8978C43.9035 36.734 44.008 36.519 44.0338 36.2944C44.1128 36.1942 44.2258 36.0621 44.3731 35.9095C44.5113 35.767 44.5971 35.592 44.6323 35.4102C44.8139 35.2669 45.0092 35.1059 45.2378 34.8515C45.3727 34.7813 45.4934 34.6779 45.5865 34.5454C45.7231 34.3519 45.9702 34.0406 46.2332 33.7109C46.8817 32.8968 47.432 32.1901 47.7874 31.6C47.8837 31.5451 47.9733 31.4743 48.0502 31.3854C48.6799 30.6599 49.2938 29.826 49.8891 29.0194C50.4779 28.2201 51.0416 27.4555 51.5559 26.8807C51.7387 26.8147 51.9033 26.6959 52.0245 26.5292C52.1351 26.3755 52.2169 26.2294 52.2829 26.1122C52.309 26.0661 52.3308 26.0266 52.3516 25.9922C52.4827 25.9319 52.6168 25.8362 52.7473 25.6892C52.7869 25.6444 52.8217 25.5967 52.853 25.5451L52.8587 25.5366C52.9739 25.3446 53.0759 25.1852 53.1649 25.0519C53.267 25.0002 53.3615 24.9313 53.4436 24.8433C54.3681 23.8529 54.8937 23.0351 55.402 22.2428C55.6524 21.8528 55.8914 21.4798 56.1759 21.0885C56.2666 21.0474 56.3627 20.9936 56.4611 20.9265C56.6353 20.8072 56.8396 20.6373 57.0843 20.4058C57.391 20.1155 57.719 19.7709 57.9832 19.489C58.0742 19.4343 58.1571 19.3655 58.2288 19.282C59.259 18.0757 60.0139 17.0058 60.7425 15.9702C61.1271 15.4244 61.5232 14.8615 61.9652 14.2719C62.0481 14.2031 62.1357 14.1256 62.2266 14.0413C62.3904 14.4419 62.5217 14.782 62.6303 15.0821C62.7212 15.3336 62.9027 15.5262 63.1264 15.6354C63.2075 15.8165 63.3043 15.9921 63.3952 16.1538C63.3646 16.7283 63.6294 17.3591 64.0533 18.2916C64.1204 18.4386 64.1857 18.5832 64.2468 18.7218C64.3039 18.8533 64.3875 18.9663 64.4896 19.0582C64.4961 19.2009 64.5322 19.3435 64.6026 19.4774L64.9713 20.172C65.0236 20.271 65.091 20.3557 65.168 20.4284C65.4599 21.1211 65.8004 21.8138 66.1201 22.4627C66.5673 23.3707 67.0743 24.4013 67.1069 24.8158C67.1192 24.9796 67.1728 25.1369 67.2614 25.275C67.3824 25.4633 67.5078 25.6987 67.6392 25.9479C67.6844 26.033 67.7296 26.1181 67.7757 26.2044C67.765 26.3546 67.7889 26.5067 67.8473 26.649C68.3108 27.7817 68.5825 28.4454 69.1151 29.5945C69.1068 29.7431 69.1326 29.8965 69.1948 30.0406C69.4836 30.7094 69.8617 31.0687 70.1377 31.3307C70.2418 31.4293 70.325 31.5084 70.3957 31.5927C70.3408 31.808 70.3607 32.0365 70.4515 32.2405C70.685 32.7613 70.9044 33.3143 71.1166 33.8482C71.4669 34.7307 71.8268 35.637 72.2862 36.506C72.2956 36.608 72.321 36.7097 72.3649 36.8082C72.4265 36.9501 72.5098 37.1549 72.6062 37.3926C73.0625 38.5188 73.3642 39.2638 73.7335 39.6733C73.8766 40.0598 74.1557 40.5917 74.6339 41.4259C74.624 41.6618 74.6982 41.8999 74.8553 42.0934C74.9472 42.2068 75.0257 42.3009 75.0955 42.384C75.3223 42.6553 75.4207 42.7741 75.6113 43.1193C75.616 43.1941 75.6292 43.2692 75.6521 43.343C75.6655 43.3866 75.6793 43.4281 75.6945 43.4677C75.8451 43.8957 75.984 44.1145 76.1337 44.3257C76.1338 44.4567 76.1591 44.589 76.2138 44.7159C76.5266 45.446 76.6513 45.6254 76.9044 45.9214C76.936 45.9576 76.97 45.9984 77.0118 46.0491C77.1843 46.3647 77.3852 46.9441 77.4319 47.1826C77.3951 47.5289 77.5441 47.8763 77.8323 48.0866C77.8428 48.099 77.8548 48.1149 77.8693 48.1343C77.8704 48.2422 77.889 48.3522 77.9274 48.4583C78.0348 48.7592 78.1462 49.026 78.2568 49.2673C78.0675 49.5804 78.0606 49.9848 78.2693 50.311C78.338 50.4182 78.4152 50.5374 78.4985 50.6641C78.8561 51.212 79.3285 51.9353 79.6002 52.5452C79.6003 52.6582 79.6193 52.7725 79.6598 52.8842C79.7388 53.1009 79.8351 53.3038 79.9605 53.515C80.0241 53.6994 80.0797 53.8571 80.1522 54.0389C80.1983 54.3945 80.3874 54.8018 80.6503 55.3657C80.7155 55.505 80.7758 55.636 80.8209 55.7401C80.925 55.9824 81.1209 56.1711 81.3616 56.2675C81.421 56.3139 81.4798 56.3517 81.5377 56.383C81.569 56.5227 81.6016 56.6615 81.633 56.7949C81.6822 57.0011 81.7469 57.2755 81.766 57.4003C81.7527 57.5839 81.7898 57.7689 81.877 57.9332C82.0621 58.2848 82.2531 58.6755 82.456 59.0884C82.8903 59.9741 83.3078 60.823 83.7332 61.4652C83.7308 61.6348 83.7733 61.8071 83.8618 61.9642C83.9868 62.1838 84.1473 62.5131 84.3024 62.832C84.5993 63.4421 84.8171 63.8787 85.0274 64.1893C85.0356 64.3228 85.0682 64.4732 85.1371 64.6396C85.1417 64.7154 85.1557 64.7918 85.1782 64.8676C85.618 66.3151 86.2399 67.3828 86.8416 68.4152C87.4522 69.463 88.0295 70.4541 88.4544 71.8663C88.4717 71.9295 88.4909 71.9942 88.5108 72.0611L88.517 72.0801C88.5603 72.224 88.6338 72.3521 88.7284 72.4564C89.2804 73.8244 89.917 75.1862 90.536 76.5101C91.383 78.3199 92.2581 80.1916 92.8833 82.0193L92.8918 82.043C93.1754 82.807 93.3786 83.1101 93.6476 83.4596C93.6337 83.6822 93.6957 83.9054 93.8277 84.0913L94.4333 84.946C94.7007 85.4241 94.8408 85.9114 95.0037 86.4735C95.2317 87.2647 95.49 88.1606 96.1532 89.1912C96.2188 89.2925 96.3008 89.3788 96.393 89.4489C96.4151 89.4972 96.4382 89.5456 96.4604 89.5939C96.5653 89.8194 96.7116 90.1336 96.7909 90.325C96.794 90.5231 96.8568 90.7179 96.9763 90.8848C96.9881 91.022 97.0295 91.1582 97.1014 91.2839L97.8881 92.669C97.7046 93.206 97.9887 93.8592 98.2289 94.4138C98.2373 94.4322 98.2457 94.4506 98.2551 94.4691C98.4119 94.7778 98.659 95.1857 98.9147 95.5625C99.2705 96.0847 99.7124 96.7351 100.485 96.4742C100.566 96.4473 100.638 96.4072 100.707 96.3634C100.749 96.3486 100.79 96.3315 100.83 96.3121C101.054 96.2767 101.311 96.1762 101.526 95.9237C102.001 95.3672 101.823 94.6071 101.58 93.8101L101.585 93.8014ZM93.1669 97.9744C93.2481 97.9454 93.3264 97.9085 93.4018 97.8648L93.4156 97.882L93.4181 98.1074C93.3424 98.0814 93.2539 98.0384 93.1669 97.9744ZM73.5766 90.9299C73.5004 90.907 73.4024 90.8696 73.3076 90.8318L73.3761 90.6653C73.4498 90.7322 73.5205 90.8228 73.5766 90.9299ZM73.1135 90.5789L73.0973 90.7429C73.0274 90.7137 72.9566 90.6843 72.8835 90.6556C72.9632 90.6168 73.0428 90.5907 73.1145 90.5791L73.1135 90.5789ZM18.694 81.3435C18.694 81.3435 18.6859 81.341 18.682 81.3392C18.682 81.3392 18.69 81.3417 18.694 81.3435ZM16.6755 68.6315L16.5755 68.5642C16.6335 68.4984 16.6912 68.4346 16.7474 68.3738C16.7409 68.4825 16.714 68.5749 16.6755 68.6315Z"/>
  </mask>
  <path d="M101.585 93.8014C101.558 93.7133 101.519 93.6293 101.469 93.5519L101.358 93.3801C101.247 92.8187 101.019 92.4478 100.818 92.1696C100.803 92.0253 100.77 91.8728 100.72 91.7097C100.685 91.5935 100.629 91.4854 100.554 91.3898L100.307 91.0749C100.301 90.8161 100.22 90.5821 100.17 90.4402C100.135 90.3389 100.083 90.2432 100.016 90.1586C99.9244 90.0399 99.8286 89.948 99.7333 89.8774C99.7472 89.6791 99.7019 89.4747 99.5904 89.2923C99.5764 89.2698 99.5592 89.2414 99.5385 89.2092C99.4519 89.0651 99.3521 88.8648 99.2542 88.6711C99.0885 88.3409 98.9376 88.0407 98.7591 87.8011C98.6762 87.5161 98.5473 87.223 98.4212 86.9378C98.3919 86.8703 98.3555 86.7889 98.3219 86.7101C98.3591 86.5233 98.3451 86.3149 98.2518 86.0956C98.1845 85.938 98.078 85.8051 97.9471 85.7028C97.8708 85.5964 97.7679 85.4431 97.6658 85.2793C97.6593 85.1303 97.6257 84.9617 97.556 84.7699C97.4997 84.6163 97.421 84.4334 97.3378 84.2402C97.2786 84.103 97.1867 83.8872 97.1221 83.7205C97.185 83.3936 97.08 83.0487 96.8281 82.8121C96.6431 82.639 96.2766 81.854 96.0332 81.3358C95.8566 80.9592 95.6773 80.5748 95.487 80.216C95.47 80.157 95.4483 80.1003 95.4248 80.0476C95.3026 79.7345 95.2589 79.5568 95.2094 79.3526C95.1787 79.2268 95.1436 79.0844 95.0924 78.9137C95.0106 78.6468 94.8239 78.4354 94.5872 78.3166C94.5615 78.2825 94.5318 78.2413 94.5006 78.1967C94.5169 78.1584 94.5304 78.1175 94.5419 78.0762C94.6579 77.6699 94.5033 77.235 94.1562 76.9931C94.1468 76.9862 94.1373 76.9803 94.1268 76.9742C94.0777 76.899 94.0203 76.8055 93.9791 76.7391C93.8882 76.5899 93.7846 76.4227 93.6612 76.2721C93.6567 76.2555 93.6531 76.2401 93.6503 76.2258C93.6436 76.1982 93.6379 76.1761 93.633 76.1562C93.6354 76.1366 93.6388 76.1055 93.6442 76.0568C93.6796 75.7662 93.5831 75.4746 93.383 75.2619C93.3278 75.2035 93.266 75.1525 93.1997 75.1091C93.1314 74.9513 93.0379 74.7511 92.8905 74.5444C92.8873 74.527 92.8851 74.515 92.8837 74.5052C92.8853 74.496 92.886 74.4866 92.8866 74.4772C93.0045 74.2276 93.0158 73.9296 92.8968 73.6583C92.7248 73.2678 92.5403 72.9004 92.2165 72.6881C92.2245 72.5828 92.2208 72.4723 92.2031 72.3572C92.1858 72.2454 92.1488 72.1374 92.0957 72.0372C91.8989 71.674 91.6939 71.3749 91.5134 71.1107C91.4176 70.9713 91.3295 70.8417 91.2537 70.7206C91.2478 70.5262 91.1848 70.3324 91.0621 70.166C90.8849 69.9246 90.6587 69.4347 90.4413 68.9602C90.2657 68.5785 90.086 68.1898 89.8915 67.8313C89.8962 67.6726 89.8653 67.4887 89.7766 67.2787C89.7365 67.1829 89.6713 67.0372 89.5669 66.8086C89.5136 66.6915 89.4387 66.5895 89.35 66.5053C89.3588 66.4255 89.3632 66.3407 89.3635 66.2489C89.3631 66.1252 89.3393 66.0027 89.293 65.8879C88.9958 65.1415 88.7848 64.7388 88.5808 64.3501C88.3918 63.9904 88.2142 63.6496 87.9559 62.9998C87.9107 62.8852 87.8446 62.7806 87.7601 62.6907C87.6137 62.5328 87.4643 62.4336 87.3217 62.3736C87.091 61.8967 87.073 61.6633 87.0536 61.4201C87.014 60.9198 86.9376 60.4427 86.4047 59.6547C86.3762 59.6127 86.3443 59.5723 86.3096 59.5355C86.2064 59.4254 86.1101 59.343 86.0331 59.2766C86.0212 59.266 86.0091 59.2565 85.9973 59.2459C86.0403 59.0497 86.0245 58.8399 85.9415 58.6457C85.7097 58.1031 85.5274 57.8132 85.3591 57.5997C85.3537 57.5703 85.3465 57.5394 85.3393 57.5086C85.19 56.8876 85.0206 56.5905 84.7779 56.3375C84.7935 56.1649 84.7634 55.9885 84.6872 55.8272C84.3551 55.1232 83.9918 54.4159 83.6063 53.6667C83.3217 53.1126 83.0299 52.5447 82.7475 51.972C82.7579 51.8228 82.743 51.6501 82.6896 51.4496C82.6716 51.3841 82.6481 51.3197 82.6165 51.2592C81.6756 49.3949 80.8053 47.1363 80.064 45.1645C80.0308 45.0773 79.986 44.9955 79.9307 44.9203L79.682 44.587C79.6747 44.5086 79.658 44.4296 79.6314 44.3531C79.5689 44.1741 79.4792 43.9164 79.3095 43.7048C79.2877 43.6366 79.2593 43.5703 79.2219 43.5067C78.493 42.249 77.5945 40.5041 77.1155 39.2546C77.125 39.1168 77.1065 38.9762 77.0556 38.8395C76.8046 38.1667 76.5267 37.8135 76.3033 37.5291C76.2024 37.4004 76.1257 37.3024 76.0601 37.1831C76.0552 37.0734 76.0312 36.9635 75.9876 36.8576C75.634 35.9936 75.238 35.1125 74.8547 34.2612C74.1773 32.7538 73.5368 31.3301 73.2059 30.1817C73.1534 30.0003 73.0509 29.8386 72.912 29.7158C72.8225 29.5648 72.6634 29.1787 72.5651 28.9396C72.3247 28.3564 72.1043 27.8211 71.7819 27.4812C71.6979 27.1907 71.6503 26.9995 71.6071 26.825C71.4945 26.3732 71.4138 26.0463 70.9301 24.7643C70.9264 24.7552 70.9236 24.7473 70.9199 24.7382C70.7708 24.3739 70.5805 24.1291 70.4166 23.9322C70.4199 23.7997 70.3974 23.6637 70.3443 23.5339L70.2749 23.3643C70.206 23.198 70.0948 23.0558 69.953 22.9495L69.7573 22.6816L69.7605 22.4719C69.7627 22.3033 69.7224 22.1367 69.6419 21.9884L69.3542 21.4571C69.2797 21.2865 69.1959 21.145 69.0959 21.0292C69.0573 20.9843 69.015 20.9431 68.9697 20.9065C68.8549 20.5747 68.7735 20.2815 68.7435 20.1347C68.7533 19.959 68.7172 19.7804 68.63 19.6161L68.0862 18.5907C68.0806 18.4186 68.0297 18.2459 67.9294 18.0899C67.9227 18.0802 67.9161 18.0696 67.9104 18.0601C67.8791 18.0102 67.8462 17.9569 67.8151 17.906C67.8205 17.4918 67.5867 17.1285 67.3885 16.821C67.3328 16.7351 67.2667 16.6612 67.1911 16.5982C66.9952 16.026 66.6889 15.3435 66.4586 14.8582C66.4665 14.7117 66.4421 14.5627 66.3815 14.4211C66.0745 13.6941 65.7278 12.9464 65.4302 12.3098L63.8748 8.92913C63.733 8.61894 63.4434 8.40417 63.1047 8.36029C62.7672 8.31556 62.4301 8.44835 62.2137 8.71123L61.1052 10.0558C61.0016 10.1822 60.934 10.3256 60.9013 10.4751C60.8794 10.4976 60.8593 10.5216 60.8401 10.5467C60.7241 10.6118 60.6186 10.7009 60.5332 10.8137L60.3832 11.0112C60.3832 11.0112 60.3789 11.0178 60.3763 11.0205L60.354 11.0514C60.1339 11.1436 59.9496 11.3139 59.8439 11.5361C59.7828 11.613 59.6206 11.7724 59.5104 11.8818C59.2241 12.164 58.9097 12.473 58.6913 12.8253C58.6551 12.857 58.6214 12.8922 58.5904 12.9301C57.8787 13.7858 57.403 14.3927 56.9426 14.9791C56.5829 15.4375 56.2437 15.8699 55.8062 16.4043C55.6823 16.5557 55.6098 16.733 55.5891 16.9163C55.5699 16.9478 55.5482 16.9809 55.5305 17.0095C55.4383 17.1549 55.3276 17.3276 55.2305 17.5185C55.0189 17.7485 54.7959 17.9827 54.5624 18.2288C53.9747 18.8477 53.3092 19.549 52.6727 20.3314C52.6566 20.3507 52.6414 20.3713 52.6272 20.392C52.4573 20.6367 52.2931 20.8728 52.2149 21.1305C52.2073 21.1376 52.1987 21.1445 52.191 21.1527C52.0088 21.2093 51.8417 21.3182 51.7133 21.4772L51.6661 21.5355C50.6327 22.8193 50.3204 23.2068 49.0551 24.9314C49.0359 24.9566 49.0186 24.9831 49.0033 25.01C48.9225 25.0728 48.8499 25.1488 48.7897 25.2385C48.1812 26.1378 47.2755 27.0692 46.4005 27.9701C45.4352 28.9639 44.5203 29.9053 43.9511 30.839L43.1854 31.9409C43.0455 31.9975 42.896 32.0905 42.739 32.2319C42.6739 32.2901 42.6177 32.3573 42.5698 32.4312C41.9727 33.3611 41.4056 34.0078 40.8557 34.6344C40.4128 35.1394 39.9566 35.66 39.5061 36.304C38.7361 36.8548 37.9106 37.9007 37.0391 39.003C36.3564 39.8681 35.6496 40.7617 35.0802 41.2591C34.9341 41.3865 34.8336 41.5494 34.7823 41.7263C34.7011 41.7859 34.6082 41.8635 34.5099 41.9655C34.3507 42.1318 34.257 42.3455 34.2378 42.5682C32.6632 44.5435 30.8896 46.5208 29.1687 48.4397C28.3087 49.3992 27.4188 50.3905 26.5644 51.3721C26.0255 51.9964 25.8859 52.3869 25.7813 52.7645C25.7753 52.7867 25.7694 52.8079 25.7622 52.8309C25.5252 52.881 25.3077 53.018 25.1597 53.2285C24.2662 54.4979 23.2214 55.7449 22.2113 56.9505C21.449 57.8597 20.6662 58.7948 19.9405 59.7474C19.9063 59.7678 19.8717 59.7902 19.8388 59.815C19.5219 60.0549 18.6715 60.9897 18.2594 61.7515C18.1818 61.7906 18.1045 61.8393 18.0272 61.9007C18.0077 61.9152 17.9889 61.9319 17.9713 61.9478C17.6539 62.2383 17.4043 62.6179 17.1838 62.9519C17.1636 62.9821 17.1421 63.0142 17.119 63.0492C16.9793 63.1228 16.8559 63.2299 16.7615 63.3696C16.7386 63.4036 16.7114 63.4442 16.6809 63.4917C16.5986 63.6049 16.4394 63.8008 16.3368 63.9274C16.1991 64.0975 16.0695 64.2574 15.9666 64.3977C15.8581 64.5454 15.7807 64.6849 15.7294 64.8143C15.4312 65.1514 15.169 65.4886 14.9311 65.7952C14.7291 66.0543 14.5352 66.3032 14.3435 66.5219C14.2586 66.566 14.1789 66.6227 14.1085 66.6927L13.5715 67.2223C13.3965 67.3942 13.3001 67.617 13.2811 67.845C13.0895 68.0626 12.9061 68.2763 12.7708 68.4986C12.5182 68.679 12.2381 68.9676 11.8779 69.4048C11.8281 69.4657 11.7769 69.5285 11.7277 69.5917C11.6322 69.6424 11.5435 69.7081 11.4664 69.7917C11.2512 70.0241 10.9837 70.3308 10.713 70.656L10.6415 70.7384C10.6218 70.7603 10.6048 70.7847 10.588 70.8082C10.1709 71.3166 9.84615 71.7326 9.69363 72.1124C9.15969 72.6065 8.76411 73.1727 8.43511 73.6428C8.17666 74.0123 7.85459 74.4731 7.66949 74.5524C7.50722 74.622 7.36696 74.7346 7.26268 74.8768C6.69998 75.6479 6.13028 76.4167 5.57228 77.1612L5.31166 77.5072L4.6863 78.3222C4.45022 78.3672 4.23813 78.4977 4.09028 78.6892L3.99594 78.811C3.91822 78.9103 3.8431 79.0069 3.77502 79.0994L3.04056 80.1139C2.84735 80.3829 2.80165 80.7319 2.91914 81.042C3.03662 81.3521 3.30228 81.5828 3.62654 81.6547C4.30012 81.8063 4.90482 81.9351 5.4677 82.0554L6.28216 82.2286L6.29958 82.2317L6.80521 82.3293C7.18075 82.404 7.51917 82.4795 7.84589 82.5614C7.98415 82.7358 8.18217 82.8647 8.41532 82.9142C8.85208 83.0071 9.3215 83.1184 9.83944 83.2541C10.1014 83.3256 10.3639 83.3888 10.5828 83.4411L11.2934 83.6161C11.8401 83.7505 12.4323 83.8961 13.0379 84.0198C13.1752 84.1042 13.329 84.1482 13.4847 84.1757C13.5656 84.19 13.6465 84.1989 13.7262 84.2077C13.7902 84.2222 13.8559 84.239 13.9204 84.2567C14.3312 84.3651 14.8411 84.4983 15.2926 84.1364C15.3124 84.1198 15.3322 84.1032 15.351 84.0865C15.4557 84.1514 15.5659 84.2036 15.6732 84.2479C15.8054 84.5944 16.1256 84.8452 16.5072 84.8797C16.5675 84.8851 16.6321 84.8901 16.6982 84.8923C16.7976 84.9457 16.9079 84.9853 17.0244 85.0016C17.6069 85.0884 17.9017 85.0939 18.1583 85.0822C18.3409 85.2327 18.5763 85.3175 18.8274 85.3068L18.8605 85.3053C19.2562 85.2895 19.6148 85.2745 20.0649 85.3455C20.185 85.449 20.332 85.5256 20.4979 85.5612C20.5123 85.5638 20.5254 85.5671 20.5387 85.5695C21.2583 85.7175 21.8917 85.7616 22.5053 85.8043C22.6514 85.8142 22.7975 85.8241 22.9464 85.8366C23.431 85.8735 23.9447 85.9197 24.5148 86.035C24.7549 86.3087 25.1103 86.4136 25.2808 86.4648C25.2968 86.4697 25.317 86.4754 25.3369 86.4821C25.481 86.6416 25.6766 86.7543 25.8989 86.7935C25.9245 86.798 25.9501 86.8025 25.9773 86.8041L26.2887 86.8348C26.5223 86.858 26.755 86.88 26.9891 86.9002C27.1952 86.9175 27.3937 86.8701 27.5639 86.7734C27.6277 86.7772 27.6894 86.7807 27.75 86.784C27.7782 86.7858 27.8054 86.7874 27.8326 86.7891C27.9649 86.8895 28.1238 86.9587 28.2982 86.9821L29.9288 87.2051C30.0751 87.2257 30.2193 87.2109 30.3532 87.1701C30.3655 87.1723 30.3787 87.1757 30.391 87.1778C30.5313 87.2026 30.6757 87.2164 30.823 87.2255C30.893 87.2421 30.9651 87.258 31.041 87.2713C31.3114 87.319 31.6206 87.3324 31.9182 87.1905C31.9726 87.1874 32.0268 87.1853 32.0829 87.1847C32.1689 87.3678 32.2838 87.4831 32.3109 87.509C32.5837 87.7652 32.9754 87.8437 33.3227 87.7191C33.4757 87.708 33.8555 87.7528 34.1121 87.7833C34.351 87.8117 34.5849 87.8392 34.8114 87.8548C35.0439 88.0458 35.3481 88.1174 35.6365 88.0574C35.7415 88.1266 35.8604 88.1771 35.9879 88.2028C36.2134 88.2478 36.6011 88.3257 36.9611 88.2064C37.4955 88.3207 38.0121 88.3864 38.5169 88.4406C38.5878 88.5059 38.6687 88.5624 38.7582 88.6057L39.2422 88.8378C39.325 88.8778 39.4111 88.9046 39.4982 88.9199C39.5924 88.9366 39.688 88.9397 39.7818 88.9288C39.9029 89.0029 40.0389 89.0523 40.1807 89.0688C40.9998 89.1678 41.8469 89.2158 42.6658 89.2619C42.8425 89.272 43.0192 89.282 43.1948 89.2929C44.1648 89.3509 45.1056 89.4186 45.9524 89.588C46.1449 89.6282 46.3368 89.6061 46.5081 89.5391C46.6799 89.6075 46.8717 89.6814 47.0805 89.7436C47.1297 89.7998 47.1852 89.8508 47.248 89.8956C47.3999 90.0048 47.576 90.0665 47.7554 90.0791C48.7237 90.2784 49.7058 90.3216 50.9354 90.3747C51.1566 90.3841 51.3809 90.3941 51.6136 90.4045C51.6775 90.4432 51.7478 90.4757 51.8206 90.5002C52.326 90.6653 52.9774 90.7749 53.6071 90.8817C53.9938 90.9467 54.3599 91.0092 54.6481 91.0758C54.834 91.1181 55.027 91.1078 55.2061 91.0443C55.2279 91.0407 55.2635 91.0365 55.2883 91.0335C55.338 91.0274 55.4135 91.0185 55.5022 91.0004C56.725 91.4695 57.929 91.5181 58.8426 91.5545L58.9999 91.5612C59.517 91.5816 60.0047 91.601 60.4618 91.6626C60.6153 91.6844 60.7608 91.71 60.897 91.7404C61.0399 91.9663 61.2823 92.1432 61.6311 92.2015C61.6547 92.2057 61.6784 92.2088 61.7025 92.2099L63.5926 92.3752C63.7621 92.3903 63.9289 92.3606 64.079 92.2941C64.1653 92.3621 64.2599 92.4242 64.3693 92.4752C64.4474 92.5111 64.5294 92.5372 64.6124 92.5518C64.8562 92.5948 65.1091 92.5444 65.3214 92.4065C65.4646 92.3852 65.5921 92.3391 65.7061 92.2736C65.8348 92.3407 65.9801 92.379 66.1302 92.3843C66.1974 92.3866 66.2629 92.3866 66.3274 92.3863C66.4802 92.5559 66.6883 92.6697 66.9168 92.7036C67.2029 92.7467 67.4745 92.7396 67.7266 92.7175C68.2746 93.0782 68.5591 93.1601 68.9463 93.2463C69.0216 93.2628 69.1007 93.2809 69.1905 93.3052L69.8231 93.5213C69.8729 93.5386 69.9223 93.5515 69.9725 93.5604C70.0104 93.567 70.0478 93.5705 70.0854 93.5729L70.3893 93.6645C70.7857 93.783 71.2024 93.642 71.4481 93.3326C71.5312 93.3409 71.6258 93.3554 71.7356 93.3737C71.7878 93.3829 71.8401 93.3922 71.893 93.4036C71.9962 93.4229 72.1057 93.4432 72.2187 93.461C72.2668 93.6195 72.3539 93.7669 72.4815 93.8876C72.6271 94.0263 72.8052 94.1126 72.9916 94.1455C73.0521 94.1562 73.1136 94.1607 73.175 94.1599C73.4121 94.4024 73.7651 94.5153 74.1149 94.4302C74.1484 94.4319 74.2521 94.4671 74.3288 94.4933C74.599 94.5842 74.9729 94.7103 75.4816 94.6765C75.649 94.8591 75.8809 94.9761 76.1362 94.9957C76.5728 95.0294 76.909 94.9556 77.1445 94.7764C77.3091 94.8255 77.4843 94.8859 77.6665 94.9487C77.7463 94.9754 77.8259 95.0032 77.9047 95.0298C78.7439 95.314 79.65 95.5847 80.7041 95.5128C81.1839 95.5415 81.5616 95.532 81.8859 95.5078C81.9974 95.7683 82.2196 95.9755 82.503 96.0635C82.555 96.08 82.6798 96.139 82.7792 96.1861C83.054 96.3169 83.4145 96.4893 83.8324 96.563C83.9031 96.5755 83.9754 96.585 84.0492 96.5917C84.2553 96.609 84.4582 96.5603 84.6315 96.4578C84.7407 96.5636 84.876 96.6467 85.0314 96.6941C85.1617 96.734 85.2739 96.7622 85.3764 96.7803C85.4662 96.8278 85.5625 96.8628 85.6649 96.8808C85.6916 96.8855 85.7184 96.8892 85.7454 96.8918C85.9147 96.908 86.0803 96.9034 86.2469 96.881C86.4466 96.893 86.6438 96.9003 86.8388 96.903C86.9911 97.0576 87.1945 97.1621 87.4228 97.1908L88.0701 97.2701C88.1503 97.2821 88.2257 97.2922 88.2969 97.3016C88.4138 97.4595 88.5766 97.5844 88.775 97.651L88.9476 97.7089C88.9955 97.7248 89.0439 97.7375 89.0931 97.7462C89.2078 97.7664 89.3241 97.7658 89.4377 97.7446C89.4652 97.7505 89.4937 97.7566 89.5234 97.7619C89.6125 97.7776 89.7129 97.789 89.821 97.7869C89.927 97.851 90.0427 97.8957 90.1646 97.9172C90.351 97.9501 90.55 97.9302 90.7356 97.8478C90.8594 97.7925 90.9027 97.7864 91.0187 97.7699C91.1324 97.754 91.2477 97.7353 91.3773 97.7011C91.5693 97.8881 91.8284 97.9877 92.0915 97.9813C92.142 97.9944 92.1948 98.0069 92.2407 98.016L92.2478 98.0173C92.399 98.2203 92.6209 98.3577 92.8688 98.4014C92.9692 98.4191 93.0733 98.4216 93.1785 98.4064C93.4634 98.3658 93.693 98.3217 93.9153 98.2648C94.2772 98.1955 94.5746 97.9586 94.7071 97.626C94.8436 97.2835 94.7858 96.8984 94.5567 96.6045C94.3761 96.3645 94.1129 96.222 93.7767 96.1817C93.6766 96.1683 93.5626 96.1619 93.4316 96.1621C93.1078 95.9318 92.7625 95.7631 92.4064 95.6623C92.2386 95.6137 92.0652 95.5789 91.8855 95.5557C91.6765 95.3689 91.3942 95.2747 91.1059 95.3105C90.8456 95.3428 90.6141 95.3917 90.411 95.4594C90.3853 95.4433 90.3597 95.4271 90.3324 95.4139L90.0831 95.2886C89.9562 95.1997 89.8022 95.1324 89.6218 95.0953C89.5596 95.0822 89.4975 95.0755 89.4352 95.0751C89.2679 94.904 89.0376 94.7419 88.7177 94.6274C88.7097 94.625 88.7019 94.6215 88.6928 94.6188C88.4134 94.5262 88.0927 94.476 87.6517 94.4553C87.5187 94.4488 87.384 94.4461 87.2525 94.443C87.0518 94.1076 86.6672 93.9163 86.27 93.9708L86.2224 93.9772C86.1666 93.922 86.1043 93.874 86.0346 93.8322C85.7402 93.6567 85.495 93.5733 85.2799 93.5354C85.1098 93.3681 84.8784 93.2607 84.6221 93.2525L84.616 93.2514C84.5557 93.2038 84.4905 93.1606 84.4183 93.1268C84.0718 92.9653 83.7179 92.8575 83.3348 92.79C83.0273 92.7368 82.7558 92.7312 82.5379 92.7266L82.4358 92.7244C82.3821 92.7234 82.3211 92.7221 82.2633 92.7204C82.1189 92.5988 81.9389 92.5174 81.739 92.4949C81.1228 92.4253 80.6636 92.394 80.2887 92.5856L80.1135 92.3329C79.935 92.0754 79.6439 91.9174 79.3308 91.9076C79.2363 91.9046 79.1433 91.9168 79.0537 91.94C78.9537 91.7883 78.812 91.6629 78.637 91.5835C78.0394 91.3123 77.473 91.0561 76.969 91.4647C76.7667 91.4438 76.5698 91.4883 76.3994 91.5798C76.3429 91.5349 76.2815 91.4935 76.2153 91.4617C75.9681 91.3421 75.6838 91.3311 75.4314 91.427C75.3252 91.4062 75.2223 91.3965 75.1282 91.3915C74.9455 91.1871 74.7041 91.0527 74.5473 90.9659C74.3875 90.8775 74.2097 90.8377 74.0343 90.8437C73.9705 90.7744 73.8949 90.7061 73.8021 90.6391C73.6028 90.4275 73.3159 90.3115 73.0166 90.3316C72.8691 90.3415 72.6605 90.3564 72.4534 90.4171C72.3392 90.322 72.2035 90.2526 72.0558 90.216C71.7582 90.1424 71.3606 90.1568 70.9824 90.5168C70.8785 90.5007 70.7741 90.4822 70.6807 90.4668C70.334 90.4078 69.9495 90.3421 69.5639 90.3069C69.3859 90.2258 69.1898 90.1701 68.9967 90.115C68.6839 90.026 68.2845 89.925 67.8617 89.8187C67.4906 89.7248 67.1114 89.6294 66.792 89.5414C66.779 89.5317 66.7659 89.522 66.7528 89.5123C66.3928 89.2597 65.9231 89.2815 65.5894 89.5332C65.5798 89.5336 65.5702 89.534 65.5596 89.5343C65.4112 89.2979 65.1649 89.1309 64.8716 89.0813L64.806 89.0697C64.5707 88.8708 64.2486 88.7866 63.933 88.863L63.7577 88.9049C63.6573 88.8513 63.5456 88.8137 63.429 88.7984C63.0226 88.7426 62.6231 88.7323 62.236 88.7232C62.0908 88.7198 61.9436 88.716 61.7957 88.71C61.367 88.6915 60.8565 88.6511 60.3175 88.4853C60.0701 88.4089 59.8142 88.4346 59.5958 88.5408C59.5876 88.5393 59.5804 88.5381 59.5724 88.5356C59.232 88.4597 58.9513 88.3564 58.8006 88.2886C58.769 88.2461 58.735 88.2052 58.6982 88.1681C58.4358 87.9011 58.0449 87.8057 57.6888 87.9204C57.6216 87.9423 57.5602 87.9727 57.5004 88.0065C57.3827 87.9256 57.2458 87.8571 57.0885 87.8029C56.9062 87.7401 56.7102 87.732 56.5255 87.7786C56.4951 87.7775 56.4565 87.7749 56.4273 87.7729C56.2499 87.7607 56.0918 87.7645 55.9506 87.7808C55.7625 87.661 55.5385 87.6078 55.311 87.6342C55.2016 87.6434 54.8335 87.6102 54.6131 87.5904C54.3479 87.5668 54.0743 87.5429 53.8449 87.5384C53.7312 87.5363 53.513 87.5337 53.2812 87.5963L52.9654 87.4942C52.6536 87.3938 52.3214 87.4567 52.071 87.6428C51.6985 87.575 51.3174 87.4898 50.9272 87.402C50.3086 87.2623 49.6736 87.1197 49.0282 87.0418C48.8825 86.9517 48.714 86.9009 48.5384 86.8963C48.1926 86.8871 47.7987 86.8504 47.4184 86.815C46.8562 86.7624 46.3178 86.7128 45.8369 86.7326C45.813 86.6407 45.7769 86.552 45.7272 86.4682C45.561 86.1949 45.2721 86.0183 44.9528 85.9958C44.6221 85.9723 44.3526 86.0209 44.1429 86.1382L44.1378 86.1373C43.9248 86.087 43.7548 86.0391 43.5897 85.9931C43.1105 85.859 42.7432 85.7678 42.175 85.7732C41.9091 85.6101 41.6164 85.5448 41.4609 85.51C41.1875 85.4491 40.8852 85.4085 40.6338 85.3969C40.5418 85.3194 40.4351 85.2594 40.3177 85.2186C39.2495 84.8549 38.2653 84.8599 37.3963 84.8641C37.3541 84.864 37.3128 84.8641 37.2704 84.8651C37.0995 84.6543 36.8441 84.5153 36.553 84.5009L35.6703 84.4573C35.5373 84.4507 35.41 84.4716 35.2918 84.513C35.0865 84.4135 34.8524 84.387 34.6286 84.4405C34.5624 84.4563 34.501 84.475 34.4444 84.4967C34.3957 84.4733 34.348 84.4502 34.3033 84.4285C34.0024 84.2836 33.7757 84.1739 33.5478 84.1242C32.7165 83.891 32.2206 83.9958 31.8573 84.0733C31.5939 84.1293 31.4349 84.1625 31.0121 84.0563C30.9969 84.0526 30.9818 84.0488 30.9664 84.0461C30.8871 83.9804 30.7925 83.9183 30.6791 83.8603C30.4793 83.7595 30.2552 83.7306 30.0417 83.7732C29.9088 83.7361 29.766 83.7014 29.6213 83.6653C29.5526 83.6479 29.4695 83.628 29.3908 83.6067C29.2176 83.4452 28.9866 83.3474 28.7361 83.3423C28.554 83.3387 28.4168 83.3441 28.3047 83.3571C28.2399 83.3647 28.1798 83.3763 28.1222 83.3914C27.9247 83.3556 27.7346 83.3252 27.5462 83.2973C27.1371 83.2336 26.7148 83.1665 26.1859 83.0331C25.9251 82.9248 25.6801 82.8943 25.443 82.9391C25.3632 82.9546 25.288 82.9794 25.2168 83.0122C24.9075 82.9809 24.6855 83.0062 24.4583 83.0845C24.357 82.9705 24.2412 82.8899 24.112 82.8322C23.9406 82.5401 23.6233 82.3447 23.2634 82.3435C22.7885 82.3411 22.3584 82.2283 22.0358 82.1292C22.0138 82.1221 21.9928 82.1153 21.971 82.1072C21.8015 81.8946 21.5456 81.7523 21.2528 81.7355C20.9725 81.7199 20.7425 81.6762 20.4769 81.6251L20.4554 81.6213C20.3187 81.594 20.1806 81.5982 20.0507 81.6281C19.9748 81.6211 19.8984 81.6234 19.8213 81.6352C19.7487 81.6456 19.6815 81.6612 19.6201 81.68C19.4983 81.592 19.3527 81.5314 19.1957 81.5048C19.1527 81.4972 19.1052 81.491 19.0538 81.483C18.8799 81.3615 18.6911 81.3176 18.5463 81.3005C17.8538 81.0643 17.4589 81.0454 16.9729 81.2143C16.9482 81.2226 16.9188 81.2333 16.8521 81.2342C16.5076 80.9537 16.0465 80.8429 15.823 80.8225C15.5924 80.8008 15.3726 80.8613 15.1922 80.9795C14.8747 80.9056 14.6451 80.8894 14.4246 80.8822C14.3165 80.8779 14.2694 80.8759 14.2064 80.8617L13.9371 80.7772C13.708 80.7051 13.4716 80.7216 13.2653 80.8077C13.1064 80.7681 12.9057 80.6904 12.7089 80.6145C12.3836 80.4885 11.999 80.3394 11.5598 80.2545C11.4394 80.1108 11.2614 79.9759 11.0024 79.8753C10.9184 79.8425 10.8312 79.8218 10.7408 79.8133C10.312 79.7715 10.1246 79.6962 9.86508 79.5923C9.55329 79.4677 9.16551 79.3127 8.46398 79.2238C8.29555 79.2026 8.12894 79.225 7.97807 79.2839C7.95155 79.2666 7.92365 79.2511 7.89454 79.2364C7.90039 79.2153 7.90436 79.1928 7.90816 79.1712C7.97316 79.0961 8.03853 79.0189 8.10323 78.9395C8.26164 78.8618 8.39528 78.7628 8.50584 78.6809C8.51789 78.6725 8.52892 78.6638 8.54097 78.6554C8.66497 78.5991 8.75999 78.5335 8.81903 78.4921C9.04522 78.3355 9.18733 78.0987 9.23044 77.8422C9.43684 77.5702 9.62643 77.3036 9.7395 77.0278L10.1131 76.724C10.1514 76.6927 10.1881 76.658 10.222 76.6217C10.8038 75.9818 11.0457 75.5206 11.2557 75.114C11.4433 75.0626 11.6165 74.9547 11.7502 74.7956C11.8009 74.7359 11.8504 74.677 11.8984 74.62C12.0306 74.4637 12.1452 74.3286 12.2368 74.2043C12.2996 74.1182 12.3491 74.035 12.3885 73.9554C12.5128 73.8072 12.6298 73.6293 12.7635 73.4279C12.8112 73.355 12.8783 73.2559 12.9449 73.1599C12.9633 73.1452 12.9828 73.1307 13.0014 73.1149C13.053 73.068 13.1003 73.0215 13.1445 72.9743C13.2405 72.8793 13.336 72.7747 13.4632 72.5869C13.5516 72.4567 13.6048 72.3108 13.6236 72.1621C13.7656 72.0456 13.8748 71.8937 13.9343 71.7183C13.9372 71.7135 13.9402 71.7088 13.9431 71.704C13.9869 71.6293 14.0366 71.5451 14.0797 71.4566C14.0865 71.442 14.0931 71.4284 14.0989 71.4135C14.6721 70.8946 15.2261 70.2085 15.7652 69.541C15.8125 69.4828 15.8597 69.4245 15.9059 69.3661C16.4674 69.3088 16.8042 68.8126 16.9226 68.6381C17.0313 68.4766 17.0865 68.2899 17.0899 68.1025C17.1452 68.0647 17.1979 68.0233 17.2459 67.9726L17.4879 67.7206C17.581 67.624 17.6492 67.5124 17.6953 67.3949C18.2079 66.7279 18.696 66.1042 19.0982 65.6026C19.1533 65.5659 19.205 65.5243 19.2526 65.4756C19.8035 64.9211 19.9474 64.5841 20.0627 64.2358C20.6427 64.1036 21.0577 63.5293 21.4345 63.0095C21.5839 62.8035 21.7556 62.5665 21.9231 62.3711C21.999 62.3359 22.0716 62.2895 22.1385 62.2337C22.5601 61.8792 22.8904 61.3903 23.2395 60.872C23.4443 60.5669 23.6557 60.2546 23.8939 59.9523C24.0632 59.8543 24.2 59.7073 24.2862 59.5303C24.5312 59.0274 25.1128 58.2152 25.6601 57.4773C25.6668 57.4753 25.6745 57.4735 25.6812 57.4715C25.8939 57.415 26.0819 57.2897 26.2152 57.1147C26.3457 56.9433 26.4251 56.7809 26.4694 56.6314C26.5186 56.6157 26.5665 56.5957 26.614 56.5723C27.1546 56.298 27.4965 55.7963 27.7715 55.3928C27.7899 55.3664 27.8085 55.3391 27.8258 55.3125C27.9488 55.2497 28.0596 55.1605 28.1491 55.0484C28.6319 54.4428 28.8573 54.0632 29.0568 53.7287C29.2039 53.4811 29.3374 53.2574 29.5795 52.9389C29.5934 52.9318 29.6081 52.926 29.6221 52.9189C30.019 52.7164 30.6073 52.1536 30.8649 51.597C30.8923 51.5374 30.9138 51.4757 30.928 51.4127C31.045 51.3425 31.1483 51.2477 31.2275 51.1339C31.3617 51.0741 31.4843 50.9837 31.5846 50.8641C32.9406 49.2421 33.0774 48.8257 33.1216 48.6888C33.1447 48.6179 33.1593 48.5466 33.1667 48.475C33.3472 48.2058 33.5582 47.9198 33.7982 47.6188C34.2719 47.4425 34.7102 46.9335 35.4025 46.1282C35.7706 45.6999 36.3869 44.9846 36.6138 44.8536C36.7599 44.78 36.8847 44.6711 36.9781 44.5365C37.6443 43.5797 38.4335 42.6985 39.2696 41.7665C39.8665 41.1007 40.4834 40.412 41.1137 39.6348C41.2379 39.4814 41.3089 39.3006 41.3279 39.1149C41.4985 39.0277 41.6719 38.9009 41.8494 38.7273C42.0497 38.5313 42.1488 38.2689 42.1453 38.0073C42.3782 37.9745 42.5947 37.8606 42.7536 37.6784C42.8992 37.5118 42.9874 37.4186 43.0363 37.3691C43.2632 37.2866 43.464 37.1477 43.7299 36.8978C43.9035 36.734 44.008 36.519 44.0338 36.2944C44.1128 36.1942 44.2258 36.0621 44.3731 35.9095C44.5113 35.767 44.5971 35.592 44.6323 35.4102C44.8139 35.2669 45.0092 35.1059 45.2378 34.8515C45.3727 34.7813 45.4934 34.6779 45.5865 34.5454C45.7231 34.3519 45.9702 34.0406 46.2332 33.7109C46.8817 32.8968 47.432 32.1901 47.7874 31.6C47.8837 31.5451 47.9733 31.4743 48.0502 31.3854C48.6799 30.6599 49.2938 29.826 49.8891 29.0194C50.4779 28.2201 51.0416 27.4555 51.5559 26.8807C51.7387 26.8147 51.9033 26.6959 52.0245 26.5292C52.1351 26.3755 52.2169 26.2294 52.2829 26.1122C52.309 26.0661 52.3308 26.0266 52.3516 25.9922C52.4827 25.9319 52.6168 25.8362 52.7473 25.6892C52.7869 25.6444 52.8217 25.5967 52.853 25.5451L52.8587 25.5366C52.9739 25.3446 53.0759 25.1852 53.1649 25.0519C53.267 25.0002 53.3615 24.9313 53.4436 24.8433C54.3681 23.8529 54.8937 23.0351 55.402 22.2428C55.6524 21.8528 55.8914 21.4798 56.1759 21.0885C56.2666 21.0474 56.3627 20.9936 56.4611 20.9265C56.6353 20.8072 56.8396 20.6373 57.0843 20.4058C57.391 20.1155 57.719 19.7709 57.9832 19.489C58.0742 19.4343 58.1571 19.3655 58.2288 19.282C59.259 18.0757 60.0139 17.0058 60.7425 15.9702C61.1271 15.4244 61.5232 14.8615 61.9652 14.2719C62.0481 14.2031 62.1357 14.1256 62.2266 14.0413C62.3904 14.4419 62.5217 14.782 62.6303 15.0821C62.7212 15.3336 62.9027 15.5262 63.1264 15.6354C63.2075 15.8165 63.3043 15.9921 63.3952 16.1538C63.3646 16.7283 63.6294 17.3591 64.0533 18.2916C64.1204 18.4386 64.1857 18.5832 64.2468 18.7218C64.3039 18.8533 64.3875 18.9663 64.4896 19.0582C64.4961 19.2009 64.5322 19.3435 64.6026 19.4774L64.9713 20.172C65.0236 20.271 65.091 20.3557 65.168 20.4284C65.4599 21.1211 65.8004 21.8138 66.1201 22.4627C66.5673 23.3707 67.0743 24.4013 67.1069 24.8158C67.1192 24.9796 67.1728 25.1369 67.2614 25.275C67.3824 25.4633 67.5078 25.6987 67.6392 25.9479C67.6844 26.033 67.7296 26.1181 67.7757 26.2044C67.765 26.3546 67.7889 26.5067 67.8473 26.649C68.3108 27.7817 68.5825 28.4454 69.1151 29.5945C69.1068 29.7431 69.1326 29.8965 69.1948 30.0406C69.4836 30.7094 69.8617 31.0687 70.1377 31.3307C70.2418 31.4293 70.325 31.5084 70.3957 31.5927C70.3408 31.808 70.3607 32.0365 70.4515 32.2405C70.685 32.7613 70.9044 33.3143 71.1166 33.8482C71.4669 34.7307 71.8268 35.637 72.2862 36.506C72.2956 36.608 72.321 36.7097 72.3649 36.8082C72.4265 36.9501 72.5098 37.1549 72.6062 37.3926C73.0625 38.5188 73.3642 39.2638 73.7335 39.6733C73.8766 40.0598 74.1557 40.5917 74.6339 41.4259C74.624 41.6618 74.6982 41.8999 74.8553 42.0934C74.9472 42.2068 75.0257 42.3009 75.0955 42.384C75.3223 42.6553 75.4207 42.7741 75.6113 43.1193C75.616 43.1941 75.6292 43.2692 75.6521 43.343C75.6655 43.3866 75.6793 43.4281 75.6945 43.4677C75.8451 43.8957 75.984 44.1145 76.1337 44.3257C76.1338 44.4567 76.1591 44.589 76.2138 44.7159C76.5266 45.446 76.6513 45.6254 76.9044 45.9214C76.936 45.9576 76.97 45.9984 77.0118 46.0491C77.1843 46.3647 77.3852 46.9441 77.4319 47.1826C77.3951 47.5289 77.5441 47.8763 77.8323 48.0866C77.8428 48.099 77.8548 48.1149 77.8693 48.1343C77.8704 48.2422 77.889 48.3522 77.9274 48.4583C78.0348 48.7592 78.1462 49.026 78.2568 49.2673C78.0675 49.5804 78.0606 49.9848 78.2693 50.311C78.338 50.4182 78.4152 50.5374 78.4985 50.6641C78.8561 51.212 79.3285 51.9353 79.6002 52.5452C79.6003 52.6582 79.6193 52.7725 79.6598 52.8842C79.7388 53.1009 79.8351 53.3038 79.9605 53.515C80.0241 53.6994 80.0797 53.8571 80.1522 54.0389C80.1983 54.3945 80.3874 54.8018 80.6503 55.3657C80.7155 55.505 80.7758 55.636 80.8209 55.7401C80.925 55.9824 81.1209 56.1711 81.3616 56.2675C81.421 56.3139 81.4798 56.3517 81.5377 56.383C81.569 56.5227 81.6016 56.6615 81.633 56.7949C81.6822 57.0011 81.7469 57.2755 81.766 57.4003C81.7527 57.5839 81.7898 57.7689 81.877 57.9332C82.0621 58.2848 82.2531 58.6755 82.456 59.0884C82.8903 59.9741 83.3078 60.823 83.7332 61.4652C83.7308 61.6348 83.7733 61.8071 83.8618 61.9642C83.9868 62.1838 84.1473 62.5131 84.3024 62.832C84.5993 63.4421 84.8171 63.8787 85.0274 64.1893C85.0356 64.3228 85.0682 64.4732 85.1371 64.6396C85.1417 64.7154 85.1557 64.7918 85.1782 64.8676C85.618 66.3151 86.2399 67.3828 86.8416 68.4152C87.4522 69.463 88.0295 70.4541 88.4544 71.8663C88.4717 71.9295 88.4909 71.9942 88.5108 72.0611L88.517 72.0801C88.5603 72.224 88.6338 72.3521 88.7284 72.4564C89.2804 73.8244 89.917 75.1862 90.536 76.5101C91.383 78.3199 92.2581 80.1916 92.8833 82.0193L92.8918 82.043C93.1754 82.807 93.3786 83.1101 93.6476 83.4596C93.6337 83.6822 93.6957 83.9054 93.8277 84.0913L94.4333 84.946C94.7007 85.4241 94.8408 85.9114 95.0037 86.4735C95.2317 87.2647 95.49 88.1606 96.1532 89.1912C96.2188 89.2925 96.3008 89.3788 96.393 89.4489C96.4151 89.4972 96.4382 89.5456 96.4604 89.5939C96.5653 89.8194 96.7116 90.1336 96.7909 90.325C96.794 90.5231 96.8568 90.7179 96.9763 90.8848C96.9881 91.022 97.0295 91.1582 97.1014 91.2839L97.8881 92.669C97.7046 93.206 97.9887 93.8592 98.2289 94.4138C98.2373 94.4322 98.2457 94.4506 98.2551 94.4691C98.4119 94.7778 98.659 95.1857 98.9147 95.5625C99.2705 96.0847 99.7124 96.7351 100.485 96.4742C100.566 96.4473 100.638 96.4072 100.707 96.3634C100.749 96.3486 100.79 96.3315 100.83 96.3121C101.054 96.2767 101.311 96.1762 101.526 95.9237C102.001 95.3672 101.823 94.6071 101.58 93.8101L101.585 93.8014ZM93.1669 97.9744C93.2481 97.9454 93.3264 97.9085 93.4018 97.8648L93.4156 97.882L93.4181 98.1074C93.3424 98.0814 93.2539 98.0384 93.1669 97.9744ZM73.5766 90.9299C73.5004 90.907 73.4024 90.8696 73.3076 90.8318L73.3761 90.6653C73.4498 90.7322 73.5205 90.8228 73.5766 90.9299ZM73.1135 90.5789L73.0973 90.7429C73.0274 90.7137 72.9566 90.6843 72.8835 90.6556C72.9632 90.6168 73.0428 90.5907 73.1145 90.5791L73.1135 90.5789ZM18.694 81.3435C18.694 81.3435 18.6859 81.341 18.682 81.3392C18.682 81.3392 18.69 81.3417 18.694 81.3435ZM16.6755 68.6315L16.5755 68.5642C16.6335 68.4984 16.6912 68.4346 16.7474 68.3738C16.7409 68.4825 16.714 68.5749 16.6755 68.6315Z" fill="#FF5065"/>
  <path d="M101.585 93.8014C101.558 93.7133 101.519 93.6293 101.469 93.5519L101.358 93.3801C101.247 92.8187 101.019 92.4478 100.818 92.1696C100.803 92.0253 100.77 91.8728 100.72 91.7097C100.685 91.5935 100.629 91.4854 100.554 91.3898L100.307 91.0749C100.301 90.8161 100.22 90.5821 100.17 90.4402C100.135 90.3389 100.083 90.2432 100.016 90.1586C99.9244 90.0399 99.8286 89.948 99.7333 89.8774C99.7472 89.6791 99.7019 89.4747 99.5904 89.2923C99.5764 89.2698 99.5592 89.2414 99.5385 89.2092C99.4519 89.0651 99.3521 88.8648 99.2542 88.6711C99.0885 88.3409 98.9376 88.0407 98.7591 87.8011C98.6762 87.5161 98.5473 87.223 98.4212 86.9378C98.3919 86.8703 98.3555 86.7889 98.3219 86.7101C98.3591 86.5233 98.3451 86.3149 98.2518 86.0956C98.1845 85.938 98.078 85.8051 97.9471 85.7028C97.8708 85.5964 97.7679 85.4431 97.6658 85.2793C97.6593 85.1303 97.6257 84.9617 97.556 84.7699C97.4997 84.6163 97.421 84.4334 97.3378 84.2402C97.2786 84.103 97.1867 83.8872 97.1221 83.7205C97.185 83.3936 97.08 83.0487 96.8281 82.8121C96.6431 82.639 96.2766 81.854 96.0332 81.3358C95.8566 80.9592 95.6773 80.5748 95.487 80.216C95.47 80.157 95.4483 80.1003 95.4248 80.0476C95.3026 79.7345 95.2589 79.5568 95.2094 79.3526C95.1787 79.2268 95.1436 79.0844 95.0924 78.9137C95.0106 78.6468 94.8239 78.4354 94.5872 78.3166C94.5615 78.2825 94.5318 78.2413 94.5006 78.1967C94.5169 78.1584 94.5304 78.1175 94.5419 78.0762C94.6579 77.6699 94.5033 77.235 94.1562 76.9931C94.1468 76.9862 94.1373 76.9803 94.1268 76.9742C94.0777 76.899 94.0203 76.8055 93.9791 76.7391C93.8882 76.5899 93.7846 76.4227 93.6612 76.2721C93.6567 76.2555 93.6531 76.2401 93.6503 76.2258C93.6436 76.1982 93.6379 76.1761 93.633 76.1562C93.6354 76.1366 93.6388 76.1055 93.6442 76.0568C93.6796 75.7662 93.5831 75.4746 93.383 75.2619C93.3278 75.2035 93.266 75.1525 93.1997 75.1091C93.1314 74.9513 93.0379 74.7511 92.8905 74.5444C92.8873 74.527 92.8851 74.515 92.8837 74.5052C92.8853 74.496 92.886 74.4866 92.8866 74.4772C93.0045 74.2276 93.0158 73.9296 92.8968 73.6583C92.7248 73.2678 92.5403 72.9004 92.2165 72.6881C92.2245 72.5828 92.2208 72.4723 92.2031 72.3572C92.1858 72.2454 92.1488 72.1374 92.0957 72.0372C91.8989 71.674 91.6939 71.3749 91.5134 71.1107C91.4176 70.9713 91.3295 70.8417 91.2537 70.7206C91.2478 70.5262 91.1848 70.3324 91.0621 70.166C90.8849 69.9246 90.6587 69.4347 90.4413 68.9602C90.2657 68.5785 90.086 68.1898 89.8915 67.8313C89.8962 67.6726 89.8653 67.4887 89.7766 67.2787C89.7365 67.1829 89.6713 67.0372 89.5669 66.8086C89.5136 66.6915 89.4387 66.5895 89.35 66.5053C89.3588 66.4255 89.3632 66.3407 89.3635 66.2489C89.3631 66.1252 89.3393 66.0027 89.293 65.8879C88.9958 65.1415 88.7848 64.7388 88.5808 64.3501C88.3918 63.9904 88.2142 63.6496 87.9559 62.9998C87.9107 62.8852 87.8446 62.7806 87.7601 62.6907C87.6137 62.5328 87.4643 62.4336 87.3217 62.3736C87.091 61.8967 87.073 61.6633 87.0536 61.4201C87.014 60.9198 86.9376 60.4427 86.4047 59.6547C86.3762 59.6127 86.3443 59.5723 86.3096 59.5355C86.2064 59.4254 86.1101 59.343 86.0331 59.2766C86.0212 59.266 86.0091 59.2565 85.9973 59.2459C86.0403 59.0497 86.0245 58.8399 85.9415 58.6457C85.7097 58.1031 85.5274 57.8132 85.3591 57.5997C85.3537 57.5703 85.3465 57.5394 85.3393 57.5086C85.19 56.8876 85.0206 56.5905 84.7779 56.3375C84.7935 56.1649 84.7634 55.9885 84.6872 55.8272C84.3551 55.1232 83.9918 54.4159 83.6063 53.6667C83.3217 53.1126 83.0299 52.5447 82.7475 51.972C82.7579 51.8228 82.743 51.6501 82.6896 51.4496C82.6716 51.3841 82.6481 51.3197 82.6165 51.2592C81.6756 49.3949 80.8053 47.1363 80.064 45.1645C80.0308 45.0773 79.986 44.9955 79.9307 44.9203L79.682 44.587C79.6747 44.5086 79.658 44.4296 79.6314 44.3531C79.5689 44.1741 79.4792 43.9164 79.3095 43.7048C79.2877 43.6366 79.2593 43.5703 79.2219 43.5067C78.493 42.249 77.5945 40.5041 77.1155 39.2546C77.125 39.1168 77.1065 38.9762 77.0556 38.8395C76.8046 38.1667 76.5267 37.8135 76.3033 37.5291C76.2024 37.4004 76.1257 37.3024 76.0601 37.1831C76.0552 37.0734 76.0312 36.9635 75.9876 36.8576C75.634 35.9936 75.238 35.1125 74.8547 34.2612C74.1773 32.7538 73.5368 31.3301 73.2059 30.1817C73.1534 30.0003 73.0509 29.8386 72.912 29.7158C72.8225 29.5648 72.6634 29.1787 72.5651 28.9396C72.3247 28.3564 72.1043 27.8211 71.7819 27.4812C71.6979 27.1907 71.6503 26.9995 71.6071 26.825C71.4945 26.3732 71.4138 26.0463 70.9301 24.7643C70.9264 24.7552 70.9236 24.7473 70.9199 24.7382C70.7708 24.3739 70.5805 24.1291 70.4166 23.9322C70.4199 23.7997 70.3974 23.6637 70.3443 23.5339L70.2749 23.3643C70.206 23.198 70.0948 23.0558 69.953 22.9495L69.7573 22.6816L69.7605 22.4719C69.7627 22.3033 69.7224 22.1367 69.6419 21.9884L69.3542 21.4571C69.2797 21.2865 69.1959 21.145 69.0959 21.0292C69.0573 20.9843 69.015 20.9431 68.9697 20.9065C68.8549 20.5747 68.7735 20.2815 68.7435 20.1347C68.7533 19.959 68.7172 19.7804 68.63 19.6161L68.0862 18.5907C68.0806 18.4186 68.0297 18.2459 67.9294 18.0899C67.9227 18.0802 67.9161 18.0696 67.9104 18.0601C67.8791 18.0102 67.8462 17.9569 67.8151 17.906C67.8205 17.4918 67.5867 17.1285 67.3885 16.821C67.3328 16.7351 67.2667 16.6612 67.1911 16.5982C66.9952 16.026 66.6889 15.3435 66.4586 14.8582C66.4665 14.7117 66.4421 14.5627 66.3815 14.4211C66.0745 13.6941 65.7278 12.9464 65.4302 12.3098L63.8748 8.92913C63.733 8.61894 63.4434 8.40417 63.1047 8.36029C62.7672 8.31556 62.4301 8.44835 62.2137 8.71123L61.1052 10.0558C61.0016 10.1822 60.934 10.3256 60.9013 10.4751C60.8794 10.4976 60.8593 10.5216 60.8401 10.5467C60.7241 10.6118 60.6186 10.7009 60.5332 10.8137L60.3832 11.0112C60.3832 11.0112 60.3789 11.0178 60.3763 11.0205L60.354 11.0514C60.1339 11.1436 59.9496 11.3139 59.8439 11.5361C59.7828 11.613 59.6206 11.7724 59.5104 11.8818C59.2241 12.164 58.9097 12.473 58.6913 12.8253C58.6551 12.857 58.6214 12.8922 58.5904 12.9301C57.8787 13.7858 57.403 14.3927 56.9426 14.9791C56.5829 15.4375 56.2437 15.8699 55.8062 16.4043C55.6823 16.5557 55.6098 16.733 55.5891 16.9163C55.5699 16.9478 55.5482 16.9809 55.5305 17.0095C55.4383 17.1549 55.3276 17.3276 55.2305 17.5185C55.0189 17.7485 54.7959 17.9827 54.5624 18.2288C53.9747 18.8477 53.3092 19.549 52.6727 20.3314C52.6566 20.3507 52.6414 20.3713 52.6272 20.392C52.4573 20.6367 52.2931 20.8728 52.2149 21.1305C52.2073 21.1376 52.1987 21.1445 52.191 21.1527C52.0088 21.2093 51.8417 21.3182 51.7133 21.4772L51.6661 21.5355C50.6327 22.8193 50.3204 23.2068 49.0551 24.9314C49.0359 24.9566 49.0186 24.9831 49.0033 25.01C48.9225 25.0728 48.8499 25.1488 48.7897 25.2385C48.1812 26.1378 47.2755 27.0692 46.4005 27.9701C45.4352 28.9639 44.5203 29.9053 43.9511 30.839L43.1854 31.9409C43.0455 31.9975 42.896 32.0905 42.739 32.2319C42.6739 32.2901 42.6177 32.3573 42.5698 32.4312C41.9727 33.3611 41.4056 34.0078 40.8557 34.6344C40.4128 35.1394 39.9566 35.66 39.5061 36.304C38.7361 36.8548 37.9106 37.9007 37.0391 39.003C36.3564 39.8681 35.6496 40.7617 35.0802 41.2591C34.9341 41.3865 34.8336 41.5494 34.7823 41.7263C34.7011 41.7859 34.6082 41.8635 34.5099 41.9655C34.3507 42.1318 34.257 42.3455 34.2378 42.5682C32.6632 44.5435 30.8896 46.5208 29.1687 48.4397C28.3087 49.3992 27.4188 50.3905 26.5644 51.3721C26.0255 51.9964 25.8859 52.3869 25.7813 52.7645C25.7753 52.7867 25.7694 52.8079 25.7622 52.8309C25.5252 52.881 25.3077 53.018 25.1597 53.2285C24.2662 54.4979 23.2214 55.7449 22.2113 56.9505C21.449 57.8597 20.6662 58.7948 19.9405 59.7474C19.9063 59.7678 19.8717 59.7902 19.8388 59.815C19.5219 60.0549 18.6715 60.9897 18.2594 61.7515C18.1818 61.7906 18.1045 61.8393 18.0272 61.9007C18.0077 61.9152 17.9889 61.9319 17.9713 61.9478C17.6539 62.2383 17.4043 62.6179 17.1838 62.9519C17.1636 62.9821 17.1421 63.0142 17.119 63.0492C16.9793 63.1228 16.8559 63.2299 16.7615 63.3696C16.7386 63.4036 16.7114 63.4442 16.6809 63.4917C16.5986 63.6049 16.4394 63.8008 16.3368 63.9274C16.1991 64.0975 16.0695 64.2574 15.9666 64.3977C15.8581 64.5454 15.7807 64.6849 15.7294 64.8143C15.4312 65.1514 15.169 65.4886 14.9311 65.7952C14.7291 66.0543 14.5352 66.3032 14.3435 66.5219C14.2586 66.566 14.1789 66.6227 14.1085 66.6927L13.5715 67.2223C13.3965 67.3942 13.3001 67.617 13.2811 67.845C13.0895 68.0626 12.9061 68.2763 12.7708 68.4986C12.5182 68.679 12.2381 68.9676 11.8779 69.4048C11.8281 69.4657 11.7769 69.5285 11.7277 69.5917C11.6322 69.6424 11.5435 69.7081 11.4664 69.7917C11.2512 70.0241 10.9837 70.3308 10.713 70.656L10.6415 70.7384C10.6218 70.7603 10.6048 70.7847 10.588 70.8082C10.1709 71.3166 9.84615 71.7326 9.69363 72.1124C9.15969 72.6065 8.76411 73.1727 8.43511 73.6428C8.17666 74.0123 7.85459 74.4731 7.66949 74.5524C7.50722 74.622 7.36696 74.7346 7.26268 74.8768C6.69998 75.6479 6.13028 76.4167 5.57228 77.1612L5.31166 77.5072L4.6863 78.3222C4.45022 78.3672 4.23813 78.4977 4.09028 78.6892L3.99594 78.811C3.91822 78.9103 3.8431 79.0069 3.77502 79.0994L3.04056 80.1139C2.84735 80.3829 2.80165 80.7319 2.91914 81.042C3.03662 81.3521 3.30228 81.5828 3.62654 81.6547C4.30012 81.8063 4.90482 81.9351 5.4677 82.0554L6.28216 82.2286L6.29958 82.2317L6.80521 82.3293C7.18075 82.404 7.51917 82.4795 7.84589 82.5614C7.98415 82.7358 8.18217 82.8647 8.41532 82.9142C8.85208 83.0071 9.3215 83.1184 9.83944 83.2541C10.1014 83.3256 10.3639 83.3888 10.5828 83.4411L11.2934 83.6161C11.8401 83.7505 12.4323 83.8961 13.0379 84.0198C13.1752 84.1042 13.329 84.1482 13.4847 84.1757C13.5656 84.19 13.6465 84.1989 13.7262 84.2077C13.7902 84.2222 13.8559 84.239 13.9204 84.2567C14.3312 84.3651 14.8411 84.4983 15.2926 84.1364C15.3124 84.1198 15.3322 84.1032 15.351 84.0865C15.4557 84.1514 15.5659 84.2036 15.6732 84.2479C15.8054 84.5944 16.1256 84.8452 16.5072 84.8797C16.5675 84.8851 16.6321 84.8901 16.6982 84.8923C16.7976 84.9457 16.9079 84.9853 17.0244 85.0016C17.6069 85.0884 17.9017 85.0939 18.1583 85.0822C18.3409 85.2327 18.5763 85.3175 18.8274 85.3068L18.8605 85.3053C19.2562 85.2895 19.6148 85.2745 20.0649 85.3455C20.185 85.449 20.332 85.5256 20.4979 85.5612C20.5123 85.5638 20.5254 85.5671 20.5387 85.5695C21.2583 85.7175 21.8917 85.7616 22.5053 85.8043C22.6514 85.8142 22.7975 85.8241 22.9464 85.8366C23.431 85.8735 23.9447 85.9197 24.5148 86.035C24.7549 86.3087 25.1103 86.4136 25.2808 86.4648C25.2968 86.4697 25.317 86.4754 25.3369 86.4821C25.481 86.6416 25.6766 86.7543 25.8989 86.7935C25.9245 86.798 25.9501 86.8025 25.9773 86.8041L26.2887 86.8348C26.5223 86.858 26.755 86.88 26.9891 86.9002C27.1952 86.9175 27.3937 86.8701 27.5639 86.7734C27.6277 86.7772 27.6894 86.7807 27.75 86.784C27.7782 86.7858 27.8054 86.7874 27.8326 86.7891C27.9649 86.8895 28.1238 86.9587 28.2982 86.9821L29.9288 87.2051C30.0751 87.2257 30.2193 87.2109 30.3532 87.1701C30.3655 87.1723 30.3787 87.1757 30.391 87.1778C30.5313 87.2026 30.6757 87.2164 30.823 87.2255C30.893 87.2421 30.9651 87.258 31.041 87.2713C31.3114 87.319 31.6206 87.3324 31.9182 87.1905C31.9726 87.1874 32.0268 87.1853 32.0829 87.1847C32.1689 87.3678 32.2838 87.4831 32.3109 87.509C32.5837 87.7652 32.9754 87.8437 33.3227 87.7191C33.4757 87.708 33.8555 87.7528 34.1121 87.7833C34.351 87.8117 34.5849 87.8392 34.8114 87.8548C35.0439 88.0458 35.3481 88.1174 35.6365 88.0574C35.7415 88.1266 35.8604 88.1771 35.9879 88.2028C36.2134 88.2478 36.6011 88.3257 36.9611 88.2064C37.4955 88.3207 38.0121 88.3864 38.5169 88.4406C38.5878 88.5059 38.6687 88.5624 38.7582 88.6057L39.2422 88.8378C39.325 88.8778 39.4111 88.9046 39.4982 88.9199C39.5924 88.9366 39.688 88.9397 39.7818 88.9288C39.9029 89.0029 40.0389 89.0523 40.1807 89.0688C40.9998 89.1678 41.8469 89.2158 42.6658 89.2619C42.8425 89.272 43.0192 89.282 43.1948 89.2929C44.1648 89.3509 45.1056 89.4186 45.9524 89.588C46.1449 89.6282 46.3368 89.6061 46.5081 89.5391C46.6799 89.6075 46.8717 89.6814 47.0805 89.7436C47.1297 89.7998 47.1852 89.8508 47.248 89.8956C47.3999 90.0048 47.576 90.0665 47.7554 90.0791C48.7237 90.2784 49.7058 90.3216 50.9354 90.3747C51.1566 90.3841 51.3809 90.3941 51.6136 90.4045C51.6775 90.4432 51.7478 90.4757 51.8206 90.5002C52.326 90.6653 52.9774 90.7749 53.6071 90.8817C53.9938 90.9467 54.3599 91.0092 54.6481 91.0758C54.834 91.1181 55.027 91.1078 55.2061 91.0443C55.2279 91.0407 55.2635 91.0365 55.2883 91.0335C55.338 91.0274 55.4135 91.0185 55.5022 91.0004C56.725 91.4695 57.929 91.5181 58.8426 91.5545L58.9999 91.5612C59.517 91.5816 60.0047 91.601 60.4618 91.6626C60.6153 91.6844 60.7608 91.71 60.897 91.7404C61.0399 91.9663 61.2823 92.1432 61.6311 92.2015C61.6547 92.2057 61.6784 92.2088 61.7025 92.2099L63.5926 92.3752C63.7621 92.3903 63.9289 92.3606 64.079 92.2941C64.1653 92.3621 64.2599 92.4242 64.3693 92.4752C64.4474 92.5111 64.5294 92.5372 64.6124 92.5518C64.8562 92.5948 65.1091 92.5444 65.3214 92.4065C65.4646 92.3852 65.5921 92.3391 65.7061 92.2736C65.8348 92.3407 65.9801 92.379 66.1302 92.3843C66.1974 92.3866 66.2629 92.3866 66.3274 92.3863C66.4802 92.5559 66.6883 92.6697 66.9168 92.7036C67.2029 92.7467 67.4745 92.7396 67.7266 92.7175C68.2746 93.0782 68.5591 93.1601 68.9463 93.2463C69.0216 93.2628 69.1007 93.2809 69.1905 93.3052L69.8231 93.5213C69.8729 93.5386 69.9223 93.5515 69.9725 93.5604C70.0104 93.567 70.0478 93.5705 70.0854 93.5729L70.3893 93.6645C70.7857 93.783 71.2024 93.642 71.4481 93.3326C71.5312 93.3409 71.6258 93.3554 71.7356 93.3737C71.7878 93.3829 71.8401 93.3922 71.893 93.4036C71.9962 93.4229 72.1057 93.4432 72.2187 93.461C72.2668 93.6195 72.3539 93.7669 72.4815 93.8876C72.6271 94.0263 72.8052 94.1126 72.9916 94.1455C73.0521 94.1562 73.1136 94.1607 73.175 94.1599C73.4121 94.4024 73.7651 94.5153 74.1149 94.4302C74.1484 94.4319 74.2521 94.4671 74.3288 94.4933C74.599 94.5842 74.9729 94.7103 75.4816 94.6765C75.649 94.8591 75.8809 94.9761 76.1362 94.9957C76.5728 95.0294 76.909 94.9556 77.1445 94.7764C77.3091 94.8255 77.4843 94.8859 77.6665 94.9487C77.7463 94.9754 77.8259 95.0032 77.9047 95.0298C78.7439 95.314 79.65 95.5847 80.7041 95.5128C81.1839 95.5415 81.5616 95.532 81.8859 95.5078C81.9974 95.7683 82.2196 95.9755 82.503 96.0635C82.555 96.08 82.6798 96.139 82.7792 96.1861C83.054 96.3169 83.4145 96.4893 83.8324 96.563C83.9031 96.5755 83.9754 96.585 84.0492 96.5917C84.2553 96.609 84.4582 96.5603 84.6315 96.4578C84.7407 96.5636 84.876 96.6467 85.0314 96.6941C85.1617 96.734 85.2739 96.7622 85.3764 96.7803C85.4662 96.8278 85.5625 96.8628 85.6649 96.8808C85.6916 96.8855 85.7184 96.8892 85.7454 96.8918C85.9147 96.908 86.0803 96.9034 86.2469 96.881C86.4466 96.893 86.6438 96.9003 86.8388 96.903C86.9911 97.0576 87.1945 97.1621 87.4228 97.1908L88.0701 97.2701C88.1503 97.2821 88.2257 97.2922 88.2969 97.3016C88.4138 97.4595 88.5766 97.5844 88.775 97.651L88.9476 97.7089C88.9955 97.7248 89.0439 97.7375 89.0931 97.7462C89.2078 97.7664 89.3241 97.7658 89.4377 97.7446C89.4652 97.7505 89.4937 97.7566 89.5234 97.7619C89.6125 97.7776 89.7129 97.789 89.821 97.7869C89.927 97.851 90.0427 97.8957 90.1646 97.9172C90.351 97.9501 90.55 97.9302 90.7356 97.8478C90.8594 97.7925 90.9027 97.7864 91.0187 97.7699C91.1324 97.754 91.2477 97.7353 91.3773 97.7011C91.5693 97.8881 91.8284 97.9877 92.0915 97.9813C92.142 97.9944 92.1948 98.0069 92.2407 98.016L92.2478 98.0173C92.399 98.2203 92.6209 98.3577 92.8688 98.4014C92.9692 98.4191 93.0733 98.4216 93.1785 98.4064C93.4634 98.3658 93.693 98.3217 93.9153 98.2648C94.2772 98.1955 94.5746 97.9586 94.7071 97.626C94.8436 97.2835 94.7858 96.8984 94.5567 96.6045C94.3761 96.3645 94.1129 96.222 93.7767 96.1817C93.6766 96.1683 93.5626 96.1619 93.4316 96.1621C93.1078 95.9318 92.7625 95.7631 92.4064 95.6623C92.2386 95.6137 92.0652 95.5789 91.8855 95.5557C91.6765 95.3689 91.3942 95.2747 91.1059 95.3105C90.8456 95.3428 90.6141 95.3917 90.411 95.4594C90.3853 95.4433 90.3597 95.4271 90.3324 95.4139L90.0831 95.2886C89.9562 95.1997 89.8022 95.1324 89.6218 95.0953C89.5596 95.0822 89.4975 95.0755 89.4352 95.0751C89.2679 94.904 89.0376 94.7419 88.7177 94.6274C88.7097 94.625 88.7019 94.6215 88.6928 94.6188C88.4134 94.5262 88.0927 94.476 87.6517 94.4553C87.5187 94.4488 87.384 94.4461 87.2525 94.443C87.0518 94.1076 86.6672 93.9163 86.27 93.9708L86.2224 93.9772C86.1666 93.922 86.1043 93.874 86.0346 93.8322C85.7402 93.6567 85.495 93.5733 85.2799 93.5354C85.1098 93.3681 84.8784 93.2607 84.6221 93.2525L84.616 93.2514C84.5557 93.2038 84.4905 93.1606 84.4183 93.1268C84.0718 92.9653 83.7179 92.8575 83.3348 92.79C83.0273 92.7368 82.7558 92.7312 82.5379 92.7266L82.4358 92.7244C82.3821 92.7234 82.3211 92.7221 82.2633 92.7204C82.1189 92.5988 81.9389 92.5174 81.739 92.4949C81.1228 92.4253 80.6636 92.394 80.2887 92.5856L80.1135 92.3329C79.935 92.0754 79.6439 91.9174 79.3308 91.9076C79.2363 91.9046 79.1433 91.9168 79.0537 91.94C78.9537 91.7883 78.812 91.6629 78.637 91.5835C78.0394 91.3123 77.473 91.0561 76.969 91.4647C76.7667 91.4438 76.5698 91.4883 76.3994 91.5798C76.3429 91.5349 76.2815 91.4935 76.2153 91.4617C75.9681 91.3421 75.6838 91.3311 75.4314 91.427C75.3252 91.4062 75.2223 91.3965 75.1282 91.3915C74.9455 91.1871 74.7041 91.0527 74.5473 90.9659C74.3875 90.8775 74.2097 90.8377 74.0343 90.8437C73.9705 90.7744 73.8949 90.7061 73.8021 90.6391C73.6028 90.4275 73.3159 90.3115 73.0166 90.3316C72.8691 90.3415 72.6605 90.3564 72.4534 90.4171C72.3392 90.322 72.2035 90.2526 72.0558 90.216C71.7582 90.1424 71.3606 90.1568 70.9824 90.5168C70.8785 90.5007 70.7741 90.4822 70.6807 90.4668C70.334 90.4078 69.9495 90.3421 69.5639 90.3069C69.3859 90.2258 69.1898 90.1701 68.9967 90.115C68.6839 90.026 68.2845 89.925 67.8617 89.8187C67.4906 89.7248 67.1114 89.6294 66.792 89.5414C66.779 89.5317 66.7659 89.522 66.7528 89.5123C66.3928 89.2597 65.9231 89.2815 65.5894 89.5332C65.5798 89.5336 65.5702 89.534 65.5596 89.5343C65.4112 89.2979 65.1649 89.1309 64.8716 89.0813L64.806 89.0697C64.5707 88.8708 64.2486 88.7866 63.933 88.863L63.7577 88.9049C63.6573 88.8513 63.5456 88.8137 63.429 88.7984C63.0226 88.7426 62.6231 88.7323 62.236 88.7232C62.0908 88.7198 61.9436 88.716 61.7957 88.71C61.367 88.6915 60.8565 88.6511 60.3175 88.4853C60.0701 88.4089 59.8142 88.4346 59.5958 88.5408C59.5876 88.5393 59.5804 88.5381 59.5724 88.5356C59.232 88.4597 58.9513 88.3564 58.8006 88.2886C58.769 88.2461 58.735 88.2052 58.6982 88.1681C58.4358 87.9011 58.0449 87.8057 57.6888 87.9204C57.6216 87.9423 57.5602 87.9727 57.5004 88.0065C57.3827 87.9256 57.2458 87.8571 57.0885 87.8029C56.9062 87.7401 56.7102 87.732 56.5255 87.7786C56.4951 87.7775 56.4565 87.7749 56.4273 87.7729C56.2499 87.7607 56.0918 87.7645 55.9506 87.7808C55.7625 87.661 55.5385 87.6078 55.311 87.6342C55.2016 87.6434 54.8335 87.6102 54.6131 87.5904C54.3479 87.5668 54.0743 87.5429 53.8449 87.5384C53.7312 87.5363 53.513 87.5337 53.2812 87.5963L52.9654 87.4942C52.6536 87.3938 52.3214 87.4567 52.071 87.6428C51.6985 87.575 51.3174 87.4898 50.9272 87.402C50.3086 87.2623 49.6736 87.1197 49.0282 87.0418C48.8825 86.9517 48.714 86.9009 48.5384 86.8963C48.1926 86.8871 47.7987 86.8504 47.4184 86.815C46.8562 86.7624 46.3178 86.7128 45.8369 86.7326C45.813 86.6407 45.7769 86.552 45.7272 86.4682C45.561 86.1949 45.2721 86.0183 44.9528 85.9958C44.6221 85.9723 44.3526 86.0209 44.1429 86.1382L44.1378 86.1373C43.9248 86.087 43.7548 86.0391 43.5897 85.9931C43.1105 85.859 42.7432 85.7678 42.175 85.7732C41.9091 85.6101 41.6164 85.5448 41.4609 85.51C41.1875 85.4491 40.8852 85.4085 40.6338 85.3969C40.5418 85.3194 40.4351 85.2594 40.3177 85.2186C39.2495 84.8549 38.2653 84.8599 37.3963 84.8641C37.3541 84.864 37.3128 84.8641 37.2704 84.8651C37.0995 84.6543 36.8441 84.5153 36.553 84.5009L35.6703 84.4573C35.5373 84.4507 35.41 84.4716 35.2918 84.513C35.0865 84.4135 34.8524 84.387 34.6286 84.4405C34.5624 84.4563 34.501 84.475 34.4444 84.4967C34.3957 84.4733 34.348 84.4502 34.3033 84.4285C34.0024 84.2836 33.7757 84.1739 33.5478 84.1242C32.7165 83.891 32.2206 83.9958 31.8573 84.0733C31.5939 84.1293 31.4349 84.1625 31.0121 84.0563C30.9969 84.0526 30.9818 84.0488 30.9664 84.0461C30.8871 83.9804 30.7925 83.9183 30.6791 83.8603C30.4793 83.7595 30.2552 83.7306 30.0417 83.7732C29.9088 83.7361 29.766 83.7014 29.6213 83.6653C29.5526 83.6479 29.4695 83.628 29.3908 83.6067C29.2176 83.4452 28.9866 83.3474 28.7361 83.3423C28.554 83.3387 28.4168 83.3441 28.3047 83.3571C28.2399 83.3647 28.1798 83.3763 28.1222 83.3914C27.9247 83.3556 27.7346 83.3252 27.5462 83.2973C27.1371 83.2336 26.7148 83.1665 26.1859 83.0331C25.9251 82.9248 25.6801 82.8943 25.443 82.9391C25.3632 82.9546 25.288 82.9794 25.2168 83.0122C24.9075 82.9809 24.6855 83.0062 24.4583 83.0845C24.357 82.9705 24.2412 82.8899 24.112 82.8322C23.9406 82.5401 23.6233 82.3447 23.2634 82.3435C22.7885 82.3411 22.3584 82.2283 22.0358 82.1292C22.0138 82.1221 21.9928 82.1153 21.971 82.1072C21.8015 81.8946 21.5456 81.7523 21.2528 81.7355C20.9725 81.7199 20.7425 81.6762 20.4769 81.6251L20.4554 81.6213C20.3187 81.594 20.1806 81.5982 20.0507 81.6281C19.9748 81.6211 19.8984 81.6234 19.8213 81.6352C19.7487 81.6456 19.6815 81.6612 19.6201 81.68C19.4983 81.592 19.3527 81.5314 19.1957 81.5048C19.1527 81.4972 19.1052 81.491 19.0538 81.483C18.8799 81.3615 18.6911 81.3176 18.5463 81.3005C17.8538 81.0643 17.4589 81.0454 16.9729 81.2143C16.9482 81.2226 16.9188 81.2333 16.8521 81.2342C16.5076 80.9537 16.0465 80.8429 15.823 80.8225C15.5924 80.8008 15.3726 80.8613 15.1922 80.9795C14.8747 80.9056 14.6451 80.8894 14.4246 80.8822C14.3165 80.8779 14.2694 80.8759 14.2064 80.8617L13.9371 80.7772C13.708 80.7051 13.4716 80.7216 13.2653 80.8077C13.1064 80.7681 12.9057 80.6904 12.7089 80.6145C12.3836 80.4885 11.999 80.3394 11.5598 80.2545C11.4394 80.1108 11.2614 79.9759 11.0024 79.8753C10.9184 79.8425 10.8312 79.8218 10.7408 79.8133C10.312 79.7715 10.1246 79.6962 9.86508 79.5923C9.55329 79.4677 9.16551 79.3127 8.46398 79.2238C8.29555 79.2026 8.12894 79.225 7.97807 79.2839C7.95155 79.2666 7.92365 79.2511 7.89454 79.2364C7.90039 79.2153 7.90436 79.1928 7.90816 79.1712C7.97316 79.0961 8.03853 79.0189 8.10323 78.9395C8.26164 78.8618 8.39528 78.7628 8.50584 78.6809C8.51789 78.6725 8.52892 78.6638 8.54097 78.6554C8.66497 78.5991 8.75999 78.5335 8.81903 78.4921C9.04522 78.3355 9.18733 78.0987 9.23044 77.8422C9.43684 77.5702 9.62643 77.3036 9.7395 77.0278L10.1131 76.724C10.1514 76.6927 10.1881 76.658 10.222 76.6217C10.8038 75.9818 11.0457 75.5206 11.2557 75.114C11.4433 75.0626 11.6165 74.9547 11.7502 74.7956C11.8009 74.7359 11.8504 74.677 11.8984 74.62C12.0306 74.4637 12.1452 74.3286 12.2368 74.2043C12.2996 74.1182 12.3491 74.035 12.3885 73.9554C12.5128 73.8072 12.6298 73.6293 12.7635 73.4279C12.8112 73.355 12.8783 73.2559 12.9449 73.1599C12.9633 73.1452 12.9828 73.1307 13.0014 73.1149C13.053 73.068 13.1003 73.0215 13.1445 72.9743C13.2405 72.8793 13.336 72.7747 13.4632 72.5869C13.5516 72.4567 13.6048 72.3108 13.6236 72.1621C13.7656 72.0456 13.8748 71.8937 13.9343 71.7183C13.9372 71.7135 13.9402 71.7088 13.9431 71.704C13.9869 71.6293 14.0366 71.5451 14.0797 71.4566C14.0865 71.442 14.0931 71.4284 14.0989 71.4135C14.6721 70.8946 15.2261 70.2085 15.7652 69.541C15.8125 69.4828 15.8597 69.4245 15.9059 69.3661C16.4674 69.3088 16.8042 68.8126 16.9226 68.6381C17.0313 68.4766 17.0865 68.2899 17.0899 68.1025C17.1452 68.0647 17.1979 68.0233 17.2459 67.9726L17.4879 67.7206C17.581 67.624 17.6492 67.5124 17.6953 67.3949C18.2079 66.7279 18.696 66.1042 19.0982 65.6026C19.1533 65.5659 19.205 65.5243 19.2526 65.4756C19.8035 64.9211 19.9474 64.5841 20.0627 64.2358C20.6427 64.1036 21.0577 63.5293 21.4345 63.0095C21.5839 62.8035 21.7556 62.5665 21.9231 62.3711C21.999 62.3359 22.0716 62.2895 22.1385 62.2337C22.5601 61.8792 22.8904 61.3903 23.2395 60.872C23.4443 60.5669 23.6557 60.2546 23.8939 59.9523C24.0632 59.8543 24.2 59.7073 24.2862 59.5303C24.5312 59.0274 25.1128 58.2152 25.6601 57.4773C25.6668 57.4753 25.6745 57.4735 25.6812 57.4715C25.8939 57.415 26.0819 57.2897 26.2152 57.1147C26.3457 56.9433 26.4251 56.7809 26.4694 56.6314C26.5186 56.6157 26.5665 56.5957 26.614 56.5723C27.1546 56.298 27.4965 55.7963 27.7715 55.3928C27.7899 55.3664 27.8085 55.3391 27.8258 55.3125C27.9488 55.2497 28.0596 55.1605 28.1491 55.0484C28.6319 54.4428 28.8573 54.0632 29.0568 53.7287C29.2039 53.4811 29.3374 53.2574 29.5795 52.9389C29.5934 52.9318 29.6081 52.926 29.6221 52.9189C30.019 52.7164 30.6073 52.1536 30.8649 51.597C30.8923 51.5374 30.9138 51.4757 30.928 51.4127C31.045 51.3425 31.1483 51.2477 31.2275 51.1339C31.3617 51.0741 31.4843 50.9837 31.5846 50.8641C32.9406 49.2421 33.0774 48.8257 33.1216 48.6888C33.1447 48.6179 33.1593 48.5466 33.1667 48.475C33.3472 48.2058 33.5582 47.9198 33.7982 47.6188C34.2719 47.4425 34.7102 46.9335 35.4025 46.1282C35.7706 45.6999 36.3869 44.9846 36.6138 44.8536C36.7599 44.78 36.8847 44.6711 36.9781 44.5365C37.6443 43.5797 38.4335 42.6985 39.2696 41.7665C39.8665 41.1007 40.4834 40.412 41.1137 39.6348C41.2379 39.4814 41.3089 39.3006 41.3279 39.1149C41.4985 39.0277 41.6719 38.9009 41.8494 38.7273C42.0497 38.5313 42.1488 38.2689 42.1453 38.0073C42.3782 37.9745 42.5947 37.8606 42.7536 37.6784C42.8992 37.5118 42.9874 37.4186 43.0363 37.3691C43.2632 37.2866 43.464 37.1477 43.7299 36.8978C43.9035 36.734 44.008 36.519 44.0338 36.2944C44.1128 36.1942 44.2258 36.0621 44.3731 35.9095C44.5113 35.767 44.5971 35.592 44.6323 35.4102C44.8139 35.2669 45.0092 35.1059 45.2378 34.8515C45.3727 34.7813 45.4934 34.6779 45.5865 34.5454C45.7231 34.3519 45.9702 34.0406 46.2332 33.7109C46.8817 32.8968 47.432 32.1901 47.7874 31.6C47.8837 31.5451 47.9733 31.4743 48.0502 31.3854C48.6799 30.6599 49.2938 29.826 49.8891 29.0194C50.4779 28.2201 51.0416 27.4555 51.5559 26.8807C51.7387 26.8147 51.9033 26.6959 52.0245 26.5292C52.1351 26.3755 52.2169 26.2294 52.2829 26.1122C52.309 26.0661 52.3308 26.0266 52.3516 25.9922C52.4827 25.9319 52.6168 25.8362 52.7473 25.6892C52.7869 25.6444 52.8217 25.5967 52.853 25.5451L52.8587 25.5366C52.9739 25.3446 53.0759 25.1852 53.1649 25.0519C53.267 25.0002 53.3615 24.9313 53.4436 24.8433C54.3681 23.8529 54.8937 23.0351 55.402 22.2428C55.6524 21.8528 55.8914 21.4798 56.1759 21.0885C56.2666 21.0474 56.3627 20.9936 56.4611 20.9265C56.6353 20.8072 56.8396 20.6373 57.0843 20.4058C57.391 20.1155 57.719 19.7709 57.9832 19.489C58.0742 19.4343 58.1571 19.3655 58.2288 19.282C59.259 18.0757 60.0139 17.0058 60.7425 15.9702C61.1271 15.4244 61.5232 14.8615 61.9652 14.2719C62.0481 14.2031 62.1357 14.1256 62.2266 14.0413C62.3904 14.4419 62.5217 14.782 62.6303 15.0821C62.7212 15.3336 62.9027 15.5262 63.1264 15.6354C63.2075 15.8165 63.3043 15.9921 63.3952 16.1538C63.3646 16.7283 63.6294 17.3591 64.0533 18.2916C64.1204 18.4386 64.1857 18.5832 64.2468 18.7218C64.3039 18.8533 64.3875 18.9663 64.4896 19.0582C64.4961 19.2009 64.5322 19.3435 64.6026 19.4774L64.9713 20.172C65.0236 20.271 65.091 20.3557 65.168 20.4284C65.4599 21.1211 65.8004 21.8138 66.1201 22.4627C66.5673 23.3707 67.0743 24.4013 67.1069 24.8158C67.1192 24.9796 67.1728 25.1369 67.2614 25.275C67.3824 25.4633 67.5078 25.6987 67.6392 25.9479C67.6844 26.033 67.7296 26.1181 67.7757 26.2044C67.765 26.3546 67.7889 26.5067 67.8473 26.649C68.3108 27.7817 68.5825 28.4454 69.1151 29.5945C69.1068 29.7431 69.1326 29.8965 69.1948 30.0406C69.4836 30.7094 69.8617 31.0687 70.1377 31.3307C70.2418 31.4293 70.325 31.5084 70.3957 31.5927C70.3408 31.808 70.3607 32.0365 70.4515 32.2405C70.685 32.7613 70.9044 33.3143 71.1166 33.8482C71.4669 34.7307 71.8268 35.637 72.2862 36.506C72.2956 36.608 72.321 36.7097 72.3649 36.8082C72.4265 36.9501 72.5098 37.1549 72.6062 37.3926C73.0625 38.5188 73.3642 39.2638 73.7335 39.6733C73.8766 40.0598 74.1557 40.5917 74.6339 41.4259C74.624 41.6618 74.6982 41.8999 74.8553 42.0934C74.9472 42.2068 75.0257 42.3009 75.0955 42.384C75.3223 42.6553 75.4207 42.7741 75.6113 43.1193C75.616 43.1941 75.6292 43.2692 75.6521 43.343C75.6655 43.3866 75.6793 43.4281 75.6945 43.4677C75.8451 43.8957 75.984 44.1145 76.1337 44.3257C76.1338 44.4567 76.1591 44.589 76.2138 44.7159C76.5266 45.446 76.6513 45.6254 76.9044 45.9214C76.936 45.9576 76.97 45.9984 77.0118 46.0491C77.1843 46.3647 77.3852 46.9441 77.4319 47.1826C77.3951 47.5289 77.5441 47.8763 77.8323 48.0866C77.8428 48.099 77.8548 48.1149 77.8693 48.1343C77.8704 48.2422 77.889 48.3522 77.9274 48.4583C78.0348 48.7592 78.1462 49.026 78.2568 49.2673C78.0675 49.5804 78.0606 49.9848 78.2693 50.311C78.338 50.4182 78.4152 50.5374 78.4985 50.6641C78.8561 51.212 79.3285 51.9353 79.6002 52.5452C79.6003 52.6582 79.6193 52.7725 79.6598 52.8842C79.7388 53.1009 79.8351 53.3038 79.9605 53.515C80.0241 53.6994 80.0797 53.8571 80.1522 54.0389C80.1983 54.3945 80.3874 54.8018 80.6503 55.3657C80.7155 55.505 80.7758 55.636 80.8209 55.7401C80.925 55.9824 81.1209 56.1711 81.3616 56.2675C81.421 56.3139 81.4798 56.3517 81.5377 56.383C81.569 56.5227 81.6016 56.6615 81.633 56.7949C81.6822 57.0011 81.7469 57.2755 81.766 57.4003C81.7527 57.5839 81.7898 57.7689 81.877 57.9332C82.0621 58.2848 82.2531 58.6755 82.456 59.0884C82.8903 59.9741 83.3078 60.823 83.7332 61.4652C83.7308 61.6348 83.7733 61.8071 83.8618 61.9642C83.9868 62.1838 84.1473 62.5131 84.3024 62.832C84.5993 63.4421 84.8171 63.8787 85.0274 64.1893C85.0356 64.3228 85.0682 64.4732 85.1371 64.6396C85.1417 64.7154 85.1557 64.7918 85.1782 64.8676C85.618 66.3151 86.2399 67.3828 86.8416 68.4152C87.4522 69.463 88.0295 70.4541 88.4544 71.8663C88.4717 71.9295 88.4909 71.9942 88.5108 72.0611L88.517 72.0801C88.5603 72.224 88.6338 72.3521 88.7284 72.4564C89.2804 73.8244 89.917 75.1862 90.536 76.5101C91.383 78.3199 92.2581 80.1916 92.8833 82.0193L92.8918 82.043C93.1754 82.807 93.3786 83.1101 93.6476 83.4596C93.6337 83.6822 93.6957 83.9054 93.8277 84.0913L94.4333 84.946C94.7007 85.4241 94.8408 85.9114 95.0037 86.4735C95.2317 87.2647 95.49 88.1606 96.1532 89.1912C96.2188 89.2925 96.3008 89.3788 96.393 89.4489C96.4151 89.4972 96.4382 89.5456 96.4604 89.5939C96.5653 89.8194 96.7116 90.1336 96.7909 90.325C96.794 90.5231 96.8568 90.7179 96.9763 90.8848C96.9881 91.022 97.0295 91.1582 97.1014 91.2839L97.8881 92.669C97.7046 93.206 97.9887 93.8592 98.2289 94.4138C98.2373 94.4322 98.2457 94.4506 98.2551 94.4691C98.4119 94.7778 98.659 95.1857 98.9147 95.5625C99.2705 96.0847 99.7124 96.7351 100.485 96.4742C100.566 96.4473 100.638 96.4072 100.707 96.3634C100.749 96.3486 100.79 96.3315 100.83 96.3121C101.054 96.2767 101.311 96.1762 101.526 95.9237C102.001 95.3672 101.823 94.6071 101.58 93.8101L101.585 93.8014ZM93.1669 97.9744C93.2481 97.9454 93.3264 97.9085 93.4018 97.8648L93.4156 97.882L93.4181 98.1074C93.3424 98.0814 93.2539 98.0384 93.1669 97.9744ZM73.5766 90.9299C73.5004 90.907 73.4024 90.8696 73.3076 90.8318L73.3761 90.6653C73.4498 90.7322 73.5205 90.8228 73.5766 90.9299ZM73.1135 90.5789L73.0973 90.7429C73.0274 90.7137 72.9566 90.6843 72.8835 90.6556C72.9632 90.6168 73.0428 90.5907 73.1145 90.5791L73.1135 90.5789ZM18.694 81.3435C18.694 81.3435 18.6859 81.341 18.682 81.3392C18.682 81.3392 18.69 81.3417 18.694 81.3435ZM16.6755 68.6315L16.5755 68.5642C16.6335 68.4984 16.6912 68.4346 16.7474 68.3738C16.7409 68.4825 16.714 68.5749 16.6755 68.6315Z" stroke="#FF5065" stroke-width="5.55556" mask="url(#path-1-outside-1_709_48512)"/>
</svg>
