<svg width="32" height="32" viewBox="0 0 32 32" fill="none" xmlns="http://www.w3.org/2000/svg">
<path d="M21.3346 6.66406H8.0013C7.26492 6.66406 6.66797 7.26102 6.66797 7.9974V25.3307C6.66797 26.0671 7.26492 26.6641 8.0013 26.6641H21.3346C22.071 26.6641 22.668 26.0671 22.668 25.3307V7.9974C22.668 7.26102 22.071 6.66406 21.3346 6.66406Z" fill="#FFE39E"/>
<path d="M20.2669 9.16406H9.06686C8.70849 9.16406 8.41797 9.45458 8.41797 9.81295V24.133C8.41797 24.4913 8.70849 24.7818 9.06686 24.7818H20.2669C20.6252 24.7818 20.9157 24.4913 20.9157 24.133V9.81295C20.9157 9.45458 20.6252 9.16406 20.2669 9.16406Z" fill="white"/>
<path d="M11.0248 15.0271C10.922 15.0271 10.8193 14.9885 10.7423 14.9115L9.89485 14.0641C9.74078 13.91 9.74078 13.6532 9.89485 13.4991C10.0489 13.345 10.3057 13.345 10.4598 13.4991L11.0248 14.0641L12.0905 12.9984C12.2445 12.8443 12.5013 12.8443 12.6554 12.9984C12.8095 13.1524 12.8095 13.4092 12.6554 13.5633L11.3072 14.9115C11.2302 14.9885 11.1275 15.0271 11.0248 15.0271Z" fill="#FF5065"/>
<path d="M11.0248 19.9255C10.922 19.9255 10.8193 19.887 10.7423 19.8099L9.89485 18.9625C9.74078 18.8084 9.74078 18.5516 9.89485 18.3976C10.0489 18.2435 10.3057 18.2435 10.4598 18.3976L11.0248 18.9625L12.0905 17.8968C12.2445 17.7427 12.5013 17.7427 12.6554 17.8968C12.8095 18.0509 12.8095 18.3077 12.6554 18.4618L11.3072 19.8099C11.2302 19.887 11.1275 19.9255 11.0248 19.9255Z" fill="#FF5065"/>
<path d="M10.1251 5.32812H9.87621C9.57675 5.32812 9.33398 5.57089 9.33398 5.87035V7.45257C9.33398 7.75203 9.57675 7.99479 9.87621 7.99479H10.1251C10.4246 7.99479 10.6673 7.75203 10.6673 7.45257V5.87035C10.6673 5.57089 10.4246 5.32812 10.1251 5.32812Z" fill="#FFC747"/>
<path d="M14.7911 5.32812H14.5422C14.2428 5.32812 14 5.57089 14 5.87035V7.45257C14 7.75203 14.2428 7.99479 14.5422 7.99479H14.7911C15.0906 7.99479 15.3333 7.75203 15.3333 7.45257V5.87035C15.3333 5.57089 15.0906 5.32812 14.7911 5.32812Z" fill="#FFC747"/>
<path d="M19.4591 5.32812H19.2102C18.9107 5.32812 18.668 5.57089 18.668 5.87035V7.45257C18.668 7.75203 18.9107 7.99479 19.2102 7.99479H19.4591C19.7585 7.99479 20.0013 7.75203 20.0013 7.45257V5.87035C20.0013 5.57089 19.7585 5.32812 19.4591 5.32812Z" fill="#FFC747"/>
<path d="M20.5638 22.7175C22.503 22.7175 24.075 21.1456 24.075 19.2064C24.075 17.2673 22.503 15.6953 20.5638 15.6953C18.6247 15.6953 17.0527 17.2673 17.0527 19.2064C17.0527 21.1456 18.6247 22.7175 20.5638 22.7175Z" fill="white"/>
<path fill-rule="evenodd" clip-rule="evenodd" d="M26.182 23.9126L24.0753 21.8015C24.2886 21.517 24.4664 21.2059 24.6042 20.877C24.822 20.3481 24.9375 19.7792 24.9375 19.2015C24.9375 18.0415 24.4753 16.9303 23.6575 16.1081C22.8398 15.2859 21.7242 14.8281 20.5642 14.8281C19.4042 14.8281 18.2931 15.2903 17.4753 16.1081C16.6575 16.9259 16.1953 18.037 16.1953 19.197C16.1953 19.7703 16.3064 20.3392 16.5286 20.8681C16.7509 21.397 17.0709 21.8815 17.4753 22.2859C17.8798 22.6903 18.3642 23.0148 18.8931 23.2326C19.422 23.4503 19.9909 23.5659 20.5642 23.5659C21.1375 23.5659 21.7064 23.4548 22.2398 23.2326C22.5731 23.0948 22.8842 22.9126 23.1686 22.6992L25.2709 24.8059C25.4042 24.9392 25.6175 24.9392 25.7509 24.8059L26.182 24.3748C26.3153 24.2415 26.3153 24.0281 26.182 23.8948V23.9126ZM20.5642 22.2903C19.7464 22.2903 18.9598 21.9659 18.382 21.3881C17.8042 20.8103 17.4798 20.0237 17.4798 19.2059C17.4798 18.3881 17.8042 17.6015 18.382 17.0237C18.9598 16.4459 19.7464 16.1215 20.5642 16.1215C21.382 16.1215 22.1686 16.4459 22.7464 17.0237C23.3242 17.6015 23.6486 18.3881 23.6486 19.2059C23.6486 20.0237 23.3242 20.8103 22.7464 21.3881C22.1686 21.9659 21.382 22.2903 20.5642 22.2903Z" fill="#FF5065"/>
</svg>
