<svg width="42" height="42" viewBox="0 0 42 42" fill="none" xmlns="http://www.w3.org/2000/svg">
<path d="M31.4934 10.0743C31.4934 9.6246 31.4116 9.14422 31.2379 8.73028C30.4969 6.97743 28.3505 6.45617 26.7714 7.63156C24.022 9.6757 21.2931 11.7403 18.5437 13.7895C18.3853 13.9071 18.1502 13.9837 17.9509 13.9889C16.6733 14.0042 15.4008 13.994 14.1232 13.9991C12.0127 14.0042 10.5051 15.5117 10.5 17.6325C10.5 19.8811 10.5 22.1297 10.5 24.3782C10.5 26.4939 12.0127 27.9964 14.1335 28.0015C15.3957 28.0015 16.6631 27.9913 17.9254 28.0117C18.1349 28.0117 18.3802 28.0884 18.5488 28.2161C21.2675 30.2398 23.976 32.2737 26.6845 34.3128C27.2109 34.7114 27.7884 34.972 28.4527 34.9976C30.134 35.064 31.4934 33.7609 31.4985 32.0591C31.5087 28.3796 31.4985 24.6951 31.4985 21.0156C31.4985 17.3719 31.5087 13.7231 31.4883 10.0794L31.4934 10.0743Z" fill="#FFC747"/>
</svg>
