<svg width="32" height="32" viewBox="0 0 32 32" fill="none" xmlns="http://www.w3.org/2000/svg">
<path d="M8 9.58594V24.644C8.02816 25.1894 8.25123 25.7026 8.62329 26.0778C8.99536 26.4531 9.48809 26.6617 10 26.6609H22C22.5119 26.6617 23.0046 26.4531 23.3767 26.0778C23.7488 25.7026 23.9718 25.1894 24 24.644V9.58594H8Z" fill="#F9F9F9"/>
<path d="M11.6848 15.9906C11.5474 15.9906 11.4101 15.9331 11.3071 15.8181L10.174 14.5528C9.96803 14.3227 9.96803 13.9393 10.174 13.7093C10.38 13.4792 10.7234 13.4792 10.9294 13.7093L11.6848 14.5528L13.1097 12.9616C13.3157 12.7315 13.659 12.7315 13.865 12.9616C14.071 13.1917 14.071 13.5751 13.865 13.8051L12.0624 15.8181C11.9594 15.9331 11.8221 15.9906 11.6848 15.9906Z" fill="#FF5065"/>
<path d="M11.6848 22.3969C11.5474 22.3969 11.4101 22.3394 11.3071 22.2243L10.174 20.959C9.96803 20.729 9.96803 20.3456 10.174 20.1155C10.38 19.8855 10.7234 19.8855 10.9294 20.1155L11.6848 20.959L13.1097 19.3679C13.3157 19.1378 13.659 19.1378 13.865 19.3679C14.071 19.5979 14.071 19.9813 13.865 20.2114L12.0624 22.2243C11.9594 22.3394 11.8221 22.3969 11.6848 22.3969Z" fill="#FF5065"/>
<path d="M24 7.4625C24 6.89642 23.7893 6.35353 23.4142 5.95326C23.0391 5.55299 22.5304 5.32812 22 5.32812H10C9.46957 5.32812 8.96086 5.55299 8.58579 5.95326C8.21071 6.35353 8 6.89642 8 7.4625V9.59687H24V7.4625Z" fill="#FFAFB9"/>
</svg>
