<svg width="32" height="32" viewBox="0 0 32 32" fill="none" xmlns="http://www.w3.org/2000/svg">
<path d="M7.46484 9.60156V24.6549C7.49151 25.2016 7.73151 25.7082 8.13151 26.0949C8.53151 26.4682 9.05151 26.6816 9.59818 26.6816H22.3982C22.9448 26.6816 23.4648 26.4682 23.8648 26.0949C24.2648 25.7216 24.5048 25.2016 24.5315 24.6549V9.60156H7.46484Z" fill="#F9F9F9"/>
<path d="M15.4514 19.7428C15.2247 19.7428 15.0114 19.6495 14.838 19.4761L12.998 17.5561C12.6647 17.2095 12.6647 16.6228 12.998 16.2761C13.3314 15.9295 13.8914 15.9295 14.2247 16.2761L15.4514 17.5561L17.758 15.1428C18.0914 14.7961 18.6514 14.7961 18.9847 15.1428C19.318 15.4895 19.318 16.0761 18.9847 16.4228L16.0647 19.4761C15.8914 19.6495 15.678 19.7428 15.4514 19.7428Z" fill="#FF5065"/>
<path d="M24.5315 7.46146C24.5315 6.90146 24.3048 6.35479 23.9048 5.95479C23.5048 5.55479 22.9582 5.32812 22.3982 5.32812H9.59818C9.03818 5.32812 8.49151 5.55479 8.09151 5.95479C7.69151 6.35479 7.46484 6.90146 7.46484 7.46146V9.59479H24.5448V7.46146H24.5315Z" fill="#FFAFB9"/>
</svg>
