<svg width="22" height="21" viewBox="0 0 22 21" fill="none" xmlns="http://www.w3.org/2000/svg">
<path d="M19.4224 1.44727H2.57794C1.33794 1.44727 0.333496 2.44133 0.333496 3.66851V18.1132C0.333496 19.3404 1.33794 20.3344 2.57794 20.3344H19.4224C20.6624 20.3344 21.6668 19.3404 21.6668 18.1132V3.66851C21.6668 2.44133 20.6624 1.44727 19.4224 1.44727Z" fill="#FFF6E0"/>
<path d="M7.40381 10.5517C7.52381 10.3784 7.68825 10.2406 7.89714 10.1429C8.10603 10.0451 8.34159 9.99619 8.59492 9.99619C8.78159 9.99619 8.95492 10.014 9.10603 10.0495C9.25714 10.0851 9.39048 10.1384 9.49714 10.214C9.60381 10.2895 9.68825 10.374 9.75048 10.4806C9.8127 10.5873 9.83936 10.7073 9.83936 10.8495C9.82603 11.0095 9.81714 11.1784 9.80825 11.3562C9.79936 11.534 9.79492 11.7162 9.78603 11.894C9.77714 12.0717 9.7727 12.2406 9.7727 12.4006C9.7727 12.5606 9.7727 12.6984 9.7727 12.814C9.7727 12.8851 9.78159 12.9517 9.79492 13.0095C9.80825 13.0673 9.84825 13.094 9.91048 13.094C9.9327 13.094 9.95936 13.094 9.99048 13.0806C9.99048 13.0451 9.99048 13.0051 9.99048 12.9606V12.8184C9.99048 12.6451 9.99048 12.4495 9.99936 12.2229C10.0083 11.9962 10.0127 11.7695 10.026 11.5384C10.0394 11.3073 10.0527 11.0851 10.0705 10.8717C10.0883 10.6584 10.106 10.4806 10.1283 10.334C10.2438 10.2629 10.3816 10.2095 10.5416 10.1695C10.7016 10.1295 10.866 10.1073 11.0349 10.1073C11.1683 10.1073 11.2971 10.1162 11.4305 10.1384C11.5638 10.1606 11.6794 10.1962 11.7905 10.2451C11.9016 10.294 11.986 10.3606 12.0571 10.4406C12.1283 10.5206 12.1638 10.6184 12.1727 10.7384C12.1638 10.8851 12.1505 11.0495 12.1283 11.2317C12.106 11.414 12.0838 11.6095 12.0527 11.8095C12.0216 12.0095 11.9949 12.2184 11.9638 12.4317C11.9327 12.6451 11.9016 12.854 11.8705 13.0584C11.8927 13.0673 11.9194 13.0762 11.946 13.0762C11.9816 13.0762 12.0171 13.0629 12.0483 13.0362C12.0794 13.0095 12.1016 12.9473 12.1238 12.8406C12.1683 12.6006 12.2083 12.3606 12.2438 12.1206C12.2794 11.8806 12.3105 11.6495 12.3327 11.4273C12.3549 11.2051 12.3771 10.9917 12.3949 10.7917C12.4127 10.5917 12.4216 10.4051 12.4305 10.2362C12.5283 10.1695 12.6571 10.1117 12.8171 10.0629C12.9771 10.014 13.186 9.9873 13.4527 9.9873C13.626 9.9873 13.786 10.0095 13.9283 10.0584C14.0705 10.1073 14.1905 10.174 14.2927 10.2673C14.3949 10.3606 14.4705 10.4673 14.5238 10.5917C14.5771 10.7162 14.6083 10.8584 14.6083 11.014C14.6083 11.0629 14.5994 11.1473 14.586 11.2584C14.5727 11.3695 14.5505 11.5029 14.5238 11.654C14.4971 11.8051 14.466 11.9695 14.426 12.1517C14.386 12.334 14.3505 12.5162 14.306 12.7073C14.2616 12.8984 14.2171 13.0851 14.1727 13.2762C14.1283 13.4673 14.0794 13.6406 14.0349 13.8051C13.9905 13.9695 13.946 14.1162 13.906 14.2495C13.866 14.3829 13.826 14.4851 13.7905 14.5651C13.7283 14.7073 13.6483 14.8273 13.5549 14.9251C13.4616 15.0229 13.3505 15.0984 13.226 15.1606C13.1016 15.2229 12.9638 15.2629 12.8083 15.2895C12.6527 15.3162 12.4838 15.3295 12.3016 15.3295C12.2216 15.3295 12.1327 15.3251 12.0438 15.3117C11.9549 15.2984 11.8616 15.2851 11.7683 15.2629C11.6749 15.2406 11.5949 15.2184 11.5149 15.1917C11.4349 15.1651 11.3683 15.1384 11.3149 15.1073C11.2838 15.0629 11.2571 15.0051 11.226 14.9429C11.1949 14.8806 11.1638 14.8095 11.1371 14.7384C11.1105 14.6673 11.0838 14.5962 11.0616 14.5295C11.0394 14.4629 11.0216 14.4006 11.0127 14.3473C10.9505 14.3473 10.9105 14.3651 10.8883 14.3962C10.866 14.4273 10.8571 14.4673 10.8571 14.5162C10.8571 14.574 10.8705 14.6406 10.8927 14.7251C10.9149 14.8095 10.946 14.8984 10.9816 14.9917C10.8305 15.1162 10.6527 15.2006 10.4571 15.254C10.2616 15.3073 10.0349 15.3295 9.78159 15.3295C9.67492 15.3295 9.56825 15.3295 9.45714 15.3162C9.34603 15.3029 9.23492 15.294 9.12825 15.2717C9.02159 15.2495 8.92381 15.2184 8.83048 15.1829C8.73714 15.1473 8.66159 15.094 8.59936 15.0362C8.50159 14.8273 8.39492 14.5784 8.28381 14.2851C8.1727 13.9917 8.06159 13.6584 7.95492 13.2851C7.84825 12.9117 7.74603 12.494 7.65714 12.0406C7.56825 11.5873 7.48825 11.094 7.43492 10.5606L7.40381 10.5517Z" fill="#FFC747"/>
<path d="M0.333496 3.42659C0.333496 2.33136 1.22683 1.44727 2.3335 1.44727H19.6668C20.7735 1.44727 21.6668 2.33136 21.6668 3.42659V6.0657H0.333496V3.42659Z" fill="#F3B527"/>
<path d="M7.04772 0.333984H5.9455C5.63439 0.333984 5.3855 0.584699 5.3855 0.888196V3.10944C5.3855 3.41734 5.63883 3.66365 5.9455 3.66365H7.04772C7.35883 3.66365 7.60772 3.41294 7.60772 3.10944V0.888196C7.60772 0.580301 7.35439 0.333984 7.04772 0.333984Z" fill="#FFF6E0"/>
<path d="M16.0543 0.333984H14.9299C14.6188 0.333984 14.3699 0.584699 14.3699 0.888196V3.10944C14.3699 3.41734 14.6232 3.66365 14.9299 3.66365H16.0543C16.3654 3.66365 16.6143 3.41294 16.6143 3.10944V0.888196C16.6143 0.580301 16.361 0.333984 16.0543 0.333984Z" fill="#FFF6E0"/>
</svg>

