<svg width="22" height="21" viewBox="0 0 22 21" fill="none" xmlns="http://www.w3.org/2000/svg">
<path d="M19.4224 1.44727H2.57794C1.33794 1.44727 0.333496 2.44133 0.333496 3.66851V18.1132C0.333496 19.3404 1.33794 20.3344 2.57794 20.3344H19.4224C20.6624 20.3344 21.6668 19.3404 21.6668 18.1132V3.66851C21.6668 2.44133 20.6624 1.44727 19.4224 1.44727Z" fill="#FFF6E0"/>
<path d="M12.3858 9.06055L6.8125 14.5763L8.80361 16.5424L14.3769 11.0267L12.3858 9.06055Z" fill="#FFE39E"/>
<path d="M6.36821 15.016L5.99487 16.1244L7.22598 17.3428L8.35932 16.9822L8.80376 16.5423L6.81265 14.5762L6.36821 15.016Z" fill="#F0F0F0"/>
<path d="M5.3855 17.9328L7.22994 17.3434L5.99883 16.125L5.3855 17.9372V17.9328Z" fill="#999999"/>
<path d="M15.1715 8.6652L14.7715 8.27373C14.5626 8.067 14.2737 7.94824 13.9759 7.94824C13.6781 7.94824 13.3937 8.0626 13.1804 8.27373L12.3804 9.06106L14.3715 11.0316L15.167 10.2399C15.2737 10.1343 15.3537 10.0155 15.4115 9.87919C15.4693 9.74283 15.4959 9.59768 15.4959 9.45253C15.4959 9.30738 15.4648 9.16223 15.4115 9.02588C15.3537 8.88952 15.2737 8.76636 15.167 8.6652H15.1715Z" fill="#FFB3BC"/>
<path d="M0.333496 3.42659C0.333496 2.33136 1.22683 1.44727 2.3335 1.44727H19.6668C20.7735 1.44727 21.6668 2.33136 21.6668 3.42659V6.0657H0.333496V3.42659Z" fill="#FFC747"/>
<path d="M7.04772 0.333984H5.9455C5.63439 0.333984 5.3855 0.584699 5.3855 0.888196V3.10944C5.3855 3.41734 5.63883 3.66365 5.9455 3.66365H7.04772C7.35883 3.66365 7.60772 3.41294 7.60772 3.10944V0.888196C7.60772 0.580301 7.35439 0.333984 7.04772 0.333984Z" fill="#F3B527"/>
<path d="M16.0543 0.333984H14.9299C14.6188 0.333984 14.3699 0.584699 14.3699 0.888196V3.10944C14.3699 3.41734 14.6232 3.66365 14.9299 3.66365H16.0543C16.3654 3.66365 16.6143 3.41294 16.6143 3.10944V0.888196C16.6143 0.580301 16.361 0.333984 16.0543 0.333984Z" fill="#F3B527"/>
</svg>

