<svg width="24" height="24" viewBox="0 0 24 24" fill="none" xmlns="http://www.w3.org/2000/svg">
<path d="M4.00781 17.3525C4.00781 17.7893 4.17622 18.2082 4.47596 18.5171C4.77569 18.826 5.18219 18.9995 5.60608 18.9995H18.3922C18.8161 18.9995 19.2227 18.826 19.5223 18.5171C19.8221 18.2082 19.9905 17.7893 19.9905 17.3525V9.11719H4.00781V17.3525Z" fill="white"/>
<path d="M18.3934 5H5.60729C5.13269 5.05997 4.69973 5.309 4.40103 5.69377C4.10233 6.07854 3.96162 6.5685 4.00902 7.05882V9.11765H19.9917V7.05882C20.037 6.56892 19.8956 6.08008 19.5972 5.69579C19.2989 5.31152 18.8672 5.06197 18.3934 5Z" fill="#FFE39E"/>
<path d="M15.1967 6.23438H14.3976C14.177 6.23438 13.998 6.41873 13.998 6.64614V7.46967C13.998 7.69708 14.177 7.88143 14.3976 7.88143H15.1967C15.4174 7.88143 15.5963 7.69708 15.5963 7.46967V6.64614C15.5963 6.41873 15.4174 6.23438 15.1967 6.23438Z" fill="#FFC747"/>
<path d="M12.3999 6.23438H11.6007C11.3801 6.23438 11.2012 6.41873 11.2012 6.64614V7.46967C11.2012 7.69708 11.3801 7.88143 11.6007 7.88143H12.3999C12.6205 7.88143 12.7994 7.69708 12.7994 7.46967V6.64614C12.7994 6.41873 12.6205 6.23438 12.3999 6.23438Z" fill="#FFC747"/>
<path d="M17.9917 6.23438H17.1925C16.9719 6.23438 16.793 6.41873 16.793 6.64614V7.46967C16.793 7.69708 16.9719 7.88143 17.1925 7.88143H17.9917C18.2123 7.88143 18.3912 7.69708 18.3912 7.46967V6.64614C18.3912 6.41873 18.2123 6.23438 17.9917 6.23438Z" fill="#FFC747"/>
</svg>
