<svg width="32" height="32" viewBox="0 0 32 32" fill="none" xmlns="http://www.w3.org/2000/svg">
<path d="M5.33325 23.1327C5.33325 23.7151 5.5578 24.2737 5.95745 24.6856C6.35709 25.0975 6.89909 25.3288 7.46427 25.3288H24.5124C25.0776 25.3288 25.6197 25.0975 26.0193 24.6856C26.419 24.2737 26.6435 23.7151 26.6435 23.1327V12.1523H5.33325V23.1327Z" fill="white"/>
<path d="M16.0099 15.6644C15.8598 15.5105 15.7248 15.3567 15.5697 15.2183C15.1545 14.8542 14.6693 14.6542 14.119 14.6644C13.0785 14.685 12.3132 15.3875 12.0781 16.3054C11.908 16.9669 12.0231 17.5874 12.3482 18.1822C12.6233 18.6899 12.9885 19.1206 13.3937 19.5257C14.024 20.1513 14.7243 20.6846 15.4646 21.1615C15.6397 21.2743 15.8198 21.3307 15.9999 21.3307C16.18 21.3307 16.365 21.2743 16.5351 21.1615C17.2755 20.6846 17.9758 20.1513 18.6061 19.5257C19.0113 19.1257 19.3764 18.6899 19.6515 18.1822C19.9767 17.5925 20.0917 16.972 19.9217 16.3054C19.6866 15.3875 18.9262 14.685 17.8807 14.6644C17.3305 14.6542 16.8453 14.8542 16.4301 15.2183C16.275 15.3516 16.1399 15.5105 15.9899 15.6644H16.0099Z" fill="#FF5065"/>
<path d="M24.5245 6.66406H7.4763C6.8435 6.74402 6.26622 7.07606 5.86795 7.58909C5.46969 8.10212 5.28207 8.7554 5.34528 9.40916V12.1543H26.6555V9.40916C26.7159 8.75596 26.5273 8.10416 26.1296 7.59179C25.7318 7.07942 25.1561 6.74669 24.5245 6.66406Z" fill="#FFE39E"/>
<path d="M20.2622 8.30859H19.1967C18.9025 8.30859 18.6639 8.5544 18.6639 8.85761V9.95565C18.6639 10.2589 18.9025 10.5047 19.1967 10.5047H20.2622C20.5564 10.5047 20.795 10.2589 20.795 9.95565V8.85761C20.795 8.5544 20.5564 8.30859 20.2622 8.30859Z" fill="#FFC747"/>
<path d="M16.5331 8.30859H15.4676C15.1734 8.30859 14.9348 8.5544 14.9348 8.85761V9.95565C14.9348 10.2589 15.1734 10.5047 15.4676 10.5047H16.5331C16.8273 10.5047 17.0658 10.2589 17.0658 9.95565V8.85761C17.0658 8.5544 16.8273 8.30859 16.5331 8.30859Z" fill="#FFC747"/>
<path d="M23.9915 8.30859H22.9259C22.6318 8.30859 22.3932 8.5544 22.3932 8.85761V9.95565C22.3932 10.2589 22.6318 10.5047 22.9259 10.5047H23.9915C24.2856 10.5047 24.5242 10.2589 24.5242 9.95565V8.85761C24.5242 8.5544 24.2856 8.30859 23.9915 8.30859Z" fill="#FFC747"/>
</svg>
