<svg width="32" height="32" viewBox="0 0 32 32" fill="none" xmlns="http://www.w3.org/2000/svg">
  <path d="M5.34375 23.1327C5.34375 23.7151 5.5683 24.2737 5.96795 24.6856C6.36759 25.0975 6.90959 25.3288 7.47477 25.3288H24.5229C25.0881 25.3288 25.6302 25.0975 26.0298 24.6856C26.4295 24.2737 26.654 23.7151 26.654 23.1327V12.1523H5.34375V23.1327Z" fill="#FFF6E0"/>
  <path d="M24.5272 6.66406H7.47899C6.84619 6.74402 6.26891 7.07606 5.87064 7.58909C5.47237 8.10212 5.28476 8.7554 5.34796 9.40916V12.1543H26.6582V9.40916C26.7186 8.75596 26.53 8.10416 26.1323 7.59179C25.7345 7.07942 25.1588 6.74669 24.5272 6.66406Z" fill="#FFC747"/>
  <path d="M20.2701 8.30859H19.2046C18.9104 8.30859 18.6719 8.5544 18.6719 8.85761V9.95565C18.6719 10.2589 18.9104 10.5047 19.2046 10.5047H20.2701C20.5643 10.5047 20.8029 10.2589 20.8029 9.95565V8.85761C20.8029 8.5544 20.5643 8.30859 20.2701 8.30859Z" fill="#F1F1F1"/>
  <path d="M16.5358 8.30859H15.4703C15.1761 8.30859 14.9375 8.5544 14.9375 8.85761V9.95565C14.9375 10.2589 15.1761 10.5047 15.4703 10.5047H16.5358C16.83 10.5047 17.0685 10.2589 17.0685 9.95565V8.85761C17.0685 8.5544 16.83 8.30859 16.5358 8.30859Z" fill="#F1F1F1"/>
  <path d="M23.9967 8.30859H22.9312C22.637 8.30859 22.3984 8.5544 22.3984 8.85761V9.95565C22.3984 10.2589 22.637 10.5047 22.9312 10.5047H23.9967C24.2909 10.5047 24.5295 10.2589 24.5295 9.95565V8.85761C24.5295 8.5544 24.2909 8.30859 23.9967 8.30859Z" fill="#F1F1F1"/>
</svg>
