<svg width="22" height="21" viewBox="0 0 22 21" fill="none" xmlns="http://www.w3.org/2000/svg">
<path d="M19.4224 1.66699H2.57794C1.33794 1.66699 0.333496 2.66105 0.333496 3.88824V18.3329C0.333496 19.5601 1.33794 20.5542 2.57794 20.5542H19.4224C20.6624 20.5542 21.6668 19.5601 21.6668 18.3329V3.88824C21.6668 2.66105 20.6624 1.66699 19.4224 1.66699Z" fill="#FFF6E0"/>
<path d="M11.5905 13.922C11.6841 13.8998 11.7866 13.8552 11.8979 13.7884C12.0093 13.7215 12.1163 13.6146 12.2143 13.4631C12.2588 13.3918 12.2811 13.3339 12.2811 13.2804C12.2811 13.2092 12.2455 13.1735 12.1742 13.1735C12.1697 13.1735 12.1653 13.1735 12.1608 13.1735C12.1564 13.1735 12.1519 13.1735 12.1475 13.1735C11.9559 13.5701 11.6529 13.7661 11.2341 13.7661C11.1271 13.7661 11.0336 13.7572 10.94 13.7349C10.8464 13.7126 10.7662 13.677 10.686 13.628C10.6058 13.579 10.5345 13.5166 10.4633 13.4364C10.392 13.3562 10.3251 13.2582 10.2628 13.1379H10.2405C10.2093 13.1379 10.187 13.1468 10.1647 13.1601C10.1425 13.1735 10.1335 13.1958 10.1335 13.2314C10.1335 13.276 10.1514 13.325 10.1826 13.3785C10.2405 13.4765 10.3073 13.5567 10.3741 13.628C10.441 13.6993 10.5123 13.7572 10.5836 13.8017C10.6548 13.8463 10.7261 13.8864 10.793 13.9087C10.8598 13.931 10.9266 13.9488 10.9846 13.9532L10.9534 14.7151C10.8821 14.7597 10.8108 14.8042 10.735 14.8399C10.6593 14.8755 10.5702 14.9112 10.4766 14.9335C10.3831 14.9557 10.2717 14.978 10.1469 14.9914C10.0222 15.0047 9.88403 15.0137 9.72809 15.0137C9.57214 15.0137 9.42065 15.0003 9.2558 14.9691C9.09094 14.9379 8.93945 14.8889 8.80579 14.8221C8.67212 14.7552 8.55627 14.6661 8.46716 14.5592C8.37805 14.4523 8.3335 14.3186 8.3335 14.1582C8.3335 14.0735 8.3335 13.9621 8.34686 13.8196C8.36023 13.677 8.36469 13.5121 8.38251 13.3295C8.40033 13.1468 8.4137 12.9507 8.43152 12.7369C8.44934 12.523 8.47162 12.3091 8.4939 12.0953C8.51617 11.8814 8.53845 11.6631 8.55627 11.4537C8.5741 11.2443 8.60083 11.0438 8.61865 10.8611C8.63647 10.6784 8.65875 10.518 8.67657 10.3754C8.6944 10.2328 8.70776 10.1215 8.72113 10.0413C8.79687 9.96997 8.88599 9.91205 8.98846 9.86304C9.09094 9.81403 9.19342 9.77838 9.30035 9.74719C9.40729 9.716 9.51867 9.69818 9.63006 9.68481C9.74145 9.67145 9.84839 9.66699 9.94641 9.66699C10.1291 9.66699 10.3073 9.68927 10.4855 9.72937C10.6638 9.76947 10.8063 9.82294 10.9222 9.88531L11.145 10.6249L11.0024 11.2175C11.0024 11.2175 10.9935 11.2576 10.989 11.2799C10.9846 11.3022 10.989 11.3155 10.989 11.3378C10.989 11.4269 11.0425 11.4759 11.1494 11.4849L11.5326 9.89423C11.5771 9.87195 11.6351 9.84521 11.7064 9.81848C11.7776 9.79175 11.8578 9.76947 11.9425 9.74719C12.0272 9.72491 12.1252 9.70709 12.2277 9.69373C12.3301 9.68036 12.4326 9.67145 12.544 9.67145C12.7356 9.67145 12.9004 9.68481 13.0475 9.716C13.1945 9.74719 13.3104 9.7962 13.4084 9.86304C13.5064 9.92987 13.5821 10.019 13.6401 10.1304C13.698 10.2418 13.7336 10.3754 13.7515 10.5358C13.7693 10.7051 13.7916 10.9101 13.8227 11.1462C13.8539 11.3824 13.8807 11.6363 13.9074 11.9037C13.9341 12.171 13.9653 12.4428 13.9965 12.7146C14.0277 12.9864 14.0544 13.2448 14.0767 13.4854C14.099 13.726 14.1168 13.9399 14.1346 14.1225C14.1525 14.3052 14.1569 14.4433 14.1569 14.5325C13.8584 14.8488 13.4307 15.0047 12.8693 15.0047C12.691 15.0047 12.5306 14.9914 12.3836 14.9602C12.2366 14.929 12.1074 14.8844 12.0049 14.8265C11.9024 14.7686 11.8133 14.6929 11.7509 14.6037C11.6885 14.5146 11.6529 14.4122 11.6395 14.2874L11.6039 13.9087L11.5905 13.922Z" fill="#FFC747"/>
<path d="M0.333496 3.42659C0.333496 2.33136 1.22683 1.44727 2.3335 1.44727H19.6668C20.7735 1.44727 21.6668 2.33136 21.6668 3.42659V6.0657H0.333496V3.42659Z" fill="#D19500"/>
<path d="M7.04772 0.333984H5.9455C5.63439 0.333984 5.3855 0.584699 5.3855 0.888196V3.10944C5.3855 3.41734 5.63883 3.66365 5.9455 3.66365H7.04772C7.35883 3.66365 7.60772 3.41294 7.60772 3.10944V0.888196C7.60772 0.580301 7.35439 0.333984 7.04772 0.333984Z" fill="#FFF6E0"/>
<path d="M16.0543 0.333984H14.9299C14.6188 0.333984 14.3699 0.584699 14.3699 0.888196V3.10944C14.3699 3.41734 14.6232 3.66365 14.9299 3.66365H16.0543C16.3654 3.66365 16.6143 3.41294 16.6143 3.10944V0.888196C16.6143 0.580301 16.361 0.333984 16.0543 0.333984Z" fill="#FFF6E0"/>
</svg>

