<svg width="32" height="32" viewBox="0 0 32 32" fill="none" xmlns="http://www.w3.org/2000/svg">
 <path d="M6.66797 9.60059V24.6513C6.70082 25.1964 6.96107 25.7094 7.39514 26.0844C7.82922 26.4595 8.40407 26.668 9.0013 26.6673H23.0013C23.5985 26.668 24.1733 26.4595 24.6075 26.0844C25.0416 25.7094 25.3017 25.1964 25.3346 24.6513V9.60059H6.66797Z" fill="white"/>
 <path d="M20.8902 13.334H11.1124C10.867 13.334 10.668 13.4832 10.668 13.6673V14.334C10.668 14.5181 10.867 14.6673 11.1124 14.6673H20.8902C21.1357 14.6673 21.3346 14.5181 21.3346 14.334V13.6673C21.3346 13.4832 21.1357 13.334 20.8902 13.334Z" fill="#FFD368"/>
 <path d="M25.3346 7.46731C25.3346 6.90151 25.0888 6.35889 24.6512 5.95882C24.2136 5.55874 23.6201 5.33398 23.0013 5.33398H9.0013C8.38247 5.33398 7.78897 5.55874 7.35139 5.95882C6.9138 6.35889 6.66797 6.90151 6.66797 7.46731V9.60064H25.3346V7.46731Z" fill="#F3B527"/>
 <path d="M20.8902 17.0674H11.1124C10.867 17.0674 10.668 17.2166 10.668 17.4007V18.0674C10.668 18.2514 10.867 18.4007 11.1124 18.4007H20.8902C21.1357 18.4007 21.3346 18.2514 21.3346 18.0674V17.4007C21.3346 17.2166 21.1357 17.0674 20.8902 17.0674Z" fill="#FFD368"/>
 <path d="M20.8902 20.7998H11.1124C10.867 20.7998 10.668 20.9491 10.668 21.1331V21.7998C10.668 21.9839 10.867 22.1331 11.1124 22.1331H20.8902C21.1357 22.1331 21.3346 21.9839 21.3346 21.7998V21.1331C21.3346 20.9491 21.1357 20.7998 20.8902 20.7998Z" fill="#FFD368"/>
 </svg>

