<svg width="32" height="32" viewBox="0 0 32 32" fill="none" xmlns="http://www.w3.org/2000/svg">
<path d="M7.46631 9.60059V24.6539C7.49298 25.2006 7.73298 25.7073 8.13298 26.0939C8.53298 26.4673 9.05298 26.6806 9.59964 26.6806H22.3996C22.9463 26.6806 23.4663 26.4673 23.8663 26.0939C24.2663 25.7206 24.5063 25.2006 24.533 24.6539V9.60059H7.46631Z" fill="#FFF6E0"/>
<path d="M15.4536 19.7477C15.2269 19.7477 15.0136 19.6544 14.8402 19.481L13.0002 17.561C12.6669 17.2144 12.6669 16.6277 13.0002 16.281C13.3336 15.9344 13.8936 15.9344 14.2269 16.281L15.4536 17.561L17.7602 15.1477C18.0936 14.801 18.6536 14.801 18.9869 15.1477C19.3202 15.4944 19.3202 16.081 18.9869 16.4277L16.0669 19.481C15.8936 19.6544 15.6802 19.7477 15.4536 19.7477Z" fill="#F3B527"/>
<path d="M24.533 7.46732C24.533 6.90732 24.3063 6.36065 23.9063 5.96065C23.5063 5.56065 22.9596 5.33398 22.3996 5.33398H9.59964C9.03964 5.33398 8.49298 5.56065 8.09298 5.96065C7.69298 6.36065 7.46631 6.90732 7.46631 7.46732V9.60065H24.5463V7.46732H24.533Z" fill="#FFC747"/>
</svg>

