  <svg width="32" height="32" viewBox="0 0 32 32" fill="none" xmlns="http://www.w3.org/2000/svg">
    <path d="M24.4229 6.44604H7.57843C6.33843 6.44604 5.33398 7.44011 5.33398 8.66729V23.112C5.33398 24.3392 6.33843 25.3332 7.57843 25.3332H24.4229C25.6629 25.3332 26.6673 24.3392 26.6673 23.112V8.66729C26.6673 7.44011 25.6629 6.44604 24.4229 6.44604Z" fill="#FFF6E0"/>
    <path d="M17.3858 14.0598L11.8125 19.5755L13.8036 21.5417L19.3769 16.0259L17.3858 14.0598Z" fill="#FFE39E"/>
    <path d="M11.3675 20.0153L10.9941 21.1237L12.2253 22.3421L13.3586 21.9814L13.803 21.5416L11.8119 19.5754L11.3675 20.0153Z" fill="#F0F0F0"/>
    <path d="M10.3867 22.9316L12.2312 22.3422L11.0001 21.1238L10.3867 22.936V22.9316Z" fill="#999999"/>
    <path d="M20.1739 13.6642L19.7739 13.2728C19.565 13.066 19.2761 12.9473 18.9784 12.9473C18.6806 12.9473 18.3961 13.0616 18.1828 13.2728L17.3828 14.0601L19.3739 16.0306L20.1695 15.2389C20.2761 15.1333 20.3561 15.0146 20.4139 14.8782C20.4717 14.7419 20.4984 14.5967 20.4984 14.4516C20.4984 14.3064 20.4673 14.1613 20.4139 14.0249C20.3561 13.8885 20.2761 13.7654 20.1695 13.6642H20.1739Z" fill="#FFB3BC"/>
    <path d="M5.33398 8.42537C5.33398 7.33014 6.22732 6.44604 7.33398 6.44604H24.6673C25.774 6.44604 26.6673 7.33014 26.6673 8.42537V11.0645H5.33398V8.42537Z" fill="#FFC747"/>
    <path d="M12.0489 5.33325H10.9467C10.6356 5.33325 10.3867 5.58397 10.3867 5.88746V8.10871C10.3867 8.4166 10.6401 8.66292 10.9467 8.66292H12.0489C12.3601 8.66292 12.6089 8.4122 12.6089 8.10871V5.88746C12.6089 5.57957 12.3556 5.33325 12.0489 5.33325Z" fill="#F3B527"/>
    <path d="M21.0536 5.33325H19.9291C19.618 5.33325 19.3691 5.58397 19.3691 5.88746V8.10871C19.3691 8.4166 19.6225 8.66292 19.9291 8.66292H21.0536C21.3647 8.66292 21.6136 8.4122 21.6136 8.10871V5.88746C21.6136 5.57957 21.3603 5.33325 21.0536 5.33325Z" fill="#F3B527"/>
  </svg>
