<svg width="32" height="32" viewBox="0 0 32 32" fill="none" xmlns="http://www.w3.org/2000/svg">
    <circle cx="15.9948" cy="16.0026" r="10.6667" fill="#FFD368" />
    <path
        d="M11.9288 16.468H10.6641V15.5288H11.6663L10.676 12.0039H11.9527L12.8594 15.5288H14.3867L15.3412 12.0039H16.6536L17.6081 15.5288H19.1294L20.0421 12.0039H21.3188L20.3225 15.5288H21.3307V16.468H20.06L19.0638 20.0039H17.7513L16.761 16.468H15.2338L14.2435 20.0039H12.9191L11.9288 16.468ZM13.5634 18.247H13.6469L14.1301 16.468H13.104L13.5634 18.247ZM16.4925 15.5288L16.0332 13.8824H15.9616L15.5022 15.5288H16.4925ZM18.3479 18.2581H18.4195L18.8848 16.468H17.8647L18.3479 18.2581Z"
        fill="white" />
</svg>
