<svg width="96" height="96" viewBox="0 0 96 96" fill="none" xmlns="http://www.w3.org/2000/svg">
<g filter="url(#filter0_i_257_27899)">
<path d="M41.8196 5.97892C45.2656 2.64529 50.7344 2.64529 54.1804 5.97892L56.7433 8.45827C58.7138 10.3646 61.4539 11.2549 64.1686 10.8709L67.6993 10.3715C72.4466 9.70001 76.871 12.9145 77.6994 17.637L78.3155 21.1492C78.7892 23.8498 80.4826 26.1805 82.9046 27.4656L86.0546 29.1369C90.2899 31.384 91.9799 36.5852 89.8743 40.8927L88.3082 44.0963C87.1042 46.5595 87.1042 49.4405 88.3082 51.9037L89.8743 55.1073C91.9799 59.4148 90.2899 64.616 86.0546 66.8631L82.9046 68.5344C80.4826 69.8195 78.7892 72.1502 78.3155 74.8508L77.6994 78.363C76.871 83.0855 72.4466 86.3 67.6993 85.6285L64.1686 85.1291C61.4539 84.7451 58.7138 85.6354 56.7433 87.5417L54.1804 90.0211C50.7344 93.3547 45.2656 93.3547 41.8196 90.0211L39.2567 87.5417C37.2862 85.6354 34.5461 84.7451 31.8314 85.1291L28.3007 85.6285C23.5534 86.3 19.129 83.0855 18.3006 78.363L17.6845 74.8508C17.2108 72.1502 15.5174 69.8195 13.0954 68.5344L9.94543 66.8631C5.71009 64.616 4.02012 59.4148 6.12574 55.1073L7.69176 51.9037C8.89584 49.4405 8.89584 46.5595 7.69176 44.0963L6.12573 40.8927C4.02012 36.5852 5.7101 31.384 9.94543 29.1369L13.0954 27.4656C15.5174 26.1805 17.2108 23.8498 17.6845 21.1492L18.3006 17.637C19.129 12.9145 23.5534 9.70001 28.3007 10.3715L31.8314 10.8709C34.5461 11.2549 37.2862 10.3646 39.2567 8.45827L41.8196 5.97892Z" fill="#FFC747"/>
</g>
<path d="M37.5359 46.2914C39.4974 45.6541 41.2492 46.2924 41.7879 47.9C42.2076 49.2422 41.5305 50.5712 40.1263 51.3314L40.4788 52.4162C41.579 51.9847 42.6696 51.5236 43.6615 51.037L44.1864 52.1972C41.5544 53.6028 38.453 54.6762 36.177 55.4075L35.569 54.1429C36.5349 53.829 37.6618 53.4547 38.8386 53.0312L38.4644 51.8796C36.8419 52.1193 35.4906 51.4493 35.0562 50.0872C34.5249 48.4773 35.5669 46.9312 37.5359 46.2914ZM39.3768 59.5923L38.1455 55.8029L39.795 55.267L40.5917 57.7189L48.2448 55.2323L48.6793 56.5697L39.3768 59.5923ZM36.6017 49.5851C36.8741 50.4741 37.8106 50.7777 38.883 50.4374C39.9579 50.08 40.5074 49.2935 40.2276 48.4069C39.9256 47.5029 39.0236 47.2045 37.9463 47.5546C36.8763 47.9022 36.2923 48.6834 36.6017 49.5851ZM45.6176 54.3773L42.286 44.1237L43.9355 43.5878L45.3454 47.927L47.1583 47.3379L47.6025 48.705L45.7896 49.2941L47.2671 53.8413L45.6176 54.3773ZM61.8259 49.3737L62.2702 50.7409L49.9956 54.7291L49.5514 53.362L52.8058 52.3046L52.0863 50.0904L50.2882 50.6746L48.8639 46.2909L56.5912 43.7801L56.0553 42.1306L48.2982 44.651L47.8636 43.3136L57.2553 40.2621L58.6556 44.5715L50.9431 47.0775L51.5032 48.8013L59.5277 46.1939L59.9623 47.5314L58.0007 48.1687L58.7201 50.3829L61.8259 49.3737ZM54.4107 51.7831L57.1004 50.9092L56.381 48.695L53.6912 49.5689L54.4107 51.7831Z" fill="white"/>
<defs>
<filter id="filter0_i_257_27899" x="5.22095" y="3.47852" width="87.3359" height="90.8207" filterUnits="userSpaceOnUse" color-interpolation-filters="sRGB">
<feFlood flood-opacity="0" result="BackgroundImageFix"/>
<feBlend mode="normal" in="SourceGraphic" in2="BackgroundImageFix" result="shape"/>
<feColorMatrix in="SourceAlpha" type="matrix" values="0 0 0 0 0 0 0 0 0 0 0 0 0 0 0 0 0 0 127 0" result="hardAlpha"/>
<feOffset dx="1.77778" dy="1.77778"/>
<feGaussianBlur stdDeviation="0.888889"/>
<feComposite in2="hardAlpha" operator="arithmetic" k2="-1" k3="1"/>
<feColorMatrix type="matrix" values="0 0 0 0 0 0 0 0 0 0 0 0 0 0 0 0 0 0 0.05 0"/>
<feBlend mode="normal" in2="shape" result="effect1_innerShadow_257_27899"/>
</filter>
</defs>
</svg>
