<svg class="group-3807" width="73" height="73" viewBox="0 0 73 73" fill="none" xmlns="http://www.w3.org/2000/svg">
      <g filter="url(#filter0_d_340_1760)">
        <path d="M71.411 23.9958L69.6054 20.465L67.519 16.3323C66.6764 14.6471 64.9511 13.6039 63.0653 13.6039C62.1425 13.6039 61.2197 13.8847 60.4172 14.3662L56.4852 16.8137L56.3247 16.894V12.4804C56.3247 8.06682 52.7136 4.45571 48.3001 4.45571H48.0593C47.3371 2.12854 45.2106 0.443359 42.6427 0.443359H41.9205C39.3927 0.443359 37.2261 2.12854 36.5039 4.45571H34.0162C33.294 2.12854 31.1675 0.443359 28.5996 0.443359H27.8774C25.3496 0.443359 23.183 2.12854 22.4608 4.45571H19.9732C19.2509 2.12854 17.1244 0.443359 14.5565 0.443359H13.8343C11.3066 0.443359 9.13992 2.12854 8.4177 4.45571H8.17696C3.76342 4.45571 0.152344 8.06682 0.152344 12.4804V64.6409C0.152344 69.0545 3.76342 72.6656 8.17696 72.6656H48.3001C48.9821 72.6656 49.6642 72.5854 50.3463 72.3847C51.3494 72.5452 52.3926 72.6656 53.3556 72.6656C57.7691 72.6656 60.8586 70.9403 61.6209 68.0514L62.8647 64.36C62.9851 64.1193 63.1055 63.8384 63.1857 63.5174V63.4372L63.9079 60.7088C63.9079 60.7088 64.0283 60.3477 64.0684 60.1471L71.7721 31.4187C71.7721 31.4187 71.8523 31.1779 71.8523 31.0174L71.9325 30.8168C72.6548 28.5298 72.4542 26.1224 71.3708 23.9958H71.411Z" fill="white"></path>
      </g>
      <path d="M48.3004 8.4668H8.17735C5.96141 8.4668 4.16504 10.2632 4.16504 12.4791V64.6396C4.16504 66.8556 5.96141 68.652 8.17735 68.652H48.3004C50.5164 68.652 52.3128 66.8556 52.3128 64.6396V12.4791C52.3128 10.2632 50.5164 8.4668 48.3004 8.4668Z" fill="#FFE39E"></path>
      <path d="M46.2026 14.8867H10.276C9.11714 14.8867 8.17773 15.8338 8.17773 17.0022V63.3268C8.17773 64.4951 9.11714 65.4423 10.276 65.4423H46.2026C47.3614 65.4423 48.3008 64.4951 48.3008 63.3268V17.0022C48.3008 15.8338 47.3614 14.8867 46.2026 14.8867Z" fill="white"></path>
      <path d="M13.8355 4.82545H14.5577C15.2617 4.82545 15.8324 5.39614 15.8324 6.10014V10.8347C15.8324 11.5387 15.2617 12.1094 14.5577 12.1094H13.8355C13.1315 12.1094 12.5608 11.5387 12.5608 10.8347V6.10014C12.5608 5.39614 13.1315 4.82545 13.8355 4.82545Z" fill="#FFC747" stroke="#FFC747" stroke-width="0.740737"></path>
      <path d="M27.8784 4.82545H28.6007C29.3046 4.82545 29.8753 5.39614 29.8753 6.10014V10.8347C29.8753 11.5387 29.3046 12.1094 28.6007 12.1094H27.8784C27.1745 12.1094 26.6038 11.5387 26.6038 10.8347V6.10014C26.6038 5.39614 27.1745 4.82545 27.8784 4.82545Z" fill="#FFC747" stroke="#FFC747" stroke-width="0.740737"></path>
      <path d="M41.9234 4.82545H42.6456C43.3496 4.82545 43.9203 5.39614 43.9203 6.10014V10.8347C43.9203 11.5387 43.3496 12.1094 42.6456 12.1094H41.9234C41.2194 12.1094 40.6487 11.5387 40.6487 10.8347V6.10014C40.6487 5.39614 41.2194 4.82545 41.9234 4.82545Z" fill="#FFC747" stroke="#FFC747" stroke-width="0.740737"></path>
      <path d="M59.5357 61.7111L67.9214 30.3747C68.2424 29.2111 65.0727 27.3654 60.8999 26.2419C56.7271 25.1185 53.0758 25.1586 52.7549 26.3222L44.3691 57.6586L59.5357 61.7111Z" fill="#FFD368"></path>
      <path d="M66.04 22.2706C65.077 22.7922 63.5523 22.9125 61.9875 22.4712C60.4227 22.0298 59.1789 21.1471 58.6172 20.1841L62.5493 17.7366C63.0307 17.4156 63.6727 17.6162 63.9536 18.1378L66.04 22.2706Z" fill="#222222"></path>
      <path d="M52.8379 26.1228L52.9984 25.4005C53.3194 24.1166 54.0817 23.0333 55.2453 22.311L58.6156 20.2246C59.1773 21.1876 60.381 22.0703 61.986 22.5116C63.5909 22.953 65.0754 22.8326 66.0384 22.311L67.8439 25.8419C68.4458 27.0456 68.5661 28.3697 68.1649 29.6536L67.9242 30.3758C66.1186 31.0579 63.1094 31.0579 59.8594 30.1351C56.6095 29.2123 54.0416 27.6876 52.8379 26.1629V26.1228Z" fill="#FFF6E0"></path>
      <path d="M43.2866 63.0358C42.9255 64.4401 45.4934 67.008 49.7063 68.1315C53.9192 69.2549 57.41 68.3321 57.7711 66.9679V66.8877L59.5365 61.6716L44.37 57.6191L43.3268 62.9556C43.3268 62.9556 43.3268 63.0358 43.3268 63.0759L43.2866 63.0358Z" fill="#FFC0BC"></path>
      <path d="M44.2103 58.3022C43.8492 59.7065 46.9387 61.7528 51.1115 62.8362C55.2843 63.9195 58.9756 63.759 59.3367 62.3948V62.3146L60.0991 59.3454C59.738 60.7096 56.0466 60.9103 51.8738 59.7868C47.701 58.6633 44.5714 56.6572 44.9727 55.293L44.2103 58.222C44.2103 58.222 44.2103 58.3022 44.2103 58.3424V58.3022Z" fill="#FF5065"></path>
      <path d="M17.4055 19.7031C14.525 19.7031 12.1895 22.0387 12.1895 24.9192C12.1895 27.7997 14.525 30.1352 17.4055 30.1352C20.2859 30.1352 22.6215 27.7997 22.6215 24.9192C22.6215 22.0387 20.2859 19.7031 17.4055 19.7031ZM17.4055 28.0332C15.6927 28.0332 14.2914 26.6319 14.2914 24.9192C14.2914 23.2064 15.6927 21.8051 17.4055 21.8051C19.1182 21.8051 20.5195 23.2064 20.5195 24.9192C20.5195 26.6319 19.1182 28.0332 17.4055 28.0332Z" fill="#FFB3BC"></path>
      <path d="M17.4055 50.1953C14.525 50.1953 12.1895 52.5309 12.1895 55.4114C12.1895 58.2919 14.525 60.6274 17.4055 60.6274C20.2859 60.6274 22.6215 58.2919 22.6215 55.4114C22.6215 52.5309 20.2859 50.1953 17.4055 50.1953ZM17.4055 58.5254C15.6927 58.5254 14.2914 57.1241 14.2914 55.4114C14.2914 53.6986 15.6927 52.2973 17.4055 52.2973C19.1182 52.2973 20.5195 53.6986 20.5195 55.4114C20.5195 57.1241 19.1182 58.5254 17.4055 58.5254Z" fill="#FFB3BC"></path>
      <path d="M22.6215 36.6684L20.9023 34.9492L17.425 38.4266L13.9477 34.9492L12.1895 36.6684L15.6668 40.1457L12.1895 43.6622L13.9477 45.3813L17.425 41.904L20.9023 45.3813L22.6215 43.6622L19.1441 40.1457L22.6215 36.6684Z" fill="#FFB3BC"></path>
      <defs>
        <filter id="filter0_d_340_1760" x="-7.25503" y="-6.22328" width="89.9847" height="90.0004" filterUnits="userSpaceOnUse" color-interpolation-filters="sRGB">
          <feFlood flood-opacity="0" result="BackgroundImageFix"></feFlood>
          <feColorMatrix in="SourceAlpha" type="matrix" values="0 0 0 0 0 0 0 0 0 0 0 0 0 0 0 0 0 0 127 0" result="hardAlpha"></feColorMatrix>
          <feOffset dx="1.48147" dy="2.22221"></feOffset>
          <feGaussianBlur stdDeviation="4.44442"></feGaussianBlur>
          <feComposite in2="hardAlpha" operator="out"></feComposite>
          <feColorMatrix type="matrix" values="0 0 0 0 0 0 0 0 0 0 0 0 0 0 0 0 0 0 0.08 0"></feColorMatrix>
          <feBlend mode="normal" in2="BackgroundImageFix" result="effect1_dropShadow_340_1760"></feBlend>
          <feBlend mode="normal" in="SourceGraphic" in2="effect1_dropShadow_340_1760" result="shape"></feBlend>
        </filter>
      </defs>
    </svg>