<svg width="96" height="96" viewBox="0 0 96 96" fill="none" xmlns="http://www.w3.org/2000/svg">
<path d="M41.8196 5.97892C45.2656 2.64529 50.7344 2.64529 54.1804 5.97892L56.7433 8.45827C58.7138 10.3646 61.4539 11.2549 64.1686 10.8709L67.6993 10.3715C72.4466 9.70001 76.871 12.9145 77.6994 17.637L78.3155 21.1492C78.7892 23.8498 80.4826 26.1805 82.9046 27.4656L86.0546 29.1369C90.2899 31.384 91.9799 36.5852 89.8743 40.8927L88.3082 44.0963C87.1042 46.5595 87.1042 49.4405 88.3082 51.9037L89.8743 55.1073C91.9799 59.4148 90.2899 64.616 86.0546 66.8631L82.9046 68.5344C80.4826 69.8195 78.7892 72.1502 78.3155 74.8508L77.6994 78.363C76.871 83.0855 72.4466 86.3 67.6993 85.6285L64.1686 85.1291C61.4539 84.7451 58.7138 85.6354 56.7433 87.5417L54.1804 90.0211C50.7344 93.3547 45.2656 93.3547 41.8196 90.0211L39.2567 87.5417C37.2862 85.6354 34.5461 84.7451 31.8314 85.1291L28.3007 85.6285C23.5534 86.3 19.129 83.0855 18.3006 78.363L17.6845 74.8508C17.2108 72.1502 15.5174 69.8195 13.0954 68.5344L9.94543 66.8631C5.71009 64.616 4.02012 59.4148 6.12574 55.1073L7.69176 51.9037C8.89584 49.4405 8.89584 46.5595 7.69176 44.0963L6.12573 40.8927C4.02012 36.5852 5.7101 31.384 9.94543 29.1369L13.0954 27.4656C15.5174 26.1805 17.2108 23.8498 17.6845 21.1492L18.3006 17.637C19.129 12.9145 23.5534 9.70001 28.3007 10.3715L31.8314 10.8709C34.5461 11.2549 37.2862 10.3646 39.2567 8.45827L41.8196 5.97892Z" fill="#E5E5E5"/>
<path d="M34.5141 47.3899L37.4063 56.2912L31.0164 58.3674L28.1242 49.4661L34.5141 47.3899ZM32.2213 56.5137L35.3717 55.4901L33.3293 49.2042L30.1789 50.2278L32.2213 56.5137ZM40.8808 58.7931L36.5111 45.3445L38.1754 44.8038L42.5451 58.2523L40.8808 58.7931ZM44.0926 43.5219C46.0542 42.8845 47.8059 43.5229 48.3447 45.1304C48.7644 46.4726 48.0872 47.8016 46.6831 48.5618L47.0356 49.6466C48.1358 49.2152 49.2264 48.754 50.2183 48.2675L50.7431 49.4277C48.1112 50.8332 45.0098 51.9066 42.7338 52.638L42.1257 51.3733C43.0917 51.0595 44.2186 50.6851 45.3954 50.2617L45.0212 49.11C43.3986 49.3497 42.0474 48.6798 41.613 47.3177C41.0817 45.7077 42.1237 44.1616 44.0926 43.5219ZM45.9336 56.8227L44.7023 53.0334L46.3518 52.4974L47.1485 54.9494L54.8015 52.4627L55.2361 53.8002L45.9336 56.8227ZM43.1585 46.8155C43.4309 47.7045 44.3674 48.0081 45.4398 47.6679C46.5147 47.3104 47.0642 46.524 46.7844 45.6374C46.4824 44.7333 45.5804 44.4349 44.5031 44.785C43.4331 45.1326 42.8491 45.9139 43.1585 46.8155ZM52.1744 51.6077L48.8428 41.3542L50.4923 40.8182L51.9021 45.1574L53.7151 44.5683L54.1593 45.9355L52.3464 46.5245L53.8238 51.0718L52.1744 51.6077ZM68.3827 46.6042L68.8269 47.9713L56.5524 51.9596L56.1081 50.5924L59.3625 49.535L58.6431 47.3208L56.845 47.9051L55.4206 43.5213L63.148 41.0105L62.612 39.361L54.855 41.8815L54.4204 40.544L63.8121 37.4925L65.2123 41.802L57.4999 44.3079L58.06 46.0317L66.0845 43.4244L66.5191 44.7618L64.5575 45.3991L65.2769 47.6133L68.3827 46.6042ZM60.9675 49.0136L63.6572 48.1396L62.9377 45.9254L60.248 46.7994L60.9675 49.0136Z" fill="#999999"/>
</svg>
