<svg width="32" height="32" viewBox="0 0 32 32" fill="none" xmlns="http://www.w3.org/2000/svg">
<path d="M7.1096 7.10938H24.8875C25.3764 7.10938 25.7764 7.50938 25.7764 7.99827V18.4517H6.2207V7.99827C6.2207 7.50938 6.62071 7.10938 7.1096 7.10938Z" fill="#FFE39E"/>
<path d="M8.15274 8.44531H23.8418C24.1707 8.44531 24.4373 8.71198 24.4373 9.04087V18.4543H7.55273V9.04532C7.55273 8.71643 7.8194 8.44976 8.1483 8.44976L8.15274 8.44531Z" fill="white"/>
<path d="M18.3165 10.7508L12.8791 14.0042L13.9843 15.9841L19.4218 12.7308L18.3165 10.7508Z" fill="#FFE39E"/>
<path d="M12.4466 14.259L11.9294 15.0689L12.6053 16.2943L13.5423 16.2364L13.9736 15.9789L12.8683 13.999L12.437 14.2564L12.4466 14.259Z" fill="#F0F0F0"/>
<path d="M11.0707 16.387L12.6062 16.2976L11.9304 15.0721L11.0707 16.387Z" fill="#999999"/>
<path d="M20.5259 10.9981L20.2994 10.6071C20.1804 10.394 19.9919 10.2476 19.7601 10.1855C19.5283 10.1234 19.2918 10.1559 19.0823 10.281L18.3059 10.7443L19.4111 12.7242L20.1875 12.2609C20.2861 12.2021 20.3804 12.1208 20.4483 12.0217C20.5163 11.9227 20.5746 11.8211 20.6065 11.7018C20.6385 11.5825 20.6485 11.4679 20.6295 11.3456C20.6202 11.2259 20.5792 11.1083 20.5232 11.0081L20.5259 10.9981Z" fill="#FFB3BC"/>
<path d="M14.2516 5.32812H17.745C18.305 5.32812 18.7583 5.78146 18.7583 6.34147V7.10592H13.2383V6.34147C13.2383 5.78146 13.6916 5.32812 14.2516 5.32812Z" fill="#FFC747"/>
<path d="M25.7544 18.4531H6.24315C5.73995 18.4531 5.33203 18.861 5.33203 19.3642C5.33203 19.8674 5.73995 20.2754 6.24315 20.2754H25.7544C26.2576 20.2754 26.6656 19.8674 26.6656 19.3642C26.6656 18.861 26.2576 18.4531 25.7544 18.4531Z" fill="#FF5065"/>
<path d="M14.9316 20.2656H17.065V25.8701C17.065 26.3012 16.7139 26.6524 16.2828 26.6524H15.7183C15.2872 26.6524 14.9361 26.3012 14.9361 25.8701V20.2656H14.9316Z" fill="#FFC747"/>
<path d="M22.3814 26.6301L22.928 26.4835C23.3458 26.3723 23.5947 25.9412 23.4836 25.5235L22.0747 20.2656H19.8613L21.4213 26.0746C21.5325 26.4923 21.9636 26.7412 22.3814 26.6301Z" fill="#FFC747"/>
<path d="M9.74394 26.6301L9.19726 26.4835C8.77948 26.3723 8.53059 25.9412 8.6417 25.5235L10.0506 20.2656H12.264L10.7039 26.0746C10.5928 26.4923 10.1617 26.7412 9.74394 26.6301Z" fill="#FFC747"/>
</svg>
