<svg width="32" height="32" viewBox="0 0 32 32" fill="none" xmlns="http://www.w3.org/2000/svg">
  <path d="M24.4198 6.66602H7.57765C6.33743 6.66602 5.33203 7.64923 5.33203 8.8621V23.1366C5.33203 24.3495 6.33743 25.3327 7.57765 25.3327H24.4198C25.66 25.3327 26.6654 24.3495 26.6654 23.1366V8.8621C26.6654 7.64923 25.66 6.66602 24.4198 6.66602Z" fill="#FFE39E"></path>
  <path d="M12.0465 5.33203H10.9462C10.6361 5.33203 10.3848 5.59735 10.3848 5.92462V8.295C10.3848 8.62228 10.6361 8.88759 10.9462 8.88759H12.0465C12.3566 8.88759 12.6079 8.62228 12.6079 8.295V5.92462C12.6079 5.59735 12.3566 5.33203 12.0465 5.33203Z" fill="#FFC747"></path>
  <path d="M21.0534 5.33203H19.9305C19.6205 5.33203 19.3691 5.59735 19.3691 5.92462V8.295C19.3691 8.62228 19.6205 8.88759 19.9305 8.88759H21.0534C21.3634 8.88759 21.6148 8.62228 21.6148 8.295V5.92462C21.6148 5.59735 21.3634 5.33203 21.0534 5.33203Z" fill="#FFC747"></path>
  <path d="M12.2251 13.332H10.6251C10.3306 13.332 10.0918 13.5708 10.0918 13.8654V15.4654C10.0918 15.7599 10.3306 15.9987 10.6251 15.9987H12.2251C12.5197 15.9987 12.7585 15.7599 12.7585 15.4654V13.8654C12.7585 13.5708 12.5197 13.332 12.2251 13.332Z" fill="white"></path>
  <path d="M16.7271 13.332H15.1271C14.8326 13.332 14.5938 13.5708 14.5938 13.8654V15.4654C14.5938 15.7599 14.8326 15.9987 15.1271 15.9987H16.7271C17.0216 15.9987 17.2604 15.7599 17.2604 15.4654V13.8654C17.2604 13.5708 17.0216 13.332 16.7271 13.332Z" fill="white"></path>
  <path d="M21.231 13.332H19.631C19.3364 13.332 19.0977 13.5708 19.0977 13.8654V15.4654C19.0977 15.7599 19.3364 15.9987 19.631 15.9987H21.231C21.5255 15.9987 21.7643 15.7599 21.7643 15.4654V13.8654C21.7643 13.5708 21.5255 13.332 21.231 13.332Z" fill="white"></path>
  <path d="M12.2251 17.332H10.6251C10.3306 17.332 10.0918 17.5709 10.0918 17.8654V19.4654C10.0918 19.7599 10.3306 19.9987 10.6251 19.9987H12.2251C12.5197 19.9987 12.7585 19.7599 12.7585 19.4654V17.8654C12.7585 17.5709 12.5197 17.332 12.2251 17.332Z" fill="white"></path>
  <path d="M16.7271 17.332H15.1271C14.8326 17.332 14.5938 17.5709 14.5938 17.8654V19.4654C14.5938 19.7599 14.8326 19.9987 15.1271 19.9987H16.7271C17.0216 19.9987 17.2604 19.7599 17.2604 19.4654V17.8654C17.2604 17.5709 17.0216 17.332 16.7271 17.332Z" fill="white"></path>
  <path d="M21.231 17.332H19.631C19.3364 17.332 19.0977 17.5709 19.0977 17.8654V19.4654C19.0977 19.7599 19.3364 19.9987 19.631 19.9987H21.231C21.5255 19.9987 21.7643 19.7599 21.7643 19.4654V17.8654C21.7643 17.5709 21.5255 17.332 21.231 17.332Z" fill="white"></path>
</svg>