<svg width="32" height="32" viewBox="0 0 32 32" fill="none" xmlns="http://www.w3.org/2000/svg">
    <path d="M6.66626 9.6001V24.6508C6.69911 25.1959 6.95936 25.7089 7.39343 26.0839C7.82751 26.459 8.40236 26.6675 8.99959 26.6668H22.9996C23.5968 26.6675 24.1716 26.459 24.6057 26.0839C25.0399 25.7089 25.3 25.1959 25.3329 24.6508V9.6001H6.66626Z" fill="#F9F9F9"></path>
    <path d="M20.8884 13.3333H11.1107C10.8652 13.3333 10.6663 13.4825 10.6663 13.6666V14.3333C10.6663 14.5173 10.8652 14.6666 11.1107 14.6666H20.8884C21.134 14.6666 21.3329 14.5173 21.3329 14.3333V13.6666C21.3329 13.4825 21.134 13.3333 20.8884 13.3333Z" fill="#FFD368"></path>
    <path d="M25.3329 7.46658C25.3329 6.90078 25.0871 6.35816 24.6495 5.95808C24.2119 5.55801 23.6184 5.33325 22.9996 5.33325H8.99959C8.38076 5.33325 7.78726 5.55801 7.34968 5.95808C6.91209 6.35816 6.66626 6.90078 6.66626 7.46658V9.59991H25.3329V7.46658Z" fill="#FFD368"></path>
    <path d="M20.8884 17.0664H11.1107C10.8652 17.0664 10.6663 17.2157 10.6663 17.3997V18.0664C10.6663 18.2505 10.8652 18.3997 11.1107 18.3997H20.8884C21.134 18.3997 21.3329 18.2505 21.3329 18.0664V17.3997C21.3329 17.2157 21.134 17.0664 20.8884 17.0664Z" fill="#FFD368"></path>
    <path d="M20.8884 20.8H11.1107C10.8652 20.8 10.6663 20.9493 10.6663 21.1334V21.8C10.6663 21.9841 10.8652 22.1334 11.1107 22.1334H20.8884C21.134 22.1334 21.3329 21.9841 21.3329 21.8V21.1334C21.3329 20.9493 21.134 20.8 20.8884 20.8Z" fill="#FFD368"></path>
</svg>