<svg width="32" height="32" viewBox="0 0 32 32" fill="none" xmlns="http://www.w3.org/2000/svg">
    <path d="M4 16.0859V21.4618H4.01778C4.24889 22.8685 7.32444 23.9795 11.1111 23.9795C14.8978 23.9795 17.9733 22.8685 18.2044 21.4618H18.2222V16.0859H4Z" fill="#FFC747"/>
    <path d="M4 10.7109V16.0868H4.01778C4.24889 17.4935 7.32444 18.6045 11.1111 18.6045C14.8978 18.6045 17.9733 17.4935 18.2044 16.0868H18.2222V10.7109H4Z" fill="#FFE39E"/>
    <path d="M11.1111 13.3993C15.0385 13.3993 18.2222 12.1959 18.2222 10.7114C18.2222 9.22687 15.0385 8.02344 11.1111 8.02344C7.18375 8.02344 4 9.22687 4 10.7114C4 12.1959 7.18375 13.3993 11.1111 13.3993Z" fill="#FFC747"/>
    <path d="M13.7812 18.7734V24.1493H13.799C14.0301 25.556 17.1057 26.667 20.8924 26.667C24.679 26.667 27.7546 25.556 27.9857 24.1493H28.0035V18.7734H13.7812Z" fill="#FFE39E"/>
    <path d="M13.7812 13.3984V18.7743H13.799C14.0301 20.181 17.1057 21.292 20.8924 21.292C24.679 21.292 27.7546 20.181 27.9857 18.7743H28.0035V13.3984H13.7812Z" fill="#FFC747"/>
    <path d="M13.7812 8.02344V13.3993H13.799C14.0301 14.806 17.1057 15.917 20.8924 15.917C24.679 15.917 27.7546 14.806 27.9857 13.3993H28.0035V8.02344H13.7812Z" fill="#FFE39E"/>
    <path d="M20.8924 10.7118C24.8197 10.7118 28.0035 9.5084 28.0035 8.02388C28.0035 6.53937 24.8197 5.33594 20.8924 5.33594C16.965 5.33594 13.7812 6.53937 13.7812 8.02388C13.7812 9.5084 16.965 10.7118 20.8924 10.7118Z" fill="#FFC747"/>
</svg>

