<svg width="32" height="32" viewBox="0 0 32 32" fill="none" xmlns="http://www.w3.org/2000/svg">
    <path d="M7.44991 10.4766H11.7247V19.0262H7.44991C6.88304 19.0262 6.33941 18.801 5.93857 18.4002C5.53772 17.9993 5.3125 17.4556 5.3125 16.8888V12.614C5.3125 12.0471 5.53772 11.5034 5.93857 11.1026C6.33941 10.7017 6.88304 10.4766 7.44991 10.4766Z" fill="#FFF6E0"/>
    <path d="M9.85926 19.0234H7.1875V26.5044H9.85926V19.0234Z" fill="#FFF6E0"/>
    <path d="M23.4766 11.5391C24.3268 11.5391 25.1424 11.8768 25.7436 12.4781C26.3449 13.0794 26.6827 13.8949 26.6827 14.7452C26.6827 15.5954 26.3449 16.411 25.7436 17.0122C25.1424 17.6135 24.3268 17.9513 23.4766 17.9513V11.5391Z" fill="#FFF6E0"/>
    <path d="M22.7235 24.0331L11.7266 19.0316V10.4819L22.7235 5.53379C22.8047 5.49625 22.8939 5.47966 22.983 5.48553C23.0723 5.4914 23.1585 5.51953 23.2341 5.56739C23.3095 5.61524 23.3718 5.68127 23.4152 5.75942C23.4586 5.83757 23.4817 5.92534 23.4823 6.01473V23.595C23.475 23.6807 23.447 23.7633 23.4008 23.8359C23.3546 23.9084 23.2917 23.9688 23.2172 24.0119C23.1427 24.0548 23.0589 24.0792 22.973 24.0829C22.8871 24.0866 22.8015 24.0696 22.7235 24.0331Z" fill="#FFC747"/>
</svg>
