<svg width="67" height="65" viewBox="0 0 67 65" fill="none" xmlns="http://www.w3.org/2000/svg">
    <g filter="url(#filter0_d_267_19863)">
        <path d="M51.5088 8.55711H46.5578C46.2177 7.09157 44.9275 6 43.3772 6H40.8467C39.2964 6 38.0062 7.09157 37.6661 8.55711H26.2839C25.9538 7.09157 24.6536 6 23.1033 6H20.6228C19.0725 6 17.7823 7.09157 17.4422 8.55711H12.4912C8.92056 8.55711 6 11.4983 6 15.1267V48.8745C6 52.8061 9.16061 56 13.0514 56H50.9486C54.8394 56 58 52.8061 58 48.8745V15.1267C58 11.5084 55.0794 8.55711 51.4988 8.55711H51.5088Z" fill="white" />
    </g>
    <path d="M50.9583 10.5786H13.051C10.2604 10.5786 8 12.8628 8 15.6827V48.8746C8 51.6944 10.2604 53.9787 13.051 53.9787H50.9483C53.7388 53.9787 55.9992 51.6944 55.9992 48.8746V15.6827C55.9992 12.8628 53.7388 10.5786 50.9483 10.5786H50.9583Z" fill="#F9F9F9" />
    <path d="M8 15.1268C8 12.6101 10.0104 10.5786 12.5009 10.5786H51.5084C53.9988 10.5786 56.0092 12.6101 56.0092 15.1268V21.1911H8V15.1268Z" fill="#FF5065" />
    <path d="M23.113 8.02148H20.633C19.933 8.02148 19.373 8.59759 19.373 9.29498V14.3991C19.373 15.1066 19.943 15.6726 20.633 15.6726H23.113C23.813 15.6726 24.373 15.0965 24.373 14.3991V9.29498C24.373 8.58748 23.803 8.02148 23.113 8.02148Z" fill="#FFB3BC" />
    <path d="M43.3759 8.02148H40.8459C40.1459 8.02148 39.5859 8.59759 39.5859 9.29498V14.3991C39.5859 15.1066 40.1559 15.6726 40.8459 15.6726H43.3759C44.0759 15.6726 44.6359 15.0965 44.6359 14.3991V9.29498C44.6359 8.58748 44.0659 8.02148 43.3759 8.02148Z" fill="#FFB3BC" />
    <path d="M25.6024 32.7539C26.7326 32.7539 27.8228 33.2087 28.623 34.0173C29.4231 34.8259 29.8732 35.9275 29.8732 37.0697V42.4568C29.8732 42.7398 29.7632 43.0127 29.5631 43.2148C29.3631 43.4169 29.093 43.5281 28.813 43.5281H22.4118C22.1317 43.5281 21.8617 43.4169 21.6616 43.2148C21.4616 43.0127 21.3516 42.7398 21.3516 42.4568V37.0697C21.3516 35.9275 21.8016 34.8259 22.6018 34.0173C23.402 33.2087 24.4922 32.7539 25.6224 32.7539H25.6024Z" fill="#FF5065" />
    <path d="M25.6022 32.1272C27.0724 32.1272 28.2727 30.9244 28.2727 29.4286C28.2727 27.9327 27.0824 26.73 25.6022 26.73C24.1219 26.73 22.9316 27.9327 22.9316 29.4286C22.9316 30.9244 24.1219 32.1272 25.6022 32.1272Z" fill="#FF5065" />
    <path d="M41.606 43.5384H35.2047C34.9247 43.5384 34.6546 43.4272 34.4546 43.225C34.2546 43.0229 34.1445 42.75 34.1445 42.467V37.0799C34.1445 35.9378 34.5946 34.8361 35.3948 34.0276C36.1949 33.219 37.2851 32.7642 38.4154 32.7642C39.5456 32.7642 40.6358 33.219 41.4359 34.0276C42.2361 34.8361 42.6862 35.9378 42.6862 37.0799V42.467C42.6862 42.75 42.5761 43.0229 42.3761 43.225C42.1761 43.4272 41.906 43.5384 41.626 43.5384H41.606Z" fill="#1ACEFF" />
    <path d="M38.4049 32.1272C39.8752 32.1272 41.0754 30.9244 41.0754 29.4286C41.0754 27.9327 39.8852 26.73 38.4049 26.73C36.9246 26.73 35.7344 27.9327 35.7344 29.4286C35.7344 30.9244 36.9246 32.1272 38.4049 32.1272Z" fill="#1ACEFF" />
    <path d="M31.0833 36.2878H32.9337C33.9835 36.2878 34.997 36.7104 35.741 37.4622C36.4851 38.2141 36.9045 39.2398 36.9045 40.3035V45.6906C36.9045 45.896 36.8247 46.0926 36.6812 46.2377C36.5378 46.3826 36.3447 46.462 36.1443 46.462H27.8727C27.6723 46.462 27.4792 46.3826 27.3358 46.2377C27.1923 46.0926 27.1125 45.896 27.1125 45.6906V40.3035C27.1125 39.2398 27.5319 38.2141 28.276 37.4622C29.02 36.7104 30.0335 36.2878 31.0833 36.2878Z" fill="#FFC747" stroke="#FFC747" stroke-width="0.6" />
    <path d="M34.3731 32.663C34.3731 33.9954 33.3049 35.0616 32.0025 35.0616C30.6909 35.0616 29.632 33.9961 29.632 32.663C29.632 31.3298 30.6909 30.2644 32.0025 30.2644C33.3142 30.2644 34.3731 31.3298 34.3731 32.663Z" fill="#FFC747" stroke="#FFC747" stroke-width="0.6" />
    <defs>
        <filter id="filter0_d_267_19863" x="-2.38419e-07" y="0.6" width="66.4" height="64.4" filterUnits="userSpaceOnUse" color-interpolation-filters="sRGB">
            <feFlood flood-opacity="0" result="BackgroundImageFix" />
            <feColorMatrix in="SourceAlpha" type="matrix" values="0 0 0 0 0 0 0 0 0 0 0 0 0 0 0 0 0 0 127 0" result="hardAlpha" />
            <feOffset dx="1.2" dy="1.8" />
            <feGaussianBlur stdDeviation="3.6" />
            <feComposite in2="hardAlpha" operator="out" />
            <feColorMatrix type="matrix" values="0 0 0 0 0 0 0 0 0 0 0 0 0 0 0 0 0 0 0.08 0" />
            <feBlend mode="normal" in2="BackgroundImageFix" result="effect1_dropShadow_267_19863" />
            <feBlend mode="normal" in="SourceGraphic" in2="effect1_dropShadow_267_19863" result="shape" />
        </filter>
    </defs>
</svg>
