<svg width="49" height="60" viewBox="0 0 49 60" fill="none" xmlns="http://www.w3.org/2000/svg">
    <g filter="url(#filter0_d_267_26188)">
        <path d="M38.1508 3.19873H13.8417L13.0035 4.03697L4.30309 12.7085L3.46484 13.5467V49.4177C3.46484 52.5973 6.06629 55.1987 9.24584 55.1987H38.1508C41.3303 55.1987 43.9318 52.5973 43.9318 49.4177V8.97972C43.9318 5.80018 41.3303 3.19873 38.1508 3.19873Z" fill="white" />
    </g>
    <path d="M6.83574 14.9603L15.2259 6.57011H38.1509C39.4755 6.57011 40.5612 7.65581 40.5612 8.98034V49.4473C40.5612 50.7718 39.4755 51.8575 38.1509 51.8575H9.24597C7.92144 51.8575 6.83574 50.7718 6.83574 49.4473V14.9603Z" fill="white" stroke="#FFE39E" stroke-width="0.960534" />
    <path d="M12.5684 36.1598C12.6984 36.0598 13.0984 35.8698 12.9884 35.6398C13.1084 35.6498 13.5084 35.4598 13.6284 35.4698C16.0484 35.0098 18.3284 34.2098 20.7284 33.8998C23.7784 33.3898 27.0284 33.3398 30.1384 33.6098L32.0784 33.7798C32.8184 33.8498 33.9284 34.0498 34.5084 34.5498V34.6598C34.4884 34.7698 34.3084 35.3498 34.1884 35.3398H34.0684L33.7084 35.1898C33.5884 35.1798 33.0984 35.0198 32.9684 35.0098L31.2284 34.8598C29.5284 34.7098 28.2784 34.7098 26.5184 34.8898L24.5984 35.3498L23.5784 35.5898C23.0484 35.8798 22.0484 35.8998 21.3984 36.1798L16.0784 37.3798C15.8084 37.5798 15.5684 37.4498 15.3284 37.4298C15.2084 37.4198 13.9484 37.5298 13.8184 37.5198H13.6984C13.5784 37.4998 13.2184 37.2398 13.1084 37.1198L12.5684 36.1398V36.1598Z" fill="#FF5065" />
    <path d="M13.4277 39.2497C13.5577 39.1497 13.9577 38.9597 13.8477 38.7297C13.9677 38.7397 14.3677 38.5497 14.4877 38.5597C16.9077 38.0997 19.1877 37.2997 21.5877 36.9897C24.6377 36.4797 27.8877 36.4297 30.9977 36.6997L32.9377 36.8697C33.6777 36.9397 34.7877 37.1397 35.3677 37.6397V37.7497C35.3477 37.8597 35.1677 38.4397 35.0477 38.4297H34.9277L34.5677 38.2797C34.4477 38.2697 33.9577 38.1097 33.8277 38.0997L32.0877 37.9497C30.3877 37.7997 29.1377 37.7997 27.3777 37.9797L25.4577 38.4397L24.4377 38.6797C23.9077 38.9697 22.9077 38.9897 22.2577 39.2697L16.9377 40.4697C16.6677 40.6697 16.4277 40.5397 16.1877 40.5197C16.0677 40.5097 14.8077 40.6197 14.6777 40.6097H14.5577C14.4377 40.5897 14.0777 40.3297 13.9677 40.2097L13.4277 39.2297V39.2497Z" fill="#FF5065" />
    <path d="M16.1999 25.7663C16.386 25.7178 16.386 25.4751 16.1433 25.5155C15.8601 25.5802 15.5204 25.6207 15.221 25.645C14.7195 25.6854 14.3878 25.3618 14.2584 24.7713C14.1208 23.9785 14.5496 23.5012 15.0835 23.307C15.5123 23.1614 16.1433 23.0967 16.7177 23.0967C17.4862 23.0967 18.0929 23.4526 18.1334 24.205C18.2224 25.9766 18.2143 28.6705 18.1334 30.4422C18.0929 31.1056 17.4457 31.3887 16.7662 31.3887C16.0867 31.3887 15.4476 31.0975 15.4071 30.4422C15.3424 29.0912 15.3424 27.1011 15.4071 25.9281C15.6579 25.8877 15.9896 25.831 16.1999 25.7663Z" fill="#FF5065" />
    <path d="M18.8457 27.2224C18.8457 24.8844 20.0025 22.9995 22.3081 22.9995C24.6137 22.9995 25.7625 24.8844 25.7625 27.2224C25.7625 29.5603 24.6137 31.4695 22.3081 31.4695C20.0025 31.4695 18.8457 29.5765 18.8457 27.2224ZM22.4861 28.5491C22.2758 28.1123 22.1949 27.6269 22.1949 27.2224C22.1949 26.8179 22.2758 26.3406 22.4861 25.9118C22.6317 25.6125 22.2839 25.4345 22.1382 25.7096C21.9036 26.1626 21.7985 26.7127 21.7985 27.2224C21.7985 27.732 21.9036 28.2902 22.1382 28.7433C22.2839 29.0102 22.6317 28.8403 22.4861 28.5491Z" fill="#FF5065" />
    <path d="M26.2402 27.2224C26.2402 24.8844 27.3971 22.9995 29.7027 22.9995C32.0082 22.9995 33.157 24.8844 33.157 27.2224C33.157 29.5603 32.0082 31.4695 29.7027 31.4695C27.3971 31.4695 26.2402 29.5765 26.2402 27.2224ZM29.8887 28.5491C29.6784 28.1123 29.5975 27.6269 29.5975 27.2224C29.5975 26.8179 29.6784 26.3406 29.8887 25.9118C30.0343 25.6125 29.6865 25.4345 29.5409 25.7096C29.3063 26.1626 29.2011 26.7127 29.2011 27.2224C29.2011 27.732 29.3063 28.2902 29.5409 28.7433C29.6865 29.0102 30.0343 28.8403 29.8887 28.5491Z" fill="#FF5065" />
    <path d="M6.74196 14.6012L14.8669 6.47633V11.8708C14.8669 13.3722 13.6378 14.6012 12.1365 14.6012H6.74196Z" fill="#FFC747" stroke="#FFC747" stroke-width="0.320178" />
    <defs>
        <filter id="filter0_d_267_26188" x="0.263064" y="0.317129" width="48.1511" height="59.6843" filterUnits="userSpaceOnUse" color-interpolation-filters="sRGB">
            <feFlood flood-opacity="0" result="BackgroundImageFix" />
            <feColorMatrix in="SourceAlpha" type="matrix" values="0 0 0 0 0 0 0 0 0 0 0 0 0 0 0 0 0 0 127 0" result="hardAlpha" />
            <feOffset dx="0.640356" dy="0.960534" />
            <feGaussianBlur stdDeviation="1.92107" />
            <feComposite in2="hardAlpha" operator="out" />
            <feColorMatrix type="matrix" values="0 0 0 0 0 0 0 0 0 0 0 0 0 0 0 0 0 0 0.08 0" />
            <feBlend mode="normal" in2="BackgroundImageFix" result="effect1_dropShadow_267_26188" />
            <feBlend mode="normal" in="SourceGraphic" in2="effect1_dropShadow_267_26188" result="shape" />
        </filter>
    </defs>
</svg>
