    <svg width="32" height="32" viewBox="0 0 32 32" fill="none" xmlns="http://www.w3.org/2000/svg">
        <path d="M5.33333 2.66602H17.3333C20.28 2.66602 22.6667 5.05268 22.6667 7.99935V25.3327C22.6667 26.066 22.0667 26.666 21.3333 26.666H5.33333C4.6 26.666 4 26.066 4 25.3327V3.99935C4 3.26602 4.6 2.66602 5.33333 2.66602Z" fill="#FFF6E0" />
        <path d="M22.6663 7.99935H18.6663C17.933 7.99935 17.333 7.39935 17.333 6.66602V2.66602C20.2797 2.66602 22.6663 5.05268 22.6663 7.99935Z" fill="#FF5065" />
        <path d="M5.99967 18.666H15.333C15.7063 18.666 15.9997 18.9593 15.9997 19.3327C15.9997 19.706 15.7063 19.9993 15.333 19.9993H5.99967C5.62634 19.9993 5.33301 19.706 5.33301 19.3327C5.33301 18.9593 5.62634 18.666 5.99967 18.666Z" fill="#FF5065" />
        <path d="M5.99967 21.333H12.6663C13.0397 21.333 13.333 21.6263 13.333 21.9997C13.333 22.373 13.0397 22.6663 12.6663 22.6663H5.99967C5.62634 22.6663 5.33301 22.373 5.33301 21.9997C5.33301 21.6263 5.62634 21.333 5.99967 21.333Z" fill="#FF5065" />
        <path d="M23.0806 15.1191L14.2539 23.9591L17.4006 27.1058L26.2272 18.2658L23.0806 15.1191Z" fill="#FFC747" />
        <path d="M13.5603 24.653L12.9736 26.4263L14.9203 28.373L16.7203 27.7996L17.427 27.093L14.2803 23.9463L13.5736 24.653H13.5603Z" fill="#F0F0F0" />
        <path d="M12 29.3201L14.92 28.3734L12.9733 26.4268L12 29.3334V29.3201Z" fill="#999999" />
        <path d="M27.4791 14.4797L26.8524 13.853C26.5191 13.5197 26.0658 13.333 25.5991 13.333C25.1324 13.333 24.6791 13.5197 24.3458 13.853L23.0791 15.1197L26.2258 18.2797L27.4791 17.013C27.6524 16.8397 27.7724 16.653 27.8658 16.4397C27.9591 16.2263 27.9991 15.9863 27.9991 15.7597C27.9991 15.533 27.9458 15.293 27.8658 15.0797C27.7724 14.8663 27.6524 14.6663 27.4791 14.5063V14.4797Z" fill="#FFB3BC" />
    </svg>

