<svg width="66" height="66" viewBox="0 0 66 66" fill="none" xmlns="http://www.w3.org/2000/svg">
    <g filter="url(#filter0_d_267_26296)">
        <path d="M57.4957 22.3572L56.1957 19.815L54.6935 16.8394C54.0868 15.6261 52.8446 14.875 51.4868 14.875C50.8224 14.875 50.1579 15.0772 49.5802 15.4239L46.7491 17.1861L46.6335 17.2439V14.0661C46.6335 10.8883 44.0336 8.2883 40.8558 8.2883H40.6825C40.1625 6.61275 38.6314 5.39941 36.7825 5.39941H36.2625C34.4425 5.39941 32.8825 6.61275 32.3625 8.2883H30.5715C30.0515 6.61275 28.5204 5.39941 26.6715 5.39941H26.1515C24.3315 5.39941 22.7715 6.61275 22.2515 8.2883H20.4604C19.9404 6.61275 18.4093 5.39941 16.5605 5.39941H16.0405C14.2205 5.39941 12.6605 6.61275 12.1405 8.2883H11.9672C8.78943 8.2883 6.18945 10.8883 6.18945 14.0661V51.6216C6.18945 54.7994 8.78943 57.3994 11.9672 57.3994H40.8558C41.3469 57.3994 41.838 57.3416 42.3291 57.1972C43.0513 57.3128 43.8024 57.3994 44.4958 57.3994C47.6735 57.3994 49.8979 56.1572 50.4468 54.0772L51.3424 51.4194C51.429 51.2461 51.5157 51.0439 51.5735 50.8128V50.755L52.0935 48.7905C52.0935 48.7905 52.1801 48.5305 52.209 48.3861L57.7557 27.7016C57.7557 27.7016 57.8134 27.5283 57.8134 27.4127L57.8712 27.2683C58.3912 25.6216 58.2468 23.8883 57.4668 22.3572H57.4957Z" fill="white" />
    </g>
    <path d="M40.8556 11.1768H11.967C10.3715 11.1768 9.07812 12.4702 9.07812 14.0656V51.6212C9.07812 53.2167 10.3715 54.5101 11.967 54.5101H40.8556C42.4511 54.5101 43.7445 53.2167 43.7445 51.6212V14.0656C43.7445 12.4702 42.4511 11.1768 40.8556 11.1768Z" fill="#FFE39E" />
    <path d="M39.3447 15.7993H13.4775C12.6432 15.7993 11.9668 16.4812 11.9668 17.3225V50.6762C11.9668 51.5174 12.6432 52.1993 13.4775 52.1993H39.3447C40.179 52.1993 40.8554 51.5174 40.8554 50.6762V17.3225C40.8554 16.4812 40.179 15.7993 39.3447 15.7993Z" fill="white" />
    <path d="M16.0419 8.55524H16.5619C17.0687 8.55524 17.4796 8.96614 17.4796 9.47302V12.8819C17.4796 13.3888 17.0687 13.7997 16.5619 13.7997H16.0419C15.535 13.7997 15.1241 13.3888 15.1241 12.8819V9.47302C15.1241 8.96614 15.535 8.55524 16.0419 8.55524Z" fill="#FFC747" stroke="#FFC747" stroke-width="0.533331" />
    <path d="M26.1532 8.55524H26.6732C27.18 8.55524 27.5909 8.96614 27.5909 9.47302V12.8819C27.5909 13.3888 27.18 13.7997 26.6732 13.7997H26.1532C25.6463 13.7997 25.2354 13.3888 25.2354 12.8819V9.47302C25.2354 8.96614 25.6463 8.55524 26.1532 8.55524Z" fill="#FFC747" stroke="#FFC747" stroke-width="0.533331" />
    <path d="M36.2645 8.55524H36.7845C37.2914 8.55524 37.7023 8.96614 37.7023 9.47302V12.8819C37.7023 13.3888 37.2914 13.7997 36.7845 13.7997H36.2645C35.7576 13.7997 35.3467 13.3888 35.3467 12.8819V9.47302C35.3467 8.96614 35.7576 8.55524 36.2645 8.55524Z" fill="#FFC747" stroke="#FFC747" stroke-width="0.533331" />
    <path d="M48.9472 49.5126L54.985 26.9503C55.2161 26.1126 52.9339 24.7837 49.9295 23.9748C46.925 23.1659 44.2962 23.1948 44.0651 24.0326L38.0273 46.5948L48.9472 49.5126Z" fill="#FFD368" />
    <path d="M53.6276 21.115C52.9343 21.4906 51.8365 21.5772 50.7098 21.2594C49.5832 20.9417 48.6876 20.3061 48.2832 19.6128L51.1143 17.8506C51.461 17.6194 51.9232 17.7639 52.1254 18.1394L53.6276 21.115Z" fill="#222222" />
    <path d="M44.123 23.8883L44.2386 23.3683C44.4697 22.4438 45.0186 21.6638 45.8564 21.1438L48.283 19.6416C48.6874 20.3349 49.5541 20.9705 50.7097 21.2883C51.8652 21.606 52.9341 21.5194 53.6274 21.1438L54.9274 23.686C55.3607 24.5527 55.4474 25.506 55.1585 26.4305L54.9852 26.9505C53.6852 27.4416 51.5185 27.4416 49.1786 26.7772C46.8386 26.1127 44.9897 25.0149 44.123 23.9172V23.8883Z" fill="#FFF6E0" />
    <path d="M37.2469 50.4664C36.9869 51.4775 38.8358 53.3264 41.8691 54.1353C44.9024 54.9442 47.4157 54.2797 47.6757 53.2975V53.2397L48.9468 49.4842L38.0269 46.5664L37.2758 50.4086C37.2758 50.4086 37.2758 50.4664 37.2758 50.4953L37.2469 50.4664Z" fill="#FFC0BC" />
    <path d="M37.9113 47.0573C37.6513 48.0684 39.8757 49.5417 42.8801 50.3217C45.8845 51.1017 48.5423 50.9862 48.8023 50.004V49.9462L49.3512 47.8084C49.0912 48.7906 46.4334 48.9351 43.429 48.1262C40.4246 47.3173 38.1713 45.8728 38.4602 44.8906L37.9113 46.9995C37.9113 46.9995 37.9113 47.0573 37.9113 47.0862V47.0573Z" fill="#FF5065" />
    <path d="M18.611 19.2666C16.537 19.2666 14.8555 20.9482 14.8555 23.0222C14.8555 25.0961 16.537 26.7777 18.611 26.7777C20.6849 26.7777 22.3665 25.0961 22.3665 23.0222C22.3665 20.9482 20.6849 19.2666 18.611 19.2666ZM18.611 25.2643C17.3778 25.2643 16.3689 24.2553 16.3689 23.0222C16.3689 21.789 17.3778 20.78 18.611 20.78C19.8441 20.78 20.8531 21.789 20.8531 23.0222C20.8531 24.2553 19.8441 25.2643 18.611 25.2643Z" fill="#FFB3BC" />
    <path d="M18.611 41.2217C16.537 41.2217 14.8555 42.9033 14.8555 44.9772C14.8555 47.0512 16.537 48.7328 18.611 48.7328C20.6849 48.7328 22.3665 47.0512 22.3665 44.9772C22.3665 42.9033 20.6849 41.2217 18.611 41.2217ZM18.611 47.2194C17.3778 47.2194 16.3689 46.2104 16.3689 44.9772C16.3689 43.7441 17.3778 42.7351 18.611 42.7351C19.8441 42.7351 20.8531 43.7441 20.8531 44.9772C20.8531 46.2104 19.8441 47.2194 18.611 47.2194Z" fill="#FFB3BC" />
    <path d="M22.3665 31.4814L21.1287 30.2437L18.6251 32.7474L16.1214 30.2437L14.8555 31.4814L17.3592 33.9851L14.8555 36.517L16.1214 37.7548L18.6251 35.2511L21.1287 37.7548L22.3665 36.517L19.8628 33.9851L22.3665 31.4814Z" fill="#FFB3BC" />
    <defs>
        <filter id="filter0_d_267_26296" x="0.856143" y="0.599435" width="64.7882" height="64.7999" filterUnits="userSpaceOnUse" color-interpolation-filters="sRGB">
            <feFlood flood-opacity="0" result="BackgroundImageFix" />
            <feColorMatrix in="SourceAlpha" type="matrix" values="0 0 0 0 0 0 0 0 0 0 0 0 0 0 0 0 0 0 127 0" result="hardAlpha" />
            <feOffset dx="1.06666" dy="1.59999" />
            <feGaussianBlur stdDeviation="3.19999" />
            <feComposite in2="hardAlpha" operator="out" />
            <feColorMatrix type="matrix" values="0 0 0 0 0 0 0 0 0 0 0 0 0 0 0 0 0 0 0.08 0" />
            <feBlend mode="normal" in2="BackgroundImageFix" result="effect1_dropShadow_267_26296" />
            <feBlend mode="normal" in="SourceGraphic" in2="effect1_dropShadow_267_26296" result="shape" />
        </filter>
    </defs>
</svg>
