<svg width="63" height="66" viewBox="0 0 63 66" fill="none" xmlns="http://www.w3.org/2000/svg">
    <path d="M50.0113 13.507C49.8668 13.507 49.7223 13.4781 49.5488 13.4492V13.507H50.0113Z" fill="#EDB52B" />
    <path d="M38.1889 54.2055C38.0155 54.1766 37.8421 54.0898 37.6686 54.0898H35.2695V54.2055H38.1889Z" fill="#EDB52B" />
    <g filter="url(#filter0_d_267_20006)">
        <path d="M49.9525 13.9984C50.5306 13.1313 50.8486 12.0618 50.8486 10.9634C50.8486 7.87059 48.3338 5.38477 45.2121 5.38477H16.5386C13.4457 5.38477 10.9021 7.8995 10.9021 10.9634C10.9021 12.0618 11.2201 13.1024 11.7982 13.9984C8.61863 14.8945 6.27734 17.8139 6.27734 21.2536V28.6533C6.27734 32.7578 9.6303 36.1396 13.7637 36.1974C15.3245 40.7355 19.0533 43.944 24.4007 45.3603V46.6899H22.9554C19.9782 46.6899 17.5502 49.089 17.5502 52.0374C17.5502 54.9857 19.9782 57.3848 22.9554 57.3848H38.7085C41.6857 57.3848 44.1137 54.9857 44.1137 52.0374C44.1137 49.089 41.6857 46.6899 38.7085 46.6899H37.2633V45.3603C42.6396 43.944 46.3683 40.7066 47.9292 36.1685C52.0626 36.1107 55.3866 32.7578 55.3866 28.6533V21.2536C55.3866 17.8139 53.0453 14.9234 49.8947 14.0273L49.9525 13.9984Z" fill="white" />
    </g>
    <path d="M15.8743 13.565V16.6H13.9087C11.3073 16.6 9.19727 18.6812 9.19727 21.2537V28.6534C9.19727 31.197 11.3073 33.3071 13.9087 33.3071H16.0477C16.9438 38.9435 21.4529 42.1231 27.3206 43.0191V49.6095H22.9849C21.5974 49.6095 20.4701 50.7079 20.4701 52.0664C20.4701 53.4249 21.5974 54.5233 22.9849 54.5233H38.738C40.1254 54.5233 41.2527 53.4249 41.2527 52.0664C41.2527 50.7079 40.1254 49.6095 38.738 49.6095H34.4023V43.0191C40.2699 42.1231 44.808 38.9435 45.704 33.3071H47.8141C50.4155 33.3071 52.5256 31.2259 52.5256 28.6534V21.2537C52.5256 18.7101 50.4155 16.6 47.8141 16.6H45.8775V13.565C47.0626 13.2759 47.9297 12.2065 47.9297 10.9636C47.9297 9.4894 46.7157 8.27539 45.1838 8.27539H16.5391C15.036 8.27539 13.7931 9.4894 13.7931 10.9636C13.7931 12.2065 14.6603 13.2759 15.8454 13.565M15.8454 29.7518H13.8798C13.2728 29.7518 12.7526 29.2315 12.7526 28.6245V21.2248C12.7526 20.6178 13.2728 20.0975 13.8798 20.0975H15.8454V29.7229V29.7518ZM48.9703 28.6534C48.9703 29.2604 48.45 29.7807 47.843 29.7807H45.9064V20.1264H47.843C48.45 20.1264 48.9703 20.6467 48.9703 21.2537V28.6534Z" fill="#FFC747" />
    <path d="M20.6702 17.1783C20.6702 16.7447 20.3234 16.4268 19.8898 16.4268C19.4562 16.4268 19.1094 16.7736 19.1094 17.1783V22.2945C19.1094 22.728 19.4562 23.046 19.8898 23.046C20.3234 23.046 20.6702 22.6991 20.6702 22.2945V17.1783Z" fill="#FFE39E" />
    <path d="M20.6702 24.9532C20.6702 24.5196 20.3234 24.2017 19.8898 24.2017C19.4562 24.2017 19.1094 24.5485 19.1094 24.9532V26.1094C19.1094 26.543 19.4562 26.8609 19.8898 26.8609C20.3234 26.8609 20.6702 26.5141 20.6702 26.1094V24.9532Z" fill="#FFE39E" />
    <defs>
        <filter id="filter0_d_267_20006" x="0.941059" y="0.582109" width="61.9165" height="64.8071" filterUnits="userSpaceOnUse" color-interpolation-filters="sRGB">
            <feFlood flood-opacity="0" result="BackgroundImageFix" />
            <feColorMatrix in="SourceAlpha" type="matrix" values="0 0 0 0 0 0 0 0 0 0 0 0 0 0 0 0 0 0 127 0" result="hardAlpha" />
            <feOffset dx="1.06726" dy="1.60089" />
            <feGaussianBlur stdDeviation="3.20177" />
            <feComposite in2="hardAlpha" operator="out" />
            <feColorMatrix type="matrix" values="0 0 0 0 0 0 0 0 0 0 0 0 0 0 0 0 0 0 0.08 0" />
            <feBlend mode="normal" in2="BackgroundImageFix" result="effect1_dropShadow_267_20006" />
            <feBlend mode="normal" in="SourceGraphic" in2="effect1_dropShadow_267_20006" result="shape" />
        </filter>
    </defs>
</svg>
