<svg width="1193" height="606" viewBox="0 0 1193 606" fill="none" xmlns="http://www.w3.org/2000/svg">
<path d="M2 278.281H1191" stroke="#303030" stroke-width="3" stroke-linecap="round" stroke-linejoin="round"/>
<path d="M553.556 186.807H369.547V275.553H553.556V186.807Z" fill="#CBC6EE" stroke="#44323A" stroke-width="3" stroke-linecap="round" stroke-linejoin="round"/>
<path d="M637.213 293.312H253.59L263.587 254.825H627.216L637.213 293.312Z" fill="#FFDEBB" stroke="#44323A" stroke-width="3" stroke-linecap="round" stroke-linejoin="round"/>
<g style="mix-blend-mode:color-burn" opacity="0.15">
<path d="M447.466 255.005L438.269 257.853L442.898 266.698C443.248 267.368 442.838 268.247 442.198 268.197L422.223 266.628C422.223 266.628 403.399 275.043 366.479 278.85C366.479 278.85 293.969 286.786 283.922 254.825H447.766C447.676 254.905 447.576 254.975 447.466 255.005Z" fill="black"/>
</g>
<path d="M562.573 287.385H460.781L461.551 260.762H556.225L562.573 287.385Z" fill="white" stroke="#44323A" stroke-width="3" stroke-linecap="round" stroke-linejoin="round"/>
<g style="mix-blend-mode:color-burn" opacity="0.15">
<path d="M594.214 254.825C580.628 270.296 558.294 279.4 543.268 279.71C517.645 280.24 505.719 264.189 505.719 264.189L514.636 256.434L513.387 254.825H594.214Z" fill="black"/>
</g>
<path d="M481.938 279.72C487.851 279.72 492.645 277.42 492.645 274.583C492.645 271.746 487.851 269.446 481.938 269.446C476.024 269.446 471.23 271.746 471.23 274.583C471.23 277.42 476.024 279.72 481.938 279.72Z" stroke="#FF7471" stroke-width="3" stroke-linecap="round" stroke-linejoin="round"/>
<path d="M637.223 293.312H253.59V306.933H637.223V293.312Z" fill="#FFDEBB" stroke="#44323A" stroke-width="3" stroke-linecap="round" stroke-linejoin="round"/>
<path d="M522.024 237.976C522.024 237.976 514.086 237.806 506.619 241.933L514.626 252.267L505.719 260.022C505.719 260.022 517.645 276.072 543.268 275.553C568.891 275.023 615.758 248.939 604.261 209.293C592.775 169.648 550.596 162.202 550.596 162.202C550.596 162.202 503.689 183.219 522.024 237.986V237.976Z" fill="#FFDCDC" stroke="#44323A" stroke-width="3" stroke-linecap="round" stroke-linejoin="round"/>
<path d="M358.71 196.061C419.303 205.605 443.596 239.644 447.885 246.44C448.235 246.99 448.005 247.809 447.455 247.979L438.258 250.818L442.886 259.672C443.236 260.342 442.826 261.221 442.186 261.171L422.212 259.602C422.212 259.602 403.387 268.017 366.467 271.815C366.467 271.815 285.76 280.659 282.831 242.143C279.901 203.626 329.728 190.265 358.71 196.071" fill="#FFDCDC"/>
<path d="M358.71 196.061C419.303 205.605 443.596 239.644 447.885 246.44C448.235 246.99 448.005 247.809 447.455 247.979L438.258 250.818L442.886 259.672C443.236 260.342 442.826 261.221 442.186 261.171L422.212 259.602C422.212 259.602 403.387 268.017 366.467 271.815C366.467 271.815 285.76 280.659 282.831 242.143C279.901 203.626 329.728 190.265 358.71 196.071" stroke="#44323A" stroke-width="3" stroke-linecap="round" stroke-linejoin="round"/>
<path d="M314.303 231.819L306.795 241.183L306.725 223.324L299.027 232.938" stroke="#44323A" stroke-width="3" stroke-linecap="round" stroke-linejoin="round"/>
<g style="mix-blend-mode:color-burn" opacity="0.15">
<path d="M442.196 261.161L422.221 259.592C422.221 259.592 403.396 268.007 366.467 271.815C366.467 271.815 285.759 280.649 282.83 242.143C281.83 228.951 287.019 218.707 295.436 211.172C290.488 217.838 287.778 226.053 288.528 235.927C291.457 274.433 372.165 265.589 372.165 265.589C409.095 261.791 427.92 253.376 427.92 253.376L440.106 254.335L442.895 259.662C443.245 260.332 442.835 261.211 442.196 261.161Z" fill="black"/>
</g>
<path d="M455.425 214.51H391.183C359.031 214.51 332.309 192.014 330.919 163.351C329.09 125.575 344.026 90.5959 375.737 58.4256C388.683 45.2937 398.431 43.3249 418.925 37.7283C418.925 37.7283 440.759 32.8413 455.425 32.8413C470.091 32.8413 491.925 37.7283 491.925 37.7283C512.419 43.3249 522.166 45.2937 535.113 58.4256C566.824 90.5959 581.76 125.575 579.93 163.351C578.541 192.014 551.818 214.51 519.667 214.51H455.425Z" fill="#FFDCDC" stroke="#44323A" stroke-width="3" stroke-linecap="round" stroke-linejoin="round"/>
<path d="M455.425 214.51H391.183C359.031 214.51 332.309 192.014 330.919 163.351C329.09 125.575 344.026 90.5959 375.737 58.4256C388.683 45.2937 398.431 43.3249 418.925 37.7283C418.925 37.7283 440.759 32.8413 455.425 32.8413C470.091 32.8413 491.925 37.7283 491.925 37.7283C512.419 43.3249 522.166 45.2937 535.113 58.4256C566.824 90.5959 581.76 125.575 579.93 163.351C578.541 192.014 551.818 214.51 519.667 214.51H455.425Z" fill="#FFDCDC" stroke="#44323A" stroke-width="3" stroke-linecap="round" stroke-linejoin="round"/>
<path d="M450.495 48.0919C450.495 48.0919 439.978 30.0829 441.168 23.8467C442.358 17.6105 451.235 39.5071 451.235 39.5071C451.235 39.5071 447.676 16.7811 451.235 17.6105C454.794 18.44 458.343 39.5071 458.343 39.5071C458.343 39.5071 458.933 19.6893 463.672 20.5188C468.41 21.3483 461.892 48.0819 461.892 48.0819" fill="#FFB6B6"/>
<path d="M450.495 48.0919C450.495 48.0919 439.978 30.0829 441.168 23.8467C442.358 17.6105 451.235 39.5071 451.235 39.5071C451.235 39.5071 447.676 16.7811 451.235 17.6105C454.794 18.44 458.343 39.5071 458.343 39.5071C458.343 39.5071 458.933 19.6893 463.672 20.5188C468.41 21.3483 461.892 48.0819 461.892 48.0819" stroke="#44323A" stroke-width="3" stroke-linecap="round" stroke-linejoin="round"/>
<g style="mix-blend-mode:color-burn" opacity="0.15">
<path d="M579.939 163.351C578.55 192.014 551.827 214.51 519.676 214.51H391.192C359.041 214.51 332.318 192.014 330.918 163.351C329.769 139.536 335.277 116.83 347.444 95.2432C338.886 114.132 335.087 133.85 336.047 154.397C337.377 183.059 363.01 205.546 393.831 205.546H517.027C547.858 205.546 573.481 183.059 574.811 154.397C575.77 133.85 571.972 114.132 563.414 95.2432C575.581 116.83 581.089 139.536 579.939 163.351Z" fill="black"/>
</g>
<path d="M505.76 225.663H400.709C380.415 225.663 364.129 209.923 365.459 191.244C366.019 183.479 368.778 175.574 373.167 167.169C377.735 158.414 384.753 152.618 393.741 147.941C402.179 143.543 411.486 140.785 421.073 139.496C442.098 136.658 464.371 136.658 485.406 139.496C494.993 140.785 504.3 143.553 512.738 147.941C521.715 152.618 528.744 158.424 533.312 167.169C537.701 175.574 540.46 183.489 541.02 191.244C542.35 209.923 526.064 225.663 505.77 225.663H505.76Z" fill="#FFB6B6" stroke="#44323A" stroke-width="3" stroke-linecap="round" stroke-linejoin="round"/>
<path d="M427.742 146.572C427.822 145.422 428.842 144.513 430.072 144.283C433.741 143.593 442.898 142.224 440.759 146.172C438.429 150.469 427.472 150.629 427.752 146.572H427.742Z" fill="white"/>
<g style="mix-blend-mode:color-burn" opacity="0.15">
<path d="M505.772 225.663H400.721C380.426 225.663 364.141 209.923 365.471 191.244C366.03 183.479 368.79 175.574 373.178 167.169C374.718 164.211 376.537 161.592 378.637 159.244C378.447 159.593 378.267 159.953 378.087 160.323C373.968 168.728 371.369 176.643 370.849 184.398C369.599 203.077 384.885 218.817 403.94 218.817H502.553C521.597 218.817 536.883 203.067 535.643 184.398C535.113 176.633 532.524 168.728 528.405 160.323C528.225 159.953 528.045 159.593 527.855 159.244C529.955 161.592 531.774 164.211 533.314 167.169C537.703 175.574 540.462 183.489 541.022 191.244C542.351 209.923 526.066 225.663 505.772 225.663Z" fill="black"/>
</g>
<path d="M424.536 194.772C432.288 194.772 438.572 187.998 438.572 179.641C438.572 171.285 432.288 164.511 424.536 164.511C416.784 164.511 410.5 171.285 410.5 179.641C410.5 187.998 416.784 194.772 424.536 194.772Z" fill="#7C4E4E"/>
<path d="M424.536 194.772C432.288 194.772 438.572 187.998 438.572 179.641C438.572 171.285 432.288 164.511 424.536 164.511C416.784 164.511 410.5 171.285 410.5 179.641C410.5 187.998 416.784 194.772 424.536 194.772Z" stroke="#44323A" stroke-width="3" stroke-linecap="round" stroke-linejoin="round"/>
<path d="M481.95 194.772C489.702 194.772 495.986 187.998 495.986 179.641C495.986 171.285 489.702 164.511 481.95 164.511C474.198 164.511 467.914 171.285 467.914 179.641C467.914 187.998 474.198 194.772 481.95 194.772Z" fill="#7C4E4E"/>
<path d="M481.95 194.772C489.702 194.772 495.986 187.998 495.986 179.641C495.986 171.285 489.702 164.511 481.95 164.511C474.198 164.511 467.914 171.285 467.914 179.641C467.914 187.998 474.198 194.772 481.95 194.772Z" stroke="#44323A" stroke-width="3" stroke-linecap="round" stroke-linejoin="round"/>
<path d="M438.57 179.641C438.57 180.341 438.53 181.02 438.441 181.69C437.511 174.305 431.632 168.608 424.524 168.608C417.416 168.608 411.548 174.305 410.618 181.69C410.528 181.02 410.488 180.341 410.488 179.641C410.488 171.286 416.777 164.521 424.524 164.521C432.272 164.521 438.57 171.286 438.57 179.641Z" fill="#B77676" stroke="#44323A" stroke-width="3" stroke-linecap="round" stroke-linejoin="round"/>
<path d="M495.975 179.641C495.975 180.341 495.935 181.02 495.845 181.69C494.915 174.305 489.046 168.608 481.938 168.608C474.83 168.608 468.962 174.305 468.032 181.69C467.942 181.02 467.902 180.341 467.902 179.641C467.902 171.286 474.191 164.521 481.938 164.521C489.686 164.521 495.975 171.286 495.975 179.641Z" fill="#B77676" stroke="#44323A" stroke-width="3" stroke-linecap="round" stroke-linejoin="round"/>
<path d="M486.836 82.7708C492.574 74.4359 498.023 74.6258 503.171 83.3305" stroke="#44323A" stroke-width="3" stroke-linecap="round" stroke-linejoin="round"/>
<path d="M426.753 82.7708C421.015 74.4359 415.567 74.6258 410.418 83.3305" stroke="#44323A" stroke-width="3" stroke-linecap="round" stroke-linejoin="round"/>
<path d="M403.835 133.104C403.948 129.794 397.142 126.875 388.634 126.584C380.125 126.293 373.135 128.74 373.022 132.05C372.908 135.36 379.714 138.279 388.223 138.57C396.732 138.861 403.722 136.414 403.835 133.104Z" fill="#FF7471" stroke="#44323A" stroke-width="3" stroke-linecap="round" stroke-linejoin="round"/>
<path d="M537.874 133.103C537.987 129.793 531.181 126.874 522.672 126.583C514.164 126.292 507.174 128.739 507.061 132.049C506.947 135.358 513.753 138.277 522.262 138.569C530.771 138.86 537.761 136.413 537.874 133.103Z" fill="#FF7471" stroke="#44323A" stroke-width="3" stroke-linecap="round" stroke-linejoin="round"/>
<path d="M421.229 101.738L416.883 101.589C413.45 101.472 410.573 104.158 410.455 107.589L409.936 122.781C409.818 126.212 412.506 129.089 415.938 129.206L420.284 129.355C423.716 129.472 426.594 126.786 426.711 123.355L427.231 108.163C427.348 104.732 424.661 101.855 421.229 101.738Z" fill="#3A242D"/>
<path d="M414.898 111.913C416.014 111.913 416.918 111.009 416.918 109.894C416.918 108.779 416.014 107.875 414.898 107.875C413.783 107.875 412.879 108.779 412.879 109.894C412.879 111.009 413.783 111.913 414.898 111.913Z" fill="white"/>
<path d="M496.534 101.744L492.187 101.595C488.755 101.478 485.877 104.164 485.76 107.595L485.24 122.787C485.123 126.218 487.81 129.095 491.242 129.212L495.589 129.361C499.021 129.478 501.898 126.792 502.016 123.361L502.536 108.169C502.653 104.738 499.966 101.861 496.534 101.744Z" fill="#3A242D"/>
<path d="M490.207 111.913C491.322 111.913 492.226 111.009 492.226 109.894C492.226 108.779 491.322 107.875 490.207 107.875C489.092 107.875 488.188 108.779 488.188 109.894C488.188 111.009 489.092 111.913 490.207 111.913Z" fill="white"/>
<path d="M369.547 76.6545C369.547 76.6545 382.313 20.0892 397.709 18.8999C397.709 18.8999 411.695 24.4865 418.923 49.821" fill="#FFDCDC"/>
<path d="M369.547 76.6545C369.547 76.6545 382.313 20.0892 397.709 18.8999C397.709 18.8999 411.695 24.4865 418.923 49.821" stroke="#44323A" stroke-width="3" stroke-linecap="round" stroke-linejoin="round"/>
<path d="M411.304 51.04C401.966 52.9988 393.179 56.7165 385.551 61.9333C389.07 47.1124 394.048 31.522 399.517 30.9023C399.517 30.9023 406.225 34.8399 411.304 51.04Z" fill="#FFB6B6" stroke="#44323A" stroke-width="3" stroke-linecap="round" stroke-linejoin="round"/>
<path d="M541.31 76.6545C541.31 76.6545 528.543 20.0892 513.148 18.8999C513.148 18.8999 499.162 24.4865 491.934 49.821" fill="#FFDCDC"/>
<path d="M541.31 76.6545C541.31 76.6545 528.543 20.0892 513.148 18.8999C513.148 18.8999 499.162 24.4865 491.934 49.821" stroke="#44323A" stroke-width="3" stroke-linecap="round" stroke-linejoin="round"/>
<path d="M499.539 51.04C508.876 52.9988 517.664 56.7165 525.292 61.9333C521.773 47.1124 516.794 31.522 511.326 30.9023C511.326 30.9023 504.618 34.8399 499.539 51.04Z" fill="#FFB6B6" stroke="#44323A" stroke-width="3" stroke-linecap="round" stroke-linejoin="round"/>
<path d="M522.023 237.976C522.023 237.976 528.672 238.096 532.671 240.764L522.023 237.976Z" fill="#FFDCDC"/>
<path d="M522.023 237.976C522.023 237.976 528.672 238.096 532.671 240.764" stroke="#44323A" stroke-width="3" stroke-linecap="round" stroke-linejoin="round"/>
<path d="M528.144 232.249L591.787 144.103C600.804 131.421 575.941 113.761 566.924 126.444L503.281 214.59L528.144 232.249Z" fill="#FF7471" stroke="#44323A" stroke-width="3" stroke-linecap="round" stroke-linejoin="round"/>
<g style="mix-blend-mode:color-burn" opacity="0.15">
<path d="M585.797 146.002C592.665 136.338 579.849 123.776 569.381 123.965C579.719 116.58 600.073 132.45 591.785 144.113L528.153 232.249L525.094 230.08L585.807 146.002H585.797Z" fill="black"/>
<path d="M585.797 146.002C592.665 136.338 579.849 123.776 569.381 123.965C579.719 116.58 600.073 132.45 591.785 144.113L528.153 232.249L525.094 230.08L585.807 146.002H585.797Z" stroke="#44323A" stroke-miterlimit="10"/>
</g>
<path d="M503.281 214.59L492.734 241.543L500.952 257.823L528.155 232.249C534.523 223.285 509.66 205.625 503.291 214.59H503.281Z" fill="#FFE3AB" stroke="#44323A" stroke-width="3" stroke-linecap="round" stroke-linejoin="round"/>
<path d="M519.784 240.114C519.784 240.114 518.585 223.085 502.449 216.729" stroke="#44323A" stroke-width="3" stroke-linecap="round" stroke-linejoin="round"/>
<path d="M510.78 248.579C510.78 248.579 511.21 234.947 497.773 228.661" stroke="#44323A" stroke-width="3" stroke-linecap="round" stroke-linejoin="round"/>
<path d="M487.356 271.934L500.942 257.823C500.942 257.823 503.061 245.77 492.724 241.543L483.137 262.21L487.346 271.934H487.356Z" fill="#FF7471" stroke="#44323A" stroke-width="3" stroke-linecap="round" stroke-linejoin="round"/>
<g style="mix-blend-mode:color-burn" opacity="0.15">
<path d="M528.372 225.523C529.432 227.941 529.522 230.3 528.132 232.259L500.93 257.833L487.934 271.325C488.393 270.126 488.653 268.437 488.233 266.128L499.41 254.815L501 253.206L528.362 225.523H528.372Z" fill="black"/>
<path d="M528.372 225.523C529.432 227.941 529.522 230.3 528.132 232.259L500.93 257.833L487.934 271.325C488.393 270.126 488.653 268.437 488.233 266.128L499.41 254.815L501 253.206L528.362 225.523H528.372Z" stroke="#44323A" stroke-miterlimit="10"/>
</g>
<path d="M486.136 272.693C487.862 272.401 488.841 269.685 488.323 266.627C487.806 263.569 485.987 261.326 484.261 261.617C482.536 261.909 481.556 264.625 482.074 267.683C482.592 270.742 484.41 272.985 486.136 272.693Z" fill="#FF7471" stroke="#44323A" stroke-width="3" stroke-linecap="round" stroke-linejoin="round"/>
<path d="M519.195 207.444L539.77 178.502" stroke="white" stroke-width="3" stroke-linecap="round" stroke-linejoin="round"/>
<path d="M489.316 258.193L492.276 252.756" stroke="white" stroke-width="3" stroke-linecap="round" stroke-linejoin="round"/>
<path d="M522.024 237.976C522.024 237.976 514.086 237.806 506.619 241.933L514.626 252.267L505.719 260.022C505.719 260.022 517.645 276.072 543.268 275.553" fill="#FFDCDC"/>
<path d="M522.024 237.976C522.024 237.976 514.086 237.806 506.619 241.933L514.626 252.267L505.719 260.022C505.719 260.022 517.645 276.072 543.268 275.553" stroke="#44323A" stroke-width="3" stroke-linecap="round" stroke-linejoin="round"/>
<g style="mix-blend-mode:color-burn" opacity="0.15">
<path d="M543.268 275.542C517.645 276.062 505.719 260.012 505.719 260.012L508.648 257.463C514.416 262.111 525.043 268.167 540.949 267.837C565.932 267.327 611.1 242.513 602.692 204.526C603.272 206.055 603.792 207.634 604.271 209.273C615.758 248.929 568.891 275.013 543.268 275.542Z" fill="black"/>
</g>
<g style="mix-blend-mode:multiply" opacity="0.15">
<path d="M620.598 384.596H270.216C262.563 384.596 256.359 390.797 256.359 398.447V408.001C256.359 415.651 262.563 421.853 270.216 421.853H620.598C628.251 421.853 634.454 415.651 634.454 408.001V398.447C634.454 390.797 628.251 384.596 620.598 384.596Z" fill="black"/>
</g>
<path d="M288.69 306.933H267.656V405.563H288.69V306.933Z" fill="#FFDEBB" stroke="#44323A" stroke-width="3" stroke-linecap="round" stroke-linejoin="round"/>
<path d="M623.147 306.933H602.113V405.563H623.147V306.933Z" fill="#FFDEBB" stroke="#44323A" stroke-width="3" stroke-linecap="round" stroke-linejoin="round"/>
<path d="M602.114 306.933H288.691V393.11H602.114V306.933Z" fill="#FFDEBB" stroke="#44323A" stroke-width="3" stroke-linecap="round" stroke-linejoin="round"/>
<g style="mix-blend-mode:color-burn" opacity="0.15">
<path d="M623.148 306.933H267.656V313.159H623.148V306.933Z" fill="black"/>
</g>
<g style="mix-blend-mode:multiply" opacity="0.15">
<path d="M876.785 418.275C946.768 418.275 1003.5 411.228 1003.5 402.535C1003.5 393.841 946.768 386.794 876.785 386.794C806.802 386.794 750.07 393.841 750.07 402.535C750.07 411.228 806.802 418.275 876.785 418.275Z" fill="black"/>
</g>
<path d="M779.094 143.683C779.094 143.683 792.141 116.25 781.794 108.235C780.454 107.195 778.455 107.805 777.885 109.394C774.006 120.397 758.77 161.992 745.934 175.084" fill="#FFF492"/>
<path d="M779.094 143.683C779.094 143.683 792.141 116.25 781.794 108.235C780.454 107.195 778.455 107.805 777.885 109.394C774.006 120.397 758.77 161.992 745.934 175.084" stroke="#513925" stroke-width="3" stroke-linecap="round" stroke-linejoin="round"/>
<path d="M785.899 272.864C773.233 269.796 761.896 259.073 751.379 246.45L787.179 224.854L785.899 272.864Z" fill="#FFF492" stroke="#513925" stroke-width="3" stroke-linecap="round" stroke-linejoin="round"/>
<path d="M827.17 2L819.172 18.7397C824.6 17.9103 828.859 21.7779 831.688 30.7924L834.018 9.41546C832.948 4.15868 830.429 2.21987 827.17 2Z" fill="#513925" stroke="#513925" stroke-width="3" stroke-linecap="round" stroke-linejoin="round"/>
<path d="M830.428 58.0857L831.688 30.7925C830.898 28.264 830.018 26.1353 829.029 24.3864C828.239 22.9872 828.879 16.7511 827.969 15.8516C827.049 14.9522 824.56 19.3894 823.5 18.9997C822.16 18.5 820.721 18.41 819.171 18.7398L802.336 49.8608L830.428 58.0957V58.0857Z" fill="#FFE3AB" stroke="#513925" stroke-width="3" stroke-linecap="round" stroke-linejoin="round"/>
<path d="M717.93 322.184L802.336 49.8509C805.046 48.8815 809.104 43.5348 811.584 43.3449C813.543 43.195 817.592 34.8301 819.412 35.1599C821.331 35.5097 817.552 48.7016 819.322 49.591C820.111 49.9908 824.19 42.7253 824.95 43.2349C827.379 44.854 828.329 55.3775 830.438 58.0858L746.032 330.419L717.94 322.184H717.93Z" fill="#FFB743" stroke="#513925" stroke-width="3" stroke-linecap="round" stroke-linejoin="round"/>
<path d="M718.95 318.886L727.217 315.898C728.057 315.598 728.977 315.568 729.827 315.818L739.304 318.636C740.124 318.876 740.854 319.375 741.373 320.035L747.002 327.221L744.962 333.817L736.215 336.725C735.405 336.995 734.525 337.015 733.705 336.765L724.228 333.947C723.368 333.697 722.629 333.167 722.099 332.457L716.91 325.462L718.95 318.866V318.886Z" fill="#FFB743" stroke="#513925" stroke-width="3" stroke-linecap="round" stroke-linejoin="round"/>
<path d="M724.36 322.304L729.018 320.974C729.488 320.845 730.018 320.845 730.508 320.994L735.986 322.623C736.466 322.763 736.886 323.023 737.196 323.373L740.575 327.121L739.565 330.409L734.637 331.688C734.177 331.808 733.677 331.798 733.197 331.658L727.719 330.029C727.219 329.879 726.789 329.599 726.469 329.229L723.34 325.592L724.35 322.304H724.36Z" fill="#513925" stroke="#513925" stroke-width="3" stroke-linecap="round" stroke-linejoin="round"/>
<path d="M741.383 320.045L826.229 45.1035" stroke="#513925" stroke-width="3" stroke-linecap="round" stroke-linejoin="round"/>
<path d="M811.315 43.3848L727.219 315.898" stroke="#513925" stroke-width="3" stroke-linecap="round" stroke-linejoin="round"/>
<g style="mix-blend-mode:color-burn" opacity="0.15">
<path d="M718.95 318.886L716.91 325.482L722.109 332.468C722.629 333.177 723.388 333.707 724.238 333.957L733.715 336.775C734.535 337.015 735.415 337.005 736.225 336.735L744.962 333.827L747.002 327.231L830.419 58.0957L831.668 30.8024L833.998 9.41551C833.608 7.52666 833.048 6.06756 832.308 4.94824L829.279 24.886V24.986L826.21 45.1036L741.363 320.045L727.307 315.868C727.307 315.868 727.227 315.898 727.197 315.908L718.93 318.886H718.95Z" fill="black"/>
</g>
<path d="M845.976 353.624L838.018 365.857C838.018 365.857 823.242 350.706 800.458 353.624C783.153 355.843 780.074 374.372 779.604 383.156C779.404 386.754 781.294 390.202 784.533 391.901C793.031 396.368 815.254 401.165 871.329 387.744C871.329 387.744 879.347 369.585 880.596 360.5C881.846 351.416 845.976 353.624 845.976 353.624Z" fill="#FFB743" stroke="#513925" stroke-width="3" stroke-linecap="round" stroke-linejoin="round"/>
<g style="mix-blend-mode:color-burn" opacity="0.15">
<path d="M880.455 361.43C878.835 370.754 871.327 387.744 871.327 387.744C817.682 400.586 795.018 396.758 785.711 392.481C785.901 384.606 788.18 363.708 806.625 361.34C829.409 358.422 844.185 373.572 844.185 373.572L854.642 355.144C854.642 355.144 871.087 357.112 880.455 361.42V361.43Z" fill="black"/>
</g>
<path d="M838.027 365.857L844.286 370.284" stroke="#513925" stroke-width="3" stroke-linecap="round" stroke-linejoin="round"/>
<path d="M988.022 264.809C988.022 264.809 1029.51 232.609 1039.19 243.332C1048.86 254.066 1013.2 280.53 1013.2 280.53C1013.2 280.53 960.5 309.442 960.14 290.383C959.78 271.325 988.022 264.809 988.022 264.809Z" fill="#FFB743" stroke="#513925" stroke-width="3" stroke-linecap="round" stroke-linejoin="round"/>
<path d="M962.902 320.025C962.902 320.025 1058.29 322.364 1060.97 290.793C1063.66 259.222 949.266 311.36 949.266 311.36L962.902 320.025Z" fill="#FFB743" stroke="#513925" stroke-width="3" stroke-linecap="round" stroke-linejoin="round"/>
<g style="mix-blend-mode:color-burn" opacity="0.15">
<path d="M954.233 309.162C953.433 309.512 952.733 309.822 952.123 310.091C951.853 310.211 951.593 310.331 951.343 310.431C949.984 311.031 949.254 311.371 949.254 311.371L962.9 320.035C962.9 320.035 962.98 320.035 963.12 320.035C963.19 320.035 963.29 320.035 963.38 320.035C964.12 320.045 965.679 320.065 967.889 320.065C968.199 320.065 968.529 320.065 968.868 320.065C969.788 320.065 970.818 320.045 971.908 320.035C995.741 319.696 1058.78 316.368 1060.96 290.793C1061.07 289.504 1060.99 288.365 1060.72 287.345C1055.98 309.742 1005.04 313.819 979.276 314.519C979.615 314.079 980.565 311.73 980.565 311.73C980.565 311.73 1028.67 293.781 1045.58 280.669C1030.56 281.049 1007.16 288.415 987.183 295.84C978.916 298.908 971.228 301.986 964.98 304.585C963.41 305.244 961.93 305.854 960.561 306.444L954.233 309.162Z" fill="black"/>
</g>
<path d="M986.422 273.934C986.422 273.934 1029.35 242.093 1054.25 256.374C1079.17 270.656 982.493 309.562 973.116 308.922C963.738 308.283 953.201 296.7 986.422 273.934Z" fill="white" stroke="#513925" stroke-width="3" stroke-linecap="round" stroke-linejoin="round"/>
<g style="mix-blend-mode:multiply" opacity="0.15">
<path d="M984.743 301.347C1007.98 293.492 1054.24 272.624 1057.4 259.093C1057.51 259.253 1057.61 259.423 1057.7 259.592C1057.72 259.622 1057.73 259.652 1057.75 259.672C1057.83 259.842 1057.91 260.012 1057.98 260.182C1057.98 260.182 1057.98 260.189 1057.98 260.202C1058.05 260.352 1058.1 260.522 1058.14 260.692C1058.16 260.732 1058.16 260.782 1058.17 260.832C1058.21 260.952 1058.24 261.082 1058.25 261.221C1058.27 261.301 1058.28 261.381 1058.29 261.461C1058.31 261.581 1058.32 261.701 1058.32 261.831C1058.32 261.901 1058.33 261.971 1058.32 262.041C1058.32 262.201 1058.32 262.361 1058.31 262.521C1058.31 262.521 1058.31 262.531 1058.31 262.541C1058.31 262.701 1058.28 262.85 1058.26 263.01C1058.25 263.09 1058.24 263.17 1058.22 263.25C1058.2 263.38 1058.18 263.5 1058.14 263.62C1058.12 263.72 1058.09 263.81 1058.06 263.91C1058.02 264.06 1057.97 264.21 1057.91 264.37C1057.87 264.459 1057.85 264.559 1057.81 264.649C1057.67 265.009 1057.49 265.389 1057.29 265.759C1057.23 265.879 1057.15 266.019 1057.08 266.138C1057.05 266.188 1057.02 266.238 1056.99 266.288C1056.94 266.378 1056.89 266.468 1056.84 266.548C1056.74 266.718 1056.63 266.878 1056.51 267.048C1056.51 267.048 1056.49 267.068 1056.49 267.088C1056.34 267.288 1056.2 267.498 1056.04 267.707C1056.02 267.707 1056.02 267.737 1056.01 267.737C1055.87 267.927 1055.73 268.107 1055.57 268.297C1054.98 269.037 1054.29 269.786 1053.53 270.546C1053.38 270.696 1053.23 270.846 1053.07 270.995C1053 271.055 1052.94 271.115 1052.89 271.175C1052.68 271.375 1052.46 271.575 1052.25 271.765C1052.03 271.965 1051.8 272.175 1051.57 272.375C1051.31 272.614 1051.04 272.844 1050.76 273.084C1050.46 273.324 1050.17 273.574 1049.87 273.824C1049.59 274.054 1049.32 274.273 1049.02 274.493C1049.01 274.503 1048.99 274.513 1048.98 274.523C1048.73 274.713 1048.48 274.913 1048.23 275.113C1046.96 276.062 1045.6 277.032 1044.18 277.991C1043.84 278.221 1043.5 278.451 1043.16 278.671C1042.9 278.841 1042.65 279.011 1042.39 279.17C1041.94 279.46 1041.49 279.75 1041.04 280.03C1037.85 282.029 1034.38 284.037 1030.72 286.016C1030.2 286.296 1029.68 286.576 1029.14 286.856C1028.14 287.385 1027.13 287.905 1026.12 288.425C1025.77 288.605 1025.42 288.785 1025.07 288.964C1022.32 290.354 1019.51 291.723 1016.7 293.032C1016.25 293.242 1015.8 293.462 1015.34 293.662C1011.95 295.231 1008.55 296.74 1005.24 298.139C1004.74 298.359 1004.23 298.569 1003.73 298.778C995.25 302.326 987.422 305.215 981.724 306.973C981.194 307.143 980.684 307.293 980.204 307.433C979.714 307.573 979.235 307.713 978.795 307.833C976.096 308.572 974.126 308.952 973.136 308.882C970.807 308.732 968.408 307.893 966.628 306.384C966.468 306.244 966.318 306.114 966.178 305.974C966.028 305.834 965.888 305.684 965.748 305.524C965.608 305.374 965.488 305.215 965.359 305.055C965.229 304.895 965.119 304.715 964.999 304.545C964.939 304.445 964.879 304.355 964.819 304.255C964.749 304.135 964.689 304.015 964.619 303.885C964.559 303.765 964.499 303.645 964.439 303.516C964.429 303.486 964.409 303.456 964.399 303.426C964.399 303.426 964.399 303.416 964.399 303.406C964.349 303.276 964.289 303.136 964.249 303.006C964.229 302.936 964.189 302.856 964.169 302.776C964.139 302.696 964.119 302.616 964.099 302.536C964.069 302.436 964.039 302.336 964.019 302.226C964.019 302.206 964.019 302.186 963.999 302.166C963.909 301.787 963.849 301.387 963.819 300.957V300.937C963.789 300.617 963.789 300.288 963.799 299.958C963.799 299.768 963.819 299.578 963.829 299.388C963.829 299.388 963.829 299.378 963.829 299.368C963.849 299.138 963.879 298.908 963.919 298.669C963.959 298.379 964.029 298.079 964.089 297.769C964.139 297.569 964.189 297.359 964.249 297.159C964.249 297.139 964.249 297.119 964.269 297.099C964.329 296.88 964.399 296.65 964.489 296.42C964.489 296.39 964.509 296.36 964.519 296.32C966.498 290.723 971.217 271.885 986.163 265.269C986.713 274.823 986.393 292.582 984.743 301.307V301.347Z" fill="black"/>
</g>
<path d="M908.836 39.9467C908.836 39.9467 912.525 35.1897 915.424 36.9686C918.323 38.7475 917.074 42.745 917.074 42.745L908.836 39.9567V39.9467Z" fill="white" stroke="#513925" stroke-width="3" stroke-linecap="round" stroke-linejoin="round"/>
<g style="mix-blend-mode:color-burn" opacity="0.15">
<path d="M917.074 42.7349L908.836 39.9466C908.836 39.9466 909.086 39.6268 909.496 39.197L914.664 40.946C914.664 40.946 915.434 38.5075 914.384 36.5986C914.734 36.6486 915.084 36.7685 915.414 36.9684C918.323 38.7473 917.064 42.7449 917.064 42.7449L917.074 42.7349Z" fill="black"/>
</g>
<path d="M883.225 52.349C883.225 52.349 897.96 33.6205 915.546 41.9154C933.141 50.2103 924.193 85.5387 924.193 85.5387C924.193 85.5387 878.686 78.8828 883.225 52.349Z" fill="white" stroke="#513925" stroke-width="3" stroke-linecap="round" stroke-linejoin="round"/>
<path d="M924.191 85.5384C924.191 85.5384 918.413 84.6989 911.165 82.4103C910.505 79.4521 911.035 75.8144 914.374 71.7069C923.372 60.6637 917.233 43.1944 917.073 42.7446C932.609 52.3088 924.191 85.5384 924.191 85.5384Z" fill="#FFB743" stroke="#513925" stroke-width="3" stroke-linecap="round" stroke-linejoin="round"/>
<path d="M924.195 85.5387C924.195 85.5387 887.715 80.212 883.336 60.0343C892.823 70.1681 907.019 76.5642 907.019 76.5642C907.019 76.5642 918.686 56.8763 916.357 42.3252C932.882 51.2997 924.195 85.5387 924.195 85.5387Z" fill="#FFB743" stroke="#513925" stroke-width="3" stroke-linecap="round" stroke-linejoin="round"/>
<path d="M885.375 54.7377C885.375 54.7377 891.383 47.1024 895.922 48.3416C900.461 49.5908 903.7 57.7658 898.811 65.5711C893.933 73.3663 881.816 62.2331 885.375 54.7377Z" fill="#FFB743" stroke="#513925" stroke-width="3" stroke-linecap="round" stroke-linejoin="round"/>
<path d="M848.963 64.2617C848.963 64.2617 838.436 41.0559 858.471 36.6286C878.505 32.2013 898.539 74.4854 898.539 74.4854L848.973 64.2617H848.963Z" fill="#FFB743" stroke="#513925" stroke-width="3" stroke-linecap="round" stroke-linejoin="round"/>
<g style="mix-blend-mode:color-burn" opacity="0.15">
<path d="M892.251 73.1964L848.964 64.2619C848.964 64.2619 843.905 53.1087 847.474 44.7938C849.303 43.1648 851.823 41.8856 855.212 41.1361C870.558 37.7481 885.903 61.7834 892.251 73.1964Z" fill="black"/>
</g>
<path d="M784.88 138.307C789.029 114.371 802.136 92.8544 821.77 79.0229C836.226 68.8391 853.771 62.8628 872.676 62.8628C904.367 62.8628 932.209 79.6225 948.125 104.917C948.125 104.917 977.307 145.982 970.099 226.652C970.099 226.652 978.157 234.338 975.757 238.875L973.868 242.713C973.868 242.713 1000.63 275.892 995.312 308.362C989.993 340.833 973.868 381.698 893.94 370.524C814.012 359.351 785.88 316.747 778.672 259.472C773.064 214.87 781.061 160.283 784.87 138.307H784.88Z" fill="#FFF492" stroke="#513925" stroke-width="3" stroke-linecap="round" stroke-linejoin="round"/>
<g style="mix-blend-mode:color-burn" opacity="0.15">
<path d="M891.113 66.7303C884.215 65.0713 875.348 66.6803 861.412 68.4093C846.926 70.2082 851.034 64.9114 851.234 64.6516C856.053 63.932 860.982 63.5522 866 63.5522C874.678 63.5522 883.085 64.6516 891.103 66.7303H891.113Z" fill="black"/>
</g>
<g style="mix-blend-mode:color-burn" opacity="0.15">
<path d="M969.702 249.848C969.702 249.848 989.586 263.32 983.758 295.8C977.939 328.27 960.274 369.135 872.759 357.962C841.137 353.924 833.789 348.408 815.395 336.965C834.999 354.594 849.375 362.359 890.864 367.656C978.389 378.829 993.545 339.953 999.374 307.473C1005.19 275.003 975.89 241.823 975.89 241.823L977.949 237.985C980.579 233.448 971.751 225.763 971.751 225.763C979.639 145.102 947.688 104.037 947.688 104.037C940.12 93.0642 930.113 83.6999 918.356 76.6143C923.535 81.3614 928.143 86.6381 932.082 92.3646C932.082 92.3646 969.192 127.053 964.753 232.259C964.683 233.938 966.003 235.337 967.782 235.597C974.21 236.526 972.521 240.484 969.692 249.858L969.702 249.848Z" fill="black"/>
</g>
<path d="M967.65 226.263L967.02 233.888" stroke="#513925" stroke-width="3" stroke-linecap="round" stroke-linejoin="round"/>
<path d="M971.778 242.672L967.02 251.147" stroke="#513925" stroke-width="3" stroke-linecap="round" stroke-linejoin="round"/>
<path d="M905.049 372.393V386.345C905.049 386.345 903.389 406.782 943.458 407.711C943.458 407.711 968.991 407.711 973.76 396.538C977.559 387.624 979.678 354.914 954.635 348.168C929.592 341.412 911.817 372.403 911.817 372.403H905.059L905.049 372.393Z" fill="#FFB743" stroke="#513925" stroke-width="3" stroke-linecap="round" stroke-linejoin="round"/>
<path d="M935.006 366.447C938.912 364.446 941.293 361.291 940.324 359.4C939.354 357.509 935.402 357.598 931.495 359.599C927.589 361.6 925.208 364.755 926.177 366.646C927.146 368.537 931.099 368.448 935.006 366.447Z" fill="white"/>
<g style="mix-blend-mode:color-burn" opacity="0.15">
<path d="M973.751 396.538C968.983 407.712 943.45 407.712 943.45 407.712C924.845 407.282 915.238 402.635 910.289 397.798C915.947 400.426 924.115 402.375 935.872 402.655C935.872 402.655 961.415 402.655 966.174 391.482C969.243 384.296 971.212 361.66 958.756 349.607C979.42 358.662 977.341 388.144 973.762 396.538H973.751Z" fill="black"/>
</g>
<path d="M911.807 372.393L909.547 377.73" stroke="#513925" stroke-width="3" stroke-linecap="round" stroke-linejoin="round"/>
<path d="M866.109 136.328C862.68 136.218 860.001 133.399 860.121 130.031L860.481 119.588C860.601 116.23 863.47 113.592 866.889 113.711C870.318 113.821 872.998 116.64 872.878 120.008L872.518 130.451C872.398 133.809 869.528 136.448 866.109 136.328Z" fill="#513925"/>
<path d="M863.82 121.167C864.649 121.167 865.32 120.509 865.32 119.698C865.32 118.886 864.649 118.229 863.82 118.229C862.992 118.229 862.32 118.886 862.32 119.698C862.32 120.509 862.992 121.167 863.82 121.167Z" fill="white"/>
<path d="M826.66 136.587C823.231 136.477 820.552 133.659 820.672 130.291L821.032 119.848C821.152 116.49 824.021 113.851 827.44 113.971C830.869 114.081 833.548 116.899 833.428 120.267L833.068 130.711C832.948 134.069 830.079 136.707 826.66 136.587Z" fill="#513925"/>
<path d="M824.383 121.167C825.211 121.167 825.883 120.509 825.883 119.698C825.883 118.886 825.211 118.229 824.383 118.229C823.554 118.229 822.883 118.886 822.883 119.698C822.883 120.509 823.554 121.167 824.383 121.167Z" fill="white"/>
<path d="M822.043 91.8447C826.132 87.7472 830.081 87.8772 833.88 92.2445" stroke="#513925" stroke-width="3" stroke-linecap="round" stroke-linejoin="round"/>
<path d="M860.582 91.8447C864.671 87.7472 868.62 87.8772 872.419 92.2445" stroke="#513925" stroke-width="3" stroke-linecap="round" stroke-linejoin="round"/>
<path d="M816.054 137.838C816.133 135.455 811.138 133.354 804.897 133.146C798.656 132.938 793.532 134.701 793.453 137.084C793.373 139.468 798.368 141.568 804.609 141.776C810.85 141.984 815.974 140.221 816.054 137.838Z" fill="#FF7471" stroke="#513925" stroke-width="3" stroke-linecap="round" stroke-linejoin="round"/>
<path d="M898.925 137.834C899.004 135.451 894.009 133.35 887.768 133.142C881.527 132.934 876.403 134.697 876.324 137.081C876.244 139.464 881.239 141.564 887.48 141.772C893.721 141.98 898.845 140.217 898.925 137.834Z" fill="#FF7471" stroke="#513925" stroke-width="3" stroke-linecap="round" stroke-linejoin="round"/>
<path d="M817.352 155.336C817.352 170.667 828.189 177.512 841.435 177.512C854.681 177.512 865.318 170.667 865.318 155.336C865.318 140.005 854.581 127.583 841.335 127.583C828.089 127.583 817.352 140.005 817.352 155.336Z" fill="#FFB743" stroke="#513925" stroke-width="3" stroke-linecap="round" stroke-linejoin="round"/>
<path d="M865.1 151.568C865.1 151.568 851.204 141.415 837.538 141.415C823.872 141.415 817.773 150.149 817.773 150.149C830.51 171.476 846.106 168.588 865.1 151.568Z" fill="#FF9700" stroke="#513925" stroke-width="3" stroke-linecap="round" stroke-linejoin="round"/>
<path d="M768.278 139.686C768.278 139.686 775.996 110.383 764.339 104.357C762.819 103.578 760.97 104.537 760.72 106.196C758.95 117.709 751.722 161.332 741.535 176.513" fill="#FFF492"/>
<path d="M768.278 139.686C768.278 139.686 775.996 110.383 764.339 104.357C762.819 103.578 760.97 104.537 760.72 106.196C758.95 117.709 751.722 161.332 741.535 176.513" stroke="#513925" stroke-width="3" stroke-linecap="round" stroke-linejoin="round"/>
<path d="M761.127 182.799C791.069 149.39 790.959 130.121 787.33 120.797C786.03 117.459 781.302 117.259 779.702 120.477C771.854 136.268 753.509 160.733 753.509 160.733C753.509 160.733 728.046 192.043 728.546 200.708C729.436 216.069 744.232 237.276 744.232 237.276L761.117 182.799H761.127Z" fill="#FFF492" stroke="#513925" stroke-width="3" stroke-linecap="round" stroke-linejoin="round"/>
<path d="M761.129 182.799L754.801 189.895" stroke="#513925" stroke-width="3" stroke-linecap="round" stroke-linejoin="round"/>
<path d="M948.547 267.867C965.412 266.238 1016.24 223.874 1034.32 201.858C1052.41 179.831 1039.98 176.024 1039.98 176.024L1030.04 184.398C1030.04 184.398 1049.97 154.557 1051.93 135.638C1053.88 116.72 1042.5 118.289 1042.5 118.289L1022.4 149.39C1047.65 95.253 1032.29 81.7014 1032.29 81.7014C1032.29 81.7014 1025.61 71.7075 1019.28 84.0699C1012.95 96.4323 988.456 137.817 973.69 164.521C973.69 164.521 957.984 188.166 955.625 207.984" fill="#FFF492"/>
<path d="M948.547 267.867C965.412 266.238 1016.24 223.874 1034.32 201.858C1052.41 179.831 1039.98 176.024 1039.98 176.024L1030.04 184.398C1030.04 184.398 1049.97 154.557 1051.93 135.638C1053.88 116.72 1042.5 118.289 1042.5 118.289L1022.4 149.39C1047.65 95.253 1032.29 81.7014 1032.29 81.7014C1032.29 81.7014 1025.61 71.7075 1019.28 84.0699C1012.95 96.4323 988.456 137.817 973.69 164.521C973.69 164.521 957.984 188.166 955.625 207.984" stroke="#513925" stroke-width="3" stroke-linecap="round" stroke-linejoin="round"/>
<g style="mix-blend-mode:color-burn" opacity="0.15">
<path d="M1034.32 201.858C1016.24 223.874 965.412 266.238 948.547 267.867L949.737 266.328C969.531 259.812 1013.98 219.237 1030.8 198.75C1041.2 186.087 1041.51 179.441 1039.9 176.093L1039.98 176.023C1039.98 176.023 1052.41 179.831 1034.32 201.858Z" fill="black"/>
</g>
<g style="mix-blend-mode:color-burn" opacity="0.15">
<path d="M1029.43 178.972L1013.26 205.295C1013.26 205.295 1032.52 180.501 1038.67 170.017C1044.32 159.783 1050.85 146.052 1051.92 135.638C1052.75 127.693 1051.22 123.356 1049.16 121.017C1049.46 123.126 1049.51 125.714 1049.18 128.872C1047.26 147.491 1030.02 178.062 1029.42 178.962L1029.43 178.972Z" fill="black"/>
</g>
<g style="mix-blend-mode:color-burn" opacity="0.15">
<path d="M1001.86 181.16L1028.67 137.827C1040.97 100.41 1035.54 86.2086 1033.28 82.9106C1035.36 91.9251 1031.11 117.35 1001.86 181.16Z" fill="black"/>
</g>
<path d="M1022.39 149.39C1022.39 149.39 1005.82 176.553 995.582 188.626L1022.39 149.39Z" fill="#FFF492"/>
<path d="M1022.39 149.39C1022.39 149.39 1005.82 176.553 995.582 188.626" stroke="#513925" stroke-width="3" stroke-linecap="round" stroke-linejoin="round"/>
<path d="M1030.03 184.398C1030.03 184.398 1015.36 203.247 1009.43 209.703L1030.03 184.398Z" fill="#FFF492"/>
<path d="M1030.03 184.398C1030.03 184.398 1015.36 203.247 1009.43 209.703" stroke="#513925" stroke-width="3" stroke-linecap="round" stroke-linejoin="round"/>
<g style="mix-blend-mode:multiply" opacity="0.15">
<path d="M225.838 507.83C273.2 507.83 311.594 496.85 311.594 483.305C311.594 469.76 273.2 458.78 225.838 458.78C178.476 458.78 140.082 469.76 140.082 483.305C140.082 496.85 178.476 507.83 225.838 507.83Z" fill="black"/>
</g>
<g style="mix-blend-mode:multiply" opacity="0.15">
<path d="M260.028 537.772C289.192 537.772 312.833 530.143 312.833 520.732C312.833 511.321 289.192 503.693 260.028 503.693C230.864 503.693 207.223 511.321 207.223 520.732C207.223 530.143 230.864 537.772 260.028 537.772Z" fill="black"/>
</g>
<path d="M182.961 432.187C182.961 429.719 180.96 427.719 178.492 427.719C176.024 427.719 174.023 429.719 174.023 432.187V485.374C174.023 487.841 176.024 489.841 178.492 489.841C180.96 489.841 182.961 487.841 182.961 485.374V432.187Z" fill="#F2F2F2" stroke="#4C2318" stroke-width="3" stroke-linecap="round" stroke-linejoin="round"/>
<path d="M164.309 432.187C164.309 429.719 162.308 427.719 159.84 427.719C157.372 427.719 155.371 429.719 155.371 432.187V477.569C155.371 480.036 157.372 482.036 159.84 482.036C162.308 482.036 164.309 480.036 164.309 477.569V432.187Z" fill="#F2F2F2" stroke="#4C2318" stroke-width="3" stroke-linecap="round" stroke-linejoin="round"/>
<path d="M273.387 432.187C273.387 429.719 271.386 427.719 268.918 427.719C266.45 427.719 264.449 429.719 264.449 432.187V477.569C264.449 480.036 266.45 482.036 268.918 482.036C271.386 482.036 273.387 480.036 273.387 477.569V432.187Z" fill="#F2F2F2" stroke="#4C2318" stroke-width="3" stroke-linecap="round" stroke-linejoin="round"/>
<path d="M292.043 432.187C292.043 429.719 290.042 427.719 287.574 427.719C285.106 427.719 283.105 429.719 283.105 432.187V485.374C283.105 487.841 285.106 489.841 287.574 489.841C290.042 489.841 292.043 487.841 292.043 485.374V432.187Z" fill="#F2F2F2" stroke="#4C2318" stroke-width="3" stroke-linecap="round" stroke-linejoin="round"/>
<g style="mix-blend-mode:color-burn" opacity="0.15">
<path d="M182.961 432.187C182.961 429.719 180.96 427.719 178.492 427.719C176.024 427.719 174.023 429.719 174.023 432.187V485.374C174.023 487.841 176.024 489.841 178.492 489.841C180.96 489.841 182.961 487.841 182.961 485.374V432.187Z" fill="black"/>
</g>
<g style="mix-blend-mode:color-burn" opacity="0.15">
<path d="M164.309 432.187C164.309 429.719 162.308 427.719 159.84 427.719C157.372 427.719 155.371 429.719 155.371 432.187V477.569C155.371 480.036 157.372 482.036 159.84 482.036C162.308 482.036 164.309 480.036 164.309 477.569V432.187Z" fill="black"/>
</g>
<g style="mix-blend-mode:color-burn" opacity="0.15">
<path d="M273.387 432.187C273.387 429.719 271.386 427.719 268.918 427.719C266.45 427.719 264.449 429.719 264.449 432.187V477.569C264.449 480.036 266.45 482.036 268.918 482.036C271.386 482.036 273.387 480.036 273.387 477.569V432.187Z" fill="black"/>
</g>
<g style="mix-blend-mode:color-burn" opacity="0.15">
<path d="M292.043 432.187C292.043 429.719 290.042 427.719 287.574 427.719C285.106 427.719 283.105 429.719 283.105 432.187V485.374C283.105 487.841 285.106 489.841 287.574 489.841C290.042 489.841 292.043 487.841 292.043 485.374V432.187Z" fill="black"/>
</g>
<path d="M161.518 341.182C146.682 341.632 134.785 353.515 134.035 368.325C133.026 388.203 134.355 417.805 149.531 428.679C168.156 442.01 260.5 438.043 299.2 435.734C310.816 435.045 319.974 425.311 319.594 413.688C319.044 396.718 310.137 374.132 270.008 364.688C220.981 353.155 186.711 340.413 161.518 341.182Z" fill="#F2F2F2" stroke="#4C2318" stroke-width="3" stroke-linecap="round" stroke-linejoin="round"/>
<g style="mix-blend-mode:color-burn" opacity="0.15">
<path d="M318.524 404.853C297.33 421.363 264.169 427.489 237.047 428.159C187.681 429.368 145.942 394.989 141.023 361.68C140.554 358.492 140.234 355.293 140.094 352.085C145.112 345.649 152.81 341.442 161.518 341.182C186.721 340.413 220.991 353.155 270.018 364.688C303.478 372.553 315.225 389.572 318.524 404.853Z" fill="black"/>
</g>
<path d="M320.843 337.334C320.843 337.334 331.28 362.639 335.859 374.851C335.859 374.851 336.269 377.86 340.817 385.105C345.366 392.351 340.028 393.04 336.659 387.194C336.659 387.194 339.468 395.549 336.129 396.208C333.07 396.818 330.14 386.135 330.14 386.135C330.14 386.135 331.53 395.319 328.111 396.668C324.682 398.017 323.412 384.825 323.412 384.825C323.412 384.825 319.593 389.323 317.434 387.014C315.274 384.695 317.654 378.729 318.694 376.6L304.438 353.904" fill="#FF9680"/>
<path d="M320.843 337.334C320.843 337.334 331.28 362.639 335.859 374.851C335.859 374.851 336.269 377.86 340.817 385.105C345.366 392.351 340.028 393.04 336.659 387.194C336.659 387.194 339.468 395.549 336.129 396.208C333.07 396.818 330.14 386.135 330.14 386.135C330.14 386.135 331.53 395.319 328.111 396.668C324.682 398.017 323.412 384.825 323.412 384.825C323.412 384.825 319.593 389.323 317.434 387.014C315.274 384.695 317.654 378.729 318.694 376.6L304.438 353.904" stroke="#4C2318" stroke-width="3" stroke-linecap="round" stroke-linejoin="round"/>
<path d="M204.023 198.739C204.023 198.739 261.027 198.06 278.762 255.235C278.762 255.235 286.08 240.274 273.113 221.765C273.113 221.765 328.978 264.429 330.977 324.932C332.977 385.435 272.534 403.774 228.226 405.043C178.86 406.462 137.121 366.217 132.192 327.231C127.274 288.315 139.6 246.78 174.851 222.845C174.851 222.845 168.362 250.458 180.339 261.431C180.339 261.431 171.362 239.155 190.976 224.534C190.976 224.534 205.272 215.229 221.908 221.206C221.908 221.206 219.448 208.034 204.033 198.729L204.023 198.739Z" fill="#FF9680" stroke="#4C2318" stroke-width="3" stroke-linecap="round" stroke-linejoin="round"/>
<path d="M273.117 221.775C275.936 225.803 277.796 229.661 278.976 233.238C293.342 246.1 329.212 282.928 330.951 331.118C331.031 329.11 331.041 327.041 330.971 324.932C329.002 264.899 273.977 222.435 273.117 221.775Z" fill="white"/>
<path d="M204.014 198.739C207.803 201.028 211.822 204.196 215.711 207.644C237.215 213.041 263.048 210.802 276.704 249.448C276.704 249.448 281.492 256.134 280.643 247.539C280.163 252.347 278.743 255.225 278.743 255.225C261.008 198.05 204.004 198.729 204.004 198.729L204.014 198.739Z" fill="white"/>
<path d="M131.185 314.089C132.014 281.878 145.111 250.188 173.623 230.2C174.143 225.813 174.843 222.854 174.843 222.854C143.531 244.121 130.315 279.24 131.185 314.099V314.089Z" fill="white"/>
<path d="M225.859 405.672C251.322 404.953 284.463 397.957 305.677 381.187C311.076 372.363 316.054 361.12 318.004 347.838C321.213 326.011 316.354 307.622 301.089 291.702C288.482 278.56 271.517 271.125 238.146 274.863C178.813 281.498 176.703 339.783 180.502 358.311C180.502 358.311 182.592 388.693 225.859 405.682V405.672Z" fill="#FFEAA9"/>
<path d="M212.492 281.609C218.491 279.51 225.359 277.941 233.216 277.061C268.617 273.104 286.622 280.979 299.998 294.93C312.324 307.793 318.263 322.164 318.893 338.504C319.582 320.705 314.134 305.304 301.098 291.702C288.481 278.561 271.526 271.125 238.155 274.853C227.928 276.002 219.48 278.381 212.512 281.609H212.492Z" fill="white"/>
<path d="M204.023 198.739C204.023 198.739 261.027 198.06 278.762 255.235C278.762 255.235 286.08 240.274 273.113 221.765C273.113 221.765 328.978 264.429 330.977 324.932C332.977 385.435 272.534 403.774 228.226 405.043C178.86 406.462 137.121 366.217 132.192 327.231C127.274 288.315 139.6 246.78 174.851 222.845C174.851 222.845 168.362 250.458 180.339 261.431C180.339 261.431 171.362 239.155 190.976 224.534C190.976 224.534 205.272 215.229 221.908 221.206C221.908 221.206 219.448 208.034 204.033 198.729L204.023 198.739Z" stroke="#4C2318" stroke-width="3" stroke-linecap="round" stroke-linejoin="round"/>
<path d="M221.89 221.216C221.89 221.216 238.206 248.079 224.12 253.336C214.372 256.974 202.606 250.468 204.925 242.493C204.925 242.493 206.035 238.835 210.913 240.274" fill="#FF9680"/>
<path d="M221.89 221.216C221.89 221.216 238.206 248.079 224.12 253.336C214.372 256.974 202.606 250.468 204.925 242.493C204.925 242.493 206.035 238.835 210.913 240.274" stroke="#4C2318" stroke-width="3" stroke-linecap="round" stroke-linejoin="round"/>
<path d="M180.32 261.441C180.32 261.441 186.379 267.897 199.015 271.395L180.32 261.441Z" fill="#FF9680"/>
<path d="M180.32 261.441C180.32 261.441 186.379 267.897 199.015 271.395" stroke="#4C2318" stroke-width="3" stroke-linecap="round" stroke-linejoin="round"/>
<path d="M278.752 255.235C278.752 255.235 277.283 260.941 267.516 263.58L278.752 255.235Z" fill="#FF9680"/>
<path d="M278.752 255.235C278.752 255.235 277.283 260.941 267.516 263.58" stroke="#4C2318" stroke-width="3" stroke-linecap="round" stroke-linejoin="round"/>
<path d="M301.754 339.554C308.183 339.334 313.325 337.13 313.24 334.631C313.154 332.132 307.873 330.285 301.445 330.505C295.016 330.725 289.874 332.929 289.96 335.428C290.045 337.927 295.326 339.774 301.754 339.554Z" fill="#FF7471" stroke="#4C2318" stroke-width="3" stroke-linecap="round" stroke-linejoin="round"/>
<path d="M272.575 326.444C272.695 329.941 275.628 332.679 279.126 332.56C282.625 332.44 285.364 329.508 285.244 326.011L284.963 317.81C284.844 314.313 281.911 311.575 278.412 311.695C274.914 311.814 272.175 314.747 272.294 318.244L272.575 326.444Z" fill="#4C2318"/>
<path d="M281.573 319.445C282.418 319.445 283.103 318.761 283.103 317.916C283.103 317.072 282.418 316.387 281.573 316.387C280.728 316.387 280.043 317.072 280.043 317.916C280.043 318.761 280.728 319.445 281.573 319.445Z" fill="white"/>
<path d="M214.54 339.558C220.968 339.338 226.11 337.134 226.025 334.635C225.939 332.136 220.658 330.289 214.23 330.509C207.801 330.729 202.659 332.932 202.745 335.431C202.83 337.93 208.111 339.778 214.54 339.558Z" fill="#FF7471" stroke="#4C2318" stroke-width="3" stroke-linecap="round" stroke-linejoin="round"/>
<path d="M229.743 326.439C229.863 329.936 232.796 332.674 236.294 332.554C239.793 332.435 242.532 329.503 242.412 326.005L242.131 317.805C242.012 314.308 239.079 311.57 235.58 311.689C232.082 311.809 229.343 314.741 229.462 318.238L229.743 326.439Z" fill="#4C2318"/>
<path d="M238.733 319.445C239.578 319.445 240.263 318.761 240.263 317.916C240.263 317.072 239.578 316.387 238.733 316.387C237.888 316.387 237.203 317.072 237.203 317.916C237.203 318.761 237.888 319.445 238.733 319.445Z" fill="white"/>
<path d="M250.902 346.539C253.412 351.266 264.389 351.256 266.668 346.009" stroke="#4C2318" stroke-width="3" stroke-linecap="round" stroke-linejoin="round"/>
<path d="M260.026 494.918C235.383 494.918 215.398 500.694 215.398 507.83V517.314C215.398 524.44 235.383 530.226 260.026 530.226C284.669 530.226 304.654 524.45 304.654 517.314V507.83C304.654 500.704 284.669 494.918 260.026 494.918Z" fill="#FFDEBB" stroke="#4C2318" stroke-width="3" stroke-linecap="round" stroke-linejoin="round"/>
<g style="mix-blend-mode:color-burn" opacity="0.15">
<path d="M260.026 494.918C235.383 494.918 215.398 500.694 215.398 507.83V517.314C215.398 524.44 235.383 530.226 260.026 530.226C284.669 530.226 304.654 524.45 304.654 517.314V507.83C304.654 500.704 284.669 494.918 260.026 494.918Z" fill="black"/>
</g>
<g style="mix-blend-mode:color-burn" opacity="0.15">
<path d="M260.026 494.918C235.383 494.918 215.398 500.694 215.398 507.83V517.314C215.398 524.44 235.383 530.226 260.026 530.226C284.669 530.226 304.654 524.45 304.654 517.314V507.83C304.654 500.704 284.669 494.918 260.026 494.918Z" fill="black"/>
</g>
<path d="M260.026 520.732C284.673 520.732 304.654 514.951 304.654 507.82C304.654 500.689 284.673 494.908 260.026 494.908C235.379 494.908 215.398 500.689 215.398 507.82C215.398 514.951 235.379 520.732 260.026 520.732Z" fill="#FFDEBB" stroke="#4C2318" stroke-width="3" stroke-linecap="round" stroke-linejoin="round"/>
<g style="mix-blend-mode:color-burn" opacity="0.1">
<path d="M260.026 520.732C284.673 520.732 304.654 514.951 304.654 507.82C304.654 500.689 284.673 494.908 260.026 494.908C235.379 494.908 215.398 500.689 215.398 507.82C215.398 514.951 235.379 520.732 260.026 520.732Z" fill="black"/>
</g>
<path d="M253.25 422.632H266.806V502.353C266.806 506.091 263.767 509.129 260.028 509.129C256.289 509.129 253.25 506.091 253.25 502.353V422.632Z" fill="#F2F2F2" stroke="#4C2318" stroke-width="3" stroke-linecap="round" stroke-linejoin="round"/>
<g style="mix-blend-mode:color-burn" opacity="0.15">
<path d="M266.816 422.642V437.603C264.577 437.633 262.307 437.643 260.028 437.643C257.749 437.643 255.489 437.643 253.25 437.603V422.642H266.816Z" fill="black"/>
</g>
<path d="M260.028 381.667C203.583 381.667 157.836 390.052 157.836 400.396V412.988C157.836 423.332 203.593 431.717 260.028 431.717C316.462 431.717 362.219 423.332 362.219 412.988V400.396C362.219 390.052 316.462 381.667 260.028 381.667Z" fill="#FFDEBB" stroke="#4C2318" stroke-width="3" stroke-linecap="round" stroke-linejoin="round"/>
<g style="mix-blend-mode:color-burn" opacity="0.15">
<path d="M260.028 381.667C203.583 381.667 157.836 390.052 157.836 400.396V412.988C157.836 423.332 203.593 431.717 260.028 431.717C316.462 431.717 362.219 423.332 362.219 412.988V400.396C362.219 390.052 316.462 381.667 260.028 381.667Z" fill="black"/>
</g>
<path d="M260.028 419.124C316.466 419.124 362.219 410.739 362.219 400.396C362.219 390.052 316.466 381.667 260.028 381.667C203.589 381.667 157.836 390.052 157.836 400.396C157.836 410.739 203.589 419.124 260.028 419.124Z" fill="#FFDEBB" stroke="#4C2318" stroke-width="3" stroke-linecap="round" stroke-linejoin="round"/>
<path d="M357.99 398.937L265.636 406.012L245.852 388.883L310.394 383.936L357.99 398.937Z" fill="#F2F2F2" stroke="#4C2318" stroke-width="3" stroke-linecap="round" stroke-linejoin="round"/>
<path d="M357.551 393.24L265.196 400.316L245.422 383.186L309.954 378.239L357.551 393.24Z" fill="#F2F2F2" stroke="#4C2318" stroke-width="3" stroke-linecap="round" stroke-linejoin="round"/>
<path d="M357.53 392.92L265.176 399.996L278.972 339.453L371.316 332.377L357.53 392.92Z" fill="#F2F2F2" stroke="#4C2318" stroke-width="3" stroke-linecap="round" stroke-linejoin="round"/>
<path d="M357.537 393.259L265.184 400.33L265.62 406.03L357.974 398.958L357.537 393.259Z" fill="#F2F2F2" stroke="#4C2318" stroke-width="3" stroke-linecap="round" stroke-linejoin="round"/>
<g style="mix-blend-mode:color-burn" opacity="0.15">
<path d="M357.537 393.259L265.184 400.33L265.62 406.03L357.974 398.958L357.537 393.259Z" fill="black"/>
</g>
<path d="M245.852 388.883L265.636 406.012L265.196 400.316L245.422 383.186L245.852 388.883Z" fill="#F2F2F2" stroke="#4C2318" stroke-width="3" stroke-linecap="round" stroke-linejoin="round"/>
<g style="mix-blend-mode:color-burn" opacity="0.15">
<path d="M245.852 388.883L265.636 406.012L265.196 400.316L245.422 383.186L245.852 388.883Z" fill="black"/>
</g>
<path d="M213.624 397.728C210.035 394.26 210.885 388.243 215.363 386.025C220.422 383.526 228.08 381.997 237.377 387.294C237.377 387.294 244.215 390.552 247.554 397.138C249.114 400.216 248.244 404.034 245.465 406.092C241.106 409.32 233.268 412.638 223.601 405.763C219.002 402.495 215.823 399.836 213.624 397.718V397.728Z" fill="#F2F2F2" stroke="#4C2318" stroke-width="3" stroke-linecap="round" stroke-linejoin="round"/>
<g style="mix-blend-mode:color-burn" opacity="0.15">
<path d="M245.465 406.102C241.107 409.33 233.279 412.638 223.611 405.773C219.003 402.495 215.824 399.846 213.634 397.728C211.385 395.559 210.875 392.361 211.915 389.742C212.155 390.072 212.445 390.392 212.754 390.692C214.944 392.811 218.123 395.479 222.732 398.737C232.399 405.613 240.237 402.305 244.586 399.067C245.675 398.277 246.465 397.188 246.935 395.999C247.145 396.378 247.355 396.748 247.555 397.138C249.124 400.216 248.245 404.034 245.465 406.092V406.102Z" fill="black"/>
</g>
<path d="M159.836 358.012C159.836 358.012 185.249 374.422 202.984 382.567C202.984 382.567 211.652 401.935 218.74 402.155C224.548 402.335 217.97 387.843 217.97 387.843C217.97 387.843 225.978 399.676 229.847 396.778C233.715 393.88 222.609 380.528 222.609 380.528C222.609 380.528 233.555 394.569 237.204 389.642C240.853 384.715 225.048 370.954 225.048 370.954L221.719 368.515C219.04 366.557 216.2 364.838 213.231 363.358C206.123 359.831 190.987 351.806 175.692 340.532" fill="#FF9680"/>
<path d="M159.836 358.012C159.836 358.012 185.249 374.422 202.984 382.567C202.984 382.567 211.652 401.935 218.74 402.155C224.548 402.335 217.97 387.843 217.97 387.843C217.97 387.843 225.978 399.676 229.847 396.778C233.715 393.88 222.609 380.528 222.609 380.528C222.609 380.528 233.555 394.569 237.204 389.642C240.853 384.715 225.048 370.954 225.048 370.954L221.719 368.515C219.04 366.557 216.2 364.838 213.231 363.358C206.123 359.831 190.987 351.806 175.692 340.532" stroke="#4C2318" stroke-width="3" stroke-linecap="round" stroke-linejoin="round"/>
<path d="M189.018 368.685H199.376C204.574 368.685 208.793 372.903 208.793 378.1V394.34C208.793 401.555 202.935 407.402 195.727 407.402H192.687C185.469 407.402 179.621 401.545 179.621 394.34V378.1C179.621 372.903 183.84 368.685 189.038 368.685H189.018Z" fill="#FFF9BD" stroke="#4C2318" stroke-width="3" stroke-linecap="round" stroke-linejoin="round"/>
<g style="mix-blend-mode:color-burn" opacity="0.15">
<path d="M207.672 400.776C205.812 404.693 201.813 407.402 197.184 407.402H191.206C184.798 407.402 179.609 402.215 179.609 395.809V377.04C179.609 374.302 180.919 371.863 182.968 370.344C182.619 371.264 182.419 372.283 182.419 373.322V392.081C182.419 398.487 187.617 403.684 194.025 403.684H200.004C202.953 403.684 205.642 402.594 207.682 400.776H207.672Z" fill="black"/>
</g>
<path d="M203.465 375.071C203.465 377.78 199.316 378.539 194.197 378.539C189.079 378.539 184.93 377.77 184.93 375.071" stroke="#4C2318" stroke-width="3" stroke-linecap="round" stroke-linejoin="round"/>
<g style="mix-blend-mode:multiply" opacity="0.15">
<path d="M966.241 603.451C1039.05 603.451 1098.06 595.984 1098.06 586.772C1098.06 577.56 1039.05 570.092 966.241 570.092C893.437 570.092 834.418 577.56 834.418 586.772C834.418 595.984 893.437 603.451 966.241 603.451Z" fill="black"/>
</g>
<path d="M1065.51 335.836C1065.51 335.836 1074.17 363.898 1093.37 384.756C1112.56 405.613 1131.38 471.942 1103.76 525.31C1076.13 578.677 1035.33 586.582 1016.22 584.853C1000.14 583.394 935.632 557.19 935.762 554.712C935.892 552.233 987.328 318.126 987.328 318.126L1065.51 335.846V335.836Z" fill="#86DBD4" stroke="#0B3242" stroke-width="3" stroke-linecap="round" stroke-linejoin="round"/>
<path d="M1027.4 583.284C1034.3 581.035 1040.23 576.518 1044.63 570.742C1062.2 547.686 1076.58 508.23 1058.67 466.425C1037.14 416.216 1064.16 352.455 1065.51 335.825C1066.86 319.196 1062.53 301.976 1039.37 297.019C1016.22 292.062 991.666 296.22 991.666 296.22C917.117 344 892.954 504.102 905.7 558.029C913.658 591.729 1015.04 584.703 1015.04 584.703C1019.23 585.113 1023.35 584.593 1027.4 583.274V583.284Z" fill="#66AAA3" stroke="#0B3242" stroke-width="3" stroke-linecap="round" stroke-linejoin="round"/>
<path opacity="0.3" d="M1025.38 306.484C1025.38 306.484 1050.26 306.174 1050.6 333.437C1050.6 333.437 1047.52 355.653 1041.64 363.549C1035.76 371.434 1026.25 430.118 1030.72 443.6C1035.2 457.081 1010.26 452.524 1010.26 452.524L998.434 408.831L1025.38 306.494V306.484Z" fill="black"/>
<g style="mix-blend-mode:color-burn" opacity="0.15">
<path d="M1093.37 384.755C1092.87 384.206 1092.36 383.646 1091.87 383.087C1107.38 411.109 1117.77 466.296 1094.13 511.988C1088.01 523.82 1081.23 533.414 1074.2 541.16C1070.73 544.977 1064.45 541.509 1065.93 536.563C1071.97 516.335 1072.73 492.33 1062.09 467.495C1042.55 421.903 1063.03 365.128 1067.95 342.621C1066.31 338.424 1065.51 335.825 1065.51 335.825C1066.04 329.369 1065.71 322.843 1063.75 316.957C1064 320.085 1063.95 323.293 1063.69 326.461C1063.51 328.59 1062.92 331.488 1062.07 335.046C1056.89 356.443 1037.6 402.115 1047.32 442.51C1048.58 447.717 1050.23 452.854 1052.38 457.841C1056.08 466.475 1058.4 475.02 1059.61 483.325C1064.22 515.246 1056.75 543.069 1042.82 561.367C1041.41 563.226 1039.83 564.945 1038.12 566.514C1025.61 571.331 1014.33 572.211 1006.6 571.511C994.725 570.432 956.426 555.861 937.271 547.316C936.311 551.823 935.772 554.452 935.762 554.691C935.682 556.28 962.044 567.573 985.268 575.888C959.235 575.439 922.465 572.081 908.789 557.5C908.889 558.029 909.009 558.569 909.129 559.079C911.328 568.383 920.656 574.579 932.992 578.687C965.343 589.44 1018.47 585.752 1018.47 585.752C1022.66 586.162 1026.77 585.642 1030.83 584.323C1030.85 584.323 1030.87 584.303 1030.89 584.293C1051.96 581.195 1081.96 567.394 1103.76 525.279C1131.38 471.912 1112.56 405.583 1093.37 384.726V384.755Z" fill="black"/>
</g>
<path d="M1041.26 312.839C1046.78 317.716 1053.59 327.7 1048.85 345.619C1041.45 373.602 1018.7 426.64 1035.89 459.17" stroke="#0B3242" stroke-width="3" stroke-linecap="round" stroke-linejoin="round"/>
<path d="M1033.8 308.173C1033.8 308.173 1018.24 302.986 1013.08 309.921" stroke="#0B3242" stroke-width="3" stroke-linecap="round" stroke-linejoin="round"/>
<path d="M1056.18 375.171L1084.39 397.388L1091.72 462.578L1066.52 497.307" stroke="#0B3242" stroke-width="3" stroke-linecap="round" stroke-linejoin="round"/>
<path d="M1091.72 462.578L1116.32 484.994" stroke="#0B3242" stroke-width="3" stroke-linecap="round" stroke-linejoin="round"/>
<path d="M1084.39 397.388L1093.37 384.756" stroke="#0B3242" stroke-width="3" stroke-linecap="round" stroke-linejoin="round"/>
<path d="M1059.81 543.418L1070.41 566.384" stroke="#0B3242" stroke-width="3" stroke-linecap="round" stroke-linejoin="round"/>
<path d="M888.461 441.011C888.461 441.011 855.171 476.929 878.794 540.13C892.44 576.628 905.587 436.074 905.587 436.074C905.587 436.074 897.299 422.852 888.461 441.011Z" fill="#66AAA3" stroke="#0B3242" stroke-width="3" stroke-linecap="round" stroke-linejoin="round"/>
<path d="M1024.42 566.894C1021.8 568.703 1018.87 570.242 1015.61 571.521C1014.53 571.951 1013.45 572.351 1012.37 572.73C980.147 584.203 951.205 578.087 926.162 572.87C900.279 567.483 879.965 552.173 876.846 512.527C873.737 472.891 891.702 444.899 891.702 444.899C915.495 416.696 960.663 422.752 1004.37 433.456C1012.45 435.434 1019.65 439.932 1025.68 445.108C1028.99 447.937 1031.95 450.985 1034.51 453.903C1034.58 453.983 1034.65 454.063 1034.72 454.143C1041.83 462.318 1045.81 472.742 1046.18 483.565C1047.44 520.322 1046.07 552.123 1024.43 566.904L1024.42 566.894Z" fill="#B1DDB6" stroke="#0B3242" stroke-width="3" stroke-linecap="round" stroke-linejoin="round"/>
<g style="mix-blend-mode:color-burn" opacity="0.15">
<path d="M1025.85 565.964C1023.22 567.773 1020.28 569.322 1017.03 570.591C1015.94 571.021 1014.86 571.421 1013.79 571.791C981.567 583.274 952.626 577.157 927.572 571.931C912.067 568.703 898.55 561.917 889.543 548.445C897.841 556.08 908.298 560.468 919.845 562.876C944.898 568.103 973.84 574.219 1006.06 562.746C1007.13 562.367 1008.21 561.967 1009.3 561.537C1012.55 560.268 1015.49 558.719 1018.12 556.91C1039.75 542.129 1041.12 510.318 1039.86 473.571C1039.56 464.566 1036.74 455.842 1031.71 448.456C1033.21 449.965 1034.61 451.474 1035.92 452.964C1035.99 453.053 1036.06 453.123 1036.13 453.203C1043.24 461.388 1047.23 471.802 1047.59 482.625C1048.85 519.373 1047.48 551.183 1025.85 565.964Z" fill="black"/>
</g>
<path d="M1017.69 568.843C1009.91 556.77 986.857 514.366 1002.75 456.352C1002.75 456.352 1009.56 440.241 1023.77 440.661C1023.82 440.661 1023.87 440.661 1023.93 440.661C1023.93 440.661 1036.67 444.319 1033.07 448.936C1033.07 448.936 1026.38 443 1017.63 458.46C1009.04 473.671 999.333 497.536 1029.39 562.327C1031.42 565.974 1019.72 572.48 1017.69 568.833V568.843Z" fill="#66AAA3" stroke="#0B3242" stroke-width="3" stroke-linecap="round" stroke-linejoin="round"/>
<path d="M892.703 425.301C892.703 425.301 884.066 445.018 910.209 457.371C936.351 469.723 981.689 464.756 1003.53 447.677C1003.53 447.677 1025.54 433.745 1014.03 410.12C999.424 380.138 899.342 370.424 892.703 425.301Z" fill="#66AAA3" stroke="#0B3242" stroke-width="3" stroke-linecap="round" stroke-linejoin="round"/>
<g style="mix-blend-mode:color-burn" opacity="0.15">
<path d="M1003.53 447.687C987.066 460.559 957.254 466.555 932.371 463.427C954.965 464.197 979.598 458.191 994.004 446.937C994.004 446.937 1016.01 433.006 1004.5 409.37C998.643 397.348 979.028 388.583 957.214 385.935C982.627 386.874 1007.33 396.368 1014.03 410.12C1025.54 433.756 1003.53 447.687 1003.53 447.687Z" fill="black"/>
</g>
<path d="M878.915 342.821C878.915 342.821 874.646 277.771 957.893 274.213C957.893 274.213 1007.11 270.985 1033.27 314.149C1041.33 327.441 1045.42 342.741 1045.59 358.272C1045.8 377.87 1042.35 409.161 1020.95 427.929C988.014 456.792 951.424 458.96 934.629 457.441C916.584 455.812 856.281 433.965 867.528 365.507C867.528 365.507 870.547 353.385 878.915 342.821Z" fill="#FFE3AB" stroke="#0B3242" stroke-width="3" stroke-linecap="round" stroke-linejoin="round"/>
<g style="mix-blend-mode:color-burn" opacity="0.15">
<path d="M1045.59 358.262C1045.79 377.86 1042.34 409.16 1020.93 427.919C988.004 456.791 951.414 458.95 934.619 457.431C926.451 456.691 909.616 451.804 894.68 440.331C905.627 446.108 916.034 448.796 921.922 449.326C938.717 450.845 975.307 448.686 1008.24 419.814C1029.64 401.045 1033.09 369.755 1032.89 350.157C1032.72 334.626 1028.63 319.316 1020.58 306.034C1014.98 296.779 1008.31 289.664 1001.28 284.187C1012.72 290.073 1024.34 299.398 1033.27 314.139C1041.33 327.421 1045.42 342.731 1045.58 358.262H1045.59Z" fill="black"/>
</g>
<path d="M900.102 263.38C900.102 263.38 930.883 248.609 929.323 287.675C929.323 287.675 922.775 264.979 900.102 263.38Z" fill="#B3E9BB" stroke="#0B3242" stroke-width="3" stroke-linecap="round" stroke-linejoin="round"/>
<path d="M973.078 531.406C977.177 530.486 981.336 529.347 985.555 527.958" stroke="#0B3242" stroke-width="3" stroke-linecap="round" stroke-linejoin="round"/>
<path d="M891.844 519.363C910.878 532.525 937.831 536.742 963.694 533.115" stroke="#0B3242" stroke-width="3" stroke-linecap="round" stroke-linejoin="round"/>
<path d="M889.723 487.692C917.575 506.761 950.936 510.019 989.285 498.995" stroke="#0B3242" stroke-width="3" stroke-linecap="round" stroke-linejoin="round"/>
<path d="M896.781 335.176C901.42 330.119 906.039 330.149 910.627 335.246" stroke="#0B3242" stroke-width="3" stroke-linecap="round" stroke-linejoin="round"/>
<path d="M934.593 385.365C930.934 393.04 914.028 393.53 910.27 385.245" stroke="#0B3242" stroke-width="3" stroke-linecap="round" stroke-linejoin="round"/>
<path d="M895.175 365.298C895.185 363.328 891.08 361.709 886.006 361.683C880.932 361.656 876.81 363.232 876.8 365.202C876.79 367.173 880.895 368.792 885.969 368.818C891.043 368.845 895.164 367.269 895.175 365.298Z" fill="#FF7471" stroke="#0B3242" stroke-width="3" stroke-linecap="round" stroke-linejoin="round"/>
<path d="M908.6 351.357C908.614 348.597 906.388 346.348 903.627 346.334C900.867 346.32 898.617 348.545 898.603 351.305L898.569 357.771C898.554 360.53 900.781 362.779 903.541 362.794C906.302 362.808 908.552 360.583 908.566 357.823L908.6 351.357Z" fill="#0B3242"/>
<path d="M901.312 352.485C901.98 352.485 902.522 351.944 902.522 351.276C902.522 350.608 901.98 350.067 901.312 350.067C900.643 350.067 900.102 350.608 900.102 351.276C900.102 351.944 900.643 352.485 901.312 352.485Z" fill="white"/>
<path d="M938.102 333.976C942.74 328.919 947.359 328.949 951.948 334.046" stroke="#0B3242" stroke-width="3" stroke-linecap="round" stroke-linejoin="round"/>
<path d="M971.456 363.089C971.466 361.119 967.361 359.5 962.287 359.473C957.213 359.447 953.092 361.023 953.081 362.993C953.071 364.963 957.176 366.582 962.25 366.609C967.324 366.635 971.446 365.06 971.456 363.089Z" fill="#FF7471" stroke="#0B3242" stroke-width="3" stroke-linecap="round" stroke-linejoin="round"/>
<path d="M949.912 350.164C949.927 347.405 947.701 345.156 944.94 345.141C942.179 345.127 939.93 347.352 939.915 350.112L939.881 356.578C939.867 359.338 942.093 361.586 944.854 361.601C947.614 361.615 949.864 359.39 949.878 356.63L949.912 350.164Z" fill="#0B3242"/>
<path d="M942.628 351.286C943.296 351.286 943.838 350.744 943.838 350.076C943.838 349.409 943.296 348.867 942.628 348.867C941.96 348.867 941.418 349.409 941.418 350.076C941.418 350.744 941.96 351.286 942.628 351.286Z" fill="white"/>
<path d="M836.976 435.284C836.976 435.284 866.108 429.388 892.701 442.5C896.31 444.279 900.479 444.539 904.308 443.32C915.395 439.782 940.488 434.085 969.899 442.38L965.191 531.496C965.191 531.496 915.764 525 899.209 530.006C895.92 530.996 892.401 530.796 889.172 529.617C877.275 525.249 850.723 516.605 836.227 520.562L836.966 435.284H836.976Z" fill="#BBEAE4" stroke="#0B3242" stroke-width="3" stroke-linecap="round" stroke-linejoin="round"/>
<path d="M898.871 524.54L901.111 449.916" stroke="#0B3242" stroke-width="3" stroke-linecap="round" stroke-linejoin="round"/>
<path d="M892.871 467.605L893.421 449.306" stroke="#0B3242" stroke-width="3" stroke-linecap="round" stroke-linejoin="round"/>
<path d="M891.18 523.93L892.36 484.824" stroke="#0B3242" stroke-width="3" stroke-linecap="round" stroke-linejoin="round"/>
<path d="M853.661 572.94C855.77 579.826 862.239 584.423 869.447 584.253C881.773 583.963 900.498 582.884 910.425 580.815C922.052 578.397 923.722 566.564 922.502 555.391C921.162 543.158 910.045 534.374 897.789 535.633C891.58 536.273 885.422 537.002 881.953 537.672C881.953 537.672 875.255 511.398 858.29 516.934C851.452 519.163 848.492 525.669 847.373 531.795C846.463 536.752 846.623 541.839 847.623 546.786C848.712 552.193 850.642 563.076 853.661 572.94Z" fill="#FFE3AB" stroke="#0B3242" stroke-width="3" stroke-linecap="round" stroke-linejoin="round"/>
<g style="mix-blend-mode:color-burn" opacity="0.15">
<path d="M910.425 580.825C900.508 582.894 881.773 583.973 869.446 584.253C862.998 584.413 857.14 580.725 854.48 575.029C857.31 577.158 860.839 578.357 864.578 578.267C876.904 577.977 895.629 576.898 905.556 574.839C917.183 572.41 918.853 560.578 917.643 549.415C917.313 546.396 916.383 543.588 915.004 541.1C919.073 544.637 921.882 549.644 922.522 555.411C923.731 566.584 922.072 578.417 910.435 580.835L910.425 580.825Z" fill="black"/>
</g>
<path d="M869.375 541.37C869.825 543.508 870.225 545.927 870.555 548.645L869.375 541.37Z" fill="#FFE3AB"/>
<path d="M869.375 541.37C869.825 543.508 870.225 545.927 870.555 548.645" stroke="#0B3242" stroke-width="3" stroke-linecap="round" stroke-linejoin="round"/>
<path d="M856.191 525.389C856.191 525.389 863.329 521.852 867.888 535.733L856.191 525.389Z" fill="#FFE3AB"/>
<path d="M856.191 525.389C856.191 525.389 863.329 521.852 867.888 535.733" stroke="#0B3242" stroke-width="3" stroke-linecap="round" stroke-linejoin="round"/>
<path d="M881.953 537.672C881.953 537.672 884.113 545.537 884.763 550.264L881.953 537.672Z" fill="#FFE3AB"/>
<path d="M881.953 537.672C881.953 537.672 884.113 545.537 884.763 550.264" stroke="#0B3242" stroke-width="3" stroke-linecap="round" stroke-linejoin="round"/>
<path d="M920.513 580.226C922.462 587.161 928.82 591.909 936.028 591.909C948.355 591.909 967.11 591.269 977.077 589.43C988.764 587.281 990.703 575.499 989.753 564.295C988.704 552.033 977.787 542.988 965.51 543.958C959.282 544.448 953.114 545.027 949.625 545.617C949.625 545.617 943.546 519.193 926.451 524.33C919.563 526.399 916.454 532.835 915.184 538.931C914.154 543.868 914.204 548.955 915.084 553.922C916.054 559.348 917.713 570.282 920.513 580.216V580.226Z" fill="#FFE3AB" stroke="#0B3242" stroke-width="3" stroke-linecap="round" stroke-linejoin="round"/>
<g style="mix-blend-mode:color-burn" opacity="0.15">
<path d="M978.507 586.972C968.67 589.42 949.995 591.239 937.699 591.998C931.26 592.408 925.262 588.96 922.383 583.364C925.302 585.382 928.871 586.442 932.59 586.202C944.897 585.432 963.571 583.624 973.399 581.175C984.925 578.297 986.125 566.414 984.476 555.301C984.026 552.303 982.986 549.534 981.516 547.096C985.725 550.464 988.724 555.361 989.584 561.107C991.234 572.231 990.034 584.113 978.507 586.982V586.972Z" fill="black"/>
</g>
<path d="M924.16 532.735C924.16 532.735 935.157 527.598 937.966 556.33L924.16 532.735Z" fill="#FFE3AB"/>
<path d="M924.16 532.735C924.16 532.735 935.157 527.598 937.966 556.33" stroke="#0B3242" stroke-width="3" stroke-linecap="round" stroke-linejoin="round"/>
<path d="M949.625 545.627C949.625 545.627 951.595 553.542 952.145 558.279L949.625 545.627Z" fill="#FFE3AB"/>
<path d="M949.625 545.627C949.625 545.627 951.595 553.542 952.145 558.279" stroke="#0B3242" stroke-width="3" stroke-linecap="round" stroke-linejoin="round"/>
<path d="M998.462 482.666C992.833 485.854 986.055 487.473 978.727 487.413C977.528 486.633 975.978 478.358 968.42 479.537L967.87 487.852C967.87 487.852 967.82 487.922 967.79 487.952C966.261 489.921 964.161 490.531 961.382 490.97C957.753 491.54 951.985 491.42 951.665 495.218C951.205 500.615 963.622 501.184 963.622 501.184C963.622 501.184 952.225 502.044 952.115 507.131C951.965 513.487 963.562 511.458 963.562 511.458C953.194 513.836 956.164 523.101 968.9 519.543C968.9 519.543 979.397 518.044 986.655 513.846C986.655 513.846 1029.33 509.079 1039.46 484.954C1049.59 460.829 1033.61 449.756 1033.61 449.756C1033.61 449.756 1017.06 440.092 1010.54 468.015L1006.42 474.81C1004.46 478.048 1001.75 480.807 998.452 482.676L998.462 482.666Z" fill="#FFE3AB" stroke="#0B3242" stroke-width="3" stroke-linecap="round" stroke-linejoin="round"/>
<path d="M456.176 524.44C451.898 525.13 447.499 524.27 443.83 521.962C440.011 519.563 436.302 516.015 433.243 511.568C430.184 507.121 428.194 502.384 427.314 497.957C426.475 493.699 427.234 489.292 429.414 485.534C431.073 482.676 433.493 480.327 436.412 478.748L488.897 449.646C494.466 445.818 503.913 449.906 510.012 458.77C516.11 467.635 516.55 477.919 510.981 481.746L465.024 520.333C462.515 522.491 459.456 523.911 456.186 524.44H456.176Z" fill="#94D8ED"/>
<mask id="mask0_4_108023" style="mask-type:luminance" maskUnits="userSpaceOnUse" x="426" y="448" width="89" height="77">
<path d="M456.176 524.44C451.898 525.13 447.499 524.27 443.83 521.962C440.011 519.563 436.302 516.015 433.243 511.568C430.184 507.121 428.194 502.384 427.314 497.957C426.475 493.699 427.234 489.292 429.414 485.534C431.073 482.676 433.493 480.327 436.412 478.748L488.897 449.646C494.466 445.818 503.913 449.906 510.012 458.77C516.11 467.635 516.55 477.919 510.981 481.746L465.024 520.333C462.515 522.491 459.456 523.911 456.186 524.44H456.176Z" fill="white"/>
</mask>
<g mask="url(#mask0_4_108023)">
<path d="M473.651 519.663C476.06 492.36 464.443 476.17 439.75 470.393L453.836 460.709C481.019 467.725 492.775 483.995 487.737 509.979L473.651 519.663Z" fill="white"/>
</g>
<path d="M456.176 524.44C451.898 525.13 447.499 524.27 443.83 521.962C440.011 519.563 436.302 516.015 433.243 511.568C430.184 507.121 428.194 502.384 427.314 497.957C426.475 493.699 427.234 489.292 429.414 485.534C431.073 482.676 433.493 480.327 436.412 478.748L488.897 449.646C494.466 445.818 503.913 449.906 510.012 458.77C516.11 467.635 516.55 477.919 510.981 481.746L465.024 520.333C462.515 522.491 459.456 523.911 456.186 524.44H456.176Z" stroke="#303030" stroke-width="3" stroke-linecap="round" stroke-linejoin="round"/>
<path d="M457.395 494.958C462.573 502.484 464.673 510.799 463.553 517.115" stroke="#303030" stroke-width="3" stroke-linecap="round" stroke-linejoin="round"/>
<path d="M439.832 481.487C442.861 482.236 446.02 483.815 449.039 486.094" stroke="#303030" stroke-width="3" stroke-linecap="round" stroke-linejoin="round"/>
<g style="mix-blend-mode:multiply" opacity="0.15">
<path d="M510.981 481.756L465.024 520.333C462.515 522.492 459.456 523.911 456.187 524.44C455.897 524.49 455.607 524.53 455.317 524.55C451.308 525 447.259 524.111 443.84 521.952C440.021 519.543 436.312 516.005 433.253 511.558C430.184 507.101 428.204 502.374 427.325 497.947C426.885 495.698 426.885 493.399 427.305 491.181C427.685 489.202 428.394 487.293 429.424 485.524C429.424 485.524 446.619 483.825 455.367 504.133C456.097 505.822 456.676 507.371 457.126 508.82C458.086 511.868 461.865 513.007 464.304 510.939C464.324 510.919 464.344 510.909 464.354 510.889L510.322 472.302C512.171 471.033 513.361 469.044 513.891 466.636C515.87 473.052 514.95 479.018 511.001 481.746L510.981 481.756Z" fill="black"/>
</g>
<path d="M436.021 492.95C433.372 493.479 429.363 493.879 426.994 495.178L419.766 498.726C417.896 499.456 415.927 501.314 416.197 503.383C416.777 509.579 416.487 509.949 422.465 512.358C425.714 513.167 434.222 504.103 436.811 502.594C438.311 501.604 439.35 499.635 439.17 498.036C438.921 496.058 439.1 492.11 436.021 492.94V492.95Z" fill="white" stroke="#303030" stroke-width="3" stroke-linecap="round" stroke-linejoin="round"/>
<path d="M423.747 500.435C421.677 502.244 420.587 504.972 420.907 507.781L420.987 508.5" stroke="#303030" stroke-width="3" stroke-linecap="round" stroke-linejoin="round"/>
<g style="mix-blend-mode:multiply" opacity="0.15">
<path d="M421.044 505.062C421.044 505.062 423.454 498.746 430.042 497.297C436.63 495.858 438.609 494.039 438.609 494.039C438.689 494.209 438.739 494.409 438.769 494.618L439.169 498.046C439.349 499.645 438.309 501.624 436.81 502.604L426.583 510.869C426.383 511.028 426.173 511.178 425.953 511.298L424.573 512.058C424.103 512.318 423.633 512.448 423.224 512.468C422.954 512.478 422.694 512.448 422.464 512.358C422.354 512.328 422.254 512.278 422.164 512.218L418.675 510.619C417.685 510.129 416.925 509.12 416.735 508.04L416.355 502.024C416.485 504.013 418.865 504.472 421.044 505.062Z" fill="black"/>
</g>
<path d="M450.695 514.906C449.396 517.275 447.816 520.972 445.857 522.841L440.298 528.668C439.039 530.227 436.679 531.556 434.78 530.676C429.041 528.268 428.601 528.428 428.102 522.002C428.312 518.654 439.508 513.267 441.728 511.248C443.117 510.109 445.317 509.719 446.786 510.369C448.596 511.198 452.425 512.218 450.705 514.896L450.695 514.906Z" fill="white" stroke="#303030" stroke-width="3" stroke-linecap="round" stroke-linejoin="round"/>
<path d="M442.52 521.942C440.23 524.53 437.531 526.929 435.452 526.389L431.133 523.721" stroke="#303030" stroke-width="3" stroke-linecap="round" stroke-linejoin="round"/>
<g style="mix-blend-mode:multiply" opacity="0.15">
<path d="M450.687 514.906L448.408 519.264C447.718 520.573 446.859 521.772 445.839 522.841L440.28 528.668C440.22 528.738 440.15 528.818 440.07 528.898L439.131 529.787C438.001 530.856 436.052 531.256 434.772 530.677L430.493 528.768C429.513 528.258 428.784 527.239 428.614 526.149L428.134 522.342C428.104 522.232 428.094 522.122 428.094 522.012C428.724 521.192 433.372 526.729 435.682 526.449C437.991 526.169 436.821 523.061 436.821 523.061C433.362 522.901 431.513 518.034 431.513 518.034L438.471 513.417C440.82 512.218 443.39 511.049 445.649 510.089C446.049 510.129 446.439 510.219 446.779 510.379L449.928 511.788C451.297 512.398 451.277 514.027 450.697 514.916L450.687 514.906Z" fill="black"/>
</g>
<path d="M441.469 516.525L451.007 506.151C452.536 504.872 452.866 502.614 451.706 500.945L449.227 497.377C448.147 495.818 446.138 495.298 444.458 496.038L444.408 495.978L431.962 503.563C431.832 503.633 431.712 503.703 431.582 503.793L430.102 504.822C428.333 506.051 427.903 508.48 429.123 510.249L433.911 517.135C435.141 518.904 437.57 519.333 439.34 518.114L440.819 517.085C441.059 516.925 441.269 516.735 441.459 516.535L441.469 516.525Z" fill="white" stroke="#303030" stroke-width="3" stroke-linecap="round" stroke-linejoin="round"/>
<path d="M434.211 504.522C434.751 504.802 435.231 505.212 435.601 505.752L440.389 512.638C440.699 513.077 440.899 513.567 440.999 514.057" fill="white"/>
<path d="M434.211 504.522C434.751 504.802 435.231 505.212 435.601 505.752L440.389 512.638C440.699 513.077 440.899 513.567 440.999 514.057" stroke="#303030" stroke-width="3" stroke-linecap="round" stroke-linejoin="round"/>
<g style="mix-blend-mode:multiply" opacity="0.15">
<path d="M441.341 512.917L435.603 505.752C432.424 503.803 428.465 508.44 428.465 508.44C428.525 509.07 428.755 509.689 429.145 510.239L433.933 517.125C435.163 518.894 437.582 519.333 439.362 518.104L440.841 517.075C441.071 516.905 441.291 516.725 441.471 516.515L451.009 506.141C452.538 504.862 453.508 503.403 452.348 501.734L441.341 512.907V512.917Z" fill="black"/>
</g>
<path d="M488.388 417.096C488.388 417.096 477.921 421.843 475.282 444.919C472.932 465.436 474.622 474.871 477.921 475.24C481.22 475.61 488.388 417.096 488.388 417.096Z" fill="white" stroke="#303030" stroke-width="3" stroke-linecap="round" stroke-linejoin="round"/>
<path d="M514.233 532.605C558.401 547.436 623.622 542.969 657.003 508.02C662.942 504.223 660.802 453.494 660.802 453.494C660.532 373.672 538.256 318.986 484.991 423.402C474.744 445.379 478.433 477.689 478.693 501.274C480.392 515.925 493.409 523.711 514.233 532.605Z" fill="#94D8ED" stroke="#303030" stroke-width="3" stroke-linecap="round" stroke-linejoin="round"/>
<path d="M632.046 472.232C632.046 478.258 631.517 484.135 630.497 489.811C590.898 512.078 531.214 512.038 491.705 489.592C480.818 444.209 507.111 387.244 558.007 385.305C604.524 386.235 633.246 428.199 632.046 472.232Z" fill="white" stroke="#303030" stroke-width="3" stroke-linecap="round" stroke-linejoin="round"/>
<path d="M513.972 404.884C493.177 427 485.1 459.99 491.698 489.592L486.979 490.521C480.981 459.18 490.478 426.22 513.962 404.884H513.972Z" fill="#94D8ED" stroke="#303030" stroke-width="3" stroke-linecap="round" stroke-linejoin="round"/>
<g style="mix-blend-mode:multiply" opacity="0.15">
<path d="M513.972 404.884C493.177 427 485.1 459.99 491.698 489.592L486.979 490.521C480.981 459.18 490.478 426.22 513.962 404.884H513.972Z" fill="black"/>
</g>
<path d="M605.785 404.494C629.808 425.501 639.366 458.86 635.707 490.921L630.498 489.801C635.567 459.32 628.279 425.581 605.785 404.484V404.494Z" fill="#94D8ED" stroke="#303030" stroke-width="3" stroke-linecap="round" stroke-linejoin="round"/>
<g style="mix-blend-mode:multiply" opacity="0.15">
<path d="M605.785 404.494C629.808 425.501 639.366 458.86 635.707 490.921L630.498 489.801C635.567 459.32 628.279 425.581 605.785 404.484V404.494Z" fill="black"/>
</g>
<path d="M635.709 490.931C597.839 519.403 522.43 517.854 487 490.521L491.709 489.592C531.218 512.038 590.901 512.078 630.5 489.811L635.709 490.931Z" fill="#94D8ED" stroke="#303030" stroke-width="3" stroke-linecap="round" stroke-linejoin="round"/>
<path d="M477.992 478.289C481.831 487.513 486.99 490.511 486.99 490.511" stroke="#303030" stroke-width="3" stroke-linecap="round" stroke-linejoin="round"/>
<path d="M635.707 490.931C635.707 490.931 651.393 480.847 661.05 461.809" stroke="#303030" stroke-width="3" stroke-linecap="round" stroke-linejoin="round"/>
<path d="M577.384 349.497C571.796 349.218 566.667 356.073 564.288 365.977C563.588 368.866 563.138 372.014 562.968 375.322C562.928 376.121 562.908 376.911 562.898 377.69C562.898 378.7 562.019 379.499 561.009 379.419C556.51 379.059 553.511 379.179 551.742 379.339C550.722 379.439 549.832 378.63 549.832 377.6C549.832 376.631 549.852 375.651 549.902 374.662C550.022 372.253 550.302 369.925 550.712 367.726C552.801 356.553 558.29 348.528 564.318 348.838L577.384 349.507V349.497Z" fill="white" stroke="#303030" stroke-width="3" stroke-linecap="round" stroke-linejoin="round"/>
<path d="M588.861 368.336C586.182 367.696 583.463 367.176 580.734 366.787C571.466 367.776 565.938 374.772 563.858 377.98C563.578 378.42 562.889 378.21 562.899 377.69C562.899 376.91 562.929 376.121 562.969 375.321C563.138 372.013 563.598 368.865 564.288 365.977C566.668 356.083 571.796 349.217 577.385 349.497C583.173 349.797 587.692 357.682 588.851 368.336H588.861Z" fill="white" stroke="#303030" stroke-width="3" stroke-linecap="round" stroke-linejoin="round"/>
<path d="M585.929 367.686C584.2 367.326 582.47 367.027 580.731 366.777C575.142 367.366 570.914 370.155 567.984 372.973C567.984 372.583 567.984 372.193 568.004 371.804C568.364 363.009 572.713 356.033 577.732 356.243C581.791 356.403 585.03 361.2 585.939 367.686H585.929Z" fill="#ADADAD" stroke="#303030" stroke-width="3" stroke-linecap="round" stroke-linejoin="round"/>
<path d="M555.431 379.169C555.431 379.169 554.141 382.977 554.181 385.545L555.431 379.169Z" fill="white"/>
<path d="M555.431 379.169C555.431 379.169 554.141 382.977 554.181 385.545" stroke="#303030" stroke-width="3" stroke-linecap="round" stroke-linejoin="round"/>
<g style="mix-blend-mode:multiply" opacity="0.15">
<path d="M661.078 463.278C660.958 457.461 660.799 453.484 660.799 453.484C660.749 439.662 657.04 426.59 650.671 414.977C650.471 414.617 650.271 414.258 650.072 413.898C649.882 413.558 649.692 413.228 649.492 412.888C648.512 411.2 647.462 409.551 646.363 407.922C646.183 407.662 646.003 407.402 645.823 407.142C645.693 406.942 645.543 406.742 645.403 406.542C645.223 406.283 645.043 406.023 644.853 405.773C643.353 403.674 641.754 401.645 640.064 399.687C639.824 399.397 639.564 399.107 639.314 398.817C638.045 397.358 636.715 395.939 635.346 394.56C635.116 394.32 634.876 394.08 634.636 393.85C632.676 391.911 630.627 390.052 628.497 388.294C628.228 388.064 627.958 387.844 627.688 387.624C627.468 387.444 627.258 387.264 627.038 387.094C626.808 386.914 626.578 386.724 626.338 386.545C625.468 385.865 624.599 385.195 623.709 384.546C623.119 384.116 622.519 383.686 621.919 383.267C621.16 382.747 620.4 382.227 619.63 381.718C619.28 381.488 618.93 381.258 618.58 381.038C618.23 380.808 617.88 380.588 617.521 380.368C617.201 380.169 616.871 379.969 616.551 379.769C615.741 379.269 614.911 378.789 614.081 378.32C613.792 378.15 613.502 377.99 613.212 377.83C612.852 377.63 612.482 377.43 612.112 377.23C611.742 377.04 611.382 376.841 611.012 376.651C609.533 375.881 608.033 375.142 606.524 374.452C605.764 374.112 605.004 373.772 604.234 373.443C603.854 373.283 603.464 373.123 603.085 372.963C602.695 372.803 602.305 372.643 601.905 372.483C601.525 372.343 601.145 372.193 600.765 372.043C600.005 371.754 599.246 371.474 598.486 371.194C598.466 371.194 598.446 371.184 598.416 371.174C598.016 371.034 597.636 370.904 597.236 370.764C596.836 370.624 596.446 370.494 596.047 370.364C594.457 369.845 592.857 369.375 591.248 368.945C591.198 368.935 591.158 368.925 591.108 368.905C590.348 368.706 589.588 368.516 588.818 368.336C587.649 357.682 583.13 349.797 577.352 349.497C571.763 349.217 566.635 356.073 564.255 365.977C563.555 368.865 563.106 372.013 562.936 375.321C562.866 376.771 562.526 377.78 562.566 379.169L562.716 379.849L563.056 380.318C576.922 381.158 592.108 377.6 592.108 377.6C616.061 387.754 626.868 418.645 631.737 445.608C636.155 460.02 637.415 475.62 635.675 490.911L640.324 488.332L639.215 522.182C647.172 517.754 650.841 514.426 656.97 508C661.238 505.272 661.328 478.218 661.048 463.268L661.078 463.278Z" fill="black"/>
</g>
<path d="M654.663 414.927H650.734L645.815 418.925C643.376 420.914 642.096 423.982 642.426 427.12L646.525 466.346C646.835 469.314 648.774 471.852 651.544 472.952C652.253 473.232 652.993 473.401 653.733 473.471C653.973 473.491 654.233 473.501 654.473 473.501C654.663 473.501 654.863 473.501 655.053 473.481L658.242 473.501C658.292 473.501 658.352 473.501 658.402 473.501C658.432 473.501 658.472 473.501 658.512 473.501H658.992V473.481C660.871 473.351 662.671 472.552 664.06 471.173C665.68 469.554 666.979 467.655 667.879 465.596C668.789 463.537 669.309 461.299 669.399 459.01C670.029 442.44 665.15 427.739 654.663 414.947V414.927Z" fill="white" stroke="#303030" stroke-width="3" stroke-linecap="round" stroke-linejoin="round"/>
<path d="M654.65 414.927L649.722 418.925C647.282 420.904 646.003 423.982 646.332 427.11L650.431 466.336C650.741 469.304 652.681 471.842 655.45 472.942C658.409 474.111 661.788 473.411 664.038 471.163C667.277 467.925 669.196 463.577 669.376 459C670.006 442.43 665.127 427.729 654.64 414.937L654.65 414.927Z" fill="white" stroke="#303030" stroke-width="3" stroke-linecap="round" stroke-linejoin="round"/>
<g style="mix-blend-mode:multiply" opacity="0.15">
<path d="M669.437 457.581C669.427 458.051 669.407 458.521 669.397 458.99C669.377 459.56 669.327 460.13 669.257 460.689V460.709C669.217 460.989 669.177 461.259 669.127 461.539C669.067 461.819 669.017 462.098 668.957 462.368C668.897 462.628 668.838 462.878 668.768 463.128C668.768 463.158 668.748 463.188 668.738 463.218C668.668 463.477 668.588 463.737 668.508 463.987C668.328 464.527 668.128 465.047 667.898 465.566C666.988 467.625 665.698 469.524 664.079 471.143C663.839 471.383 663.589 471.602 663.329 471.802C663.239 471.882 663.139 471.952 663.039 472.022C662.919 472.112 662.799 472.192 662.669 472.272C662.589 472.322 662.509 472.372 662.429 472.422C662.199 472.552 661.969 472.672 661.729 472.772C661.559 472.852 661.38 472.922 661.2 472.992C661.05 473.052 660.89 473.102 660.74 473.152C660.63 473.192 660.51 473.222 660.4 473.241C660.29 473.271 660.17 473.301 660.06 473.321C659.72 473.391 659.36 473.441 659.01 473.461C658.88 473.481 658.74 473.481 658.6 473.481C658.54 473.481 658.48 473.481 658.42 473.481C658.36 473.481 658.29 473.481 658.23 473.481C657.311 473.461 656.381 473.281 655.491 472.932C655.141 472.802 654.811 472.642 654.491 472.452C653.892 472.122 653.342 471.702 652.852 471.233C651.532 469.953 650.663 468.225 650.463 466.326L646.364 427.1C646.034 423.972 647.313 420.894 649.753 418.905L651.862 417.196L654.671 414.917C655.071 415.407 655.471 415.897 655.851 416.396C656.081 416.686 656.301 416.976 656.521 417.266C657.081 418.015 657.621 418.765 658.14 419.514C658.41 419.904 658.68 420.294 658.94 420.684C659.2 421.083 659.46 421.473 659.71 421.873C659.85 422.103 659.99 422.323 660.13 422.553C660.29 422.802 660.44 423.062 660.59 423.312C660.87 423.782 661.15 424.262 661.42 424.751C661.629 425.111 661.819 425.471 662.019 425.841C662.249 426.26 662.469 426.68 662.679 427.1C662.899 427.519 663.109 427.949 663.309 428.369C663.499 428.769 663.689 429.168 663.869 429.558C663.909 429.648 663.949 429.738 663.989 429.828C664.159 430.198 664.319 430.578 664.479 430.947C664.649 431.327 664.809 431.717 664.959 432.107C665.009 432.217 665.049 432.327 665.089 432.437C665.219 432.766 665.348 433.106 665.468 433.436C665.688 434.016 665.898 434.595 666.098 435.185C666.138 435.315 666.188 435.445 666.228 435.565C666.488 436.364 666.738 437.154 666.968 437.953C667.088 438.353 667.198 438.753 667.298 439.162C667.398 439.542 667.498 439.922 667.588 440.302C667.608 440.342 667.618 440.392 667.628 440.442C667.718 440.811 667.798 441.181 667.888 441.551C667.898 441.581 667.908 441.621 667.908 441.661C667.978 441.961 668.038 442.27 668.098 442.57C668.128 442.71 668.168 442.86 668.188 443.01C668.338 443.78 668.478 444.549 668.608 445.329C668.668 445.678 668.718 446.038 668.768 446.388C668.808 446.648 668.847 446.898 668.877 447.157C668.907 447.387 668.937 447.617 668.967 447.847C668.967 447.887 668.977 447.927 668.987 447.977C669.077 448.727 669.157 449.486 669.217 450.256C669.257 450.785 669.297 451.315 669.337 451.855C669.367 452.324 669.387 452.804 669.407 453.274C669.407 453.304 669.407 453.344 669.407 453.374C669.457 454.753 669.467 456.152 669.447 457.551L669.437 457.581Z" fill="black"/>
</g>
<path d="M570.974 511.458L570.554 515.566C570.224 518.784 567.674 521.332 564.455 521.612C558.387 522.132 551.699 522.092 544.701 521.372C537.713 520.663 531.135 519.363 525.306 517.644C522.207 516.725 520.218 513.717 520.538 510.499L520.947 506.471C536.823 510.609 554.208 512.368 570.974 511.458Z" fill="white" stroke="#303030" stroke-width="3" stroke-linecap="round" stroke-linejoin="round"/>
<g style="mix-blend-mode:color-burn" opacity="0.15">
<path d="M642.465 424.801H646.294C646.914 421.024 650.123 417.825 654.661 414.927H650.733C650.733 414.927 643.085 419.474 642.465 424.801Z" fill="black"/>
</g>
<g style="mix-blend-mode:multiply" opacity="0.15">
<path d="M630.5 489.811C627.481 491.51 624.352 493.069 621.123 494.508C630.32 430.468 585.562 391.262 585.562 391.262C605.137 399.886 619.363 417.046 626.611 437.523C632.26 454.053 633.379 472.462 630.49 489.811H630.5Z" fill="black"/>
</g>
<g style="mix-blend-mode:multiply" opacity="0.15">
<path d="M652.663 591.909C652.663 599.694 623.381 606 587.261 606C551.141 606 521.859 599.694 521.859 591.909C521.859 584.124 551.141 577.817 587.261 577.817C623.381 577.817 652.663 584.124 652.663 591.909Z" fill="black"/>
</g>
<path d="M556.891 435.814C560.77 432.097 564.369 432.347 567.708 436.554" stroke="#303030" stroke-width="3" stroke-linecap="round" stroke-linejoin="round"/>
<path d="M516.301 435.814C520.18 432.097 523.779 432.347 527.118 436.554" stroke="#303030" stroke-width="3" stroke-linecap="round" stroke-linejoin="round"/>
<path d="M515.962 469.199C516.118 466.925 511.507 464.757 505.663 464.357C499.818 463.957 494.954 465.476 494.798 467.75C494.642 470.024 499.253 472.192 505.098 472.593C510.942 472.993 515.807 471.474 515.962 469.199Z" fill="#FF7471" stroke="#303030" stroke-width="3" stroke-linecap="round" stroke-linejoin="round"/>
<path d="M585.607 472.958C585.763 470.683 581.151 468.515 575.307 468.115C569.463 467.715 564.598 469.234 564.442 471.508C564.287 473.782 568.898 475.95 574.742 476.351C580.587 476.751 585.451 475.232 585.607 472.958Z" fill="#FF7471" stroke="#303030" stroke-width="3" stroke-linecap="round" stroke-linejoin="round"/>
<path d="M527.687 454.089C527.905 450.907 525.503 448.15 522.322 447.932C519.141 447.714 516.386 450.117 516.168 453.3L515.658 460.738C515.44 463.921 517.842 466.678 521.023 466.896C524.204 467.114 526.96 464.71 527.178 461.527L527.687 454.089Z" fill="#303030"/>
<path d="M519.3 454.853C520.068 454.853 520.69 454.231 520.69 453.464C520.69 452.696 520.068 452.074 519.3 452.074C518.532 452.074 517.91 452.696 517.91 453.464C517.91 454.231 518.532 454.853 519.3 454.853Z" fill="white"/>
<path d="M566.707 455.862C566.925 452.68 564.523 449.923 561.342 449.705C558.161 449.487 555.405 451.89 555.187 455.073L554.678 462.511C554.46 465.694 556.862 468.451 560.043 468.669C563.224 468.887 565.979 466.483 566.197 463.3L566.707 455.862Z" fill="#303030"/>
<path d="M558.32 456.622C559.087 456.622 559.71 456 559.71 455.232C559.71 454.465 559.087 453.843 558.32 453.843C557.552 453.843 556.93 454.465 556.93 455.232C556.93 456 557.552 456.622 558.32 456.622Z" fill="white"/>
<path d="M630.936 538.801C626.038 538.052 619.899 533.535 615.161 526.669C610.422 519.803 608.392 512.458 609.442 507.611C609.442 507.531 609.462 507.451 609.472 507.381C610.122 502.064 613.271 497.377 617.92 494.699L674.234 462.288C679.913 458.381 693.299 459.61 699.417 468.495C705.535 477.379 702.076 490.541 696.398 494.449L645.272 535.553C642.503 537.772 639.144 539.191 635.595 539.381C634.045 539.461 632.426 539.341 630.946 538.801H630.936Z" fill="#94D8ED"/>
<mask id="mask1_4_108023" style="mask-type:luminance" maskUnits="userSpaceOnUse" x="609" y="460" width="94" height="80">
<path d="M630.936 538.801C626.038 538.052 619.899 533.535 615.161 526.669C610.422 519.803 608.392 512.458 609.442 507.611C609.442 507.531 609.462 507.451 609.472 507.381C610.122 502.064 613.271 497.377 617.92 494.699L674.234 462.288C679.913 458.381 693.299 459.61 699.417 468.495C705.535 477.379 702.076 490.541 696.398 494.449L645.272 535.553C642.503 537.772 639.144 539.191 635.595 539.381C634.045 539.461 632.426 539.341 630.946 538.801H630.936Z" fill="white"/>
</mask>
<g mask="url(#mask1_4_108023)">
<path d="M653.458 544.258C657.347 511.918 643.061 491.84 611.5 483.405L629.615 470.923C660.017 478.858 674.193 498.916 671.573 531.776L653.458 544.258Z" fill="white"/>
</g>
<path d="M630.936 538.801C626.038 538.052 619.899 533.535 615.161 526.669C610.422 519.803 608.392 512.458 609.442 507.611C609.442 507.531 609.462 507.451 609.472 507.381C610.122 502.064 613.271 497.377 617.92 494.699L674.234 462.288C679.913 458.381 693.299 459.61 699.417 468.495C705.535 477.379 702.076 490.541 696.398 494.449L645.272 535.553C642.503 537.772 639.144 539.191 635.595 539.381C634.045 539.461 632.426 539.341 630.946 538.801H630.936Z" stroke="#303030" stroke-width="3" stroke-linecap="round" stroke-linejoin="round"/>
<path d="M637.332 519.433C640.192 524.92 640.492 530.237 638.472 534.124" stroke="#303030" stroke-width="3" stroke-linecap="round" stroke-linejoin="round"/>
<path d="M617.668 503.403C621.397 501.774 628.845 503.423 634.443 512.917" stroke="#303030" stroke-width="3" stroke-linecap="round" stroke-linejoin="round"/>
<g style="mix-blend-mode:multiply" opacity="0.15">
<path d="M643.58 519.613C647.469 531.216 639.641 538.812 639.641 538.812C638.092 538.901 632.403 539.331 630.924 538.802C626.025 538.052 619.887 533.535 615.148 526.669C610.419 519.803 608.38 512.458 609.43 507.611C609.43 507.541 609.45 507.461 609.45 507.381C610.1 502.054 613.249 497.377 617.897 494.699L674.212 462.288C675.681 461.279 677.671 460.609 679.92 460.33L622.886 496.028C621.196 497.087 621.506 499.646 623.396 500.245C623.396 500.245 637.032 500.095 643.57 519.613H643.58Z" fill="black"/>
</g>
<g style="mix-blend-mode:multiply" opacity="0.1">
<path d="M626.676 527.418L621.788 507.341C621.378 505.682 619.728 504.652 618.059 505.012L615.179 493.199L608.871 494.739L611.75 506.551C610.111 506.991 609.101 508.67 609.511 510.329L614.4 530.407C615.229 533.795 618.638 535.873 622.027 535.044C625.417 534.214 627.496 530.806 626.666 527.418H626.676Z" fill="black"/>
</g>
<path d="M594.904 441.901L587.006 443.97C578.079 446.138 573.88 460.429 577.649 475.89C581.418 491.341 591.715 502.104 600.643 499.925L608.54 497.857C617.478 495.678 621.667 481.397 617.898 465.946C614.129 450.486 603.842 439.732 594.904 441.901ZM599.193 496.407C594.314 497.597 584.907 489.841 581.288 475.001C577.669 460.15 582.458 448.947 587.336 447.757C592.215 446.568 601.622 454.323 605.241 469.174C608.86 484.015 604.072 495.228 599.183 496.417L599.193 496.407Z" fill="white" stroke="#303030" stroke-width="3" stroke-linecap="round" stroke-linejoin="round"/>
<path d="M586.999 443.96C578.071 446.128 573.872 460.42 577.641 475.88C581.41 491.331 591.707 502.094 600.635 499.915C609.572 497.737 613.771 483.455 610.002 468.005C606.233 452.544 595.936 441.791 586.999 443.96ZM598.585 493.899C593.707 495.088 584.529 488.312 581.29 474.991C578.041 461.669 583.07 451.435 587.948 450.246C592.827 449.057 602.004 455.832 605.244 469.154C608.493 482.476 603.464 492.7 598.575 493.889L598.585 493.899Z" fill="white" stroke="#303030" stroke-width="3" stroke-linecap="round" stroke-linejoin="round"/>
<g style="mix-blend-mode:multiply" opacity="0.7">
<path d="M605.242 469.164C608.491 482.526 603.483 492.78 598.594 493.969C593.715 495.158 584.538 488.352 581.289 475.001C578.03 461.639 583.048 451.385 587.937 450.196C592.825 449.007 601.993 455.812 605.242 469.174V469.164Z" fill="#94D8ED"/>
</g>
<path d="M608.378 497.999L602.074 499.534L610.294 533.267L616.598 531.732L608.378 497.999Z" fill="#ADADAD" stroke="#303030" stroke-width="3" stroke-linecap="round" stroke-linejoin="round"/>
<path d="M605.038 511.327L611.187 509.83C612.877 509.419 614.58 510.455 614.992 512.144L619.886 532.224C620.712 535.613 618.633 539.03 615.243 539.855C611.853 540.68 608.434 538.602 607.608 535.213L602.714 515.133C602.302 513.444 603.338 511.741 605.028 511.33L605.038 511.327Z" fill="white"/>
<mask id="mask2_4_108023" style="mask-type:luminance" maskUnits="userSpaceOnUse" x="602" y="509" width="19" height="32">
<path d="M605.038 511.327L611.187 509.83C612.877 509.419 614.58 510.455 614.992 512.144L619.886 532.224C620.712 535.613 618.633 539.03 615.243 539.855C611.853 540.68 608.434 538.602 607.608 535.213L602.714 515.133C602.302 513.444 603.338 511.741 605.028 511.33L605.038 511.327Z" fill="white"/>
</mask>
<g mask="url(#mask2_4_108023)">
<path d="M623.96 525.3C617.231 531.446 609.564 533.355 600.956 530.896L599.066 523.141C607.694 525.4 615.352 523.501 622.07 517.545L623.96 525.3Z" fill="#94D8ED"/>
</g>
<path d="M605.038 511.327L611.187 509.83C612.877 509.419 614.58 510.455 614.992 512.144L619.886 532.224C620.712 535.613 618.633 539.03 615.243 539.855C611.853 540.68 608.434 538.602 607.608 535.213L602.714 515.133C602.302 513.444 603.338 511.741 605.028 511.33L605.038 511.327Z" stroke="#303030" stroke-width="3" stroke-linecap="round" stroke-linejoin="round"/>
<g style="mix-blend-mode:multiply" opacity="0.15">
<path d="M608.392 498.002L605.234 498.771L608.112 510.579L611.269 509.81L608.392 498.002Z" fill="black"/>
<path d="M608.392 498.002L605.234 498.771L608.112 510.579L611.269 509.81L608.392 498.002Z" stroke="#303030" stroke-miterlimit="10"/>
</g>
<g style="mix-blend-mode:multiply" opacity="0.15">
<path d="M614.761 511.318L620.29 534.004C620.88 536.433 619.39 538.881 616.961 539.471L613.811 540.241C616.241 539.651 617.74 537.202 617.141 534.774L611.612 512.088C611.322 510.879 610.092 510.139 608.883 510.429L612.032 509.659C613.242 509.369 614.471 510.109 614.761 511.318Z" fill="black"/>
<path d="M614.761 511.318L620.29 534.004C620.88 536.433 619.39 538.881 616.961 539.471L613.811 540.241C616.241 539.651 617.74 537.202 617.141 534.774L611.612 512.088C611.322 510.879 610.092 510.139 608.883 510.429L612.032 509.659C613.242 509.369 614.471 510.109 614.761 511.318Z" stroke="#303030" stroke-miterlimit="10"/>
</g>
<path d="M588.047 457.801C589.237 456.902 590.966 456.662 592.366 457.032C594.785 457.671 598.604 459.38 596.825 463.718C594.305 469.874 586.608 465.187 586.478 462.388C586.388 460.43 586.628 458.88 588.047 457.811V457.801Z" fill="white"/>
<path d="M596.295 467.225C596.695 466.916 597.295 466.836 597.765 466.965C598.585 467.185 599.894 467.765 599.285 469.244C598.425 471.343 595.806 469.744 595.756 468.794C595.726 468.125 595.806 467.605 596.285 467.235L596.295 467.225Z" fill="white"/>
</svg>
