          <svg width="32" height="32" viewBox="0 0 32 32" fill="none" xmlns="http://www.w3.org/2000/svg">
            <path
              d="M24.4207 7.01736H7.57862C6.3384 7.01736 5.33301 8.02276 5.33301 9.26298V23.8594C5.33301 25.0997 6.3384 26.1051 7.57862 26.1051H24.4207C25.661 26.1051 26.6663 25.0997 26.6663 23.8594V9.26298C26.6663 8.02276 25.661 7.01736 24.4207 7.01736Z"
              fill="#FFF6E0" />
            <path
              d="M15.252 21.4965C14.9438 21.4965 14.6357 21.381 14.4046 21.1499L11.8623 18.6076C11.4001 18.1454 11.4001 17.375 11.8623 16.9127C12.3245 16.4505 13.0949 16.4505 13.5571 16.9127L15.252 18.6076L18.4491 15.4105C18.9113 14.9483 19.6817 14.9483 20.1439 15.4105C20.6062 15.8727 20.6062 16.6431 20.1439 17.1053L16.0994 21.1499C15.8683 21.381 15.5601 21.4965 15.252 21.4965Z"
              fill="#FFC747" />
            <path
              d="M5.33398 9.01694C5.33398 7.91237 6.22941 7.01694 7.33398 7.01694H24.6667C25.7712 7.01694 26.6667 7.91237 26.6667 9.01694V11.0169H5.33398V9.01694Z"
              fill="#FFC747" />
            <path
              d="M12.0465 5.89453H10.9462C10.6361 5.89453 10.3848 6.14588 10.3848 6.45593V8.70155C10.3848 9.0116 10.6361 9.26295 10.9462 9.26295H12.0465C12.3566 9.26295 12.6079 9.0116 12.6079 8.70155V6.45593C12.6079 6.14588 12.3566 5.89453 12.0465 5.89453Z"
              fill="#D19500" />
            <path
              d="M21.0524 5.89453H19.9296C19.6196 5.89453 19.3682 6.14588 19.3682 6.45593V8.70155C19.3682 9.0116 19.6196 9.26295 19.9296 9.26295H21.0524C21.3624 9.26295 21.6138 9.0116 21.6138 8.70155V6.45593C21.6138 6.14588 21.3624 5.89453 21.0524 5.89453Z"
              fill="#D19500" />
          </svg>
