<svg width="24" height="24" viewBox="0 0 24 24" fill="none" xmlns="http://www.w3.org/2000/svg">
<path d="M13.1797 14.9165H11.1797V19.9998H13.1797V14.9165Z" fill="#FFC747"/>
<path d="M6.66667 5.58337H17.3333C18.8067 5.58337 20 6.77671 20 8.25004V14.25C20 14.6167 19.7 14.9167 19.3333 14.9167H4.66667C4.3 14.9167 4 14.6167 4 14.25V8.25004C4 6.77671 5.19333 5.58337 6.66667 5.58337Z" fill="#FFE39E"/>
<path d="M6.66667 5.58337H7.88C9.35333 5.58337 10.5467 6.77671 10.5467 8.25004V14.9167H4.66667C4.3 14.9167 4 14.6167 4 14.25V8.25004C4 6.77671 5.19333 5.58337 6.66667 5.58337Z" fill="#FFC747"/>
<path d="M17.2606 4H14.5872C14.4039 4 14.2539 4.15 14.2539 4.33333V8.4H14.7239V5.94667H17.2606C17.4439 5.94667 17.5939 5.79667 17.5939 5.61333V4.33333C17.5939 4.15 17.4439 4 17.2606 4Z" fill="#FFC747"/>
<path d="M8.30661 7.77344H6.23994C5.88832 7.77344 5.60327 8.05848 5.60327 8.4101C5.60327 8.76172 5.88832 9.04677 6.23994 9.04677H8.30661C8.65823 9.04677 8.94327 8.76172 8.94327 8.4101C8.94327 8.05848 8.65823 7.77344 8.30661 7.77344Z" fill="white"/>
<path d="M14.5306 9.23356C14.9908 9.23356 15.3639 8.86047 15.3639 8.40023C15.3639 7.93999 14.9908 7.56689 14.5306 7.56689C14.0704 7.56689 13.6973 7.93999 13.6973 8.40023C13.6973 8.86047 14.0704 9.23356 14.5306 9.23356Z" fill="#FF5065"/>
</svg>
