<svg width="126" height="48" viewBox="0 0 126 48" fill="none" xmlns="http://www.w3.org/2000/svg">
                <path d="M65.8995 28.1698L62.6683 24.5342C62.5067 24.369 62.022 24.369 61.8605 24.5342L57.983 28.6656C57.1752 29.4918 55.7212 29.6571 54.9134 28.8308L54.7518 28.6656C53.7824 27.8393 53.6209 26.1868 54.5902 25.1953L59.2755 20.2377C59.437 20.0724 59.5986 19.7419 59.5986 19.4114V17.2631C59.5986 16.9326 59.2755 16.6021 58.9524 16.6021H56.3674C55.0749 16.6021 54.1056 15.6106 54.1056 14.2885C54.1056 12.9665 55.0749 11.975 56.3674 11.975H58.9524C59.2755 11.975 59.5986 11.6445 59.5986 11.314V10.653C59.5986 9.66144 60.4064 8.66992 61.5373 8.66992H63.1529C64.1223 8.66992 65.0917 9.49619 65.0917 10.653V11.314C65.0917 11.6445 65.4148 11.975 65.7379 11.975H67.9998C69.2922 11.975 70.2616 12.9665 70.2616 14.2885C70.2616 15.6106 69.2922 16.6021 67.9998 16.6021H65.5763C65.2532 16.6021 64.9301 16.9326 64.9301 17.2631V19.4114C64.9301 19.7419 65.0917 20.0724 65.2532 20.2377L69.4538 24.6995C70.4232 25.691 70.4232 27.5088 69.2922 28.3351C68.1613 29.3266 66.7073 29.1613 65.8995 28.1698ZM80.4399 45.8519C79.6321 46.1824 79.1474 45.8519 79.1474 45.0257V37.424C79.1474 37.0935 78.8243 36.763 78.5012 36.763H61.6989C60.4064 36.763 59.437 35.7715 59.437 34.4495C59.437 33.1274 60.4064 32.1359 61.6989 32.1359H82.5402C83.6711 32.1359 84.4789 32.9622 84.4789 34.1189V40.0681C84.4789 42.7121 82.8633 45.0257 80.4399 45.8519ZM73.0081 30.9791C72.2003 31.3096 71.7156 30.9791 71.7156 30.1529V11.975C71.7156 10.4877 72.8466 9.33094 74.3006 9.33094C75.7547 9.33094 76.8856 10.4877 76.8856 11.975V16.6021C76.8856 16.9326 77.2087 17.2631 77.5318 17.2631H78.8243C79.1474 17.2631 79.4706 16.9326 79.4706 16.6021V11.6445C79.4706 10.1572 80.6015 9.00043 82.0555 9.00043C83.5096 9.00043 84.6405 10.1572 84.6405 11.6445V25.5258C84.6405 28.0046 83.0249 30.1529 80.763 30.9791C79.9552 31.3096 79.4706 30.9791 79.4706 30.1529V22.7165C79.4706 22.386 79.1474 22.0554 78.8243 22.0554H77.5318C77.2087 22.0554 76.8856 22.386 76.8856 22.7165V25.5258C76.8856 28.0046 75.27 30.1529 73.0081 30.9791Z" fill="#0084FF"/>
                <path d="M91.2645 26.3516V13.1313C91.2645 11.6441 92.3954 10.322 94.011 10.322C95.465 10.322 96.7575 11.4788 96.7575 13.1313V14.1229C96.7575 14.4534 97.0806 14.7839 97.4038 14.7839H104.189C104.512 14.7839 104.836 14.4534 104.836 14.1229V13.1313C104.836 11.6441 105.966 10.322 107.582 10.322C108.551 10.4873 109.844 11.6441 109.844 13.1313V26.1864C109.844 27.3431 109.036 28.1694 107.905 28.1694H93.2032C92.0723 28.3346 91.2645 27.3431 91.2645 26.3516ZM119.861 38.0846C119.861 38.9109 119.699 39.9024 119.376 40.7287C119.053 41.5549 118.568 42.3812 117.922 43.0422C117.276 43.7032 116.306 44.3642 115.337 44.6947C114.206 45.1905 112.914 45.3558 111.46 45.3558H103.058C101.443 45.3558 100.15 45.1905 99.1809 44.6947C98.05 44.199 97.2422 43.7032 96.596 43.0422C95.9497 42.3812 95.465 41.5549 95.1419 40.7287C94.8188 39.9024 94.6572 39.0761 94.6572 38.0846C94.6572 37.0931 94.8188 36.2668 95.1419 35.4405C95.465 34.6143 95.9497 33.788 96.596 33.127C97.2422 32.466 98.2116 31.805 99.1809 31.4745C100.312 30.9787 101.604 30.8135 103.058 30.8135H111.46C113.075 30.8135 114.368 30.9787 115.337 31.4745C116.468 31.9702 117.276 32.466 117.922 33.127C118.568 33.788 119.053 34.6143 119.376 35.4405C119.699 36.4321 119.861 37.2583 119.861 38.0846ZM103.866 19.2457H97.0806C96.7575 19.2457 96.4344 19.5762 96.4344 19.9067V23.0465C96.4344 23.377 96.7575 23.7076 97.0806 23.7076H103.866C104.189 23.7076 104.512 23.377 104.512 23.0465V19.9067C104.512 19.5762 104.189 19.2457 103.866 19.2457ZM114.529 38.0846C114.529 37.2583 114.206 36.5973 113.721 36.1016C113.237 35.6058 112.59 35.4405 111.621 35.4405H102.735C101.766 35.4405 101.12 35.6058 100.635 36.1016C100.15 36.5973 99.8272 37.2583 99.8272 38.0846C99.8272 38.9109 100.15 39.5719 100.635 39.9024C101.12 40.3981 101.766 40.5634 102.735 40.5634H111.621C112.59 40.5634 113.237 40.3981 113.721 39.9024C114.206 39.5719 114.529 38.9109 114.529 38.0846ZM115.499 30.1524C114.691 30.4829 114.206 30.1524 114.206 29.3262V11.4788C114.206 10.1568 115.337 9 116.629 9H117.276C118.568 9 119.699 10.1568 119.699 11.4788V16.1059C119.699 16.4364 120.022 16.7669 120.345 16.7669H122.769C124.061 16.7669 125.192 17.9237 125.192 19.2457C125.192 20.5677 124.061 21.7245 122.769 21.7245H120.345C120.022 21.7245 119.699 22.055 119.699 22.3855V24.8643C119.538 27.0126 117.922 29.3262 115.499 30.1524Z" fill="#0084FF"/>
                <path d="M21.6319 46.8423C21.6319 46.8423 13.877 42.7109 3.53711 42.2152C3.05243 42.2152 2.56775 41.7194 2.56775 41.2237V29.1602C2.56775 29.1602 14.5232 33.1262 21.4703 38.4143V46.8423H21.6319Z" fill="#FF9F07"/>
                <path d="M21.6319 46.8423C21.6319 46.8423 29.3868 42.7109 39.7267 42.2152C40.2114 42.2152 40.696 41.7194 40.696 41.2237V29.1602C40.696 29.1602 28.7406 33.1262 21.7935 38.4143V46.8423H21.6319Z" fill="#FF9F07"/>
                <path d="M21.6319 46.8424C21.6319 46.8424 12.7461 38.2492 1.27527 37.5882V14.7832C1.27527 14.7832 14.0386 14.9485 21.6319 25.3594V46.8424Z" fill="#0084FF"/>
                <path d="M21.6319 47.9997C21.3088 47.9997 21.1472 47.8344 20.8241 47.6692C20.6625 47.6692 12.0998 39.4065 1.11371 38.7455C0.467469 38.7455 0.144348 38.2497 0.144348 37.5887V14.7837C0.144348 14.4532 0.305909 14.1227 0.467469 13.9575C0.62903 13.7922 0.952151 13.627 1.27527 13.627C1.75995 13.627 14.6848 13.9575 22.4397 24.5337C22.6013 24.8642 22.6013 25.0294 22.6013 25.3599V47.0081C22.6013 47.5039 22.2781 47.8344 21.955 47.9997C21.7935 47.9997 21.7935 47.9997 21.6319 47.9997ZM2.4062 36.5972C10.6458 37.4234 17.4313 42.0505 20.501 44.5293V25.6905C14.5232 17.9235 5.47585 16.271 2.4062 15.9405V36.5972Z" fill="#0084FF"/>
                <path d="M21.6319 46.8443C21.6319 46.8443 30.5177 38.2511 41.9885 37.5901V14.7852C41.9885 14.7852 29.2252 14.9504 21.6319 25.3614V46.8443Z" fill="#0084FF"/>
                <path d="M21.6319 48.0004C21.4703 48.0004 21.3088 48.0004 21.1472 47.8352C20.8241 47.6699 20.501 47.1742 20.501 46.8436V25.3607C20.501 25.1955 20.501 24.8649 20.6625 24.6997C28.4174 13.9582 41.3423 13.793 41.827 13.793C42.1501 13.793 42.4732 13.9582 42.6348 14.1235C42.7963 14.2887 42.9579 14.6192 42.9579 14.9497V37.7547C42.9579 38.4157 42.4732 38.9115 41.9885 38.9115C31.0024 39.5725 22.4397 47.8352 22.2781 47.8352C22.1166 48.0004 21.7935 48.0004 21.6319 48.0004ZM22.6013 25.6912V44.5301C25.6709 42.0513 32.4565 37.4242 40.696 36.5979V15.9413C37.6264 16.2718 28.579 17.9243 22.6013 25.6912Z" fill="#0084FF"/>
                <path d="M25.3478 18.9163C24.0553 20.2384 22.6013 21.7257 21.4703 23.5434C20.3394 21.7257 19.0469 20.0731 17.5929 18.9163C19.6932 17.4291 20.9857 15.1155 20.9857 12.6367H21.955C22.1166 15.2808 23.4091 17.5943 25.3478 18.9163Z" fill="#FF9F07"/>
                <path d="M21.6319 45.19C21.6319 45.19 14.0385 36.5968 4.34491 35.9358V13.1309C4.34491 13.1309 15.1695 13.2961 21.6319 23.7071V45.19Z" fill="white"/>
                <path d="M21.6319 46.3473C21.3088 46.3473 20.9856 46.1821 20.8241 46.0168C20.8241 46.0168 13.3923 37.7541 4.18335 37.0931C3.53711 37.0931 3.21399 36.5974 3.21399 35.9364V13.1314C3.21399 12.8009 3.21399 12.6356 3.53711 12.3051C3.69867 12.1399 4.02179 11.9746 4.34491 11.9746C4.82959 11.9746 15.9773 12.3051 22.6013 23.0466C22.6013 23.2118 22.6013 23.3771 22.6013 23.7076V45.1905C22.6013 45.5211 22.4397 45.8516 22.2781 46.0168C22.1166 46.1821 21.7934 46.3473 21.6319 46.3473ZM5.96052 35.1101C12.2614 36.1016 17.2698 39.9024 20.1778 42.3812C20.3394 42.5465 20.6625 42.3812 20.6625 42.216V24.3686C20.6625 24.2034 20.6625 24.0381 20.501 24.0381C15.4926 16.4365 8.0608 14.7839 5.31428 14.2882V34.2838C5.31428 34.7796 5.6374 34.9448 5.96052 35.1101Z" fill="#0084FF"/>
                <path d="M21.6319 45.19C21.6319 45.19 29.2252 36.5968 38.9189 35.9358V13.1309C38.9189 13.1309 28.0943 13.2961 21.6319 23.7071V45.19Z" fill="white"/>
                <path d="M21.6319 46.3473C21.3088 46.3473 20.9857 46.1821 20.8241 46.0168C20.6625 45.8516 20.501 45.521 20.501 45.1905V23.7076C20.501 23.5423 20.501 23.2118 20.6625 23.0466C27.2865 12.3051 38.4342 11.9746 38.9189 11.9746C39.242 11.9746 39.5651 12.1399 39.7267 12.3051C39.8882 12.4704 40.0498 12.8009 40.0498 13.1314V35.9364C40.0498 36.5974 39.5651 36.9279 39.0804 37.0931C29.8715 37.7541 22.6013 45.8516 22.4397 46.0168C22.1166 46.1821 21.955 46.3473 21.6319 46.3473ZM22.6013 24.2034V42.0507C22.6013 42.216 22.9244 42.3812 22.9244 42.216C25.6709 39.7372 30.8409 35.9364 37.1417 34.9448C37.4648 34.9448 37.788 34.6143 37.788 34.2838V14.2882C35.0414 14.6187 27.6096 16.2712 22.7628 23.7076C22.7628 23.8729 22.6013 24.0381 22.6013 24.2034Z" fill="#0084FF"/>
                <path d="M28.9021 4.86784L41.3423 1.89327C41.827 1.72802 42.3117 2.38903 41.9885 2.71954C40.8576 4.04157 39.5651 6.35512 39.5651 8.83392C39.7267 13.6263 38.4342 16.2703 38.4342 16.2703L28.9021 4.86784Z" fill="#0084FF"/>
                <path d="M38.4342 17.593C38.1111 17.593 37.7879 17.4277 37.6264 17.2625L28.0943 5.69471C27.7712 5.3642 27.7712 5.0337 27.9328 4.53794C28.0943 4.20743 28.4174 3.87692 28.7406 3.87692L41.1807 0.902362C41.827 0.737109 42.6348 1.06762 42.9579 1.56338C43.281 2.22439 43.281 2.8854 42.7963 3.54642C41.9885 4.70319 40.5345 6.85149 40.696 8.99978C40.8576 13.9574 39.5651 16.9319 39.4035 16.9319C39.242 17.2625 38.9189 17.4277 38.4342 17.593ZM31.0024 5.52946L38.1111 14.1226C38.4342 12.9659 38.5957 11.1481 38.5957 8.99978C38.4342 6.85149 39.4035 4.86844 40.3729 3.38116L31.0024 5.52946Z" fill="#0084FF"/>
                <path d="M14.2001 4.86979L1.75995 1.89523C1.27527 1.72997 0.952148 2.39099 1.27527 2.72149C2.40619 4.04352 3.69868 6.35707 3.69868 8.83587C3.37556 13.7935 4.66804 16.4375 4.66804 16.4375L14.2001 4.86979Z" fill="#0084FF"/>
                <path d="M4.66803 17.5939C4.18335 17.5939 3.86023 17.2634 3.69867 16.9329C3.69867 16.7677 2.24462 13.9584 2.40618 9.00077C2.56774 6.68722 1.1137 4.53893 0.305897 3.54741C-0.0172238 2.88639 -0.178784 2.22538 0.305897 1.56437C0.629018 0.903354 1.43682 0.7381 2.08306 0.903354L14.5232 3.71266C14.8463 3.87792 15.1695 4.04317 15.331 4.37368C15.4926 4.70418 15.331 5.19994 15.1695 5.53045L5.63739 17.0982C5.31427 17.4287 4.99115 17.5939 4.66803 17.5939ZM2.89087 3.38215C3.86023 4.86944 4.82959 6.85248 4.66803 9.00077C4.50647 11.3143 4.82959 12.9669 5.15271 14.1236L12.2614 5.53045L2.89087 3.38215Z" fill="#0084FF"/>
                <path d="M12.7461 20.5675C17.3859 20.5675 21.1472 17.0161 21.1472 12.6353C21.1472 8.25448 17.3859 4.70312 12.7461 4.70312C8.10623 4.70312 4.34491 8.25448 4.34491 12.6353C4.34491 17.0161 8.10623 20.5675 12.7461 20.5675Z" fill="white"/>
                <path d="M12.7461 21.7247C7.41456 21.7247 3.21399 17.5934 3.21399 12.6358C3.21399 7.67821 7.41456 3.54688 12.7461 3.54688C18.0776 3.54688 22.2781 7.67821 22.2781 12.6358C22.2781 17.5934 17.916 21.7247 12.7461 21.7247ZM12.7461 5.86042C8.70705 5.86042 5.47584 8.83498 5.47584 12.6358C5.47584 16.4366 8.70705 19.4112 12.7461 19.4112C16.7851 19.4112 20.0163 16.4366 20.0163 12.6358C20.0163 8.83498 16.6235 5.86042 12.7461 5.86042Z" fill="#0084FF"/>
                <path d="M12.746 17.0975C15.3336 17.0975 17.4313 15.0999 17.4313 12.6357C17.4313 10.1715 15.3336 8.17383 12.746 8.17383C10.1585 8.17383 8.06079 10.1715 8.06079 12.6357C8.06079 15.0999 10.1585 17.0975 12.746 17.0975Z" fill="#0084FF"/>
                <path d="M9.83795 10.9835C10.4625 10.9835 10.9689 10.4656 10.9689 9.8267C10.9689 9.18783 10.4625 8.66992 9.83795 8.66992C9.21336 8.66992 8.70703 9.18783 8.70703 9.8267C8.70703 10.4656 9.21336 10.9835 9.83795 10.9835Z" fill="white"/>
                <path d="M30.5177 20.5675C35.1575 20.5675 38.9189 17.0161 38.9189 12.6353C38.9189 8.25448 35.1575 4.70312 30.5177 4.70312C25.8779 4.70312 22.1166 8.25448 22.1166 12.6353C22.1166 17.0161 25.8779 20.5675 30.5177 20.5675Z" fill="white"/>
                <path d="M30.5177 21.7247C25.3478 21.7247 20.9857 17.5934 20.9857 12.6358C20.9857 7.67821 25.1862 3.54688 30.5177 3.54688C35.8492 3.54688 40.0498 7.67821 40.0498 12.6358C40.0498 17.5934 35.6877 21.7247 30.5177 21.7247ZM30.5177 5.86042C26.4787 5.86042 23.2475 8.83498 23.2475 12.6358C23.2475 16.4366 26.4787 19.4112 30.5177 19.4112C34.5567 19.4112 37.788 16.4366 37.788 12.6358C37.788 8.83498 34.5567 5.86042 30.5177 5.86042Z" fill="#0084FF"/>
                <path d="M30.1946 17.0975C32.7822 17.0975 34.8798 15.0999 34.8798 12.6357C34.8798 10.1715 32.7822 8.17383 30.1946 8.17383C27.607 8.17383 25.5093 10.1715 25.5093 12.6357C25.5093 15.0999 27.607 17.0975 30.1946 17.0975Z" fill="#0084FF"/>
                <path d="M27.4481 10.9835C28.0727 10.9835 28.579 10.4656 28.579 9.8267C28.579 9.18783 28.0727 8.66992 27.4481 8.66992C26.8235 8.66992 26.3171 9.18783 26.3171 9.8267C26.3171 10.4656 26.8235 10.9835 27.4481 10.9835Z" fill="white"/>
                <path d="M14.6848 1.72981C14.5232 1.56456 14.2001 1.23405 14.2001 1.0688C13.877 -1.0795 19.8547 1.0688 19.2085 2.72133C18.5622 4.37386 15.8157 2.88658 14.6848 1.72981Z" fill="#0084FF"/>
                <path d="M28.4175 1.72905C28.579 1.56379 28.9021 1.23329 28.9021 0.90278C29.2253 -1.24551 23.2475 0.90278 23.8938 2.55531C24.54 4.3731 27.2865 2.88582 28.4175 1.72905Z" fill="#0084FF"/>
                <path d="M21.1472 15.6103C18.2391 17.0975 17.916 19.4111 20.8241 22.7162C21.1472 23.2119 21.955 23.2119 22.4397 22.7162C25.3478 19.4111 25.1862 17.0975 22.1166 15.6103C21.7935 15.445 21.3088 15.445 21.1472 15.6103Z" fill="#FF9F07"/>
                <path d="M21.6319 23.7073C21.1472 23.7073 20.6625 23.5421 20.3394 23.2116C18.5623 21.2285 17.916 19.576 18.2391 18.0887C18.4007 16.932 19.3701 15.9404 20.8241 15.1142C21.3088 14.9489 21.955 14.9489 22.4397 15.1142C23.8938 15.9404 24.8631 16.932 25.0247 18.0887C25.3478 19.576 24.54 21.2285 22.9244 23.2116C22.4397 23.5421 22.1166 23.7073 21.6319 23.7073ZM21.3088 16.1057C20.1779 16.7667 19.5316 17.4277 19.3701 18.254C19.2085 19.2455 19.8547 20.7328 21.3088 22.3853C21.4703 22.5506 21.7935 22.5506 21.955 22.3853C23.4091 20.7328 24.0553 19.4108 23.8938 18.254C23.7322 17.4277 23.086 16.7667 21.955 16.1057C21.6319 16.1057 21.4703 16.1057 21.3088 16.1057Z" fill="#0084FF"/>
                <path d="M59.437 0.572266H60.7295L61.3758 3.38157L62.022 0.572266H62.9914L63.7992 3.38157L64.4454 0.572266H65.7379L64.4454 5.03411H63.3145L62.5067 2.55531L61.8604 5.03411H60.7295L59.437 0.572266Z" fill="#0084FF"/>
                <path d="M66.061 0.572266H67.192V2.39005H68.8076V0.572266H69.9385V5.03411H68.8076V3.21632H67.192V5.03411H66.061V0.572266Z" fill="#0084FF"/>
                <path d="M70.5847 0.572266H73.6544V1.56379H71.7157V2.39005H73.4928V3.38157H71.7157V4.20784H73.6544V5.03411H70.5847V0.572266Z" fill="#0084FF"/>
                <path d="M74.3006 0.572266H76.0778C76.4009 0.572266 76.724 0.572266 76.8856 0.737519C77.0472 0.902772 77.3703 1.06803 77.3703 1.23328C77.5318 1.39853 77.5318 1.72904 77.5318 2.05955C77.5318 2.39005 77.5318 2.55531 77.3703 2.88581C77.2087 3.05107 77.0472 3.21632 76.8856 3.38157L77.6934 5.03411H76.4009L75.9162 3.54683H75.4316V5.03411H74.3006V0.572266ZM75.9162 2.55531C76.0778 2.55531 76.2394 2.55531 76.4009 2.39005C76.5625 2.2248 76.5625 2.2248 76.5625 2.05955C76.5625 1.89429 76.5625 1.72904 76.4009 1.56379C76.2394 1.39853 76.0778 1.39853 75.9162 1.39853H75.4316V2.55531H75.9162Z" fill="#0084FF"/>
                <path d="M78.1781 0.572266H81.2477V1.56379H79.309V2.39005H81.0862V3.38157H79.309V4.20784H81.2477V5.03411H78.1781V0.572266Z" fill="#0084FF"/>
                <path d="M83.348 5.03411V0.572266H84.9636C85.4483 0.572266 85.7714 0.737519 86.0946 0.902772C86.4177 1.06803 86.7408 1.39853 86.9024 1.72904C87.0639 2.05955 87.2255 2.39005 87.2255 2.88581C87.2255 3.38157 87.0639 3.71208 86.9024 4.04259C86.7408 4.37309 86.4177 4.7036 86.0946 4.86885C85.7714 5.03411 85.4483 5.03411 84.9636 5.03411H83.348ZM84.9636 4.04259C85.1252 4.04259 85.4483 4.04259 85.6099 3.87733C85.7714 3.87733 85.933 3.71208 85.933 3.54683C85.933 3.38157 86.0946 3.05107 86.0946 2.88581C86.0946 2.72056 86.0946 2.39005 85.933 2.2248C85.7714 2.05955 85.6099 1.72904 85.4483 1.72904C85.2868 1.72904 85.1252 1.56379 84.8021 1.56379H84.3174V4.04259H84.9636Z" fill="#0084FF"/>
                <path d="M91.5876 4.04378C91.426 4.37428 91.1029 4.70479 90.7798 4.87005C90.4567 5.0353 90.1336 5.0353 89.6489 5.0353C89.3258 5.0353 88.8411 4.87004 88.518 4.70479C88.1948 4.53954 87.8717 4.20903 87.7101 3.87852C87.5486 3.54802 87.387 3.05226 87.387 2.72175C87.387 2.39124 87.5486 1.89548 87.7101 1.56498C87.8717 1.23447 88.1948 0.903963 88.518 0.73871C88.8411 0.573457 89.1642 0.408203 89.6489 0.408203C89.972 0.408203 90.4567 0.573457 90.7798 0.73871C91.1029 0.903963 91.426 1.23447 91.5876 1.56498C91.7492 1.89548 91.9107 2.39124 91.9107 2.72175C91.9107 3.05226 91.7492 3.71327 91.5876 4.04378ZM90.4567 1.89548C90.2951 1.73023 90.1336 1.56498 89.8104 1.56498C89.4873 1.56498 89.3258 1.73023 89.1642 1.89548C88.8411 2.06074 88.8411 2.39124 88.8411 2.887C88.8411 3.38276 88.8411 3.54802 89.0026 3.87852C89.1642 4.04378 89.3258 4.20903 89.6489 4.20903C89.972 4.20903 90.1336 4.04378 90.2951 3.87852C90.4567 3.71327 90.4567 3.38276 90.4567 2.887C90.4567 2.39124 90.6182 2.06074 90.4567 1.89548Z" fill="#0084FF"/>
                <path d="M97.4038 0.572266V3.38157C97.4038 3.71208 97.4038 4.04259 97.2422 4.20784C97.0807 4.37309 96.9191 4.7036 96.596 4.7036C96.2729 5.03411 95.9497 5.03411 95.6266 5.03411C95.3035 5.03411 94.9804 5.03411 94.6573 4.86885C94.3341 4.7036 94.1726 4.53835 94.011 4.37309C93.8495 4.04259 93.6879 3.71208 93.6879 3.38157V0.572266H94.8188V3.38157C94.8188 3.54683 94.8188 3.71208 94.9804 3.71208C94.9804 3.87733 95.1419 3.87733 95.3035 4.04259C95.4651 4.04259 95.4651 4.20784 95.6266 4.20784C95.7882 4.20784 95.9497 4.20784 95.9497 4.04259C96.1113 4.04259 96.1113 3.87733 96.2729 3.71208C96.2729 3.54683 96.4344 3.54683 96.4344 3.38157V0.572266H97.4038Z" fill="#0084FF"/>
                <path d="M99.3425 0.572266H101.12C101.443 0.572266 101.766 0.572266 101.927 0.737519C102.251 0.902772 102.412 1.06803 102.412 1.23328C102.574 1.39853 102.574 1.72904 102.574 2.05955C102.574 2.39005 102.574 2.72056 102.412 2.88581C102.251 3.05107 102.089 3.21632 101.766 3.38157C101.443 3.54683 101.281 3.54683 100.958 3.54683H100.312V5.03411H99.181V0.572266H99.3425ZM100.958 2.72056C101.12 2.72056 101.281 2.72056 101.443 2.55531C101.604 2.39005 101.604 2.2248 101.604 2.05955C101.604 1.89429 101.604 1.72904 101.443 1.56379C101.281 1.39853 101.12 1.39853 100.958 1.39853H100.473V2.72056H100.958Z" fill="#0084FF"/>
                <path d="M103.22 0.572266H104.351V4.04259H106.128V5.03411H103.22V0.572266Z" fill="#0084FF"/>
                <path d="M106.451 5.03411L107.905 0.572266H109.521L110.975 5.03411H109.682L109.359 4.20784H107.905L107.744 5.03411H106.451ZM109.198 3.21632L108.713 1.72904L108.228 3.21632H109.198Z" fill="#0084FF"/>
                <path d="M111.944 0.572266L112.752 2.39005L113.56 0.572266H114.852L113.237 3.54683V5.03411H112.106V3.54683L110.49 0.572266H111.944Z" fill="#0084FF"/>
                <path d="M116.306 3.0515C116.306 2.88624 116.468 2.72099 116.468 2.72099C116.468 2.55574 116.629 2.55574 116.791 2.55574C116.953 2.39048 117.114 2.39048 117.114 2.22523C117.114 2.05997 117.276 2.05997 117.276 1.89472C117.276 1.72947 117.276 1.72947 117.114 1.56421C117.114 1.56421 116.953 1.39896 116.791 1.39896H116.629L116.468 1.56421V1.72947H115.337C115.337 1.39896 115.337 1.23371 115.499 0.903201C115.66 0.737948 115.822 0.572694 115.983 0.407441C116.145 0.242188 116.468 0.242188 116.791 0.242188C117.114 0.242188 117.437 0.242188 117.599 0.407441C117.76 0.572694 118.084 0.572694 118.084 0.737948C118.245 0.903201 118.245 1.06845 118.245 1.39896C118.245 1.56421 118.245 1.89472 118.084 2.05997C117.922 2.22523 117.76 2.39048 117.599 2.55574C117.437 2.72099 117.276 2.72099 117.276 2.88624C117.276 3.0515 117.276 3.382 117.276 3.54726V3.71251H116.306V3.54726C116.306 3.382 116.306 3.0515 116.306 3.0515ZM116.468 5.03454L116.306 4.86928C116.306 4.70403 116.306 4.70403 116.306 4.53878C116.306 4.37352 116.306 4.37352 116.306 4.20827C116.306 4.04302 116.468 4.04302 116.468 4.04302C116.468 4.04302 116.629 4.04302 116.791 4.04302C116.953 4.04302 116.953 4.04302 117.114 4.04302C117.276 4.04302 117.276 4.20827 117.276 4.20827C117.276 4.20827 117.276 4.37352 117.276 4.53878C117.276 4.70403 117.276 4.70403 117.276 4.86928C117.276 5.03454 117.114 5.03454 117.114 5.03454C117.114 5.03454 116.953 5.03454 116.791 5.03454C116.629 5.03454 116.629 5.03454 116.468 5.03454Z" fill="#0084FF"/>
            </svg>