<svg width="313" height="297" viewBox="0 0 313 297" fill="none" xmlns="http://www.w3.org/2000/svg">
<path d="M279.353 211.901C262.144 201.226 254.986 177.069 254.986 177.069C247.608 125.56 227.706 102.991 227.706 102.991C207.063 70.8556 170.952 49.5449 129.847 49.5449C88.7406 49.5449 52.6303 70.8456 31.9872 102.991C31.9872 102.991 -5.86505 145.882 3.4854 248.411H179.432C190.234 270.361 271.054 319.034 299.536 281.755C328.008 244.477 296.573 222.577 279.363 211.901H279.353Z" fill="#FFF492" stroke="#513925" stroke-width="3" stroke-linecap="round" stroke-linejoin="round"/>
<path d="M129.856 215.996C150.496 215.996 167.228 194.853 167.228 168.771C167.228 142.689 150.496 121.546 129.856 121.546C109.216 121.546 92.4844 142.689 92.4844 168.771C92.4844 194.853 109.216 215.996 129.856 215.996Z" fill="#FFB743" stroke="#513925" stroke-width="3" stroke-linecap="round" stroke-linejoin="round"/>
<g style="mix-blend-mode:color-burn" opacity="0.15">
<path d="M171.511 173.044C171.511 199.118 154.772 220.269 134.139 220.269C124.438 220.269 115.598 215.596 108.961 207.936C114.928 213.019 122.116 215.995 129.854 215.995C150.497 215.995 167.226 194.854 167.226 168.77C167.226 154.949 162.531 142.516 155.032 133.878C164.973 142.366 171.511 156.737 171.511 173.044Z" fill="black"/>
</g>
<g style="mix-blend-mode:color-burn" opacity="0.15">
<path d="M167.226 168.771C167.226 194.855 150.497 215.996 129.854 215.996C121.695 215.996 114.147 212.69 108 207.088C112.815 209.954 118.201 211.552 123.878 211.552C144.521 211.552 161.249 190.411 161.249 164.337C161.249 148.569 155.133 134.598 145.732 126.02C158.436 133.559 167.226 149.867 167.226 168.771Z" fill="black"/>
</g>
<path d="M92.8242 162.459L127.092 142.656C128.804 141.668 130.917 141.668 132.629 142.656L166.897 162.459" stroke="#513925" stroke-width="3" stroke-linecap="round" stroke-linejoin="round"/>
<path d="M44.689 154.97C53.4746 154.97 60.5968 151.853 60.5968 148.009C60.5968 144.165 53.4746 141.049 44.689 141.049C35.9034 141.049 28.7812 144.165 28.7812 148.009C28.7812 151.853 35.9034 154.97 44.689 154.97Z" fill="#FF7471" stroke="#513925" stroke-width="3" stroke-linecap="round" stroke-linejoin="round"/>
<path d="M215.029 154.97C223.814 154.97 230.937 151.853 230.937 148.009C230.937 144.165 223.814 141.049 215.029 141.049C206.243 141.049 199.121 144.165 199.121 148.009C199.121 151.853 206.243 154.97 215.029 154.97Z" fill="#FF7471" stroke="#513925" stroke-width="3" stroke-linecap="round" stroke-linejoin="round"/>
<path d="M80.2904 137.064H69.168V248.421H80.2904V137.064Z" fill="white"/>
<path d="M96.0173 126.889H68.2363C65.422 126.889 63.1406 129.164 63.1406 131.972C63.1406 134.779 65.422 137.055 68.2363 137.055H96.0173C98.8316 137.055 101.113 134.779 101.113 131.972C101.113 129.164 98.8316 126.889 96.0173 126.889Z" fill="#513925"/>
<path d="M76.3867 110.581L98.0709 103.48" stroke="#513925" stroke-width="3" stroke-linecap="round" stroke-linejoin="round"/>
<path d="M183.327 110.581L161.652 103.48" stroke="#513925" stroke-width="3" stroke-linecap="round" stroke-linejoin="round"/>
<path d="M69.8467 132.741C70.9249 132.741 71.7989 131.869 71.7989 130.793C71.7989 129.718 70.9249 128.846 69.8467 128.846C68.7685 128.846 67.8945 129.718 67.8945 130.793C67.8945 131.869 68.7685 132.741 69.8467 132.741Z" fill="white"/>
<path d="M82.1525 131.632C82.8602 131.632 83.434 131.059 83.434 130.353C83.434 129.647 82.8602 129.075 82.1525 129.075C81.4448 129.075 80.8711 129.647 80.8711 130.353C80.8711 131.059 81.4448 131.632 82.1525 131.632Z" fill="white"/>
<path d="M76.3859 135.806C78.0833 135.806 79.4594 134.434 79.4594 132.741C79.4594 131.047 78.0833 129.675 76.3859 129.675C74.6885 129.675 73.3125 131.047 73.3125 132.741C73.3125 134.434 74.6885 135.806 76.3859 135.806Z" fill="white"/>
<path d="M179.421 248.411H190.543V137.054H179.421V248.411Z" fill="white"/>
<path d="M163.694 137.064H191.475C194.289 137.064 196.57 134.789 196.57 131.981C196.57 129.174 194.289 126.898 191.475 126.898H163.694C160.879 126.898 158.598 129.174 158.598 131.981C158.598 134.789 160.879 137.064 163.694 137.064Z" fill="#513925"/>
<path d="M189.874 132.741C190.952 132.741 191.826 131.869 191.826 130.794C191.826 129.719 190.952 128.847 189.874 128.847C188.796 128.847 187.922 129.719 187.922 130.794C187.922 131.869 188.796 132.741 189.874 132.741Z" fill="white"/>
<path d="M177.559 131.632C178.266 131.632 178.84 131.059 178.84 130.353C178.84 129.647 178.266 129.075 177.559 129.075C176.851 129.075 176.277 129.647 176.277 130.353C176.277 131.059 176.851 131.632 177.559 131.632Z" fill="white"/>
<path d="M183.323 135.806C185.021 135.806 186.397 134.434 186.397 132.741C186.397 131.047 185.021 129.675 183.323 129.675C181.626 129.675 180.25 131.047 180.25 132.741C180.25 134.434 181.626 135.806 183.323 135.806Z" fill="white"/>
<g style="mix-blend-mode:color-burn" opacity="0.15">
<path d="M178.512 60.1802H81.2031C86.0285 57.9533 91.0341 56.0559 96.1899 54.498H163.515C168.671 56.0459 173.676 57.9533 178.512 60.1802Z" fill="black"/>
</g>
<path d="M161.653 41.5853C161.653 22.921 147.417 7.79181 129.868 7.79181C112.318 7.79181 98.082 22.921 98.082 41.5853V48.8153H161.663V41.5853H161.653Z" fill="#FFB743" stroke="#513925" stroke-width="3" stroke-linecap="round" stroke-linejoin="round"/>
<path d="M155.849 48.8151C155.949 47.0575 155.989 45.25 155.989 43.4325C155.989 34.1952 154.768 25.5272 152.636 18.0275C146.869 11.7162 138.78 7.80157 129.85 7.80157C120.92 7.80157 112.831 11.7162 107.065 18.0275C104.932 25.5272 103.711 34.1952 103.711 43.4325C103.711 45.25 103.751 47.0575 103.851 48.8151H155.839H155.849Z" fill="white" stroke="#513925" stroke-width="3" stroke-linecap="round" stroke-linejoin="round"/>
<path d="M128.466 26.3369H131.26C138.287 26.3369 143.994 32.0291 143.994 39.0394V48.816H115.742V39.0394C115.742 32.0291 121.449 26.3369 128.476 26.3369H128.466Z" fill="#FFB743" stroke="#513925" stroke-width="3" stroke-linecap="round" stroke-linejoin="round"/>
<path d="M165.498 49.0654H94.2084C92.7708 49.0654 91.6055 50.2279 91.6055 51.6619V52.2211C91.6055 53.6551 92.7708 54.8175 94.2084 54.8175H165.498C166.936 54.8175 168.101 53.6551 168.101 52.2211V51.6619C168.101 50.2279 166.936 49.0654 165.498 49.0654Z" fill="white" stroke="#513925" stroke-width="3" stroke-linecap="round" stroke-linejoin="round"/>
<path d="M134.702 6.82336V8.13156C133.13 7.90188 131.498 7.78204 129.867 7.78204C128.235 7.78204 126.603 7.90188 125.031 8.13156V6.82336C125.031 4.15703 127.204 2 129.867 2C131.208 2 132.42 2.53926 133.29 3.41805C134.171 4.28685 134.712 5.49519 134.712 6.83335L134.702 6.82336Z" fill="white" stroke="#513925" stroke-width="3" stroke-linecap="round" stroke-linejoin="round"/>
<path d="M184.988 208.376C184.988 208.376 196.601 218.432 208.465 223.465L184.988 208.376Z" fill="#FFF492"/>
<path d="M184.988 208.376C184.988 208.376 196.601 218.432 208.465 223.465" stroke="#513925" stroke-width="3" stroke-linecap="round" stroke-linejoin="round"/>
<path d="M180.254 230.195C180.254 230.195 186.391 238.854 196.722 242.399L180.254 230.195Z" fill="#FFF492"/>
<path d="M180.254 230.195C180.254 230.195 186.391 238.854 196.722 242.399" stroke="#513925" stroke-width="3" stroke-linecap="round" stroke-linejoin="round"/>
<path d="M253.104 212.9C253.104 212.9 180.913 168.771 175.237 179.236C170.202 188.523 184.988 208.386 184.988 208.386C169.521 210.753 180.253 230.206 180.253 230.206C180.253 230.206 171.513 232.353 179.422 248.421C190.224 270.371 271.044 319.044 299.526 281.765C327.998 244.486 296.563 222.587 279.353 211.911C262.144 201.236 254.986 177.079 254.986 177.079C254.986 177.079 257.449 191.519 257.449 204.831" fill="#FFF492"/>
<path d="M253.104 212.9C253.104 212.9 180.913 168.771 175.237 179.236C170.202 188.523 184.988 208.386 184.988 208.386C169.521 210.753 180.253 230.206 180.253 230.206C180.253 230.206 171.513 232.353 179.422 248.421C190.224 270.371 271.044 319.044 299.526 281.765C327.998 244.486 296.563 222.587 279.353 211.911C262.144 201.236 254.986 177.079 254.986 177.079C254.986 177.079 257.449 191.519 257.449 204.831" stroke="#513925" stroke-width="3" stroke-linecap="round" stroke-linejoin="round"/>
<g style="mix-blend-mode:color-burn" opacity="0.15">
<path d="M299.524 283.373C271.042 320.651 190.232 271.978 179.42 250.029C179.169 249.519 178.939 249.03 178.719 248.551C192.694 266.905 263.293 304.554 294.478 278.05C311.157 263.88 310.516 247.412 305.25 236.297C312.859 248.051 314.681 263.53 299.524 283.373Z" fill="black"/>
</g>
<g style="mix-blend-mode:color-burn" opacity="0.15">
<path d="M256.047 180.155C255.756 178.697 255.406 177.659 255.016 177.189C255.106 177.489 255.446 178.558 256.047 180.155Z" fill="black"/>
</g>
<g style="mix-blend-mode:color-burn" opacity="0.15">
<path d="M258.219 212.221C261.323 212.361 269.061 213.689 272.014 214.658C277.601 216.495 286.791 220.11 290.035 222.207C301.237 229.457 302.799 231.255 302.799 231.255C298.044 225.093 279.353 211.931 279.353 211.931C265.908 203.583 258.589 186.986 256.047 180.155C256.777 183.87 257.118 190.261 256.787 196.553C252.363 131.213 227.475 103.001 227.475 103.001C207.452 71.8143 172.854 50.8332 133.27 49.6249C169.48 50.9431 201.105 71.8942 219.436 103.001C219.436 103.001 243.603 132.85 246.646 202.245C246.686 203.243 246.706 204.162 246.756 205.011C246.966 208.786 250.05 211.762 253.834 211.931L258.219 212.221Z" fill="black"/>
</g>
<path d="M184.988 208.376C184.988 208.376 196.601 218.432 208.465 223.465L184.988 208.376Z" fill="#FFF492"/>
<path d="M184.988 208.376C184.988 208.376 196.601 218.432 208.465 223.465" stroke="#513925" stroke-width="3" stroke-linecap="round" stroke-linejoin="round"/>
<path d="M180.25 230.196C180.25 230.196 186.387 238.854 196.718 242.399L180.25 230.196Z" fill="#FFF492"/>
<path d="M180.25 230.196C180.25 230.196 186.387 238.854 196.718 242.399" stroke="#513925" stroke-width="3" stroke-linecap="round" stroke-linejoin="round"/>
</svg>
