<svg width="223" height="48" viewBox="0 0 223 48" fill="none" xmlns="http://www.w3.org/2000/svg">
<path d="M26.5678 5.87875C32.7921 5.87875 38.084 9.86056 40.0458 15.4242C40.1003 15.4242 40.1488 15.4242 40.2032 15.4242C43.4729 15.4242 46.1188 18.0727 46.1188 21.3454C46.1188 23.1696 45.2954 24.7999 43.9996 25.8848C45.3196 27.4545 46.1188 29.4848 46.1188 31.709C46.1188 36.7029 42.0742 40.7575 37.079 40.7575C35.8498 40.7575 34.6812 40.509 33.6095 40.0666C33.6216 40.1878 33.6277 40.309 33.6277 40.4302C33.6277 42.612 31.8657 44.3757 29.686 44.3757C27.9241 44.3757 26.4285 43.2181 25.9259 41.6181C23.7704 42.9514 21.2335 43.715 18.5148 43.715C10.7102 43.715 4.3829 37.3817 4.3829 29.5696C4.3829 23.8302 7.79782 18.8848 12.7083 16.6727C14.2765 10.4727 19.8893 5.88481 26.5678 5.88481M26.5678 2.24239C18.9266 2.24239 12.2118 7.0545 9.68693 14.1333C4.20731 17.2787 0.75 23.1636 0.75 29.5636C0.75 39.3696 8.71813 47.3453 18.5148 47.3453C20.6704 47.3453 22.7896 46.9575 24.7816 46.2059C26.1137 47.3393 27.8393 47.9999 29.6921 47.9999C32.4349 47.9999 34.8387 46.5332 36.1707 44.3514C36.4735 44.3757 36.7823 44.3817 37.0911 44.3817C44.0783 44.3817 49.7638 38.6908 49.7638 31.6969C49.7638 29.7575 49.3158 27.8484 48.4742 26.1272C49.3097 24.6908 49.7638 23.0424 49.7638 21.3333C49.7638 16.8787 46.7001 13.1212 42.5707 12.0727C39.5493 6.10905 33.3795 2.23633 26.5799 2.23633L26.5678 2.24239Z" fill="white"/>
<path d="M6.69563 10.9703C7.27689 10.9703 7.9308 11.2128 8.49996 11.6916C9.52322 12.5522 9.86229 13.837 9.25075 14.5703C8.97828 14.8976 8.56052 15.0552 8.09429 15.0552C7.51303 15.0552 6.85908 14.8128 6.28993 14.334C5.26666 13.4734 4.9276 12.1885 5.53914 11.4552C5.8116 11.1279 6.22941 10.9703 6.69563 10.9703ZM6.69563 7.33398C5.13954 7.33398 3.70453 7.98853 2.74787 9.12186C0.822434 11.4309 1.3492 14.94 3.95277 17.1218C5.15769 18.134 6.62902 18.6855 8.08823 18.6855C9.64432 18.6855 11.0853 18.0309 12.036 16.8976C13.0895 15.637 13.4407 13.94 13.0048 12.2552C12.6717 10.9885 11.9028 9.79459 10.8311 8.89762C9.62614 7.8855 8.15484 7.33398 6.69563 7.33398Z" fill="white"/>
<path d="M45.6825 6.20687C45.9792 6.20687 46.2577 6.27354 46.5181 6.40687C47.7291 7.05535 47.9228 9.06747 46.948 10.8978C46.179 12.3402 44.9136 13.2432 43.8177 13.2432C43.521 13.2432 43.2424 13.1766 42.9821 13.0432C41.7651 12.3947 41.5774 10.3826 42.5522 8.55232C43.3211 7.10989 44.5866 6.20687 45.6825 6.20687ZM45.6825 2.57051C43.1758 2.57051 40.7479 4.20687 39.3431 6.84323C38.5378 8.35232 38.1746 10.0372 38.3259 11.5887C38.5257 13.6614 39.5974 15.3584 41.2686 16.2493C42.0375 16.6614 42.9215 16.8796 43.8116 16.8796C46.3183 16.8796 48.7463 15.2432 50.151 12.6069C52.1006 8.94626 51.253 4.81293 48.2256 3.19475C47.4505 2.78263 46.5726 2.56445 45.6825 2.56445V2.57051Z" fill="white"/>
<path d="M40.7236 3.63636C40.7721 3.63636 40.8205 3.63636 40.869 3.64848C41.6137 3.76969 42.0678 4.77576 41.8862 5.89697C41.7167 6.94545 41.0506 7.7212 40.3604 7.7212C40.3119 7.7212 40.2635 7.7212 40.215 7.70908C39.4703 7.58787 39.0162 6.58181 39.1978 5.4606C39.3674 4.41212 40.0334 3.63636 40.7236 3.63636ZM40.7236 0C38.2169 0 36.0675 2.05454 35.6134 4.87878C35.4135 6.11514 35.571 7.38788 36.0554 8.45454C36.7577 9.99999 38.0656 11.0364 39.6398 11.2909C39.876 11.3273 40.1242 11.3515 40.3664 11.3515C42.8731 11.3515 45.0226 9.29696 45.4767 6.47272C45.9853 3.32121 44.2173 0.503033 41.4502 0.0606097C41.208 0.0242461 40.9658 0 40.7236 0Z" fill="white"/>
<path d="M67.8432 10.6543C74.0555 10.6543 78.5784 14.8119 78.5784 19.8786C78.5784 26.5877 73.559 29.921 67.3528 30.2967C67.3528 33.1028 67.4194 35.5089 67.6071 36.7452C67.6495 37.0119 67.5344 37.2785 67.3104 37.424C66.3114 38.0604 64.4041 38.3149 62.7632 38.3149C61.3646 38.3149 60.1597 38.127 59.863 37.8301C59.4089 37.3755 59.3301 27.0058 59.5723 19.5089H59.4512C58.6278 19.5089 58.3795 12.4665 58.7126 12.1392C59.0819 11.7695 63.8531 10.6543 67.8432 10.6543ZM67.3891 24.0301C69.0784 23.9089 70.7193 23.2483 70.7193 19.4604C70.7193 18.1028 69.69 17.3634 68.2913 17.321C68.0431 17.321 67.7948 17.321 67.5102 17.3634L67.3891 24.0301ZM67.8432 7.01798C65.2033 7.01798 62.5816 7.43616 61.2556 7.67859C57.2836 8.41798 56.6539 9.05434 56.1453 9.56343C55.0676 10.6422 54.8133 11.8968 54.9828 15.4058C55.1523 18.9937 55.6428 20.1695 55.8002 20.5574C55.8305 20.6361 55.8668 20.7149 55.9031 20.7877C55.8123 24.2119 55.782 28.0604 55.8244 31.3452C55.9152 38.3573 56.1635 39.2604 57.2957 40.3937C58.0162 41.1149 59.2878 41.9392 62.7632 41.9392C64.3254 41.9392 67.2499 41.7513 69.248 40.4846C70.6951 39.5695 71.458 37.8786 71.1915 36.1816C71.1371 35.8361 71.0584 35.0664 71.016 33.424C77.9185 31.8301 82.2053 26.7755 82.2053 19.8664C82.2053 12.9574 75.8962 7.00586 67.8372 7.00586L67.8432 7.01798Z" fill="white"/>
<path d="M161.821 10.109C161.984 10.109 162.154 10.1211 162.317 10.1333C164.588 10.3514 166.713 11.1878 168.323 12.8423C168.566 13.0908 168.79 13.3575 169.002 13.6302C170.794 16.012 171.242 19.2181 171.242 22.1272C171.242 32.8302 168.075 38.6787 163.14 38.6787C158.206 38.6787 152.242 37.6484 152.242 25.7938C152.242 13.9393 154.749 10.109 161.827 10.109M162.232 33.8605C163.958 33.8605 164.043 30.2363 164.043 24.3938C164.043 22.6666 164 21.2241 163.922 20.0302C163.922 17.9696 162.771 15.7514 162.275 15.7514C161.288 15.7514 160.301 17.9332 160.301 24.3938C160.301 30.8544 160.386 33.8605 162.232 33.8605ZM161.821 6.47266C150.207 6.47266 148.603 15.7575 148.603 25.7938C148.603 42.315 159.538 42.315 163.134 42.315C167.003 42.315 170.249 40.0908 172.283 36.0544C174.003 32.6423 174.875 27.9575 174.875 22.1272C174.875 17.5878 173.906 14.0969 171.902 11.4423C171.599 11.0423 171.272 10.6605 170.927 10.309C168.82 8.14538 165.962 6.83629 162.662 6.51508C162.365 6.48477 162.087 6.47266 161.821 6.47266Z" fill="white"/>
<path d="M119.727 10.5508C125.94 10.5508 130.463 14.7084 130.463 19.7751C130.463 26.4841 125.443 29.8175 119.237 30.1932C119.237 32.9993 119.304 35.4053 119.497 36.6417C119.54 36.9084 119.425 37.175 119.201 37.3205C118.202 37.9568 116.294 38.2114 114.653 38.2114C113.261 38.2114 112.05 38.0235 111.753 37.7265C111.299 37.272 111.22 26.9023 111.462 19.4054H111.341C110.518 19.4054 110.27 12.3629 110.603 12.0357C110.972 11.666 115.743 10.5508 119.733 10.5508M119.273 23.9326C120.963 23.8114 122.603 23.1508 122.603 19.3629C122.603 18.0054 121.574 17.266 120.175 17.2235C119.927 17.2235 119.679 17.2235 119.394 17.266L119.273 23.9326ZM119.727 6.91447C117.087 6.91447 114.466 7.33265 113.14 7.57507C109.168 8.31446 108.538 8.95083 108.029 9.45992C106.952 10.5387 106.697 11.7932 106.867 15.2963C107.036 18.8841 107.527 20.0599 107.684 20.4478C107.715 20.5266 107.751 20.6054 107.787 20.6841C107.696 24.1084 107.666 27.9569 107.708 31.2417C107.799 38.2538 108.048 39.1568 109.18 40.2902C109.894 41.0114 111.172 41.8356 114.647 41.8356C116.209 41.8356 119.134 41.6478 121.132 40.3811C122.579 39.4659 123.342 37.775 123.076 36.072C123.021 35.7265 122.942 34.9569 122.9 33.3205C129.803 31.7266 134.089 26.672 134.089 19.7629C134.089 12.8539 127.78 6.90234 119.721 6.90234L119.727 6.91447Z" fill="white"/>
<path d="M141.367 10.2008C147.041 10.2008 149.675 14.8917 149.675 19.1341C149.675 19.3463 149.233 19.5402 149.087 19.619C148.536 19.916 147.949 20.1523 147.368 20.3766C146.714 20.6311 146.06 20.8614 145.394 21.0796C145.127 21.1644 144.861 21.2493 144.595 21.3281C144.492 21.3584 144.225 21.4675 144.05 21.4675C143.965 21.4675 143.904 21.4432 143.88 21.3826C143.832 21.2553 143.856 21.0796 143.862 20.9523C143.868 20.722 143.886 20.4978 143.904 20.2675C143.947 19.6856 143.983 19.1038 143.965 18.522C143.947 17.9826 143.892 17.4069 143.65 16.916C143.432 16.4796 143.051 16.2129 142.56 16.2129C140.217 16.2129 139.309 32.5583 142.064 32.5583C143.414 32.5583 143.662 30.9402 143.705 29.9402C143.711 29.7523 143.862 29.6068 144.05 29.6068C144.062 29.6068 144.074 29.6068 144.08 29.6068C145.884 29.7765 149.59 31.0068 149.59 31.8129C149.59 33.6674 146.466 38.9765 141.858 38.9765C136.306 38.9765 132.77 33.625 132.77 25.4311C132.77 17.2372 135.688 10.2008 141.367 10.2008ZM141.367 6.56445C137.311 6.56445 133.884 8.86748 131.716 13.0554C130.033 16.3099 129.137 20.5887 129.137 25.4311C129.137 35.7099 134.247 42.6129 141.858 42.6129C148.536 42.6129 153.223 35.6068 153.223 31.8129C153.223 28.722 149.996 27.5159 148.779 27.0614C147.622 26.6311 145.866 26.122 144.413 25.9826C144.292 25.9705 144.165 25.9644 144.044 25.9644C144.026 25.9644 144.013 25.9644 143.995 25.9644C143.995 25.6796 144.001 25.3887 144.007 25.0978C144.019 25.0978 144.032 25.0978 144.044 25.0978C144.692 25.0978 145.224 24.9462 145.66 24.8008C145.945 24.7159 146.236 24.625 146.52 24.5341C147.253 24.2917 147.979 24.0372 148.676 23.7644C149.342 23.5038 150.056 23.219 150.783 22.8311C152.975 21.7159 153.301 20.0372 153.301 19.1341C153.301 16.0311 152.296 13.0675 150.474 10.8008C148.282 8.06748 145.043 6.56445 141.361 6.56445H141.367Z" fill="white"/>
<path d="M183.303 10.5508C189.515 10.5508 194.038 14.7084 194.038 19.7751C194.038 24.1387 191.943 27.0235 188.777 28.6659C190.321 30.4659 193.203 34.0659 194.65 34.8235C194.941 34.975 195.043 35.3387 194.874 35.6235C194.057 36.975 191.32 39.0841 189.721 39.0841C188.365 39.0841 184.787 34.7629 182.813 32.0053C182.849 34.0114 182.916 35.6781 183.067 36.6417C183.109 36.9084 183 37.175 182.77 37.3205C181.771 37.9568 179.864 38.2114 178.223 38.2114C176.825 38.2114 175.62 38.0235 175.323 37.7265C174.869 37.272 174.79 26.9023 175.032 19.4054H174.911C174.088 19.4054 173.839 12.3629 174.172 12.0357C174.542 11.666 179.313 10.5508 183.303 10.5508ZM182.855 23.9326C184.538 23.8114 186.185 23.1508 186.185 19.3629C186.185 18.0054 185.156 17.266 183.757 17.2235C183.509 17.2235 183.261 17.2235 182.976 17.266L182.855 23.9326ZM183.303 6.91447C180.663 6.91447 178.042 7.33265 176.716 7.57507C172.744 8.31446 172.114 8.95083 171.605 9.45992C170.527 10.5387 170.273 11.7932 170.443 15.2963C170.612 18.8841 171.103 20.0599 171.26 20.4478C171.29 20.5266 171.327 20.6054 171.363 20.6841C171.272 24.1084 171.242 27.9569 171.284 31.2417C171.375 38.2538 171.623 39.1568 172.756 40.2902C173.47 41.0114 174.748 41.8356 178.223 41.8356C179.785 41.8356 182.71 41.6477 184.708 40.3811C184.793 40.3265 184.877 40.272 184.956 40.2114C187.596 42.7084 188.983 42.7084 189.715 42.7084C191.235 42.7084 192.9 42.072 194.674 40.8174C195.346 40.3387 197.023 39.0599 197.974 37.4902C198.573 36.5023 198.737 35.2962 198.428 34.1811C198.119 33.0841 197.375 32.1508 196.376 31.6114C195.897 31.2902 194.947 30.2599 194.038 29.2356C196.4 26.7993 197.665 23.5508 197.665 19.7629C197.665 12.5508 191.356 6.90234 183.297 6.90234L183.303 6.91447Z" fill="white"/>
<path d="M212.675 10.9938C215.067 10.9938 218.803 11.6786 218.803 12.0362C218.803 13.515 218.064 33.0301 218.803 36.5695C217.743 37.6604 214.159 38.3089 212.082 38.3089C211.343 38.3089 210.792 38.224 210.622 38.0544C210.005 37.4362 206.717 27.515 204.949 22.5756C204.828 26.6907 204.701 31.5513 204.743 36.5331C204.743 36.8968 199.675 38.0362 197.701 38.0362C197.223 38.0362 196.926 37.9695 196.926 37.8119C196.926 37.0301 197.502 14.715 197.502 12.7392C197.502 11.5089 200.668 11.2847 202.981 11.2847C203.865 11.2847 204.622 11.315 205.028 11.3392C205.222 11.3514 205.391 11.4847 205.439 11.6665C205.997 13.5938 208.867 23.2362 210.12 26.7756C210.078 19.6968 210.326 11.8301 210.822 11.3392C211.07 11.0908 211.779 10.9938 212.675 10.9938ZM212.675 7.35742C211.27 7.35742 209.502 7.515 208.255 8.76954C208.17 8.85439 208.092 8.93318 208.007 9.02409C207.298 8.25439 206.305 7.76954 205.222 7.70894C204.713 7.67863 203.908 7.64834 202.975 7.64834C201.262 7.64834 199.815 7.75742 198.676 7.98166C194.329 8.82409 193.863 11.5877 193.863 12.7392C193.863 13.8907 193.639 22.9756 193.481 29.5938C193.342 35.3028 193.287 37.4907 193.287 37.8119C193.287 39.1453 194.208 41.6725 197.695 41.6725C199.348 41.6725 201.77 41.1816 202.727 40.9756C203.338 40.8422 204.229 40.6301 204.991 40.3937C205.93 40.1028 206.62 39.7089 207.123 39.2725C207.474 39.9937 207.728 40.3089 208.043 40.624C209.218 41.7937 210.816 41.9453 212.076 41.9453C212.142 41.9453 218.675 41.915 221.406 39.1028L222.75 37.715L222.357 35.824C222.012 34.1816 222.018 27.0241 222.369 14.5453C222.411 13.0301 222.429 12.3453 222.429 12.0362C222.429 8.70288 218.936 8.09076 217.259 7.79985C215.678 7.52106 213.965 7.35742 212.675 7.35742Z" fill="white"/>
<path d="M88.454 9.99964C89.7921 9.99964 91.1423 10.4421 92.2624 11.3512C93.1828 12.0966 93.8186 13.0542 94.1758 14.0966C95.6713 13.2299 97.3546 12.7875 99.0499 12.7875C101.193 12.7875 103.355 13.4966 105.153 14.9511C109.319 18.3269 109.967 24.4481 106.588 28.6239C105.747 29.6663 104.729 30.4905 103.615 31.0845C103.161 32.4299 102.465 33.7208 101.52 34.8845C99.0923 37.8844 95.5442 39.442 91.9658 39.442C89.2532 39.442 86.5164 38.5451 84.2459 36.7026C78.9721 32.4299 78.1608 24.6905 82.4294 19.4117C82.6171 19.1754 82.8169 18.9572 83.0228 18.739C82.0117 16.6845 82.2115 14.1451 83.7433 12.2421C84.9422 10.7633 86.692 9.99358 88.454 9.99358M88.454 6.36328C85.5113 6.36328 82.7685 7.67237 80.9157 9.96328C79.0811 12.2299 78.3969 15.1936 78.9539 17.9875C74.1767 24.7754 75.4179 34.236 81.9572 39.539C84.7848 41.8299 88.3329 43.0905 91.9658 43.0905C96.7975 43.0905 101.308 40.939 104.342 37.1814C105.244 36.0663 105.983 34.8542 106.552 33.5572C107.624 32.8239 108.58 31.9451 109.41 30.9208C111.65 28.1451 112.679 24.6663 112.31 21.1208C111.935 17.5754 110.203 14.3815 107.436 12.139C105.068 10.2239 102.089 9.16328 99.0499 9.16328C97.9056 9.16328 96.7673 9.30874 95.6653 9.59965C95.3202 9.21783 94.9508 8.86025 94.5451 8.53298C92.8256 7.13904 90.6579 6.36935 88.454 6.36935V6.36328Z" fill="white"/>
<path d="M46.1247 21.3397C46.1247 18.073 43.4788 15.4185 40.2092 15.4185C40.1547 15.4185 40.1062 15.4185 40.0517 15.4185C38.09 9.86092 32.798 5.87305 26.5737 5.87305C19.8952 5.87305 14.2824 10.4609 12.7142 16.6609C7.80979 18.873 4.38881 23.8185 4.38881 29.5579C4.38881 37.37 10.7161 43.7033 18.5208 43.7033C21.2394 43.7033 23.7763 42.9397 25.9319 41.6063C26.4344 43.2063 27.9239 44.3639 29.6919 44.3639C31.8717 44.3639 33.6336 42.6003 33.6336 40.4185C33.6336 40.2972 33.6276 40.176 33.6154 40.0548C34.6811 40.4972 35.8558 40.7457 37.0849 40.7457C42.0741 40.7457 46.1247 36.6972 46.1247 31.6973C46.1247 29.4791 45.3255 27.4488 44.0056 25.873C45.3013 24.7882 46.1247 23.1579 46.1247 21.3336V21.3397Z" fill="#FFD15F"/>
<path d="M24.6787 22.4267C26.2002 22.4267 27.4336 20.6955 27.4336 18.56C27.4336 16.4245 26.2002 14.6934 24.6787 14.6934C23.1572 14.6934 21.9237 16.4245 21.9237 18.56C21.9237 20.6955 23.1572 22.4267 24.6787 22.4267Z" fill="white"/>
<path d="M25.8048 20.1476C26.6743 20.1476 27.3791 19.1654 27.3791 17.9537C27.3791 16.742 26.6743 15.7598 25.8048 15.7598C24.9354 15.7598 24.2305 16.742 24.2305 17.9537C24.2305 19.1654 24.9354 20.1476 25.8048 20.1476Z" fill="#472B16"/>
<path d="M33.652 22.4267C35.1735 22.4267 36.407 20.6955 36.407 18.56C36.407 16.4245 35.1735 14.6934 33.652 14.6934C32.1305 14.6934 30.8971 16.4245 30.8971 18.56C30.8971 20.6955 32.1305 22.4267 33.652 22.4267Z" fill="white"/>
<path d="M34.778 20.1476C35.6475 20.1476 36.3523 19.1654 36.3523 17.9537C36.3523 16.742 35.6475 15.7598 34.778 15.7598C33.9086 15.7598 33.2038 16.742 33.2038 17.9537C33.2038 19.1654 33.9086 20.1476 34.778 20.1476Z" fill="#472B16"/>
<path d="M29.6133 29.4154C26.9128 29.4154 24.3092 28.1003 22.8682 25.967C22.6986 25.7124 22.7653 25.367 23.0196 25.1973C23.2739 25.0276 23.619 25.0942 23.7885 25.3488C25.0903 27.2821 27.6333 28.4639 30.1037 28.2942C32.1624 28.1548 33.8214 27.1003 34.6509 25.4154C34.7841 25.1427 35.1171 25.0276 35.3896 25.1609C35.662 25.2942 35.7771 25.6276 35.6439 25.9003C34.6388 27.9548 32.6467 29.2276 30.1824 29.3973C29.9947 29.4094 29.801 29.4154 29.6133 29.4154Z" fill="#280800"/>
<path d="M21.8269 28.5548C21.6392 28.5548 21.4576 28.4578 21.3546 28.2882C21.1972 28.0275 21.282 27.6882 21.5423 27.5245C23.6494 26.2457 22.4203 23.9972 22.275 23.7427C22.1236 23.476 22.2084 23.1366 22.4748 22.9851C22.7412 22.8336 23.0742 22.9185 23.2316 23.1791C23.9219 24.3548 24.5819 26.973 22.1175 28.47C22.0267 28.5245 21.9299 28.5488 21.833 28.5488L21.8269 28.5548Z" fill="#280800"/>
<path d="M9.27054 14.5968C9.88223 13.8653 9.54639 12.5759 8.5204 11.7168C7.49441 10.8578 6.1668 10.7545 5.55511 11.486C4.94342 12.2175 5.27928 13.5069 6.30527 14.3659C7.33126 15.225 8.65885 15.3283 9.27054 14.5968Z" fill="#FFD15F"/>
<path d="M46.9454 10.91C47.9226 9.07587 47.7316 7.06427 46.5189 6.41693C45.3062 5.7696 43.5309 6.73168 42.5538 8.56578C41.5766 10.3999 41.7676 12.4115 42.9803 13.0588C44.193 13.7061 45.9682 12.7441 46.9454 10.91Z" fill="#FFD15F"/>
<path d="M41.8913 5.89604C42.0717 4.77582 41.6159 3.7705 40.873 3.65061C40.1302 3.53072 39.3818 4.34166 39.2013 5.46188C39.0209 6.58211 39.4767 7.58742 40.2195 7.70731C40.9623 7.8272 41.7108 7.01627 41.8913 5.89604Z" fill="#FFD15F"/>
<path d="M78.5789 19.8707C78.5789 26.5798 73.5595 29.9131 67.3533 30.2889C67.3533 33.0949 67.4199 35.501 67.6076 36.7374C67.65 37.004 67.5349 37.2707 67.3109 37.4161C65.4581 38.5919 60.5174 38.4707 59.8635 37.8222C59.4093 37.3677 59.3306 26.998 59.5728 19.501H59.4517C58.6282 19.501 58.38 12.4586 58.713 12.1313C59.0824 11.7616 63.8536 10.6465 67.8437 10.6465C74.056 10.6465 78.5789 14.8041 78.5789 19.8707ZM67.3896 24.0283C69.0789 23.9071 70.7198 23.2465 70.7198 19.4586C70.7198 18.101 69.6904 17.3616 68.2918 17.3192C68.0435 17.3192 67.7953 17.3192 67.5107 17.3616L67.3896 24.0283Z" fill="#472B16"/>
<path d="M169.002 13.6306C168.796 13.3579 168.572 13.0912 168.324 12.8427C166.713 11.1882 164.582 10.3518 162.317 10.1336C162.154 10.1154 161.984 10.1094 161.821 10.1094C154.749 10.1094 152.236 13.976 152.236 25.7942C152.236 37.6124 158.158 38.679 163.135 38.679C168.112 38.679 171.236 32.8306 171.236 22.1275C171.236 19.2185 170.788 16.0124 168.996 13.6306H169.002ZM162.233 33.8609C160.38 33.8609 160.301 30.8548 160.301 24.3942C160.301 17.9336 161.288 15.7518 162.275 15.7518C162.772 15.7518 163.922 17.976 163.922 20.0306C164.007 21.2245 164.043 22.6669 164.043 24.3942C164.043 30.2427 163.958 33.8609 162.233 33.8609Z" fill="#472B16"/>
<path d="M130.463 19.775C130.463 26.4841 125.443 29.8174 119.237 30.1932C119.237 32.9992 119.304 35.4053 119.497 36.6417C119.54 36.9083 119.425 37.175 119.201 37.3204C117.348 38.4962 112.407 38.375 111.753 37.7265C111.299 37.272 111.22 26.9023 111.463 19.4053H111.341C110.518 19.4053 110.27 12.3629 110.603 12.0356C110.972 11.6659 115.743 10.5508 119.733 10.5508C125.946 10.5508 130.469 14.7084 130.469 19.775H130.463ZM119.273 23.9326C120.963 23.8114 122.603 23.1508 122.603 19.3629C122.603 18.0053 121.574 17.2659 120.175 17.2235C119.927 17.2235 119.679 17.2235 119.394 17.2659L119.273 23.9326Z" fill="#472B16"/>
<path d="M141.864 38.9769C136.312 38.9769 132.776 33.6254 132.776 25.4315C132.776 17.2375 135.694 10.2012 141.374 10.2012C147.053 10.2012 149.681 14.8921 149.681 19.1345C149.681 19.3466 149.239 19.5406 149.094 19.6193C148.543 19.9163 147.955 20.1527 147.374 20.3769C146.726 20.6315 146.066 20.8618 145.4 21.0799C145.134 21.1648 144.867 21.2496 144.601 21.3284C144.45 21.3709 143.959 21.583 143.887 21.3769C143.838 21.2496 143.862 21.0739 143.868 20.9466C143.874 20.7163 143.893 20.4921 143.911 20.2618C143.953 19.6799 143.989 19.0981 143.971 18.5163C143.953 17.9769 143.899 17.4012 143.656 16.9103C143.438 16.4739 143.057 16.2072 142.567 16.2072C140.223 16.2072 139.315 32.5527 142.07 32.5527C143.42 32.5527 143.669 30.9345 143.711 29.9345C143.717 29.7345 143.893 29.589 144.086 29.6072C145.891 29.7769 149.596 31.0072 149.596 31.8133C149.596 33.6678 146.472 38.9769 141.864 38.9769Z" fill="#472B16"/>
<path d="M194.039 19.775C194.039 24.1386 191.944 27.0235 188.777 28.6659C190.315 30.4659 193.197 34.0659 194.65 34.8235C194.941 34.975 195.044 35.3386 194.874 35.6235C194.057 36.975 191.32 39.0841 189.722 39.0841C188.365 39.0841 184.787 34.7629 182.813 32.0053C182.849 34.0113 182.916 35.678 183.067 36.6416C183.11 36.9083 183.001 37.175 182.771 37.3204C180.918 38.4962 175.977 38.375 175.323 37.7265C174.869 37.2719 174.79 26.9023 175.032 19.4053H174.911C174.088 19.4053 173.84 12.3629 174.173 12.0356C174.542 11.6659 179.313 10.5508 183.303 10.5508C189.516 10.5508 194.039 14.7084 194.039 19.775ZM182.855 23.9326C184.539 23.8114 186.186 23.1508 186.186 19.3629C186.186 18.0053 185.156 17.2659 183.758 17.2235C183.509 17.2235 183.261 17.2235 182.976 17.2659L182.855 23.9326Z" fill="#472B16"/>
<path d="M205.44 11.6665C205.997 13.5937 208.867 23.2361 210.12 26.7755C210.078 19.6967 210.326 11.8301 210.822 11.3392C211.725 10.4362 218.803 11.5452 218.803 12.0422C218.803 13.521 218.064 33.0361 218.803 36.5755C217.362 38.0604 211.276 38.7149 210.616 38.0604C209.999 37.4422 206.711 27.521 204.943 22.5816C204.822 26.6967 204.695 31.5573 204.737 36.5392C204.737 36.9937 196.92 38.6361 196.92 37.8179C196.92 36.9998 197.496 14.721 197.496 12.7452C197.496 11.0483 203.538 11.2665 205.028 11.3452C205.222 11.3574 205.391 11.4907 205.44 11.6725V11.6665Z" fill="#472B16"/>
<path d="M83.0175 18.7468C82.8177 18.965 82.6178 19.1832 82.4241 19.4195C78.1554 24.6983 78.9728 32.4377 84.2405 36.7104C89.5143 40.9831 97.2463 40.165 101.515 34.8922C102.46 33.7225 103.156 32.4377 103.61 31.0922C104.724 30.4983 105.741 29.6741 106.583 28.6316C109.955 24.4619 109.314 18.3407 105.148 14.9589C101.933 12.3529 97.5551 12.1407 94.1705 14.1044C93.8132 13.062 93.1775 12.1044 92.2571 11.3589C89.6536 9.24984 85.839 9.6559 83.738 12.2559C82.2061 14.1529 82.0063 16.6923 83.0175 18.7529V18.7468Z" fill="#FFD15F"/>
<path d="M96.3742 31.2996C96.1078 31.2996 95.8353 31.2269 95.5931 31.0633C95.3449 30.8996 89.5625 27.033 90.3981 20.2088C90.495 19.4209 91.2094 18.8572 91.9966 18.9542C92.7837 19.0512 93.3468 19.7663 93.2499 20.5542C92.6384 25.5784 96.9858 28.53 97.1674 28.6572C97.8274 29.0936 98.009 29.9845 97.5731 30.6512C97.2945 31.0693 96.8404 31.2996 96.3742 31.2996Z" fill="#472B16"/>
<path d="M87.3165 28.026C86.8321 28.026 86.3598 27.7775 86.0874 27.3351C85.6757 26.6563 85.8876 25.7714 86.5657 25.3593C89.9927 23.2745 93.3713 24.6684 93.5166 24.729C94.2493 25.0381 94.5883 25.8866 94.2795 26.6139C93.9708 27.3411 93.1352 27.6805 92.4026 27.3775C92.2936 27.3351 90.1865 26.5169 88.0612 27.8139C87.8251 27.9532 87.5708 28.026 87.3165 28.026Z" fill="#472B16"/>
</svg>
