<svg width="56" height="56" viewBox="0 0 56 56" fill="none" xmlns="http://www.w3.org/2000/svg">
<rect width="56" height="56" rx="12" fill="#FFE39E"/>
<path d="M27.8444 26.9231C31.4129 26.9231 34.3059 24.0301 34.3059 20.4615C34.3059 16.8929 31.4129 14 27.8444 14C24.2758 14 21.3828 16.8929 21.3828 20.4615C21.3828 24.0301 24.2758 26.9231 27.8444 26.9231Z" fill="white"/>
<path d="M21.9231 29.0771H33.7692C35.34 29.0771 36.8466 29.531 37.9574 30.3389C39.0683 31.1468 39.6923 32.2424 39.6923 33.3848V39.8464C39.6923 40.4176 39.3802 40.9655 38.8249 41.3694C38.2696 41.7732 37.5162 42.0002 36.7308 42.0002H18.9615C18.1761 42.0002 17.4228 41.7732 16.8674 41.3694C16.312 40.9655 16 40.4176 16 39.8464V33.3848C16 32.2424 16.624 31.1468 17.7348 30.3389C18.8456 29.531 20.3522 29.0771 21.9231 29.0771Z" fill="white"/>
</svg>
