<svg width="24" height="24" viewBox="0 0 24 24" fill="none" xmlns="http://www.w3.org/2000/svg">
<path d="M12.0028 18.1999C15.427 18.1999 18.2028 15.424 18.2028 11.9999C18.2028 8.57566 15.427 5.7998 12.0028 5.7998C8.57859 5.7998 5.80273 8.57566 5.80273 11.9999C5.80273 15.424 8.57859 18.1999 12.0028 18.1999Z" fill="#DCDCDC"/>
<path d="M10.4035 4H13.6036C13.8157 4 14.0192 4.08429 14.1692 4.23431C14.3192 4.38435 14.4036 4.58783 14.4036 4.80001V6.40002H9.60352V4.80001C9.60352 4.58783 9.6878 4.38435 9.83783 4.23431C9.98786 4.08429 10.1913 4 10.4035 4Z" fill="#DCDCDC"/>
<path d="M4.27514 9.39152L5.87515 6.62022C5.98124 6.43648 6.15599 6.30239 6.36094 6.24747C6.56589 6.19256 6.78423 6.22131 6.96799 6.3274L8.35364 7.12741L5.95362 11.2844L4.56796 10.4844C4.38421 10.3783 4.25015 10.2035 4.19523 9.99859C4.14032 9.79364 4.16905 9.57528 4.27514 9.39152Z" fill="#DCDCDC"/>
<path d="M5.87712 17.3917L4.2771 14.6204C4.17101 14.4367 4.14227 14.2183 4.19718 14.0133C4.2521 13.8083 4.38618 13.6336 4.56992 13.5275L5.95557 12.7275L8.35559 16.8845L6.96994 17.6845C6.7862 17.7906 6.56783 17.8193 6.36289 17.7644C6.15794 17.7095 5.98321 17.5754 5.87712 17.3917Z" fill="#DCDCDC"/>
<path d="M13.5957 20.0001H10.3957C10.1835 20.0001 9.98007 19.9158 9.83003 19.7658C9.68001 19.6158 9.5957 19.4123 9.5957 19.2001V17.6001H14.3957V19.2001C14.3957 19.4123 14.3115 19.6158 14.1615 19.7658C14.0114 19.9158 13.808 20.0001 13.5957 20.0001Z" fill="#DCDCDC"/>
<path d="M19.727 14.6213L18.1269 17.3926C18.0209 17.5764 17.8461 17.7105 17.6412 17.7654C17.4362 17.8203 17.2179 17.7915 17.0341 17.6854L15.6484 16.8854L18.0485 12.7285L19.4341 13.5285C19.6179 13.6346 19.752 13.8093 19.8069 14.0143C19.8618 14.2192 19.833 14.4376 19.727 14.6213Z" fill="#DCDCDC"/>
<path d="M18.1269 6.62069L19.727 9.392C19.833 9.57575 19.8618 9.79413 19.8069 9.99908C19.7519 10.204 19.6179 10.3787 19.4342 10.4848L18.0485 11.2848L15.6484 7.12788L17.0341 6.32788C17.2179 6.22179 17.4362 6.19305 17.6412 6.24797C17.8461 6.30288 18.0209 6.43695 18.1269 6.62069Z" fill="#DCDCDC"/>
<path d="M12.0039 14C13.1085 14 14.0039 13.1046 14.0039 12C14.0039 10.8954 13.1085 10 12.0039 10C10.8994 10 10.0039 10.8954 10.0039 12C10.0039 13.1046 10.8994 14 12.0039 14Z" fill="white"/>
</svg>
