<svg width="76" height="77" viewBox="0 0 76 77" fill="none" xmlns="http://www.w3.org/2000/svg">
<g filter="url(#filter0_d_1543_67189)">
<path d="M61.8444 40.52C61.5344 39.38 60.7944 38.43 59.7544 37.85L56.9544 36.27C56.9844 35.83 57.0044 35.42 57.0044 35.01C57.0044 34.6 56.9944 34.21 56.9644 33.79L59.7644 32.21C60.7944 31.63 61.5344 30.68 61.8544 29.54C62.1644 28.41 61.9944 27.18 61.4044 26.17L56.5044 17.86C55.9044 16.85 54.9444 16.12 53.8044 15.82C53.4344 15.72 53.0444 15.67 52.6644 15.67C51.8944 15.67 51.1244 15.87 50.4544 16.25L47.6144 17.85C46.8844 17.37 46.1344 16.94 45.3744 16.56V13.4C45.3744 12.23 44.8944 11.09 44.0544 10.27C43.2144 9.45 42.1044 9 40.9244 9H31.1244C29.9444 9 28.8344 9.45 27.9944 10.27C27.1544 11.09 26.6744 12.23 26.6744 13.4V16.56C25.9144 16.94 25.1544 17.37 24.4244 17.85L21.5844 16.24C20.9144 15.86 20.1444 15.66 19.3744 15.66C18.9844 15.66 18.6044 15.71 18.2344 15.81C17.0844 16.11 16.1244 16.83 15.5344 17.85L10.6044 26.17C10.0044 27.18 9.84444 28.41 10.1544 29.53C10.4644 30.67 11.2044 31.62 12.2444 32.2L15.0544 33.79C15.0244 34.21 15.0144 34.61 15.0144 35.01C15.0144 35.41 15.0344 35.83 15.0644 36.26L12.2544 37.85C11.2244 38.43 10.4744 39.38 10.1644 40.52C9.85444 41.65 10.0244 42.88 10.6144 43.89L15.5144 52.2C16.1144 53.21 17.0744 53.94 18.2144 54.24C18.5844 54.34 18.9744 54.39 19.3544 54.39C20.1244 54.39 20.8944 54.19 21.5644 53.81L24.4344 52.19C25.1544 52.66 25.8844 53.08 26.6244 53.45V56.62C26.6244 57.79 27.1044 58.93 27.9444 59.75C28.7844 60.57 29.8944 61.02 31.0744 61.02H40.8744C42.0544 61.02 43.1644 60.57 44.0044 59.75C44.8444 58.93 45.3244 57.79 45.3244 56.62V53.47C46.0844 53.1 46.8244 52.67 47.5544 52.19L50.4244 53.81C51.0944 54.19 51.8644 54.39 52.6344 54.39C53.0144 54.39 53.4044 54.34 53.7744 54.24C54.9244 53.94 55.8844 53.22 56.4744 52.2L61.3744 43.89C61.9744 42.88 62.1344 41.65 61.8244 40.53L61.8444 40.52ZM36.0144 39.01C33.7344 39.01 31.8844 37.22 31.8844 35.01C31.8844 32.8 33.7344 31.01 36.0144 31.01C38.2944 31.01 40.1444 32.8 40.1444 35.01C40.1444 37.22 38.2944 39.01 36.0144 39.01Z" fill="white"/>
</g>
<path d="M58.7743 39.6L54.8343 37.37C54.9343 36.6 55.0043 35.81 55.0043 35.01C55.0043 34.21 54.9343 33.45 54.8443 32.69L58.7843 30.46C59.3443 30.14 59.7543 29.62 59.9243 29C60.0943 28.39 60.0043 27.73 59.6843 27.18L54.7843 18.87C54.4643 18.32 53.9243 17.92 53.2943 17.75C52.6643 17.59 51.9943 17.67 51.4343 17.99L47.5043 20.21C46.2443 19.27 44.8643 18.46 43.3743 17.85V13.4C43.3743 12.76 43.1143 12.15 42.6543 11.7C42.1943 11.25 41.5743 11 40.9243 11H31.1243C30.4743 11 29.8543 11.25 29.3943 11.7C28.9343 12.15 28.6743 12.76 28.6743 13.4V17.85C27.1843 18.46 25.8043 19.27 24.5343 20.21L20.5943 17.98C20.0343 17.66 19.3643 17.58 18.7343 17.74C18.1043 17.9 17.5743 18.31 17.2443 18.86L12.3443 27.17C12.0143 27.72 11.9343 28.38 12.1043 28.99C12.2743 29.6 12.6843 30.13 13.2443 30.45L17.1943 32.68C17.0943 33.44 17.0343 34.21 17.0343 35C17.0343 35.79 17.1043 36.58 17.2043 37.35L13.2543 39.58C12.6943 39.9 12.2843 40.42 12.1143 41.04C11.9443 41.66 12.0343 42.31 12.3543 42.86L17.2543 51.17C17.5843 51.72 18.1143 52.12 18.7443 52.29C19.3743 52.45 20.0443 52.37 20.6043 52.05L24.5643 49.81C25.8143 50.74 27.1743 51.54 28.6443 52.14V56.6C28.6443 57.24 28.9043 57.85 29.3643 58.3C29.8243 58.75 30.4443 59 31.0943 59H40.8943C41.5443 59 42.1643 58.75 42.6243 58.3C43.0843 57.85 43.3443 57.24 43.3443 56.6V52.16C44.8243 51.55 46.2043 50.75 47.4643 49.81L51.4243 52.05C51.9843 52.37 52.6543 52.45 53.2843 52.29C53.9143 52.13 54.4443 51.72 54.7743 51.17L59.6743 42.86C59.9943 42.31 60.0843 41.65 59.9143 41.04C59.7443 40.42 59.3343 39.9 58.7743 39.58V39.6ZM36.0143 41.01C32.6343 41.01 29.8843 38.32 29.8843 35.01C29.8843 31.7 32.6243 29.01 36.0143 29.01C39.4043 29.01 42.1443 31.7 42.1443 35.01C42.1443 38.32 39.4043 41.01 36.0143 41.01Z" fill="#FFC747"/>
<defs>
<filter id="filter0_d_1543_67189" x="0" y="0" width="76.0068" height="76.02" filterUnits="userSpaceOnUse" color-interpolation-filters="sRGB">
<feFlood flood-opacity="0" result="BackgroundImageFix"/>
<feColorMatrix in="SourceAlpha" type="matrix" values="0 0 0 0 0 0 0 0 0 0 0 0 0 0 0 0 0 0 127 0" result="hardAlpha"/>
<feOffset dx="2" dy="3"/>
<feGaussianBlur stdDeviation="6"/>
<feComposite in2="hardAlpha" operator="out"/>
<feColorMatrix type="matrix" values="0 0 0 0 0 0 0 0 0 0 0 0 0 0 0 0 0 0 0.08 0"/>
<feBlend mode="normal" in2="BackgroundImageFix" result="effect1_dropShadow_1543_67189"/>
<feBlend mode="normal" in="SourceGrap
hic" in2="effect1_dropShadow_1543_67189" result="shape"/>
</filter>
</defs>
</svg>
