<svg width="180" height="180" viewBox="0 0 180 180" fill="none" xmlns="http://www.w3.org/2000/svg">
<path d="M94.8206 4.82143C94.8206 2.15863 92.662 0 89.9992 0C87.3364 0 85.1777 2.15863 85.1777 4.82143V36.9643C85.1777 39.6271 87.3364 41.7857 89.9992 41.7857C92.662 41.7857 94.8206 39.6271 94.8206 36.9643V4.82143Z" fill="#FFC747"/>
<path opacity="0.88" d="M51.582 13.8238C50.2506 11.5177 47.3018 10.7276 44.9958 12.059C42.6897 13.3904 41.8996 16.3392 43.231 18.6452L59.3025 46.4817C60.6339 48.7878 63.5826 49.5779 65.8886 48.2465C68.1947 46.9151 68.9848 43.9664 67.6534 41.6603L51.582 13.8238Z" fill="#FFC747"/>
<path opacity="0.8" d="M18.6473 43.2326C16.3412 41.9012 13.3925 42.6913 12.0611 44.9974C10.7297 47.3034 11.5198 50.2522 13.8259 51.5836L41.6624 67.655C43.9685 68.9864 46.9172 68.1963 48.2486 65.8902C49.58 63.5842 48.7899 60.6354 46.4838 59.304L18.6473 43.2326Z" fill="#FFC747"/>
<path opacity="0.72" d="M4.82143 85.1784C2.15863 85.1784 0 87.3371 0 89.9999C0 92.6627 2.15863 94.8213 4.82143 94.8213H36.9643C39.6271 94.8213 41.7857 92.6627 41.7857 89.9999C41.7857 87.3371 39.6271 85.1784 36.9643 85.1784H4.82143Z" fill="#FFC747"/>
<path opacity="0.64" d="M13.8248 128.411C11.5187 129.743 10.7286 132.691 12.06 134.997C13.3914 137.303 16.3401 138.094 18.6462 136.762L46.4827 120.691C48.7888 119.359 49.5789 116.411 48.2475 114.105C46.9161 111.798 43.9673 111.008 41.6613 112.34L13.8248 128.411Z" fill="#FFC747"/>
<path opacity="0.56" d="M43.2394 161.352C41.908 163.658 42.6982 166.607 45.0042 167.938C47.3103 169.27 50.259 168.48 51.5904 166.174L67.6618 138.337C68.9932 136.031 68.2031 133.082 65.8971 131.751C63.591 130.42 60.6423 131.21 59.3109 133.516L43.2394 161.352Z" fill="#FFC747"/>
<path opacity="0.48" d="M85.1794 175.179C85.1794 177.841 87.338 180 90.0008 180C92.6636 180 94.8223 177.841 94.8223 175.179V143.036C94.8223 140.373 92.6636 138.214 90.0008 138.214C87.338 138.214 85.1794 140.373 85.1794 143.036V175.179Z" fill="#FFC747"/>
<path opacity="0.4" d="M128.41 166.174C129.742 168.48 132.69 169.27 134.996 167.939C137.302 166.607 138.093 163.658 136.761 161.352L120.69 133.516C119.358 131.21 116.41 130.42 114.104 131.751C111.797 133.082 111.007 136.031 112.339 138.337L128.41 166.174Z" fill="#FFC747"/>
<path opacity="0.32" d="M161.355 136.77C163.661 138.101 166.609 137.311 167.941 135.005C169.272 132.699 168.482 129.75 166.176 128.419L138.34 112.347C136.033 111.016 133.085 111.806 131.753 114.112C130.422 116.418 131.212 119.367 133.518 120.698L161.355 136.77Z" fill="#FFC747"/>
<path opacity="0.24" d="M175.179 94.8216C177.841 94.8216 180 92.6629 180 90.0001C180 87.3373 177.841 85.1787 175.179 85.1787H143.036C140.373 85.1787 138.214 87.3373 138.214 90.0001C138.214 92.6629 140.373 94.8216 143.036 94.8216H175.179Z" fill="#FFC747"/>
<path opacity="0.16" d="M166.175 51.5913C168.481 50.2599 169.271 47.s3111 167.94 45.0051C166.609 42.699 163.66 41.9089 161.354 43.2403L133.517 59.3117C131.211 60.6431 130.421 63.5919 131.753 65.8979C133.084 68.204 136.033 68.9941 138.339 67.6627L166.175 51.5913Z" fill="#FFC747"/>
<path opacity="0.08" d="M136.768 18.6449C138.1 16.3388 137.31 13.3901 135.004 12.0587C132.698 10.7273 129.749 11.5174 128.417 13.8234L112.346 41.66C111.015 43.966 111.805 46.9148 114.111 48.2462C116.417 49.5776 119.366 48.7874 120.697 46.4814L136.768 18.6449Z" fill="#FFC747"/>
</svg>
