<!-- Generator: Adobe Illustrator 25.0.1, SVG Export Plug-In  -->
<svg version="1.1" xmlns="http://www.w3.org/2000/svg" xmlns:xlink="http://www.w3.org/1999/xlink" x="0px" y="0px" width="267.3px"
	 height="28.6px" viewBox="0 0 267.3 28.6" style="overflow:visible;enable-background:new 0 0 267.3 28.6;" xml:space="preserve">
<style type="text/css">
@keyframes blink {
    0% { opacity: 1; }
    33% { opacity: 0; }
    100% { opacity: 0; }
}

.st1 {
    fill: #F4B20F;
    animation: blink 3s infinite steps(1);
    animation-delay: 0s; /* 첫 번째 요소는 지연 없이 시작 */
}

.st2 {
    fill: #F4B20F;
    animation: blink 3s infinite steps(1);
    animation-delay: 1s; /* 두 번째 요소는 2초 지연 후 시작 */
}

.st3 {
    fill: #F4B20F;
    animation: blink 3s infinite steps(1);
    animation-delay: 2s; /* 세 번째 요소는 4초 지연 후 시작 */
}
</style>
<defs>
</defs>
<path class="st0" fill="#F4B20F" d="M22.9,13.2l-1.2,2.8c-0.2,0.4-0.7,0.7-1.3,0.5c-2.4-0.8-5-2.1-7.2-3.8c-2.8,1.8-6.1,3.2-9.5,4
	c-0.8,0.2-1.4,0.2-1.7-0.5l-0.8-2.1c-0.3-0.7,0-1.3,0.7-1.5c4.7-1.5,9-3.6,11.7-6.4L3.2,6.3c-0.6,0-1-0.4-1-1V2.2c0-0.6,0.4-1,1-1
	h16.7c1.4,0,2,1.3,1.5,2.6c-0.8,2-2.2,4-4.2,5.8c1.7,1,3.5,1.7,5.1,2.3C22.9,12.3,23.1,12.7,22.9,13.2z M22.9,25L1,25.4
	c-0.6,0-1-0.4-1-1v-2.6c0-0.6,0.4-1,1-1l8.5,0l0-4.2c0-0.6,0.3-1,0.9-1h3.9c0.6,0,1,0.3,1,0.9l-0.1,4.2l7.8,0c0.6,0,1,0.4,1,1V24
	C23.9,24.6,23.5,24.9,22.9,25z M44.9,28.5l-15.7,0.1c-1,0-1.6-0.6-1.6-1.6l-0.2-7.9c0-1,0.6-1.6,1.6-1.6l16.1-0.3
	c1,0,1.6,0.6,1.6,1.6l-0.2,8C46.5,27.9,45.9,28.5,44.9,28.5z M41.4,24.6l-0.1-3.3l-8.4,0.1l0.1,3.3L41.4,24.6z M44.8,10.2l-2.7-0.1
	c-0.6,0-0.8-0.4-0.7-1.2c0.2-1.2,0.2-3.1,0.1-4.1H27.8C27.3,4.8,27,4.5,27,4V1c0-0.5,0.3-0.8,0.8-0.8h17.4c1.1,0,1.9,0.6,1.9,1.9
	v0.3c0,2.1-0.3,5-1.1,6.9C45.8,9.9,45.4,10.2,44.8,10.2z M48.1,15.1l-22,0.5c-0.6,0-1-0.4-1-1v-2.5c0-0.6,0.4-1,1-1l22-0.1
	c0.6,0,1,0.4,1,1v2.1C49,14.8,48.6,15.1,48.1,15.1z M63.9,16.2l-10.4,0.1c-1.2,0-1.9-0.7-1.9-1.9L51.1,3c0-1.2,0.7-1.9,1.9-1.9
	L64.2,1c1.2,0,1.9,0.7,1.9,1.9l-0.3,11.4C65.8,15.5,65.1,16.2,63.9,16.2z M73.2,19.6h-3.3c-0.6,0-1-0.3-1-1L68.7,1
	c0-0.6,0.3-1,0.9-1h3.9c0.6,0,1,0.3,0.9,1l-0.1,5.7H77c0.7,0,1.1,0.4,1.1,1.1v2.6c0,0.7-0.4,1.1-1.1,1.1h-2.7l-0.1,7.2
	C74.1,19.3,73.8,19.6,73.2,19.6z M73.3,28.3l-14.5,0.2c-1.4,0-2.2-0.8-2.2-2.2l-0.2-7c0-0.6,0.3-1,0.9-1h3.5c0.6,0,0.9,0.3,0.9,1
	l-0.1,4.6l11.6,0.1c0.7,0,0.9,0.3,0.9,0.8v2.4C74.1,28,73.8,28.3,73.3,28.3z M60.9,11.9V5.4h-4.5l0.1,6.5L60.9,11.9z M109,25.5h-3.1
	c-0.6,0-1-0.3-1-1V1.9c0-0.6,0.3-1,0.9-1h3.9c0.6,0,1,0.3,0.9,1L110,24.6C110,25.2,109.7,25.5,109,25.5z M95,22.5l-2.4-1
	c-0.5-0.2-0.7-0.7-0.4-1.3C94.3,16,95.7,11,95.8,7h-8.7c-0.5,0-0.8-0.3-0.8-0.8V2.5c0-0.5,0.3-0.8,0.8-0.8h12.4
	c1.1,0,1.9,0.6,1.9,1.9v0.6c0,6.5-2.3,13.2-5.1,17.8C96.1,22.6,95.6,22.8,95,22.5z M129.5,17.1l0.5,2.7c0.1,0.7-0.1,1-0.7,1.1
	c-3.8,0.9-9,1.5-13.2,1.4c-1.4,0-2.2-0.8-2.2-2.2l-0.4-16.2c0-1.5,0.9-2.2,2.2-2.2l11.2-0.1c0.7,0,1.1,0.4,1.1,1.1v2.6
	c0,0.7-0.4,1.1-1.1,1.1l-7.7,0.2l0.3,10.4c2.8,0.1,6.1-0.1,9-0.6C129.1,16.3,129.4,16.5,129.5,17.1z M135.6,25.5h-3.1
	c-0.6,0-1-0.3-1-1V1.9c0-0.6,0.3-1,0.9-1h3.9c0.6,0,1,0.3,0.9,1L137,9.2l2.7,0c0.7,0,1.1,0.4,1.1,1.1v2.6c0,0.7-0.4,1.1-1.1,1.1
	l-2.8,0.1l-0.3,10.5C136.5,25.2,136.2,25.5,135.6,25.5z M157.4,17.5l0.5,2.7c0.1,0.6-0.1,1-0.7,1.1c-3.4,0.9-8.1,1.4-12.7,1.3
	c-1.4,0-2.2-0.8-2.2-2.2l-0.1-8.9c0-1.5,0.9-2.2,2.2-2.2l5.5,0V6h-6c-0.7,0-1.1-0.4-1.1-1.1V2.4c0-0.7,0.4-1.1,1.1-1.1l9.4,0.1
	c1.3,0,2.2,0.7,2.2,2.2l-0.2,8.1c0,1.4-0.8,2.2-2.2,2.2l-5.3,0.1v3.5c2.8,0.1,5.7-0.2,8.5-0.7C157,16.7,157.3,16.9,157.4,17.5z
	 M164.9,25.5h-3.1c-0.6,0-1-0.3-1-1V16l-3,0c-0.7,0-1.1-0.4-1.1-1.1v-2.5c0-0.7,0.4-1.1,1.1-1.1l3,0v-2l-3,0c-0.7,0-1.1-0.4-1.1-1.1
	V5.7c0-0.7,0.4-1.1,1.1-1.1l3,0V1.9c0-0.6,0.3-1,0.9-1h3.9c0.6,0,1,0.3,0.9,1l-0.7,22.7C165.8,25.2,165.5,25.5,164.9,25.5z
	 M191.8,10.8l-1.2,2.8c-0.2,0.4-0.7,0.7-1.3,0.5c-2.5-0.6-5.2-1.7-7.5-3.1c-3,1.5-6.5,2.6-9.5,3.3c-0.8,0.2-1.4,0.2-1.7-0.5
	l-0.8-2.1c-0.3-0.7,0-1.3,0.7-1.5c4.4-1.2,8.7-2.6,11.7-4.5l-10.5,0.2c-0.6,0-1-0.4-1-1V1.8c0-0.6,0.4-1,1-1h17c1.4,0,2,1.3,1.5,2.6
	c-0.7,1.8-2.1,3.4-3.9,4.8c1.7,0.6,3.3,1.1,4.8,1.4C191.8,9.8,192,10.3,191.8,10.8z M191.6,19.8l-8,0.2l-0.1,6.2c0,0.6-0.3,1-1,1
	h-3.8c-0.6,0-1-0.3-1-1l-0.1-6.1l-8,0.2c-0.6,0-1-0.4-1-1v-2.6c0-0.6,0.4-1,1-1l22-0.1c0.6,0,1,0.4,1,1v2.3
	C192.5,19.5,192.2,19.8,191.6,19.8z M208,18.1l-2.3,2.4c-0.4,0.4-1,0.4-1.4,0c-1.3-1.1-2.7-2.5-3.7-4.2c-1.2,1.8-2.7,3.5-4.8,4.9
	c-0.6,0.4-1.2,0.2-1.6-0.3l-1.3-2c-0.3-0.4-0.2-0.9,0.3-1.3c4-3.6,5.2-8.8,4.9-14.7c-0.1-1,0.5-1.4,1.3-1.4h3.3
	c0.9,0,1.3,0.6,1.2,1.4c-0.1,2.8-0.4,5.5-1.1,8.1c1.2,2.1,3,4,5.2,5.6C208.4,17.2,208.3,17.9,208,18.1z M212.6,25.5h-2.8
	c-0.6,0-1-0.3-1-1l-0.2-12.7h-2.7c-0.7,0-1.1-0.4-1.1-1.1V8c0-0.7,0.4-1.1,1.1-1.1h2.6l-0.1-4.6c0-0.6,0.3-1,0.9-1h3.6
	c0.6,0,1,0.3,0.9,1l-0.4,22.3C213.6,25.2,213.2,25.5,212.6,25.5z M219,25.5h-2.8c-0.6,0-1-0.3-1-1V1.9c0-0.6,0.3-1,0.9-1h3.6
	c0.6,0,1,0.3,0.9,1l-0.7,22.7C219.9,25.2,219.6,25.5,219,25.5z M245.2,25l-22,0.4c-0.6,0-1-0.4-1-1v-2.6c0-0.6,0.4-1,1-1h3.4l0-4.5
	c0-0.6,0.3-1,0.9-1h0.2c-2.1-1.4-3.5-3.7-3.5-6.6c0-5.2,4.4-8.5,10-8.5c5.6,0,10,3.4,10,8.5c0,2.8-1.4,5.1-3.5,6.6h0.3
	c0.6,0,1,0.3,1,0.9l-0.1,4.5h3.3c0.6,0,1,0.4,1,1V24C246.2,24.6,245.8,24.9,245.2,25z M239.5,9.1c0-2.3-2.1-3.9-4.7-3.9
	c-2.7,0-4.7,1.5-4.7,3.9s2.1,3.8,4.7,3.8C237.3,12.9,239.5,11.4,239.5,9.1z M236.4,20.8l0-3.8c-0.7,0.1-1.4,0.2-2.1,0.2
	c-0.7,0-1.4,0-2-0.1l-0.1,3.8H236.4z"/>
<path class="st1" d="M250.3,27.5c-3.8,0.1-3.8-5.9,0-5.8C254.1,21.6,254.1,27.6,250.3,27.5z"/>
<path class="st2" d="M257.4,27.5c-3.8,0.1-3.8-5.9,0-5.8C261.2,21.6,261.2,27.6,257.4,27.5z"/>
<path class="st3" d="M264.4,27.5c-3.8,0.1-3.8-5.9,0-5.8C268.2,21.6,268.2,27.6,264.4,27.5z"/>
</svg>
