<svg width="80" height="80" viewBox="0 0 80 80" fill="none" xmlns="http://www.w3.org/2000/svg">
<g filter="url(#filter0_d_492_6678)">
<mask id="path-1-outside-1_492_6678" maskUnits="userSpaceOnUse" x="10" y="8.10547" width="58" height="46" fill="black">
<rect fill="white" x="10" y="8.10547" width="58" height="46"/>
<path fill-rule="evenodd" clip-rule="evenodd" d="M31.6485 16.3563C31.6485 19.2529 29.2944 21.607 26.3978 21.607C23.5011 21.607 21.147 19.2529 21.147 16.3563C21.147 13.4596 23.5011 11.1055 26.3978 11.1055C29.2944 11.1055 31.6485 13.4596 31.6485 16.3563ZM26.3978 22.8326C28.4493 22.8326 30.4195 23.5796 31.9479 24.924C33.4222 23.761 35.2528 23.12 37.1531 23.12H40.8287C42.733 23.12 44.5672 23.7636 46.0431 24.9313C47.5727 23.5823 49.5463 22.8326 51.6015 22.8326C53.8331 22.8326 55.9684 23.7165 57.5436 25.2917C59.1188 26.8669 60.0027 29.0023 60.0027 31.2338V33.1297C60.3133 33.1338 60.53 33.2257 60.6639 33.3532C60.7248 33.4113 60.7784 33.4786 60.8297 33.5454C61.2631 34.11 60.9415 35.018 60.2469 36.0301L61.1155 35.1615C61.3599 34.917 61.4973 34.5855 61.4973 34.2397V33.0444C61.2892 26.593 62.8752 25.3367 63.9397 25.5283C64.1676 25.5693 64.4195 25.6621 64.5175 25.872C65.2225 27.3817 65.0456 35.8225 64.6782 36.9771C64.3652 37.9608 59.3823 44.5325 56.6814 48.018C56.5039 48.247 56.4078 48.5278 56.4078 48.8175V50.0165C56.4078 50.7364 55.8242 51.32 55.1043 51.32H48.3535C48.2764 51.32 48.2015 51.3233 48.1306 51.3263C47.7902 51.341 47.5406 51.3518 47.5637 50.9821C47.6138 50.1804 47.2139 46.7367 46.9947 45.0103C46.9853 44.9367 46.982 44.8627 46.9867 44.7886C47.0011 44.5612 47.0288 44.3393 47.0683 44.1231H30.9317C30.9713 44.3392 30.9989 44.561 31.0133 44.7883C31.018 44.8623 31.0147 44.9364 31.0053 45.01C30.7861 46.7364 30.3862 50.1801 30.4363 50.9818C30.4594 51.3515 30.2098 51.3407 29.8694 51.326C29.7985 51.323 29.7236 51.3197 29.6465 51.3197H22.8957C22.1758 51.3197 21.5922 50.7361 21.5922 50.0162V48.8172C21.5922 48.5275 21.4961 48.2467 21.3186 48.0177C18.6177 44.5321 13.6348 37.9604 13.3218 36.9768C12.9544 35.8222 12.7775 27.3814 13.4825 25.8716C13.5805 25.6618 13.8324 25.569 14.0603 25.528C15.1248 25.3363 16.7108 26.5927 16.5027 33.0441V34.2394C16.5027 34.5851 16.6401 34.9167 16.8845 35.1612L17.7531 36.0297C17.0585 35.0176 16.7369 34.1097 17.1703 33.5451C17.2216 33.4783 17.2752 33.411 17.3361 33.3529C17.4699 33.2254 17.6864 33.1336 17.9966 33.1294V31.2338C17.9966 29.0023 18.8804 26.8669 20.4557 25.2917C22.0309 23.7165 24.1662 22.8326 26.3978 22.8326ZM56.8522 16.3563C56.8522 19.2529 54.4981 21.607 51.6015 21.607C48.7048 21.607 46.3507 19.2529 46.3507 16.3563C46.3507 13.4596 48.7048 11.1055 51.6015 11.1055C54.4981 11.1055 56.8522 13.4596 56.8522 16.3563ZM44.25 16.644C44.25 19.5407 41.8959 21.8948 38.9992 21.8948C36.1026 21.8948 33.7485 19.5407 33.7485 16.644C33.7485 13.7473 36.1026 11.3932 38.9992 11.3932C41.8959 11.3932 44.25 13.7473 44.25 16.644Z"/>
</mask>
<path fill-rule="evenodd" clip-rule="evenodd" d="M31.6485 16.3563C31.6485 19.2529 29.2944 21.607 26.3978 21.607C23.5011 21.607 21.147 19.2529 21.147 16.3563C21.147 13.4596 23.5011 11.1055 26.3978 11.1055C29.2944 11.1055 31.6485 13.4596 31.6485 16.3563ZM26.3978 22.8326C28.4493 22.8326 30.4195 23.5796 31.9479 24.924C33.4222 23.761 35.2528 23.12 37.1531 23.12H40.8287C42.733 23.12 44.5672 23.7636 46.0431 24.9313C47.5727 23.5823 49.5463 22.8326 51.6015 22.8326C53.8331 22.8326 55.9684 23.7165 57.5436 25.2917C59.1188 26.8669 60.0027 29.0023 60.0027 31.2338V33.1297C60.3133 33.1338 60.53 33.2257 60.6639 33.3532C60.7248 33.4113 60.7784 33.4786 60.8297 33.5454C61.2631 34.11 60.9415 35.018 60.2469 36.0301L61.1155 35.1615C61.3599 34.917 61.4973 34.5855 61.4973 34.2397V33.0444C61.2892 26.593 62.8752 25.3367 63.9397 25.5283C64.1676 25.5693 64.4195 25.6621 64.5175 25.872C65.2225 27.3817 65.0456 35.8225 64.6782 36.9771C64.3652 37.9608 59.3823 44.5325 56.6814 48.018C56.5039 48.247 56.4078 48.5278 56.4078 48.8175V50.0165C56.4078 50.7364 55.8242 51.32 55.1043 51.32H48.3535C48.2764 51.32 48.2015 51.3233 48.1306 51.3263C47.7902 51.341 47.5406 51.3518 47.5637 50.9821C47.6138 50.1804 47.2139 46.7367 46.9947 45.0103C46.9853 44.9367 46.982 44.8627 46.9867 44.7886C47.0011 44.5612 47.0288 44.3393 47.0683 44.1231H30.9317C30.9713 44.3392 30.9989 44.561 31.0133 44.7883C31.018 44.8623 31.0147 44.9364 31.0053 45.01C30.7861 46.7364 30.3862 50.1801 30.4363 50.9818C30.4594 51.3515 30.2098 51.3407 29.8694 51.326C29.7985 51.323 29.7236 51.3197 29.6465 51.3197H22.8957C22.1758 51.3197 21.5922 50.7361 21.5922 50.0162V48.8172C21.5922 48.5275 21.4961 48.2467 21.3186 48.0177C18.6177 44.5321 13.6348 37.9604 13.3218 36.9768C12.9544 35.8222 12.7775 27.3814 13.4825 25.8716C13.5805 25.6618 13.8324 25.569 14.0603 25.528C15.1248 25.3363 16.7108 26.5927 16.5027 33.0441V34.2394C16.5027 34.5851 16.6401 34.9167 16.8845 35.1612L17.7531 36.0297C17.0585 35.0176 16.7369 34.1097 17.1703 33.5451C17.2216 33.4783 17.2752 33.411 17.3361 33.3529C17.4699 33.2254 17.6864 33.1336 17.9966 33.1294V31.2338C17.9966 29.0023 18.8804 26.8669 20.4557 25.2917C22.0309 23.7165 24.1662 22.8326 26.3978 22.8326ZM56.8522 16.3563C56.8522 19.2529 54.4981 21.607 51.6015 21.607C48.7048 21.607 46.3507 19.2529 46.3507 16.3563C46.3507 13.4596 48.7048 11.1055 51.6015 11.1055C54.4981 11.1055 56.8522 13.4596 56.8522 16.3563ZM44.25 16.644C44.25 19.5407 41.8959 21.8948 38.9992 21.8948C36.1026 21.8948 33.7485 19.5407 33.7485 16.644C33.7485 13.7473 36.1026 11.3932 38.9992 11.3932C41.8959 11.3932 44.25 13.7473 44.25 16.644Z" fill="white"/>
<path d="M31.9479 24.924L30.6241 26.429L31.8781 27.5321L33.1894 26.4977L31.9479 24.924ZM46.0431 24.9313L44.7995 26.5032L46.1129 27.5423L47.3689 26.4346L46.0431 24.9313ZM57.5436 25.2917L58.9609 23.8744L57.5436 25.2917ZM60.0027 33.1297H57.9983V35.1079L59.9764 35.1339L60.0027 33.1297ZM60.6639 33.3532L62.0465 31.902L62.0464 31.902L60.6639 33.3532ZM60.8297 33.5454L62.4197 32.3249L62.4197 32.3249L60.8297 33.5454ZM60.2469 36.0301L58.5943 34.8959L61.6642 37.4474L60.2469 36.0301ZM61.1155 35.1615L62.5328 36.5788V36.5788L61.1155 35.1615ZM61.4973 33.0444H63.5017V33.0121L63.5006 32.9798L61.4973 33.0444ZM63.9397 25.5283L64.2948 23.5557H64.2948L63.9397 25.5283ZM64.5175 25.872L66.3336 25.0239L66.3336 25.0239L64.5175 25.872ZM64.6782 36.9771L62.7682 36.3694L62.7682 36.3694L64.6782 36.9771ZM56.6814 48.018L58.2657 49.2458L58.2657 49.2458L56.6814 48.018ZM48.1306 51.3263L48.2171 53.3288L48.2171 53.3288L48.1306 51.3263ZM47.5637 50.9821L49.5642 51.1071V51.1071L47.5637 50.9821ZM46.9947 45.0103L48.9831 44.7578L48.9831 44.7578L46.9947 45.0103ZM46.9867 44.7886L48.9871 44.915V44.915L46.9867 44.7886ZM47.0683 44.1231L49.04 44.4838L49.4726 42.1188H47.0683V44.1231ZM30.9317 44.1231V42.1188H28.5276L28.9601 44.4837L30.9317 44.1231ZM31.0133 44.7883L33.0137 44.6619V44.6619L31.0133 44.7883ZM31.0053 45.01L29.0169 44.7575L29.0169 44.7575L31.0053 45.01ZM30.4363 50.9818L32.4367 50.8568L30.4363 50.9818ZM29.8694 51.326L29.7829 53.3285L29.7829 53.3285L29.8694 51.326ZM21.3186 48.0177L19.7343 49.2454H19.7343L21.3186 48.0177ZM13.3218 36.9768L11.4118 37.5845L11.4118 37.5845L13.3218 36.9768ZM13.4825 25.8716L11.6664 25.0236L11.6664 25.0236L13.4825 25.8716ZM14.0603 25.528L13.7052 23.5553L13.7052 23.5553L14.0603 25.528ZM16.5027 33.0441L14.4994 32.9795L14.4983 33.0118V33.0441H16.5027ZM16.8845 35.1612L15.4672 36.5785H15.4672L16.8845 35.1612ZM17.7531 36.0297L16.3358 37.447L19.4057 34.8955L17.7531 36.0297ZM17.1703 33.5451L18.7602 34.7655L18.7602 34.7655L17.1703 33.5451ZM17.3361 33.3529L18.7187 34.8041L18.7187 34.8041L17.3361 33.3529ZM17.9966 33.1294L18.0238 35.1335L20.0009 35.1067V33.1294H17.9966ZM20.4557 25.2917L19.0384 23.8744H19.0384L20.4557 25.2917ZM26.3978 23.6114C30.4014 23.6114 33.6529 20.3599 33.6529 16.3563H29.6441C29.6441 18.146 28.1874 19.6027 26.3978 19.6027V23.6114ZM19.1426 16.3563C19.1426 20.3599 22.3941 23.6114 26.3978 23.6114V19.6027C24.6081 19.6027 23.1514 18.146 23.1514 16.3563H19.1426ZM26.3978 9.1011C22.3941 9.1011 19.1426 12.3526 19.1426 16.3563H23.1514C23.1514 14.5665 24.6081 13.1098 26.3978 13.1098V9.1011ZM33.6529 16.3563C33.6529 12.3526 30.4014 9.1011 26.3978 9.1011V13.1098C28.1874 13.1098 29.6441 14.5665 29.6441 16.3563H33.6529ZM33.2717 23.419C31.3778 21.7531 28.9372 20.8282 26.3978 20.8282V24.8369C27.9615 24.8369 29.4612 25.4061 30.6241 26.429L33.2717 23.419ZM37.1531 21.1156C34.8009 21.1156 32.5334 21.9092 30.7065 23.3504L33.1894 26.4977C34.3111 25.6127 35.7046 25.1244 37.1531 25.1244V21.1156ZM40.8287 21.1156H37.1531V25.1244H40.8287V21.1156ZM47.2867 23.3594C45.4579 21.9125 43.1858 21.1156 40.8287 21.1156V25.1244C42.2802 25.1244 43.6765 25.6148 44.7995 26.5032L47.2867 23.3594ZM51.6015 20.8282C49.0575 20.8282 46.6127 21.7564 44.7173 23.428L47.3689 26.4346C48.5327 25.4081 50.035 24.8369 51.6015 24.8369V20.8282ZM58.9609 23.8744C57.0092 21.9227 54.3638 20.8282 51.6015 20.8282V24.8369C53.3023 24.8369 54.9276 25.5103 56.1263 26.709L58.9609 23.8744ZM62.0071 31.2338C62.0071 28.4715 60.9126 25.8261 58.9609 23.8744L56.1263 26.709C57.325 27.9077 57.9983 29.533 57.9983 31.2338H62.0071ZM62.0071 33.1297V31.2338H57.9983V33.1297H62.0071ZM62.0464 31.902C61.4635 31.3466 60.7177 31.1345 60.0291 31.1255L59.9764 35.1339C59.9089 35.133 59.5965 35.1047 59.2813 34.8044L62.0464 31.902ZM62.4197 32.3249C62.3641 32.2525 62.2295 32.0764 62.0465 31.902L59.2813 34.8044C59.2456 34.7704 59.2244 34.7456 59.22 34.7404C59.2174 34.7373 59.2174 34.7372 59.221 34.7417C59.2247 34.7464 59.2304 34.7536 59.2398 34.7659L62.4197 32.3249ZM61.8995 37.1642C62.3028 36.5766 62.7002 35.8785 62.8981 35.1362C63.0989 34.3827 63.1589 33.2879 62.4197 32.3249L59.2398 34.7659C59.1042 34.5893 59.0433 34.3975 59.027 34.2498C59.0127 34.1206 59.0357 34.062 59.0246 34.1036C59.0141 34.1431 58.9831 34.2339 58.9081 34.3803C58.8346 34.5238 58.7314 34.6961 58.5943 34.8959L61.8995 37.1642ZM59.6982 33.7442L58.8296 34.6127L61.6642 37.4474L62.5328 36.5788L59.6982 33.7442ZM59.4929 34.2397C59.4929 34.0539 59.5667 33.8756 59.6982 33.7442L62.5328 36.5788C63.1531 35.9584 63.5017 35.1171 63.5017 34.2397H59.4929ZM59.4929 33.0444V34.2397H63.5017V33.0444H59.4929ZM64.2948 23.5557C63.5379 23.4194 62.7201 23.5583 61.9881 24.0336C61.2858 24.4896 60.779 25.1764 60.4198 25.9588C59.721 27.4804 59.3866 29.782 59.494 33.109L63.5006 32.9798C63.3998 29.8554 63.7544 28.3031 64.0628 27.6317C64.207 27.3175 64.2834 27.3229 64.1713 27.3957C64.0296 27.4877 63.8092 27.5414 63.5845 27.501L64.2948 23.5557ZM66.3336 25.0239C66.044 24.4038 65.5675 24.0507 65.2104 23.8629C64.8599 23.6785 64.5218 23.5965 64.2948 23.5557L63.5845 27.501C63.5771 27.4996 63.5539 27.4952 63.5183 27.4841C63.4838 27.4734 63.4221 27.4517 63.3442 27.4108C63.1945 27.332 62.8929 27.1303 62.7014 26.7201L66.3336 25.0239ZM66.5882 37.5849C66.7008 37.2311 66.7595 36.793 66.7976 36.4538C66.8415 36.062 66.8783 35.5936 66.9082 35.0843C66.968 34.0632 67.0033 32.8137 67.0043 31.5594C67.0054 30.3082 66.9723 29.0211 66.8904 27.9314C66.8495 27.3881 66.7946 26.867 66.7198 26.4109C66.6526 26.0011 66.5444 25.4754 66.3336 25.0239L62.7013 26.72C62.6668 26.646 62.7073 26.7143 62.7639 27.0596C62.8129 27.3586 62.857 27.7536 62.8929 28.232C62.9646 29.1857 62.9966 30.364 62.9956 31.5561C62.9946 32.745 62.9609 33.9166 62.9063 34.85C62.8789 35.318 62.8471 35.7102 62.8138 36.0069C62.7746 36.3562 62.7475 36.4345 62.7682 36.3694L66.5882 37.5849ZM58.2657 49.2458C59.6218 47.4957 61.5534 44.9676 63.1888 42.7485C64.0052 41.6407 64.7578 40.5963 65.3308 39.7588C65.6162 39.3416 65.8687 38.9587 66.0659 38.6361C66.222 38.3805 66.4647 37.973 66.5882 37.5848L62.7682 36.3694C62.8134 36.2272 62.832 36.2402 62.6452 36.5459C62.4994 36.7845 62.2902 37.1036 62.0222 37.4954C61.4884 38.2756 60.7678 39.2764 59.9617 40.3702C58.3522 42.5542 56.4419 45.0548 55.097 46.7903L58.2657 49.2458ZM58.4122 48.8175C58.4122 48.9724 58.3605 49.1235 58.2657 49.2458L55.097 46.7903C54.6473 47.3706 54.4035 48.0832 54.4035 48.8175H58.4122ZM58.4122 50.0165V48.8175H54.4035V50.0165H58.4122ZM55.1043 53.3244C56.9312 53.3244 58.4122 51.8434 58.4122 50.0165H54.4035C54.4035 49.6294 54.7172 49.3157 55.1043 49.3157V53.3244ZM48.3535 53.3244H55.1043V49.3157H48.3535V53.3244ZM48.2171 53.3288C48.2936 53.3255 48.3263 53.3244 48.3535 53.3244V49.3157C48.2264 49.3157 48.1094 49.321 48.0441 49.3238L48.2171 53.3288ZM45.5633 50.8571C45.5452 51.1461 45.5605 51.6092 45.8032 52.0929C46.0764 52.6374 46.5198 52.977 46.953 53.1539C47.324 53.3055 47.6598 53.3276 47.8189 53.3337C47.9873 53.3401 48.1538 53.3316 48.2171 53.3288L48.0442 49.3238C47.9372 49.3285 47.9448 49.3268 47.9714 49.3278C47.9887 49.3285 48.1997 49.333 48.4687 49.4428C48.7999 49.5781 49.1639 49.852 49.3862 50.295C49.5779 50.6772 49.5707 51.003 49.5642 51.1071L45.5633 50.8571ZM45.0063 45.2628C45.1146 46.1156 45.2673 47.3916 45.3864 48.5482C45.446 49.1274 45.4959 49.6652 45.5278 50.1C45.5437 50.3176 45.5543 50.4993 45.5597 50.6416C45.5656 50.7975 45.5631 50.8589 45.5633 50.8571L49.5642 51.1071C49.6022 50.4999 49.4872 49.2376 49.374 48.1378C49.2508 46.9405 49.094 45.6314 48.9831 44.7578L45.0063 45.2628ZM44.9863 44.6622C44.9726 44.8794 44.9832 45.0814 45.0063 45.2628L48.9831 44.7578C48.9874 44.792 48.9915 44.8459 48.9871 44.915L44.9863 44.6622ZM45.0967 43.7624C45.0432 44.0547 45.0057 44.3548 44.9863 44.6622L48.9871 44.915C48.9964 44.7676 49.0143 44.624 49.04 44.4838L45.0967 43.7624ZM30.9317 46.1275H47.0683V42.1188H30.9317V46.1275ZM33.0137 44.6619C32.9943 44.3547 32.9568 44.0547 32.9034 43.7625L28.9601 44.4837C28.9857 44.6238 29.0036 44.7673 29.0129 44.9147L33.0137 44.6619ZM32.9937 45.2625C33.0168 45.081 33.0274 44.8791 33.0137 44.6619L29.0129 44.9146C29.0085 44.8456 29.0126 44.7917 29.0169 44.7575L32.9937 45.2625ZM32.4367 50.8568C32.4369 50.8586 32.4344 50.7972 32.4403 50.6413C32.4457 50.4989 32.4563 50.3173 32.4722 50.0996C32.5041 49.6649 32.554 49.1271 32.6136 48.5478C32.7327 47.3913 32.8854 46.1153 32.9937 45.2625L29.0169 44.7575C28.906 45.6311 28.7492 46.9402 28.626 48.1374C28.5128 49.2373 28.3978 50.4995 28.4358 51.1068L32.4367 50.8568ZM29.7829 53.3285C29.8462 53.3313 30.0127 53.3398 30.1811 53.3333C30.3402 53.3273 30.676 53.3052 31.047 53.1536C31.4803 52.9767 31.9236 52.6371 32.1968 52.0925C32.4395 51.6089 32.4548 51.1458 32.4367 50.8568L28.4358 51.1068C28.4293 51.0026 28.4221 50.6768 28.6138 50.2947C28.8361 49.8517 29.2001 49.5777 29.5313 49.4425C29.8002 49.3326 30.0113 49.3282 30.0286 49.3275C30.0552 49.3265 30.0628 49.3281 29.9558 49.3235L29.7829 53.3285ZM29.6465 53.3241C29.6737 53.3241 29.7064 53.3252 29.7829 53.3285L29.9559 49.3235C29.8906 49.3207 29.7736 49.3154 29.6465 49.3154V53.3241ZM22.8957 53.3241H29.6465V49.3154H22.8957V53.3241ZM19.5878 50.0162C19.5878 51.8431 21.0688 53.3241 22.8957 53.3241V49.3154C23.2828 49.3154 23.5965 49.6291 23.5965 50.0162H19.5878ZM19.5878 48.8172V50.0162H23.5965V48.8172H19.5878ZM19.7343 49.2454C19.6395 49.1232 19.5878 48.972 19.5878 48.8172H23.5965C23.5965 48.0829 23.3526 47.3703 22.903 46.79L19.7343 49.2454ZM11.4118 37.5845C11.5353 37.9726 11.778 38.3802 11.9341 38.6357C12.1313 38.9584 12.3838 39.3413 12.6692 39.7585C13.2422 40.596 13.9948 41.6404 14.8112 42.7481C16.4466 44.9673 18.3782 47.4954 19.7343 49.2454L22.903 46.79C21.5581 45.0545 19.6478 42.5539 18.0383 40.3699C17.2322 39.2761 16.5116 38.2753 15.9778 37.495C15.7098 37.1033 15.5006 36.7842 15.3548 36.5456C15.168 36.2398 15.1866 36.2269 15.2318 36.3691L11.4118 37.5845ZM11.6664 25.0236C11.4556 25.4751 11.3474 26.0008 11.2802 26.4106C11.2054 26.8667 11.1505 27.3878 11.1096 27.9311C11.0277 29.0208 10.9946 30.3079 10.9957 31.5591C10.9967 32.8134 11.032 34.0628 11.0918 35.084C11.1217 35.5933 11.1585 36.0617 11.2024 36.4535C11.2405 36.7927 11.2992 37.2307 11.4118 37.5845L15.2318 36.3691C15.2525 36.4342 15.2254 36.3559 15.1862 36.0066C15.1529 35.7099 15.1211 35.3176 15.0937 34.8497C15.0391 33.9163 15.0054 32.7447 15.0044 31.5558C15.0034 30.3637 15.0354 29.1854 15.1071 28.2317C15.143 27.7533 15.1871 27.3583 15.2361 27.0593C15.2927 26.714 15.3332 26.6457 15.2987 26.7197L11.6664 25.0236ZM13.7052 23.5553C13.4782 23.5962 13.1401 23.6782 12.7896 23.8626C12.4325 24.0504 11.956 24.4035 11.6664 25.0236L15.2987 26.7197C15.1071 27.13 14.8055 27.3317 14.6558 27.4104C14.5779 27.4514 14.5162 27.4731 14.4817 27.4838C14.4461 27.4949 14.4229 27.4993 14.4155 27.5006L13.7052 23.5553ZM18.506 33.1087C18.6134 29.7817 18.279 27.4801 17.5802 25.9584C17.221 25.1761 16.7142 24.4893 16.0119 24.0332C15.2799 23.558 14.4621 23.419 13.7052 23.5553L14.4155 27.5006C14.1908 27.5411 13.9704 27.4874 13.8287 27.3954C13.7166 27.3226 13.793 27.3171 13.9372 27.6313C14.2456 28.3028 14.6002 29.8551 14.4994 32.9795L18.506 33.1087ZM18.5071 34.2394V33.0441H14.4983V34.2394H18.5071ZM18.3018 33.7439C18.4332 33.8753 18.5071 34.0535 18.5071 34.2394H14.4983C14.4983 35.1167 14.8469 35.9581 15.4672 36.5785L18.3018 33.7439ZM19.1704 34.6124L18.3018 33.7439L15.4672 36.5785L16.3358 37.447L19.1704 34.6124ZM15.5803 32.3246C14.8411 33.2876 14.9011 34.3824 15.1019 35.1359C15.2998 35.8782 15.6972 36.5763 16.1005 37.1639L19.4057 34.8955C19.2686 34.6957 19.1654 34.5234 19.0919 34.3799C19.0169 34.2335 18.9859 34.1427 18.9754 34.1033C18.9643 34.0617 18.9873 34.1203 18.973 34.2495C18.9567 34.3972 18.8958 34.589 18.7602 34.7655L15.5803 32.3246ZM15.9536 31.9017C15.7705 32.0761 15.6359 32.2522 15.5803 32.3246L18.7602 34.7655C18.7697 34.7533 18.7753 34.7461 18.779 34.7414C18.7826 34.7369 18.7826 34.7369 18.78 34.74C18.7756 34.7453 18.7544 34.7701 18.7187 34.8041L15.9536 31.9017ZM17.9693 31.1252C17.2812 31.1345 16.5361 31.3467 15.9535 31.9017L18.7187 34.8041C18.4037 35.1042 18.0916 35.1326 18.0238 35.1335L17.9693 31.1252ZM15.9922 31.2338V33.1294H20.0009V31.2338H15.9922ZM19.0384 23.8744C17.0866 25.8261 15.9922 28.4715 15.9922 31.2338H20.0009C20.0009 29.533 20.6742 27.9077 21.873 26.709L19.0384 23.8744ZM26.3978 20.8282C23.6355 20.8282 20.9901 21.9227 19.0384 23.8744L21.873 26.709C23.0717 25.5103 24.6969 24.8369 26.3978 24.8369V20.8282ZM51.6015 23.6114C55.6051 23.6114 58.8566 20.3599 58.8566 16.3563H54.8479C54.8479 18.146 53.3911 19.6027 51.6015 19.6027V23.6114ZM44.3463 16.3563C44.3463 20.3599 47.5978 23.6114 51.6015 23.6114V19.6027C49.8118 19.6027 48.3551 18.146 48.3551 16.3563H44.3463ZM51.6015 9.1011C47.5978 9.1011 44.3463 12.3526 44.3463 16.3563H48.3551C48.3551 14.5665 49.8118 13.1098 51.6015 13.1098V9.1011ZM58.8566 16.3563C58.8566 12.3526 55.6051 9.1011 51.6015 9.1011V13.1098C53.3911 13.1098 54.8479 14.5665 54.8479 16.3563H58.8566ZM38.9992 23.8992C43.0029 23.8992 46.2544 20.6477 46.2544 16.644H42.2456C42.2456 18.4337 40.7889 19.8904 38.9992 19.8904V23.8992ZM31.7441 16.644C31.7441 20.6477 34.9956 23.8992 38.9992 23.8992V19.8904C37.2096 19.8904 35.7528 18.4337 35.7528 16.644H31.7441ZM38.9992 9.38884C34.9956 9.38884 31.7441 12.6403 31.7441 16.644H35.7528C35.7528 14.8543 37.2096 13.3976 38.9992 13.3976V9.38884ZM46.2544 16.644C46.2544 12.6403 43.0029 9.38884 38.9992 9.38884V13.3976C40.7889 13.3976 42.2456 14.8543 42.2456 16.644H46.2544Z" fill="white" mask="url(#path-1-outside-1_492_6678)"/>
<path d="M26.3978 22.7275C28.6294 22.7275 30.7647 23.6114 32.3399 25.1867C33.9151 26.7619 34.799 28.8972 34.799 31.1288V41.6304C34.799 42.1905 34.5802 42.7243 34.1864 43.1181C33.7926 43.5119 33.2588 43.7307 32.6987 43.7307H20.0969C19.5368 43.7307 19.003 43.5119 18.6092 43.1181C18.2154 42.7243 17.9966 42.1905 17.9966 41.6304V31.1288C17.9966 28.8972 18.8805 26.7619 20.4557 25.1867C22.0309 23.6114 24.1662 22.7275 26.3978 22.7275Z" fill="#FF5065"/>
<path d="M26.3977 21.5016C29.2944 21.5016 31.6485 19.1475 31.6485 16.2508C31.6485 13.3541 29.2944 11 26.3977 11C23.5011 11 21.147 13.3541 21.147 16.2508C21.147 19.1475 23.5011 21.5016 26.3977 21.5016Z" fill="#FF5065"/>
<path d="M57.9023 43.7307H45.3005C44.7404 43.7307 44.2066 43.5119 43.8128 43.1181C43.419 42.7243 43.2002 42.1905 43.2002 41.6304V31.1288C43.2002 28.8972 44.0841 26.7619 45.6593 25.1867C47.2345 23.6114 49.3698 22.7275 51.6014 22.7275C53.833 22.7275 55.9683 23.6114 57.5435 25.1867C59.1188 26.7619 60.0026 28.8972 60.0026 31.1288V41.6304C60.0026 42.1905 59.7839 42.7243 59.3901 43.1181C58.9962 43.5119 58.4624 43.7307 57.9023 43.7307Z" fill="#1ACEFF"/>
<path d="M51.6014 21.5016C54.498 21.5016 56.8521 19.1475 56.8521 16.2508C56.8521 13.3541 54.498 11 51.6014 11C48.7047 11 46.3506 13.3541 46.3506 16.2508C46.3506 19.1475 48.7047 21.5016 51.6014 21.5016Z" fill="#1ACEFF"/>
<path d="M37.1532 23.4522H40.8287C42.9444 23.4522 44.9684 24.2901 46.4614 25.7832C47.9545 27.2762 48.7924 29.3002 48.7924 31.4159V41.9175C48.7924 42.3631 48.6186 42.7852 48.3079 43.0958C47.9973 43.4064 47.5753 43.5802 47.1296 43.5802H30.8523C30.4066 43.5802 29.9846 43.4064 29.6739 43.0958C29.3633 42.7852 29.1895 42.3631 29.1895 41.9175V31.4159C29.1895 29.3002 30.0274 27.2762 31.5205 25.7832C33.0135 24.2901 35.0375 23.4522 37.1532 23.4522Z" fill="#FFC747" stroke="#FFC747" stroke-width="0.875129"/>
<path d="M43.8125 16.5389C43.8125 19.1939 41.6543 21.3521 38.9993 21.3521C36.3443 21.3521 34.1861 19.1939 34.1861 16.5389C34.1861 13.8838 36.3443 11.7257 38.9993 11.7257C41.6543 11.7257 43.8125 13.8838 43.8125 16.5389Z" fill="#FFC747" stroke="#FFC747" stroke-width="0.875129"/>
<path d="M21.5922 49.9105V48.7115C21.5922 48.4218 21.4961 48.1411 21.3186 47.9121C18.6177 44.4265 13.6348 37.8548 13.3218 36.8712C12.9544 35.7166 12.7775 27.2758 13.4825 25.766C13.5805 25.5562 13.8324 25.4634 14.0603 25.4224C15.1248 25.2307 16.7108 26.487 16.5027 32.9385V34.1338C16.5027 34.4795 16.6401 34.8111 16.8845 35.0555L17.7531 35.9241C17.0585 34.912 16.7369 34.004 17.1703 33.4394C17.2216 33.3726 17.2752 33.3053 17.3361 33.2472C17.8605 32.7477 19.6555 32.7948 23.3851 36.5245C23.9056 37.0642 25.1085 38.1785 25.7563 38.3173C26.5584 38.4892 30.7655 40.7609 31.0133 44.6826C31.018 44.7567 31.0147 44.8307 31.0053 44.9044C30.7861 46.6308 30.3862 50.0744 30.4363 50.8762C30.4642 51.3229 30.0941 51.2141 29.6465 51.2141H22.8957C22.1758 51.2141 21.5922 50.6305 21.5922 49.9105Z" fill="#FFE39E"/>
<path d="M56.4078 49.9105V48.7115C56.4078 48.4218 56.5039 48.1411 56.6814 47.9121C59.3823 44.4265 64.3652 37.8548 64.6782 36.8712C65.0456 35.7166 65.2225 27.2758 64.5175 25.766C64.4195 25.5562 64.1676 25.4634 63.9397 25.4224C62.8752 25.2307 61.2892 26.487 61.4973 32.9385V34.1338C61.4973 34.4795 61.3599 34.8111 61.1155 35.0555L60.2469 35.9241C60.9415 34.912 61.2631 34.004 60.8297 33.4394C60.7784 33.3726 60.7248 33.3053 60.6639 33.2472C60.1395 32.7477 58.3445 32.7948 54.6149 36.5245C54.0944 37.0642 52.8915 38.1785 52.2437 38.3173C51.4416 38.4892 47.2345 40.7609 46.9867 44.6826C46.982 44.7567 46.9853 44.8307 46.9947 44.9044C47.2139 46.6308 47.6138 50.0744 47.5637 50.8762C47.5358 51.3229 47.9059 51.2141 48.3535 51.2141H55.1043C55.8242 51.2141 56.4078 50.6305 56.4078 49.9105Z" fill="#FFE39E"/>
</g>
<defs>
<filter id="filter0_d_492_6678" x="0.97375" y="0.0818923" width="80.0612" height="68.2868" filterUnits="userSpaceOnUse" color-interpolation-filters="sRGB">
<feFlood flood-opacity="0" result="BackgroundImageFix"/>
<feColorMatrix in="SourceAlpha" type="matrix" values="0 0 0 0 0 0 0 0 0 0 0 0 0 0 0 0 0 0 127 0" result="hardAlpha"/>
<feOffset dx="2.00437" dy="3.00656"/>
<feGaussianBlur stdDeviation="6.01311"/>
<feComposite in2="hardAlpha" operator="out"/>
<feColorMatrix type="matrix" values="0 0 0 0 0 0 0 0 0 0 0 0 0 0 0 0 0 0 0.08 0"/>
<feBlend mode="normal" in2="BackgroundImageFix" result="effect1_dropShadow_492_6678"/>
<feBlend mode="normal" in="SourceGraphic" in2="effect1_dropShadow_492_6678" result="shape"/>
</filter>
</defs>
</svg>