<svg width="80" height="80" viewBox="0 0 80 80" fill="none" xmlns="http://www.w3.org/2000/svg">
<g filter="url(#filter0_d_492_3218)">
<mask id="path-1-outside-1_492_3218" maskUnits="userSpaceOnUse" x="11" y="10" width="54" height="54" fill="black">
<rect fill="white" x="11" y="10" width="54" height="54"/>
<path fill-rule="evenodd" clip-rule="evenodd" d="M16.2857 13C15.0233 13 14 14.0234 14 15.2857V33.5714C14 34.8338 15.0234 35.8571 16.2857 35.8571H34.5714C35.8338 35.8571 36.8571 34.8338 36.8571 33.5714V15.2857C36.8571 14.0233 35.8338 13 34.5714 13H16.2857ZM39.143 15.2857C39.143 14.0234 40.1663 13 41.4287 13H59.7144C60.9767 13 62.0001 14.0233 62.0001 15.2857V33.5714C62.0001 34.8338 60.9767 35.8571 59.7144 35.8571H41.4287C40.1663 35.8571 39.143 34.8338 39.143 33.5714V15.2857ZM14 40.4287C14 39.1663 15.0233 38.143 16.2857 38.143H34.5714C35.8338 38.143 36.8571 39.1663 36.8571 40.4287V58.7144C36.8571 59.9767 35.8338 61.0001 34.5714 61.0001H16.2857C15.0234 61.0001 14 59.9767 14 58.7144V40.4287ZM39.143 40.4287C39.143 39.1663 40.1663 38.143 41.4287 38.143H59.7144C60.9767 38.143 62.0001 39.1663 62.0001 40.4287V58.7144C62.0001 59.9767 60.9767 61.0001 59.7144 61.0001H41.4287C40.1663 61.0001 39.143 59.9767 39.143 58.7144V40.4287Z"/>
</mask>
<path fill-rule="evenodd" clip-rule="evenodd" d="M16.2857 13C15.0233 13 14 14.0234 14 15.2857V33.5714C14 34.8338 15.0234 35.8571 16.2857 35.8571H34.5714C35.8338 35.8571 36.8571 34.8338 36.8571 33.5714V15.2857C36.8571 14.0233 35.8338 13 34.5714 13H16.2857ZM39.143 15.2857C39.143 14.0234 40.1663 13 41.4287 13H59.7144C60.9767 13 62.0001 14.0233 62.0001 15.2857V33.5714C62.0001 34.8338 60.9767 35.8571 59.7144 35.8571H41.4287C40.1663 35.8571 39.143 34.8338 39.143 33.5714V15.2857ZM14 40.4287C14 39.1663 15.0233 38.143 16.2857 38.143H34.5714C35.8338 38.143 36.8571 39.1663 36.8571 40.4287V58.7144C36.8571 59.9767 35.8338 61.0001 34.5714 61.0001H16.2857C15.0234 61.0001 14 59.9767 14 58.7144V40.4287ZM39.143 40.4287C39.143 39.1663 40.1663 38.143 41.4287 38.143H59.7144C60.9767 38.143 62.0001 39.1663 62.0001 40.4287V58.7144C62.0001 59.9767 60.9767 61.0001 59.7144 61.0001H41.4287C40.1663 61.0001 39.143 59.9767 39.143 58.7144V40.4287Z" fill="white"/>
<path d="M16.2857 15.2857L16.2857 15.2857V10.7143C13.761 10.7143 11.7143 12.761 11.7143 15.2857H16.2857ZM16.2857 33.5714V15.2857H11.7143V33.5714H16.2857ZM16.2857 33.5714H16.2857H11.7143C11.7143 36.0962 13.761 38.1429 16.2857 38.1429V33.5714ZM34.5714 33.5714H16.2857V38.1429H34.5714V33.5714ZM34.5714 33.5714V33.5714V38.1429C37.0962 38.1429 39.1429 36.0962 39.1429 33.5714H34.5714ZM34.5714 15.2857V33.5714H39.1429V15.2857H34.5714ZM34.5714 15.2857L34.5714 15.2857H39.1429C39.1429 12.761 37.0962 10.7143 34.5714 10.7143V15.2857ZM16.2857 15.2857H34.5714V10.7143H16.2857V15.2857ZM41.4287 10.7143C38.9039 10.7143 36.8572 12.761 36.8572 15.2857H41.4287V15.2857V10.7143ZM59.7144 10.7143H41.4287V15.2857H59.7144V10.7143ZM64.2858 15.2857C64.2858 12.761 62.2391 10.7143 59.7144 10.7143V15.2857L59.7144 15.2857H64.2858ZM64.2858 33.5714V15.2857H59.7144V33.5714H64.2858ZM59.7144 38.1429C62.2391 38.1429 64.2858 36.0962 64.2858 33.5714H59.7144V33.5714V38.1429ZM41.4287 38.1429H59.7144V33.5714H41.4287V38.1429ZM36.8572 33.5714C36.8572 36.0962 38.9039 38.1429 41.4287 38.1429V33.5714H41.4287H36.8572ZM36.8572 15.2857V33.5714H41.4287V15.2857H36.8572ZM16.2857 35.8572C13.761 35.8572 11.7143 37.9039 11.7143 40.4287H16.2857L16.2857 40.4287V35.8572ZM34.5714 35.8572H16.2857V40.4287H34.5714V35.8572ZM39.1429 40.4287C39.1429 37.9039 37.0962 35.8572 34.5714 35.8572V40.4287H34.5714H39.1429ZM39.1429 58.7144V40.4287H34.5714V58.7144H39.1429ZM34.5714 63.2858C37.0962 63.2858 39.1429 61.2391 39.1429 58.7144H34.5714V58.7144V63.2858ZM16.2857 63.2858H34.5714V58.7144H16.2857V63.2858ZM11.7143 58.7144C11.7143 61.2391 13.761 63.2858 16.2857 63.2858V58.7144H16.2857H11.7143ZM11.7143 40.4287V58.7144H16.2857V40.4287H11.7143ZM41.4287 35.8572C38.9039 35.8572 36.8572 37.9039 36.8572 40.4287H41.4287V40.4287V35.8572ZM59.7144 35.8572H41.4287V40.4287H59.7144V35.8572ZM64.2858 40.4287C64.2858 37.9039 62.2391 35.8572 59.7144 35.8572V40.4287H59.7144H64.2858ZM64.2858 58.7144V40.4287H59.7144V58.7144H64.2858ZM59.7144 63.2858C62.2391 63.2858 64.2858 61.2391 64.2858 58.7144H59.7144V58.7144V63.2858ZM41.4287 63.2858H59.7144V58.7144H41.4287V63.2858ZM36.8572 58.7144C36.8572 61.2391 38.9039 63.2858 41.4287 63.2858V58.7144H41.4287H36.8572ZM36.8572 40.4287V58.7144H41.4287V40.4287H36.8572Z" fill="white" mask="url(#path-1-outside-1_492_3218)"/>
<rect x="14" y="13" width="22.8571" height="22.8571" rx="2.28571" fill="#FFC747"/>
<path d="M22.0171 22.9853H23.8431V21.2347C23.8431 20.1464 24.5639 19.626 25.4289 19.626C26.2938 19.626 27.0146 20.1464 27.0146 21.2347V22.9853H28.8406C29.8498 22.9853 30.2342 23.695 30.2342 24.4047C30.2342 25.1144 29.8498 25.8714 28.8406 25.8714H27.0146V27.622C27.0146 28.7103 26.2938 29.2307 25.4289 29.2307C24.5639 29.2307 23.8431 28.7103 23.8431 27.622V25.8714H22.0171C21.008 25.8714 20.6235 25.1144 20.6235 24.4047C20.6235 23.695 21.008 22.9853 22.0171 22.9853Z" fill="white"/>
<rect x="39.1431" y="13" width="22.8571" height="22.8571" rx="2.28571" fill="#FFE39E"/>
<path d="M47.2558 22.8438H53.8871C54.9923 22.8438 55.3768 23.6481 55.3768 24.4051C55.3768 25.1621 54.9443 26.0138 53.8871 26.0138H47.2558C46.1986 26.0138 45.7661 25.1621 45.7661 24.4051C45.7661 23.6481 46.1505 22.8438 47.2558 22.8438Z" fill="white"/>
<rect x="14" y="38.1426" width="22.8571" height="22.8571" rx="2.28571" fill="#1ACEFF"/>
<path d="M22.0107 48.5476H27.681C28.4979 48.5476 28.8343 49.1627 28.8343 49.7304C28.8343 50.2982 28.4979 50.9133 27.681 50.9133H22.0107C21.1938 50.9133 20.8574 50.2509 20.8574 49.7304C20.8574 49.21 21.1938 48.5476 22.0107 48.5476ZM24.8458 44.999C25.8069 44.999 26.3355 45.5668 26.3355 46.4184C26.3355 47.2701 25.7589 47.8379 24.8458 47.8379C23.9328 47.8379 23.3562 47.3174 23.3562 46.4184C23.3562 45.5195 23.9328 44.999 24.8458 44.999ZM24.8458 51.6703C25.8069 51.6703 26.3355 52.2381 26.3355 53.0897C26.3355 53.9414 25.7589 54.5091 24.8458 54.5091C23.9328 54.5091 23.3562 53.9887 23.3562 53.0897C23.3562 52.1907 23.9328 51.6703 24.8458 51.6703Z" fill="white"/>
<rect x="39.1431" y="38.1426" width="22.8571" height="22.8571" rx="2.28571" fill="#9EEAFF"/>
<path d="M49.1536 46.1649L50.451 47.4424L51.7004 46.2122C52.4692 45.4552 53.3822 45.5971 53.9589 46.2122C54.5355 46.8273 54.7277 47.6789 53.9589 48.436L52.7095 49.6661L54.0069 50.9436C54.7277 51.6533 54.4875 52.4103 54.0069 52.9308C53.5264 53.4512 52.6614 53.6878 51.9887 52.9781L50.6913 51.7006L49.4419 52.9308C48.673 53.6878 47.76 53.5459 47.1834 52.9308C46.6067 52.3157 46.4145 51.464 47.1834 50.707L48.4328 49.4769L47.1353 48.1994C46.4145 47.4897 46.7028 46.6853 47.2314 46.2122C47.76 45.7391 48.5289 45.4552 49.2497 46.2122L49.1536 46.1649Z" fill="white"/>
</g>
<defs>
<filter id="filter0_d_492_3218" x="0.285784" y="0.428153" width="79.9999" height="80.0008" filterUnits="userSpaceOnUse" color-interpolation-filters="sRGB">
<feFlood flood-opacity="0" result="BackgroundImageFix"/>
<feColorMatrix in="SourceAlpha" type="matrix" values="0 0 0 0 0 0 0 0 0 0 0 0 0 0 0 0 0 0 127 0" result="hardAlpha"/>
<feOffset dx="2.28571" dy="3.42857"/>
<feGaussianBlur stdDeviation="6.85714"/>
<feComposite in2="hardAlpha" operator="out"/>
<feColorMatrix type="matrix" values="0 0 0 0 0 0 0 0 0 0 0 0 0 0 0 0 0 0 0.08 0"/>
<feBlend mode="normal" in2="BackgroundImageFix" result="effect1_dropShadow_492_3218"/>
<feBlend mode="normal" in="SourceGraphic" in2="effect1_dropShadow_492_3218" result="shape"/>
</filter>
</defs>
</svg>