<svg width="80" height="80" viewBox="0 0 80 80" fill="none" xmlns="http://www.w3.org/2000/svg">
<g filter="url(#filter0_d_492_4440)">
<path d="M55.5 11.53H50.55C50.21 10.08 48.92 9 47.37 9H44.84C43.29 9 42 10.08 41.66 11.53H30.28C29.95 10.08 28.65 9 27.1 9H24.62C23.07 9 21.78 10.08 21.44 11.53H16.5C12.92 11.53 10 14.44 10 18.03V51.42C10 55.31 13.16 58.47 17.05 58.47H54.95C58.84 58.47 62 55.31 62 51.42V18.03C62 14.45 59.08 11.53 55.5 11.53Z" fill="white"/>
</g>
<path d="M54.95 13.5303H17.05C14.26 13.5303 12 15.7903 12 18.5803V51.4203C12 54.2103 14.26 56.4703 17.05 56.4703H54.95C57.74 56.4703 60 54.2103 60 51.4203V18.5803C60 15.7903 57.74 13.5303 54.95 13.5303Z" fill="#F9F9F9"/>
<path d="M12 18.0303C12 15.5403 14.01 13.5303 16.5 13.5303H55.5C57.99 13.5303 60 15.5403 60 18.0303V24.0303H12V18.0303Z" fill="#FF5065"/>
<path d="M27.1101 11H24.6301C23.9301 11 23.3701 11.57 23.3701 12.26V17.31C23.3701 18.01 23.9401 18.57 24.6301 18.57H27.1101C27.8101 18.57 28.3701 18 28.3701 17.31V12.26C28.3701 11.56 27.8001 11 27.1101 11Z" fill="#FFB3BC"/>
<path d="M47.3701 11H44.8401C44.1401 11 43.5801 11.57 43.5801 12.26V17.31C43.5801 18.01 44.1501 18.57 44.8401 18.57H47.3701C48.0701 18.57 48.6301 18 48.6301 17.31V12.26C48.6301 11.56 48.0601 11 47.3701 11Z" fill="#FFB3BC"/>
<path d="M42.7896 35.9648H52.2484V37.5884H44.8366V41.626H52.3895V43.2496H42.7896V35.9648Z" fill="#FF5065"/>
<path d="M31.4888 43.1221V35.8232H33.5358V41.4985H41.0888V43.1221H31.4888Z" fill="#FF5065"/>
<path d="M20.1177 36.0352H29.7177V38.5199C29.7177 39.3952 29.6847 40.261 29.6189 41.1175C29.5624 41.974 29.4871 42.8305 29.393 43.6869L27.3883 43.5034C27.4918 42.694 27.5624 41.8987 27.6 41.1175C27.6471 40.3363 27.6706 39.5505 27.6706 38.7599V37.6869H20.1177V36.0352Z" fill="#FF5065"/>
<defs>
<filter id="filter0_d_492_4440" x="0" y="0" width="76" height="73.4697" filterUnits="userSpaceOnUse" color-interpolation-filters="sRGB">
<feFlood flood-opacity="0" result="BackgroundImageFix"/>
<feColorMatrix in="SourceAlpha" type="matrix" values="0 0 0 0 0 0 0 0 0 0 0 0 0 0 0 0 0 0 127 0" result="hardAlpha"/>
<feOffset dx="2" dy="3"/>
<feGaussianBlur stdDeviation="6"/>
<feComposite in2="hardAlpha" operator="out"/>
<feColorMatrix type="matrix" values="0 0 0 0 0 0 0 0 0 0 0 0 0 0 0 0 0 0 0.08 0"/>
<feBlend mode="normal" in2="BackgroundImageFix" result="effect1_dropShadow_492_4440"/>
<feBlend mode="normal" in="SourceGraphic" in2="effect1_dropShadow_492_4440" result="shape"/>
</filter>
</defs>
</svg>