<svg width="24" height="24" viewBox="0 0 24 24" fill="none" xmlns="http://www.w3.org/2000/svg">
<path d="M16.2665 10.9324L13.0681 7.73401L14.6673 4L20.0005 9.33321L16.2665 10.9324Z" fill="#FF9BA3"/>
<path d="M14.6664 9.33334L13.0672 7.73413L7.734 8.79776L4.34701 18.8456L4 19.9997L5.1466 19.6452L15.202 16.2657L16.2656 10.9325L14.6664 9.33334Z" fill="#F1F1F1"/>
<path d="M12.5316 11.4681C12.3915 11.3278 12.2251 11.2165 12.042 11.1406C11.8588 11.0646 11.6625 11.0256 11.4642 11.0256C11.266 11.0256 11.0696 11.0646 10.8865 11.1406C10.7033 11.2165 10.5369 11.3278 10.3968 11.4681C10.186 11.6809 10.0433 11.9516 9.98681 12.2458C9.93039 12.54 9.96283 12.8444 10.08 13.1201L4.34699 18.8531L4 19.9997L5.14659 19.6527L10.8796 13.9197C11.1553 14.0368 11.4596 14.0693 11.7539 14.0128C12.0481 13.9564 12.3188 13.8137 12.5316 13.6029C12.6719 13.4627 12.7832 13.2964 12.8591 13.1132C12.935 12.9301 12.9741 12.7337 12.9741 12.5355C12.9741 12.3371 12.935 12.1409 12.8591 11.9577C12.7832 11.7746 12.6719 11.6082 12.5316 11.4681Z" fill="#DCDCDC"/>
</svg>
