<svg width="142" height="80" viewBox="0 0 142 80" fill="none" xmlns="http://www.w3.org/2000/svg">
<rect width="142" height="80" rx="6" fill="#0064FF"/>
<path d="M39.1685 34.1748L40.0578 29.7153C40.0977 29.4913 39.9179 29.2885 39.708 29.3419C38.4193 29.5872 37.0806 30.014 35.7519 30.6221C29.7778 33.3214 26.1614 38.613 27.6798 42.443C28.8288 45.3129 32.5351 46.5398 36.8409 45.825L35.9518 50.2845C35.9118 50.5085 36.0916 50.7113 36.3015 50.658C37.5902 50.4126 38.9289 49.9858 40.2577 49.3777C46.2319 46.6785 49.8383 41.3869 48.3198 37.5462C47.1809 34.687 43.4746 33.46 39.1688 34.1748H39.1685Z" fill="white"/>
<path d="M61.4559 44.5241V37.8643H58V34.3432H61.4559V30.1331L65.6885 29V34.3432H70.941V37.8643H65.6885V44.4628C65.6885 46.2235 66.6324 47.2491 68.2615 47.2491C69.1901 47.2491 69.8602 47.0652 70.5756 46.5447L72.0828 49.7139C70.9713 50.5867 69.4792 51 67.8808 51C63.7547 50.9695 61.4559 48.6424 61.4559 44.5238V44.5241Z" fill="white"/>
<path d="M72.2808 42.4262C72.2808 37.5881 76.0261 33.9443 81.0654 33.9443C86.1047 33.9443 89.8501 37.5881 89.8501 42.4262C89.8501 47.2642 86.1047 50.908 81.0654 50.908C76.0261 50.908 72.2808 47.2947 72.2808 42.4262ZM81.0657 47.1417C83.654 47.1417 85.5721 45.1361 85.5721 42.4566C85.5721 39.7772 83.6387 37.7565 81.0657 37.7565C78.4928 37.7565 76.5593 39.7621 76.5593 42.4416C76.5593 45.121 78.4928 47.1417 81.0657 47.1417Z" fill="white"/>
<path d="M90.9312 46.6981L95.1331 45.565C95.4072 46.8816 96.6099 47.6165 98.574 47.6165C100.173 47.6165 101.345 46.8816 101.345 45.917C101.345 45.2127 100.523 44.6922 99.2742 44.4319L96.138 43.7584C93.169 43.1307 91.3575 41.5231 91.3575 39.2572C91.3575 36.0727 94.098 33.96 98.1174 33.96C101.711 33.96 104.436 35.6135 105.151 38.2622L101.193 39.3339C100.934 38.0632 99.7005 37.2212 97.9649 37.2212C96.5184 37.2212 95.5441 37.9101 95.5441 38.8748C95.5441 39.625 96.1989 40.0078 97.2951 40.2681L100.964 41.1101C103.766 41.7377 105.456 43.33 105.456 45.5958C105.456 48.9334 102.685 50.9236 98.1934 50.9236C94.2502 50.9236 91.5097 49.3159 90.9312 46.6981Z" fill="white"/>
<path d="M106.476 46.6977L110.678 45.5646C110.952 46.8812 112.154 47.616 114.118 47.616C115.717 47.616 116.889 46.8812 116.889 45.9166C116.889 45.2122 116.067 44.6918 114.819 44.4315L111.682 43.773C108.713 43.1454 106.902 41.5377 106.902 39.2719C106.902 36.0874 109.642 33.9746 113.662 33.9746C117.255 33.9746 119.98 35.6282 120.696 38.2768L116.737 39.3486C116.478 38.0779 115.245 37.2358 113.509 37.2358C112.063 37.2358 111.089 37.9248 111.089 38.8894C111.089 39.6396 111.743 40.0225 112.84 40.2827L116.509 41.1247C119.31 41.7524 121 43.3447 121 45.6105C121 48.9481 118.229 50.9382 113.738 50.9382C109.795 50.9228 107.069 49.3155 106.476 46.6973V46.6977Z" fill="white"/>
</svg>

